<?xml version="1.0" encoding="utf-8"?>
<!-- Generator: Adobe Illustrator 21.1.0, SVG Export Plug-In . SVG Version: 6.00 Build 0)  -->
<svg version="1.1" id="Layer_1" xmlns="http://www.w3.org/2000/svg" xmlns:xlink="http://www.w3.org/1999/xlink" x="0px" y="0px"
	 viewBox="0 0 945 549.4" style="enable-background:new 0 0 945 549.4;" xml:space="preserve">
<style type="text/css">
	.st0{fill:#E3F6FF;}
	.st1{fill:#0F62FE;}
	.st2{fill:#408BFC;}
	.st3{fill:#FFFFFF;}
	.st4{fill:#009C98;}
	.st5{fill:#051B75;}
	.st6{fill:none;stroke:#BEBEBE;stroke-width:2;stroke-linecap:square;}
	.st7{fill:#BEBEBE;}
	.st8{fill:#F4F4F4;}
	.st9{fill:none;}
	.st10{fill:#161616;}
	.st11{font-family:'IBMPlexSans';}
	.st12{font-size:14px;}
	.st13{font-family:'IBMPlexSans-Medium';}
	.st14{font-size:16px;}
	.st15{font-size:12px;}
</style>
<g id="Group-2" transform="translate(21.000000, 0.000000)">
	<circle id="Oval-Copy-3" class="st0" cx="38" cy="222.7" r="24"/>
	<g id="icon_x2F_policy-admin" transform="translate(8.000000, 8.000000)">
		<path id="Shape" class="st1" d="M25,217.7c2.8,0,5,2.2,5,5v6h-2v-6c0-1.7-1.3-3-3-3h-4c-1.7,0-3,1.3-3,3v6h-2v-6c0-2.8,2.2-5,5-5
			H25z M23,205.7c2.8,0,5,2.2,5,5s-2.2,5-5,5s-5-2.2-5-5S20.2,205.7,23,205.7z M41.6,205.7l1.4,1.4l-7.1,7.1l-3.9-3.9l1.4-1.4
			l2.5,2.5L41.6,205.7z M23,207.7c-1.7,0-3,1.3-3,3s1.3,3,3,3s3-1.3,3-3S24.7,207.7,23,207.7z"/>
	</g>
</g>
<g id="Group-2_1_" transform="translate(21.000000, 0.000000)">
	<circle id="Oval-Copy-3_1_" class="st0" cx="345" cy="480.7" r="24"/>
	<g id="icon_x2F_node-owner" transform="translate(8.000000, 8.000000)">
		<g id="Group-23" transform="translate(2.000000, 4.000000)">
			<path id="Shape_1_" class="st1" d="M330,471.7c2.8,0,5,2.2,5,5v6h-2v-6c0-1.7-1.3-3-3-3h-4c-1.7,0-3,1.3-3,3v6h-2v-6
				c0-2.8,2.2-5,5-5H330z M328,459.7c2.8,0,5,2.2,5,5s-2.2,5-5,5s-5-2.2-5-5S325.2,459.7,328,459.7z M341,467.7v2h-2v-2H341z
				 M346,467.7v2h-2v-2H346z M328,461.7c-1.7,0-3,1.3-3,3s1.3,3,3,3s3-1.3,3-3S329.7,461.7,328,461.7z M349,464.7v2h-2v-2H349z
				 M338,464.7v2h-2v-2H338z M346,459.7v7h-7v-7H346z M344,461.7h-3v3h3V461.7z M349,459.7v2h-2v-2H349z M338,459.7v2h-2v-2H338z
				 M341,456.7v2h-2v-2H341z M346,456.7v2h-2v-2H346z"/>
		</g>
	</g>
</g>
<g id="Group-2_2_" transform="translate(27.000000, 0.000000)">
	<circle id="Oval-Copy-3_2_" class="st0" cx="240" cy="65.7" r="24"/>
	<g id="icon_x2F_cloud-installer" transform="translate(8.000000, 8.000000)">
		<path id="Shape_2_" class="st1" d="M227,60.7c2.8,0,5,2.2,5,5v6h-2v-6c0-1.7-1.3-3-3-3h-4c-1.7,0-3,1.3-3,3v6h-2v-6
			c0-2.8,2.2-5,5-5H227z M225,48.7c2.8,0,5,2.2,5,5s-2.2,5-5,5s-5-2.2-5-5S222.2,48.7,225,48.7z M240,46.6c2.1,0,3.9,1.4,4.5,3.4
			l0.1,0.2v0.1l0,0c1.3,0.5,2.2,1.7,2.3,3.1v0.2v0.2c0,2.1-1.6,3.7-3.7,3.9H243h-6.3c-2.1,0-3.9-1.7-3.9-3.9c0-1.5,0.9-2.8,2.2-3.5
			l0.2-0.1v-0.1c0.5-1.9,2.1-3.4,4.1-3.6h0.2L240,46.6z M225,50.7c-1.7,0-3,1.3-3,3s1.3,3,3,3s3-1.3,3-3S226.7,50.7,225,50.7z
			 M240,48.6c-1.4,0-2.5,1-2.7,2.4v0.2V52l-0.8,0.2c-0.9,0.2-1.5,0.9-1.5,1.8c0,1,0.8,1.8,1.7,1.9h0.1h6.3c1,0,1.9-0.8,1.9-1.9
			c0-0.8-0.6-1.6-1.3-1.8h-0.1l-0.8-0.2v-0.8C242.6,49.7,241.4,48.6,240,48.6z"/>
	</g>
</g>
<g id="Group-2_3_" transform="translate(47.000000, 0.000000)">
	<circle id="Oval-Copy-3_3_" class="st0" cx="499" cy="65.7" r="24"/>
	<g id="icon_x2F_developer" transform="translate(8.000000, 8.000000)">
		<path id="Shape_3_" class="st1" d="M486,60.7c2.8,0,5,2.2,5,5v6h-2v-6c0-1.7-1.3-3-3-3h-4c-1.7,0-3,1.3-3,3v6h-2v-6
			c0-2.8,2.2-5,5-5H486z M484,48.7c2.8,0,5,2.2,5,5s-2.2,5-5,5s-5-2.2-5-5S481.2,48.7,484,48.7z M499.1,47.6l1.8,0.4l-2.4,10.4
			l-1.8-0.4L499.1,47.6z M493.9,49.3l1.4,1.2l-2.1,2.6l2.1,2.6l-1.4,1.2l-3.1-3.7L493.9,49.3z M503.7,49.3l3.1,3.7l-3.1,3.7
			l-1.4-1.2l2.1-2.6l-2.1-2.6L503.7,49.3z M484,50.7c-1.7,0-3,1.3-3,3s1.3,3,3,3s3-1.3,3-3S485.7,50.7,484,50.7z"/>
	</g>
</g>
<rect id="Rectangle-Copy" x="467" y="340.7" class="st2" width="304" height="157"/>
<rect id="Rectangle-Copy-9" x="483" y="400.7" class="st3" width="80" height="81"/>
<rect id="Rectangle-Copy-10" x="675" y="400.7" class="st3" width="80" height="81"/>
<rect id="Rectangle-Copy-11" x="723" y="144.7" class="st4" width="208" height="155"/>
<rect id="Rectangle-Copy-12" x="244.2" y="144.7" class="st5" width="439.2" height="155"/>
<path id="Line-3-Copy" class="st6" d="M401.3,482.2c0,0,22.9,0,65.7,0C424.2,482.2,401.3,482.2,401.3,482.2z"/>
<g id="Group-4-Copy" transform="translate(680.000000, 87.500000) scale(1, -1) translate(-680.000000, -87.500000) translate(565.000000, 48.000000)">
	<path id="Path-2-Copy-5" class="st7" d="M244-17.2l7,14h-6v65.5H13v-2h230V-3.2h-6L244-17.2z"/>
</g>
<path id="Line-7" class="st7" d="M640,66.2v64h6l-7,14l-7-14h6v-64H640z"/>
<path id="Path-2-Copy-11" class="st7" d="M661,434.7l14,7l-14,7v-6h-98v-2h98V434.7z"/>
<g id="icon_x2F_device_x2F_16" transform="translate(685.000000, 339.000000)">
	<path id="Shape_4_" class="st8" d="M23,18.7c0.6,0,1,0.4,1,1c0,0.5-0.4,0.9-0.8,1l-0.5,1H26c1.1,0,2,0.9,2,2v5c0,1.1-0.9,2-2,2h-8
		c-1.1,0-2-0.9-2-2v-5c0-1.1,0.9-2,2-2h3.7l0.6-1.4C22.1,20.2,22,20,22,19.8v-0.1C22,19.1,22.4,18.7,23,18.7z M26,22.7h-8
		c-0.5,0-0.9,0.4-1,0.9v0.1v5c0,0.5,0.4,0.9,0.9,1H18h8c0.5,0,0.9-0.4,1-0.9v-0.1v-5c0-0.5-0.4-0.9-0.9-1H26z M24.5,27.7
		c0.3,0,0.5,0.2,0.5,0.5s-0.2,0.5-0.5,0.5h-5c-0.3,0-0.5-0.2-0.5-0.5s0.2-0.5,0.5-0.5H24.5z M19.5,23.7c0.8,0,1.5,0.7,1.5,1.5
		s-0.7,1.5-1.5,1.5S18,26,18,25.2S18.7,23.7,19.5,23.7z M24.5,23.7c0.8,0,1.5,0.7,1.5,1.5s-0.7,1.5-1.5,1.5S23,26,23,25.2
		S23.7,23.7,24.5,23.7z M19.5,24.7c-0.3,0-0.5,0.2-0.5,0.5s0.2,0.5,0.5,0.5s0.5-0.2,0.5-0.5S19.8,24.7,19.5,24.7z M24.5,24.7
		c-0.3,0-0.5,0.2-0.5,0.5s0.2,0.5,0.5,0.5s0.5-0.2,0.5-0.5S24.8,24.7,24.5,24.7z"/>
</g>
<g id="icon_x2F_cluster_x2F_16" transform="translate(606.000000, 339.000000)">
	<path id="Shape_5_" class="st8" d="M22,21.2c0.8,0,1.5-0.7,1.5-1.5s-0.7-1.5-1.5-1.5s-1.5,0.7-1.5,1.5S21.2,21.2,22,21.2z M22,19.2
		c0.3,0,0.5,0.2,0.5,0.5s-0.2,0.5-0.5,0.5s-0.5-0.2-0.5-0.5S21.7,19.2,22,19.2z M26.8,23.6c0.8,0,1.5-0.7,1.5-1.5
		c0-0.8-0.7-1.5-1.5-1.5c-0.8,0-1.5,0.7-1.5,1.5C25.3,22.9,26,23.6,26.8,23.6z M26.8,21.6c0.3,0,0.5,0.2,0.5,0.5
		c0,0.3-0.2,0.5-0.5,0.5c-0.3,0-0.5-0.2-0.5-0.5C26.3,21.8,26.5,21.6,26.8,21.6L26.8,21.6z M16.2,25.8c-0.8,0-1.5,0.7-1.5,1.5
		s0.7,1.5,1.5,1.5c0.8,0,1.5-0.7,1.5-1.5S17.1,25.8,16.2,25.8z M16.2,27.8c-0.3,0-0.5-0.2-0.5-0.5s0.2-0.5,0.5-0.5
		c0.3,0,0.5,0.2,0.5,0.5C16.7,27.6,16.5,27.8,16.2,27.8z M17.2,23.6c0.8,0,1.5-0.7,1.5-1.5c0-0.8-0.7-1.5-1.5-1.5
		c-0.8,0-1.5,0.7-1.5,1.5C15.7,22.9,16.4,23.6,17.2,23.6L17.2,23.6z M17.2,21.6c0.3,0,0.5,0.2,0.5,0.5c0,0.3-0.2,0.5-0.5,0.5
		c-0.2,0-0.5-0.2-0.5-0.5C16.7,21.8,16.9,21.6,17.2,21.6L17.2,21.6z M27.8,25.8c-0.8,0-1.5,0.7-1.5,1.5s0.7,1.5,1.5,1.5
		c0.8,0,1.5-0.7,1.5-1.5S28.6,25.8,27.8,25.8z M27.8,27.8c-0.3,0-0.5-0.2-0.5-0.5s0.2-0.5,0.5-0.5c0.3,0,0.5,0.2,0.5,0.5
		C28.3,27.6,28,27.8,27.8,27.8z M24.4,29.7c-0.8,0-1.5,0.7-1.5,1.5s0.7,1.5,1.5,1.5s1.5-0.7,1.5-1.5S25.3,29.7,24.4,29.7L24.4,29.7z
		 M24.4,31.7c-0.3,0-0.5-0.2-0.5-0.5s0.2-0.5,0.5-0.5s0.5,0.2,0.5,0.5c0,0.1-0.1,0.3-0.1,0.4C24.7,31.6,24.6,31.7,24.4,31.7z
		 M19.6,29.7c-0.8,0-1.5,0.7-1.5,1.5s0.7,1.5,1.5,1.5c0.8,0,1.5-0.7,1.5-1.5S20.4,29.7,19.6,29.7L19.6,29.7z M19.6,31.7
		c-0.3,0-0.5-0.2-0.5-0.5s0.2-0.5,0.5-0.5c0.3,0,0.5,0.2,0.5,0.5S19.8,31.7,19.6,31.7z M25,25.7c0-1.7-1.3-3-3-3s-3,1.3-3,3
		s1.3,3,3,3S25,27.4,25,25.7z M22,27.7c-1.1,0-2-0.9-2-2s0.9-2,2-2s2,0.9,2,2c0,0.5-0.2,1-0.6,1.4S22.5,27.7,22,27.7z"/>
</g>
<path id="Line-Copy" class="st7" d="M229.8,217.2l14,7l-14,7v-6L97,225.7h-1v-2h1l132.8-0.5V217.2z"/>
<path id="Path-4" class="st7" d="M423.2,299.7v141H469v-6l14,7l-14,7v-6h-47.8v-143H423.2z"/>
<path id="Path-5" class="st7" d="M291,299.7l7,14h-6v167.5h37.5v2H290V313.7h-6L291,299.7z"/>
<path id="Line-6" class="st7" d="M455,64.7v66h6l-7,14l-7-14h6v-64H303.5v-2H455z"/>
<path id="Path-3" class="st7" d="M810,299.7v143h-41v6l-14-7l14-7v6h39v-141H810z"/>
<rect x="473.5" y="100.3" class="st9" width="143.7" height="15.6"/>
<text transform="matrix(1 0 0 1 483.3562 107.3643)" class="st10 st11 st12">Softwareentwickler</text>
<rect x="194.5" y="100.3" class="st9" width="143.7" height="15.6"/>
<text transform="matrix(1 0 0 1 173.1293 109.3203)" class="st10 st11 st12">Cloud-Installationsprogramm</text>
<rect x="577.8" y="41.4" class="st9" width="232" height="15.6"/>
<text transform="matrix(1 0 0 1 577.6369 57.7299)" class="st10 st11 st12">Entwickelt und veröffentlicht Service</text>
<rect x="759" y="162.6" class="st9" width="162.3" height="15.6"/>
<text transform="matrix(1 0 0 1 758.9996 174.4982)" class="st8 st13 st14">Container-Registry</text>
<rect x="259.8" y="164.8" class="st9" width="236.1" height="15.6"/>
<text transform="matrix(1 0 0 1 259.8172 176.6918)" class="st8 st13 st14">Management-Hub</text>
<rect x="483" y="360.9" class="st9" width="95" height="15.6"/>
<text transform="matrix(1 0 0 1 483.0002 372.7736)" class="st8 st13 st14">Edge-Knoten</text>
<rect x="491" y="425.3" class="st9" width="64" height="43.6"/>
<rect x="683" y="425.3" class="st9" width="64" height="43.6"/>
<rect x="563" y="417.3" class="st9" width="98" height="14.7"/>
<text transform="matrix(1 0 0 1 595.9281 427.6784)" class="st8 st11 st12">Läuft</text>
<rect x="639" y="359.9" class="st9" width="58.9" height="14.7"/>
<text transform="matrix(1 0 0 1 638.9999 368.7521)" class="st8 st11 st15">Cluster oder</text>
<rect x="717" y="359.9" class="st9" width="44.5" height="14.7"/>
<text transform="matrix(1 0 0 1 716.9999 368.7521)" class="st8 st11 st15">Einheit</text>
<rect x="320.1" y="515.3" class="st9" width="90.6" height="15.5"/>
<text transform="matrix(1 0 0 1 274.6036 523.0498)" class="st10 st11 st12">Knoten-Berechtigungsinhaber</text>
<rect x="11.2" y="257.3" class="st9" width="94.5" height="15.5"/>
<text transform="matrix(1 0 0 1 14.2867 264.3152)" class="st10 st11 st12">Administrator</text>
<g>
	<path class="st8" d="M751,162.2h-8c-0.6,0-1,0.4-1,1v11c0,0.6,0.4,1,1,1h8c0.6,0,1-0.4,1-1v-11C752,162.7,751.6,162.2,751,162.2z
		 M751,163.2v3h-8v-3H751z M743,170.2v-3h8v3H743z M743,174.2v-3h8v3H743z"/>
	<circle class="st8" cx="744.5" cy="164.7" r="0.5"/>
	<circle class="st8" cx="744.5" cy="168.7" r="0.5"/>
	<circle class="st8" cx="744.5" cy="172.7" r="0.5"/>
	<rect id="_x3C_Transparent_Rectangle_x3E__616_" x="739" y="160.7" class="st9" width="16" height="16"/>
</g>
<rect x="96.3" y="188" class="st9" width="128" height="30.6"/>
<text transform="matrix(1 0 0 1 96.3333 198.3599)"><tspan x="0" y="0" class="st10 st11 st12">Verwaltet </tspan><tspan x="0" y="16.8" class="st10 st11 st12">Bereitstellung</tspan></text>
<text transform="matrix(0.8487 0 0 1 303.166 55.5264)" class="st10 st11 st12">Installiert Management-Hub</text>
<rect x="175" y="355" class="st9" width="105.7" height="47.4"/>
<text transform="matrix(1 0 0 1 175.0002 365.3594)"><tspan x="0" y="0" class="st10 st11 st12">Registriert </tspan><tspan x="0" y="16.8" class="st10 st11 st12">Knoten mit Ma</tspan><tspan x="91.3" y="16.8" class="st10 st11 st12">-</tspan><tspan x="0" y="33.6" class="st10 st11 st12">nagement-Hub</tspan></text>
<rect x="302" y="350.5" class="st9" width="125" height="47.4"/>
<text transform="matrix(1 0 0 1 302 360.8594)"><tspan x="0" y="0" class="st10 st11 st12">Ruft Anweisungen </tspan><tspan x="0" y="16.8" class="st10 st11 st12">zur Service- </tspan><tspan x="0" y="33.6" class="st10 st11 st12">bereitstellung ab</tspan></text>
<rect x="501.2" y="426.7" class="st9" width="44.5" height="30.6"/>
<text transform="matrix(1 0 0 1 501.1667 437.026)"><tspan x="0" y="0" class="st10 st11 st12">Edge- </tspan><tspan x="0" y="16.8" class="st10 st11 st12">Agent</tspan></text>
<rect x="677.8" y="428.2" class="st9" width="70.5" height="30.6"/>
<text transform="matrix(1 0 0 1 694.6107 438.526)"><tspan x="0" y="0" class="st10 st11 st12">Edge-</tspan><tspan x="-4.6" y="16.8" class="st10 st11 st12">Service</tspan></text>
<rect x="817.5" y="344" class="st9" width="87.5" height="76.5"/>
</svg>
