<?xml version="1.0" encoding="utf-8"?>
<!-- Generator: Adobe Illustrator 21.1.0, SVG Export Plug-In . SVG Version: 6.00 Build 0)  -->
<svg version="1.1" id="Layer_1" xmlns="http://www.w3.org/2000/svg" xmlns:xlink="http://www.w3.org/1999/xlink" x="0px" y="0px"
	 viewBox="0 0 1039.8 545.2" style="enable-background:new 0 0 1039.8 545.2;" xml:space="preserve">
<style type="text/css">
	.st0{fill:#BEBEBE;}
	.st1{fill:#E3F6FF;}
	.st2{fill:#0F62FE;}
	.st3{fill:#009C98;}
	.st4{fill:#408BFC;}
	.st5{fill:#F4F4F4;}
	.st6{fill:#FFFFFF;}
	.st7{fill:#DCDCDC;}
	.st8{fill:none;stroke:#BEBEBE;stroke-width:2;}
	.st9{fill:#051B75;}
	.st10{fill:none;}
	.st11{fill:#161616;}
	.st12{font-family:'IBMPlexSans';}
	.st13{font-size:14px;}
	.st14{font-family:'IBMPlexSans-Medium';}
	.st15{font-size:16px;}
	.st16{font-size:12px;}
</style>
<path id="Line-4" class="st0" d="M35.4,75.4v256.2h362.5v-147h-6l7-14l7,14h-6v149H33.4V75.4H35.4z"/>
<path id="Line-4-Copy-2" class="st0" d="M841.4,75.4v59.8h-44.5v6l-14-7l14-7v6h42.5V75.4H841.4z"/>
<circle id="Oval-Copy-3" class="st1" cx="840.9" cy="40.6" r="24"/>
<path id="Shape" class="st2" d="M835.9,43.6c2.8,0,5,2.2,5,5v6h-2v-6c0-1.7-1.3-3-3-3h-4c-1.7,0-3,1.3-3,3v6h-2v-6c0-2.8,2.2-5,5-5
	H835.9z M833.9,31.6c2.8,0,5,2.2,5,5s-2.2,5-5,5s-5-2.2-5-5S831.1,31.6,833.9,31.6z M852.5,31.6l1.4,1.4l-7.1,7.1l-3.9-3.9l1.4-1.4
	l2.5,2.5L852.5,31.6z M833.9,33.6c-1.7,0-3,1.3-3,3s1.3,3,3,3s3-1.3,3-3S835.6,33.6,833.9,33.6z"/>
<circle id="Oval-Copy-3_1_" class="st1" cx="33.9" cy="40.6" r="24"/>
<path id="Shape_1_" class="st2" d="M28.9,43.6c2.8,0,5,2.2,5,5v6h-2v-6c0-1.7-1.3-3-3-3h-4c-1.7,0-3,1.3-3,3v6h-2v-6
	c0-2.8,2.2-5,5-5H28.9z M26.9,31.6c2.8,0,5,2.2,5,5s-2.2,5-5,5s-5-2.2-5-5S24.1,31.6,26.9,31.6z M42,30.5l1.8,0.4l-2.4,10.4
	l-1.8-0.4L42,30.5z M36.8,32.2l1.4,1.2L36.1,36l2.1,2.6l-1.4,1l-3.1-3.7L36.8,32.2z M46.6,32.2l3.1,3.7l-3.1,3.7l-1.4-1.2l2.1-2.6
	l-2.1-2.6L46.6,32.2z M26.9,33.6c-1.7,0-3,1.3-3,3s1.3,3,3,3s3-1.3,3-3S28.6,33.6,26.9,33.6z"/>
<rect id="Rectangle-Copy-14" x="160.9" y="357.6" class="st3" width="250" height="172"/>
<rect id="Rectangle-Copy-14_1_" x="593.9" y="357.6" class="st4" width="318" height="156"/>
<path id="Shape_2_" class="st5" d="M618.9,378.6c0.6,0,1,0.4,1,1c0,0.5-0.4,0.9-0.8,1l-0.4,1h3.3c1.1,0,2,0.9,2,2v5c0,1.1-0.9,2-2,2
	h-8c-1.1,0-2-0.9-2-2v-5c0-1.1,0.9-2,2-2h3.7l0.6-1.4c-0.1-0.1-0.2-0.3-0.2-0.5v-0.1C617.9,379,618.3,378.6,618.9,378.6z
	 M621.9,382.6h-8c-0.5,0-0.9,0.4-1,0.9v0.1v5c0,0.5,0.4,0.9,0.9,1h0.1h8c0.5,0,0.9-0.4,1-0.9v-0.1v-5
	C622.9,383.1,622.5,382.7,621.9,382.6L621.9,382.6z M620.4,387.6c0.3,0,0.5,0.2,0.5,0.5s-0.2,0.5-0.5,0.5h-5c-0.3,0-0.5-0.2-0.5-0.5
	s0.2-0.5,0.5-0.5H620.4z M615.4,383.6c0.8,0,1.5,0.7,1.5,1.5s-0.7,1.5-1.5,1.5s-1.5-0.7-1.5-1.5S614.6,383.6,615.4,383.6z
	 M620.4,383.6c0.8,0,1.5,0.7,1.5,1.5s-0.7,1.5-1.5,1.5s-1.5-0.7-1.5-1.5S619.6,383.6,620.4,383.6z M615.4,384.6
	c-0.3,0-0.5,0.2-0.5,0.5s0.2,0.5,0.5,0.5s0.5-0.2,0.5-0.5S615.7,384.6,615.4,384.6z M620.4,384.6c-0.3,0-0.5,0.2-0.5,0.5
	s0.2,0.5,0.5,0.5s0.5-0.2,0.5-0.5S620.7,384.6,620.4,384.6z"/>
<rect id="Rectangle-Copy-16" x="609.9" y="416.6" class="st6" width="80" height="81"/>
<rect id="Rectangle-Copy-16_1_" x="815.9" y="416.6" class="st6" width="80" height="81"/>
<path id="Line-2-Copy-24" class="st0" d="M801.9,449.6l14,7l-14,7v-6h-112v-2h112V449.6z"/>
<circle id="Oval-Copy-3_2_" class="st7" cx="33.9" cy="101.6" r="13"/>
<circle id="Oval-Copy-3_3_" class="st7" cx="33.9" cy="173.6" r="13"/>
<circle id="Oval-Copy-3_4_" class="st7" cx="33.9" cy="261.6" r="13"/>
<circle id="Oval-Copy-3_5_" class="st1" cx="746.9" cy="247.6" r="24"/>
<path id="Shape_3_" class="st2" d="M741.9,250.6c2.8,0,5,2.2,5,5v6h-2v-6c0-1.7-1.3-3-3-3h-4c-1.7,0-3,1.3-3,3v6h-2v-6
	c0-2.8,2.2-5,5-5H741.9z M739.9,238.6c2.8,0,5,2.2,5,5s-2.2,5-5,5s-5-2.2-5-5S737.1,238.6,739.9,238.6z M752.9,246.6v2h-2v-2H752.9z
	 M757.9,246.6v2h-2v-2H757.9z M739.9,240.6c-1.7,0-3,1.3-3,3s1.3,3,3,3s3-1.3,3-3S741.6,240.6,739.9,240.6z M760.9,243.6v2h-2v-2
	H760.9z M749.9,243.6v2h-2v-2H749.9z M757.9,238.6v7h-7v-7H757.9z M755.9,240.6h-3v3h3V240.6z M760.9,238.6v2h-2v-2H760.9z
	 M749.9,238.6v2h-2v-2H749.9z M752.9,235.6v2h-2v-2H752.9z M757.9,235.6v2h-2v-2H757.9z"/>
<path id="Line-8" class="st0" d="M35.4,331.1v104h111.5v-6l14,7l-14,7v-6H33.4v-106H35.4z"/>
<path id="Path-8" class="st0" d="M595.9,463.6l14,7l-14,7v-6h-185v-2h185V463.6z"/>
<path id="Path-7" class="st0" d="M575.9,170.6v270.5h20v-6l14,7l-14,7v-6h-22V170.6H575.9z"/>
<path id="Path-9" class="st0" d="M745.9,170.6l7.1,14h-6l0.2,28.4h-2l-0.2-28.4h-6L745.9,170.6z"/>
<line id="Path-9-Copy" class="st8" x1="746.2" y1="357.6" x2="746.2" y2="281.6"/>
<rect id="Rectangle-Copy-50" x="383.9" y="15.6" class="st9" width="400" height="155"/>
<rect id="Rectangle-Copy-16_2_" x="687.9" y="72.6" class="st6" width="80" height="81"/>
<rect id="Rectangle-Copy-16_3_" x="591.9" y="72.6" class="st6" width="80" height="81"/>
<rect id="Rectangle-Copy-16_4_" x="495.9" y="72.6" class="st6" width="80" height="81"/>
<rect id="Rectangle-Copy-16_5_" x="399.9" y="72.6" class="st6" width="80" height="81"/>
<rect x="23.8" y="95.2" class="st10" width="20" height="12.2"/>
<text transform="matrix(1 0 0 1 29.3191 105.6172)" class="st11 st12 st13">A</text>
<rect x="23.8" y="167.2" class="st10" width="20" height="13.4"/>
<text transform="matrix(1 0 0 1 29.2351 177.622)" class="st11 st12 st13">B</text>
<rect x="25.1" y="255.3" class="st10" width="17.5" height="13.4"/>
<text transform="matrix(1 0 0 1 29.4592 265.6313)" class="st11 st12 st13">C</text>
<rect x="411.3" y="446.2" class="st10" width="163" height="21"/>
<text transform="matrix(1 0 0 1 433.361 456.6132)" class="st11 st12 st13">6. </text>
<rect x="782.9" y="241.2" class="st10" width="100" height="15.4"/>
<text transform="matrix(1 0 0 1 782.9064 251.6026)" class="st11 st12 st13">Knoten-Berechtigungsinhaber</text>
<rect x="872.9" y="34.2" class="st10" width="100" height="15.4"/>
<text transform="matrix(1 0 0 1 872.9135 44.6145)" class="st11 st12 st13">Administrator</text>
<rect x="399.9" y="35.8" class="st10" width="236.1" height="15.6"/>
<text transform="matrix(1 0 0 1 399.8838 47.6489)" class="st5 st14 st15">Management-Hub</text>
<rect x="631.9" y="377.8" class="st10" width="236.1" height="15.6"/>
<text transform="matrix(1 0 0 1 631.8837 389.6695)" class="st5 st14 st15">Edge-Knoten</text>
<rect x="687.8" y="106.2" class="st10" width="80" height="14.9"/>
<text transform="matrix(1 0 0 1 712.2038 116.5917)" class="st11 st12 st13">MMS</text>
<rect x="815.9" y="441.3" class="st10" width="80" height="35.7"/>
<rect x="690.2" y="432.2" class="st10" width="111.2" height="13.7"/>
<text transform="matrix(1 0 0 1 721.7266 442.6199)" class="st5 st12 st13">7. Läuft</text>
<rect x="591.8" y="96.5" class="st10" width="80" height="36.4"/>
<rect x="495.8" y="106.2" class="st10" width="80" height="14.9"/>
<text transform="matrix(1 0 0 1 504.8742 116.5917)" class="st11 st12 st13">Exchange</text>
<rect x="399.8" y="106.2" class="st10" width="80" height="14.9"/>
<text transform="matrix(1 0 0 1 420.865 116.5917)" class="st11 st12 st13">Agbot</text>
<rect x="54.9" y="95.2" class="st10" width="203" height="15.7"/>
<text transform="matrix(1 0 0 1 54.8836 105.6177)" class="st11 st12 st13">Erstellt Berechtigungsnachweise für Entwickler</text>
<rect x="72.9" y="34.2" class="st10" width="172.6" height="15.7"/>
<text transform="matrix(1 0 0 1 72.8925 44.6024)" class="st11 st12 st13">Softwareentwickler</text>
<rect x="54.9" y="167.2" class="st10" width="203" height="15.7"/>
<text transform="matrix(1 0 0 1 54.8836 177.5968)" class="st11 st12 st13">Entwickelt Ihren Edge-Servicew</text>
<rect x="54.9" y="255.2" class="st10" width="293.1" height="15.7"/>
<text transform="matrix(1 0 0 1 54.8836 265.6196)" class="st11 st12 st13">Signiert und veröffentlicht an Management-Hub</text>
<rect x="196.9" y="375.5" class="st10" width="162.3" height="15.6"/>
<text transform="matrix(1 0 0 1 196.8833 387.3477)" class="st5 st14 st15">Container-Registry</text>
<g>
	<path class="st5" d="M188.9,375.1h-8c-0.6,0-1,0.4-1,1v11c0,0.6,0.4,1,1,1h8c0.6,0,1-0.4,1-1v-11
		C189.9,375.5,189.5,375.1,188.9,375.1z M188.9,376.1v3h-8v-3H188.9z M180.9,383.1v-3h8v3H180.9z M180.9,387.1v-3h8v3H180.9z"/>
	<circle class="st5" cx="182.4" cy="377.6" r="0.5"/>
	<circle class="st5" cx="182.4" cy="381.6" r="0.5"/>
	<circle class="st5" cx="182.4" cy="385.6" r="0.5"/>
	<rect id="_x3C_Transparent_Rectangle_x3E__616_" x="176.9" y="373.6" class="st10" width="16" height="16"/>
</g>
<rect x="58.4" y="114.4" class="st10" width="312.2" height="26.2"/>
<text transform="matrix(1 0 0 1 58.3836 123.2758)"><tspan x="0" y="0" class="st11 st12 st16">• Erstellt Benutzeraccount</tspan><tspan x="0" y="14.4" class="st11 st12 st16">• Erstellt Signierschlüsselpaar (in Schritt C verwendet)</tspan></text>
<rect x="58.4" y="186.4" class="st10" width="253.5" height="40.6"/>
<text transform="matrix(1 0 0 1 58.3836 195.2758)"><tspan x="0" y="0" class="st11 st12 st16">• Dockt Anwendung</tspan><tspan x="0" y="14.4" class="st11 st12 st16">• Testet und simuliert Produkionsentwicklung</tspan><tspan x="0" y="28.8" class="st11 st12 st16">• Erstellt Open Horizon-Metadaten-Dateien</tspan></text>
<rect x="59.4" y="274.9" class="st10" width="306.5" height="26.2"/>
<text transform="matrix(1 0 0 1 59.3836 283.7758)"><tspan x="0" y="0" class="st11 st12 st16">• Verschiebt, signiert und veröffentlicht Container</tspan><tspan x="0" y="14.4" class="st11 st12 st16">• Fügt Bedingungen zur Servicerichtlinie hinzu</tspan></text>
<rect x="42.4" y="360.4" class="st10" width="103.5" height="58.5"/>
<text transform="matrix(1 0 0 1 42.3836 370.7553)"><tspan x="0" y="0" class="st11 st12 st13">1. Verschiebt </tspan><tspan x="0" y="16.8" class="st11 st12 st13">Container</tspan></text>
<rect x="411.9" y="235.4" class="st10" width="144" height="71.5"/>
<text transform="matrix(1 0 0 1 411.8836 245.7558)"><tspan x="0" y="0" class="st11 st12 st13">2. Veröffentlicht </tspan><tspan x="0" y="16.8" class="st11 st12 st13">Service-Metadaten an </tspan><tspan x="0" y="33.6" class="st11 st12 st13">Management-Hub</tspan></text>
<rect x="600.2" y="97.4" class="st10" width="61.7" height="30.6"/>
<text transform="matrix(1 0 0 1 607.3419 107.7558)"><tspan x="0" y="0" class="st11 st12 st13">Secrets </tspan><tspan x="-3.5" y="16.8" class="st11 st12 st13">Manager</tspan></text>
<rect x="592.4" y="232.9" class="st10" width="104.5" height="30.6"/>
<text transform="matrix(1 0 0 1 592.3836 243.2558)"><tspan x="0" y="0" class="st11 st12 st13">5. Stellt  </tspan><tspan x="0" y="16.8" class="st11 st12 st13">Service bereit</tspan></text>
<rect x="869.1" y="55.4" class="st10" width="145" height="81"/>
<text transform="matrix(1 0 0 1 869.0503 65.7558)"><tspan x="0" y="0" class="st11 st12 st13">3. Erstellt Muster oder </tspan><tspan x="0" y="16.8" class="st11 st12 st13">Richtlinien zur </tspan><tspan x="0" y="33.6" class="st11 st12 st13">Implementierung des </tspan><tspan x="0" y="50.4" class="st11 st12 st13">Services zur Korrektur </tspan><tspan x="0" y="67.2" class="st11 st12 st13">von Edge-Knoten</tspan></text>
<rect x="761.4" y="287.4" class="st10" width="160" height="54"/>
<text transform="matrix(1 0 0 1 761.3836 297.7553)"><tspan x="0" y="0" class="st11 st12 st13">4. Registriert mit Muster </tspan><tspan x="0" y="16.8" class="st11 st12 st13">oder Knoten-Richtlinie</tspan></text>
<rect x="628.6" y="442.2" class="st10" width="65" height="30.6"/>
<text transform="matrix(1 0 0 1 628.5503 452.5886)"><tspan x="0" y="0" class="st11 st12 st13">Edge- </tspan><tspan x="0" y="16.8" class="st11 st12 st13">Agent</tspan></text>
<rect x="829.1" y="439.6" class="st10" width="67" height="30.6"/>
<text transform="matrix(1 0 0 1 829.0503 449.9219)"><tspan x="0" y="0" class="st11 st12 st13">Edge- </tspan><tspan x="0" y="16.8" class="st11 st12 st13">Service</tspan></text>
</svg>
