<?xml version="1.0" encoding="utf-8"?>
<!-- Generator: Adobe Illustrator 21.1.0, SVG Export Plug-In . SVG Version: 6.00 Build 0)  -->
<svg version="1.1" id="Layer_1" xmlns="http://www.w3.org/2000/svg" xmlns:xlink="http://www.w3.org/1999/xlink" x="0px" y="0px"
	 viewBox="0 0 1223 943.4" style="enable-background:new 0 0 1223 943.4;" xml:space="preserve">
<style type="text/css">
	.st0{fill:#6E32C9;}
	.st1{fill:#4F2196;}
	.st2{fill:#FFFFFF;stroke:#E0E0E0;}
	.st3{fill:#FFFFFF;}
	.st4{fill:#C9DEFF;}
	.st5{fill:#408BFC;}
	.st6{fill:#054ADA;}
	.st7{fill:none;stroke:#054ADA;stroke-linecap:square;}
	.st8{fill:none;stroke:#054ADA;}
	.st9{fill:#BEBEBE;}
	.st10{fill:#24A148;}
	.st11{fill:none;}
	.st12{fill:#F4F4F4;}
	.st13{font-family:'IBMPlexSans-Medium';}
	.st14{font-size:16px;}
	.st15{fill:#161616;}
	.st16{font-family:'IBMPlexSans';}
	.st17{font-family:'IBMPlexSans-Bold';}
	.st18{font-size:14px;}
</style>
<rect id="Rectangle-Copy-14" x="41" y="271.7" class="st0" width="281" height="663"/>
<rect id="Rectangle-Copy-14_1_" x="515" y="271.7" class="st1" width="667" height="663"/>
<rect id="Rectangle" x="20.5" y="9.2" class="st2" width="144" height="37"/>
<rect id="Rectangle-Copy-28" x="20.5" y="46.2" class="st2" width="144" height="76"/>
<rect id="Rectangle-Copy-31" x="20.5" y="123.2" class="st2" width="144" height="79"/>
<rect id="Rectangle-Copy-29" x="163.5" y="46.2" class="st2" width="260" height="76"/>
<rect id="Rectangle-Copy-33" x="423.5" y="46.2" class="st2" width="260" height="76"/>
<rect id="Rectangle-Copy-36" x="683.5" y="46.2" class="st2" width="260" height="76"/>
<rect id="Rectangle-Copy-39" x="942.5" y="46.2" class="st2" width="260" height="76"/>
<rect id="Rectangle-Copy-32" x="163.5" y="123.2" class="st2" width="260" height="79"/>
<rect id="Rectangle-Copy-34" x="423.5" y="123.2" class="st2" width="260" height="79"/>
<rect id="Rectangle-Copy-37" x="683.5" y="123.2" class="st2" width="260" height="79"/>
<rect id="Rectangle-Copy-40" x="942.5" y="123.2" class="st2" width="260" height="79"/>
<rect id="Rectangle-Copy-26" x="163.5" y="9.2" class="st2" width="260" height="37"/>
<rect id="Rectangle-Copy-35" x="423.5" y="9.2" class="st2" width="260" height="37"/>
<rect id="Rectangle-Copy-38" x="683.5" y="9.2" class="st2" width="260" height="37"/>
<rect id="Rectangle-Copy-41" x="942.5" y="9.2" class="st2" width="260" height="37"/>
<rect id="Rectangle-Copy-30" x="73" y="342.7" class="st3" width="217" height="264"/>
<path id="Default-Copy-4" class="st4" d="M105,406.7h129c8.8,0,16,7.2,16,16l0,0c0,8.8-7.2,16-16,16H105c-8.8,0-16-7.2-16-16l0,0
	C89,413.9,96.2,406.7,105,406.7z"/>
<rect id="Rectangle-Copy-45" x="73" y="638.7" class="st3" width="217" height="264"/>
<rect id="Rectangle-Copy-46" x="547" y="342.7" class="st3" width="603" height="264"/>
<rect id="Rectangle_1_" x="563" y="406.7" class="st5" width="286" height="184"/>
<rect id="Rectangle-Copy-43" x="849" y="406.7" class="st6" width="286" height="184"/>
<rect id="Default" x="578" y="470.7" class="st4" width="100" height="32"/>
<rect id="Default-Copy" x="578" y="542.7" class="st4" width="100" height="32"/>
<rect id="Default_1_" x="682" y="470.7" class="st4" width="85" height="32"/>
<rect id="Default-Copy-2" x="682" y="542.7" class="st4" width="85" height="32"/>
<rect id="Default_2_" x="771" y="470.7" class="st4" width="39" height="32"/>
<rect id="Default-Copy-3" x="771" y="542.7" class="st4" width="62" height="32"/>
<line id="Line-3" class="st7" x1="636" y1="523.2" x2="833.5" y2="523.2"/>
<line id="Line-3-Copy" class="st8" x1="578" y1="522.7" x2="586" y2="522.7"/>
<rect id="Field-color" x="590" y="510.7" class="st4" width="42" height="24"/>
<rect id="Rectangle-Copy-47" x="547" y="638.7" class="st3" width="603" height="264"/>
<rect id="Rectangle_2_" x="563" y="702.7" class="st5" width="286" height="184"/>
<rect id="Rectangle-Copy-43_1_" x="849" y="702.7" class="st6" width="286" height="184"/>
<path id="Line-9" class="st9" d="M547,467.7c3.9,0,7,3.1,7,7s-3.1,7-7,7c-3.5,0-6.4-2.6-6.9-6H304.5v6l-14-7l14-7v6h235.6
	c0.5-3.3,3.3-5.9,6.7-6H547z"/>
<path id="Line-9-Copy" class="st9" d="M533,763.7l14,7l-14,7v-6H297.4c-0.5,3.3-3.3,5.9-6.7,6h-0.2c-3.9,0-7-3.1-7-7s3.1-7,7-7
	c3.5,0,6.4,2.6,6.9,6H533V763.7z"/>
<circle id="Oval" class="st3" cx="419" cy="474.7" r="20"/>
<path id="path-1_1_" class="st10" d="M426,471.1l-1.4-1.4l-7.6,7.6l-3.6-3.6l-1.4,1.4l5,5L426,471.1z M419,460.7
	c-7.7,0-14,6.3-14,14s6.3,14,14,14s14-6.3,14-14S426.7,460.7,419,460.7z M419,486.7c-6.6,0-12-5.4-12-12s5.4-12,12-12s12,5.4,12,12
	S425.6,486.7,419,486.7z"/>
<circle id="Oval_1_" class="st3" cx="419" cy="770.7" r="20"/>
<path id="path-3_1_" class="st10" d="M426,767.1l-1.4-1.4l-7.6,7.6l-3.6-3.6l-1.4,1.4l5,5L426,767.1z M419,756.7
	c-7.7,0-14,6.3-14,14s6.3,14,14,14s14-6.3,14-14S426.7,756.7,419,756.7z M419,782.7c-6.6,0-12-5.4-12-12s5.4-12,12-12s12,5.4,12,12
	S425.6,782.7,419,782.7z"/>
<rect x="531" y="291.9" class="st11" width="236.1" height="15.6"/>
<text transform="matrix(1 0 0 1 531.0002 303.7303)" class="st12 st13 st14">Bereitstellungsrichtlinie</text>
<rect x="562.9" y="362.9" class="st11" width="236.1" height="15.6"/>
<text transform="matrix(1 0 0 1 562.886 374.7335)" class="st15 st16 st14">Bedingungen</text>
<rect x="562.9" y="658.8" class="st11" width="236.1" height="15.6"/>
<text transform="matrix(1 0 0 1 562.886 670.6728)" class="st15 st16 st14">Eigenschaften</text>
<rect x="89" y="362.9" class="st11" width="179.7" height="15.6"/>
<text transform="matrix(1 0 0 1 89.0002 374.7335)" class="st15 st16 st14">Eigenschaften von Knoten</text>
<rect x="89" y="658.9" class="st11" width="179.7" height="15.6"/>
<text transform="matrix(1 0 0 1 89.0002 670.7264)" class="st15 st16 st14">Bedingungen für Knoten</text>
<rect x="57" y="291.9" class="st11" width="236.1" height="15.6"/>
<text transform="matrix(1 0 0 1 57.0001 303.7303)" class="st12 st13 st14">Knotenrichtlinie</text>
<rect x="170" y="21.8" class="st11" width="237.4" height="19.1"/>
<text transform="matrix(1 0 0 1 170 33.7095)" class="st15 st17 st14">Knotenrichtlinie</text>
<rect x="25" y="58.9" class="st11" width="129.5" height="19.1"/>
<text transform="matrix(1 0 0 1 25 67.5839)" class="st15 st17 st14">Rolle</text>
<rect x="25" y="135.8" class="st11" width="129.5" height="19.1"/>
<text transform="matrix(1 0 0 1 25 142.9173)" class="st15 st17 st14">Zweck</text>
<rect x="170" y="58.9" class="st11" width="250.5" height="59.6"/>
<rect x="170" y="135.8" class="st11" width="250.5" height="59.6"/>
<rect x="89" y="720.3" class="st11" width="186.2" height="29.8"/>
<text transform="matrix(1 0 0 1 89.0152 730.7234)" class="st15 st16 st18">(Optional)</text>
<rect x="579" y="722.9" class="st11" width="236.1" height="15.6"/>
<text transform="matrix(1 0 0 1 579.0001 734.7162)" class="st12 st16 st14">Bereitstellungseigenschaften</text>
<rect x="579" y="767.3" class="st11" width="186.2" height="29.8"/>
<text transform="matrix(1 0 0 1 579 777.6974)" class="st12 st16 st18">(Optional)</text>
<rect x="865" y="722.9" class="st11" width="236.1" height="15.6"/>
<text transform="matrix(1 0 0 1 865.0001 734.7162)" class="st12 st16 st14">Serviceeigenschaften</text>
<rect x="865" y="767.3" class="st11" width="186.2" height="29.8"/>
<text transform="matrix(1 0 0 1 865 777.6974)" class="st12 st16 st18">(Optional)</text>
<rect x="579" y="426.9" class="st11" width="236.1" height="15.6"/>
<text transform="matrix(1 0 0 1 579.0001 438.7758)" class="st12 st16 st14">Bereitsstellungsbedingungen</text>
<rect x="865" y="426.9" class="st11" width="236.1" height="15.6"/>
<text transform="matrix(1 0 0 1 865.0001 438.7758)" class="st12 st16 st14">Servicebedingungen</text>
<rect x="865" y="471.4" class="st11" width="186.2" height="29.8"/>
<text transform="matrix(1 0 0 1 865 481.7571)" class="st12 st16 st18">(Optional)</text>
<rect x="101" y="417.4" class="st11" width="142.2" height="17.6"/>
<text transform="matrix(1 0 0 1 98 427.7375)" class="st15 st16 st18">Kamerart = Bewegung</text>
<rect x="429" y="21.8" class="st11" width="237.4" height="19.1"/>
<text transform="matrix(1 0 0 1 429 33.7095)" class="st15 st17 st14">Servicerichtlinie</text>
<rect x="429" y="58.9" class="st11" width="250.5" height="59.6"/>
<rect x="429" y="135.8" class="st11" width="250.5" height="59.6"/>
<rect x="689" y="21.8" class="st11" width="237.4" height="19.1"/>
<text transform="matrix(1 0 0 1 689.0275 33.7095)" class="st15 st17 st14">Bereitstellungsrichtlinie</text>
<rect x="689" y="58.9" class="st11" width="250.5" height="59.6"/>
<rect x="689" y="135.8" class="st11" width="250.5" height="59.6"/>
<rect x="949" y="21.8" class="st11" width="237.4" height="19.1"/>
<text transform="matrix(1 0 0 1 949 33.7095)" class="st15 st17 st14">Modellrichtlinie</text>
<rect x="949" y="58.9" class="st11" width="239.4" height="59.6"/>
<rect x="949" y="135.8" class="st11" width="250.5" height="59.6"/>
<rect x="577.9" y="481.3" class="st11" width="100.1" height="17.6"/>
<text transform="matrix(1 0 0 1 587.0018 491.7086)" class="st15 st16 st18">Kameratyp</text>
<rect x="682" y="481.3" class="st11" width="85" height="17.6"/>
<text transform="matrix(1 0 0 1 691.3695 491.7086)" class="st15 st16 st18">entspricht</text>
<rect x="771" y="481.3" class="st11" width="39.4" height="17.6"/>
<text transform="matrix(1 0 0 1 774.9452 491.7086)" class="st15 st16 st18">noch</text>
<rect x="577.9" y="553.5" class="st11" width="100.1" height="17.6"/>
<text transform="matrix(1 0 0 1 587.0018 563.9001)" class="st15 st16 st18">Kameratyp</text>
<rect x="592.7" y="517.4" class="st11" width="36.5" height="13.9"/>
<text transform="matrix(1 0 0 1 593.7872 527.7585)" class="st15 st16 st18">ODER</text>
<rect x="682" y="553.5" class="st11" width="85" height="17.6"/>
<text transform="matrix(1 0 0 1 691.3695 563.9001)" class="st15 st16 st18">entspricht</text>
<rect x="771" y="553.5" class="st11" width="62" height="17.6"/>
<text transform="matrix(0.8291 0 0 1 774.8145 563.9004)" class="st15 st16 st18">Bewegung</text>
<rect x="169.3" y="54" class="st11" width="221.3" height="43.3"/>
<text transform="matrix(1 0 0 1 169.3333 65.8398)"><tspan x="0" y="0" class="st15 st16 st14">Stellt Knoten-Eigner bei Regis</tspan><tspan x="214.3" y="0" class="st15 st16 st14">-</tspan><tspan x="0" y="19.2" class="st15 st16 st14">trierung des Knotens bereit</tspan></text>
<rect x="176.5" y="129.3" class="st11" width="236" height="51.3"/>
<text transform="matrix(1 0 0 1 176.5 141.1732)"><tspan x="0" y="0" class="st15 st16 st14">Definiert die Funktionen des </tspan><tspan x="0" y="19.2" class="st15 st16 st14">Knotens und den vorgesehenen </tspan><tspan x="0" y="38.4" class="st15 st16 st14">Verwendungszweck</tspan></text>
<rect x="437.3" y="54" class="st11" width="228" height="56"/>
<text transform="matrix(1 0 0 1 437.3335 65.8398)"><tspan x="0" y="0" class="st15 st16 st14">Stellt Serviceentwickler bei </tspan><tspan x="0" y="19.2" class="st15 st16 st14">Veröffentlichung des Services </tspan><tspan x="0" y="38.4" class="st15 st16 st14">bereit</tspan></text>
<rect x="433.3" y="129.3" class="st11" width="242.7" height="66.8"/>
<text transform="matrix(0.91 0 0 1 433.3335 141.1733)"><tspan x="0" y="0" class="st15 st16 st14">Legen Sie fest, was der Service an </tspan><tspan x="0" y="17" class="st15 st16 st14">einem Edge-Knotens benötigt, um </tspan><tspan x="0" y="34" class="st15 st16 st14">ordnungsgemäß ausgeführt zu werden, </tspan><tspan x="0" y="51" class="st15 st16 st14">und was sein vorgesehener Zweck ist</tspan></text>
<rect x="690" y="54" class="st11" width="238" height="55.3"/>
<text transform="matrix(1 0 0 1 690 65.8398)"><tspan x="0" y="0" class="st15 st16 st14">Richtlinie, die der Administrator </tspan><tspan x="0" y="19.2" class="st15 st16 st14">bei Serviceimplementierung </tspan><tspan x="0" y="38.4" class="st15 st16 st14">bereitstellt</tspan></text>
<rect x="690" y="129.3" class="st11" width="240.7" height="69.3"/>
<text transform="matrix(1 0 0 1 690 141.1733)"><tspan x="0" y="0" class="st15 st16 st14">Legen Sie fest, wo der Service </tspan><tspan x="0" y="19.2" class="st15 st16 st14">ausgeführt werden soll</tspan></text>
<rect x="948.7" y="54" class="st11" width="240" height="62"/>
<text transform="matrix(1 0 0 1 948.667 65.8398)"><tspan x="0" y="0" class="st15 st16 st14">Stellt Modell-Ersteller oder Data </tspan><tspan x="0" y="19.2" class="st15 st16 st14">Scientist bei Erstellung des </tspan><tspan x="0" y="38.4" class="st15 st16 st14">Modells bereit</tspan></text>
<rect x="951.3" y="129.3" class="st11" width="233.3" height="66"/>
<text transform="matrix(1 0 0 1 951.333 141.1733)"><tspan x="0" y="0" class="st15 st16 st14">Schränken Sie den Edge-Kno</tspan><tspan x="207.2" y="0" class="st15 st16 st14">-</tspan><tspan x="0" y="19.2" class="st15 st16 st14">ten, in dem dieses Modell im</tspan><tspan x="205" y="19.2" class="st15 st16 st14">-</tspan><tspan x="0" y="38.4" class="st15 st16 st14">plementiert, weiter ein</tspan></text>
</svg>
