<?xml version="1.0" encoding="utf-8"?>
<!-- Generator: Adobe Illustrator 21.1.0, SVG Export Plug-In . SVG Version: 6.00 Build 0)  -->
<svg version="1.1" id="Capa_1" xmlns="http://www.w3.org/2000/svg" xmlns:xlink="http://www.w3.org/1999/xlink" x="0px" y="0px"
	 viewBox="0 0 1121.9 627.5" style="enable-background:new 0 0 1121.9 627.5;" xml:space="preserve">
<style type="text/css">
	.st0{fill:#051B75;}
	.st1{fill:#BEBEBE;}
	.st2{fill:#E3F6FF;}
	.st3{fill:#0F62FE;}
	.st4{fill:#054ADA;}
	.st5{fill:#8A3FFC;}
	.st6{fill:none;stroke:#BEBEBE;stroke-width:2;}
	.st7{display:none;fill:#BEBEBE;}
	.st8{fill:none;}
	.st9{fill:#F4F4F4;}
	.st10{font-family:'IBMPlexSans-Medium';}
	.st11{font-size:16px;}
	.st12{fill:#408BFC;}
	.st13{fill:#161616;}
	.st14{font-family:'IBMPlexSans';}
	.st15{font-size:14px;}
	.st16{fill:#FFFFFF;}
	.st17{fill:#92EEEE;}
	.st18{fill:none;stroke:#BEBEBE;stroke-width:2;stroke-miterlimit:10;}
	.st19{fill:none;stroke:#BEBEBE;stroke-width:2.2099;stroke-miterlimit:10;}
</style>
<rect id="Rectangle-Copy-51" x="370" y="218.2" class="st0" width="496.4" height="284"/>
<path id="Line-11-Copy-3" class="st1" d="M427.2,374.2l6.8,14.1l-6-0.1l-0.2,15l6,0.1l-7.2,13.9l-6.8-14.1l6,0.1l0.2-15l-6-0.1
	L427.2,374.2z"/>
<path id="Line-11-Copy-4" class="st1" d="M523,374.2l6.8,14.1l-6-0.1l-0.2,15l6,0.1l-7.2,13.9l-6.8-14.1l6,0.1l0.2-15l-6-0.1
	L523,374.2z"/>
<path id="Line-11-Copy-5" class="st1" d="M809.7,374.2l6.8,14.1l-6-0.1l-0.2,15l6,0.1l-7.2,13.9l-6.8-14.1l6,0.1l0.2-15l-6-0.1
	L809.7,374.2z"/>
<circle id="Oval-Copy-3" class="st2" cx="78.6" cy="31.2" r="24"/>
<path id="Shape" class="st3" d="M73.6,34.2c2.8,0,5,2.2,5,5v6h-2v-6c0-1.7-1.3-3-3-3h-4c-1.7,0-3,1.3-3,3v6h-2v-6c0-2.8,2.2-5,5-5
	H73.6z M71.6,22.2c2.8,0,5,2.2,5,5s-2.2,5-5,5c-2.8,0-5-2.2-5-5S68.8,22.2,71.6,22.2z M86.6,20.1c2.1,0,3.9,1.4,4.5,3.4l0.1,0.2v0.1
	l0,0c1.3,0.5,2.2,1.7,2.3,3.1v0.2v0.2c0,2.1-1.6,3.7-3.7,3.9h-0.2h-6.3c-2.1,0-3.9-1.7-3.9-3.9c0-1.5,0.9-2.8,2.2-3.5l0.2-0.1v-0.1
	c0.5-1.9,2.1-3.4,4.1-3.6h0.2L86.6,20.1z M71.6,24.2c-1.7,0-3,1.3-3,3s1.3,3,3,3c1.7,0,3-1.3,3-3S73.2,24.2,71.6,24.2z M86.6,22.1
	c-1.4,0-2.5,1-2.7,2.4v0.2v0.8l-0.8,0.2c-0.9,0.2-1.5,0.9-1.5,1.8c0,1,0.8,1.8,1.7,1.9h0.1h6.3c1,0,1.9-0.8,1.9-1.9
	c0-0.8-0.6-1.6-1.3-1.8h-0.1l-0.8-0.2v-0.8C89.2,23.2,88,22.1,86.6,22.1z"/>
<rect id="Rectangle-Copy-48" x="141.7" y="218.2" class="st4" width="184.7" height="284"/>
<rect id="Rectangle-Copy-49" x="141.7" y="520.2" class="st5" width="724.7" height="100"/>
<polyline id="Path-6-Copy-9_4_" class="st6" points="568.5,102.2 568.5,178.2 398.1,178.2 "/>
<path id="Path-6-Copy-8" class="st7" d="M687.8,102.2v99h149v304.5H570.3v-19.5h-6l7-14l7,14h-6v17.5h262.5V203.2h-149v-101H687.8z"
	/>
<rect x="383.1" y="238.3" class="st8" width="184" height="15.6"/>
<text transform="matrix(1 0 0 1 383.1204 250.228)" class="st9 st10 st11">IEAM-Management-Hub</text>
<rect x="157.7" y="540.4" class="st8" width="319.6" height="15.6"/>
<text transform="matrix(1 0 0 1 157.7399 552.2314)" class="st9 st10 st11">Red Hat® OpenShift® Container Platform</text>
<rect id="Rectangle-Copy-14" x="886.8" y="520.2" class="st12" width="117" height="100"/>
<rect x="902.8" y="540.4" class="st8" width="94.6" height="15.6"/>
<text transform="matrix(1 0 0 1 898.8391 552.2314)" class="st9 st10 st11">Edge-Knoten</text>
<rect x="157.7" y="238.3" class="st8" width="148" height="57"/>
<rect x="28" y="58.8" class="st8" width="99.9" height="17.9"/>
<text transform="matrix(1 0 0 1 31.4812 69.2087)" class="st13 st14 st15">Cloud-Installationsprogramm</text>
<rect x="85.6" y="105.8" class="st8" width="99.9" height="56"/>
<text transform="matrix(1 0 0 1 80.5991 116.2066)" class="st13 st14 st15">1. Richtet OCP ein</text>
<g>
	<rect id="Rectangle-Copy-16" x="673.9" y="293.2" class="st16" width="80" height="81"/>
	<rect x="673.9" y="326.8" class="st8" width="80" height="14.9"/>
	<text transform="matrix(1 0 0 1 700.0394 337.2264)" class="st13 st14 st15">SDO</text>
</g>
<g>
	<rect id="Rectangle-Copy-16_6_" x="769.5" y="293.2" class="st16" width="80" height="81"/>
	<rect x="769.5" y="326.8" class="st8" width="80" height="14.9"/>
	<text transform="matrix(1 0 0 1 793.8951 337.2264)" class="st13 st14 st15">MMS</text>
</g>
<g>
	<rect id="Rectangle-Copy-16_1_" x="578.3" y="293.2" class="st16" width="80" height="81"/>
	<rect x="578.3" y="326.8" class="st8" width="80" height="14.9"/>
	<text transform="matrix(1 0 0 1 610.7208 337.2264)" class="st13 st14 st15">UI</text>
</g>
<g>
	<rect id="Rectangle-Copy-16_2_" x="482.8" y="293.2" class="st16" width="80" height="81"/>
	<rect x="482.8" y="326.8" class="st8" width="80" height="14.9"/>
	<text transform="matrix(1 0 0 1 491.8552 337.2264)" class="st13 st14 st15">Exchange</text>
</g>
<g>
	<rect id="Rectangle-Copy-16_3_" x="387.2" y="293.2" class="st16" width="80" height="81"/>
	<rect x="387.2" y="326.8" class="st8" width="80" height="14.9"/>
	<text transform="matrix(1 0 0 1 408.2757 337.2264)" class="st13 st14 st15">Agbot</text>
</g>
<g>
	<rect id="Rectangle-Copy-16_7_" x="157.7" y="404.2" class="st16" width="80" height="81"/>
	<rect x="157.6" y="437.9" class="st8" width="80" height="14.9"/>
	<text transform="matrix(1 0 0 1 184.5237 448.2948)" class="st13 st14 st15">IAM</text>
</g>
<g>
	<rect id="Rectangle-Copy-16_4_" x="387.2" y="417.2" class="st17" width="80" height="68"/>
	<rect x="387.2" y="434.9" class="st8" width="80" height="39.8"/>
</g>
<g>
	<rect id="Rectangle-Copy-16_5_" x="482.8" y="417.2" class="st17" width="80" height="68"/>
</g>
<g>
	<rect id="Rectangle-Copy-16_16_" x="769.5" y="417.2" class="st17" width="80" height="68"/>
</g>
<g>
	<g>
		<polyline class="st18" points="761.6,102.2 761.6,272.2 522.8,272.2 522.8,283.2 		"/>
		<g>
			<polygon class="st1" points="515.8,281.2 522.8,293.2 529.7,281.2 			"/>
		</g>
	</g>
</g>
<g>
	<g>
		<polyline class="st19" points="945.3,102.2 945.3,320.2 860.6,320.2 		"/>
		<g>
			<polygon class="st1" points="862.8,312.5 849.5,320.2 862.8,328 			"/>
		</g>
	</g>
</g>
<g>
	<g>
		<polyline class="st19" points="849.5,346.7 945.3,346.7 945.3,509.1 		"/>
		<g>
			<polygon class="st1" points="937.6,506.8 945.3,520.2 953,506.8 			"/>
		</g>
	</g>
</g>
<g>
	<g>
		<line class="st18" x1="201.4" y1="102.2" x2="201.4" y2="208.2"/>
		<g>
			<polygon class="st1" points="194.4,206.1 201.4,218.2 208.4,206.1 			"/>
		</g>
	</g>
</g>
<g>
	<g>
		<polyline class="st18" points="73.5,87.3 73.5,570.2 131.7,570.2 		"/>
		<g>
			<polygon class="st1" points="129.6,577.2 141.7,570.2 129.6,563.2 			"/>
		</g>
	</g>
</g>
<g>
	<g>
		<polyline class="st18" points="247.8,441.3 348.2,441.3 348.2,178.2 383.1,178.2 		"/>
		<g>
			<polygon class="st1" points="249.8,448.3 237.7,441.3 249.8,434.4 			"/>
		</g>
	</g>
</g>
<g>
	<g>
		<line class="st18" x1="391.5" y1="102.2" x2="391.5" y2="208.2"/>
		<g>
			<polygon class="st1" points="384.5,206.1 391.5,218.2 398.5,206.1 			"/>
		</g>
	</g>
</g>
<rect x="213.5" y="104.5" class="st8" width="146" height="47.4"/>
<text transform="matrix(1 0 0 1 213.5121 114.8794)"><tspan x="0" y="0" class="st13 st14 st15">2. Installiert IBM </tspan><tspan x="0" y="16.8" class="st13 st14 st15">Cloud Platform </tspan><tspan x="0" y="33.6" class="st13 st14 st15">Common Services</tspan></text>
<rect x="400" y="102.5" class="st8" width="153.5" height="47.4"/>
<text transform="matrix(1 0 0 1 400.0121 112.8794)"><tspan x="0" y="0" class="st13 st14 st15">3. Installiert die </tspan><tspan x="0" y="16.8" class="st13 st14 st15">Komponenten auf dem </tspan><tspan x="0" y="33.6" class="st13 st14 st15">Management-Hub</tspan></text>
<rect x="579" y="101.5" class="st8" width="167" height="64.2"/>
<text transform="matrix(1 0 0 1 579.0121 111.8794)"><tspan x="0" y="0" class="st13 st14 st15">4. Richtet </tspan><tspan x="0" y="16.8" class="st13 st14 st15">Authentifizierung für </tspan><tspan x="0" y="33.6" class="st13 st14 st15">Identity and Acess </tspan><tspan x="0" y="50.4" class="st13 st14 st15">Manager (IAM) ein</tspan></text>
<rect x="770" y="104" class="st8" width="162.5" height="30.6"/>
<text transform="matrix(1 0 0 1 770.0121 114.3794)"><tspan x="0" y="0" class="st13 st14 st15">5. Füllt Exchange mit </tspan><tspan x="0" y="16.8" class="st13 st14 st15">Open Horizon-Beispielen</tspan></text>
<rect x="954" y="101.5" class="st8" width="155.7" height="47.4"/>
<text transform="matrix(1 0 0 1 954.0121 111.8794)"><tspan x="0" y="0" class="st13 st14 st15">6. Veröffentlich </tspan><tspan x="0" y="16.8" class="st13 st14 st15">Agenten-Installdateien </tspan><tspan x="0" y="33.6" class="st13 st14 st15">an MMS</tspan></text>
<rect x="152.5" y="230" class="st8" width="162" height="80.5"/>
<text transform="matrix(1 0 0 1 152.5121 241.8594)"><tspan x="0" y="0" class="st9 st10 st11">IBM Cloud Platform </tspan><tspan x="0" y="19.2" class="st9 st10 st11">Common Services</tspan></text>
<rect x="397.3" y="434.7" class="st8" width="57.3" height="30.6"/>
<text transform="matrix(1 0 0 1 398.4675 445.0456)"><tspan x="0" y="0" class="st13 st14 st15">Postgres</tspan><tspan x="15.5" y="16.8" class="st13 st14 st15">-DB</tspan></text>
<rect x="494.3" y="435.5" class="st8" width="57.7" height="30.6"/>
<text transform="matrix(1 0 0 1 495.634 445.8789)"><tspan x="0" y="0" class="st13 st14 st15">Postgres</tspan><tspan x="15.5" y="16.8" class="st13 st14 st15">-DB</tspan></text>
<rect x="786.2" y="435.5" class="st8" width="45.5" height="30.6"/>
<text transform="matrix(1 0 0 1 787.7325 445.8789)"><tspan x="0" y="0" class="st13 st14 st15">Mongo </tspan><tspan x="11.9" y="16.8" class="st13 st14 st15">DB</tspan></text>
<rect x="956.5" y="382" class="st8" width="111" height="66"/>
<text transform="matrix(1 0 0 1 956.5121 392.3789)"><tspan x="0" y="0" class="st13 st14 st15">Edge-Knoten </tspan><tspan x="0" y="16.8" class="st13 st14 st15">extrahieren mit </tspan><tspan x="0" y="33.6" class="st13 st14 st15">Pull-Operation </tspan><tspan x="0" y="50.4" class="st13 st14 st15">von MMS</tspan></text>
</svg>
