<?xml version="1.0" encoding="utf-8"?>
<!-- Generator: Adobe Illustrator 21.1.0, SVG Export Plug-In . SVG Version: 6.00 Build 0)  -->
<svg version="1.1" id="Layer_1" xmlns="http://www.w3.org/2000/svg" xmlns:xlink="http://www.w3.org/1999/xlink" x="0px" y="0px"
	 viewBox="0 0 638 488.4" style="enable-background:new 0 0 638 488.4;" xml:space="preserve">
<style type="text/css">
	.st0{fill:#408BFC;}
	.st1{fill:none;stroke:#00BAB6;stroke-width:2;stroke-dasharray:7;}
	.st2{fill:#4F2196;}
	.st3{fill:#FFFFFF;}
	.st4{fill:#BEBEBE;}
	.st5{fill:#E3F6FF;}
	.st6{fill:#0062FF;}
	.st7{fill:none;}
	.st8{fill:#161616;}
	.st9{font-family:'IBMPlexSans';}
	.st10{font-size:14px;}
	.st11{fill:#F4F4F4;}
	.st12{font-family:'IBMPlexSans-Medium';}
	.st13{font-size:16px;}
</style>
<g>
	<rect id="Rectangle-Copy-14_1_" x="172" y="397.7" class="st0" width="141.2" height="56"/>
	<rect id="Rectangle-Copy-54" x="37" y="397.7" class="st0" width="120.4" height="56"/>
	<rect id="Rectangle-Copy-14_2_" x="327.8" y="397.7" class="st0" width="141.2" height="56"/>
</g>
<path id="Rectangle" class="st1" d="M53,10.7h400c22.1,0,40,17.9,40,40v387c0,22.1-17.9,40-40,40H53c-22.1,0-40-17.9-40-40v-387
	C13,28.6,30.9,10.7,53,10.7z"/>
<rect id="Rectangle-Copy-14" x="37" y="74.7" class="st2" width="432" height="267"/>
<rect id="Rectangle-Copy-16" x="261" y="141.2" class="st3" width="192" height="56"/>
<rect id="Rectangle-Copy-53" x="53" y="269.7" class="st3" width="192" height="56"/>
<rect id="Rectangle-Copy-44" x="261" y="269.2" class="st3" width="192" height="56"/>
<path id="Line-11-Copy-7" class="st4" d="M250,341.7l6.9,14h-6l-0.3,28h6l-7.1,14l-6.9-14h6l0.3-28h-6L250,341.7z"/>
<path id="Line-11-Copy-8" class="st4" d="M95,341.7l6.9,14h-6l-0.3,28h6l-7.1,14l-6.9-14h6l0.3-28h-6L95,341.7z"/>
<path id="Line-11-Copy-6" class="st4" d="M247,162.7l14,7l-14,7v-6h-92.5l-0.4,85h6l-7.1,14l-6.9-14h6l0.4-86v-1H247V162.7z"/>
<path id="Line-11-Copy-9" class="st4" d="M518,162.7l14,7l-14,7v-6h-51v6l-14-7l14-7v6h51V162.7z"/>
<circle id="Oval" class="st5" cx="572.5" cy="167.2" r="32.5"/>
<path id="Shape" class="st6" d="M581.5,176.7h-17c-4.1,0-7.5-3.4-7.5-7.5c0-3.6,2.6-6.7,6.1-7.4c0,0,0.1,0,0.1-0.1
	c1-4.7,5.1-8,9.8-8c0.6,0,1.3,0.1,1.9,0.2c4,0.8,7.1,3.9,7.9,7.9c0,0,0,0.1,0.1,0.1c4,0.8,6.7,4.7,6,8.7
	C588.2,174.1,585.1,176.7,581.5,176.7z M564.5,174.7h17c2.7,0,4.9-1.9,5.4-4.5c0.3-1.8-0.2-3.6-1.5-4.9c-0.8-0.8-1.8-1.3-2.8-1.5
	l-0.3-0.1l-1.1-0.2c0,0-0.1,0-0.1-0.1l0,0l-0.2-1c-0.6-3.2-3-5.8-6.1-6.5c-0.9-0.2-1.9-0.3-2.8-0.1c-3.4,0.5-6,3.1-6.8,6.5l-0.1,0.3
	l-0.2,0.9c0,0,0,0.1-0.1,0.1l0,0l-1,0.2c-2.4,0.4-4.4,2.3-4.7,4.7C558.6,171.8,561.2,174.7,564.5,174.7z"/>
<rect x="262.5" y="364.3" class="st7" width="142.9" height="13.9"/>
<text transform="matrix(1 0 0 1 262.4992 374.6632)" class="st8 st9 st10">Zugriff auf Hardware</text>
<rect x="107.3" y="364.3" class="st7" width="77.2" height="13.9"/>
<text transform="matrix(1 0 0 1 107.3404 374.6627)" class="st8 st9 st10">OS-Zugriff</text>
<rect x="260.9" y="150.3" class="st7" width="192" height="39.6"/>
<rect x="260.9" y="278.3" class="st7" width="192" height="39.6"/>
<rect x="52.9" y="278.3" class="st7" width="192" height="39.6"/>
<rect x="184.5" y="418.9" class="st7" width="128.7" height="15.6"/>
<text transform="matrix(1 0 0 1 184.5158 429.2387)" class="st11 st12 st10">Hardware-Sensoren</text>
<rect x="339.6" y="418.9" class="st7" width="111" height="15.6"/>
<text transform="matrix(1 0 0 1 339.5885 429.2387)" class="st11 st12 st10">Docker-Runtime</text>
<rect x="51" y="418.9" class="st7" width="91.7" height="15.6"/>
<text transform="matrix(1 0 0 1 50.9894 429.2387)" class="st11 st12 st10">OS-Services</text>
<rect x="53" y="95" class="st7" width="236.1" height="15.6"/>
<text transform="matrix(1 0 0 1 53.0002 106.8407)" class="st11 st12 st13">Implementierungsmuster</text>
<rect x="37" y="38.9" class="st7" width="236.1" height="15.6"/>
<text transform="matrix(1 0 0 1 37.0038 50.7181)" class="st8 st12 st13">Edge-Knoten</text>
<rect x="81" y="281.1" class="st7" width="145.5" height="36"/>
<text transform="matrix(1 0 0 1 142.1934 291.5068)"><tspan x="0" y="0" class="st8 st9 st10">cpu </tspan><tspan x="-34.6" y="16.8" class="st8 st9 st10">(Edge-Service)</tspan></text>
<rect x="294.7" y="284.5" class="st7" width="129.5" height="30.6"/>
<text transform="matrix(1 0 0 1 348.2516 294.8786)"><tspan x="0" y="0" class="st8 st9 st10">gps </tspan><tspan x="-35" y="16.8" class="st8 st9 st10">(Edge-Service)</tspan></text>
<rect x="336.5" y="213.5" class="st7" width="111.5" height="30.6"/>
<text transform="matrix(1 0 0 1 336.5 223.8599)"><tspan x="0" y="0" class="st11 st9 st10">Docker-virtuelle </tspan><tspan x="0" y="16.8" class="st11 st9 st10">Privatnetzwerke</tspan></text>
<rect x="296" y="152.2" class="st7" width="117" height="30.6"/>
<text transform="matrix(1 0 0 1 313.5156 162.5265)"><tspan x="0" y="0" class="st8 st9 st10">cpu2msghub </tspan><tspan x="-5.2" y="16.8" class="st8 st9 st10">(Edge-Service)</tspan></text>
<rect x="514.5" y="205.5" class="st7" width="113" height="30.6"/>
<text transform="matrix(1 0 0 1 533.1162 215.8599)"><tspan x="0" y="0" class="st8 st9 st10">Cloudserver </tspan><tspan x="7.5" y="16.8" class="st8 st9 st10">(optional)</tspan></text>
</svg>
