<?xml version="1.0" encoding="utf-8"?>
<!-- Generator: Adobe Illustrator 21.1.0, SVG Export Plug-In . SVG Version: 6.00 Build 0)  -->
<svg version="1.1" id="Layer_1" xmlns="http://www.w3.org/2000/svg" xmlns:xlink="http://www.w3.org/1999/xlink" x="0px" y="0px"
	 viewBox="0 0 1256 835.4" style="enable-background:new 0 0 1256 835.4;" xml:space="preserve">
<style type="text/css">
	.st0{fill:#E3F6FF;}
	.st1{fill:#0062FF;}
	.st2{fill:#8A3FFC;}
	.st3{fill:#92EEEE;}
	.st4{fill:#408BFC;}
	.st5{fill:#009C98;}
	.st6{fill:#BEBEBE;}
	.st7{fill:none;stroke:#00BAB6;stroke-width:2;stroke-dasharray:7;}
	.st8{fill:none;}
	.st9{fill:#F4F4F4;}
	.st10{font-family:'IBMPlexSans';}
	.st11{font-size:14px;}
	.st12{enable-background:new    ;}
	.st13{fill:#161616;}
	.st14{font-family:'IBMPlexSans-Medium';}
	.st15{font-size:16px;}
</style>
<circle id="Oval-Copy-8" class="st0" cx="72.5" cy="206.2" r="32.5"/>
<path id="Shape" class="st1" d="M81.5,215.7h-17c-4.1,0-7.5-3.4-7.5-7.5c0-3.6,2.6-6.7,6.1-7.4c0,0,0.1,0,0.1-0.1c1-4.7,5.1-8,9.8-8
	c0.6,0,1.3,0.1,1.9,0.2c4,0.8,7.1,3.9,7.9,7.9c0,0,0,0.1,0.1,0.1c4,0.8,6.7,4.7,6,8.7C88.2,213.1,85.1,215.7,81.5,215.7z
	 M64.5,213.7h17c2.7,0,4.9-1.9,5.4-4.5c0.3-1.8-0.2-3.6-1.5-4.9c-0.8-0.8-1.8-1.3-2.8-1.5l-0.3-0.1l-1.1-0.2c0,0-0.1,0-0.1-0.1l0,0
	l-0.2-1c-0.6-3.2-3-5.8-6.1-6.5c-0.9-0.2-1.9-0.3-2.8-0.1c-3.4,0.5-6,3.1-6.8,6.5l-0.1,0.3l-0.2,0.9c0,0,0,0.1-0.1,0.1l0,0l-1,0.2
	c-2.4,0.4-4.4,2.3-4.7,4.7C58.6,210.8,61.2,213.7,64.5,213.7z"/>
<circle id="Oval-Copy-9" class="st0" cx="73.5" cy="599.7" r="32.5"/>
<path id="Fill-1-Copy-2" class="st1" d="M81,593.2h1v-1h-1V593.2z M82.8,590.2h-2.5c-0.7,0-1.2,0.6-1.2,1.2v2.5
	c0,0.7,0.6,1.2,1.2,1.2h2.5c0.7,0,1.2-0.6,1.2-1.2v-2.5C84,590.8,83.4,590.2,82.8,590.2L82.8,590.2z M68,606.2v-8h8v8H68z M76,596.2
	h-1v-2h-2v2h-2v-2h-2v2h-1c-1.1,0-2,0.9-2,2v1h-2v2h2v2h-2v2h2v1c0,1.1,0.9,2,2,2h8c1.1,0,2-0.9,2-2v-8
	C78,597.1,77.1,596.2,76,596.2L76,596.2z M78,605.2h2v-2h-2V605.2z M78,601.2h2v-2h-2V601.2z M73,610.2h2v-2h-2V610.2z M69,610.2h2
	v-2h-2V610.2z M83,600.2c-0.6,0-1,0.4-1,1s0.4,1,1,1s1-0.4,1-1S83.6,600.2,83,600.2L83,600.2z M83,604.2c-0.6,0-1,0.4-1,1s0.4,1,1,1
	s1-0.4,1-1S83.6,604.2,83,604.2L83,604.2z M65,592.2c0.6,0,1-0.4,1-1s-0.4-1-1-1s-1,0.4-1,1S64.4,592.2,65,592.2L65,592.2z
	 M83,608.2c-0.6,0-1,0.4-1,1s0.4,1,1,1s1-0.4,1-1S83.6,608.2,83,608.2L83,608.2z M86,612c0,0.1-0.1,0.2-0.2,0.2H62.2
	c-0.1,0-0.2-0.1-0.2-0.2v-23.6c0-0.1,0.1-0.2,0.2-0.2h23.6c0.1,0,0.2,0.1,0.2,0.2V612z M85.8,586.2H62.2c-1.2,0-2.2,1-2.2,2.2V612
	c0,1.2,1,2.2,2.2,2.2h23.6c1.2,0,2.2-1,2.2-2.2v-23.6C88,587.2,87,586.2,85.8,586.2L85.8,586.2z"/>
<circle id="Oval-Copy-2" class="st0" cx="71.5" cy="53.2" r="32.5"/>
<path id="Fill-1" class="st1" d="M60,58.7h24v-16H60V58.7z M70,64.7h4v-4h-4V64.7z M84,40.7H60c-1.1,0-2,0.9-2,2v16c0,1.1,0.9,2,2,2
	h8v4h-4v2h16v-2h-4v-4h8c1.1,0,2-0.9,2-2v-16C86,41.6,85.1,40.7,84,40.7L84,40.7z"/>
<circle id="Oval-Copy-10" class="st0" cx="701.5" cy="68.2" r="32.5"/>
<path id="Fill-1_1_" class="st1" d="M702,53.7c-3.9,0-7,3.1-7,7s3.1,7,7,7s7-3.1,7-7S705.9,53.7,702,53.7 M702,55.7c2.8,0,5,2.2,5,5
	s-2.2,5-5,5s-5-2.2-5-5S699.2,55.7,702,55.7"/>
<path id="Fill-3" class="st1" d="M712,81.7h-2v-5c0-2.8-2.2-5-5-5h-6c-2.8,0-5,2.2-5,5v5h-2v-5c0-3.9,3.1-7,7-7h6c3.9,0,7,3.1,7,7
	V81.7z"/>
<rect id="Rectangle-Copy-18" x="234" y="562.2" class="st2" width="209" height="48"/>
<rect id="Rectangle-Copy-18_1_" x="234" y="195.7" class="st3" width="209" height="48"/>
<rect id="Rectangle-Copy-18_2_" x="234" y="35.7" class="st4" width="209" height="66"/>
<rect id="Rectangle-Copy-18_3_" x="234" y="297.7" class="st3" width="209" height="48"/>
<rect id="Rectangle-Copy-18_4_" x="234" y="664.2" class="st2" width="209" height="48"/>
<rect id="Rectangle-Copy-14" x="606" y="660.2" class="st4" width="192" height="56"/>
<rect id="Rectangle-Copy-14_1_" x="558" y="190.7" class="st4" width="288" height="117"/>
<rect id="Rectangle-Copy-18_5_" x="234" y="766.2" class="st2" width="209" height="48"/>
<path id="Rectangle-Copy-66" class="st5" d="M612,447.7h180c7.7,0,14,6.3,14,14v28c0,7.7-6.3,14-14,14H612c-7.7,0-14-6.3-14-14v-28
	C598,454,604.3,447.7,612,447.7z"/>
<path id="Rectangle-Copy-72" class="st5" d="M936,190.7h260c7.7,0,14,6.3,14,14v48c0,7.7-6.3,14-14,14H936c-7.7,0-14-6.3-14-14v-48
	C922,197,928.3,190.7,936,190.7z"/>
<path id="Rectangle-Copy-73" class="st5" d="M936,282.7h260c7.7,0,14,6.3,14,14v48c0,7.7-6.3,14-14,14H936c-7.7,0-14-6.3-14-14v-48
	C922,289,928.3,282.7,936,282.7z"/>
<path id="Path-2-Copy-16" class="st6" d="M648.9,61.7l14,7l-14,7v-6H457v6l-14-7l14-7v6h191.9V61.7z"/>
<path id="Path-2-Copy-12" class="st6" d="M339,712.2l7,14h-6v26h6l-7,14l-7-14h6v-26h-6L339,712.2z"/>
<path id="Path-2-Copy-17" class="st6" d="M702,393.7l7,14h-6v40h-2v-40h-6L702,393.7z"/>
<path id="Path-2-Copy-13" class="st6" d="M339,610.2l7,14h-6v26h6l-7,14l-7-14h6v-26h-6L339,610.2z"/>
<path id="Path-2-Copy-22" class="st6" d="M702,503.7l7,14h-6v72H443v-2h258v-70h-6L702,503.7z"/>
<path id="Path-2-Copy-14" class="st6" d="M339,243.7l7,14h-6v40h-2v-40h-6L339,243.7z"/>
<path id="Path-2-Copy-15" class="st6" d="M339,101.7l7,14h-6v66h6l-7,14l-7-14h6v-66h-6L339,101.7z"/>
<line id="Line-12" class="st7" x1="29.8" y1="142.2" x2="1229.2" y2="142.2"/>
<line id="Line-12-Copy" class="st7" x1="29.8" y1="535.2" x2="1229.2" y2="535.2"/>
<rect id="Rectangle-Copy-18_6_" x="574" y="243.7" class="st2" width="256" height="48"/>
<rect id="Rectangle-Copy-18_7_" x="574" y="345.7" class="st2" width="256" height="48"/>
<path id="Path-2-Copy-18" class="st6" d="M702,291.7l7,14h-6v40h-2v-40h-6L702,291.7z"/>
<path id="Path-2-Copy-19" class="st6" d="M574,265.7v2h-35v55h-80.5v6l-14-7l14-7v6H537v-55H574z"/>
<path id="Path-2-Copy-20" class="st6" d="M908,221.7l14,7l-14,7v-6h-39.1v27H844v6l-14-7l14-7v6h22.9v-27H908V221.7z"/>
<path id="Path-2-Copy-21" class="st6" d="M844,285.7l-14-7l14-7v6h25.2v42H908v-6l14,7l-14,7v-6h-40.8v-42H844V285.7z"/>
<rect x="233.9" y="579.3" class="st8" width="209" height="17.2"/>
<text transform="matrix(1 0 0 1 273.5586 589.7209)" class="st9 st10 st11">sdr2msghub-Service</text>
<rect x="233.9" y="52.3" class="st8" width="209" height="38.4"/>
<rect x="574" y="362.3" class="st8" width="256" height="17.2"/>
<text transform="matrix(1 0 0 1 679.4111 372.7035)" class="st9 st10 st11">Auslöser</text>
<rect x="573.8" y="260.3" class="st8" width="256" height="17.2"/>
<text transform="matrix(1 0 0 1 606.2769 270.7154)" class="st9 st10 st11">Softwaredefinierte Radioaktion</text>
<rect x="233.9" y="681.3" class="st8" width="209" height="17.2"/>
<text transform="matrix(1 0 0 1 303.5463 691.7242)" class="st9 st10 st11">sdr-Service</text>
<rect x="233.9" y="783.3" class="st8" width="209" height="17.2"/>
<text transform="matrix(1 0 0 1 304.8764 793.7137)" class="st9 st10 st11">SDR-Sensor</text>
<rect x="941.3" y="166.3" class="st8" width="288" height="15"/>
<rect x="932" y="155.2" class="st8" width="228.7" height="32.1"/>
<text transform="matrix(1 0 0 1 931.9737 167.0544)" class="st12"><tspan x="0" y="0" class="st13 st10 st11">Audiodateien umwanden, </tspan><tspan x="0" y="16.8" class="st13 st10 st11">Stimmungen analysieren</tspan></text>
<rect x="458.2" y="44.3" class="st8" width="189.3" height="17"/>
<text transform="matrix(1 0 0 1 464.5919 58.2192)" class="st13 st10 st11">Stellt Datenansichten bereit</text>
<rect x="669.4" y="108.3" class="st8" width="65" height="17"/>
<text transform="matrix(1 0 0 1 674.1124 118.7137)" class="st13 st10 st11">Benutzer</text>
<rect x="234" y="314.9" class="st8" width="209" height="16.5"/>
<text transform="matrix(1 0 0 1 244.484 326.6408)" class="st13 st10 st11">Postgres-Datenbank erstellen</text>
<rect x="234" y="212.9" class="st8" width="209" height="16.5"/>
<text transform="matrix(1 0 0 1 253.115 223.2374)" class="st13 st10 st11">Node.js, Express, GraphQL</text>
<rect x="36.5" y="246.4" class="st8" width="70.9" height="16.5"/>
<text transform="matrix(1 0 0 1 53.38 256.7375)" class="st13 st10 st11">Cloud</text>
<rect x="38.1" y="639.7" class="st8" width="70.9" height="16.5"/>
<text transform="matrix(1 0 0 1 32.7535 651.0739)" class="st13 st10 st11">Edge-Knoten</text>
<rect x="27.9" y="93.3" class="st8" width="88.1" height="16.5"/>
<text transform="matrix(1 0 0 1 25.5789 103.72)" class="st13 st10 st11">Web-Browser</text>
<rect x="574" y="210.8" class="st8" width="158.1" height="15.6"/>
<text transform="matrix(1 0 0 1 573.9996 222.7081)" class="st9 st14 st15">IBM-Funktionen</text>
<rect x="597.1" y="467.9" class="st8" width="207.9" height="15.6"/>
<text transform="matrix(1 0 0 1 630.6774 479.7165)" class="st9 st14 st15">IBM Event Streams</text>
<rect x="606" y="680.4" class="st8" width="192" height="15.6"/>
<text transform="matrix(1 0 0 1 629.553 692.2736)" class="st9 st14 st15">Open Horizon-Agent</text>
<rect x="923" y="302.9" class="st8" width="288" height="41"/>
<rect x="922" y="210.9" class="st8" width="288" height="41"/>
<rect x="53.3" y="363.7" class="st8" width="99.4" height="15.6"/>
<text transform="matrix(1 0 0 1 53.3008 375.5601)" class="st13 st14 st15">Edge-Knoten</text>
<rect x="254" y="52.7" class="st8" width="181.3" height="30.6"/>
<text transform="matrix(1 0 0 1 254.0002 63.0265)"><tspan x="0" y="0" class="st9 st10 st11">Stellt Datenansichten bereit </tspan><tspan x="0" y="16.8" class="st9 st10 st11">(React, GraphQL)</tspan></text>
<rect x="356" y="146.7" class="st8" width="210" height="47.4"/>
<text transform="matrix(1 0 0 1 355.9998 157.0265)"><tspan x="0" y="0" class="st13 st10 st11">Bedient die </tspan><tspan x="0" y="16.8" class="st13 st10 st11">Benutzerschnittstelle, </tspan><tspan x="0" y="33.6" class="st13 st10 st11">Datentransport zum Browser</tspan></text>
<rect x="352" y="256.7" class="st8" width="178" height="30.6"/>
<text transform="matrix(1 0 0 1 352.0002 267.0267)"><tspan x="0" y="0" class="st13 st10 st11">Speichert nur Erkenntnisse </tspan><tspan x="0" y="16.8" class="st13 st10 st11">(Stimmungen) in Datenbank</tspan></text>
<rect x="355.3" y="617.3" class="st8" width="227.7" height="43.8"/>
<text transform="matrix(1 0 0 1 355.3333 627.6934)"><tspan x="0" y="0" class="st13 st10 st11">Maschinellles Lernen zur Auswahl </tspan><tspan x="0" y="15" class="st13 st10 st11">der besten Talkstationen </tspan><tspan x="0" y="30" class="st13 st10 st11">verwenden, sendet Audio an Cloud</tspan></text>
<rect x="359.3" y="727.7" class="st8" width="152.7" height="30.6"/>
<text transform="matrix(1 0 0 1 359.3335 738.0273)"><tspan x="0" y="0" class="st13 st10 st11">Audioclips von </tspan><tspan x="0" y="16.8" class="st13 st10 st11">Radiostationen abrufen</tspan></text>
<rect x="716" y="408.7" class="st8" width="211.3" height="30.6"/>
<text transform="matrix(1 0 0 1 716.0003 419.0269)"><tspan x="0" y="0" class="st13 st10 st11">Nachricht löst softwaredefinierte </tspan><tspan x="0" y="16.8" class="st13 st10 st11">Radioaktion aus</tspan></text>
<rect x="1001" y="212.7" class="st8" width="122.7" height="35.2"/>
<text transform="matrix(1 0 0 1 1017.5101 224.5063)"><tspan x="0" y="0" class="st9 st14 st15">IBM Watson </tspan><tspan x="-9.7" y="19.2" class="st9 st14 st15">Speech to Text</tspan></text>
<rect x="959" y="303.3" class="st8" width="206.7" height="35.2"/>
<text transform="matrix(1 0 0 1 988.222 315.1732)"><tspan x="0" y="0" class="st9 st14 st15">IBM Watson Natural </tspan><tspan x="-17.1" y="19.2" class="st9 st14 st15">Language Understanding</tspan></text>
</svg>
