<?xml version="1.0" encoding="utf-8"?>
<!-- Generator: Adobe Illustrator 21.1.0, SVG Export Plug-In . SVG Version: 6.00 Build 0)  -->
<svg version="1.1" id="Layer_1" xmlns="http://www.w3.org/2000/svg" xmlns:xlink="http://www.w3.org/1999/xlink" x="0px" y="0px"
	 viewBox="0 0 1045.8 682.8" style="enable-background:new 0 0 1045.8 682.8;" xml:space="preserve">
<style type="text/css">
	.st0{fill:#051B75;}
	.st1{fill:#FFFFFF;}
	.st2{fill:none;}
	.st3{fill:#161616;}
	.st4{font-family:'IBMPlexSans';}
	.st5{font-size:14px;}
	.st6{fill:#F4F4F4;}
	.st7{font-family:'IBMPlexSans-Medium';}
	.st8{font-size:16px;}
	.st9{fill:#009C98;}
	.st10{fill:#BEBEBE;}
	.st11{fill:#E3F6FF;}
	.st12{fill:#0F62FE;}
	.st13{display:none;}
	.st14{display:inline;fill:#0F62FE;}
	.st15{fill:none;stroke:#0F62FE;stroke-width:2;stroke-miterlimit:10;}
	.st16{display:none;fill:none;stroke:#0F62FE;stroke-width:2;stroke-miterlimit:10;}
	.st17{fill:none;stroke:#BEBEBE;stroke-width:2;}
	.st18{fill:none;stroke:#BEBEBE;stroke-width:2;stroke-dasharray:7,7;}
	.st19{fill:#408BFC;}
	.st20{fill:none;stroke:#00BAB6;stroke-width:2;stroke-dasharray:7;}
	.st21{enable-background:new    ;}
	.st22{font-size:12px;}
	.st23{fill:none;stroke:#BEBEBE;stroke-width:2;stroke-dasharray:7;}
</style>
<rect id="Rectangle-Copy-12" x="304.9" y="31.8" class="st0" width="363.3" height="231.6"/>
<g>
	<rect id="Rectangle-Copy-16_2_" x="493.7" y="85.5" class="st1" width="70.5" height="81"/>
	<rect x="493.8" y="118.9" class="st2" width="70.4" height="15.6"/>
	<text transform="matrix(1 0 0 1 497.0641 129.2443)" class="st3 st4 st5">Exchange</text>
</g>
<g>
	<rect id="Rectangle-Copy-16_4_" x="582.4" y="165.5" class="st1" width="70.5" height="81"/>
	<rect x="582.3" y="189.9" class="st2" width="70.6" height="33.5"/>
</g>
<rect x="322" y="51.9" class="st2" width="236.1" height="15.6"/>
<text transform="matrix(1 0 0 1 321.9879 63.7652)" class="st6 st7 st8">Management-Hub</text>
<g>
	<rect id="Rectangle-Copy-14_1_" x="848.6" y="31.8" class="st9" width="174" height="99.3"/>
	<rect x="864.6" y="51.9" class="st2" width="150.2" height="59.4"/>
</g>
<g>
	<rect id="Rectangle-Copy-16_3_" x="254.6" y="333.6" class="st10" width="146.7" height="81"/>
	<text transform="matrix(1 0 0 1 270.5839 364.0098)" class="st1 st7 st8">Ladestation</text>
</g>
<g>
	<rect x="348.1" y="492.2" class="st2" width="118.7" height="15.5"/>
	<text transform="matrix(1 0 0 1 358.1304 502.5497)" class="st3 st4 st5">Knotentechniker</text>
	<g id="Group-2_3_" transform="translate(21.000000, 0.000000)">
		<circle id="Oval-Copy-3_3_" class="st11" cx="386.5" cy="457.5" r="24"/>
		<path class="st12" d="M381.5,460.5c2.8,0,5,2.2,5,5v6h-2v-6c0-1.7-1.3-3-3-3h-4c-1.7,0-3,1.3-3,3v6h-2v-6c0-2.8,2.2-5,5-5H381.5z"
			/>
		<g>
			<g>
				<path class="st12" d="M379.5,448.5c-2.8,0-5,2.2-5,5s2.2,5,5,5s5-2.2,5-5S382.3,448.5,379.5,448.5z M379.5,456.5
					c-1.7,0-3-1.3-3-3s1.3-3,3-3s3,1.3,3,3S381.1,456.5,379.5,456.5z"/>
			</g>
		</g>
		<g class="st13">
			<rect x="408.5" y="456.5" class="st14" width="2" height="2"/>
			<rect x="413.5" y="456.5" class="st14" width="2" height="2"/>
			<rect x="416.5" y="453.5" class="st14" width="2" height="2"/>
			<rect x="405.5" y="453.5" class="st14" width="2" height="2"/>
			<rect x="408.5" y="448.5" class="st14" width="7" height="7"/>
			<rect x="410.5" y="450.5" class="st14" width="3" height="3"/>
			<rect x="416.5" y="448.5" class="st14" width="2" height="2"/>
			<rect x="405.5" y="448.5" class="st14" width="2" height="2"/>
			<rect x="408.5" y="445.5" class="st14" width="2" height="2"/>
			<rect x="413.5" y="445.5" class="st14" width="2" height="2"/>
		</g>
		<g class="st13">
			<path class="st14" d="M407.5,454.5c-1.1,0-2,0.9-2,2s0.9,2,2,2s2-0.9,2-2S408.6,454.5,407.5,454.5L407.5,454.5z"/>
		</g>
		<g>
			<line class="st15" x1="398.9" y1="461.8" x2="398.9" y2="447.2"/>
			<line class="st16" x1="413" y1="451.2" x2="413" y2="447.2"/>
			<line class="st15" x1="402.9" y1="449.2" x2="394.9" y2="449.2"/>
		</g>
		<g>
			<path class="st15" d="M391.8,447.5c0.8,0.8,0.8,2,0,2.8s-2,0.8-2.8,0s-0.8-2,0-2.8"/>
			<line class="st15" x1="390.3" y1="461.8" x2="390.3" y2="451.1"/>
		</g>
	</g>
</g>
<g class="st13">
	<rect x="140.1" y="441.8" class="st14" width="2" height="2"/>
	<rect x="145.1" y="441.8" class="st14" width="2" height="2"/>
	<rect x="148.1" y="438.8" class="st14" width="2" height="2"/>
	<rect x="137.1" y="438.8" class="st14" width="2" height="2"/>
	<rect x="140.1" y="433.8" class="st14" width="7" height="7"/>
	<rect x="142.1" y="435.8" class="st14" width="3" height="3"/>
	<rect x="148.1" y="433.8" class="st14" width="2" height="2"/>
	<rect x="137.1" y="433.8" class="st14" width="2" height="2"/>
	<rect x="140.1" y="430.8" class="st14" width="2" height="2"/>
	<rect x="145.1" y="430.8" class="st14" width="2" height="2"/>
</g>
<g class="st13">
	<path class="st14" d="M139.1,439.8c-1.1,0-2,0.9-2,2s0.9,2,2,2c1.1,0,2-0.9,2-2S140.2,439.8,139.1,439.8L139.1,439.8z"/>
</g>
<g>
	<g>
		<polyline class="st17" points="616.4,256.6 616.4,300.5 83.8,300.5 83.8,283.3 		"/>
		<g>
			<polygon class="st10" points="609.4,258.6 616.4,246.5 623.3,258.6 			"/>
		</g>
	</g>
</g>
<g>
	<g>
		<polyline class="st17" points="71.8,504 71.8,344.8 55.4,344.8 55.4,293.4 		"/>
		<g>
			<polygon class="st10" points="78.8,502 71.8,514.1 64.8,502 			"/>
		</g>
		<g>
			<polygon class="st10" points="62.3,295.4 55.4,283.3 48.4,295.4 			"/>
		</g>
	</g>
</g>
<g>
	<g>
		<polyline class="st17" points="95.6,538 311.8,538 311.8,424.7 		"/>
		<g>
			<polygon class="st10" points="318.8,426.7 311.8,414.6 304.8,426.7 			"/>
		</g>
	</g>
</g>
<polyline class="st17" points="374.4,458.6 344.5,458.6 344.5,414.6 "/>
<g>
	<g>
		<line class="st17" x1="791.2" y1="458.6" x2="439.1" y2="458.6"/>
		<g>
			<polygon class="st10" points="789.1,451.6 801.2,458.6 789.1,465.6 			"/>
		</g>
	</g>
</g>
<g>
	<g>
		<line class="st18" x1="274.2" y1="151.7" x2="483.6" y2="151.7"/>
		<g>
			<polygon class="st10" points="481.6,158.7 493.7,151.7 481.6,144.7 			"/>
		</g>
	</g>
</g>
<g>
	<g>
		<polyline class="st18" points="662.9,223.4 701.3,223.4 701.3,433.5 791.2,433.5 		"/>
		<g>
			<polygon class="st10" points="665,230.4 652.9,223.4 665,216.4 			"/>
		</g>
		<g>
			<polygon class="st10" points="789.1,440.5 801.2,433.5 789.1,426.6 			"/>
		</g>
	</g>
</g>
<g>
	<g>
		<polyline class="st18" points="954.5,375.2 954.5,292.1 871.1,292.1 871.1,141.1 		"/>
		<g>
			<polygon class="st10" points="961.4,373.2 954.5,385.3 947.5,373.2 			"/>
		</g>
		<g>
			<polygon class="st10" points="878,143.1 871.1,131 864.1,143.1 			"/>
		</g>
	</g>
</g>
<g>
	<g>
		<line class="st18" x1="572.3" y1="206" x2="274.2" y2="206"/>
		<g>
			<polygon class="st10" points="570.3,199 582.3,206 570.3,213 			"/>
		</g>
	</g>
</g>
<g>
	<g>
		<polyline class="st18" points="652.9,206 688.9,206 688.9,78.4 838.5,78.4 		"/>
		<g>
			<polygon class="st10" points="836.5,85.4 848.6,78.4 836.5,71.4 			"/>
		</g>
	</g>
</g>
<g>
	<g>
		<rect x="47.9" y="514.1" class="st11" width="47.8" height="47.8"/>
		<path class="st12" d="M85.3,529.1c-0.3-0.2-0.7-0.2-1,0l-8.5,4.2v-3.4c0-0.6-0.5-1-1-1c-0.2,0-0.3,0-0.4,0.1l-8.5,4.3v-7.4
			c0-0.6-0.4-1-1-1h-6c-0.6,0-1,0.4-1,1v25h28v-21C85.8,529.6,85.6,529.3,85.3,529.1z M77.8,549h-4v-7h4V549z M83.8,549h-4v-8
			c0-0.6-0.4-1-1-1h-6c-0.6,0-1,0.4-1,1v8h-12v-22h4v9.6l10-5v5l10-5V549z"/>
	</g>
</g>
<g>
	<g>
		<rect id="Rectangle-Copy-14" x="828.6" y="409.8" class="st19" width="30.8" height="29.2"/>
		<g id="icon_x2F_device_x2F_16" transform="translate(685.000000, 339.000000)">
			<path id="Shape_4_" class="st6" d="M160,77.9c0.6,0,1,0.4,1,1c0,0.5-0.4,0.9-0.8,1l-0.4,1h3.3c1.1,0,2,0.9,2,2v5c0,1.1-0.9,2-2,2
				h-8c-1.1,0-2-0.9-2-2v-5c0-1.1,0.9-2,2-2h3.7l0.6-1.4c-0.1-0.1-0.2-0.3-0.2-0.5v-0.1C159,78.3,159.4,77.9,160,77.9z M163,81.9h-8
				c-0.5,0-0.9,0.4-1,0.9v0.1v5c0,0.5,0.4,0.9,0.9,1h0.1h8c0.5,0,0.9-0.4,1-0.9v-0.1v-5c0-0.5-0.4-0.9-0.9-1H163z M161.5,86.9
				c0.3,0,0.5,0.2,0.5,0.5s-0.2,0.5-0.5,0.5h-5c-0.3,0-0.5-0.2-0.5-0.5s0.2-0.5,0.5-0.5H161.5z M156.5,82.9c0.8,0,1.5,0.7,1.5,1.5
				s-0.7,1.5-1.5,1.5s-1.5-0.7-1.5-1.5C155,83.5,155.7,82.9,156.5,82.9z M161.5,82.9c0.8,0,1.5,0.7,1.5,1.5s-0.7,1.5-1.5,1.5
				s-1.5-0.7-1.5-1.5C160,83.5,160.7,82.9,161.5,82.9z M156.5,83.9c-0.3,0-0.5,0.2-0.5,0.5s0.2,0.5,0.5,0.5s0.5-0.2,0.5-0.5
				S156.8,83.9,156.5,83.9z M161.5,83.9c-0.3,0-0.5,0.2-0.5,0.5s0.2,0.5,0.5,0.5s0.5-0.2,0.5-0.5S161.8,83.9,161.5,83.9z"/>
		</g>
	</g>
	<g>
		<rect id="Rectangle-Copy-14_2_" x="874.7" y="409.8" class="st19" width="30.8" height="29.2"/>
		<g id="icon_x2F_device_x2F_16_1_" transform="translate(685.000000, 339.000000)">
			<path id="Shape_2_" class="st6" d="M206.1,77.9c0.6,0,1,0.4,1,1c0,0.5-0.4,0.9-0.8,1l-0.4,1h3.3c1.1,0,2,0.9,2,2v5
				c0,1.1-0.9,2-2,2h-8c-1.1,0-2-0.9-2-2v-5c0-1.1,0.9-2,2-2h3.7l0.6-1.4c-0.1-0.1-0.2-0.3-0.2-0.5v-0.1
				C205.1,78.3,205.5,77.9,206.1,77.9z M209.1,81.9h-8c-0.5,0-0.9,0.4-1,0.9v0.1v5c0,0.5,0.4,0.9,0.9,1h0.1h8c0.5,0,0.9-0.4,1-0.9
				v-0.1v-5c0-0.5-0.4-0.9-0.9-1H209.1z M207.6,86.9c0.3,0,0.5,0.2,0.5,0.5s-0.2,0.5-0.5,0.5h-5c-0.3,0-0.5-0.2-0.5-0.5
				s0.2-0.5,0.5-0.5H207.6z M202.6,82.9c0.8,0,1.5,0.7,1.5,1.5s-0.7,1.5-1.5,1.5s-1.5-0.7-1.5-1.5C201.1,83.5,201.7,82.9,202.6,82.9
				z M207.6,82.9c0.8,0,1.5,0.7,1.5,1.5s-0.7,1.5-1.5,1.5s-1.5-0.7-1.5-1.5C206.1,83.5,206.7,82.9,207.6,82.9z M202.6,83.9
				c-0.3,0-0.5,0.2-0.5,0.5s0.2,0.5,0.5,0.5s0.5-0.2,0.5-0.5S202.8,83.9,202.6,83.9z M207.6,83.9c-0.3,0-0.5,0.2-0.5,0.5
				s0.2,0.5,0.5,0.5s0.5-0.2,0.5-0.5S207.8,83.9,207.6,83.9z"/>
		</g>
	</g>
	<g>
		<rect id="Rectangle-Copy-14_3_" x="920.5" y="409.8" class="st19" width="30.8" height="29.2"/>
		<g id="icon_x2F_device_x2F_16_2_" transform="translate(685.000000, 339.000000)">
			<path id="Shape_3_" class="st6" d="M251.9,77.9c0.6,0,1,0.4,1,1c0,0.5-0.4,0.9-0.8,1l-0.4,1h3.3c1.1,0,2,0.9,2,2v5
				c0,1.1-0.9,2-2,2h-8c-1.1,0-2-0.9-2-2v-5c0-1.1,0.9-2,2-2h3.7l0.6-1.4c-0.1-0.1-0.2-0.3-0.2-0.5v-0.1
				C250.9,78.3,251.3,77.9,251.9,77.9z M254.9,81.9h-8c-0.5,0-0.9,0.4-1,0.9v0.1v5c0,0.5,0.4,0.9,0.9,1h0.1h8c0.5,0,0.9-0.4,1-0.9
				v-0.1v-5c0-0.5-0.4-0.9-0.9-1H254.9z M253.4,86.9c0.3,0,0.5,0.2,0.5,0.5s-0.2,0.5-0.5,0.5h-5c-0.3,0-0.5-0.2-0.5-0.5
				s0.2-0.5,0.5-0.5H253.4z M248.4,82.9c0.8,0,1.5,0.7,1.5,1.5s-0.7,1.5-1.5,1.5s-1.5-0.7-1.5-1.5C246.9,83.5,247.5,82.9,248.4,82.9
				z M253.4,82.9c0.8,0,1.5,0.7,1.5,1.5s-0.7,1.5-1.5,1.5s-1.5-0.7-1.5-1.5C251.9,83.5,252.5,82.9,253.4,82.9z M248.4,83.9
				c-0.3,0-0.5,0.2-0.5,0.5s0.2,0.5,0.5,0.5s0.5-0.2,0.5-0.5S248.6,83.9,248.4,83.9z M253.4,83.9c-0.3,0-0.5,0.2-0.5,0.5
				s0.2,0.5,0.5,0.5s0.5-0.2,0.5-0.5S253.6,83.9,253.4,83.9z"/>
		</g>
	</g>
	<g>
		<rect id="Rectangle-Copy-14_6_" x="828.6" y="452.3" class="st19" width="30.8" height="29.2"/>
		<g id="icon_x2F_device_x2F_16_5_" transform="translate(685.000000, 339.000000)">
			<path id="Shape_7_" class="st6" d="M160,120.4c0.6,0,1,0.4,1,1c0,0.5-0.4,0.9-0.8,1l-0.4,1h3.3c1.1,0,2,0.9,2,2v5
				c0,1.1-0.9,2-2,2h-8c-1.1,0-2-0.9-2-2v-5c0-1.1,0.9-2,2-2h3.7l0.6-1.4c-0.1-0.1-0.2-0.3-0.2-0.5v-0.1
				C159,120.9,159.4,120.4,160,120.4z M163,124.4h-8c-0.5,0-0.9,0.4-1,0.9v0.1v5c0,0.5,0.4,0.9,0.9,1h0.1h8c0.5,0,0.9-0.4,1-0.9
				v-0.1v-5c0-0.5-0.4-0.9-0.9-1H163z M161.5,129.4c0.3,0,0.5,0.2,0.5,0.5s-0.2,0.5-0.5,0.5h-5c-0.3,0-0.5-0.2-0.5-0.5
				s0.2-0.5,0.5-0.5H161.5z M156.5,125.4c0.8,0,1.5,0.7,1.5,1.5s-0.7,1.5-1.5,1.5s-1.5-0.7-1.5-1.5S155.7,125.4,156.5,125.4z
				 M161.5,125.4c0.8,0,1.5,0.7,1.5,1.5s-0.7,1.5-1.5,1.5s-1.5-0.7-1.5-1.5S160.7,125.4,161.5,125.4z M156.5,126.4
				c-0.3,0-0.5,0.2-0.5,0.5s0.2,0.5,0.5,0.5s0.5-0.2,0.5-0.5S156.8,126.4,156.5,126.4z M161.5,126.4c-0.3,0-0.5,0.2-0.5,0.5
				s0.2,0.5,0.5,0.5s0.5-0.2,0.5-0.5S161.8,126.4,161.5,126.4z"/>
		</g>
	</g>
	<g>
		<rect id="Rectangle-Copy-14_5_" x="874.7" y="452.3" class="st19" width="30.8" height="29.2"/>
		<g id="icon_x2F_device_x2F_16_4_" transform="translate(685.000000, 339.000000)">
			<path id="Shape_6_" class="st6" d="M206.1,120.4c0.6,0,1,0.4,1,1c0,0.5-0.4,0.9-0.8,1l-0.4,1h3.3c1.1,0,2,0.9,2,2v5
				c0,1.1-0.9,2-2,2h-8c-1.1,0-2-0.9-2-2v-5c0-1.1,0.9-2,2-2h3.7l0.6-1.4c-0.1-0.1-0.2-0.3-0.2-0.5v-0.1
				C205.1,120.9,205.5,120.4,206.1,120.4z M209.1,124.4h-8c-0.5,0-0.9,0.4-1,0.9v0.1v5c0,0.5,0.4,0.9,0.9,1h0.1h8
				c0.5,0,0.9-0.4,1-0.9v-0.1v-5c0-0.5-0.4-0.9-0.9-1H209.1z M207.6,129.4c0.3,0,0.5,0.2,0.5,0.5s-0.2,0.5-0.5,0.5h-5
				c-0.3,0-0.5-0.2-0.5-0.5s0.2-0.5,0.5-0.5H207.6z M202.6,125.4c0.8,0,1.5,0.7,1.5,1.5s-0.7,1.5-1.5,1.5s-1.5-0.7-1.5-1.5
				S201.7,125.4,202.6,125.4z M207.6,125.4c0.8,0,1.5,0.7,1.5,1.5s-0.7,1.5-1.5,1.5s-1.5-0.7-1.5-1.5S206.7,125.4,207.6,125.4z
				 M202.6,126.4c-0.3,0-0.5,0.2-0.5,0.5s0.2,0.5,0.5,0.5s0.5-0.2,0.5-0.5S202.8,126.4,202.6,126.4z M207.6,126.4
				c-0.3,0-0.5,0.2-0.5,0.5s0.2,0.5,0.5,0.5s0.5-0.2,0.5-0.5S207.8,126.4,207.6,126.4z"/>
		</g>
	</g>
	<g>
		<rect id="Rectangle-Copy-14_4_" x="920.5" y="452.3" class="st19" width="30.8" height="29.2"/>
		<g id="icon_x2F_device_x2F_16_3_" transform="translate(685.000000, 339.000000)">
			<path id="Shape_5_" class="st6" d="M251.9,120.4c0.6,0,1,0.4,1,1c0,0.5-0.4,0.9-0.8,1l-0.4,1h3.3c1.1,0,2,0.9,2,2v5
				c0,1.1-0.9,2-2,2h-8c-1.1,0-2-0.9-2-2v-5c0-1.1,0.9-2,2-2h3.7l0.6-1.4c-0.1-0.1-0.2-0.3-0.2-0.5v-0.1
				C250.9,120.9,251.3,120.4,251.9,120.4z M254.9,124.4h-8c-0.5,0-0.9,0.4-1,0.9v0.1v5c0,0.5,0.4,0.9,0.9,1h0.1h8
				c0.5,0,0.9-0.4,1-0.9v-0.1v-5c0-0.5-0.4-0.9-0.9-1H254.9z M253.4,129.4c0.3,0,0.5,0.2,0.5,0.5s-0.2,0.5-0.5,0.5h-5
				c-0.3,0-0.5-0.2-0.5-0.5s0.2-0.5,0.5-0.5H253.4z M248.4,125.4c0.8,0,1.5,0.7,1.5,1.5s-0.7,1.5-1.5,1.5s-1.5-0.7-1.5-1.5
				S247.5,125.4,248.4,125.4z M253.4,125.4c0.8,0,1.5,0.7,1.5,1.5s-0.7,1.5-1.5,1.5s-1.5-0.7-1.5-1.5S252.5,125.4,253.4,125.4z
				 M248.4,126.4c-0.3,0-0.5,0.2-0.5,0.5s0.2,0.5,0.5,0.5s0.5-0.2,0.5-0.5S248.6,126.4,248.4,126.4z M253.4,126.4
				c-0.3,0-0.5,0.2-0.5,0.5s0.2,0.5,0.5,0.5s0.5-0.2,0.5-0.5S253.6,126.4,253.4,126.4z"/>
		</g>
	</g>
	<g>
		<rect id="Rectangle-Copy-14_8_" x="964.4" y="409.8" class="st19" width="30.8" height="29.2"/>
		<g id="icon_x2F_device_x2F_16_7_" transform="translate(685.000000, 339.000000)">
			<path id="Shape_9_" class="st6" d="M295.8,77.9c0.6,0,1,0.4,1,1c0,0.5-0.4,0.9-0.8,1l-0.4,1h3.3c1.1,0,2,0.9,2,2v5
				c0,1.1-0.9,2-2,2h-8c-1.1,0-2-0.9-2-2v-5c0-1.1,0.9-2,2-2h3.7l0.6-1.4c-0.1-0.1-0.2-0.3-0.2-0.5v-0.1
				C294.8,78.3,295.3,77.9,295.8,77.9z M298.8,81.9h-8c-0.5,0-0.9,0.4-1,0.9v0.1v5c0,0.5,0.4,0.9,0.9,1h0.1h8c0.5,0,0.9-0.4,1-0.9
				v-0.1v-5c0-0.5-0.4-0.9-0.9-1H298.8z M297.3,86.9c0.3,0,0.5,0.2,0.5,0.5s-0.2,0.5-0.5,0.5h-5c-0.3,0-0.5-0.2-0.5-0.5
				s0.2-0.5,0.5-0.5H297.3z M292.3,82.9c0.8,0,1.5,0.7,1.5,1.5s-0.7,1.5-1.5,1.5s-1.5-0.7-1.5-1.5C290.8,83.5,291.5,82.9,292.3,82.9
				z M297.3,82.9c0.8,0,1.5,0.7,1.5,1.5s-0.7,1.5-1.5,1.5s-1.5-0.7-1.5-1.5C295.8,83.5,296.5,82.9,297.3,82.9z M292.3,83.9
				c-0.3,0-0.5,0.2-0.5,0.5s0.2,0.5,0.5,0.5s0.5-0.2,0.5-0.5S292.6,83.9,292.3,83.9z M297.3,83.9c-0.3,0-0.5,0.2-0.5,0.5
				s0.2,0.5,0.5,0.5s0.5-0.2,0.5-0.5S297.6,83.9,297.3,83.9z"/>
		</g>
	</g>
	<g>
		<rect id="Rectangle-Copy-14_7_" x="964.4" y="452.3" class="st19" width="30.8" height="29.2"/>
		<g id="icon_x2F_device_x2F_16_6_" transform="translate(685.000000, 339.000000)">
			<path id="Shape_8_" class="st6" d="M295.8,120.4c0.6,0,1,0.4,1,1c0,0.5-0.4,0.9-0.8,1l-0.4,1h3.3c1.1,0,2,0.9,2,2v5
				c0,1.1-0.9,2-2,2h-8c-1.1,0-2-0.9-2-2v-5c0-1.1,0.9-2,2-2h3.7l0.6-1.4c-0.1-0.1-0.2-0.3-0.2-0.5v-0.1
				C294.8,120.9,295.3,120.4,295.8,120.4z M298.8,124.4h-8c-0.5,0-0.9,0.4-1,0.9v0.1v5c0,0.5,0.4,0.9,0.9,1h0.1h8
				c0.5,0,0.9-0.4,1-0.9v-0.1v-5c0-0.5-0.4-0.9-0.9-1H298.8z M297.3,129.4c0.3,0,0.5,0.2,0.5,0.5s-0.2,0.5-0.5,0.5h-5
				c-0.3,0-0.5-0.2-0.5-0.5s0.2-0.5,0.5-0.5H297.3z M292.3,125.4c0.8,0,1.5,0.7,1.5,1.5s-0.7,1.5-1.5,1.5s-1.5-0.7-1.5-1.5
				S291.5,125.4,292.3,125.4z M297.3,125.4c0.8,0,1.5,0.7,1.5,1.5s-0.7,1.5-1.5,1.5s-1.5-0.7-1.5-1.5S296.5,125.4,297.3,125.4z
				 M292.3,126.4c-0.3,0-0.5,0.2-0.5,0.5s0.2,0.5,0.5,0.5s0.5-0.2,0.5-0.5S292.6,126.4,292.3,126.4z M297.3,126.4
				c-0.3,0-0.5,0.2-0.5,0.5s0.2,0.5,0.5,0.5s0.5-0.2,0.5-0.5S297.6,126.4,297.3,126.4z"/>
		</g>
	</g>
	<path id="Rectangle-Copy-17" class="st20" d="M841.2,385.3h140.4c22.1,0,40,17.9,40,40v43.1c0,22.1-17.9,40-40,40H841.2
		c-22.1,0-40-17.9-40-40v-43.1C801.2,403.2,819.1,385.3,841.2,385.3z"/>
	<rect x="833.2" y="357.4" class="st2" width="147.7" height="15.6"/>
	<text transform="matrix(1 0 0 1 833.197 369.2621)" class="st3 st7 st8">Edge-Knoten</text>
</g>
<rect x="131.2" y="280" class="st2" width="428.2" height="19.5"/>
<text transform="matrix(1 0 0 1 124.5782 290.3587)" class="st3 st4 st5">1. Erzeugt SDO-Eigentumsschlüssel und importiert (nur beim ersten Mal)</text>
<rect x="152.1" y="517.8" class="st2" width="112.5" height="18.3"/>
<text transform="matrix(1 0 0 1 130.0567 528.1896)" class="st3 st4 st5">4. Versendet Einheiten</text>
<rect x="684.8" y="59.7" class="st2" width="153" height="18.1"/>
<text transform="matrix(0.9077 0 0 1 688.0674 70.0712)" class="st3 st4 st5">3c. Registriert Gutscheine</text>
<rect x="322" y="131.5" class="st2" width="142.1" height="16.5"/>
<rect x="322" y="115" class="st2" width="128.9" height="32.1"/>
<text transform="matrix(1 0 0 1 321.9881 126.84)" class="st21"><tspan x="0" y="0" class="st6 st4 st5">3a. Fügt </tspan><tspan x="0" y="16.8" class="st6 st4 st5">Edge-Knoten hinzu</tspan></text>
<rect x="322" y="186.6" class="st2" width="144.4" height="16.9"/>
<text transform="matrix(1 0 0 1 321.9875 196.9795)" class="st6 st4 st5">3b. Importiert Gutscheine</text>
<g>
	<g id="Group-2" transform="translate(21.000000, 0.000000)">
		<circle id="Oval-Copy-3" class="st11" cx="50.3" cy="225" r="24"/>
		<g id="icon_x2F_policy-admin" transform="translate(8.000000, 8.000000)">
			<path id="Shape" class="st12" d="M37.3,220c2.8,0,5,2.2,5,5v6h-2v-6c0-1.7-1.3-3-3-3h-4c-1.7,0-3,1.3-3,3v6h-2v-6
				c0-2.8,2.2-5,5-5H37.3z M35.3,208c2.8,0,5,2.2,5,5s-2.2,5-5,5s-5-2.2-5-5S32.6,208,35.3,208z M53.9,207.9l1.4,1.4l-7.1,7.1
				l-3.9-3.9l1.4-1.4l2.5,2.5L53.9,207.9z M35.3,210c-1.7,0-3,1.3-3,3s1.3,3,3,3s3-1.3,3-3S37,210,35.3,210z"/>
		</g>
	</g>
	<rect x="23.5" y="259.6" class="st2" width="94.5" height="15.5"/>
	<text transform="matrix(1 0 0 1 26.6179 266.4302)" class="st3 st4 st5">Administrator</text>
</g>
<rect x="275.3" y="302.4" class="st1" width="12.3" height="12.3"/>
<g>
	<rect id="Rectangle-Copy-16_5_" x="217.8" y="138" class="st3" width="70.5" height="81"/>
	<rect x="217.8" y="171.3" class="st2" width="70.5" height="15.6"/>
	<text transform="matrix(0.9372 0 0 1 221.1999 157.2197)" class="st21"><tspan x="0" y="0" class="st6 st4 st5">Befehls- </tspan><tspan x="0" y="16.8" class="st6 st4 st5">zeilen- </tspan><tspan x="0" y="33.6" class="st6 st4 st5">schnitt- </tspan><tspan x="0" y="50.4" class="st6 st4 st5">stelle (CLI)</tspan></text>
</g>
<g>
	<g>
		<polyline class="st17" points="105.5,225.4 128.5,225.4 128.5,106.7 253,106.7 253,128 		"/>
		<g>
			<polygon class="st10" points="246,125.9 253,138 260,125.9 			"/>
		</g>
	</g>
</g>
<rect x="94.2" y="644.5" class="st2" width="89.1" height="14.5"/>
<text transform="matrix(1 0 0 1 88.8545 653.4345)" class="st3 st4 st22">Benutzerhandlungen</text>
<rect x="283.2" y="644.5" class="st2" width="89.1" height="14.5"/>
<text transform="matrix(1 0 0 1 283.1877 653.4345)" class="st3 st4 st22">Systemaktionen</text>
<line class="st17" x1="22.9" y1="649.8" x2="82.6" y2="649.8"/>
<line class="st23" x1="210.3" y1="649.8" x2="270.1" y2="649.8"/>
<rect x="127.9" y="53.4" class="st2" width="124.5" height="48"/>
<text transform="matrix(1 0 0 1 127.8835 63.7524)"><tspan x="0" y="0" class="st3 st4 st5">3. Empfängt und </tspan><tspan x="0" y="16.8" class="st3 st4 st5">importiert </tspan><tspan x="0" y="33.6" class="st3 st4 st5">Gutscheine</tspan></text>
<rect x="84.9" y="368.4" class="st2" width="145" height="97.8"/>
<text transform="matrix(1 0 0 1 84.8835 378.7519)"><tspan x="0" y="0" class="st3 st4 st5">2. Bestellt Einheiten, </tspan><tspan x="0" y="16.8" class="st3 st4 st5">stellt öffentlichen </tspan><tspan x="0" y="33.6" class="st3 st4 st5">Schlüssel für </tspan><tspan x="0" y="50.4" class="st3 st4 st5">SDO-Eigner bereit </tspan><tspan x="0" y="67.2" class="st3 st4 st5">Empfängt </tspan><tspan x="0" y="84" class="st3 st4 st5">Eigentums-Gutscheine</tspan></text>
<rect x="455.9" y="404.4" class="st2" width="219" height="47.4"/>
<text transform="matrix(1 0 0 1 455.8835 414.7519)"><tspan x="0" y="0" class="st3 st4 st5">5. Fügt in  das Feld ein, verbindet </tspan><tspan x="0" y="16.8" class="st3 st4 st5">Netzwerk und Strom, schaltet </tspan><tspan x="0" y="33.6" class="st3 st4 st5">anschließend an</tspan></text>
<rect x="34.9" y="569.4" class="st2" width="155" height="13.8"/>
<text transform="matrix(1 0 0 1 34.8835 579.7519)" class="st3 st4 st5">Gerätehersteller</text>
<rect x="591.9" y="190.4" class="st2" width="52.5" height="30.6"/>
<text transform="matrix(1 0 0 1 591.8835 200.7519)"><tspan x="0" y="0" class="st3 st4 st5">SDO-</tspan><tspan x="0" y="16.8" class="st3 st4 st5">Service</tspan></text>
<rect x="709.9" y="222.1" class="st2" width="139" height="30.6"/>
<text transform="matrix(1 0 0 1 709.8835 232.4191)"><tspan x="0" y="0" class="st3 st4 st5">8. Erfordert </tspan><tspan x="0" y="16.8" class="st3 st4 st5">Konfiguration</tspan></text>
<rect x="712.6" y="280.1" class="st2" width="168.3" height="47.4"/>
<text transform="matrix(1 0 0 1 712.5501 290.4191)"><tspan x="0" y="0" class="st3 st4 st5">9. Installliert und </tspan><tspan x="0" y="16.8" class="st3 st4 st5">registriert Edge-Agent, </tspan><tspan x="0" y="33.6" class="st3 st4 st5">stellt Edge-Services bereit</tspan></text>
<rect x="861.9" y="51.4" class="st2" width="145.7" height="54.4"/>
<text transform="matrix(1 0 0 1 861.8835 63.2324)"><tspan x="0" y="0" class="st6 st7 st8">Intel </tspan><tspan x="0" y="19.2" class="st6 st7 st8">Corp.Rendezvous </tspan><tspan x="0" y="38.4" class="st6 st7 st8">Server</tspan></text>
<rect x="882.9" y="154.1" class="st2" width="130" height="30.6"/>
<text transform="matrix(1 0 0 1 882.8835 164.4191)"><tspan x="0" y="0" class="st3 st4 st5">6. Kontaktiert </tspan><tspan x="0" y="16.8" class="st3 st4 st5">Rendezvous-Server</tspan></text>
<rect x="883.6" y="214.7" class="st2" width="110.7" height="63.3"/>
<text transform="matrix(1 0 0 1 883.5505 225.0857)"><tspan x="0" y="0" class="st3 st4 st5">7. Leitet </tspan><tspan x="0" y="16.8" class="st3 st4 st5">Edge-Knoten an </tspan><tspan x="0" y="33.6" class="st3 st4 st5">Management- </tspan><tspan x="0" y="50.4" class="st3 st4 st5">Hub um</tspan></text>
</svg>
