<?xml version="1.0" encoding="utf-8"?>
<!-- Generator: Adobe Illustrator 21.1.0, SVG Export Plug-In . SVG Version: 6.00 Build 0)  -->
<svg version="1.1" id="Layer_1" xmlns="http://www.w3.org/2000/svg" xmlns:xlink="http://www.w3.org/1999/xlink" x="0px" y="0px"
	 viewBox="0 0 969.8 560.2" style="enable-background:new 0 0 969.8 560.2;" xml:space="preserve">
<style type="text/css">
	.st0{fill:#E3F6FF;}
	.st1{fill:#0F62FE;}
	.st2{fill:#408BFC;}
	.st3{fill:#FFFFFF;}
	.st4{fill:#009C98;}
	.st5{fill:#051B75;}
	.st6{fill:none;stroke:#BEBEBE;stroke-width:2;stroke-linecap:square;}
	.st7{fill:#BEBEBE;}
	.st8{fill:#F4F4F4;}
	.st9{fill:none;}
	.st10{fill:#161616;}
	.st11{font-family:'IBMPlexSans';}
	.st12{font-size:14px;}
	.st13{font-family:'IBMPlexSans-Medium';}
	.st14{font-size:16px;}
	.st15{font-size:12px;}
</style>
<g id="Group-2" transform="translate(21.000000, 0.000000)">
	<circle id="Oval-Copy-3" class="st0" cx="50.4" cy="228.1" r="24"/>
	<g id="icon_x2F_policy-admin" transform="translate(8.000000, 8.000000)">
		<path id="Shape" class="st1" d="M37.4,223.1c2.8,0,5,2.2,5,5v6h-2v-6c0-1.7-1.3-3-3-3h-4c-1.7,0-3,1.3-3,3v6h-2v-6
			c0-2.8,2.2-5,5-5H37.4z M35.4,211.1c2.8,0,5,2.2,5,5s-2.2,5-5,5s-5-2.2-5-5S32.6,211.1,35.4,211.1z M54,211.1l1.4,1.4l-7.1,7.1
			l-3.9-3.9l1.4-1.4l2.5,2.5L54,211.1z M35.4,213.1c-1.7,0-3,1.3-3,3s1.3,3,3,3s3-1.3,3-3S37.1,213.1,35.4,213.1z"/>
	</g>
</g>
<g id="Group-2_1_" transform="translate(21.000000, 0.000000)">
	<circle id="Oval-Copy-3_1_" class="st0" cx="357.4" cy="486.1" r="24"/>
	<g id="icon_x2F_node-owner" transform="translate(8.000000, 8.000000)">
		<g id="Group-23" transform="translate(2.000000, 4.000000)">
			<path id="Shape_1_" class="st1" d="M342.4,477.1c2.8,0,5,2.2,5,5v6h-2v-6c0-1.7-1.3-3-3-3h-4c-1.7,0-3,1.3-3,3v6h-2v-6
				c0-2.8,2.2-5,5-5H342.4z M340.4,465.1c2.8,0,5,2.2,5,5s-2.2,5-5,5s-5-2.2-5-5S337.6,465.1,340.4,465.1z M353.4,473.1v2h-2v-2
				H353.4z M358.4,473.1v2h-2v-2H358.4z M340.4,467.1c-1.7,0-3,1.3-3,3s1.3,3,3,3s3-1.3,3-3S342.1,467.1,340.4,467.1z M361.4,470.1
				v2h-2v-2H361.4z M350.4,470.1v2h-2v-2H350.4z M358.4,465.1v7h-7v-7H358.4z M356.4,467.1h-3v3h3V467.1z M361.4,465.1v2h-2v-2
				H361.4z M350.4,465.1v2h-2v-2H350.4z M353.4,462.1v2h-2v-2H353.4z M358.4,462.1v2h-2v-2H358.4z"/>
		</g>
	</g>
</g>
<g id="Group-2_2_" transform="translate(27.000000, 0.000000)">
	<circle id="Oval-Copy-3_2_" class="st0" cx="252.4" cy="71.1" r="24"/>
	<g id="icon_x2F_cloud-installer" transform="translate(8.000000, 8.000000)">
		<path id="Shape_2_" class="st1" d="M239.4,66.1c2.8,0,5,2.2,5,5v6h-2v-6c0-1.7-1.3-3-3-3h-4c-1.7,0-3,1.3-3,3v6h-2v-6
			c0-2.8,2.2-5,5-5H239.4z M237.4,54.1c2.8,0,5,2.2,5,5s-2.2,5-5,5s-5-2.2-5-5S234.6,54.1,237.4,54.1z M252.4,52
			c2.1,0,3.9,1.4,4.5,3.4l0.1,0.2v0.1l0,0c1.3,0.5,2.2,1.7,2.3,3.1V59v0.2c0,2.1-1.6,3.7-3.7,3.9h-0.2h-6.3c-2.1,0-3.9-1.7-3.9-3.9
			c0-1.5,0.9-2.8,2.2-3.5l0.2-0.1v-0.1c0.5-1.9,2.1-3.4,4.1-3.6h0.2L252.4,52z M237.4,56.1c-1.7,0-3,1.3-3,3s1.3,3,3,3s3-1.3,3-3
			S239.1,56.1,237.4,56.1z M252.4,54c-1.4,0-2.5,1-2.7,2.4v0.2v0.8l-0.8,0.2c-0.9,0.2-1.5,0.9-1.5,1.8c0,1,0.8,1.8,1.7,1.9h0.1h6.3
			c1,0,1.9-0.8,1.9-1.9c0-0.8-0.6-1.6-1.3-1.8H256l-0.8-0.2v-0.8C255,55.1,253.8,54,252.4,54z"/>
	</g>
</g>
<g id="Group-2_3_" transform="translate(47.000000, 0.000000)">
	<circle id="Oval-Copy-3_3_" class="st0" cx="511.4" cy="71.1" r="24"/>
	<g id="icon_x2F_developer" transform="translate(8.000000, 8.000000)">
		<path id="Shape_3_" class="st1" d="M498.4,66.1c2.8,0,5,2.2,5,5v6h-2v-6c0-1.7-1.3-3-3-3h-4c-1.7,0-3,1.3-3,3v6h-2v-6
			c0-2.8,2.2-5,5-5H498.4z M496.4,54.1c2.8,0,5,2.2,5,5s-2.2,5-5,5s-5-2.2-5-5S493.6,54.1,496.4,54.1z M511.5,53l1.8,0.4l-2.4,10.4
			l-1.8-0.4L511.5,53z M506.3,54.7l1.4,1.2l-2.1,2.6l2.1,2.6l-1.4,1.2l-3.1-3.7L506.3,54.7z M516.1,54.7l3.1,3.7l-3.1,3.7l-1.4-1.2
			l2.1-2.6l-2.1-2.6L516.1,54.7z M496.4,56.1c-1.7,0-3,1.3-3,3s1.3,3,3,3s3-1.3,3-3S498.1,56.1,496.4,56.1z"/>
	</g>
</g>
<rect id="Rectangle-Copy" x="479.4" y="346.1" class="st2" width="304" height="157"/>
<rect id="Rectangle-Copy-9" x="495.4" y="406.1" class="st3" width="80" height="81"/>
<rect id="Rectangle-Copy-10" x="687.4" y="406.1" class="st3" width="80" height="81"/>
<rect id="Rectangle-Copy-11" x="735.4" y="150.1" class="st4" width="208" height="155"/>
<rect id="Rectangle-Copy-12" x="256.6" y="150.1" class="st5" width="439.2" height="155"/>
<path id="Line-3-Copy" class="st6" d="M413.7,487.6c0,0,22.9,0,65.7,0C436.6,487.6,413.7,487.6,413.7,487.6z"/>
<g id="Group-4-Copy" transform="translate(680.000000, 87.500000) scale(1, -1) translate(-680.000000, -87.500000) translate(565.000000, 48.000000)">
	<path id="Path-2-Copy-5" class="st7" d="M256.4-22.6l7,14h-6v65.5h-232v-2h230V-8.6h-6L256.4-22.6z"/>
</g>
<path id="Line-7" class="st7" d="M652.4,71.6v64h6l-7,14l-7-14h6v-64H652.4z"/>
<path id="Path-2-Copy-11" class="st7" d="M673.4,440.1l14,7l-14,7v-6h-98v-2h98V440.1z"/>
<g id="icon_x2F_device_x2F_16" transform="translate(685.000000, 339.000000)">
	<path id="Shape_4_" class="st8" d="M12.4,24.1c0.6,0,1,0.4,1,1c0,0.5-0.4,0.9-0.8,1l-0.5,1h3.3c1.1,0,2,0.9,2,2v5c0,1.1-0.9,2-2,2
		h-8c-1.1,0-2-0.9-2-2v-5c0-1.1,0.9-2,2-2h3.7l0.6-1.4c-0.2-0.1-0.3-0.3-0.3-0.5v-0.1C11.4,24.5,11.8,24.1,12.4,24.1z M15.4,28.1h-8
		c-0.5,0-0.9,0.4-1,0.9v0.1v5c0,0.5,0.4,0.9,0.9,1h0.1h8c0.5,0,0.9-0.4,1-0.9v-0.1v-5c0-0.5-0.4-0.9-0.9-1H15.4z M13.9,33.1
		c0.3,0,0.5,0.2,0.5,0.5s-0.2,0.5-0.5,0.5h-5c-0.3,0-0.5-0.2-0.5-0.5s0.2-0.5,0.5-0.5H13.9z M8.9,29.1c0.8,0,1.5,0.7,1.5,1.5
		c0,0.8-0.7,1.5-1.5,1.5s-1.5-0.7-1.5-1.5C7.4,29.8,8.1,29.1,8.9,29.1z M13.9,29.1c0.8,0,1.5,0.7,1.5,1.5c0,0.8-0.7,1.5-1.5,1.5
		s-1.5-0.7-1.5-1.5C12.4,29.8,13.1,29.1,13.9,29.1z M8.9,30.1c-0.3,0-0.5,0.2-0.5,0.5c0,0.3,0.2,0.5,0.5,0.5s0.5-0.2,0.5-0.5
		C9.4,30.3,9.2,30.1,8.9,30.1z M13.9,30.1c-0.3,0-0.5,0.2-0.5,0.5c0,0.3,0.2,0.5,0.5,0.5s0.5-0.2,0.5-0.5
		C14.4,30.3,14.2,30.1,13.9,30.1z"/>
</g>
<g id="icon_x2F_cluster_x2F_16" transform="translate(606.000000, 339.000000)">
	<path id="Shape_5_" class="st8" d="M11.4,26.6c0.8,0,1.5-0.7,1.5-1.5c0-0.8-0.7-1.5-1.5-1.5s-1.5,0.7-1.5,1.5
		C9.9,25.9,10.6,26.6,11.4,26.6z M11.4,24.6c0.3,0,0.5,0.2,0.5,0.5c0,0.3-0.2,0.5-0.5,0.5s-0.5-0.2-0.5-0.5
		C10.9,24.8,11.1,24.6,11.4,24.6z M16.2,29c0.8,0,1.5-0.7,1.5-1.5S17,26,16.2,26c-0.8,0-1.5,0.7-1.5,1.5S15.4,29,16.2,29z M16.2,27
		c0.3,0,0.5,0.2,0.5,0.5c0,0.3-0.2,0.5-0.5,0.5c-0.3,0-0.5-0.2-0.5-0.5C15.7,27.2,15.9,27,16.2,27L16.2,27z M5.6,31.2
		c-0.8,0-1.5,0.7-1.5,1.5c0,0.8,0.7,1.5,1.5,1.5s1.5-0.7,1.5-1.5C7.1,31.9,6.5,31.2,5.6,31.2z M5.6,33.2c-0.3,0-0.5-0.2-0.5-0.5
		c0-0.3,0.2-0.5,0.5-0.5c0.3,0,0.5,0.2,0.5,0.5S5.9,33.2,5.6,33.2z M6.6,29c0.8,0,1.5-0.7,1.5-1.5S7.4,26,6.6,26s-1.5,0.7-1.5,1.5
		C5.1,28.3,5.8,29,6.6,29L6.6,29z M6.6,27c0.3,0,0.5,0.2,0.5,0.5c0,0.3-0.2,0.5-0.5,0.5c-0.2,0-0.5-0.2-0.5-0.5
		C6.1,27.2,6.3,27,6.6,27L6.6,27z M17.2,31.2c-0.8,0-1.5,0.7-1.5,1.5c0,0.8,0.7,1.5,1.5,1.5c0.8,0,1.5-0.7,1.5-1.5
		C18.7,31.9,18,31.2,17.2,31.2z M17.2,33.2c-0.3,0-0.5-0.2-0.5-0.5c0-0.3,0.2-0.5,0.5-0.5c0.3,0,0.5,0.2,0.5,0.5
		S17.4,33.2,17.2,33.2z M13.8,35.1c-0.8,0-1.5,0.7-1.5,1.5s0.7,1.5,1.5,1.5s1.5-0.7,1.5-1.5S14.7,35.1,13.8,35.1L13.8,35.1z
		 M13.8,37.1c-0.3,0-0.5-0.2-0.5-0.5s0.2-0.5,0.5-0.5s0.5,0.2,0.5,0.5c0,0.1-0.1,0.3-0.1,0.4C14.1,37,14,37.1,13.8,37.1z M9,35.1
		c-0.8,0-1.5,0.7-1.5,1.5s0.7,1.5,1.5,1.5s1.5-0.7,1.5-1.5S9.8,35.1,9,35.1L9,35.1z M9,37.1c-0.3,0-0.5-0.2-0.5-0.5s0.2-0.5,0.5-0.5
		s0.5,0.2,0.5,0.5S9.2,37.1,9,37.1z M14.4,31.1c0-1.7-1.3-3-3-3s-3,1.3-3,3s1.3,3,3,3S14.4,32.8,14.4,31.1z M11.4,33.1
		c-1.1,0-2-0.9-2-2c0-1.1,0.9-2,2-2s2,0.9,2,2c0,0.5-0.2,1-0.6,1.4C12.4,32.9,11.9,33.1,11.4,33.1z"/>
</g>
<path id="Line-Copy" class="st7" d="M242.2,222.6l14,7l-14,7v-6l-132.8,0.5h-1v-2h1l132.8-0.5V222.6z"/>
<path id="Path-4" class="st7" d="M435.6,305.1v141h45.8v-6l14,7l-14,7v-6h-47.8v-143H435.6z"/>
<path id="Path-5" class="st7" d="M303.4,305.1l7,14h-6v167.5h37.5v2h-39.5V319.1h-6L303.4,305.1z"/>
<path id="Line-6" class="st7" d="M467.4,70.1v66h6l-7,14l-7-14h6v-64H315.9v-2H467.4z"/>
<path id="Path-3" class="st7" d="M822.4,305.1v143h-41v6l-14-7l14-7v6h39v-141H822.4z"/>
<rect x="485.9" y="105.7" class="st9" width="143.7" height="15.6"/>
<text transform="matrix(1 0 0 1 474.4082 111.4265)" class="st10 st11 st12">Desenvolvedor de software</text>
<rect x="206.9" y="105.7" class="st9" width="143.7" height="15.6"/>
<text transform="matrix(1 0 0 1 232.1813 116.0492)" class="st10 st11 st12">Instalador de nuvem</text>
<rect x="590.2" y="46.8" class="st9" width="232" height="15.6"/>
<text transform="matrix(1 0 0 1 605.3555 57.1254)" class="st10 st11 st12">Desenvolve e publica o serviço</text>
<rect x="771.4" y="168" class="st9" width="162.3" height="15.6"/>
<text transform="matrix(1 0 0 1 771.3849 179.8937)" class="st8 st13 st14">Registro de contêiner</text>
<rect x="272.2" y="170.2" class="st9" width="236.1" height="15.6"/>
<text transform="matrix(1 0 0 1 272.2025 182.0873)" class="st8 st13 st14">Hub de gerenciamento</text>
<rect x="495.4" y="366.3" class="st9" width="95" height="15.6"/>
<text transform="matrix(1 0 0 1 495.3856 378.1691)" class="st8 st13 st14">Nó de borda</text>
<rect x="503.4" y="430.7" class="st9" width="64" height="43.6"/>
<rect x="695.4" y="430.7" class="st9" width="64" height="43.6"/>
<rect x="575.4" y="422.7" class="st9" width="98" height="14.7"/>
<text transform="matrix(1 0 0 1 600.3134 437.0739)" class="st8 st11 st12">Executa</text>
<rect x="651.4" y="365.3" class="st9" width="58.9" height="14.7"/>
<text transform="matrix(1 0 0 1 628.3852 374.1476)" class="st8 st11 st15">Cluster ou</text>
<rect x="729.4" y="365.3" class="st9" width="44.5" height="14.7"/>
<text transform="matrix(1 0 0 1 706.3852 374.1476)" class="st8 st11 st15">Dispositivo</text>
<rect x="332.5" y="520.7" class="st9" width="90.6" height="15.5"/>
<text transform="matrix(1 0 0 1 322.489 529.112)" class="st10 st11 st12">Proprietário do nó</text>
<rect x="23.6" y="262.7" class="st9" width="94.5" height="15.5"/>
<text transform="matrix(1 0 0 1 26.672 268.5441)" class="st10 st11 st12">Administrador</text>
<g>
	<path class="st8" d="M763.4,167.6h-8c-0.6,0-1,0.4-1,1v11c0,0.6,0.4,1,1,1h8c0.6,0,1-0.4,1-1v-11
		C764.4,168.1,764,167.6,763.4,167.6z M763.4,168.6v3h-8v-3H763.4z M755.4,175.6v-3h8v3H755.4z M755.4,179.6v-3h8v3H755.4z"/>
	<circle class="st8" cx="756.9" cy="170.1" r="0.5"/>
	<circle class="st8" cx="756.9" cy="174.1" r="0.5"/>
	<circle class="st8" cx="756.9" cy="178.1" r="0.5"/>
	<rect id="_x3C_Transparent_Rectangle_x3E__616_" x="751.4" y="166.1" class="st9" width="16" height="16"/>
</g>
<rect x="110.4" y="193.4" class="st9" width="128" height="30.6"/>
<text transform="matrix(1 0 0 1 110.3853 203.7554)"><tspan x="0" y="0" class="st10 st11 st12">Gerencia </tspan><tspan x="0" y="16.8" class="st10 st11 st12">implementação</tspan></text>
<rect x="312.9" y="27.9" class="st9" width="151" height="36"/>
<text transform="matrix(1 0 0 1 312.8853 38.2554)"><tspan x="0" y="0" class="st10 st11 st12">Instala o hub de geren</tspan><tspan x="140.8" y="0" class="st10 st11 st12">-</tspan><tspan x="0" y="16.8" class="st10 st11 st12">ciamento</tspan></text>
<rect x="198.4" y="365.4" class="st9" width="96" height="47.4"/>
<text transform="matrix(1 0 0 1 198.3853 375.7549)"><tspan x="0" y="0" class="st10 st11 st12">Registra o nó </tspan><tspan x="0" y="16.8" class="st10 st11 st12">no hub de </tspan><tspan x="0" y="33.6" class="st10 st11 st12">gerenciamento</tspan></text>
<rect x="320.9" y="348.4" class="st9" width="108" height="64.2"/>
<text transform="matrix(1 0 0 1 320.8853 358.7549)"><tspan x="0" y="0" class="st10 st11 st12">Obtém </tspan><tspan x="0" y="16.8" class="st10 st11 st12">instruções de </tspan><tspan x="0" y="33.6" class="st10 st11 st12">implementação </tspan><tspan x="0" y="50.4" class="st10 st11 st12">de serviço</tspan></text>
<rect x="504.4" y="432.9" class="st9" width="60" height="30.6"/>
<text transform="matrix(1 0 0 1 512.0836 443.2549)"><tspan x="0" y="0" class="st10 st11 st12">Agente </tspan><tspan x="-5.6" y="16.8" class="st10 st11 st12">de borda</tspan></text>
<rect x="691.9" y="431.4" class="st9" width="70.5" height="30.6"/>
<text transform="matrix(1 0 0 1 694.4664 441.7549)"><tspan x="0" y="0" class="st10 st11 st12">Serviço de </tspan><tspan x="14.3" y="16.8" class="st10 st11 st12">borda</tspan></text>
<rect x="829.9" y="368.9" class="st9" width="123.5" height="13.8"/>
<text transform="matrix(1 0 0 1 829.8853 379.2549)" class="st10 st11 st12">Extrai contêineres</text>
</svg>
