<?xml version="1.0" encoding="utf-8"?>
<!-- Generator: Adobe Illustrator 21.1.0, SVG Export Plug-In . SVG Version: 6.00 Build 0)  -->
<svg version="1.1" id="Layer_1" xmlns="http://www.w3.org/2000/svg" xmlns:xlink="http://www.w3.org/1999/xlink" x="0px" y="0px"
	 viewBox="0 0 968 840.4" style="enable-background:new 0 0 968 840.4;" xml:space="preserve">
<style type="text/css">
	.st0{fill:#408BFC;}
	.st1{fill:#FFFFFF;}
	.st2{fill:#8A3FFC;}
	.st3{fill:none;stroke:#00BAB6;stroke-width:2;stroke-dasharray:7;}
	.st4{fill:#E3F6FF;}
	.st5{fill:#0F62FE;}
	.st6{fill:#009C98;}
	.st7{fill:#BEBEBE;}
	.st8{fill:#051B75;}
	.st9{fill:none;}
	.st10{fill:#161616;}
	.st11{font-family:'IBMPlexSans';}
	.st12{font-size:14px;}
	.st13{enable-background:new    ;}
	.st14{fill:#F4F4F4;}
	.st15{font-family:'IBMPlexSans-Medium';}
	.st16{font-size:16px;}
</style>
<rect id="Rectangle-Copy-14" x="508" y="648.7" class="st0" width="370" height="180"/>
<rect id="Rectangle-Copy-9" x="524" y="731.7" class="st1" width="80" height="81"/>
<rect id="Rectangle-Copy-18_1_" x="777" y="706.7" class="st2" width="85" height="106"/>
<path id="Rectangle-Copy-17" class="st3" d="M533,43.7h357c22.1,0,40,17.9,40,40v222c0,22.1-17.9,40-40,40H533
	c-22.1,0-40-17.9-40-40v-222C493,61.6,510.9,43.7,533,43.7z"/>
<path id="Rectangle-Copy-22" class="st3" d="M69,131.7h237c22.1,0,40,17.9,40,40v94c0,22.1-17.9,40-40,40H69c-22.1,0-40-17.9-40-40
	v-94C29,149.6,46.9,131.7,69,131.7z"/>
<circle id="Oval-Copy-3" class="st4" cx="86" cy="191.7" r="24"/>
<path id="Shape" class="st5" d="M81,194.7c2.8,0,5,2.2,5,5v6h-2v-6c0-1.7-1.3-3-3-3h-4c-1.7,0-3,1.3-3,3v6h-2v-6c0-2.8,2.2-5,5-5H81
	z M79,182.7c2.8,0,5,2.2,5,5s-2.2,5-5,5s-5-2.2-5-5S76.2,182.7,79,182.7z M100,183.7v8h-2v-8H100z M95,180.7v11h-2v-11H95z
	 M90,185.7v6h-2v-6H90z M79,184.7c-1.7,0-3,1.3-3,3s1.3,3,3,3s3-1.3,3-3S80.7,184.7,79,184.7z"/>
<circle id="Oval-Copy-3_1_" class="st4" cx="557" cy="99.7" r="24"/>
<path id="Shape_1_" class="st5" d="M552,102.7c2.8,0,5,2.2,5,5v6h-2v-6c0-1.7-1.3-3-3-3h-4c-1.7,0-3,1.3-3,3v6h-2v-6
	c0-2.8,2.2-5,5-5H552z M550,90.7c2.8,0,5,2.2,5,5s-2.2,5-5,5s-5-2.2-5-5S547.2,90.7,550,90.7z M565.1,89.6l1.8,0.4l-2.4,10.4
	l-1.8-0.4L565.1,89.6z M559.9,91.3l1.4,1.2l-2.1,2.6l2.1,2.6l-1.4,1.2l-3.1-3.7L559.9,91.3z M569.7,91.3l3.1,3.7l-3.1,3.7l-1.4-1.2
	l2.1-2.6l-2.1-2.6L569.7,91.3z M550,92.7c-1.7,0-3,1.3-3,3s1.3,3,3,3s3-1.3,3-3S551.7,92.7,550,92.7z"/>
<rect id="Rectangle-Copy-14_1_" x="568" y="433.7" class="st6" width="260" height="155"/>
<path id="Line-2-Copy-37" class="st7" d="M856.5,313.7V391h-357v75.7H443v6l-14-7l14-7v6h54.5V389h357v-75.3H856.5z"/>
<path id="Line-5-Copy-3" class="st7" d="M856.3,510.2v1l-0.5,123.5h6l-7.1,14l-6.9-14h6l0.4-122.5H828v-2H856.3z"/>
<path id="Line-5-Copy-4" class="st7" d="M554,458.7l14,7l-14,7v-6h-55.5v-2H554V458.7z"/>
<rect id="Rectangle-Copy-18_2_" x="29" y="433.7" class="st8" width="400" height="155"/>
<rect id="Rectangle-Copy-16" x="333" y="490.7" class="st1" width="80" height="81"/>
<rect id="Rectangle-Copy-18_3_" x="701" y="75.7" class="st2" width="104" height="81"/>
<rect id="Rectangle-Copy-18_4_" x="813" y="207.7" class="st2" width="85" height="106"/>
<rect id="Rectangle-Copy-18_5_" x="525" y="207.7" class="st2" width="85" height="106"/>
<path id="Line-2-Copy-20" class="st7" d="M687,108.8l14,6.9l-14,7.1v-6l-92,0.4h-1v-2h1l92-0.4V108.8z"/>
<path id="Line-2-Copy-25" class="st7" d="M215.5,188.7l14,7l-14,7v-6H122v-2h93.5V188.7z"/>
<path id="Line-2-Copy-27" class="st7" d="M511,212.7l14,7l-14,7v-6H314v-2h197V212.7z"/>
<path id="Line-2-Copy-29" class="st7" d="M799,253.7l14,7l-14,7v-6H610v-2h189V253.7z"/>
<rect x="122" y="174.5" class="st9" width="93.5" height="16.3"/>
<text transform="matrix(1 0 0 1 141.5956 190.4161)" class="st10 st11 st12">1. Cria</text>
<rect x="603.9" y="91.3" class="st9" width="74.1" height="14.9"/>
<text transform="matrix(1 0 0 1 617.4433 109.0414)" class="st10 st11 st12">Instala</text>
<rect x="658.4" y="366.4" class="st9" width="170.9" height="14.9"/>
<text transform="matrix(1 0 0 1 631.2478 376.7454)" class="st10 st11 st12">4. Publica serviços</text>
<rect x="333" y="524.4" class="st9" width="80" height="14.9"/>
<text transform="matrix(1 0 0 1 357.4114 534.7437)" class="st10 st11 st12">MMS</text>
<rect x="530" y="756.3" class="st9" width="65.8" height="37.9"/>
<rect x="777" y="748.3" class="st9" width="84.8" height="16.4"/>
<rect x="787.4" y="747.4" class="st9" width="61.6" height="32.1"/>
<text transform="matrix(1 0 0 1 795.081 759.3158)" class="st13"><tspan x="0" y="0" class="st14 st11 st12">Serviço </tspan><tspan x="6.3" y="16.8" class="st14 st11 st12">de IA</tspan></text>
<rect x="701" y="108.3" class="st9" width="104" height="14.9"/>
<text transform="matrix(1 0 0 1 730.3762 118.7262)" class="st14 st11 st12">Docker</text>
<rect x="812.9" y="249.3" class="st9" width="85" height="14.9"/>
<rect x="827.4" y="247.8" class="st9" width="56.6" height="32.1"/>
<text transform="matrix(1 0 0 1 832.5739 259.6724)" class="st13"><tspan x="0" y="0" class="st14 st11 st12">Serviço </tspan><tspan x="6.3" y="16.8" class="st14 st11 st12">de IA</tspan></text>
<rect x="524.8" y="241.8" class="st9" width="85.2" height="34.7"/>
<rect x="45" y="453.8" class="st9" width="236.1" height="15.6"/>
<text transform="matrix(1 0 0 1 45.0002 465.6869)" class="st14 st15 st16">Hub de gerenciamento</text>
<rect x="524" y="668.9" class="st9" width="236.1" height="15.6"/>
<text transform="matrix(1 0 0 1 524.0002 680.7137)" class="st14 st15 st16">Nó de borda</text>
<rect x="62" y="103.9" class="st9" width="236.1" height="15.6"/>
<text transform="matrix(1 0 0 1 61.9919 115.7268)" class="st10 st15 st16">Ambiente de cientista de dados</text>
<rect x="525" y="15.9" class="st9" width="236.1" height="15.6"/>
<text transform="matrix(1 0 0 1 525.0002 27.7109)" class="st10 st15 st16">Ambiente de desenvolvedor</text>
<rect id="Rectangle-Copy-18_6_" x="229" y="165.7" class="st2" width="85" height="120"/>
<rect x="231.1" y="188.4" class="st9" width="80.6" height="74.6"/>
<rect x="604" y="454.8" class="st9" width="162.3" height="15.6"/>
<text transform="matrix(1 0 0 1 603.9996 466.6851)" class="st14 st15 st16">Registro de contêiner</text>
<g>
	<path class="st14" d="M596,454.4h-8c-0.6,0-1,0.4-1,1v11c0,0.6,0.4,1,1,1h8c0.6,0,1-0.4,1-1v-11C597,454.8,596.6,454.4,596,454.4z
		 M596,455.4v3h-8v-3H596z M588,462.4v-3h8v3H588z M588,466.4v-3h8v3H588z"/>
	<circle class="st14" cx="589.5" cy="456.9" r="0.5"/>
	<circle class="st14" cx="589.5" cy="460.9" r="0.5"/>
	<circle class="st14" cx="589.5" cy="464.9" r="0.5"/>
	<rect id="_x3C_Transparent_Rectangle_x3E__616_" x="584" y="452.9" class="st9" width="16" height="16"/>
</g>
<rect x="39.8" y="222" class="st9" width="91.3" height="30.6"/>
<text transform="matrix(1 0 0 1 48.2183 232.3599)"><tspan x="0" y="0" class="st10 st11 st12">Cientista de </tspan><tspan x="18.1" y="16.8" class="st10 st11 st12">dados</tspan></text>
<rect x="234.3" y="188" class="st9" width="71.3" height="64.2"/>
<text transform="matrix(1 0 0 1 238.9692 198.3599)"><tspan x="0" y="0" class="st14 st11 st12">Aplicativo </tspan><tspan x="2.3" y="16.8" class="st14 st11 st12">de IA/ML </tspan><tspan x="4.6" y="33.6" class="st14 st11 st12">com seu </tspan><tspan x="7.3" y="50.4" class="st14 st11 st12">modelo</tspan></text>
<rect x="363.3" y="167.3" class="st9" width="122.3" height="47.4"/>
<text transform="matrix(1 0 0 1 363.3335 177.6942)"><tspan x="0" y="0" class="st10 st11 st12">2. Compartilha o </tspan><tspan x="0" y="16.8" class="st10 st11 st12">aplicativo com o </tspan><tspan x="0" y="33.6" class="st10 st11 st12">desenvolvedor</tspan></text>
<text transform="matrix(1 0 0 1 510 144.3599)"><tspan x="0" y="0" class="st10 st11 st12">Desenvolvedor  </tspan><tspan x="0" y="16.8" class="st10 st11 st12">de software</tspan></text>
<text transform="matrix(1 0 0 1 535.3333 255.0267)"><tspan x="0" y="0" class="st14 st11 st12">Aplicativo  </tspan><tspan x="0" y="16.8" class="st14 st11 st12">de IA/ML</tspan></text>
<rect x="621.7" y="225" class="st9" width="171.7" height="30.6"/>
<text transform="matrix(1 0 0 1 621.6667 235.3579)"><tspan x="0" y="0" class="st10 st11 st12">3. Empacota o aplicativo </tspan><tspan x="0" y="16.8" class="st10 st11 st12">em um serviço</tspan></text>
<rect x="862.3" y="560.4" class="st9" width="77.7" height="30.6"/>
<text transform="matrix(1 0 0 1 862.333 570.7852)"><tspan x="0" y="0" class="st10 st11 st12">5. Extrai </tspan><tspan x="0" y="16.8" class="st10 st11 st12">contêineres</tspan></text>
<rect x="530.3" y="755.9" class="st9" width="64.6" height="30.6"/>
<text transform="matrix(1 0 0 1 530.6995 766.2578)"><tspan x="0" y="0" class="st10 st11 st12">Agente de </tspan><tspan x="13.5" y="16.8" class="st10 st11 st12">borda</tspan></text>
</svg>
