<?xml version="1.0" encoding="utf-8"?>
<!-- Generator: Adobe Illustrator 21.1.0, SVG Export Plug-In . SVG Version: 6.00 Build 0)  -->
<svg version="1.1" id="Layer_1" xmlns="http://www.w3.org/2000/svg" xmlns:xlink="http://www.w3.org/1999/xlink" x="0px" y="0px"
	 viewBox="0 0 947.1 837.5" style="enable-background:new 0 0 947.1 837.5;" xml:space="preserve">
<style type="text/css">
	.st0{fill:none;stroke:#00BAB6;stroke-width:2;stroke-dasharray:7;}
	.st1{fill:#E3F6FF;}
	.st2{fill:#0F62FE;}
	.st3{fill:#009C98;}
	.st4{fill:#DCDCDC;}
	.st5{fill:#408BFC;}
	.st6{fill:#FFFFFF;}
	.st7{fill:#051B75;}
	.st8{fill:#8A3FFC;}
	.st9{fill:#EE538B;}
	.st10{fill:none;}
	.st11{fill:#161616;}
	.st12{font-family:'IBMPlexSans';}
	.st13{font-size:14px;}
	.st14{enable-background:new    ;}
	.st15{fill:#F4F4F4;}
	.st16{font-family:'IBMPlexSans-Medium';}
	.st17{font-size:16px;}
</style>
<path id="Rectangle-Copy-19" class="st0" d="M527,42.2h357c22.1,0,40,17.9,40,40v222c0,22.1-17.9,40-40,40H527
	c-22.1,0-40-17.9-40-40v-222C487,60.1,504.9,42.2,527,42.2z"/>
<path id="Rectangle-Copy-23" class="st0" d="M63,130.2h237c22.1,0,40,17.9,40,40v94c0,22.1-17.9,40-40,40H63c-22.1,0-40-17.9-40-40
	v-94C23,148.1,40.9,130.2,63,130.2z"/>
<circle id="Oval-Copy-3" class="st1" cx="80" cy="190.2" r="24"/>
<path id="Shape" class="st2" d="M75,193.2c2.8,0,5,2.2,5,5v6h-2v-6c0-1.7-1.3-3-3-3h-4c-1.7,0-3,1.3-3,3v6h-2v-6c0-2.8,2.2-5,5-5H75
	z M73,181.2c2.8,0,5,2.2,5,5s-2.2,5-5,5c-2.8,0-5-2.2-5-5S70.2,181.2,73,181.2z M94,182.2v8h-2v-8H94z M89,179.2v11h-2v-11H89z
	 M84,184.2v6h-2v-6H84z M73,183.2c-1.7,0-3,1.3-3,3s1.3,3,3,3c1.7,0,3-1.3,3-3S74.7,183.2,73,183.2z"/>
<circle id="Oval-Copy-3_1_" class="st1" cx="551" cy="98.2" r="24"/>
<path id="Shape_1_" class="st2" d="M546,101.2c2.8,0,5,2.2,5,5v6h-2v-6c0-1.7-1.3-3-3-3h-4c-1.7,0-3,1.3-3,3v6h-2v-6
	c0-2.8,2.2-5,5-5H546z M544,89.2c2.8,0,5,2.2,5,5s-2.2,5-5,5s-5-2.2-5-5S541.2,89.2,544,89.2z M559.1,88.1l1.8,0.4l-2.4,10.4
	l-1.8-0.4L559.1,88.1z M553.9,89.8l1.4,1.2l-2.1,2.6l2.1,2.6l-1.4,1.2l-3.1-3.7L553.9,89.8z M563.7,89.8l3.1,3.7l-3.1,3.7l-1.4-1.2
	l2.1-2.6l-2.1-2.6L563.7,89.8z M544,91.2c-1.7,0-3,1.3-3,3s1.3,3,3,3s3-1.3,3-3S545.7,91.2,544,91.2z"/>
<rect id="Rectangle-Copy-14" x="562" y="432.2" class="st3" width="260" height="155"/>
<path id="Line-5-Copy-5" class="st4" d="M850.3,508.7v1l-0.5,123.5h6l-7.1,14l-6.9-14h6l0.4-122.5H822v-2H850.3z"/>
<rect id="Rectangle-Copy-14_1_" x="502" y="647.2" class="st5" width="370" height="180"/>
<rect id="Rectangle-Copy-9" x="518" y="730.2" class="st6" width="80" height="81"/>
<rect id="Rectangle-Copy-24" x="23" y="432.2" class="st7" width="400" height="155"/>
<rect id="Rectangle-Copy-16" x="327" y="489.2" class="st6" width="80" height="81"/>
<rect id="Rectangle-Copy-18" x="695" y="74.2" class="st8" width="104" height="81"/>
<rect id="Rectangle-Copy-18_1_" x="807" y="206.2" class="st8" width="85" height="106"/>
<rect id="Rectangle-Copy-18_2_" x="771" y="705.2" class="st8" width="85" height="106"/>
<rect id="Rectangle-Copy-18_4_" x="519" y="206.2" class="st8" width="85" height="106"/>
<path id="Line-2-Copy-21" class="st4" d="M681,107.3l14,6.9l-14,7.1v-6l-92,0.4h-1v-2h1l92-0.4V107.3z"/>
<path id="Line-2-Copy-30" class="st9" d="M757,764.2l14,7l-14,7v-6H598v-2h159V764.2z"/>
<path id="Line-2-Copy-31" class="st4" d="M209.5,187.2l14,7l-14,7v-6H116v-2h93.5V187.2z"/>
<path id="Line-2-Copy-32" class="st9" d="M209.5,246.2l14,7l-14,7v-6H116v-2h93.5V246.2z"/>
<path id="Line-2-Copy-33" class="st4" d="M505,211.2l14,7l-14,7v-6H308v-2h197V211.2z"/>
<path id="Line-2-Copy-34" class="st4" d="M850.5,312.2v77.3h-357v75.7H437v6l-14-7l14-7v6h54.5v-75.6h357v-75.4H850.5z"/>
<path id="Line-2-Copy-35" class="st4" d="M793,252.2l14,7l-14,7v-6H604v-2h189V252.2z"/>
<path id="Line-4-Copy-3" class="st9" d="M368,252.2v223h6l-7,14l-7-14h6v-221h-58v-2H368z"/>
<path id="Path-3-Copy" class="st9" d="M368,570.2v200h135v-6l14,7l-14,7v-6H366v-202H368z"/>
<path id="Line-5" class="st4" d="M548,457.2l14,7l-14,7v-6h-55.5v-2H548V457.2z"/>
<rect x="619.3" y="726.8" class="st10" width="114.1" height="39.6"/>
<rect x="327" y="523" class="st10" width="80" height="14.9"/>
<text transform="matrix(1 0 0 1 351.4482 533.3879)" class="st11 st12 st13">MMS</text>
<rect x="524" y="754.9" class="st10" width="65.8" height="37.9"/>
<rect x="771" y="746.9" class="st10" width="84.8" height="16.4"/>
<rect x="785.4" y="744.2" class="st10" width="57.6" height="32.1"/>
<text transform="matrix(1 0 0 1 791.1177 756.1065)" class="st14"><tspan x="0" y="0" class="st15 st12 st13">Serviço </tspan><tspan x="6.3" y="16.8" class="st15 st12 st13">de IA</tspan></text>
<rect x="695" y="107" class="st10" width="104" height="14.9"/>
<text transform="matrix(1 0 0 1 724.413 117.3704)" class="st15 st12 st13">Docker</text>
<rect x="806.9" y="247.9" class="st10" width="85" height="14.9"/>
<rect x="819.4" y="243.8" class="st10" width="60" height="32.1"/>
<text transform="matrix(1 0 0 1 826.2771 255.65)" class="st14"><tspan x="0" y="0" class="st15 st12 st13">Serviço </tspan><tspan x="6.3" y="16.8" class="st15 st12 st13">de IA</tspan></text>
<rect x="518.8" y="240.4" class="st10" width="85.2" height="34.7"/>
<rect x="39" y="452.5" class="st10" width="236.1" height="15.6"/>
<text transform="matrix(1 0 0 1 39.0369 464.3312)" class="st15 st16 st17">Hub de gerenciamento</text>
<rect x="518" y="667.5" class="st10" width="236.1" height="15.6"/>
<text transform="matrix(1 0 0 1 518.037 679.358)" class="st15 st16 st17">Nó de borda</text>
<rect x="56" y="102.5" class="st10" width="236.1" height="15.6"/>
<text transform="matrix(1 0 0 1 56.0286 114.371)" class="st11 st16 st17">Ambiente de cientista de dados</text>
<rect x="519" y="14.5" class="st10" width="236.1" height="15.6"/>
<text transform="matrix(1 0 0 1 519.037 26.3552)" class="st11 st16 st17">Ambiente de desenvolvedor</text>
<rect id="Rectangle-Copy-18_6_" x="223" y="164.2" class="st8" width="85" height="120"/>
<rect x="225.1" y="186.9" class="st10" width="80.6" height="74.6"/>
<rect x="597.7" y="450.4" class="st10" width="162.3" height="15.6"/>
<text transform="matrix(1 0 0 1 597.7435 462.2567)" class="st15 st16 st17">Registro de contêiner</text>
<g>
	<path class="st15" d="M589.7,450h-8c-0.6,0-1,0.4-1,1v11c0,0.6,0.4,1,1,1h8c0.6,0,1-0.4,1-1v-11C590.7,450.4,590.3,450,589.7,450z
		 M589.7,451v3h-8v-3H589.7z M581.7,458v-3h8v3H581.7z M581.7,462v-3h8v3H581.7z"/>
	<circle class="st15" cx="583.2" cy="452.4" r="0.5"/>
	<circle class="st15" cx="583.2" cy="456.4" r="0.5"/>
	<circle class="st15" cx="583.2" cy="460.4" r="0.5"/>
	<rect id="_x3C_Transparent_Rectangle_x3E__616_" x="577.7" y="448.4" class="st10" width="16" height="16"/>
</g>
<rect x="36.5" y="226.7" class="st10" width="71.5" height="30.6"/>
<text transform="matrix(1 0 0 1 36.5367 237.0455)"><tspan x="0" y="0" class="st11 st12 st13">Cientista </tspan><tspan x="0" y="16.8" class="st11 st12 st13">de dados</tspan></text>
<rect x="117.5" y="211.7" class="st10" width="88" height="30.6"/>
<text transform="matrix(1 0 0 1 117.5368 222.0455)"><tspan x="0" y="0" class="st11 st12 st13">6. Faz </tspan><tspan x="0" y="16.8" class="st11 st12 st13">atualizações</tspan></text>
<rect x="230.9" y="193.7" class="st10" width="69" height="64.2"/>
<text transform="matrix(1 0 0 1 234.3393 204.0455)"><tspan x="0" y="0" class="st15 st12 st13">Aplicativo </tspan><tspan x="2.3" y="16.8" class="st15 st12 st13">de IA/ML </tspan><tspan x="4.6" y="33.6" class="st15 st12 st13">com seu </tspan><tspan x="7.3" y="50.4" class="st15 st12 st13">modelo</tspan></text>
<text transform="matrix(1 0 0 1 374.5367 336.8788)"><tspan x="0" y="0" class="st11 st12 st13">7. Envia  </tspan><tspan x="0" y="16.8" class="st11 st12 st13">atualizações  </tspan><tspan x="0" y="33.6" class="st11 st12 st13">de modelo  </tspan><tspan x="0" y="50.4" class="st11 st12 st13">usando MMS</tspan></text>
<rect x="497" y="127.5" class="st10" width="107.5" height="30.6"/>
<text transform="matrix(1 0 0 1 503.9156 137.8788)"><tspan x="0" y="0" class="st11 st12 st13">Desenvolvedor </tspan><tspan x="9.7" y="16.8" class="st11 st12 st13">de software</tspan></text>
<rect x="528.5" y="243" class="st10" width="64.5" height="30.6"/>
<text transform="matrix(1 0 0 1 529.7565 253.3788)"><tspan x="0" y="0" class="st15 st12 st13">Aplicativo </tspan><tspan x="2.3" y="16.8" class="st15 st12 st13">de IA/ML</tspan></text>
<rect x="377.7" y="672.5" class="st10" width="85.3" height="47.4"/>
<text transform="matrix(1 0 0 1 377.7032 682.8784)"><tspan x="0" y="0" class="st11 st12 st13">8. Extrai </tspan><tspan x="0" y="16.8" class="st11 st12 st13">atualizações </tspan><tspan x="0" y="33.6" class="st11 st12 st13">de modelo</tspan></text>
<text transform="matrix(1 0 0 1 619.0367 744.5463)"><tspan x="0" y="0" class="st15 st12 st13">9. Extrai modelo  </tspan><tspan x="0" y="16.8" class="st15 st12 st13">usando API do ESS</tspan></text>
<rect x="521.7" y="756.5" class="st10" width="70.7" height="30.6"/>
<text transform="matrix(1 0 0 1 525.1803 766.8784)"><tspan x="0" y="0" class="st11 st12 st13">Agente de </tspan><tspan x="13.5" y="16.8" class="st11 st12 st13">borda</tspan></text>
</svg>
