<?xml version="1.0" encoding="utf-8"?>
<!-- Generator: Adobe Illustrator 21.1.0, SVG Export Plug-In . SVG Version: 6.00 Build 0)  -->
<svg version="1.1" id="Layer_1" xmlns="http://www.w3.org/2000/svg" xmlns:xlink="http://www.w3.org/1999/xlink" x="0px" y="0px"
	 viewBox="0 0 1060.8 563.2" style="enable-background:new 0 0 1060.8 563.2;" xml:space="preserve">
<style type="text/css">
	.st0{fill:#BEBEBE;}
	.st1{fill:#E3F6FF;}
	.st2{fill:#0F62FE;}
	.st3{fill:#009C98;}
	.st4{fill:#408BFC;}
	.st5{fill:#F4F4F4;}
	.st6{fill:#FFFFFF;}
	.st7{fill:#DCDCDC;}
	.st8{fill:none;stroke:#BEBEBE;stroke-width:2;}
	.st9{fill:#051B75;}
	.st10{fill:none;}
	.st11{fill:#161616;}
	.st12{font-family:'IBMPlexSans';}
	.st13{font-size:14px;}
	.st14{font-family:'IBMPlexSans-Medium';}
	.st15{font-size:16px;}
	.st16{enable-background:new    ;}
	.st17{font-size:12px;}
</style>
<path id="Line-4" class="st0" d="M45.9,84.4v256.2h362.5v-147h-6l7-14l7,14h-6v149H43.9V84.4H45.9z"/>
<path id="Line-4-Copy-2" class="st0" d="M851.9,84.4v59.8h-44.5v6l-14-7l14-7v6h42.5V84.4H851.9z"/>
<circle id="Oval-Copy-3" class="st1" cx="851.4" cy="49.6" r="24"/>
<path id="Shape" class="st2" d="M846.4,52.6c2.8,0,5,2.2,5,5v6h-2v-6c0-1.7-1.3-3-3-3h-4c-1.7,0-3,1.3-3,3v6h-2v-6c0-2.8,2.2-5,5-5
	H846.4z M844.4,40.6c2.8,0,5,2.2,5,5s-2.2,5-5,5s-5-2.2-5-5S841.6,40.6,844.4,40.6z M863,40.6l1.4,1.4l-7.1,7.1l-3.9-3.9l1.4-1.4
	l2.5,2.5L863,40.6z M844.4,42.6c-1.7,0-3,1.3-3,3s1.3,3,3,3s3-1.3,3-3S846.1,42.6,844.4,42.6z"/>
<circle id="Oval-Copy-3_1_" class="st1" cx="44.4" cy="49.6" r="24"/>
<path id="Shape_1_" class="st2" d="M39.4,52.6c2.8,0,5,2.2,5,5v6h-2v-6c0-1.7-1.3-3-3-3h-4c-1.7,0-3,1.3-3,3v6h-2v-6
	c0-2.8,2.2-5,5-5H39.4z M37.4,40.6c2.8,0,5,2.2,5,5s-2.2,5-5,5s-5-2.2-5-5S34.6,40.6,37.4,40.6z M52.5,39.5l1.8,0.4l-2.4,10.4
	l-1.8-0.4L52.5,39.5z M47.3,41.2l1.4,1.2L46.6,45l2.1,2.6l-1.4,1l-3.1-3.7L47.3,41.2z M57.1,41.2l3.1,3.7l-3.1,3.7l-1.4-1.2l2.1-2.6
	l-2.1-2.6L57.1,41.2z M37.4,42.6c-1.7,0-3,1.3-3,3s1.3,3,3,3c1.7,0,3-1.3,3-3S39.1,42.6,37.4,42.6z"/>
<rect id="Rectangle-Copy-14" x="171.4" y="366.6" class="st3" width="250" height="172"/>
<rect id="Rectangle-Copy-14_1_" x="604.4" y="366.6" class="st4" width="318" height="156"/>
<path id="Shape_2_" class="st5" d="M629.4,387.6c0.6,0,1,0.4,1,1c0,0.5-0.4,0.9-0.8,1l-0.4,1h3.3c1.1,0,2,0.9,2,2v5c0,1.1-0.9,2-2,2
	h-8c-1.1,0-2-0.9-2-2v-5c0-1.1,0.9-2,2-2h3.7l0.6-1.4c-0.1-0.1-0.2-0.3-0.2-0.5v-0.1C628.4,388,628.8,387.6,629.4,387.6z
	 M632.4,391.6h-8c-0.5,0-0.9,0.4-1,0.9v0.1v5c0,0.5,0.4,0.9,0.9,1h0.1h8c0.5,0,0.9-0.4,1-0.9v-0.1v-5
	C633.4,392.1,633,391.7,632.4,391.6L632.4,391.6z M630.9,396.6c0.3,0,0.5,0.2,0.5,0.5s-0.2,0.5-0.5,0.5h-5c-0.3,0-0.5-0.2-0.5-0.5
	s0.2-0.5,0.5-0.5H630.9z M625.9,392.6c0.8,0,1.5,0.7,1.5,1.5s-0.7,1.5-1.5,1.5s-1.5-0.7-1.5-1.5S625.1,392.6,625.9,392.6z
	 M630.9,392.6c0.8,0,1.5,0.7,1.5,1.5s-0.7,1.5-1.5,1.5s-1.5-0.7-1.5-1.5S630.1,392.6,630.9,392.6z M625.9,393.6
	c-0.3,0-0.5,0.2-0.5,0.5s0.2,0.5,0.5,0.5s0.5-0.2,0.5-0.5S626.2,393.6,625.9,393.6z M630.9,393.6c-0.3,0-0.5,0.2-0.5,0.5
	s0.2,0.5,0.5,0.5s0.5-0.2,0.5-0.5S631.2,393.6,630.9,393.6z"/>
<rect id="Rectangle-Copy-16" x="620.4" y="425.6" class="st6" width="80" height="81"/>
<rect id="Rectangle-Copy-16_1_" x="826.4" y="425.6" class="st6" width="80" height="81"/>
<path id="Line-2-Copy-24" class="st0" d="M812.4,458.6l14,7l-14,7v-6h-112v-2h112V458.6z"/>
<circle id="Oval-Copy-3_2_" class="st7" cx="44.4" cy="110.6" r="13"/>
<circle id="Oval-Copy-3_3_" class="st7" cx="44.4" cy="182.6" r="13"/>
<circle id="Oval-Copy-3_4_" class="st7" cx="44.4" cy="270.6" r="13"/>
<circle id="Oval-Copy-3_5_" class="st1" cx="757.4" cy="256.6" r="24"/>
<path id="Shape_3_" class="st2" d="M752.4,259.6c2.8,0,5,2.2,5,5v6h-2v-6c0-1.7-1.3-3-3-3h-4c-1.7,0-3,1.3-3,3v6h-2v-6
	c0-2.8,2.2-5,5-5H752.4z M750.4,247.6c2.8,0,5,2.2,5,5s-2.2,5-5,5s-5-2.2-5-5S747.6,247.6,750.4,247.6z M763.4,255.6v2h-2v-2H763.4z
	 M768.4,255.6v2h-2v-2H768.4z M750.4,249.6c-1.7,0-3,1.3-3,3s1.3,3,3,3s3-1.3,3-3S752.1,249.6,750.4,249.6z M771.4,252.6v2h-2v-2
	H771.4z M760.4,252.6v2h-2v-2H760.4z M768.4,247.6v7h-7v-7H768.4z M766.4,249.6h-3v3h3V249.6z M771.4,247.6v2h-2v-2H771.4z
	 M760.4,247.6v2h-2v-2H760.4z M763.4,244.6v2h-2v-2H763.4z M768.4,244.6v2h-2v-2H768.4z"/>
<path id="Line-8" class="st0" d="M45.9,340.1v104h111.5v-6l14,7l-14,7v-6H43.9v-106H45.9z"/>
<path id="Path-8" class="st0" d="M606.4,472.6l14,7l-14,7v-6h-185v-2h185V472.6z"/>
<path id="Path-7" class="st0" d="M586.4,179.6v270.5h20v-6l14,7l-14,7v-6h-22V179.6H586.4z"/>
<path id="Path-9" class="st0" d="M756.4,179.6l7.1,14h-6l0.2,28.4h-2l-0.2-28.4h-6L756.4,179.6z"/>
<line id="Path-9-Copy" class="st8" x1="756.7" y1="366.6" x2="756.7" y2="290.6"/>
<rect id="Rectangle-Copy-50" x="394.4" y="24.6" class="st9" width="400" height="155"/>
<rect id="Rectangle-Copy-16_2_" x="698.4" y="81.6" class="st6" width="80" height="81"/>
<rect id="Rectangle-Copy-16_3_" x="602.4" y="81.6" class="st6" width="80" height="81"/>
<rect id="Rectangle-Copy-16_4_" x="506.4" y="81.6" class="st6" width="80" height="81"/>
<rect id="Rectangle-Copy-16_5_" x="410.4" y="81.6" class="st6" width="80" height="81"/>
<rect x="34.3" y="104.2" class="st10" width="20" height="12.2"/>
<text transform="matrix(1 0 0 1 39.8186 114.6167)" class="st11 st12 st13">A</text>
<rect x="34.3" y="176.2" class="st10" width="20" height="13.4"/>
<text transform="matrix(1 0 0 1 39.7346 186.6215)" class="st11 st12 st13">B</text>
<rect x="35.6" y="264.3" class="st10" width="17.5" height="13.4"/>
<text transform="matrix(1 0 0 1 39.9587 274.6308)" class="st11 st12 st13">C</text>
<rect x="421.8" y="455.2" class="st10" width="163" height="21"/>
<text transform="matrix(1 0 0 1 441.8605 468.9461)" class="st11 st12 st13">6. Extrai contêineres</text>
<rect x="793.4" y="250.2" class="st10" width="100" height="15.4"/>
<text transform="matrix(1 0 0 1 793.4059 260.6021)" class="st11 st12 st13">Proprietário do nó</text>
<rect x="883.4" y="43.2" class="st10" width="100" height="15.4"/>
<text transform="matrix(1 0 0 1 883.413 53.614)" class="st11 st12 st13">Administrador</text>
<rect x="410.4" y="44.8" class="st10" width="236.1" height="15.6"/>
<text transform="matrix(1 0 0 1 410.3833 56.6484)" class="st5 st14 st15">Hub de gerenciamento</text>
<rect x="642.4" y="386.8" class="st10" width="236.1" height="15.6"/>
<text transform="matrix(1 0 0 1 642.3832 398.669)" class="st5 st14 st15">Nó de borda</text>
<rect x="698.3" y="115.2" class="st10" width="80" height="14.9"/>
<text transform="matrix(1 0 0 1 722.7032 125.5912)" class="st11 st12 st13">MMS</text>
<rect x="826.4" y="450.3" class="st10" width="80" height="35.7"/>
<rect x="700.7" y="441.2" class="st10" width="111.2" height="13.7"/>
<text transform="matrix(1 0 0 1 726.8928 452.9528)" class="st5 st12 st13">7. Executa</text>
<rect x="602.3" y="105.5" class="st10" width="80" height="36.4"/>
<rect x="506.3" y="115.2" class="st10" width="80" height="14.9"/>
<text transform="matrix(1 0 0 1 515.3737 125.5912)" class="st11 st12 st13">Exchange</text>
<rect x="410.3" y="115.2" class="st10" width="80" height="14.9"/>
<rect x="418" y="105.7" class="st10" width="63" height="32.1"/>
<text transform="matrix(1 0 0 1 423.6059 117.5912)" class="st16"><tspan x="0" y="0" class="st11 st12 st13">Robô de </tspan><tspan x="-0.6" y="16.8" class="st11 st12 st13">contrato</tspan></text>
<rect x="65.4" y="104.2" class="st10" width="203" height="15.7"/>
<text transform="matrix(1 0 0 1 65.3831 114.6172)" class="st11 st12 st13">Cria credenciais de desenvolvedor</text>
<rect x="83.4" y="43.2" class="st10" width="172.6" height="15.7"/>
<text transform="matrix(1 0 0 1 83.392 53.6019)" class="st11 st12 st13">Desenvolvedor de software</text>
<rect x="65.4" y="176.2" class="st10" width="203" height="15.7"/>
<text transform="matrix(1 0 0 1 65.3831 186.5963)" class="st11 st12 st13">Desenvolve seu serviço de borda</text>
<rect x="65.4" y="264.2" class="st10" width="293.1" height="15.7"/>
<text transform="matrix(1 0 0 1 65.3831 274.6191)" class="st11 st12 st13">Assina e publica no hub de gerenciamento</text>
<rect x="207.4" y="384.5" class="st10" width="162.3" height="15.6"/>
<text transform="matrix(1 0 0 1 207.3828 396.3472)" class="st5 st14 st15">Registro de contêiner</text>
<g>
	<path class="st5" d="M199.4,384.1h-8c-0.6,0-1,0.4-1,1v11c0,0.6,0.4,1,1,1h8c0.6,0,1-0.4,1-1v-11
		C200.4,384.5,200,384.1,199.4,384.1z M199.4,385.1v3h-8v-3H199.4z M191.4,392.1v-3h8v3H191.4z M191.4,396.1v-3h8v3H191.4z"/>
	<circle class="st5" cx="192.9" cy="386.6" r="0.5"/>
	<circle class="st5" cx="192.9" cy="390.6" r="0.5"/>
	<circle class="st5" cx="192.9" cy="394.6" r="0.5"/>
	<rect id="_x3C_Transparent_Rectangle_x3E__616_" x="187.4" y="382.6" class="st10" width="16" height="16"/>
</g>
<rect x="68.9" y="123.4" class="st10" width="308.8" height="42.5"/>
<text transform="matrix(1 0 0 1 68.8831 132.2753)"><tspan x="0" y="0" class="st11 st12 st17">• Cria conta de usuário</tspan><tspan x="0" y="14.4" class="st11 st12 st17">• Cria par de chaves de assinatura (utilizado na etapa C)</tspan></text>
<rect x="68.9" y="195.4" class="st10" width="253.5" height="40.6"/>
<text transform="matrix(1 0 0 1 68.8831 204.2753)"><tspan x="0" y="0" class="st11 st12 st17">• Converte o aplicativo para Docker</tspan><tspan x="0" y="14.4" class="st11 st12 st17">• Testa e simula ambiente de produção</tspan><tspan x="0" y="28.8" class="st11 st12 st17">• Cria arquivos de metadados do Open Horizon</tspan></text>
<rect x="69.9" y="283.9" class="st10" width="255" height="26.2"/>
<text transform="matrix(1 0 0 1 69.8831 292.7753)"><tspan x="0" y="0" class="st11 st12 st17">• Envia, assina e publica contêineres</tspan><tspan x="0" y="14.4" class="st11 st12 st17">• Inclui restrições de política de serviços</tspan></text>
<rect x="52.9" y="369.4" class="st10" width="103.5" height="30.6"/>
<text transform="matrix(1 0 0 1 52.8831 379.7548)"><tspan x="0" y="0" class="st11 st12 st13">1. Envia </tspan><tspan x="0" y="16.8" class="st11 st12 st13">contêineres</tspan></text>
<rect x="422.4" y="244.4" class="st10" width="144" height="47.4"/>
<text transform="matrix(1 0 0 1 422.3831 254.7553)"><tspan x="0" y="0" class="st11 st12 st13">2. Publica metadados </tspan><tspan x="0" y="16.8" class="st11 st12 st13">de serviço no hub de </tspan><tspan x="0" y="33.6" class="st11 st12 st13">gerenciamento</tspan></text>
<text transform="matrix(0.894 0 0 1 605.3518 117.4218)"><tspan x="0" y="0" class="st11 st12 st13">Gerenciador  </tspan><tspan x="2" y="16.8" class="st11 st12 st13">de segredos</tspan></text>
<rect x="602.9" y="241.9" class="st10" width="94.2" height="30.6"/>
<text transform="matrix(1 0 0 1 602.8831 252.2553)"><tspan x="0" y="0" class="st11 st12 st13">5. Implementa </tspan><tspan x="0" y="16.8" class="st11 st12 st13">o serviço</tspan></text>
<rect x="874.9" y="78.4" class="st10" width="162.8" height="64.2"/>
<text transform="matrix(1 0 0 1 874.8831 88.7553)"><tspan x="0" y="0" class="st11 st12 st13">3. Criar padrão ou política </tspan><tspan x="0" y="16.8" class="st11 st12 st13">para implementar o </tspan><tspan x="0" y="33.6" class="st11 st12 st13">serviço para corrigir nós </tspan><tspan x="0" y="50.4" class="st11 st12 st13">de borda</tspan></text>
<rect x="771.9" y="307.1" class="st10" width="160" height="30.6"/>
<text transform="matrix(1 0 0 1 771.8831 317.4215)"><tspan x="0" y="0" class="st11 st12 st13">4. Registra com um </tspan><tspan x="0" y="16.8" class="st11 st12 st13">padrão ou política de nó</tspan></text>
<rect x="627.7" y="451.2" class="st10" width="65" height="30.6"/>
<text transform="matrix(1 0 0 1 628.36 461.5882)"><tspan x="0" y="0" class="st11 st12 st13">Agente de </tspan><tspan x="13.5" y="16.8" class="st11 st12 st13">borda</tspan></text>
<rect x="834.9" y="450.6" class="st10" width="60.2" height="30.6"/>
<text transform="matrix(1 0 0 1 841.8528 460.9215)"><tspan x="0" y="0" class="st11 st12 st13">Serviço </tspan><tspan x="-4.8" y="16.8" class="st11 st12 st13">de borda</tspan></text>
</svg>
