<?xml version="1.0" encoding="utf-8"?>
<!-- Generator: Adobe Illustrator 21.1.0, SVG Export Plug-In . SVG Version: 6.00 Build 0)  -->
<svg version="1.1" id="Layer_1" xmlns="http://www.w3.org/2000/svg" xmlns:xlink="http://www.w3.org/1999/xlink" x="0px" y="0px"
	 viewBox="0 0 934.8 641.2" style="enable-background:new 0 0 934.8 641.2;" xml:space="preserve">
<style type="text/css">
	.st0{fill:#4589FF;}
	.st1{fill:#F4F4F4;}
	.st2{fill:#BEBEBE;}
	.st3{fill:#E3F6FF;}
	.st4{fill:#0F62FE;}
	.st5{fill:#009D9A;}
	.st6{fill:#FFFFFF;}
	.st7{fill:#DCDCDC;}
	.st8{fill:none;stroke:#BEBEBE;stroke-width:2;}
	.st9{fill:#001D6C;}
	.st10{fill:none;}
	.st11{fill:#161616;}
	.st12{font-family:'IBMPlexSans';}
	.st13{font-size:14px;}
	.st14{font-family:'IBMPlexSans-Medium';}
	.st15{font-size:16px;}
	.st16{enable-background:new    ;}
	.st17{fill:none;stroke:#BEBEBE;stroke-width:2;stroke-miterlimit:10;}
	.st18{font-size:12px;}
</style>
<rect id="Rectangle-Copy-52" x="600.4" y="357.1" class="st0" width="318" height="269"/>
<path id="Shape" class="st1" d="M624.4,380.6c0.8,0,1.5-0.7,1.5-1.5s-0.7-1.5-1.5-1.5s-1.5,0.7-1.5,1.5S623.6,380.6,624.4,380.6z
	 M624.4,378.6c0.3,0,0.5,0.2,0.5,0.5s-0.2,0.5-0.5,0.5s-0.5-0.2-0.5-0.5S624.1,378.6,624.4,378.6z M629.2,383c0.8,0,1.5-0.7,1.5-1.5
	s-0.7-1.5-1.5-1.5s-1.5,0.7-1.5,1.5S628.4,383,629.2,383z M629.2,381c0.3,0,0.5,0.2,0.5,0.5s-0.2,0.5-0.5,0.5s-0.5-0.2-0.5-0.5
	S628.9,381,629.2,381L629.2,381z M618.6,385.2c-0.8,0-1.5,0.7-1.5,1.5s0.7,1.5,1.5,1.5s1.5-0.7,1.5-1.5S619.5,385.2,618.6,385.2z
	 M618.6,387.2c-0.3,0-0.5-0.2-0.5-0.5s0.2-0.5,0.5-0.5s0.5,0.2,0.5,0.5S618.9,387.2,618.6,387.2z M619.6,383c0.8,0,1.5-0.7,1.5-1.5
	s-0.7-1.5-1.5-1.5s-1.5,0.7-1.5,1.5C618.1,382.3,618.8,383,619.6,383L619.6,383z M619.6,381c0.3,0,0.5,0.2,0.5,0.5s-0.2,0.5-0.5,0.5
	s-0.5-0.2-0.5-0.5S619.3,381,619.6,381L619.6,381z M630.2,385.2c-0.8,0-1.5,0.7-1.5,1.5s0.7,1.5,1.5,1.5s1.5-0.7,1.5-1.5
	S631,385.2,630.2,385.2z M630.2,387.2c-0.3,0-0.5-0.2-0.5-0.5s0.2-0.5,0.5-0.5s0.5,0.2,0.5,0.5S630.4,387.2,630.2,387.2z
	 M626.8,389.1c-0.8,0-1.5,0.7-1.5,1.5s0.7,1.5,1.5,1.5s1.5-0.7,1.5-1.5S627.7,389.1,626.8,389.1L626.8,389.1z M626.8,391.1
	c-0.3,0-0.5-0.2-0.5-0.5s0.2-0.5,0.5-0.5s0.5,0.2,0.5,0.5c0,0.1-0.1,0.3-0.1,0.4C627.1,391,627,391.1,626.8,391.1z M622,389.1
	c-0.8,0-1.5,0.7-1.5,1.5s0.7,1.5,1.5,1.5s1.5-0.7,1.5-1.5S622.8,389.1,622,389.1L622,389.1z M622,391.1c-0.3,0-0.5-0.2-0.5-0.5
	s0.2-0.5,0.5-0.5s0.5,0.2,0.5,0.5S622.2,391.1,622,391.1z M627.4,385.1c0-1.7-1.3-3-3-3s-3,1.3-3,3s1.3,3,3,3
	S627.4,386.8,627.4,385.1z M624.4,387.1c-1.1,0-2-0.9-2-2s0.9-2,2-2s2,0.9,2,2c0,0.5-0.2,1-0.6,1.4
	C625.4,386.9,624.9,387.1,624.4,387.1z"/>
<path id="Line-4" class="st2" d="M41.9,74.9v256.2h362.5v-147h-6l7-14l7,14h-6v149H39.9V74.9H41.9z"/>
<circle id="Oval-Copy-3" class="st3" cx="676.4" cy="40.1" r="24"/>
<path id="Shape_1_" class="st4" d="M671.4,43.1c2.8,0,5,2.2,5,5v6h-2v-6c0-1.7-1.3-3-3-3h-4c-1.7,0-3,1.3-3,3v6h-2v-6
	c0-2.8,2.2-5,5-5H671.4z M669.4,31.1c2.8,0,5,2.2,5,5s-2.2,5-5,5s-5-2.2-5-5S666.6,31.1,669.4,31.1z M688,31.1l1.4,1.4l-7.1,7.1
	l-3.9-3.9l1.4-1.4l2.5,2.5L688,31.1z M669.4,33.1c-1.7,0-3,1.3-3,3s1.3,3,3,3s3-1.3,3-3S671.1,33.1,669.4,33.1z"/>
<circle id="Oval-Copy-3_1_" class="st3" cx="40.4" cy="40.1" r="24"/>
<path id="Shape_2_" class="st4" d="M35.4,43.1c2.8,0,5,2.2,5,5v6h-2v-6c0-1.7-1.3-3-3-3h-4c-1.7,0-3,1.3-3,3v6h-2v-6
	c0-2.8,2.2-5,5-5H35.4z M33.4,31.1c2.8,0,5,2.2,5,5s-2.2,5-5,5s-5-2.2-5-5S30.6,31.1,33.4,31.1z M48.5,30l1.8,0.4l-2.4,10.4
	l-1.8-0.4L48.5,30z M43.3,31.7l1.4,1.2l-2.1,2.6l2.1,2.6l-1.4,1l-3.1-3.7L43.3,31.7z M53.1,31.7l3.1,3.7l-3.1,3.7l-1.4-1.2l2.1-2.6
	l-2.1-2.6L53.1,31.7z M33.4,33.1c-1.7,0-3,1.3-3,3s1.3,3,3,3c1.7,0,3-1.3,3-3S35.1,33.1,33.4,33.1z"/>
<rect id="Rectangle-Copy-14" x="167.4" y="357.1" class="st5" width="250" height="172"/>
<rect id="Rectangle-Copy-16" x="616.4" y="416.1" class="st6" width="80" height="81"/>
<rect id="Rectangle-Copy-16_1_" x="822.4" y="416.1" class="st6" width="80" height="121"/>
<rect id="Rectangle-Copy-16_2_" x="616.4" y="529.1" class="st6" width="80" height="81"/>
<path id="Line-2-Copy-24" class="st2" d="M808.4,449.1l14,7l-14,7v-6h-112v-2h112V449.1z"/>
<path id="Line-2-Copy-26" class="st2" d="M863.4,537.1v35.6h-153v6l-14-7l14-7v6h151v-33.6H863.4z"/>
<circle id="Oval-Copy-3_2_" class="st7" cx="40.4" cy="97.1" r="13"/>
<circle id="Oval-Copy-3_3_" class="st7" cx="40.4" cy="170.1" r="13"/>
<circle id="Oval-Copy-3_4_" class="st7" cx="40.4" cy="261.1" r="13"/>
<circle id="Oval-Copy-3_5_" class="st3" cx="753.4" cy="247.1" r="24"/>
<path id="Shape_3_" class="st4" d="M748.4,250.1c2.8,0,5,2.2,5,5v6h-2v-6c0-1.7-1.3-3-3-3h-4c-1.7,0-3,1.3-3,3v6h-2v-6
	c0-2.8,2.2-5,5-5H748.4z M746.4,238.1c2.8,0,5,2.2,5,5s-2.2,5-5,5s-5-2.2-5-5S743.6,238.1,746.4,238.1z M759.4,246.1v2h-2v-2H759.4z
	 M764.4,246.1v2h-2v-2H764.4z M746.4,240.1c-1.7,0-3,1.3-3,3s1.3,3,3,3s3-1.3,3-3S748.1,240.1,746.4,240.1z M767.4,243.1v2h-2v-2
	H767.4z M756.4,243.1v2h-2v-2H756.4z M764.4,238.1v7h-7v-7H764.4z M762.4,240.1h-3v3h3V240.1z M767.4,238.1v2h-2v-2H767.4z
	 M756.4,238.1v2h-2v-2H756.4z M759.4,235.1v2h-2v-2H759.4z M764.4,235.1v2h-2v-2H764.4z"/>
<path id="Line-8" class="st2" d="M41.9,330.6v104h111.5v-6l14,7l-14,7v-6H39.9v-106H41.9z"/>
<path id="Path-8" class="st2" d="M582.4,486.9v25.2h226v-6l14,7l-14,7v-6h-228v-25.2h-163v-2H582.4z"/>
<path id="Path-7" class="st2" d="M582.4,170.1v270.5h20v-6l14,7l-14,7v-6h-22V170.1H582.4z"/>
<line id="Path-9-Copy" class="st8" x1="752.7" y1="357.1" x2="752.7" y2="281.1"/>
<rect id="Rectangle-Copy-50" x="390.4" y="15.1" class="st9" width="210" height="155"/>
<rect id="Rectangle-Copy-16_4_" x="502.4" y="72.1" class="st6" width="80" height="81"/>
<rect id="Rectangle-Copy-16_5_" x="406.4" y="72.1" class="st6" width="80" height="81"/>
<rect x="30.3" y="90.8" class="st10" width="20" height="12.2"/>
<text transform="matrix(1 0 0 1 35.8156 101.1255)" class="st11 st12 st13">A</text>
<rect x="30.3" y="163.8" class="st10" width="20" height="13.4"/>
<text transform="matrix(1 0 0 1 35.7317 174.1635)" class="st11 st12 st13">B</text>
<rect x="31.6" y="254.8" class="st10" width="17.5" height="13.4"/>
<text transform="matrix(1 0 0 1 35.9558 265.1815)" class="st11 st12 st13">C</text>
<rect x="417.8" y="463.7" class="st10" width="163" height="14.6"/>
<text transform="matrix(1 0 0 1 433.858 478.1092)" class="st11 st12 st13">6. Extrai contêineres</text>
<rect x="789.4" y="240.8" class="st10" width="100" height="15.4"/>
<text transform="matrix(1 0 0 1 786.0697 253.1527)" class="st11 st12 st13">Proprietário do nó</text>
<rect x="708.4" y="33.8" class="st10" width="100" height="15.4"/>
<text transform="matrix(1 0 0 1 708.4102 44.1646)" class="st11 st12 st13">Administrador</text>
<rect x="406.4" y="35.3" class="st10" width="187" height="15.6"/>
<text transform="matrix(1 0 0 1 406.3803 47.1994)" class="st1 st14 st15">Hub de gerenciamento</text>
<rect x="638.4" y="377.3" class="st10" width="236.1" height="15.6"/>
<text transform="matrix(1 0 0 1 638.3803 389.129)" class="st1 st14 st15">Nó de borda</text>
<rect x="822.3" y="449.7" class="st10" width="80" height="56.3"/>
<rect x="625.8" y="443.8" class="st10" width="61.1" height="35.7"/>
<rect x="625.8" y="556.9" class="st10" width="61.1" height="35.7"/>
<rect x="695.7" y="431.7" class="st10" width="111.2" height="13.7"/>
<text transform="matrix(1 0 0 1 727.2202 442.1185)" class="st1 st12 st13">7. Executa</text>
<rect x="710.9" y="547.7" class="st10" width="150.7" height="13.7"/>
<text transform="matrix(1 0 0 1 759.2175 558.1172)" class="st1 st12 st13">8. Inicia</text>
<rect x="502.3" y="105.8" class="st10" width="80" height="14.9"/>
<text transform="matrix(1 0 0 1 511.3708 116.1418)" class="st11 st12 st13">Exchange</text>
<rect x="406.3" y="105.8" class="st10" width="80" height="14.9"/>
<text transform="matrix(1 0 0 1 417.3615 109.4752)" class="st16"><tspan x="0" y="0" class="st11 st12 st13">Robô de  </tspan><tspan x="0" y="16.8" class="st11 st12 st13">contrato</tspan></text>
<rect x="61.4" y="91.7" class="st10" width="280.6" height="15.7"/>
<text transform="matrix(1 0 0 1 61.3802 102.1137)" class="st11 st12 st13">Cria credenciais de desenvolvedor</text>
<rect x="79.4" y="33.8" class="st10" width="172.6" height="15.7"/>
<text transform="matrix(1 0 0 1 79.389 44.1524)" class="st11 st12 st13">Desenvolvedor de software</text>
<rect x="61.4" y="163.6" class="st10" width="283.4" height="15.7"/>
<text transform="matrix(1 0 0 1 61.3802 174.0208)" class="st11 st12 st13">Desenvolve operador de serviço de borda</text>
<rect x="61.4" y="254.8" class="st10" width="293.1" height="15.7"/>
<text transform="matrix(1 0 0 1 61.3802 265.1698)" class="st11 st12 st13">Assina e publica no hub de gerenciamento</text>
<g>
	<rect x="203.4" y="375" class="st10" width="162.3" height="15.6"/>
	<text transform="matrix(1 0 0 1 203.3859 386.8454)" class="st1 st14 st15">Registro de contêiner</text>
	<g>
		<path class="st1" d="M195.4,374.6h-8c-0.6,0-1,0.4-1,1v11c0,0.6,0.4,1,1,1h8c0.6,0,1-0.4,1-1v-11C196.4,375,196,374.6,195.4,374.6
			z M195.4,375.6v3h-8v-3H195.4z M187.4,382.6v-3h8v3H187.4z M187.4,386.6v-3h8v3H187.4z"/>
		<circle class="st1" cx="188.9" cy="377.1" r="0.5"/>
		<circle class="st1" cx="188.9" cy="381.1" r="0.5"/>
		<circle class="st1" cx="188.9" cy="385.1" r="0.5"/>
		<rect id="_x3C_Transparent_Rectangle_x3E__616_" x="183.4" y="373.1" class="st10" width="16" height="16"/>
	</g>
</g>
<g>
	<g>
		<polyline class="st17" points="752.4,212.1 752.4,156.1 610.4,156.1 		"/>
		<g>
			<polygon class="st2" points="612.5,149.1 600.4,156.1 612.5,163.1 			"/>
		</g>
	</g>
</g>
<g>
	<g>
		<polyline class="st17" points="676.4,75.2 676.4,132.1 610.4,132.1 		"/>
		<g>
			<polygon class="st2" points="612.5,125.1 600.4,132.1 612.5,139.1 			"/>
		</g>
	</g>
</g>
<rect x="64.9" y="110.9" class="st10" width="305.2" height="41.5"/>
<text transform="matrix(1 0 0 1 64.8862 119.7735)"><tspan x="0" y="0" class="st11 st12 st18">• Cria conta de usuário</tspan><tspan x="0" y="14.4" class="st11 st12 st18">• Cria par de chaves de assinatura (utilizado na etapa C)</tspan></text>
<rect x="63.9" y="191.9" class="st10" width="292.8" height="40.6"/>
<text transform="matrix(1 0 0 1 63.8862 200.7735)"><tspan x="0" y="0" class="st11 st12 st18">• Cria um archive que contém os arquivos de definição </tspan><tspan x="0" y="14.4" class="st11 st12 st18">YAML do serviço</tspan><tspan x="0" y="28.8" class="st11 st12 st18">• Cria arquivos de metadados do Open Horizon</tspan></text>
<rect x="67.4" y="282.9" class="st10" width="242.5" height="26.2"/>
<text transform="matrix(1 0 0 1 67.3862 291.7735)"><tspan x="0" y="0" class="st11 st12 st18">• Envia, assina e publica contêineres</tspan><tspan x="0" y="14.4" class="st11 st12 st18">• Inclui restrições de política de serviços</tspan></text>
<rect x="52.4" y="360.9" class="st10" width="107.5" height="30.6"/>
<text transform="matrix(1 0 0 1 52.3862 371.253)"><tspan x="0" y="0" class="st11 st12 st13">1. Envia </tspan><tspan x="0" y="16.8" class="st11 st12 st13">contêineres</tspan></text>
<rect x="419.6" y="228.2" class="st10" width="148" height="47.4"/>
<text transform="matrix(1 0 0 1 419.5529 238.5868)"><tspan x="0" y="0" class="st11 st12 st13">2. Publica metadados </tspan><tspan x="0" y="16.8" class="st11 st12 st13">de serviço no hub de </tspan><tspan x="0" y="33.6" class="st11 st12 st13">gerenciamento</tspan></text>
<rect x="699.7" y="75.2" class="st10" width="198.5" height="47.4"/>
<text transform="matrix(1 0 0 1 699.7195 85.5868)"><tspan x="0" y="0" class="st11 st12 st13">3. Criar padrão ou política para </tspan><tspan x="0" y="16.8" class="st11 st12 st13">implementar o serviço para </tspan><tspan x="0" y="33.6" class="st11 st12 st13">corrigir nós de borda</tspan></text>
<rect x="595.9" y="251.1" class="st10" width="93.5" height="30.6"/>
<text transform="matrix(1 0 0 1 595.8862 261.4201)"><tspan x="0" y="0" class="st11 st12 st13">5. Implementa </tspan><tspan x="0" y="16.8" class="st11 st12 st13">o serviço</tspan></text>
<rect x="763.9" y="297.2" class="st10" width="155.5" height="30.6"/>
<text transform="matrix(1 0 0 1 763.8862 307.5868)"><tspan x="0" y="0" class="st11 st12 st13">4. Registra com um </tspan><tspan x="0" y="16.8" class="st11 st12 st13">padrão ou política de nó</tspan></text>
<rect x="622.2" y="441.1" class="st10" width="68" height="30.6"/>
<text transform="matrix(1 0 0 1 624.3631 451.4196)"><tspan x="0" y="0" class="st11 st12 st13">Agente de </tspan><tspan x="13.5" y="16.8" class="st11 st12 st13">borda</tspan></text>
<rect x="620.9" y="555.7" class="st10" width="67" height="30.6"/>
<text transform="matrix(1 0 0 1 621.7173 566.0863)"><tspan x="0" y="0" class="st11 st12 st13">Serviço de </tspan><tspan x="14.3" y="16.8" class="st11 st12 st13">borda</tspan></text>
<rect x="828.9" y="450.9" class="st10" width="65.5" height="47.4"/>
<text transform="matrix(1 0 0 1 831.9214 461.253)"><tspan x="0" y="0" class="st11 st12 st13">Operador </tspan><tspan x="-2.3" y="16.8" class="st11 st12 st13">de serviço </tspan><tspan x="1.8" y="33.6" class="st11 st12 st13">de borda</tspan></text>
</svg>
