<?xml version="1.0" encoding="utf-8"?>
<!-- Generator: Adobe Illustrator 21.1.0, SVG Export Plug-In . SVG Version: 6.00 Build 0)  -->
<svg version="1.1" id="Layer_1" xmlns="http://www.w3.org/2000/svg" xmlns:xlink="http://www.w3.org/1999/xlink" x="0px" y="0px"
	 viewBox="0 0 1215.8 970.2" style="enable-background:new 0 0 1215.8 970.2;" xml:space="preserve">
<style type="text/css">
	.st0{fill:#6E32C9;}
	.st1{fill:#4F2196;}
	.st2{fill:#FFFFFF;stroke:#E0E0E0;}
	.st3{fill:#FFFFFF;}
	.st4{fill:#C9DEFF;}
	.st5{fill:#408BFC;}
	.st6{fill:#054ADA;}
	.st7{fill:none;stroke:#054ADA;stroke-linecap:square;}
	.st8{fill:none;stroke:#054ADA;}
	.st9{fill:#BEBEBE;}
	.st10{fill:#24A148;}
	.st11{fill:none;}
	.st12{fill:#F4F4F4;}
	.st13{font-family:'IBMPlexSans-Medium';}
	.st14{font-size:16px;}
	.st15{fill:#161616;}
	.st16{font-family:'IBMPlexSans';}
	.st17{font-family:'IBMPlexSans-Bold';}
	.st18{font-size:14px;}
</style>
<rect id="Rectangle-Copy-14" x="37.4" y="285.1" class="st0" width="281" height="663"/>
<rect id="Rectangle-Copy-14_1_" x="511.4" y="285.1" class="st1" width="667" height="663"/>
<rect id="Rectangle" x="16.9" y="22.6" class="st2" width="144" height="37"/>
<rect id="Rectangle-Copy-28" x="16.9" y="59.6" class="st2" width="144" height="76"/>
<rect id="Rectangle-Copy-31" x="16.9" y="136.6" class="st2" width="144" height="79"/>
<rect id="Rectangle-Copy-29" x="159.9" y="59.6" class="st2" width="260" height="76"/>
<rect id="Rectangle-Copy-33" x="419.9" y="59.6" class="st2" width="260" height="76"/>
<rect id="Rectangle-Copy-36" x="679.9" y="59.6" class="st2" width="260" height="76"/>
<rect id="Rectangle-Copy-39" x="938.9" y="59.6" class="st2" width="260" height="76"/>
<rect id="Rectangle-Copy-32" x="159.9" y="136.6" class="st2" width="260" height="79"/>
<rect id="Rectangle-Copy-34" x="419.9" y="136.6" class="st2" width="260" height="79"/>
<rect id="Rectangle-Copy-37" x="679.9" y="136.6" class="st2" width="260" height="79"/>
<rect id="Rectangle-Copy-40" x="938.9" y="136.6" class="st2" width="260" height="79"/>
<rect id="Rectangle-Copy-26" x="159.9" y="22.6" class="st2" width="260" height="37"/>
<rect id="Rectangle-Copy-35" x="419.9" y="22.6" class="st2" width="260" height="37"/>
<rect id="Rectangle-Copy-38" x="679.9" y="22.6" class="st2" width="260" height="37"/>
<rect id="Rectangle-Copy-41" x="938.9" y="22.6" class="st2" width="260" height="37"/>
<rect id="Rectangle-Copy-30" x="69.4" y="356.1" class="st3" width="217" height="264"/>
<path id="Default-Copy-4" class="st4" d="M101.4,420.1h129c8.8,0,16,7.2,16,16l0,0c0,8.8-7.2,16-16,16h-129c-8.8,0-16-7.2-16-16l0,0
	C85.4,427.3,92.6,420.1,101.4,420.1z"/>
<rect id="Rectangle-Copy-45" x="69.4" y="652.1" class="st3" width="217" height="264"/>
<rect id="Rectangle-Copy-46" x="543.4" y="356.1" class="st3" width="603" height="264"/>
<rect id="Rectangle_1_" x="559.4" y="420.1" class="st5" width="286" height="184"/>
<rect id="Rectangle-Copy-43" x="845.4" y="420.1" class="st6" width="286" height="184"/>
<rect id="Default" x="574.4" y="484.1" class="st4" width="100" height="32"/>
<rect id="Default-Copy" x="574.4" y="556.1" class="st4" width="100" height="32"/>
<rect id="Default_1_" x="678.4" y="484.1" class="st4" width="85" height="32"/>
<rect id="Default-Copy-2" x="678.4" y="556.1" class="st4" width="85" height="32"/>
<rect id="Default_2_" x="767.4" y="484.1" class="st4" width="39" height="32"/>
<rect id="Default-Copy-3" x="767.4" y="556.1" class="st4" width="62" height="32"/>
<line id="Line-3" class="st7" x1="632.4" y1="536.6" x2="829.9" y2="536.6"/>
<line id="Line-3-Copy" class="st8" x1="574.4" y1="536.1" x2="582.4" y2="536.1"/>
<rect id="Field-color" x="586.4" y="524.1" class="st4" width="42" height="24"/>
<rect id="Rectangle-Copy-47" x="543.4" y="652.1" class="st3" width="603" height="264"/>
<rect id="Rectangle_2_" x="559.4" y="716.1" class="st5" width="286" height="184"/>
<rect id="Rectangle-Copy-43_1_" x="845.4" y="716.1" class="st6" width="286" height="184"/>
<path id="Line-9" class="st9" d="M543.4,481.1c3.9,0,7,3.1,7,7s-3.1,7-7,7c-3.5,0-6.4-2.6-6.9-6H300.9v6l-14-7l14-7v6h235.6
	c0.5-3.3,3.3-5.9,6.7-6H543.4z"/>
<path id="Line-9-Copy" class="st9" d="M529.4,777.1l14,7l-14,7v-6H293.8c-0.5,3.3-3.3,5.9-6.7,6h-0.2c-3.9,0-7-3.1-7-7s3.1-7,7-7
	c3.5,0,6.4,2.6,6.9,6h235.6V777.1z"/>
<circle id="Oval" class="st3" cx="415.4" cy="488.1" r="20"/>
<path id="path-1_1_" class="st10" d="M422.4,484.5l-1.4-1.4l-7.6,7.6l-3.6-3.6l-1.4,1.4l5,5L422.4,484.5z M415.4,474.1
	c-7.7,0-14,6.3-14,14s6.3,14,14,14s14-6.3,14-14S423.1,474.1,415.4,474.1z M415.4,500.1c-6.6,0-12-5.4-12-12s5.4-12,12-12
	s12,5.4,12,12S422,500.1,415.4,500.1z"/>
<circle id="Oval_1_" class="st3" cx="415.4" cy="784.1" r="20"/>
<path id="path-3_1_" class="st10" d="M422.4,780.5l-1.4-1.4l-7.6,7.6l-3.6-3.6l-1.4,1.4l5,5L422.4,780.5z M415.4,770.1
	c-7.7,0-14,6.3-14,14s6.3,14,14,14s14-6.3,14-14S423.1,770.1,415.4,770.1z M415.4,796.1c-6.6,0-12-5.4-12-12s5.4-12,12-12
	s12,5.4,12,12S422,796.1,415.4,796.1z"/>
<rect x="527.4" y="305.3" class="st11" width="236.1" height="15.6"/>
<text transform="matrix(1 0 0 1 527.3794 317.1156)" class="st12 st13 st14">Política de implementação</text>
<rect x="559.3" y="376.3" class="st11" width="236.1" height="15.6"/>
<text transform="matrix(1 0 0 1 559.2652 388.1188)" class="st15 st16 st14">Restrições</text>
<rect x="559.3" y="672.2" class="st11" width="236.1" height="15.6"/>
<text transform="matrix(1 0 0 1 559.2652 684.0581)" class="st15 st16 st14">Propriedades</text>
<rect x="85.4" y="376.3" class="st11" width="179.7" height="15.6"/>
<text transform="matrix(1 0 0 1 85.3794 388.1188)" class="st15 st16 st14">Propriedades do nó</text>
<rect x="85.4" y="672.3" class="st11" width="179.7" height="15.6"/>
<text transform="matrix(1 0 0 1 85.3794 684.1118)" class="st15 st16 st14">Restrições do nó</text>
<rect x="53.4" y="305.3" class="st11" width="236.1" height="15.6"/>
<text transform="matrix(1 0 0 1 53.3793 317.1156)" class="st12 st13 st14">Política do nó</text>
<rect x="166.4" y="35.2" class="st11" width="237.4" height="19.1"/>
<text transform="matrix(1 0 0 1 166.3792 47.0948)" class="st15 st17 st14">Política do nó</text>
<rect x="21.4" y="72.3" class="st11" width="129.5" height="19.1"/>
<text transform="matrix(1 0 0 1 21.3792 80.9693)" class="st15 st17 st14">Função</text>
<rect x="21.4" y="149.2" class="st11" width="129.5" height="19.1"/>
<text transform="matrix(1 0 0 1 21.3792 154.3026)" class="st15 st17 st14">Propósito</text>
<rect x="166.4" y="72.3" class="st11" width="250.5" height="59.6"/>
<rect x="166.4" y="149.2" class="st11" width="250.5" height="59.6"/>
<rect x="85.4" y="733.7" class="st11" width="186.2" height="29.8"/>
<text transform="matrix(1 0 0 1 85.3944 744.1088)" class="st15 st16 st18">(Opcional)</text>
<rect x="575.4" y="736.3" class="st11" width="236.1" height="15.6"/>
<text transform="matrix(1 0 0 1 575.3793 748.1015)" class="st12 st16 st14">Propriedades de implementação</text>
<rect x="575.4" y="780.7" class="st11" width="186.2" height="29.8"/>
<text transform="matrix(1 0 0 1 575.3792 791.0828)" class="st12 st16 st18">(Opcional)</text>
<rect x="861.4" y="736.3" class="st11" width="236.1" height="15.6"/>
<text transform="matrix(1 0 0 1 861.3793 748.1015)" class="st12 st16 st14">Propriedades do serviço</text>
<rect x="861.4" y="780.7" class="st11" width="186.2" height="29.8"/>
<text transform="matrix(1 0 0 1 861.3792 791.0828)" class="st12 st16 st18">(Opcional)</text>
<rect x="575.4" y="440.3" class="st11" width="236.1" height="15.6"/>
<text transform="matrix(1 0 0 1 575.3793 452.1611)" class="st12 st16 st14">Restrições da implementação</text>
<rect x="861.4" y="440.3" class="st11" width="236.1" height="15.6"/>
<text transform="matrix(1 0 0 1 861.3793 452.1611)" class="st12 st16 st14">Restrições de serviço</text>
<rect x="861.4" y="484.8" class="st11" width="186.2" height="29.8"/>
<text transform="matrix(1 0 0 1 861.3792 495.1424)" class="st12 st16 st18">(Opcional)</text>
<rect x="97.4" y="430.8" class="st11" width="142.2" height="17.6"/>
<text transform="matrix(1 0 0 1 97.3792 441.1228)" class="st15 st16 st18">camera-type=motion</text>
<rect x="425.4" y="35.2" class="st11" width="237.4" height="19.1"/>
<text transform="matrix(1 0 0 1 425.3792 47.0948)" class="st15 st17 st14">Política de serviço</text>
<rect x="425.4" y="72.3" class="st11" width="250.5" height="59.6"/>
<rect x="425.4" y="149.2" class="st11" width="250.5" height="59.6"/>
<rect x="685.4" y="35.2" class="st11" width="237.4" height="19.1"/>
<text transform="matrix(1 0 0 1 685.4067 47.0948)" class="st15 st17 st14">Política de implementação</text>
<rect x="685.4" y="72.3" class="st11" width="250.5" height="59.6"/>
<rect x="685.4" y="149.2" class="st11" width="250.5" height="59.6"/>
<rect x="945.4" y="35.2" class="st11" width="237.4" height="19.1"/>
<text transform="matrix(1 0 0 1 945.3792 47.0948)" class="st15 st17 st14">Política do modelo</text>
<rect x="945.4" y="72.3" class="st11" width="239.4" height="59.6"/>
<rect x="945.4" y="149.2" class="st11" width="250.5" height="59.6"/>
<rect x="574.3" y="494.7" class="st11" width="100.1" height="17.6"/>
<text transform="matrix(1 0 0 1 578.3536 505.0939)" class="st15 st16 st18">tipo de câmera</text>
<rect x="678.4" y="494.7" class="st11" width="85" height="17.6"/>
<text transform="matrix(1 0 0 1 694.6613 505.0939)" class="st15 st16 st18">é igual a</text>
<rect x="767.4" y="494.7" class="st11" width="39.4" height="17.6"/>
<text transform="matrix(0.6924 0 0 1 769.6683 505.0943)" class="st15 st16 st18">estática</text>
<rect x="574.3" y="566.9" class="st11" width="100.1" height="17.6"/>
<text transform="matrix(1 0 0 1 577.7252 577.2855)" class="st15 st16 st18">tipo de câmera</text>
<rect x="589.1" y="530.8" class="st11" width="36.5" height="13.9"/>
<text transform="matrix(1 0 0 1 594.8331 541.1438)" class="st15 st16 st18">OU</text>
<rect x="678.4" y="566.9" class="st11" width="85" height="17.6"/>
<text transform="matrix(1 0 0 1 694.0329 577.2855)" class="st15 st16 st18">é igual a</text>
<rect x="767.4" y="566.9" class="st11" width="62" height="17.6"/>
<text transform="matrix(0.7884 0 0 1 770.2044 577.2857)" class="st15 st16 st18">movimento</text>
<rect x="165.7" y="67.4" class="st11" width="221.3" height="43.3"/>
<text transform="matrix(1 0 0 1 165.7125 79.2252)"><tspan x="0" y="0" class="st15 st16 st14">Proprietário do nó fornece ao </tspan><tspan x="0" y="19.2" class="st15 st16 st14">registrar o nó</tspan></text>
<rect x="168.4" y="140.7" class="st11" width="236" height="51.3"/>
<text transform="matrix(1 0 0 1 168.3792 152.5585)"><tspan x="0" y="0" class="st15 st16 st14">Definir os recursos que o nó tem </tspan><tspan x="0" y="19.2" class="st15 st16 st14">e a finalidade pretendida do nó</tspan></text>
<rect x="433.7" y="67.4" class="st11" width="228" height="56"/>
<text transform="matrix(1 0 0 1 433.7127 79.2252)"><tspan x="0" y="0" class="st15 st16 st14">O desenvolvedor de serviço </tspan><tspan x="0" y="19.2" class="st15 st16 st14">fornece ao publicar o serviço</tspan></text>
<rect x="429.7" y="140.7" class="st11" width="237.3" height="72.8"/>
<text transform="matrix(1 0 0 1 429.7127 152.5587)"><tspan x="0" y="0" class="st15 st16 st14">Definir o que o serviço necessita </tspan><tspan x="0" y="18" class="st15 st16 st14">em um nó de borda para </tspan><tspan x="0" y="36" class="st15 st16 st14">executar de forma adequada a </tspan><tspan x="0" y="54" class="st15 st16 st14">sua intenção</tspan></text>
<rect x="686.4" y="67.4" class="st11" width="238" height="55.3"/>
<text transform="matrix(1 0 0 1 686.3792 79.2252)"><tspan x="0" y="0" class="st15 st16 st14">O administrador de política </tspan><tspan x="0" y="19.2" class="st15 st16 st14">fornece ao implementar o </tspan><tspan x="0" y="38.4" class="st15 st16 st14">serviço</tspan></text>
<rect x="686.4" y="140.7" class="st11" width="240.7" height="69.3"/>
<text transform="matrix(1 0 0 1 686.3792 152.5587)"><tspan x="0" y="0" class="st15 st16 st14">Definir onde os serviços devem </tspan><tspan x="0" y="19.2" class="st15 st16 st14">ser executados</tspan></text>
<rect x="945" y="67.4" class="st11" width="240" height="62"/>
<text transform="matrix(1 0 0 1 945.0462 79.2252)"><tspan x="0" y="0" class="st15 st16 st14">O criador de modelo ou o </tspan><tspan x="0" y="19.2" class="st15 st16 st14">cientista de dados fornece ao </tspan><tspan x="0" y="38.4" class="st15 st16 st14">criar o modelo</tspan></text>
<rect x="947.7" y="140.7" class="st11" width="233.3" height="66"/>
<text transform="matrix(1 0 0 1 947.7122 152.5587)"><tspan x="0" y="0" class="st15 st16 st14">Limitar ainda mais o nó de </tspan><tspan x="0" y="19.2" class="st15 st16 st14">borda ao qual este modelo é </tspan><tspan x="0" y="38.4" class="st15 st16 st14">implementado</tspan></text>
</svg>
