<?xml version="1.0" encoding="utf-8"?>
<!-- Generator: Adobe Illustrator 21.1.0, SVG Export Plug-In . SVG Version: 6.00 Build 0)  -->
<svg version="1.1" id="Capa_1" xmlns="http://www.w3.org/2000/svg" xmlns:xlink="http://www.w3.org/1999/xlink" x="0px" y="0px"
	 viewBox="0 0 1122 654.5" style="enable-background:new 0 0 1122 654.5;" xml:space="preserve">
<style type="text/css">
	.st0{fill:#051B75;}
	.st1{fill:#BEBEBE;}
	.st2{fill:#E3F6FF;}
	.st3{fill:#0F62FE;}
	.st4{fill:#054ADA;}
	.st5{fill:#8A3FFC;}
	.st6{fill:none;stroke:#BEBEBE;stroke-width:2;}
	.st7{display:none;fill:#BEBEBE;}
	.st8{fill:none;}
	.st9{fill:#F4F4F4;}
	.st10{font-family:'IBMPlexSans-Medium';}
	.st11{font-size:16px;}
	.st12{fill:#408BFC;}
	.st13{fill:#161616;}
	.st14{font-family:'IBMPlexSans';}
	.st15{font-size:14px;}
	.st16{fill:#FFFFFF;}
	.st17{enable-background:new    ;}
	.st18{fill:#92EEEE;}
	.st19{fill:none;stroke:#BEBEBE;stroke-width:2;stroke-miterlimit:10;}
	.st20{fill:none;stroke:#BEBEBE;stroke-width:2.2099;stroke-miterlimit:10;}
</style>
<rect id="Rectangle-Copy-51" x="370" y="231.7" class="st0" width="496.4" height="284"/>
<path id="Line-11-Copy-3" class="st1" d="M427.2,387.7l6.8,14.1l-6-0.1l-0.2,15l6,0.1l-7.2,13.9l-6.8-14.1l6,0.1l0.2-15l-6-0.1
	L427.2,387.7z"/>
<path id="Line-11-Copy-4" class="st1" d="M523,387.7l6.8,14.1l-6-0.1l-0.2,15l6,0.1l-7.2,13.9l-6.8-14.1l6,0.1l0.2-15l-6-0.1
	L523,387.7z"/>
<path id="Line-11-Copy-5" class="st1" d="M809.7,387.7l6.8,14.1l-6-0.1l-0.2,15l6,0.1l-7.2,13.9l-6.8-14.1l6,0.1l0.2-15l-6-0.1
	L809.7,387.7z"/>
<circle id="Oval-Copy-3" class="st2" cx="78.6" cy="44.7" r="24"/>
<path id="Shape" class="st3" d="M73.6,47.7c2.8,0,5,2.2,5,5v6h-2v-6c0-1.7-1.3-3-3-3h-4c-1.7,0-3,1.3-3,3v6h-2v-6c0-2.8,2.2-5,5-5
	H73.6z M71.6,35.7c2.8,0,5,2.2,5,5s-2.2,5-5,5c-2.8,0-5-2.2-5-5S68.8,35.7,71.6,35.7z M86.6,33.6c2.1,0,3.9,1.4,4.5,3.4l0.1,0.2v0.1
	l0,0c1.3,0.5,2.2,1.7,2.3,3.1v0.2v0.2c0,2.1-1.6,3.7-3.7,3.9h-0.2h-6.3c-2.1,0-3.9-1.7-3.9-3.9c0-1.5,0.9-2.8,2.2-3.5l0.2-0.1v-0.1
	c0.5-1.9,2.1-3.4,4.1-3.6h0.2L86.6,33.6z M71.6,37.7c-1.7,0-3,1.3-3,3s1.3,3,3,3c1.7,0,3-1.3,3-3S73.2,37.7,71.6,37.7z M86.6,35.6
	c-1.4,0-2.5,1-2.7,2.4v0.2V39l-0.8,0.2c-0.9,0.2-1.5,0.9-1.5,1.8c0,1,0.8,1.8,1.7,1.9h0.1h6.3c1,0,1.9-0.8,1.9-1.9
	c0-0.8-0.6-1.6-1.3-1.8h-0.1L89.4,39v-0.8C89.2,36.7,88,35.6,86.6,35.6z"/>
<rect id="Rectangle-Copy-48" x="141.7" y="231.7" class="st4" width="184.7" height="284"/>
<rect id="Rectangle-Copy-49" x="141.7" y="533.7" class="st5" width="724.7" height="100"/>
<polyline id="Path-6-Copy-9_4_" class="st6" points="568.5,115.7 568.5,191.7 398.1,191.7 "/>
<path id="Path-6-Copy-8" class="st7" d="M687.8,115.7v99h149v304.5H570.3v-19.5h-6l7-14l7,14h-6v17.5h262.5V216.7h-149v-101H687.8z"
	/>
<rect x="383.1" y="251.8" class="st8" width="184" height="15.6"/>
<text transform="matrix(1 0 0 1 383.1401 263.7274)" class="st9 st10 st11">Hub de gerenciamento do IEAM</text>
<rect x="157.7" y="553.9" class="st8" width="319.6" height="15.6"/>
<text transform="matrix(1 0 0 1 157.7596 565.7307)" class="st9 st10 st11">Red Hat® OpenShift® Container Platform</text>
<rect id="Rectangle-Copy-14" x="886.8" y="533.7" class="st12" width="117" height="100"/>
<rect x="902.8" y="553.9" class="st8" width="94.6" height="15.6"/>
<text transform="matrix(1 0 0 1 901.8588 565.7307)" class="st9 st10 st11">Nó de borda</text>
<rect x="157.7" y="251.8" class="st8" width="148" height="57"/>
<rect x="28" y="72.3" class="st8" width="99.9" height="17.9"/>
<text transform="matrix(1 0 0 1 31.5009 82.708)" class="st13 st14 st15">Instalador de nuvem</text>
<rect x="85.6" y="119.3" class="st8" width="99.9" height="56"/>
<text transform="matrix(1 0 0 1 78.2855 129.7059)" class="st13 st14 st15">1. Configura o OCP</text>
<g>
	<rect id="Rectangle-Copy-16" x="673.9" y="306.7" class="st16" width="80" height="81"/>
	<rect x="673.9" y="340.3" class="st8" width="80" height="14.9"/>
	<text transform="matrix(1 0 0 1 700.0591 350.7258)" class="st13 st14 st15">SDO</text>
</g>
<g>
	<rect id="Rectangle-Copy-16_6_" x="769.5" y="306.7" class="st16" width="80" height="81"/>
	<rect x="769.5" y="340.3" class="st8" width="80" height="14.9"/>
	<text transform="matrix(1 0 0 1 793.9148 350.7258)" class="st13 st14 st15">MMS</text>
</g>
<g>
	<rect id="Rectangle-Copy-16_1_" x="578.3" y="306.7" class="st16" width="80" height="81"/>
	<rect x="578.3" y="340.3" class="st8" width="80" height="14.9"/>
	<text transform="matrix(1 0 0 1 610.7405 350.7258)" class="st13 st14 st15">IU</text>
</g>
<g>
	<rect id="Rectangle-Copy-16_2_" x="482.8" y="306.7" class="st16" width="80" height="81"/>
	<rect x="482.8" y="340.3" class="st8" width="80" height="14.9"/>
	<text transform="matrix(1 0 0 1 491.8749 350.7258)" class="st13 st14 st15">Exchange</text>
</g>
<g>
	<rect id="Rectangle-Copy-16_3_" x="387.2" y="306.7" class="st16" width="80" height="81"/>
	<rect x="387.2" y="340.3" class="st8" width="80" height="14.9"/>
	<rect x="394.6" y="330.7" class="st8" width="65" height="32.1"/>
	<text transform="matrix(1 0 0 1 401.2016 342.5478)" class="st17"><tspan x="0" y="0" class="st13 st14 st15">Robô de </tspan><tspan x="-0.6" y="16.8" class="st13 st14 st15">contrato</tspan></text>
</g>
<g>
	<rect id="Rectangle-Copy-16_7_" x="157.7" y="417.7" class="st16" width="80" height="81"/>
	<rect x="157.6" y="451.4" class="st8" width="80" height="14.9"/>
	<text transform="matrix(1 0 0 1 184.5434 461.7942)" class="st13 st14 st15">IAM</text>
</g>
<g>
	<rect id="Rectangle-Copy-16_4_" x="387.2" y="430.7" class="st18" width="80" height="68"/>
	<rect x="387.2" y="448.4" class="st8" width="80" height="39.8"/>
</g>
<g>
	<rect id="Rectangle-Copy-16_5_" x="482.8" y="430.7" class="st18" width="80" height="68"/>
</g>
<g>
	<rect id="Rectangle-Copy-16_16_" x="769.5" y="430.7" class="st18" width="80" height="68"/>
</g>
<g>
	<g>
		<polyline class="st19" points="761.6,115.7 761.6,285.7 522.8,285.7 522.8,296.7 		"/>
		<g>
			<polygon class="st1" points="515.8,294.7 522.8,306.7 529.7,294.7 			"/>
		</g>
	</g>
</g>
<g>
	<g>
		<polyline class="st20" points="945.3,115.7 945.3,333.7 860.6,333.7 		"/>
		<g>
			<polygon class="st1" points="862.8,326 849.5,333.7 862.8,341.5 			"/>
		</g>
	</g>
</g>
<g>
	<g>
		<polyline class="st20" points="849.5,360.2 945.3,360.2 945.3,522.6 		"/>
		<g>
			<polygon class="st1" points="937.6,520.3 945.3,533.7 953,520.3 			"/>
		</g>
	</g>
</g>
<g>
	<g>
		<line class="st19" x1="201.4" y1="115.7" x2="201.4" y2="221.7"/>
		<g>
			<polygon class="st1" points="194.4,219.6 201.4,231.7 208.4,219.6 			"/>
		</g>
	</g>
</g>
<g>
	<g>
		<polyline class="st19" points="73.5,100.8 73.5,583.7 131.7,583.7 		"/>
		<g>
			<polygon class="st1" points="129.6,590.7 141.7,583.7 129.6,576.7 			"/>
		</g>
	</g>
</g>
<g>
	<g>
		<polyline class="st19" points="247.8,454.8 348.2,454.8 348.2,191.7 383.1,191.7 		"/>
		<g>
			<polygon class="st1" points="249.8,461.8 237.7,454.8 249.8,447.9 			"/>
		</g>
	</g>
</g>
<g>
	<g>
		<line class="st19" x1="391.5" y1="115.7" x2="391.5" y2="221.7"/>
		<g>
			<polygon class="st1" points="384.5,219.6 391.5,231.7 398.5,219.6 			"/>
		</g>
	</g>
</g>
<rect x="207.5" y="118" class="st8" width="146" height="47.4"/>
<text transform="matrix(1 0 0 1 207.5318 128.3788)"><tspan x="0" y="0" class="st13 st14 st15">2. Instala o IBM Cloud </tspan><tspan x="0" y="16.8" class="st13 st14 st15">Platform Common </tspan><tspan x="0" y="33.6" class="st13 st14 st15">Services</tspan></text>
<rect x="400" y="116" class="st8" width="137.7" height="47.4"/>
<text transform="matrix(1 0 0 1 400.0318 126.3788)"><tspan x="0" y="0" class="st13 st14 st15">3. Instala os </tspan><tspan x="0" y="16.8" class="st13 st14 st15">componentes no hub </tspan><tspan x="0" y="33.6" class="st13 st14 st15">de gerenciamento</tspan></text>
<rect x="579" y="115" class="st8" width="167" height="47.4"/>
<text transform="matrix(1 0 0 1 579.0318 125.3788)"><tspan x="0" y="0" class="st13 st14 st15">4. Configura autenticação </tspan><tspan x="0" y="16.8" class="st13 st14 st15">do Gerenciador de Acesso </tspan><tspan x="0" y="33.6" class="st13 st14 st15">e de Identidade (IAM)</tspan></text>
<rect x="770" y="117.5" class="st8" width="162.5" height="47.4"/>
<text transform="matrix(1 0 0 1 770.0318 127.8788)"><tspan x="0" y="0" class="st13 st14 st15">5. Preenche o Exchange </tspan><tspan x="0" y="16.8" class="st13 st14 st15">com exemplos do Open </tspan><tspan x="0" y="33.6" class="st13 st14 st15">Horizon</tspan></text>
<rect x="954" y="115" class="st8" width="124.5" height="47.4"/>
<text transform="matrix(1 0 0 1 954.0318 125.3788)"><tspan x="0" y="0" class="st13 st14 st15">6. Publica arquivos </tspan><tspan x="0" y="16.8" class="st13 st14 st15">de instalação do </tspan><tspan x="0" y="33.6" class="st13 st14 st15">agente no MMS</tspan></text>
<rect x="152.5" y="243.5" class="st8" width="162" height="80.5"/>
<text transform="matrix(1 0 0 1 152.5318 255.3587)"><tspan x="0" y="0" class="st9 st10 st11">IBM Cloud Platform </tspan><tspan x="0" y="19.2" class="st9 st10 st11">Common Services</tspan></text>
<rect x="392" y="441.1" class="st8" width="70.5" height="48.5"/>
<text transform="matrix(1 0 0 1 398.001 451.4632)"><tspan x="0" y="0" class="st13 st14 st15">Banco de </tspan><tspan x="10.1" y="16.8" class="st13 st14 st15">dados </tspan><tspan x="1.9" y="33.6" class="st13 st14 st15">postgres</tspan></text>
<rect x="487" y="440.9" class="st8" width="70.5" height="49"/>
<text transform="matrix(1 0 0 1 493.001 451.2132)"><tspan x="0" y="0" class="st13 st14 st15">Banco de </tspan><tspan x="10.1" y="16.8" class="st13 st14 st15">dados </tspan><tspan x="1.9" y="33.6" class="st13 st14 st15">postgres</tspan></text>
<rect x="777.5" y="441.6" class="st8" width="64.5" height="47.5"/>
<text transform="matrix(1 0 0 1 779.9625 451.9584)"><tspan x="0" y="0" class="st13 st14 st15">Bando de </tspan><tspan x="10.6" y="16.8" class="st13 st14 st15">dados </tspan><tspan x="8.6" y="33.6" class="st13 st14 st15">Mongo</tspan></text>
<rect x="956.5" y="413.5" class="st8" width="111" height="47.4"/>
<text transform="matrix(1 0 0 1 956.5318 423.8783)"><tspan x="0" y="0" class="st13 st14 st15">Nós de borda </tspan><tspan x="0" y="16.8" class="st13 st14 st15">extraem arquivos </tspan><tspan x="0" y="33.6" class="st13 st14 st15">do MMS</tspan></text>
</svg>
