<?xml version="1.0" encoding="utf-8"?>
<!-- Generator: Adobe Illustrator 21.1.0, SVG Export Plug-In . SVG Version: 6.00 Build 0)  -->
<svg version="1.1" id="Layer_1" xmlns="http://www.w3.org/2000/svg" xmlns:xlink="http://www.w3.org/1999/xlink" x="0px" y="0px"
	 viewBox="0 0 1042.8 694.8" style="enable-background:new 0 0 1042.8 694.8;" xml:space="preserve">
<style type="text/css">
	.st0{fill:#051B75;}
	.st1{fill:#FFFFFF;}
	.st2{fill:none;}
	.st3{fill:#161616;}
	.st4{font-family:'IBMPlexSans';}
	.st5{font-size:14px;}
	.st6{fill:#F4F4F4;}
	.st7{font-family:'IBMPlexSans-Medium';}
	.st8{font-size:16px;}
	.st9{fill:#009C98;}
	.st10{fill:#BEBEBE;}
	.st11{fill:#E3F6FF;}
	.st12{fill:#0F62FE;}
	.st13{display:none;}
	.st14{display:inline;fill:#0F62FE;}
	.st15{fill:none;stroke:#0F62FE;stroke-width:2;stroke-miterlimit:10;}
	.st16{display:none;fill:none;stroke:#0F62FE;stroke-width:2;stroke-miterlimit:10;}
	.st17{fill:none;stroke:#BEBEBE;stroke-width:2;}
	.st18{fill:none;stroke:#BEBEBE;stroke-width:2;stroke-dasharray:7,7;}
	.st19{fill:#408BFC;}
	.st20{fill:none;stroke:#00BAB6;stroke-width:2;stroke-dasharray:7;}
	.st21{font-size:12px;}
	.st22{fill:none;stroke:#BEBEBE;stroke-width:2;stroke-dasharray:7;}
	.st23{enable-background:new    ;}
</style>
<rect id="Rectangle-Copy-12" x="303.4" y="37.8" class="st0" width="363.3" height="231.6"/>
<g>
	<rect id="Rectangle-Copy-16_2_" x="492.2" y="91.5" class="st1" width="70.5" height="81"/>
	<rect x="492.3" y="124.9" class="st2" width="70.4" height="15.6"/>
	<text transform="matrix(1 0 0 1 496.5642 135.244)" class="st3 st4 st5">Exchange</text>
</g>
<g>
	<rect id="Rectangle-Copy-16_4_" x="580.9" y="171.5" class="st1" width="70.5" height="81"/>
	<rect x="580.8" y="195.9" class="st2" width="70.6" height="33.5"/>
</g>
<rect x="320.5" y="57.9" class="st2" width="236.1" height="15.6"/>
<text transform="matrix(1 0 0 1 320.4879 69.7649)" class="st6 st7 st8">Hub de gerenciamento</text>
<g>
	<rect id="Rectangle-Copy-14_1_" x="847.1" y="37.8" class="st9" width="174" height="99.3"/>
	<rect x="863.1" y="57.9" class="st2" width="150.2" height="59.4"/>
</g>
<g>
	<rect id="Rectangle-Copy-16_3_" x="253.1" y="339.6" class="st10" width="146.7" height="81"/>
	<rect x="269.1" y="358.2" class="st2" width="112.9" height="29.7"/>
</g>
<g>
	<rect x="346.6" y="498.2" class="st2" width="118.7" height="15.5"/>
	<text transform="matrix(1 0 0 1 363.9638 508.5494)" class="st3 st4 st5">Técnico do nó</text>
	<g id="Group-2_3_" transform="translate(21.000000, 0.000000)">
		<circle id="Oval-Copy-3_3_" class="st11" cx="385" cy="463.5" r="24"/>
		<path class="st12" d="M380,466.5c2.8,0,5,2.2,5,5v6h-2v-6c0-1.7-1.3-3-3-3h-4c-1.7,0-3,1.3-3,3v6h-2v-6c0-2.8,2.2-5,5-5H380z"/>
		<g>
			<g>
				<path class="st12" d="M378,454.5c-2.8,0-5,2.2-5,5s2.2,5,5,5s5-2.2,5-5S380.8,454.5,378,454.5z M378,462.5c-1.7,0-3-1.3-3-3
					s1.3-3,3-3s3,1.3,3,3S379.6,462.5,378,462.5z"/>
			</g>
		</g>
		<g class="st13">
			<rect x="407" y="462.5" class="st14" width="2" height="2"/>
			<rect x="412" y="462.5" class="st14" width="2" height="2"/>
			<rect x="415" y="459.5" class="st14" width="2" height="2"/>
			<rect x="404" y="459.5" class="st14" width="2" height="2"/>
			<rect x="407" y="454.5" class="st14" width="7" height="7"/>
			<rect x="409" y="456.5" class="st14" width="3" height="3"/>
			<rect x="415" y="454.5" class="st14" width="2" height="2"/>
			<rect x="404" y="454.5" class="st14" width="2" height="2"/>
			<rect x="407" y="451.5" class="st14" width="2" height="2"/>
			<rect x="412" y="451.5" class="st14" width="2" height="2"/>
		</g>
		<g class="st13">
			<path class="st14" d="M406,460.5c-1.1,0-2,0.9-2,2s0.9,2,2,2s2-0.9,2-2S407.1,460.5,406,460.5L406,460.5z"/>
		</g>
		<g>
			<line class="st15" x1="397.4" y1="467.8" x2="397.4" y2="453.2"/>
			<line class="st16" x1="411.5" y1="457.2" x2="411.5" y2="453.2"/>
			<line class="st15" x1="401.4" y1="455.2" x2="393.4" y2="455.2"/>
		</g>
		<g>
			<path class="st15" d="M390.3,453.5c0.8,0.8,0.8,2,0,2.8s-2,0.8-2.8,0s-0.8-2,0-2.8"/>
			<line class="st15" x1="388.8" y1="467.8" x2="388.8" y2="457.1"/>
		</g>
	</g>
</g>
<g class="st13">
	<rect x="138.6" y="447.8" class="st14" width="2" height="2"/>
	<rect x="143.6" y="447.8" class="st14" width="2" height="2"/>
	<rect x="146.6" y="444.8" class="st14" width="2" height="2"/>
	<rect x="135.6" y="444.8" class="st14" width="2" height="2"/>
	<rect x="138.6" y="439.8" class="st14" width="7" height="7"/>
	<rect x="140.6" y="441.8" class="st14" width="3" height="3"/>
	<rect x="146.6" y="439.8" class="st14" width="2" height="2"/>
	<rect x="135.6" y="439.8" class="st14" width="2" height="2"/>
	<rect x="138.6" y="436.8" class="st14" width="2" height="2"/>
	<rect x="143.6" y="436.8" class="st14" width="2" height="2"/>
</g>
<g class="st13">
	<path class="st14" d="M137.6,445.8c-1.1,0-2,0.9-2,2s0.9,2,2,2c1.1,0,2-0.9,2-2S138.7,445.8,137.6,445.8L137.6,445.8z"/>
</g>
<g>
	<g>
		<polyline class="st17" points="614.9,262.6 614.9,306.5 82.3,306.5 82.3,289.3 		"/>
		<g>
			<polygon class="st10" points="607.9,264.6 614.9,252.5 621.8,264.6 			"/>
		</g>
	</g>
</g>
<g>
	<g>
		<polyline class="st17" points="70.3,510 70.3,350.8 53.9,350.8 53.9,299.4 		"/>
		<g>
			<polygon class="st10" points="77.3,508 70.3,520.1 63.3,508 			"/>
		</g>
		<g>
			<polygon class="st10" points="60.8,301.4 53.9,289.3 46.9,301.4 			"/>
		</g>
	</g>
</g>
<g>
	<g>
		<polyline class="st17" points="94.1,544 310.3,544 310.3,430.7 		"/>
		<g>
			<polygon class="st10" points="317.3,432.7 310.3,420.6 303.3,432.7 			"/>
		</g>
	</g>
</g>
<polyline class="st17" points="372.9,464.6 343,464.6 343,420.6 "/>
<g>
	<g>
		<line class="st17" x1="789.7" y1="464.6" x2="437.6" y2="464.6"/>
		<g>
			<polygon class="st10" points="787.6,457.6 799.7,464.6 787.6,471.6 			"/>
		</g>
	</g>
</g>
<g>
	<g>
		<line class="st18" x1="272.7" y1="157.7" x2="482.1" y2="157.7"/>
		<g>
			<polygon class="st10" points="480.1,164.7 492.2,157.7 480.1,150.7 			"/>
		</g>
	</g>
</g>
<g>
	<g>
		<polyline class="st18" points="661.4,229.4 699.8,229.4 699.8,439.5 789.7,439.5 		"/>
		<g>
			<polygon class="st10" points="663.5,236.4 651.4,229.4 663.5,222.4 			"/>
		</g>
		<g>
			<polygon class="st10" points="787.6,446.5 799.7,439.5 787.6,432.6 			"/>
		</g>
	</g>
</g>
<g>
	<g>
		<polyline class="st18" points="953,381.2 953,298.1 869.6,298.1 869.6,147.1 		"/>
		<g>
			<polygon class="st10" points="959.9,379.2 953,391.3 946,379.2 			"/>
		</g>
		<g>
			<polygon class="st10" points="876.5,149.1 869.6,137 862.6,149.1 			"/>
		</g>
	</g>
</g>
<g>
	<g>
		<line class="st18" x1="570.8" y1="212" x2="272.7" y2="212"/>
		<g>
			<polygon class="st10" points="568.8,205 580.8,212 568.8,219 			"/>
		</g>
	</g>
</g>
<g>
	<g>
		<polyline class="st18" points="651.4,212 687.4,212 687.4,84.4 837,84.4 		"/>
		<g>
			<polygon class="st10" points="835,91.4 847.1,84.4 835,77.4 			"/>
		</g>
	</g>
</g>
<g>
	<g>
		<rect x="46.4" y="520.1" class="st11" width="47.8" height="47.8"/>
		<path class="st12" d="M83.8,535.1c-0.3-0.2-0.7-0.2-1,0l-8.5,4.2v-3.4c0-0.6-0.5-1-1-1c-0.2,0-0.3,0-0.4,0.1l-8.5,4.3v-7.4
			c0-0.6-0.4-1-1-1h-6c-0.6,0-1,0.4-1,1v25h28v-21C84.3,535.6,84.1,535.3,83.8,535.1z M76.3,555h-4v-7h4V555z M82.3,555h-4v-8
			c0-0.6-0.4-1-1-1h-6c-0.6,0-1,0.4-1,1v8h-12v-22h4v9.6l10-5v5l10-5V555z"/>
	</g>
</g>
<g>
	<g>
		<rect id="Rectangle-Copy-14" x="827.1" y="415.8" class="st19" width="30.8" height="29.2"/>
		<g id="icon_x2F_device_x2F_16" transform="translate(685.000000, 339.000000)">
			<path id="Shape_4_" class="st6" d="M158.5,83.9c0.6,0,1,0.4,1,1c0,0.5-0.4,0.9-0.8,1l-0.4,1h3.3c1.1,0,2,0.9,2,2v5
				c0,1.1-0.9,2-2,2h-8c-1.1,0-2-0.9-2-2v-5c0-1.1,0.9-2,2-2h3.7l0.6-1.4c-0.1-0.1-0.2-0.3-0.2-0.5v-0.1
				C157.5,84.3,157.9,83.9,158.5,83.9z M161.5,87.9h-8c-0.5,0-0.9,0.4-1,0.9v0.1v5c0,0.5,0.4,0.9,0.9,1h0.1h8c0.5,0,0.9-0.4,1-0.9
				v-0.1v-5c0-0.5-0.4-0.9-0.9-1H161.5z M160,92.9c0.3,0,0.5,0.2,0.5,0.5s-0.2,0.5-0.5,0.5h-5c-0.3,0-0.5-0.2-0.5-0.5
				s0.2-0.5,0.5-0.5H160z M155,88.9c0.8,0,1.5,0.7,1.5,1.5s-0.7,1.5-1.5,1.5s-1.5-0.7-1.5-1.5C153.5,89.5,154.2,88.9,155,88.9z
				 M160,88.9c0.8,0,1.5,0.7,1.5,1.5s-0.7,1.5-1.5,1.5s-1.5-0.7-1.5-1.5C158.5,89.5,159.2,88.9,160,88.9z M155,89.9
				c-0.3,0-0.5,0.2-0.5,0.5s0.2,0.5,0.5,0.5s0.5-0.2,0.5-0.5S155.3,89.9,155,89.9z M160,89.9c-0.3,0-0.5,0.2-0.5,0.5
				s0.2,0.5,0.5,0.5s0.5-0.2,0.5-0.5S160.3,89.9,160,89.9z"/>
		</g>
	</g>
	<g>
		<rect id="Rectangle-Copy-14_2_" x="873.2" y="415.8" class="st19" width="30.8" height="29.2"/>
		<g id="icon_x2F_device_x2F_16_1_" transform="translate(685.000000, 339.000000)">
			<path id="Shape_2_" class="st6" d="M204.6,83.9c0.6,0,1,0.4,1,1c0,0.5-0.4,0.9-0.8,1l-0.4,1h3.3c1.1,0,2,0.9,2,2v5
				c0,1.1-0.9,2-2,2h-8c-1.1,0-2-0.9-2-2v-5c0-1.1,0.9-2,2-2h3.7l0.6-1.4c-0.1-0.1-0.2-0.3-0.2-0.5v-0.1
				C203.6,84.3,204,83.9,204.6,83.9z M207.6,87.9h-8c-0.5,0-0.9,0.4-1,0.9v0.1v5c0,0.5,0.4,0.9,0.9,1h0.1h8c0.5,0,0.9-0.4,1-0.9
				v-0.1v-5c0-0.5-0.4-0.9-0.9-1H207.6z M206.1,92.9c0.3,0,0.5,0.2,0.5,0.5s-0.2,0.5-0.5,0.5h-5c-0.3,0-0.5-0.2-0.5-0.5
				s0.2-0.5,0.5-0.5H206.1z M201.1,88.9c0.8,0,1.5,0.7,1.5,1.5s-0.7,1.5-1.5,1.5s-1.5-0.7-1.5-1.5C199.6,89.5,200.2,88.9,201.1,88.9
				z M206.1,88.9c0.8,0,1.5,0.7,1.5,1.5s-0.7,1.5-1.5,1.5s-1.5-0.7-1.5-1.5C204.6,89.5,205.2,88.9,206.1,88.9z M201.1,89.9
				c-0.3,0-0.5,0.2-0.5,0.5s0.2,0.5,0.5,0.5s0.5-0.2,0.5-0.5S201.3,89.9,201.1,89.9z M206.1,89.9c-0.3,0-0.5,0.2-0.5,0.5
				s0.2,0.5,0.5,0.5s0.5-0.2,0.5-0.5S206.3,89.9,206.1,89.9z"/>
		</g>
	</g>
	<g>
		<rect id="Rectangle-Copy-14_3_" x="919" y="415.8" class="st19" width="30.8" height="29.2"/>
		<g id="icon_x2F_device_x2F_16_2_" transform="translate(685.000000, 339.000000)">
			<path id="Shape_3_" class="st6" d="M250.4,83.9c0.6,0,1,0.4,1,1c0,0.5-0.4,0.9-0.8,1l-0.4,1h3.3c1.1,0,2,0.9,2,2v5
				c0,1.1-0.9,2-2,2h-8c-1.1,0-2-0.9-2-2v-5c0-1.1,0.9-2,2-2h3.7l0.6-1.4c-0.1-0.1-0.2-0.3-0.2-0.5v-0.1
				C249.4,84.3,249.8,83.9,250.4,83.9z M253.4,87.9h-8c-0.5,0-0.9,0.4-1,0.9v0.1v5c0,0.5,0.4,0.9,0.9,1h0.1h8c0.5,0,0.9-0.4,1-0.9
				v-0.1v-5c0-0.5-0.4-0.9-0.9-1H253.4z M251.9,92.9c0.3,0,0.5,0.2,0.5,0.5s-0.2,0.5-0.5,0.5h-5c-0.3,0-0.5-0.2-0.5-0.5
				s0.2-0.5,0.5-0.5H251.9z M246.9,88.9c0.8,0,1.5,0.7,1.5,1.5s-0.7,1.5-1.5,1.5s-1.5-0.7-1.5-1.5C245.4,89.5,246,88.9,246.9,88.9z
				 M251.9,88.9c0.8,0,1.5,0.7,1.5,1.5s-0.7,1.5-1.5,1.5s-1.5-0.7-1.5-1.5C250.4,89.5,251,88.9,251.9,88.9z M246.9,89.9
				c-0.3,0-0.5,0.2-0.5,0.5s0.2,0.5,0.5,0.5s0.5-0.2,0.5-0.5S247.1,89.9,246.9,89.9z M251.9,89.9c-0.3,0-0.5,0.2-0.5,0.5
				s0.2,0.5,0.5,0.5s0.5-0.2,0.5-0.5S252.1,89.9,251.9,89.9z"/>
		</g>
	</g>
	<g>
		<rect id="Rectangle-Copy-14_6_" x="827.1" y="458.3" class="st19" width="30.8" height="29.2"/>
		<g id="icon_x2F_device_x2F_16_5_" transform="translate(685.000000, 339.000000)">
			<path id="Shape_7_" class="st6" d="M158.5,126.4c0.6,0,1,0.4,1,1c0,0.5-0.4,0.9-0.8,1l-0.4,1h3.3c1.1,0,2,0.9,2,2v5
				c0,1.1-0.9,2-2,2h-8c-1.1,0-2-0.9-2-2v-5c0-1.1,0.9-2,2-2h3.7l0.6-1.4c-0.1-0.1-0.2-0.3-0.2-0.5v-0.1
				C157.5,126.9,157.9,126.4,158.5,126.4z M161.5,130.4h-8c-0.5,0-0.9,0.4-1,0.9v0.1v5c0,0.5,0.4,0.9,0.9,1h0.1h8
				c0.5,0,0.9-0.4,1-0.9v-0.1v-5c0-0.5-0.4-0.9-0.9-1H161.5z M160,135.4c0.3,0,0.5,0.2,0.5,0.5s-0.2,0.5-0.5,0.5h-5
				c-0.3,0-0.5-0.2-0.5-0.5s0.2-0.5,0.5-0.5H160z M155,131.4c0.8,0,1.5,0.7,1.5,1.5s-0.7,1.5-1.5,1.5s-1.5-0.7-1.5-1.5
				S154.2,131.4,155,131.4z M160,131.4c0.8,0,1.5,0.7,1.5,1.5s-0.7,1.5-1.5,1.5s-1.5-0.7-1.5-1.5S159.2,131.4,160,131.4z M155,132.4
				c-0.3,0-0.5,0.2-0.5,0.5s0.2,0.5,0.5,0.5s0.5-0.2,0.5-0.5S155.3,132.4,155,132.4z M160,132.4c-0.3,0-0.5,0.2-0.5,0.5
				s0.2,0.5,0.5,0.5s0.5-0.2,0.5-0.5S160.3,132.4,160,132.4z"/>
		</g>
	</g>
	<g>
		<rect id="Rectangle-Copy-14_5_" x="873.2" y="458.3" class="st19" width="30.8" height="29.2"/>
		<g id="icon_x2F_device_x2F_16_4_" transform="translate(685.000000, 339.000000)">
			<path id="Shape_6_" class="st6" d="M204.6,126.4c0.6,0,1,0.4,1,1c0,0.5-0.4,0.9-0.8,1l-0.4,1h3.3c1.1,0,2,0.9,2,2v5
				c0,1.1-0.9,2-2,2h-8c-1.1,0-2-0.9-2-2v-5c0-1.1,0.9-2,2-2h3.7l0.6-1.4c-0.1-0.1-0.2-0.3-0.2-0.5v-0.1
				C203.6,126.9,204,126.4,204.6,126.4z M207.6,130.4h-8c-0.5,0-0.9,0.4-1,0.9v0.1v5c0,0.5,0.4,0.9,0.9,1h0.1h8c0.5,0,0.9-0.4,1-0.9
				v-0.1v-5c0-0.5-0.4-0.9-0.9-1H207.6z M206.1,135.4c0.3,0,0.5,0.2,0.5,0.5s-0.2,0.5-0.5,0.5h-5c-0.3,0-0.5-0.2-0.5-0.5
				s0.2-0.5,0.5-0.5H206.1z M201.1,131.4c0.8,0,1.5,0.7,1.5,1.5s-0.7,1.5-1.5,1.5s-1.5-0.7-1.5-1.5S200.2,131.4,201.1,131.4z
				 M206.1,131.4c0.8,0,1.5,0.7,1.5,1.5s-0.7,1.5-1.5,1.5s-1.5-0.7-1.5-1.5S205.2,131.4,206.1,131.4z M201.1,132.4
				c-0.3,0-0.5,0.2-0.5,0.5s0.2,0.5,0.5,0.5s0.5-0.2,0.5-0.5S201.3,132.4,201.1,132.4z M206.1,132.4c-0.3,0-0.5,0.2-0.5,0.5
				s0.2,0.5,0.5,0.5s0.5-0.2,0.5-0.5S206.3,132.4,206.1,132.4z"/>
		</g>
	</g>
	<g>
		<rect id="Rectangle-Copy-14_4_" x="919" y="458.3" class="st19" width="30.8" height="29.2"/>
		<g id="icon_x2F_device_x2F_16_3_" transform="translate(685.000000, 339.000000)">
			<path id="Shape_5_" class="st6" d="M250.4,126.4c0.6,0,1,0.4,1,1c0,0.5-0.4,0.9-0.8,1l-0.4,1h3.3c1.1,0,2,0.9,2,2v5
				c0,1.1-0.9,2-2,2h-8c-1.1,0-2-0.9-2-2v-5c0-1.1,0.9-2,2-2h3.7l0.6-1.4c-0.1-0.1-0.2-0.3-0.2-0.5v-0.1
				C249.4,126.9,249.8,126.4,250.4,126.4z M253.4,130.4h-8c-0.5,0-0.9,0.4-1,0.9v0.1v5c0,0.5,0.4,0.9,0.9,1h0.1h8
				c0.5,0,0.9-0.4,1-0.9v-0.1v-5c0-0.5-0.4-0.9-0.9-1H253.4z M251.9,135.4c0.3,0,0.5,0.2,0.5,0.5s-0.2,0.5-0.5,0.5h-5
				c-0.3,0-0.5-0.2-0.5-0.5s0.2-0.5,0.5-0.5H251.9z M246.9,131.4c0.8,0,1.5,0.7,1.5,1.5s-0.7,1.5-1.5,1.5s-1.5-0.7-1.5-1.5
				S246,131.4,246.9,131.4z M251.9,131.4c0.8,0,1.5,0.7,1.5,1.5s-0.7,1.5-1.5,1.5s-1.5-0.7-1.5-1.5S251,131.4,251.9,131.4z
				 M246.9,132.4c-0.3,0-0.5,0.2-0.5,0.5s0.2,0.5,0.5,0.5s0.5-0.2,0.5-0.5S247.1,132.4,246.9,132.4z M251.9,132.4
				c-0.3,0-0.5,0.2-0.5,0.5s0.2,0.5,0.5,0.5s0.5-0.2,0.5-0.5S252.1,132.4,251.9,132.4z"/>
		</g>
	</g>
	<g>
		<rect id="Rectangle-Copy-14_8_" x="962.9" y="415.8" class="st19" width="30.8" height="29.2"/>
		<g id="icon_x2F_device_x2F_16_7_" transform="translate(685.000000, 339.000000)">
			<path id="Shape_9_" class="st6" d="M294.3,83.9c0.6,0,1,0.4,1,1c0,0.5-0.4,0.9-0.8,1l-0.4,1h3.3c1.1,0,2,0.9,2,2v5
				c0,1.1-0.9,2-2,2h-8c-1.1,0-2-0.9-2-2v-5c0-1.1,0.9-2,2-2h3.7l0.6-1.4c-0.1-0.1-0.2-0.3-0.2-0.5v-0.1
				C293.3,84.3,293.8,83.9,294.3,83.9z M297.3,87.9h-8c-0.5,0-0.9,0.4-1,0.9v0.1v5c0,0.5,0.4,0.9,0.9,1h0.1h8c0.5,0,0.9-0.4,1-0.9
				v-0.1v-5c0-0.5-0.4-0.9-0.9-1H297.3z M295.8,92.9c0.3,0,0.5,0.2,0.5,0.5s-0.2,0.5-0.5,0.5h-5c-0.3,0-0.5-0.2-0.5-0.5
				s0.2-0.5,0.5-0.5H295.8z M290.8,88.9c0.8,0,1.5,0.7,1.5,1.5s-0.7,1.5-1.5,1.5s-1.5-0.7-1.5-1.5C289.3,89.5,290,88.9,290.8,88.9z
				 M295.8,88.9c0.8,0,1.5,0.7,1.5,1.5s-0.7,1.5-1.5,1.5s-1.5-0.7-1.5-1.5C294.3,89.5,295,88.9,295.8,88.9z M290.8,89.9
				c-0.3,0-0.5,0.2-0.5,0.5s0.2,0.5,0.5,0.5s0.5-0.2,0.5-0.5S291.1,89.9,290.8,89.9z M295.8,89.9c-0.3,0-0.5,0.2-0.5,0.5
				s0.2,0.5,0.5,0.5s0.5-0.2,0.5-0.5S296.1,89.9,295.8,89.9z"/>
		</g>
	</g>
	<g>
		<rect id="Rectangle-Copy-14_7_" x="962.9" y="458.3" class="st19" width="30.8" height="29.2"/>
		<g id="icon_x2F_device_x2F_16_6_" transform="translate(685.000000, 339.000000)">
			<path id="Shape_8_" class="st6" d="M294.3,126.4c0.6,0,1,0.4,1,1c0,0.5-0.4,0.9-0.8,1l-0.4,1h3.3c1.1,0,2,0.9,2,2v5
				c0,1.1-0.9,2-2,2h-8c-1.1,0-2-0.9-2-2v-5c0-1.1,0.9-2,2-2h3.7l0.6-1.4c-0.1-0.1-0.2-0.3-0.2-0.5v-0.1
				C293.3,126.9,293.8,126.4,294.3,126.4z M297.3,130.4h-8c-0.5,0-0.9,0.4-1,0.9v0.1v5c0,0.5,0.4,0.9,0.9,1h0.1h8
				c0.5,0,0.9-0.4,1-0.9v-0.1v-5c0-0.5-0.4-0.9-0.9-1H297.3z M295.8,135.4c0.3,0,0.5,0.2,0.5,0.5s-0.2,0.5-0.5,0.5h-5
				c-0.3,0-0.5-0.2-0.5-0.5s0.2-0.5,0.5-0.5H295.8z M290.8,131.4c0.8,0,1.5,0.7,1.5,1.5s-0.7,1.5-1.5,1.5s-1.5-0.7-1.5-1.5
				S290,131.4,290.8,131.4z M295.8,131.4c0.8,0,1.5,0.7,1.5,1.5s-0.7,1.5-1.5,1.5s-1.5-0.7-1.5-1.5S295,131.4,295.8,131.4z
				 M290.8,132.4c-0.3,0-0.5,0.2-0.5,0.5s0.2,0.5,0.5,0.5s0.5-0.2,0.5-0.5S291.1,132.4,290.8,132.4z M295.8,132.4
				c-0.3,0-0.5,0.2-0.5,0.5s0.2,0.5,0.5,0.5s0.5-0.2,0.5-0.5S296.1,132.4,295.8,132.4z"/>
		</g>
	</g>
	<path id="Rectangle-Copy-17" class="st20" d="M839.7,391.3h140.4c22.1,0,40,17.9,40,40v43.1c0,22.1-17.9,40-40,40H839.7
		c-22.1,0-40-17.9-40-40v-43.1C799.7,409.2,817.6,391.3,839.7,391.3z"/>
	<rect x="831.7" y="363.4" class="st2" width="147.7" height="15.6"/>
	<text transform="matrix(1 0 0 1 831.697 375.2618)" class="st3 st7 st8">Nós de borda</text>
</g>
<rect x="129.7" y="286" class="st2" width="428.2" height="19.5"/>
<text transform="matrix(1 0 0 1 116.5779 296.3584)" class="st3 st4 st5">1. Gera chave de propriedade do SDO e importa (somente na primeira vez)</text>
<rect x="150.6" y="523.8" class="st2" width="112.5" height="18.3"/>
<text transform="matrix(1 0 0 1 135.8901 534.1893)" class="st3 st4 st5">4. Envia dispositivos</text>
<rect x="683.3" y="65.7" class="st2" width="153" height="18.1"/>
<text transform="matrix(1 0 0 1 687.2344 76.0709)" class="st3 st4 st5">3c. Registra vouchers</text>
<rect x="320.5" y="137.5" class="st2" width="142.1" height="16.5"/>
<text transform="matrix(1 0 0 1 320.4882 147.8397)" class="st6 st4 st5">3a. Inclui nós de borda</text>
<rect x="320.5" y="192.6" class="st2" width="144.4" height="16.9"/>
<text transform="matrix(1 0 0 1 320.4876 202.9792)" class="st6 st4 st5">3b. Importa vouchers</text>
<g>
	<g id="Group-2" transform="translate(21.000000, 0.000000)">
		<circle id="Oval-Copy-3" class="st11" cx="48.8" cy="231" r="24"/>
		<g id="icon_x2F_policy-admin" transform="translate(8.000000, 8.000000)">
			<path id="Shape" class="st12" d="M35.8,226c2.8,0,5,2.2,5,5v6h-2v-6c0-1.7-1.3-3-3-3h-4c-1.7,0-3,1.3-3,3v6h-2v-6
				c0-2.8,2.2-5,5-5H35.8z M33.8,214c2.8,0,5,2.2,5,5s-2.2,5-5,5s-5-2.2-5-5S31.1,214,33.8,214z M52.4,213.9l1.4,1.4l-7.1,7.1
				l-3.9-3.9l1.4-1.4l2.5,2.5L52.4,213.9z M33.8,216c-1.7,0-3,1.3-3,3s1.3,3,3,3s3-1.3,3-3S35.5,216,33.8,216z"/>
		</g>
	</g>
	<rect x="22" y="265.6" class="st2" width="94.5" height="15.5"/>
	<text transform="matrix(1 0 0 1 24.6179 271.4299)" class="st3 st4 st5">Administrador</text>
</g>
<rect x="273.8" y="308.4" class="st1" width="12.3" height="12.3"/>
<g>
	<rect id="Rectangle-Copy-16_5_" x="216.3" y="144" class="st3" width="70.5" height="81"/>
	<rect x="216.3" y="177.3" class="st2" width="70.5" height="15.6"/>
	<text transform="matrix(1 0 0 1 230.6998 187.7196)" class="st6 st4 st5">CLI do</text>
</g>
<g>
	<g>
		<polyline class="st17" points="104,231.4 127,231.4 127,112.7 251.5,112.7 251.5,134 		"/>
		<g>
			<polygon class="st10" points="244.5,131.9 251.5,144 258.5,131.9 			"/>
		</g>
	</g>
</g>
<rect x="92.7" y="650.5" class="st2" width="89.1" height="14.5"/>
<text transform="matrix(1 0 0 1 92.6879 659.4342)" class="st3 st4 st21">Ações do usuário</text>
<rect x="281.7" y="650.5" class="st2" width="89.1" height="14.5"/>
<text transform="matrix(1 0 0 1 281.6878 659.4342)" class="st3 st4 st21">Ações do sistema</text>
<line class="st17" x1="21.4" y1="655.8" x2="81.1" y2="655.8"/>
<line class="st22" x1="208.8" y1="655.8" x2="268.6" y2="655.8"/>
<rect x="126.4" y="71.4" class="st2" width="128" height="30.6"/>
<text transform="matrix(1 0 0 1 126.3835 81.7521)"><tspan x="0" y="0" class="st3 st4 st5">3. Recebe e importa </tspan><tspan x="0" y="16.8" class="st3 st4 st5">vouchers</tspan></text>
<rect x="84.4" y="370.4" class="st2" width="139" height="97.8"/>
<text transform="matrix(1 0 0 1 84.3835 380.7516)"><tspan x="0" y="0" class="st3 st4 st5">2. Encomenda dispo</tspan><tspan x="127.7" y="0" class="st3 st4 st5">-</tspan><tspan x="0" y="16.8" class="st3 st4 st5">sitivos, fornecendo </tspan><tspan x="0" y="33.6" class="st3 st4 st5">chave pública do </tspan><tspan x="0" y="50.4" class="st3 st4 st5">proprietário do SDO. </tspan><tspan x="0" y="67.2" class="st3 st4 st5">Recebe vouchers de </tspan><tspan x="0" y="84" class="st3 st4 st5">propriedade.</tspan></text>
<rect x="458.4" y="425.1" class="st2" width="219" height="30.6"/>
<text transform="matrix(1 0 0 1 458.3835 435.4183)"><tspan x="0" y="0" class="st3 st4 st5">5. Posiciona no campo, conecta </tspan><tspan x="0" y="16.8" class="st3 st4 st5">rede e energia e, em seguida, liga</tspan></text>
<text transform="matrix(1 0 0 1 26.7169 585.7516)"><tspan x="0" y="0" class="st3 st4 st5">Fabricante do  </tspan><tspan x="0" y="16.8" class="st3 st4 st5">dispositivo</tspan></text>
<rect x="585.4" y="196.4" class="st2" width="61" height="30.6"/>
<text transform="matrix(1 0 0 1 592.7703 206.7516)"><tspan x="0" y="0" class="st3 st4 st5">Serviço </tspan><tspan x="-0.2" y="16.8" class="st3 st4 st5">do SDO</tspan></text>
<rect x="703.7" y="209.4" class="st2" width="153" height="13.8"/>
<text transform="matrix(1 0 0 1 703.7169 219.7521)" class="st3 st4 st5">8. Solicita configuração</text>
<rect x="710.4" y="280.1" class="st2" width="138" height="69"/>
<text transform="matrix(1 0 0 1 710.3835 290.4188)"><tspan x="0" y="0" class="st3 st4 st5">9. Instala e registra o </tspan><tspan x="0" y="16.8" class="st3 st4 st5">agente de borda, </tspan><tspan x="0" y="33.6" class="st3 st4 st5">implementa serviços </tspan><tspan x="0" y="50.4" class="st3 st4 st5">de borda</tspan></text>
<rect x="860.4" y="51.4" class="st2" width="149" height="68"/>
<text transform="matrix(1 0 0 1 860.3835 63.2321)"><tspan x="0" y="0" class="st6 st7 st8">Intel Corp.Servidor </tspan><tspan x="0" y="19.2" class="st6 st7 st8">Rendezvous</tspan></text>
<rect x="881.4" y="157.4" class="st2" width="130" height="56.7"/>
<text transform="matrix(1 0 0 1 881.3835 167.7521)"><tspan x="0" y="0" class="st3 st4 st5">6. Contata o </tspan><tspan x="0" y="16.8" class="st3 st4 st5">servidor rendezvous</tspan></text>
<rect x="882.1" y="225.4" class="st2" width="123.3" height="63.3"/>
<text transform="matrix(1 0 0 1 882.0505 235.7521)"><tspan x="0" y="0" class="st3 st4 st5">7. Redireciona nós </tspan><tspan x="0" y="16.8" class="st3 st4 st5">de borda para o </tspan><tspan x="0" y="33.6" class="st3 st4 st5">hub de </tspan><tspan x="0" y="50.4" class="st3 st4 st5">gerenciamento</tspan></text>
<rect x="273.8" y="361.1" class="st2" width="111.6" height="36.9"/>
<text transform="matrix(1 0 0 1 273.7506 374.6762)" class="st23"><tspan x="0" y="0" class="st1 st7 st8">Doca de </tspan><tspan x="0" y="19.2" class="st1 st7 st8">carregamento</tspan></text>
</svg>
