<?xml version="1.0" encoding="utf-8"?>
<!-- Generator: Adobe Illustrator 21.1.0, SVG Export Plug-In . SVG Version: 6.00 Build 0)  -->
<svg version="1.1" id="Layer_1" xmlns="http://www.w3.org/2000/svg" xmlns:xlink="http://www.w3.org/1999/xlink" x="0px" y="0px"
	 viewBox="0 0 922.8 485.2" style="enable-background:new 0 0 922.8 485.2;" xml:space="preserve">
<style type="text/css">
	.st0{fill:#EDF5FF;}
	.st1{fill:#0F62FE;}
	.st2{fill:#001D6C;}
	.st3{fill:none;}
	.st4{fill:#F4F4F4;}
	.st5{font-family:'IBMPlexSans-Medium';}
	.st6{font-size:16px;}
	.st7{fill:#4589FF;}
	.st8{fill:#E3F6FF;}
	.st9{fill:#161616;}
	.st10{font-family:'IBMPlexSans';}
	.st11{font-size:14px;}
	.st12{fill:#E5F6FF;}
	.st13{fill:none;stroke:#0F62FE;stroke-width:2;stroke-miterlimit:10;}
	.st14{fill:#8A3FFC;}
	.st15{fill:#FFFFFF;}
	.st16{fill:#24A148;}
	.st17{fill:#491D8B;}
	.st18{fill:#BEBEBE;}
	.st19{enable-background:new    ;}
	.st20{fill:none;stroke:#BEBEBE;stroke-width:2;stroke-miterlimit:10;}
</style>
<g id="Group-2_13_" transform="translate(47.000000, 0.000000)">
	<circle id="Oval-Copy-3_15_" class="st0" cx="16.4" cy="41.6" r="24"/>
	<g id="icon_x2F_developer_3_" transform="translate(8.000000, 8.000000)">
		<path id="Shape_16_" class="st1" d="M3.4,36.6c2.8,0,5,2.2,5,5v6h-2v-6c0-1.7-1.3-3-3-3h-4c-1.7,0-3,1.3-3,3v6h-2v-6
			c0-2.8,2.2-5,5-5H3.4z M1.4,24.6c2.8,0,5,2.2,5,5s-2.2,5-5,5s-5-2.2-5-5S-1.3,24.6,1.4,24.6z M16.5,23.5l1.9,0.4L16,34.3l-1.8-0.4
			L16.5,23.5z M11.3,25.2l1.4,1.2L10.6,29l2.1,2.6l-1.4,1.2l-3.1-3.7L11.3,25.2z M21.2,25.2l3.1,3.7l-3.1,3.7l-1.4-1.2l2.1-2.6
			l-2.1-2.6L21.2,25.2z M1.4,26.6c-1.7,0-3,1.3-3,3c0,1.7,1.3,3,3,3s3-1.3,3-3C4.4,27.9,3.1,26.6,1.4,26.6z"/>
	</g>
</g>
<rect id="Rectangle-Copy-12_2_" x="462.4" y="202.1" class="st2" width="216" height="73"/>
<rect x="478.4" y="218.1" class="st3" width="176" height="15.6"/>
<text transform="matrix(1 0 0 1 478.3865 229.9572)" class="st4 st5 st6">Hub de gerenciamento</text>
<rect id="Rectangle-Copy_2_" x="749.4" y="259.1" class="st7" width="152" height="194"/>
<rect x="765.4" y="275.3" class="st3" width="95" height="15.6"/>
<text transform="matrix(1 0 0 1 765.4022 287.1985)" class="st4 st5 st6">Nó de borda</text>
<g>
	<g id="Group-2_14_" transform="translate(21.000000, 0.000000)">
		<circle id="Oval-Copy-3_16_" class="st8" cx="526.4" cy="314.1" r="24"/>
		<g id="icon_x2F_policy-admin_3_" transform="translate(8.000000, 8.000000)">
			<path id="Shape_17_" class="st1" d="M513.4,309.1c2.8,0,5,2.2,5,5v6h-2v-6c0-1.7-1.3-3-3-3h-4c-1.7,0-3,1.3-3,3v6h-2v-6
				c0-2.8,2.2-5,5-5H513.4z M511.4,297.1c2.8,0,5,2.2,5,5s-2.2,5-5,5s-5-2.2-5-5C506.4,299.4,508.7,297.1,511.4,297.1z M530,297.1
				l1.4,1.4l-7.1,7.1l-3.9-3.9l1.4-1.4l2.5,2.5L530,297.1z M511.4,299.1c-1.7,0-3,1.3-3,3s1.3,3,3,3s3-1.3,3-3
				S513.1,299.1,511.4,299.1z"/>
		</g>
	</g>
	<rect x="499.6" y="348.7" class="st3" width="94.5" height="15.5"/>
	<text transform="matrix(1 0 0 1 502.689 359.0733)" class="st9 st10 st11">Administrador</text>
</g>
<g>
	<circle id="Oval-Copy-3_13_" class="st12" cx="843.4" cy="83.6" r="24"/>
	<path class="st1" d="M838.4,86.6c2.8,0,5,2.2,5,5v6h-2v-6c0-1.7-1.3-3-3-3h-4c-1.7,0-3,1.3-3,3v6h-2v-6c0-2.8,2.2-5,5-5H838.4z"/>
	<g>
		<g>
			<path class="st1" d="M836.4,74.6c-2.8,0-5,2.2-5,5s2.2,5,5,5s5-2.2,5-5S839.2,74.6,836.4,74.6z M836.4,82.6c-1.7,0-3-1.3-3-3
				c0-1.7,1.3-3,3-3s3,1.3,3,3C839.4,81.3,838.1,82.6,836.4,82.6z"/>
		</g>
	</g>
	<rect x="846.4" y="72.6" class="st13" width="4" height="4"/>
	<rect x="854.4" y="72.6" class="st13" width="4" height="4"/>
	<rect x="846.4" y="80.6" class="st13" width="4" height="4"/>
	<rect x="854.4" y="80.6" class="st13" width="4" height="4"/>
</g>
<rect id="Rectangle-Copy-18_4_" x="311.4" y="19.1" class="st14" width="120" height="96"/>
<rect x="327.4" y="35.1" class="st3" width="45" height="15.6"/>
<text transform="matrix(1 0 0 1 327.3865 46.9571)" class="st4 st5 st6">App</text>
<rect id="Rectangle-Copy-10_4_" x="327.4" y="67.1" class="st15" width="88" height="32"/>
<rect x="351.4" y="78.1" class="st3" width="46" height="16"/>
<text transform="matrix(1 0 0 1 351.3866 88.477)" class="st9 st10 st11">Segredo</text>
<rect x="335.4" y="75.1" class="st1" width="8" height="16"/>
<rect id="Rectangle-Copy-18_5_" x="311.4" y="131.1" class="st14" width="120" height="96"/>
<rect x="327.4" y="147.1" class="st3" width="73" height="15.6"/>
<text transform="matrix(1 0 0 1 327.3865 158.9571)" class="st4 st5 st6">Service</text>
<rect id="Rectangle-Copy-10_5_" x="327.4" y="179.1" class="st15" width="88" height="32"/>
<rect x="351.4" y="190.1" class="st3" width="46" height="16"/>
<text transform="matrix(1 0 0 1 351.3866 200.477)" class="st9 st10 st11">Segredo</text>
<rect x="335.4" y="187.1" class="st1" width="8" height="16"/>
<rect id="Rectangle-Copy-18_6_" x="765.4" y="341.1" class="st14" width="120" height="96"/>
<rect x="781.4" y="357.1" class="st3" width="73" height="15.6"/>
<text transform="matrix(1 0 0 1 781.3865 368.9571)" class="st4 st5 st6">Service</text>
<rect id="Rectangle-Copy-10_8_" x="781.4" y="389.1" class="st15" width="88" height="32"/>
<rect x="805.4" y="400.1" class="st3" width="46" height="16"/>
<text transform="matrix(1 0 0 1 805.3867 410.477)" class="st9 st10 st11">Segredo</text>
<rect x="789.4" y="397.1" class="st16" width="8" height="16"/>
<rect id="Rectangle-Copy-18_3_" x="141.4" y="291.1" class="st17" width="245" height="104"/>
<rect x="157.4" y="307.1" class="st3" width="75" height="15.6"/>
<text transform="matrix(1 0 0 1 157.3865 318.9571)" class="st4 st5 st6">Política</text>
<rect id="Rectangle-Copy-10_6_" x="151.4" y="339.1" class="st15" width="86" height="32"/>
<rect x="175.4" y="350.1" class="st3" width="46" height="16"/>
<text transform="matrix(1 0 0 1 175.3866 360.477)" class="st9 st10 st11">Segredo</text>
<rect x="159.4" y="347.1" class="st1" width="8" height="16"/>
<rect id="Rectangle-Copy-10_7_" x="284.4" y="339.1" class="st15" width="86" height="32"/>
<rect x="308.4" y="350.1" class="st3" width="46" height="16"/>
<text transform="matrix(1 0 0 1 308.3866 360.477)" class="st9 st10 st11">Segredo</text>
<rect x="292.4" y="347.1" class="st16" width="8" height="16"/>
<path id="Path-4_7_" class="st18" d="M251.4,355.1h19v-6l14,7l-14,7v-6h-19V355.1z"/>
<path id="Path-4_6_" class="st18" d="M270.4,355.1h-19v-6l-14,7l14,7v-6h19V355.1z"/>
<rect x="677.4" y="64.1" class="st3" width="115" height="16"/>
<text transform="matrix(1 0 0 1 681.6475 74.5041)" class="st9 st10 st11">5. Cria segredo</text>
<rect x="167.4" y="36.1" class="st3" width="127" height="16"/>
<rect x="165.4" y="22.6" class="st3" width="139.3" height="32.1"/>
<text transform="matrix(1 0 0 1 165.4022 34.5041)" class="st19"><tspan x="0" y="0" class="st9 st10 st11">1. Desenvolver/ </tspan><tspan x="0" y="16.8" class="st9 st10 st11">testar aplicativos</tspan></text>
<rect x="167.4" y="77.1" class="st3" width="127" height="16"/>
<text transform="matrix(1 0 0 1 158.0689 90.8374)" class="st9 st10 st11">2. Define segredo</text>
<rect x="167.4" y="132.1" class="st3" width="127" height="16"/>
<text transform="matrix(1 0 0 1 134.7356 146.5041)" class="st9 st10 st11">3. Empacota aplicativos</text>
<rect x="441.4" y="149.1" class="st3" width="132" height="16"/>
<text transform="matrix(1 0 0 1 441.4022 159.5041)" class="st9 st10 st11">4. Publica serviços</text>
<rect x="502.4" y="383.1" class="st3" width="203" height="16"/>
<text transform="matrix(1 0 0 1 502.4022 393.5041)" class="st9 st10 st11">6. Cria política de implementação</text>
<rect x="502.4" y="407.1" class="st3" width="203" height="16"/>
<text transform="matrix(1 0 0 1 502.4022 417.5041)" class="st9 st10 st11">7. Vincula segredos</text>
<rect x="502.4" y="431.1" class="st3" width="203" height="16"/>
<text transform="matrix(0.9854 0 0 1 502.4022 441.5038)" class="st9 st10 st11">8. Publica a política de implementação</text>
<g>
	<g>
		<polyline class="st20" points="431.4,168.1 583.4,168.1 583.4,192.1 		"/>
		<g>
			<polygon class="st18" points="576.4,190 583.4,202.1 590.4,190 			"/>
		</g>
	</g>
</g>
<g>
	<g>
		<polyline class="st20" points="103.4,41.1 154.4,41.1 154.4,57.1 301.4,57.1 		"/>
		<g>
			<polygon class="st18" points="299.3,64.1 311.4,57.1 299.3,50.1 			"/>
		</g>
	</g>
</g>
<g>
	<g>
		<polyline class="st20" points="103.4,59.1 136.4,59.1 136.4,97.1 301.4,97.1 		"/>
		<g>
			<polygon class="st18" points="299.3,104.1 311.4,97.1 299.3,90.1 			"/>
		</g>
	</g>
</g>
<g>
	<g>
		<polyline class="st20" points="103.4,77.1 118.4,77.1 118.4,153.1 301.4,153.1 		"/>
		<g>
			<polygon class="st18" points="299.3,160.1 311.4,153.1 299.3,146.1 			"/>
		</g>
	</g>
</g>
<g>
	<g>
		<line class="st20" x1="364.4" y1="291.1" x2="364.4" y2="238.2"/>
		<g>
			<polygon class="st18" points="371.4,240.2 364.4,228.1 357.4,240.2 			"/>
		</g>
	</g>
</g>
<g>
	<g>
		<polyline class="st20" points="489.4,285.2 489.4,456.1 260.4,456.1 260.4,395.1 		"/>
		<g>
			<polygon class="st18" points="482.4,287.2 489.4,275.1 496.4,287.2 			"/>
		</g>
	</g>
</g>
<g>
	<g>
		<polyline class="st20" points="678.4,236.1 839.4,236.1 839.4,249.1 		"/>
		<g>
			<polygon class="st18" points="832.4,247 839.4,259.1 846.4,247 			"/>
		</g>
	</g>
</g>
<g>
	<g id="Rectangle-Copy-10_9_">
		<rect x="565.9" y="66.6" class="st15" width="87" height="33"/>
		<path class="st9" d="M652.4,67.1v32h-86v-32H652.4 M653.4,66.1h-1h-86h-1v1v32v1h1h86h1v-1v-32V66.1L653.4,66.1z"/>
	</g>
	<rect x="590.4" y="78.1" class="st3" width="46" height="16"/>
	<text transform="matrix(1 0 0 1 590.3867 88.477)" class="st9 st10 st11">Segredo</text>
	<rect x="574.4" y="75.1" class="st16" width="8" height="16"/>
</g>
<g>
	<g>
		<line class="st20" x1="806.4" y1="83.1" x2="663.5" y2="83.1"/>
		<g>
			<polygon class="st18" points="665.5,76.1 653.4,83.1 665.5,90.1 			"/>
		</g>
	</g>
</g>
<g>
	<g>
		<line class="st20" x1="609.4" y1="100.1" x2="609.4" y2="192.1"/>
		<g>
			<polygon class="st18" points="602.4,190 609.4,202.1 616.4,190 			"/>
		</g>
	</g>
</g>
<rect x="6.7" y="71.6" class="st3" width="93.7" height="30.6"/>
<text transform="matrix(1 0 0 1 9.2508 81.9239)"><tspan x="0" y="0" class="st9 st10 st11">Desenvolvedo</tspan><tspan x="2.9" y="16.8" class="st9 st10 st11">r de software</tspan></text>
<rect x="796.7" y="117.2" class="st3" width="94.5" height="47.4"/>
<text transform="matrix(1 0 0 1 799.1144 127.5906)"><tspan x="0" y="0" class="st9 st10 st11">Administrador </tspan><tspan x="37.1" y="16.8" class="st9 st10 st11">da </tspan><tspan x="7" y="33.6" class="st9 st10 st11">organização</tspan></text>
<rect x="716.7" y="183.9" class="st3" width="97.3" height="47.4"/>
<text transform="matrix(0.9936 0 0 1 716.7198 194.2571)"><tspan x="0" y="0" class="st9 st10 st11">9. O serviço é </tspan><tspan x="0" y="16.8" class="st9 st10 st11">implementado </tspan><tspan x="0" y="33.6" class="st9 st10 st11">com segredo</tspan></text>
</svg>
