<?xml version="1.0" encoding="UTF-8" standalone="no"?>
<!-- Generator: Adobe Illustrator 24.2.3, SVG Export Plug-In . SVG Version: 6.00 Build 0)  -->

<svg
   xmlns:osb="http://www.openswatchbook.org/uri/2009/osb"
   xmlns:dc="http://purl.org/dc/elements/1.1/"
   xmlns:cc="http://creativecommons.org/ns#"
   xmlns:rdf="http://www.w3.org/1999/02/22-rdf-syntax-ns#"
   xmlns:svg="http://www.w3.org/2000/svg"
   xmlns="http://www.w3.org/2000/svg"
   xmlns:xlink="http://www.w3.org/1999/xlink"
   xmlns:sodipodi="http://sodipodi.sourceforge.net/DTD/sodipodi-0.dtd"
   xmlns:inkscape="http://www.inkscape.org/namespaces/inkscape"
   version="1.1"
   id="Layer_1"
   x="0px"
   y="0px"
   viewBox="0 0 917 514"
   style="enable-background:new 0 0 917 514;"
   xml:space="preserve"
   sodipodi:docname="01_OH_overview.svg"
   inkscape:version="0.92.4 (5da689c313, 2019-01-14)"><metadata
   id="metadata165"><rdf:RDF><cc:Work
       rdf:about=""><dc:format>image/svg+xml</dc:format><dc:type
         rdf:resource="http://purl.org/dc/dcmitype/StillImage" /></cc:Work></rdf:RDF></metadata><defs
   id="defs163"><linearGradient
     id="linearGradient1038"
     osb:paint="solid"><stop
       style="stop-color:#000000;stop-opacity:1;"
       offset="0"
       id="stop1036" /></linearGradient><linearGradient
     inkscape:collect="always"
     xlink:href="#linearGradient1038"
     id="linearGradient1134"
     gradientUnits="userSpaceOnUse"
     gradientTransform="translate(34,-10)"
     x1="646.68695"
     y1="172.38321"
     x2="876.8432"
     y2="172.38321" /></defs><sodipodi:namedview
   pagecolor="#ffffff"
   bordercolor="#666666"
   borderopacity="1"
   objecttolerance="10"
   gridtolerance="10"
   guidetolerance="10"
   inkscape:pageopacity="0"
   inkscape:pageshadow="2"
   inkscape:window-width="1366"
   inkscape:window-height="705"
   id="namedview161"
   showgrid="false"
   inkscape:zoom="0.91828794"
   inkscape:cx="479.08068"
   inkscape:cy="202.59093"
   inkscape:window-x="-8"
   inkscape:window-y="-8"
   inkscape:window-maximized="1"
   inkscape:current-layer="Layer_1" />
<style
   type="text/css"
   id="style2">
	.st0{fill-rule:evenodd;clip-rule:evenodd;fill:#E3F6FF;}
	.st1{fill-rule:evenodd;clip-rule:evenodd;fill:#0F62FE;}
	.st2{fill-rule:evenodd;clip-rule:evenodd;fill:#408BFC;}
	.st3{fill-rule:evenodd;clip-rule:evenodd;fill:#FFFFFF;}
	.st4{fill-rule:evenodd;clip-rule:evenodd;fill:#009C98;}
	.st5{fill-rule:evenodd;clip-rule:evenodd;fill:#051B75;}
	.st6{fill:#161616;}
	.st7{font-family:'IBMPlexSans';}
	.st8{font-size:14px;}
	.st9{fill:none;stroke:#BEBEBE;stroke-width:2;stroke-linecap:square;}
	.st10{fill:#BEBEBE;}
	.st11{fill-rule:evenodd;clip-rule:evenodd;fill:#F4F4F4;}
	.st12{fill-rule:evenodd;clip-rule:evenodd;fill:none;}
	.st13{fill:#F4F4F4;}
	.st14{font-family:'IBMPlexSans-Medium';}
	.st15{font-size:16px;}
	.st16{font-size:12px;}
	.st17{fill:none;}
</style>
<g
   id="Group-2"
   transform="translate(21.000000, 0.000000)">
	<circle
   id="Oval-Copy-3"
   class="st0"
   cx="24"
   cy="205"
   r="24" />
	<g
   id="icon_x2F_policy-admin"
   transform="translate(8.000000, 8.000000)">
		<path
   id="Shape"
   class="st1"
   d="M11,200c2.8,0,5,2.2,5,5v6h-2v-6c0-1.7-1.3-3-3-3H7c-1.7,0-3,1.3-3,3v6H2v-6c0-2.8,2.2-5,5-5H11z     M9,188c2.8,0,5,2.2,5,5s-2.2,5-5,5s-5-2.2-5-5S6.2,188,9,188z M27.6,188l1.4,1.4l-7.1,7.1l-3.9-3.9l1.4-1.4l2.5,2.5L27.6,188z     M9,190c-1.7,0-3,1.3-3,3c0,1.7,1.3,3,3,3s3-1.3,3-3S10.7,190,9,190z" />
	</g>
</g>
<g
   id="Group-2_1_"
   transform="translate(21.000000, 0.000000)">
	<circle
   id="Oval-Copy-3_1_"
   class="st0"
   cx="331"
   cy="463"
   r="24" />
	<g
   id="icon_x2F_node-owner"
   transform="translate(8.000000, 8.000000)">
		<g
   id="Group-23"
   transform="translate(2.000000, 4.000000)">
			<path
   id="Shape_1_"
   class="st1"
   d="M316,454c2.8,0,5,2.2,5,5v6h-2v-6c0-1.7-1.3-3-3-3h-4c-1.7,0-3,1.3-3,3v6h-2v-6     c0-2.8,2.2-5,5-5H316z M314,442c2.8,0,5,2.2,5,5s-2.2,5-5,5s-5-2.2-5-5S311.2,442,314,442z M327,450v2h-2v-2H327z M332,450v2h-2     v-2H332z M314,444c-1.7,0-3,1.3-3,3c0,1.7,1.3,3,3,3s3-1.3,3-3S315.7,444,314,444z M335,447v2h-2v-2H335z M324,447v2h-2v-2H324z      M332,442v7h-7v-7H332z M330,444h-3v3h3V444z M335,442v2h-2v-2H335z M324,442v2h-2v-2H324z M327,439v2h-2v-2H327z M332,439v2h-2     v-2H332z" />
		</g>
	</g>
</g>
<g
   id="Group-2_2_"
   transform="translate(27.000000, 0.000000)">
	<circle
   id="Oval-Copy-3_2_"
   class="st0"
   cx="226"
   cy="48"
   r="24" />
	<g
   id="icon_x2F_cloud-installer"
   transform="translate(8.000000, 8.000000)">
		<path
   id="Shape_2_"
   class="st1"
   d="M213,43c2.8,0,5,2.2,5,5v6h-2v-6c0-1.7-1.3-3-3-3h-4c-1.7,0-3,1.3-3,3v6h-2v-6c0-2.8,2.2-5,5-5    H213z M211,31c2.8,0,5,2.2,5,5s-2.2,5-5,5s-5-2.2-5-5S208.2,31,211,31z M226,28.9c2.1,0,3.9,1.4,4.5,3.4l0.1,0.2l0,0.1l0,0    c1.3,0.5,2.2,1.7,2.3,3.1l0,0.2l0,0.2c0,2.1-1.6,3.7-3.7,3.9l-0.2,0h-6.3c-2.1,0-3.9-1.7-3.9-3.9c0-1.5,0.9-2.8,2.2-3.5l0.2-0.1    l0-0.1c0.5-1.9,2.1-3.4,4.1-3.6l0.2,0L226,28.9z M211,33c-1.7,0-3,1.3-3,3c0,1.7,1.3,3,3,3s3-1.3,3-3S212.7,33,211,33z M226,30.9    c-1.4,0-2.5,1-2.7,2.4l0,0.2l0,0.8l-0.8,0.2c-0.9,0.2-1.5,0.9-1.5,1.8c0,1,0.8,1.8,1.7,1.9l0.1,0h6.3c1,0,1.9-0.8,1.9-1.9    c0-0.8-0.6-1.6-1.3-1.8l-0.1,0l-0.8-0.2l0-0.8C228.6,32,227.4,30.9,226,30.9z" />
	</g>
</g>
<g
   id="Group-2_3_"
   transform="translate(47.000000, 0.000000)">
	<circle
   id="Oval-Copy-3_3_"
   class="st0"
   cx="485"
   cy="48"
   r="24" />
	<g
   id="icon_x2F_developer"
   transform="translate(8.000000, 8.000000)">
		<path
   id="Shape_3_"
   class="st1"
   d="M472,43c2.8,0,5,2.2,5,5v6h-2v-6c0-1.7-1.3-3-3-3h-4c-1.7,0-3,1.3-3,3v6h-2v-6c0-2.8,2.2-5,5-5    H472z M470,31c2.8,0,5,2.2,5,5s-2.2,5-5,5s-5-2.2-5-5S467.2,31,470,31z M485.1,29.9l1.8,0.4l-2.4,10.4l-1.8-0.4L485.1,29.9z     M479.9,31.6l1.4,1.2l-2.1,2.6l2.1,2.6l-1.4,1.2l-3.1-3.7L479.9,31.6z M489.7,31.6l3.1,3.7l-3.1,3.7l-1.4-1.2l2.1-2.6l-2.1-2.6    L489.7,31.6z M470,33c-1.7,0-3,1.3-3,3c0,1.7,1.3,3,3,3s3-1.3,3-3S471.7,33,470,33z" />
	</g>
</g>
<rect
   id="Rectangle-Copy"
   x="453"
   y="323"
   class="st2"
   width="304"
   height="157" />
<rect
   id="Rectangle-Copy-9"
   x="469"
   y="383"
   class="st3"
   width="80"
   height="81" />
<rect
   id="Rectangle-Copy-10"
   x="661"
   y="383"
   class="st3"
   width="80"
   height="81" />
<rect
   id="Rectangle-Copy-11"
   x="709"
   y="127"
   class="st4"
   width="208"
   height="155" />
<rect
   id="Rectangle-Copy-12"
   x="230.2"
   y="127"
   class="st5"
   width="439.2"
   height="155" />
<text
   transform="matrix(1 0 0 1 389.1527 14)"
   class="st6 st7 st8"
   id="text26"> </text>

<path
   id="Line-3-Copy"
   class="st9"
   d="M387.3,464.5c0,0,22.9,0,65.7,0C410.2,464.5,387.3,464.5,387.3,464.5z" />
<g
   id="Group-4-Copy"
   transform="translate(680.000000, 87.500000) scale(1, -1) translate(-680.000000, -87.500000) translate(565.000000, 48.000000)">
	<path
   id="Path-2-Copy-5"
   class="st10"
   d="M230,0.5l7,14h-6V80H-1v-2h230V14.5h-6L230,0.5z" />
</g>
<path
   id="Line-7"
   class="st10"
   d="M626,48.5v64h6l-7,14l-7-14h6v-64H626z" />
<path
   id="Path-2-Copy-11"
   class="st10"
   d="M647,417l14,7l-14,7l0-6h-98v-2h98L647,417z" />
<g
   id="icon_x2F_device_x2F_16"
   transform="translate(607.99727,362.10082)">
	<path
   id="Shape_4_"
   class="st11"
   d="m 9,1 c 0.6,0 1,0.4 1,1 0,0.5 -0.4,0.9 -0.8,1 L 8.7,4 H 12 c 1.1,0 2,0.9 2,2 v 5 c 0,1.1 -0.9,2 -2,2 H 4 C 2.9,13 2,12.1 2,11 V 6 C 2,4.9 2.9,4 4,4 H 7.7 L 8.3,2.6 C 8.1,2.5 8,2.3 8,2.1 V 2 C 8,1.4 8.4,1 9,1 Z m 3,4 H 4 C 3.5,5 3.1,5.4 3,5.9 V 6 11 c 0,0.5 0.4,0.9 0.9,1 H 4 12 c 0.5,0 0.9,-0.4 1,-0.9 V 11 6 C 13,5.5 12.6,5.1 12.1,5 Z m -1.5,5 c 0.3,0 0.5,0.2 0.5,0.5 0,0.3 -0.2,0.5 -0.5,0.5 h -5 C 5.2,11 5,10.8 5,10.5 5,10.2 5.2,10 5.5,10 Z M 5.5,6 C 6.3,6 7,6.7 7,7.5 7,8.3 6.3,9 5.5,9 4.7,9 4,8.3 4,7.5 4,6.7 4.7,6 5.5,6 Z m 5,0 C 11.3,6 12,6.7 12,7.5 12,8.3 11.3,9 10.5,9 9.7,9 9,8.3 9,7.5 9,6.7 9.7,6 10.5,6 Z m -5,1 C 5.2,7 5,7.2 5,7.5 5,7.8 5.2,8 5.5,8 5.8,8 6,7.8 6,7.5 6,7.2 5.8,7 5.5,7 Z m 5,0 C 10.2,7 10,7.2 10,7.5 10,7.8 10.2,8 10.5,8 10.8,8 11,7.8 11,7.5 11,7.2 10.8,7 10.5,7 Z"
   inkscape:connector-curvature="0"
   style="clip-rule:evenodd;fill:#f4f4f4;fill-rule:evenodd" />
</g>
<g
   id="icon_x2F_cluster_x2F_16"
   transform="translate(606.000000, 339.000000)">
	<path
   id="Shape_5_"
   class="st11"
   d="M8,3.5c0.8,0,1.5-0.7,1.5-1.5c0-0.8-0.7-1.5-1.5-1.5C7.2,0.5,6.5,1.2,6.5,2   C6.5,2.8,7.2,3.5,8,3.5z M8,1.5c0.3,0,0.5,0.2,0.5,0.5c0,0.3-0.2,0.5-0.5,0.5C7.7,2.5,7.5,2.3,7.5,2C7.5,1.7,7.7,1.5,8,1.5z    M12.8,5.9c0.8,0,1.5-0.7,1.5-1.5c0-0.8-0.7-1.5-1.5-1.5c-0.8,0-1.5,0.7-1.5,1.5C11.3,5.2,12,5.9,12.8,5.9z M12.8,3.9   c0.3,0,0.5,0.2,0.5,0.5c0,0.3-0.2,0.5-0.5,0.5c-0.3,0-0.5-0.2-0.5-0.5C12.3,4.1,12.5,3.9,12.8,3.9L12.8,3.9z M2.2,8.1   c-0.8,0-1.5,0.7-1.5,1.5c0,0.8,0.7,1.5,1.5,1.5c0.8,0,1.5-0.7,1.5-1.5C3.7,8.8,3.1,8.1,2.2,8.1z M2.2,10.1c-0.3,0-0.5-0.2-0.5-0.5   c0-0.3,0.2-0.5,0.5-0.5c0.3,0,0.5,0.2,0.5,0.5C2.7,9.9,2.5,10.1,2.2,10.1z M3.2,5.9c0.8,0,1.5-0.7,1.5-1.5c0-0.8-0.7-1.5-1.5-1.5   c-0.8,0-1.5,0.7-1.5,1.5C1.7,5.2,2.4,5.9,3.2,5.9L3.2,5.9z M3.2,3.9c0.3,0,0.5,0.2,0.5,0.5c0,0.3-0.2,0.5-0.5,0.5   C3,4.9,2.7,4.7,2.7,4.4C2.7,4.1,2.9,3.9,3.2,3.9L3.2,3.9z M13.8,8.1c-0.8,0-1.5,0.7-1.5,1.5c0,0.8,0.7,1.5,1.5,1.5   c0.8,0,1.5-0.7,1.5-1.5C15.3,8.8,14.6,8.1,13.8,8.1z M13.8,10.1c-0.3,0-0.5-0.2-0.5-0.5c0-0.3,0.2-0.5,0.5-0.5   c0.3,0,0.5,0.2,0.5,0.5C14.3,9.9,14,10.1,13.8,10.1z M10.4,12c-0.8,0-1.5,0.7-1.5,1.5c0,0.8,0.7,1.5,1.5,1.5c0.8,0,1.5-0.7,1.5-1.5   C11.9,12.7,11.3,12,10.4,12L10.4,12z M10.4,14c-0.3,0-0.5-0.2-0.5-0.5c0-0.3,0.2-0.5,0.5-0.5c0.3,0,0.5,0.2,0.5,0.5   c0,0.1-0.1,0.3-0.1,0.4C10.7,13.9,10.6,14,10.4,14z M5.6,12c-0.8,0-1.5,0.7-1.5,1.5c0,0.8,0.7,1.5,1.5,1.5c0.8,0,1.5-0.7,1.5-1.5   C7.1,12.7,6.4,12,5.6,12L5.6,12z M5.6,14c-0.3,0-0.5-0.2-0.5-0.5c0-0.3,0.2-0.5,0.5-0.5c0.3,0,0.5,0.2,0.5,0.5   C6.1,13.8,5.8,14,5.6,14z M11,8c0-1.7-1.3-3-3-3C6.3,5,5,6.3,5,8c0,1.7,1.3,3,3,3C9.7,11,11,9.7,11,8z M8,10c-1.1,0-2-0.9-2-2   c0-1.1,0.9-2,2-2c1.1,0,2,0.9,2,2c0,0.5-0.2,1-0.6,1.4C9,9.8,8.5,10,8,10z" />
</g>
<path
   id="Line-Copy"
   class="st10"
   d="M215.8,199.5l14,7l-14,7l0-6L83,208l-1,0l0-2l1,0l132.8-0.5L215.8,199.5z" />
<path
   id="Path-4"
   class="st10"
   d="M409.2,282v141H455v-6l14,7l-14,7v-6h-47.8V282H409.2z" />
<path
   id="Path-5"
   class="st10"
   d="M277,282l7,14h-6v167.5h37.5v2H276V296h-6L277,282z" />
<path
   id="Line-6"
   class="st10"
   d="M441,47v66h6l-7,14l-7-14h6V49H289.5v-2H441z" />
<path
   id="Path-3"
   class="st10"
   d="M796,282v143h-41l0,6l-14-7l14-7l0,6h39l0-141H796z" />
<rect
   x="299.5"
   y="3.7"
   class="st12"
   width="130.8"
   height="37.3"
   id="rect42" />
<text
   id="text48"
   style="font-size:14px;-inkscape-font-specification:'Source Han Sans JP, Normal';font-family:'Source Han Sans JP';font-weight:normal;font-style:normal;font-stretch:normal;font-variant:normal;text-anchor:middle;text-align:center;writing-mode:lr;font-variant-ligatures:normal;font-variant-caps:normal;font-variant-numeric:normal;font-feature-settings:normal;"
   x="363.28287"
   y="14.0313"><tspan
     sodipodi:role="line"
     id="tspan976"
     x="363.28287"
     y="14.0313"
     style="text-align:center;text-anchor:middle;-inkscape-font-specification:'Source Han Sans JP, Normal';font-family:'Source Han Sans JP';font-weight:normal;font-style:normal;font-stretch:normal;font-variant:normal;font-size:14px;writing-mode:lr;font-variant-ligatures:normal;font-variant-caps:normal;font-variant-numeric:normal;font-feature-settings:normal;">管理ハブを</tspan><tspan
     sodipodi:role="line"
     id="tspan978"
     x="363.28287"
     y="32.539925"
     style="text-align:center;text-anchor:middle;-inkscape-font-specification:'Source Han Sans JP, Normal';font-family:'Source Han Sans JP';font-weight:normal;font-style:normal;font-stretch:normal;font-variant:normal;font-size:14px;writing-mode:lr;font-variant-ligatures:normal;font-variant-caps:normal;font-variant-numeric:normal;font-feature-settings:normal;">インストールする</tspan></text>

<rect
   x="82"
   y="163.3"
   class="st12"
   width="133.6"
   height="37.3"
   id="rect50" />
<text
   id="text56"
   style="font-style:normal;font-variant:normal;font-weight:normal;font-stretch:normal;font-size:14px;font-family:'Source Han Sans JP';-inkscape-font-specification:'Source Han Sans JP, Normal';font-variant-ligatures:normal;font-variant-caps:normal;font-variant-numeric:normal;font-feature-settings:normal;text-align:start;writing-mode:lr-tb;text-anchor:start"
   x="153.3069"
   y="177.69521"><tspan
     sodipodi:role="line"
     id="tspan982"
     x="153.3069"
     y="177.69521"
     style="text-align:center;text-anchor:middle">デプロイメントを</tspan><tspan
     sodipodi:role="line"
     id="tspan984"
     x="153.3069"
     y="195.19521"
     style="text-align:center;text-anchor:middle">管理する</tspan></text>

<rect
   x="459.5"
   y="82.6"
   class="st12"
   width="143.7"
   height="15.6"
   id="rect58" />
<text
   class="st6 st7 st8"
   id="text60"
   style="font-style:normal;font-variant:normal;font-weight:normal;font-stretch:normal;font-size:14px;font-family:'Source Han Sans JP';-inkscape-font-specification:'Source Han Sans JP, Normal';font-variant-ligatures:normal;font-variant-caps:normal;font-variant-numeric:normal;font-feature-settings:normal;text-align:start;writing-mode:lr-tb;text-anchor:start;fill:#161616"
   x="468.68951"
   y="92.977699">ソフトウェア開発者</text>

<rect
   x="180.5"
   y="82.6"
   class="st12"
   width="143.7"
   height="15.6"
   id="rect62" />
<text
   class="st6 st7 st8"
   id="text64"
   x="167.79601"
   y="92.933701"
   style="font-size:14px;font-family:IBMPlexSans;fill:#161616"><tspan
     style="font-style:normal;font-variant:normal;font-weight:normal;font-stretch:normal;font-family:'Source Han Sans JP';-inkscape-font-specification:'Source Han Sans JP'"
     id="tspan980">クラウド・インストーラー</tspan></text>

<rect
   x="807"
   y="343.4"
   class="st12"
   width="97.1"
   height="41.6"
   id="rect66" />
<text
   id="text72"
   style="font-style:normal;font-variant:normal;font-weight:normal;font-stretch:normal;font-size:14px;font-family:'Source Han Sans JP';-inkscape-font-specification:'Source Han Sans JP, Normal';font-variant-ligatures:normal;font-variant-caps:normal;font-variant-numeric:normal;font-feature-settings:normal;text-align:start;writing-mode:lr-tb;text-anchor:start"
   x="803.00012"
   y="353.75961"><tspan
     sodipodi:role="line"
     id="tspan990"
     x="803.00012"
     y="353.75961">コンテナーを</tspan><tspan
     sodipodi:role="line"
     id="tspan992"
     x="803.00012"
     y="371.25961">プルする</tspan></text>

<rect
   x="563.8"
   y="23.7"
   class="st12"
   width="232"
   height="15.6"
   id="rect74" />
<text
   transform="matrix(1 0 0 1 578.9702 34.0099)"
   class="st6 st7 st8"
   id="text76"
   style="-inkscape-font-specification:'Source Han Sans JP, Normal';font-family:'Source Han Sans JP';font-weight:normal;font-style:normal;font-stretch:normal;font-variant:normal;font-size:14px;text-anchor:start;text-align:start;writing-mode:lr;font-variant-ligatures:normal;font-variant-caps:normal;font-variant-numeric:normal;font-feature-settings:normal;">サービスを開発して公開する</text>

<rect
   x="745"
   y="144.9"
   class="st12"
   width="162.3"
   height="15.6"
   id="rect78" />
<text
   transform="translate(744.9996,156.7782)"
   class="st13 st14 st15"
   id="text80"
   style="font-style:normal;font-variant:normal;font-weight:normal;font-stretch:normal;font-size:16px;font-family:'Source Han Sans JP';-inkscape-font-specification:'Source Han Sans JP, Normal';font-variant-ligatures:normal;font-variant-caps:normal;font-variant-numeric:normal;font-feature-settings:normal;text-align:start;writing-mode:lr-tb;text-anchor:start;fill:#f4f4f4"><tspan
     sodipodi:role="line"
     id="tspan1028"
     x="0"
     y="0">コンテナー・</tspan><tspan
     sodipodi:role="line"
     id="tspan1030"
     x="0"
     y="20" /></text>

<rect
   x="245.8"
   y="147.1"
   class="st12"
   width="236.1"
   height="15.6"
   id="rect82" />
<text
   transform="matrix(1 0 0 1 245.8172 158.9718)"
   class="st13 st14 st15"
   id="text84"
   style="-inkscape-font-specification:'Source Han Sans JP, Normal';font-family:'Source Han Sans JP';font-weight:normal;font-style:normal;font-stretch:normal;font-variant:normal;font-size:16px;text-anchor:start;text-align:start;writing-mode:lr;font-variant-ligatures:normal;font-variant-caps:normal;font-variant-numeric:normal;font-feature-settings:normal;">管理ハブ</text>

<rect
   x="469"
   y="343.2"
   class="st12"
   width="95"
   height="15.6"
   id="rect86" />
<text
   transform="matrix(1 0 0 1 469.0002 355.0536)"
   class="st13 st14 st15"
   id="text88"
   style="-inkscape-font-specification:'Source Han Sans JP, Normal';font-family:'Source Han Sans JP';font-weight:normal;font-style:normal;font-stretch:normal;font-variant:normal;font-size:16px;text-anchor:start;text-align:start;writing-mode:lr;font-variant-ligatures:normal;font-variant-caps:normal;font-variant-numeric:normal;font-feature-settings:normal;">エッジ・ノード</text>

<rect
   x="174"
   y="346.6"
   class="st12"
   width="90.6"
   height="87.4"
   id="rect90" />
<text
   id="text100"
   style="font-style:normal;font-variant:normal;font-weight:normal;font-stretch:normal;font-size:14px;font-family:'Source Han Sans JP';-inkscape-font-specification:'Source Han Sans JP, Normal';font-variant-ligatures:normal;font-variant-caps:normal;font-variant-numeric:normal;font-feature-settings:normal;text-align:end;writing-mode:lr-tb;text-anchor:end"
   x="270.50909"
   y="356.97699"><tspan
     sodipodi:role="line"
     id="tspan1014"
     x="270.50909"
     y="356.97699">ノードを</tspan><tspan
     sodipodi:role="line"
     id="tspan1016"
     x="270.50909"
     y="374.47699">管理ハブに</tspan><tspan
     sodipodi:role="line"
     id="tspan1018"
     x="270.50909"
     y="391.97699">登録する</tspan></text>

<rect
   x="305.1"
   y="323.4"
   class="st12"
   width="90.6"
   height="56.2"
   id="rect102" />
<text
   id="text110"
   style="font-style:normal;font-variant:normal;font-weight:normal;font-stretch:normal;font-size:14px;font-family:'Source Han Sans JP';-inkscape-font-specification:'Source Han Sans JP, Normal';font-variant-ligatures:normal;font-variant-caps:normal;font-variant-numeric:normal;font-feature-settings:normal;text-align:end;writing-mode:lr-tb;text-anchor:end"
   x="400.64401"
   y="329.09622"><tspan
     sodipodi:role="line"
     id="tspan1004"
     x="400.64401"
     y="329.09622">サービス・</tspan><tspan
     sodipodi:role="line"
     id="tspan1006"
     x="400.64401"
     y="346.59622">デプロイメント</tspan><tspan
     sodipodi:role="line"
     id="tspan1008"
     x="400.64401"
     y="364.09622">指示を取得する</tspan></text>

<rect
   x="477"
   y="407.6"
   class="st12"
   width="64"
   height="43.6"
   id="rect112" />
<text
   id="text118"
   style="font-style:normal;font-variant:normal;font-weight:normal;font-stretch:normal;font-size:14px;font-family:'Source Han Sans JP';-inkscape-font-specification:'Source Han Sans JP, Normal';font-variant-ligatures:normal;font-variant-caps:normal;font-variant-numeric:normal;font-feature-settings:normal;text-align:center;writing-mode:lr-tb;text-anchor:middle"
   x="509.08951"
   y="419.98141"><tspan
     sodipodi:role="line"
     id="tspan994"
     x="509.08951"
     y="419.98141">エッジ・</tspan><tspan
     sodipodi:role="line"
     id="tspan996"
     x="509.08951"
     y="437.48141">エージェント</tspan></text>

<rect
   x="669"
   y="407.6"
   class="st12"
   width="64"
   height="43.6"
   id="rect120" />
<text
   id="text126"
   style="font-style:normal;font-variant:normal;font-weight:normal;font-stretch:normal;font-size:14px;font-family:'Source Han Sans JP';-inkscape-font-specification:'Source Han Sans JP, Normal';font-variant-ligatures:normal;font-variant-caps:normal;font-variant-numeric:normal;font-feature-settings:normal;text-align:start;writing-mode:lr-tb;text-anchor:start"
   x="679.08948"
   y="417.98141"><tspan
     x="679.08948"
     y="417.98141"
     class="st6 st7 st8"
     id="tspan122"
     style="font-style:normal;font-variant:normal;font-weight:normal;font-stretch:normal;font-size:14px;font-family:'Source Han Sans JP';-inkscape-font-specification:'Source Han Sans JP, Normal';font-variant-ligatures:normal;font-variant-caps:normal;font-variant-numeric:normal;font-feature-settings:normal;text-align:start;writing-mode:lr-tb;text-anchor:start;fill:#161616">エッジ・</tspan><tspan
     x="672.18951"
     y="437.98141"
     class="st6 st7 st8"
     id="tspan124"
     style="font-style:normal;font-variant:normal;font-weight:normal;font-stretch:normal;font-size:14px;font-family:'Source Han Sans JP';-inkscape-font-specification:'Source Han Sans JP, Normal';font-variant-ligatures:normal;font-variant-caps:normal;font-variant-numeric:normal;font-feature-settings:normal;text-align:start;writing-mode:lr-tb;text-anchor:start;fill:#161616">サービス</tspan></text>

<rect
   x="549"
   y="399.6"
   class="st12"
   width="98"
   height="14.7"
   id="rect128" />
<text
   class="st13 st7 st8"
   id="text130"
   style="font-style:normal;font-variant:normal;font-weight:normal;font-stretch:normal;font-size:14px;font-family:'Source Han Sans JP';-inkscape-font-specification:'Source Han Sans JP, Normal';font-variant-ligatures:normal;font-variant-caps:normal;font-variant-numeric:normal;font-feature-settings:normal;text-align:start;writing-mode:lr-tb;text-anchor:start;fill:#f4f4f4"
   x="571.9281"
   y="409.9584">実行する</text>

<rect
   x="625"
   y="342.2"
   class="st12"
   width="58.9"
   height="14.7"
   id="rect132" />
<text
   class="st13 st7 st16"
   id="text134"
   style="font-style:normal;font-variant:normal;font-weight:normal;font-stretch:normal;font-size:12px;font-family:'Source Han Sans JP';-inkscape-font-specification:'Source Han Sans JP, Normal';font-variant-ligatures:normal;font-variant-caps:normal;font-variant-numeric:normal;font-feature-settings:normal;text-align:start;writing-mode:lr-tb;text-anchor:start;fill:#f4f4f4"
   x="624.99988"
   y="351.0321">クラスターまたは</text>

<rect
   x="703"
   y="342.2"
   class="st12"
   width="44.5"
   height="14.7"
   id="rect136" />
<text
   class="st13 st7 st16"
   id="text138"
   style="font-style:normal;font-variant:normal;font-weight:normal;font-stretch:normal;font-size:12px;font-family:'Source Han Sans JP';-inkscape-font-specification:'Source Han Sans JP, Normal';font-variant-ligatures:normal;font-variant-caps:normal;font-variant-numeric:normal;font-feature-settings:normal;text-align:start;writing-mode:lr-tb;text-anchor:start;fill:#f4f4f4"
   x="625.99719"
   y="374.1329">デバイス</text>

<rect
   x="306.1"
   y="497.6"
   class="st12"
   width="90.6"
   height="15.5"
   id="rect140" />
<text
   class="st6 st7 st8"
   id="text142"
   style="font-style:normal;font-variant:normal;font-weight:normal;font-stretch:normal;font-size:14px;font-family:'Source Han Sans JP';-inkscape-font-specification:'Source Han Sans JP, Normal';font-variant-ligatures:normal;font-variant-caps:normal;font-variant-numeric:normal;font-feature-settings:normal;text-align:start;writing-mode:lr-tb;text-anchor:start;fill:#161616"
   x="308.60361"
   y="507.99649">ノード所有者</text>

<rect
   x="-2.8"
   y="239.6"
   class="st12"
   width="94.5"
   height="15.5"
   id="rect144" />
<text
   class="st6 st7 st8"
   id="text146"
   style="font-style:normal;font-variant:normal;font-weight:normal;font-stretch:normal;font-size:14px;font-family:'Source Han Sans JP';-inkscape-font-specification:'Source Han Sans JP, Normal';font-variant-ligatures:normal;font-variant-caps:normal;font-variant-numeric:normal;font-feature-settings:normal;text-align:start;writing-mode:lr-tb;text-anchor:start;fill:#161616"
   x="22.286701"
   y="249.9286">管理者</text>

<g
   id="g157">
	<path
   class="st13"
   d="M737,144.5h-8c-0.6,0-1,0.4-1,1v11c0,0.6,0.4,1,1,1h8c0.6,0,1-0.4,1-1v-11C738,145,737.6,144.5,737,144.5z    M737,145.5v3h-8v-3H737z M729,152.5v-3h8v3H729z M729,156.5v-3h8v3H729z"
   id="path148" />
	<circle
   class="st13"
   cx="730.5"
   cy="147"
   r="0.5"
   id="circle150" />
	<circle
   class="st13"
   cx="730.5"
   cy="151"
   r="0.5"
   id="circle152" />
	<circle
   class="st13"
   cx="730.5"
   cy="155"
   r="0.5"
   id="circle154" />
	<rect
   id="_x3C_Transparent_Rectangle_x3E__616_"
   x="725"
   y="143"
   class="st17"
   width="16"
   height="16" />
</g>
<g
   id="Layer_2">
</g>
<text
   xml:space="preserve"
   style="font-style:normal;font-variant:normal;font-weight:normal;font-stretch:normal;font-size:16px;line-height:1.25;font-family:'Source Han Sans JP';-inkscape-font-specification:'Source Han Sans JP, Normal';font-variant-ligatures:normal;font-variant-caps:normal;font-variant-numeric:normal;font-feature-settings:normal;text-align:center;letter-spacing:0px;word-spacing:0px;writing-mode:lr-tb;text-anchor:middle;fill:#ffffff;fill-opacity:1;stroke:none"
   x="794.8432"
   y="177.30508"
   id="text1034"><tspan
     sodipodi:role="line"
     id="tspan1032"
     x="796.64008"
     y="177.30508"
     style="font-style:normal;font-variant:normal;font-weight:normal;font-stretch:normal;font-size:16px;font-family:'Source Han Sans JP';-inkscape-font-specification:'Source Han Sans JP, Normal';font-variant-ligatures:normal;font-variant-caps:normal;font-variant-numeric:normal;font-feature-settings:normal;text-align:center;writing-mode:lr-tb;text-anchor:middle;fill:#ffffff;fill-opacity:1">レジストリー </tspan></text>
</svg>
