<?xml version="1.0" encoding="utf-8"?>
<!-- Generator: Adobe Illustrator 21.1.0, SVG Export Plug-In . SVG Version: 6.00 Build 0)  -->
<svg version="1.1" id="Layer_1" xmlns="http://www.w3.org/2000/svg" xmlns:xlink="http://www.w3.org/1999/xlink" x="0px" y="0px"
	 viewBox="0 0 1081.8 569.2" style="enable-background:new 0 0 1081.8 569.2;" xml:space="preserve">
<style type="text/css">
	.st0{fill:#BEBEBE;}
	.st1{fill:#E3F6FF;}
	.st2{fill:#0F62FE;}
	.st3{fill:#009C98;}
	.st4{fill:#408BFC;}
	.st5{fill:#F4F4F4;}
	.st6{fill:#FFFFFF;}
	.st7{fill:#DCDCDC;}
	.st8{fill:none;stroke:#BEBEBE;stroke-width:2;}
	.st9{fill:#051B75;}
	.st10{fill:none;}
	.st11{fill:#161616;}
	.st12{font-family:'IBMPlexSans';}
	.st13{font-size:14px;}
	.st14{font-family:'IBMPlexSans-Medium';}
	.st15{font-size:16px;}
	.st16{font-size:12px;}
</style>
<path id="Line-4" class="st0" d="M56.4,87.4v256.2h362.5v-147h-6l7-14l7,14h-6v149H54.4V87.4H56.4z"/>
<path id="Line-4-Copy-2" class="st0" d="M862.4,87.4v59.8h-44.5v6l-14-7l14-7v6h42.5V87.4H862.4z"/>
<circle id="Oval-Copy-3" class="st1" cx="861.9" cy="52.6" r="24"/>
<path id="Shape" class="st2" d="M856.9,55.6c2.8,0,5,2.2,5,5v6h-2v-6c0-1.7-1.3-3-3-3h-4c-1.7,0-3,1.3-3,3v6h-2v-6c0-2.8,2.2-5,5-5
	H856.9z M854.9,43.6c2.8,0,5,2.2,5,5s-2.2,5-5,5s-5-2.2-5-5S852.1,43.6,854.9,43.6z M873.5,43.6l1.4,1.4l-7.1,7.1l-3.9-3.9l1.4-1.4
	l2.5,2.5L873.5,43.6z M854.9,45.6c-1.7,0-3,1.3-3,3s1.3,3,3,3s3-1.3,3-3S856.6,45.6,854.9,45.6z"/>
<circle id="Oval-Copy-3_1_" class="st1" cx="54.9" cy="52.6" r="24"/>
<path id="Shape_1_" class="st2" d="M49.9,55.6c2.8,0,5,2.2,5,5v6h-2v-6c0-1.7-1.3-3-3-3h-4c-1.7,0-3,1.3-3,3v6h-2v-6
	c0-2.8,2.2-5,5-5H49.9z M47.9,43.6c2.8,0,5,2.2,5,5s-2.2,5-5,5s-5-2.2-5-5S45.1,43.6,47.9,43.6z M63,42.5l1.8,0.4l-2.4,10.4
	l-1.8-0.4L63,42.5z M57.8,44.2l1.4,1.2L57.1,48l2.1,2.6l-1.4,1l-3.1-3.7L57.8,44.2z M67.6,44.2l3.1,3.7l-3.1,3.7l-1.4-1.2l2.1-2.6
	l-2.1-2.6L67.6,44.2z M47.9,45.6c-1.7,0-3,1.3-3,3s1.3,3,3,3s3-1.3,3-3S49.6,45.6,47.9,45.6z"/>
<rect id="Rectangle-Copy-14" x="181.9" y="369.6" class="st3" width="250" height="172"/>
<rect id="Rectangle-Copy-14_1_" x="614.9" y="369.6" class="st4" width="318" height="156"/>
<path id="Shape_2_" class="st5" d="M639.9,390.6c0.6,0,1,0.4,1,1c0,0.5-0.4,0.9-0.8,1l-0.4,1h3.3c1.1,0,2,0.9,2,2v5c0,1.1-0.9,2-2,2
	h-8c-1.1,0-2-0.9-2-2v-5c0-1.1,0.9-2,2-2h3.7l0.6-1.4c-0.1-0.1-0.2-0.3-0.2-0.5v-0.1C638.9,391,639.3,390.6,639.9,390.6z
	 M642.9,394.6h-8c-0.5,0-0.9,0.4-1,0.9v0.1v5c0,0.5,0.4,0.9,0.9,1h0.1h8c0.5,0,0.9-0.4,1-0.9v-0.1v-5
	C643.9,395.1,643.5,394.7,642.9,394.6L642.9,394.6z M641.4,399.6c0.3,0,0.5,0.2,0.5,0.5s-0.2,0.5-0.5,0.5h-5c-0.3,0-0.5-0.2-0.5-0.5
	s0.2-0.5,0.5-0.5H641.4z M636.4,395.6c0.8,0,1.5,0.7,1.5,1.5s-0.7,1.5-1.5,1.5s-1.5-0.7-1.5-1.5S635.6,395.6,636.4,395.6z
	 M641.4,395.6c0.8,0,1.5,0.7,1.5,1.5s-0.7,1.5-1.5,1.5s-1.5-0.7-1.5-1.5S640.6,395.6,641.4,395.6z M636.4,396.6
	c-0.3,0-0.5,0.2-0.5,0.5s0.2,0.5,0.5,0.5s0.5-0.2,0.5-0.5S636.7,396.6,636.4,396.6z M641.4,396.6c-0.3,0-0.5,0.2-0.5,0.5
	s0.2,0.5,0.5,0.5s0.5-0.2,0.5-0.5S641.7,396.6,641.4,396.6z"/>
<rect id="Rectangle-Copy-16" x="630.9" y="428.6" class="st6" width="80" height="81"/>
<rect id="Rectangle-Copy-16_1_" x="836.9" y="428.6" class="st6" width="80" height="81"/>
<path id="Line-2-Copy-24" class="st0" d="M822.9,461.6l14,7l-14,7v-6h-112v-2h112V461.6z"/>
<circle id="Oval-Copy-3_2_" class="st7" cx="54.9" cy="113.6" r="13"/>
<circle id="Oval-Copy-3_3_" class="st7" cx="54.9" cy="185.6" r="13"/>
<circle id="Oval-Copy-3_4_" class="st7" cx="54.9" cy="273.6" r="13"/>
<circle id="Oval-Copy-3_5_" class="st1" cx="767.9" cy="259.6" r="24"/>
<path id="Shape_3_" class="st2" d="M762.9,262.6c2.8,0,5,2.2,5,5v6h-2v-6c0-1.7-1.3-3-3-3h-4c-1.7,0-3,1.3-3,3v6h-2v-6
	c0-2.8,2.2-5,5-5H762.9z M760.9,250.6c2.8,0,5,2.2,5,5s-2.2,5-5,5s-5-2.2-5-5S758.1,250.6,760.9,250.6z M773.9,258.6v2h-2v-2H773.9z
	 M778.9,258.6v2h-2v-2H778.9z M760.9,252.6c-1.7,0-3,1.3-3,3s1.3,3,3,3s3-1.3,3-3S762.6,252.6,760.9,252.6z M781.9,255.6v2h-2v-2
	H781.9z M770.9,255.6v2h-2v-2H770.9z M778.9,250.6v7h-7v-7H778.9z M776.9,252.6h-3v3h3V252.6z M781.9,250.6v2h-2v-2H781.9z
	 M770.9,250.6v2h-2v-2H770.9z M773.9,247.6v2h-2v-2H773.9z M778.9,247.6v2h-2v-2H778.9z"/>
<path id="Line-8" class="st0" d="M56.4,343.1v104h111.5v-6l14,7l-14,7v-6H54.4v-106H56.4z"/>
<path id="Path-8" class="st0" d="M616.9,475.6l14,7l-14,7v-6h-185v-2h185V475.6z"/>
<path id="Path-7" class="st0" d="M596.9,182.6v270.5h20v-6l14,7l-14,7v-6h-22V182.6H596.9z"/>
<path id="Path-9" class="st0" d="M766.9,182.6l7.1,14h-6l0.2,28.4h-2l-0.2-28.4h-6L766.9,182.6z"/>
<line id="Path-9-Copy" class="st8" x1="767.2" y1="369.6" x2="767.2" y2="293.6"/>
<rect id="Rectangle-Copy-50" x="404.9" y="27.6" class="st9" width="400" height="155"/>
<rect id="Rectangle-Copy-16_2_" x="708.9" y="84.6" class="st6" width="80" height="81"/>
<rect id="Rectangle-Copy-16_3_" x="612.9" y="84.6" class="st6" width="80" height="81"/>
<rect id="Rectangle-Copy-16_4_" x="516.9" y="84.6" class="st6" width="80" height="81"/>
<rect id="Rectangle-Copy-16_5_" x="420.9" y="84.6" class="st6" width="80" height="81"/>
<rect x="44.8" y="107.2" class="st10" width="20" height="12.2"/>
<text transform="matrix(1 0 0 1 50.3181 117.6166)" class="st11 st12 st13">A</text>
<rect x="44.8" y="179.2" class="st10" width="20" height="13.4"/>
<text transform="matrix(1 0 0 1 50.2341 189.6214)" class="st11 st12 st13">B</text>
<rect x="46.1" y="267.3" class="st10" width="17.5" height="13.4"/>
<text transform="matrix(1 0 0 1 50.4582 277.6306)" class="st11 st12 st13">C</text>
<rect x="432.3" y="458.2" class="st10" width="163" height="21"/>
<text transform="matrix(1 0 0 1 445.0266 475.9459)" class="st11 st12 st13">6. Extrae contenedores</text>
<rect x="803.9" y="253.2" class="st10" width="100" height="15.4"/>
<text transform="matrix(1 0 0 1 803.9054 263.602)" class="st11 st12 st13">Propietario de nodo</text>
<rect x="893.9" y="46.2" class="st10" width="100" height="15.4"/>
<text transform="matrix(1 0 0 1 893.9125 56.6139)" class="st11 st12 st13">Administrador</text>
<rect x="420.9" y="47.8" class="st10" width="236.1" height="15.6"/>
<text transform="matrix(1 0 0 1 420.8828 59.6483)" class="st5 st14 st15">Centro de gestión</text>
<rect x="652.9" y="389.8" class="st10" width="236.1" height="15.6"/>
<text transform="matrix(1 0 0 1 652.8827 401.6689)" class="st5 st14 st15">Nodo periférico</text>
<rect x="708.8" y="118.2" class="st10" width="80" height="14.9"/>
<text transform="matrix(1 0 0 1 733.2028 128.5911)" class="st11 st12 st13">MMS</text>
<rect x="836.9" y="453.3" class="st10" width="80" height="35.7"/>
<rect x="711.2" y="444.2" class="st10" width="111.2" height="13.7"/>
<text transform="matrix(1 0 0 1 724.0589 461.9526)" class="st5 st12 st13">7. Ejecuciones</text>
<rect x="612.8" y="108.5" class="st10" width="80" height="36.4"/>
<rect x="516.8" y="118.2" class="st10" width="80" height="14.9"/>
<text transform="matrix(1 0 0 1 525.8732 128.5911)" class="st11 st12 st13">Exchange</text>
<rect x="420.8" y="118.2" class="st10" width="80" height="14.9"/>
<text transform="matrix(1 0 0 1 441.864 128.5911)" class="st11 st12 st13">Agbot</text>
<rect x="75.9" y="107.2" class="st10" width="203" height="15.7"/>
<text transform="matrix(1 0 0 1 75.8826 117.6171)" class="st11 st12 st13">Crea credenciales de desarrollador</text>
<rect x="93.9" y="46.2" class="st10" width="172.6" height="15.7"/>
<text transform="matrix(1 0 0 1 93.8915 56.6018)" class="st11 st12 st13">Desarrollador de software</text>
<rect x="75.9" y="179.2" class="st10" width="203" height="15.7"/>
<text transform="matrix(1 0 0 1 75.8826 189.5962)" class="st11 st12 st13">Desarrolla el servicio periférico</text>
<rect x="75.9" y="267.2" class="st10" width="293.1" height="15.7"/>
<text transform="matrix(1 0 0 1 75.8826 277.619)" class="st11 st12 st13">Firma y publica en el centro de gestión</text>
<rect x="217.9" y="387.5" class="st10" width="162.3" height="15.6"/>
<text transform="matrix(1 0 0 1 217.8822 399.3471)" class="st5 st14 st15">Registro de contenedor</text>
<g>
	<path class="st5" d="M209.9,387.1h-8c-0.6,0-1,0.4-1,1v11c0,0.6,0.4,1,1,1h8c0.6,0,1-0.4,1-1v-11
		C210.9,387.5,210.5,387.1,209.9,387.1z M209.9,388.1v3h-8v-3H209.9z M201.9,395.1v-3h8v3H201.9z M201.9,399.1v-3h8v3H201.9z"/>
	<circle class="st5" cx="203.4" cy="389.6" r="0.5"/>
	<circle class="st5" cx="203.4" cy="393.6" r="0.5"/>
	<circle class="st5" cx="203.4" cy="397.6" r="0.5"/>
	<rect id="_x3C_Transparent_Rectangle_x3E__616_" x="197.9" y="385.6" class="st10" width="16" height="16"/>
</g>
<rect x="79.4" y="126.4" class="st10" width="292" height="26.2"/>
<text transform="matrix(1 0 0 1 79.3826 135.2752)"><tspan x="0" y="0" class="st11 st12 st16">• Crea cuenta de usuario</tspan><tspan x="0" y="14.4" class="st11 st12 st16">• Crea par de claves de firma (se utiliza en el paso C)</tspan></text>
<rect x="79.4" y="198.4" class="st10" width="253.5" height="57"/>
<text transform="matrix(1 0 0 1 79.3826 207.2752)"><tspan x="0" y="0" class="st11 st12 st16">• Dockeriza la aplicación</tspan><tspan x="0" y="14.4" class="st11 st12 st16">• Prueba y simula el entorno de producción</tspan><tspan x="0" y="28.8" class="st11 st12 st16">• Crea archivos de metadatos de Open Horizon</tspan></text>
<rect x="80.4" y="286.9" class="st10" width="255" height="26.2"/>
<text transform="matrix(1 0 0 1 80.3826 295.7752)"><tspan x="0" y="0" class="st11 st12 st16">• Envía, firma y publica contenedores</tspan><tspan x="0" y="14.4" class="st11 st12 st16">• Añade restricciones de política de servicio</tspan></text>
<rect x="63.4" y="372.4" class="st10" width="103.5" height="30.6"/>
<text transform="matrix(1 0 0 1 63.3826 382.7547)"><tspan x="0" y="0" class="st11 st12 st13">1. Envía </tspan><tspan x="0" y="16.8" class="st11 st12 st13">contenedores</tspan></text>
<rect x="432.9" y="247.4" class="st10" width="144" height="47.4"/>
<text transform="matrix(1 0 0 1 432.8826 257.7552)"><tspan x="0" y="0" class="st11 st12 st13">2. Publica metadatos </tspan><tspan x="0" y="16.8" class="st11 st12 st13">de servicio en el </tspan><tspan x="0" y="33.6" class="st11 st12 st13">centro de gestión</tspan></text>
<rect x="617.9" y="109.1" class="st10" width="69.5" height="30.6"/>
<text transform="matrix(1 0 0 1 622.0154 119.4218)"><tspan x="0" y="0" class="st11 st12 st13">Gestor de </tspan><tspan x="3.6" y="16.8" class="st11 st12 st13">secretos</tspan></text>
<rect x="608.7" y="253.6" class="st10" width="104.5" height="30.6"/>
<text transform="matrix(1 0 0 1 608.7159 263.9218)"><tspan x="0" y="0" class="st11 st12 st13">5. Despliega el </tspan><tspan x="0" y="16.8" class="st11 st12 st13">servicio</tspan></text>
<rect x="885.4" y="81.4" class="st10" width="166.8" height="64.2"/>
<text transform="matrix(1 0 0 1 885.3826 91.7552)"><tspan x="0" y="0" class="st11 st12 st13">3. Crea el patrón o el </tspan><tspan x="0" y="16.8" class="st11 st12 st13">servicio para desplegar el </tspan><tspan x="0" y="33.6" class="st11 st12 st13">servicio para corregir </tspan><tspan x="0" y="50.4" class="st11 st12 st13">nodos periféricos.</tspan></text>
<rect x="777" y="314.7" class="st10" width="160" height="47.4"/>
<text transform="matrix(1 0 0 1 777.0492 325.09)"><tspan x="0" y="0" class="st11 st12 st13">4. Se registra con una </tspan><tspan x="0" y="16.8" class="st11 st12 st13">política de nodo o </tspan><tspan x="0" y="33.6" class="st11 st12 st13">patrón.</tspan></text>
<rect x="638.9" y="453.6" class="st10" width="65" height="30.6"/>
<text transform="matrix(1 0 0 1 649.0808 463.9214)"><tspan x="0" y="0" class="st11 st12 st13">Agente </tspan><tspan x="-7.8" y="16.8" class="st11 st12 st13">periférico</tspan></text>
<rect x="843.4" y="454.2" class="st10" width="67" height="30.6"/>
<text transform="matrix(1 0 0 1 852.0193 464.588)"><tspan x="0" y="0" class="st11 st12 st13">Servicio </tspan><tspan x="-5.2" y="16.8" class="st11 st12 st13">periférico</tspan></text>
</svg>
