<?xml version="1.0" encoding="utf-8"?>
<!-- Generator: Adobe Illustrator 21.1.0, SVG Export Plug-In . SVG Version: 6.00 Build 0)  -->
<svg version="1.1" id="Capa_1" xmlns="http://www.w3.org/2000/svg" xmlns:xlink="http://www.w3.org/1999/xlink" x="0px" y="0px"
	 viewBox="0 0 1125 642.5" style="enable-background:new 0 0 1125 642.5;" xml:space="preserve">
<style type="text/css">
	.st0{fill:#051B75;}
	.st1{fill:#BEBEBE;}
	.st2{fill:#E3F6FF;}
	.st3{fill:#0F62FE;}
	.st4{fill:#054ADA;}
	.st5{fill:#8A3FFC;}
	.st6{fill:none;stroke:#BEBEBE;stroke-width:2;}
	.st7{display:none;fill:#BEBEBE;}
	.st8{fill:none;}
	.st9{fill:#F4F4F4;}
	.st10{font-family:'IBMPlexSans-Medium';}
	.st11{font-size:16px;}
	.st12{fill:#408BFC;}
	.st13{enable-background:new    ;}
	.st14{fill:#161616;}
	.st15{font-family:'IBMPlexSans';}
	.st16{font-size:14px;}
	.st17{fill:#FFFFFF;}
	.st18{fill:#92EEEE;}
	.st19{fill:none;stroke:#BEBEBE;stroke-width:2;stroke-miterlimit:10;}
	.st20{fill:none;stroke:#BEBEBE;stroke-width:2.2099;stroke-miterlimit:10;}
</style>
<rect id="Rectangle-Copy-51" x="371.5" y="225.7" class="st0" width="496.4" height="284"/>
<path id="Line-11-Copy-3" class="st1" d="M428.7,381.7l6.8,14.1l-6-0.1l-0.2,15l6,0.1l-7.2,13.9l-6.8-14.1l6,0.1l0.2-15l-6-0.1
	L428.7,381.7z"/>
<path id="Line-11-Copy-4" class="st1" d="M524.5,381.7l6.8,14.1l-6-0.1l-0.2,15l6,0.1l-7.2,13.9l-6.8-14.1l6,0.1l0.2-15l-6-0.1
	L524.5,381.7z"/>
<path id="Line-11-Copy-5" class="st1" d="M811.2,381.7l6.8,14.1l-6-0.1l-0.2,15l6,0.1l-7.2,13.9l-6.8-14.1l6,0.1l0.2-15l-6-0.1
	L811.2,381.7z"/>
<circle id="Oval-Copy-3" class="st2" cx="80.1" cy="38.7" r="24"/>
<path id="Shape" class="st3" d="M75.1,41.7c2.8,0,5,2.2,5,5v6h-2v-6c0-1.7-1.3-3-3-3h-4c-1.7,0-3,1.3-3,3v6h-2v-6c0-2.8,2.2-5,5-5
	H75.1z M73.1,29.7c2.8,0,5,2.2,5,5s-2.2,5-5,5c-2.8,0-5-2.2-5-5S70.3,29.7,73.1,29.7z M88.1,27.6c2.1,0,3.9,1.4,4.5,3.4l0.1,0.2v0.1
	l0,0c1.3,0.5,2.2,1.7,2.3,3.1v0.2v0.2c0,2.1-1.6,3.7-3.7,3.9h-0.2h-6.3c-2.1,0-3.9-1.7-3.9-3.9c0-1.5,0.9-2.8,2.2-3.5l0.2-0.1v-0.1
	c0.5-1.9,2.1-3.4,4.1-3.6h0.2L88.1,27.6z M73.1,31.7c-1.7,0-3,1.3-3,3s1.3,3,3,3c1.7,0,3-1.3,3-3S74.7,31.7,73.1,31.7z M88.1,29.6
	c-1.4,0-2.5,1-2.7,2.4v0.2V33l-0.8,0.2c-0.9,0.2-1.5,0.9-1.5,1.8c0,1,0.8,1.8,1.7,1.9h0.1h6.3c1,0,1.9-0.8,1.9-1.9
	c0-0.8-0.6-1.6-1.3-1.8h-0.1L90.9,33v-0.8C90.7,30.7,89.5,29.6,88.1,29.6z"/>
<rect id="Rectangle-Copy-48" x="143.2" y="225.7" class="st4" width="184.7" height="284"/>
<rect id="Rectangle-Copy-49" x="143.2" y="527.7" class="st5" width="724.7" height="100"/>
<polyline id="Path-6-Copy-9_4_" class="st6" points="570,109.7 570,185.7 399.6,185.7 "/>
<path id="Path-6-Copy-8" class="st7" d="M689.3,109.7v99h149v304.5H571.8v-19.5h-6l7-14l7,14h-6v17.5h262.5V210.7h-149v-101H689.3z"
	/>
<rect x="384.6" y="245.8" class="st8" width="184" height="15.6"/>
<text transform="matrix(1 0 0 1 384.64 257.7277)" class="st9 st10 st11">Centro de gestión de IEAM</text>
<rect x="159.2" y="547.9" class="st8" width="319.6" height="15.6"/>
<text transform="matrix(1 0 0 1 159.2595 559.731)" class="st9 st10 st11">Red Hat OpenShift Container Platform</text>
<rect id="Rectangle-Copy-14" x="888.3" y="527.7" class="st12" width="117" height="100"/>
<rect x="904.3" y="547.9" class="st8" width="94.6" height="15.6"/>
<rect x="904.4" y="546.1" class="st8" width="90.2" height="36.9"/>
<text transform="matrix(1 0 0 1 904.3588 559.731)" class="st13"><tspan x="0" y="0" class="st9 st10 st11">Nodo </tspan><tspan x="0" y="19.2" class="st9 st10 st11">periférico</tspan></text>
<rect x="159.2" y="245.8" class="st8" width="148" height="57"/>
<rect x="29.5" y="66.3" class="st8" width="99.9" height="17.9"/>
<text transform="matrix(1 0 0 1 33.0008 76.7083)" class="st14 st15 st16">Instalador de Cloud</text>
<rect x="87.1" y="113.3" class="st8" width="99.9" height="56"/>
<text transform="matrix(1 0 0 1 82.4521 123.7062)" class="st14 st15 st16">1. Configura OCP</text>
<g>
	<rect id="Rectangle-Copy-16" x="675.4" y="300.7" class="st17" width="80" height="81"/>
	<rect x="675.4" y="334.3" class="st8" width="80" height="14.9"/>
	<text transform="matrix(1 0 0 1 701.559 344.7261)" class="st14 st15 st16">SDO</text>
</g>
<g>
	<rect id="Rectangle-Copy-16_6_" x="771" y="300.7" class="st17" width="80" height="81"/>
	<rect x="771" y="334.3" class="st8" width="80" height="14.9"/>
	<text transform="matrix(1 0 0 1 795.4147 344.7261)" class="st14 st15 st16">MMS</text>
</g>
<g>
	<rect id="Rectangle-Copy-16_1_" x="579.8" y="300.7" class="st17" width="80" height="81"/>
	<rect x="579.8" y="334.3" class="st8" width="80" height="14.9"/>
	<text transform="matrix(1 0 0 1 612.2404 344.7261)" class="st14 st15 st16">IU</text>
</g>
<g>
	<rect id="Rectangle-Copy-16_2_" x="484.3" y="300.7" class="st17" width="80" height="81"/>
	<rect x="484.3" y="334.3" class="st8" width="80" height="14.9"/>
	<text transform="matrix(1 0 0 1 493.3748 344.7261)" class="st14 st15 st16">Exchange</text>
</g>
<g>
	<rect id="Rectangle-Copy-16_3_" x="388.7" y="300.7" class="st17" width="80" height="81"/>
	<rect x="388.7" y="334.3" class="st8" width="80" height="14.9"/>
	<text transform="matrix(1 0 0 1 409.7953 344.7261)" class="st14 st15 st16">Agbot</text>
</g>
<g>
	<rect id="Rectangle-Copy-16_7_" x="159.2" y="411.7" class="st17" width="80" height="81"/>
	<rect x="159.1" y="445.4" class="st8" width="80" height="14.9"/>
	<text transform="matrix(1 0 0 1 186.0433 455.7945)" class="st14 st15 st16">IAM</text>
</g>
<g>
	<rect id="Rectangle-Copy-16_4_" x="388.7" y="424.7" class="st18" width="80" height="68"/>
	<rect x="388.7" y="442.4" class="st8" width="80" height="39.8"/>
</g>
<g>
	<rect id="Rectangle-Copy-16_5_" x="484.3" y="424.7" class="st18" width="80" height="68"/>
</g>
<g>
	<rect id="Rectangle-Copy-16_16_" x="771" y="424.7" class="st18" width="80" height="68"/>
</g>
<g>
	<g>
		<polyline class="st19" points="763.1,109.7 763.1,279.7 524.3,279.7 524.3,290.7 		"/>
		<g>
			<polygon class="st1" points="517.3,288.7 524.3,300.7 531.2,288.7 			"/>
		</g>
	</g>
</g>
<g>
	<g>
		<polyline class="st20" points="946.8,109.7 946.8,327.7 862.1,327.7 		"/>
		<g>
			<polygon class="st1" points="864.3,320 851,327.7 864.3,335.5 			"/>
		</g>
	</g>
</g>
<g>
	<g>
		<polyline class="st20" points="851,354.2 946.8,354.2 946.8,516.6 		"/>
		<g>
			<polygon class="st1" points="939.1,514.3 946.8,527.7 954.5,514.3 			"/>
		</g>
	</g>
</g>
<g>
	<g>
		<line class="st19" x1="202.9" y1="109.7" x2="202.9" y2="215.7"/>
		<g>
			<polygon class="st1" points="195.9,213.6 202.9,225.7 209.9,213.6 			"/>
		</g>
	</g>
</g>
<g>
	<g>
		<polyline class="st19" points="75,94.8 75,577.7 133.2,577.7 		"/>
		<g>
			<polygon class="st1" points="131.1,584.7 143.2,577.7 131.1,570.7 			"/>
		</g>
	</g>
</g>
<g>
	<g>
		<polyline class="st19" points="249.3,448.8 349.7,448.8 349.7,185.7 384.6,185.7 		"/>
		<g>
			<polygon class="st1" points="251.3,455.8 239.2,448.8 251.3,441.9 			"/>
		</g>
	</g>
</g>
<g>
	<g>
		<line class="st19" x1="393" y1="109.7" x2="393" y2="215.7"/>
		<g>
			<polygon class="st1" points="386,213.6 393,225.7 400,213.6 			"/>
		</g>
	</g>
</g>
<rect x="215" y="112" class="st8" width="146" height="47.4"/>
<text transform="matrix(1 0 0 1 215.0317 122.3791)"><tspan x="0" y="0" class="st14 st15 st16">2. Instala IBM Cloud </tspan><tspan x="0" y="16.8" class="st14 st15 st16">Platform Common </tspan><tspan x="0" y="33.6" class="st14 st15 st16">Services</tspan></text>
<rect x="401.5" y="110" class="st8" width="153.5" height="47.4"/>
<text transform="matrix(1 0 0 1 401.5317 120.3791)"><tspan x="0" y="0" class="st14 st15 st16">3. Instala los </tspan><tspan x="0" y="16.8" class="st14 st15 st16">componentes en el </tspan><tspan x="0" y="33.6" class="st14 st15 st16">centro de gestión</tspan></text>
<rect x="580.5" y="109" class="st8" width="167" height="64.2"/>
<text transform="matrix(1 0 0 1 580.5317 119.3791)"><tspan x="0" y="0" class="st14 st15 st16">4. Configura la </tspan><tspan x="0" y="16.8" class="st14 st15 st16">autenticación para </tspan><tspan x="0" y="33.6" class="st14 st15 st16">Identity and Access </tspan><tspan x="0" y="50.4" class="st14 st15 st16">Manager (IAM)</tspan></text>
<rect x="771.5" y="111.5" class="st8" width="149" height="47.4"/>
<text transform="matrix(1 0 0 1 771.5317 121.8791)"><tspan x="0" y="0" class="st14 st15 st16">5. Rellena Exchange </tspan><tspan x="0" y="16.8" class="st14 st15 st16">con ejemplos de Open </tspan><tspan x="0" y="33.6" class="st14 st15 st16">Horizon.</tspan></text>
<rect x="955.5" y="109" class="st8" width="124.5" height="75"/>
<text transform="matrix(1 0 0 1 955.5317 119.3791)"><tspan x="0" y="0" class="st14 st15 st16">6. Publica los </tspan><tspan x="0" y="16.8" class="st14 st15 st16">archivos de </tspan><tspan x="0" y="33.6" class="st14 st15 st16">instalación del </tspan><tspan x="0" y="50.4" class="st14 st15 st16">agente en MMS</tspan></text>
<rect x="154" y="237.5" class="st8" width="162" height="80.5"/>
<text transform="matrix(1 0 0 1 154.0317 249.359)"><tspan x="0" y="0" class="st9 st10 st11">IBM Cloud Platform </tspan><tspan x="0" y="19.2" class="st9 st10 st11">Common Services</tspan></text>
<rect x="393.5" y="435" class="st8" width="70.5" height="50.5"/>
<text transform="matrix(1 0 0 1 403.666 445.3786)"><tspan x="0" y="0" class="st14 st15 st16">Base de </tspan><tspan x="7.5" y="16.8" class="st14 st15 st16">datos </tspan><tspan x="-2.4" y="33.6" class="st14 st15 st16">Postgres</tspan></text>
<rect x="488.5" y="435" class="st8" width="70.5" height="48.7"/>
<text transform="matrix(1 0 0 1 498.666 445.3786)"><tspan x="0" y="0" class="st14 st15 st16">Base de </tspan><tspan x="7.5" y="16.8" class="st14 st15 st16">datos </tspan><tspan x="-2.4" y="33.6" class="st14 st15 st16">Postgres</tspan></text>
<rect x="785.7" y="435" class="st8" width="49.5" height="30.6"/>
<text transform="matrix(1 0 0 1 789.2521 445.3786)"><tspan x="0" y="0" class="st14 st15 st16">Mongo </tspan><tspan x="11.9" y="16.8" class="st14 st15 st16">DB</tspan></text>
<rect x="958" y="389.5" class="st8" width="111" height="66"/>
<text transform="matrix(1 0 0 1 958.0317 399.8786)"><tspan x="0" y="0" class="st14 st15 st16">Los nodos </tspan><tspan x="0" y="16.8" class="st14 st15 st16">periféricos </tspan><tspan x="0" y="33.6" class="st14 st15 st16">extraen archivos </tspan><tspan x="0" y="50.4" class="st14 st15 st16">de MMS</tspan></text>
</svg>
