<?xml version="1.0" encoding="UTF-8" standalone="no"?>
<!-- Generator: Adobe Illustrator 24.0.3, SVG Export Plug-In . SVG Version: 6.00 Build 0)  -->

<svg
   xmlns:dc="http://purl.org/dc/elements/1.1/"
   xmlns:cc="http://creativecommons.org/ns#"
   xmlns:rdf="http://www.w3.org/1999/02/22-rdf-syntax-ns#"
   xmlns:svg="http://www.w3.org/2000/svg"
   xmlns="http://www.w3.org/2000/svg"
   xmlns:sodipodi="http://sodipodi.sourceforge.net/DTD/sodipodi-0.dtd"
   xmlns:inkscape="http://www.inkscape.org/namespaces/inkscape"
   version="1.1"
   id="Layer_1"
   x="0px"
   y="0px"
   viewBox="0 0 1183 926"
   style="enable-background:new 0 0 1183 926;"
   xml:space="preserve"
   inkscape:version="0.48.1 "
   width="100%"
   height="100%"
   sodipodi:docname="04_Defining_an_edge_policy.svg"><metadata
   id="metadata232"><rdf:RDF><cc:Work
       rdf:about=""><dc:format>image/svg+xml</dc:format><dc:type
         rdf:resource="http://purl.org/dc/dcmitype/StillImage" /></cc:Work></rdf:RDF></metadata><defs
   id="defs230" /><sodipodi:namedview
   pagecolor="#ffffff"
   bordercolor="#666666"
   borderopacity="1"
   objecttolerance="10"
   gridtolerance="10"
   guidetolerance="10"
   inkscape:pageopacity="0"
   inkscape:pageshadow="2"
   inkscape:window-width="1280"
   inkscape:window-height="705"
   id="namedview228"
   showgrid="false"
   inkscape:zoom="0.52483801"
   inkscape:cx="591.5"
   inkscape:cy="463"
   inkscape:window-x="-8"
   inkscape:window-y="-8"
   inkscape:window-maximized="1"
   inkscape:current-layer="Layer_1" />
<style
   type="text/css"
   id="style3">
	.st0{fill-rule:evenodd;clip-rule:evenodd;fill:#6E32C9;}
	.st1{fill-rule:evenodd;clip-rule:evenodd;fill:#4F2196;}
	.st2{fill-rule:evenodd;clip-rule:evenodd;fill:#FFFFFF;stroke:#E0E0E0;}
	.st3{fill-rule:evenodd;clip-rule:evenodd;fill:#FFFFFF;}
	.st4{fill-rule:evenodd;clip-rule:evenodd;fill:#C9DEFF;}
	.st5{fill-rule:evenodd;clip-rule:evenodd;fill:#408BFC;}
	.st6{fill-rule:evenodd;clip-rule:evenodd;fill:#054ADA;}
	.st7{fill:none;stroke:#054ADA;stroke-linecap:square;}
	.st8{fill:none;stroke:#054ADA;}
	.st9{fill:#BEBEBE;}
	.st10{fill-rule:evenodd;clip-rule:evenodd;fill:#24A148;}
	.st11{fill-rule:evenodd;clip-rule:evenodd;fill:none;}
	.st12{fill:#F4F4F4;}
	.st13{font-family:'IBMPlexSans-Medium';}
	.st14{font-size:16px;}
	.st15{fill:#161616;}
	.st16{font-family:'IBMPlexSans';}
	.st17{font-family:'IBMPlexSans-Bold';}
	.st18{font-size:14px;}
</style>
<rect
   id="Rectangle-Copy-14"
   x="21"
   y="263"
   class="st0"
   width="281"
   height="663" />
<rect
   id="Rectangle-Copy-14_1_"
   x="495"
   y="263"
   class="st1"
   width="667"
   height="663" />
<rect
   id="Rectangle"
   x="0.5"
   y="0.5"
   class="st2"
   width="144"
   height="37" />
<rect
   id="Rectangle-Copy-28"
   x="0.5"
   y="37.5"
   class="st2"
   width="144"
   height="76" />
<rect
   id="Rectangle-Copy-31"
   x="0.5"
   y="114.5"
   class="st2"
   width="144"
   height="79" />
<rect
   id="Rectangle-Copy-29"
   x="143.5"
   y="37.5"
   class="st2"
   width="260"
   height="76" />
<rect
   id="Rectangle-Copy-33"
   x="403.5"
   y="37.5"
   class="st2"
   width="260"
   height="76" />
<rect
   id="Rectangle-Copy-36"
   x="663.5"
   y="37.5"
   class="st2"
   width="260"
   height="76" />
<rect
   id="Rectangle-Copy-39"
   x="922.5"
   y="37.5"
   class="st2"
   width="260"
   height="76" />
<rect
   id="Rectangle-Copy-32"
   x="143.5"
   y="114.5"
   class="st2"
   width="260"
   height="79" />
<rect
   id="Rectangle-Copy-34"
   x="403.5"
   y="114.5"
   class="st2"
   width="260"
   height="79" />
<rect
   id="Rectangle-Copy-37"
   x="663.5"
   y="114.5"
   class="st2"
   width="260"
   height="79" />
<rect
   id="Rectangle-Copy-40"
   x="922.5"
   y="114.5"
   class="st2"
   width="260"
   height="79" />
<rect
   id="Rectangle-Copy-26"
   x="143.5"
   y="0.5"
   class="st2"
   width="260"
   height="37" />
<rect
   id="Rectangle-Copy-35"
   x="403.5"
   y="0.5"
   class="st2"
   width="260"
   height="37" />
<rect
   id="Rectangle-Copy-38"
   x="663.5"
   y="0.5"
   class="st2"
   width="260"
   height="37" />
<rect
   id="Rectangle-Copy-41"
   x="922.5"
   y="0.5"
   class="st2"
   width="260"
   height="37" />
<rect
   id="Rectangle-Copy-30"
   x="53"
   y="334"
   class="st3"
   width="217"
   height="264" />
<path
   id="Default-Copy-4"
   class="st4"
   d="M85,398h129c8.8,0,16,7.2,16,16l0,0c0,8.8-7.2,16-16,16H85c-8.8,0-16-7.2-16-16l0,0  C69,405.2,76.2,398,85,398z" />
<rect
   id="Rectangle-Copy-45"
   x="53"
   y="630"
   class="st3"
   width="217"
   height="264" />
<rect
   id="Rectangle-Copy-46"
   x="527"
   y="334"
   class="st3"
   width="603"
   height="264" />
<rect
   id="Rectangle_1_"
   x="543"
   y="398"
   class="st5"
   width="286"
   height="184" />
<rect
   id="Rectangle-Copy-43"
   x="829"
   y="398"
   class="st6"
   width="286"
   height="184" />
<rect
   id="Default"
   x="558"
   y="462"
   class="st4"
   width="100"
   height="32" />
<rect
   id="Default-Copy"
   x="558"
   y="534"
   class="st4"
   width="100"
   height="32" />
<rect
   id="Default_1_"
   x="662"
   y="462"
   class="st4"
   width="85"
   height="32" />
<rect
   id="Default-Copy-2"
   x="662"
   y="534"
   class="st4"
   width="85"
   height="32" />
<rect
   id="Default_2_"
   x="751"
   y="462"
   class="st4"
   width="39"
   height="32" />
<rect
   id="Default-Copy-3"
   x="751"
   y="534"
   class="st4"
   width="62"
   height="32" />
<line
   id="Line-3"
   class="st7"
   x1="616"
   y1="514.5"
   x2="813.5"
   y2="514.5" />
<line
   id="Line-3-Copy"
   class="st8"
   x1="558"
   y1="514"
   x2="566"
   y2="514" />
<rect
   id="Field-color"
   x="570"
   y="502"
   class="st4"
   width="42"
   height="24" />
<rect
   id="Rectangle-Copy-47"
   x="527"
   y="630"
   class="st3"
   width="603"
   height="264" />
<rect
   id="Rectangle_2_"
   x="543"
   y="694"
   class="st5"
   width="286"
   height="184" />
<rect
   id="Rectangle-Copy-43_1_"
   x="829"
   y="694"
   class="st6"
   width="286"
   height="184" />
<path
   id="Line-9"
   class="st9"
   d="M527,459c3.9,0,7,3.1,7,7s-3.1,7-7,7c-3.5,0-6.4-2.6-6.9-6l-235.6,0v6l-14-7l14-7v6h235.6  c0.5-3.3,3.3-5.9,6.7-6L527,459z" />
<path
   id="Line-9-Copy"
   class="st9"
   d="M513,755l14,7l-14,7v-6l-235.6,0c-0.5,3.3-3.3,5.9-6.7,6l-0.2,0c-3.9,0-7-3.1-7-7s3.1-7,7-7  c3.5,0,6.4,2.6,6.9,6H513V755z" />
<circle
   id="Oval"
   class="st3"
   cx="399"
   cy="466"
   r="20" />
<path
   id="path-1_1_"
   class="st10"
   d="M406,462.4l-1.4-1.4l-7.6,7.6l-3.6-3.6l-1.4,1.4l5,5L406,462.4z M399,452c-7.7,0-14,6.3-14,14  s6.3,14,14,14s14-6.3,14-14S406.7,452,399,452z M399,478c-6.6,0-12-5.4-12-12s5.4-12,12-12s12,5.4,12,12S405.6,478,399,478z" />
<circle
   id="Oval_1_"
   class="st3"
   cx="399"
   cy="762"
   r="20" />
<path
   id="path-3_1_"
   class="st10"
   d="M406,758.4l-1.4-1.4l-7.6,7.6l-3.6-3.6l-1.4,1.4l5,5L406,758.4z M399,748c-7.7,0-14,6.3-14,14  s6.3,14,14,14s14-6.3,14-14S406.7,748,399,748z M399,774c-6.6,0-12-5.4-12-12s5.4-12,12-12s12,5.4,12,12S405.6,774,399,774z" />
<rect
   x="511"
   y="283.2"
   class="st11"
   width="236.1"
   height="15.6"
   id="rect46" />
<text
   transform="matrix(1 0 0 1 511.0002 295.0103)"
   class="st12 st13 st14"
   id="text48">Política de implementação</text>

<rect
   x="542.9"
   y="354.2"
   class="st11"
   width="236.1"
   height="15.6"
   id="rect50" />
<text
   transform="matrix(1 0 0 1 542.886 366.0135)"
   class="st15 st16 st14"
   id="text52">Restrições</text>

<rect
   x="542.9"
   y="650.1"
   class="st11"
   width="236.1"
   height="15.6"
   id="rect54" />
<text
   transform="matrix(1 0 0 1 542.886 661.9528)"
   class="st15 st16 st14"
   id="text56">Propriedades</text>

<rect
   x="69"
   y="354.2"
   class="st11"
   width="179.7"
   height="15.6"
   id="rect58" />
<text
   transform="matrix(1 0 0 1 69.0002 366.0135)"
   class="st15 st16 st14"
   id="text60">Propriedades do nó</text>

<rect
   x="69"
   y="650.2"
   class="st11"
   width="179.7"
   height="15.6"
   id="rect62" />
<text
   transform="matrix(1 0 0 1 69.0002 662.0065)"
   class="st15 st16 st14"
   id="text64">Restrições do nó</text>

<rect
   x="37"
   y="283.2"
   class="st11"
   width="236.1"
   height="15.6"
   id="rect66" />
<text
   transform="matrix(1 0 0 1 37.0001 295.0103)"
   class="st12 st13 st14"
   id="text68">Política de nó</text>

<rect
   x="150"
   y="13.1"
   class="st11"
   width="237.4"
   height="19.1"
   id="rect70" />
<text
   transform="matrix(1 0 0 1 150 24.9894)"
   class="st15 st17 st14"
   id="text72">Política de nó</text>

<rect
   x="5"
   y="50.2"
   class="st11"
   width="129.5"
   height="19.1"
   id="rect74" />
<text
   transform="matrix(1 0 0 1 5 62.0046)"
   class="st15 st17 st14"
   id="text76">Função</text>

<rect
   x="5"
   y="127.1"
   class="st11"
   width="129.5"
   height="19.1"
   id="rect78" />
<text
   transform="matrix(1 0 0 1 5 138.9762)"
   class="st15 st17 st14"
   id="text80">Propósito</text>

<rect
   x="150"
   y="50.2"
   class="st11"
   width="250.5"
   height="59.6"
   id="rect82" />
<text
   transform="matrix(1 0 0 1 150 62.0051)"
   id="text84"
   style="-inkscape-font-specification:Sans;font-family:Sans;font-weight:normal;font-style:normal;font-stretch:normal;font-variant:normal;font-size:12px;text-anchor:start;text-align:start;writing-mode:lr;line-height:125%"
   sodipodi:linespacing="125%"><tspan
     sodipodi:role="line"
     id="tspan3246"
     style="font-size:16px">Fornecido pelo proprietário </tspan><tspan
     sodipodi:role="line"
     id="tspan3248"
     style="font-size:16px">do nó ao registrar o nó</tspan></text>

<rect
   x="150"
   y="127.1"
   class="st11"
   width="250.5"
   height="59.6"
   id="rect90" />
<text
   transform="matrix(1 0 0 1 150 138.9767)"
   id="text92"><tspan
     x="0"
     y="0"
     class="st15 st16 st14"
     id="tspan94">Defina os recursos que o nó possui </tspan><tspan
     x="0"
     y="20"
     class="st15 st16 st14"
     id="tspan96">e o propósito desejado para o </tspan><tspan
     x="0"
     y="40"
     class="st15 st16 st14"
     id="tspan98">nó</tspan></text>

<rect
   x="69"
   y="711.6"
   class="st11"
   width="186.2"
   height="29.8"
   id="rect100" />
<text
   transform="matrix(1 0 0 1 69.0152 722.0035)"
   class="st15 st16 st18"
   id="text102">(Opcional)</text>

<rect
   x="559"
   y="714.2"
   class="st11"
   width="236.1"
   height="15.6"
   id="rect104" />
<text
   transform="matrix(1 0 0 1 559.0001 725.9962)"
   class="st12 st16 st14"
   id="text106">Propriedades de implementação</text>

<rect
   x="559"
   y="758.6"
   class="st11"
   width="186.2"
   height="29.8"
   id="rect108" />
<text
   transform="matrix(1 0 0 1 559 768.9775)"
   class="st12 st16 st18"
   id="text110">(Opcional)</text>

<rect
   x="845"
   y="714.2"
   class="st11"
   width="236.1"
   height="15.6"
   id="rect112" />
<text
   transform="matrix(1 0 0 1 845.0001 725.9962)"
   class="st12 st16 st14"
   id="text114">Propriedades de serviço</text>

<rect
   x="845"
   y="758.6"
   class="st11"
   width="186.2"
   height="29.8"
   id="rect116" />
<text
   transform="matrix(1 0 0 1 845 768.9775)"
   class="st12 st16 st18"
   id="text118">(Opcional)</text>

<rect
   x="559"
   y="418.2"
   class="st11"
   width="236.1"
   height="15.6"
   id="rect120" />
<text
   transform="matrix(1 0 0 1 559.0001 430.0558)"
   class="st12 st16 st14"
   id="text122">Restrições de implementação</text>

<rect
   x="845"
   y="418.2"
   class="st11"
   width="236.1"
   height="15.6"
   id="rect124" />
<text
   transform="matrix(1 0 0 1 845.0001 430.0558)"
   class="st12 st16 st14"
   id="text126">Restrições de serviço</text>

<rect
   x="845"
   y="462.7"
   class="st11"
   width="186.2"
   height="29.8"
   id="rect128" />
<text
   transform="matrix(1 0 0 1 845 473.0371)"
   class="st12 st16 st18"
   id="text130">(Opcional)</text>

<rect
   x="81"
   y="408.7"
   class="st11"
   width="142.2"
   height="17.6"
   id="rect132" />
<text
   transform="matrix(1 0 0 1 81 419.0175)"
   class="st15 st16 st18"
   id="text134">camera-type=motion</text>

<rect
   x="409"
   y="13.1"
   class="st11"
   width="237.4"
   height="19.1"
   id="rect136" />
<text
   transform="matrix(1 0 0 1 409 24.9894)"
   class="st15 st17 st14"
   id="text138">Política de Serviço</text>

<rect
   x="409"
   y="50.2"
   class="st11"
   width="250.5"
   height="59.6"
   id="rect140" />
<text
   transform="matrix(1 0 0 1 409 62.0051)"
   id="text142"
   style="-inkscape-font-specification:Sans;font-family:Sans;font-weight:normal;font-style:normal;font-stretch:normal;font-variant:normal;font-size:16px;text-anchor:start;text-align:start;writing-mode:lr;line-height:125%"
   sodipodi:linespacing="125%"><tspan
     sodipodi:role="line"
     id="tspan3214">Fornecido pelo desenvolvedor </tspan><tspan
     sodipodi:role="line"
     id="tspan3216">de serviços ao publicar o serviço</tspan></text>

<rect
   x="409"
   y="127.1"
   class="st11"
   width="250.5"
   height="59.6"
   id="rect148" />
<text
   id="text150"
   style="font-size:15.32133484px;font-style:normal;font-variant:normal;font-weight:normal;font-stretch:normal;text-align:start;line-height:125%;writing-mode:lr-tb;text-anchor:start;font-family:Sans;-inkscape-font-specification:Sans"
   sodipodi:linespacing="125%"
   x="427.16428"
   y="127.33628"
   transform="scale(0.9575834,1.0442955)"><tspan
     sodipodi:role="line"
     id="tspan3218"
     x="427.16428"
     y="127.33628">Define qual é o propósito do serviço </tspan><tspan
     sodipodi:role="line"
     id="tspan3220"
     x="427.16428"
     y="146.48795">e o que é necessário para que ele seja </tspan><tspan
     sodipodi:role="line"
     id="tspan3222"
     x="427.16428"
     y="165.63962">executado corretamente em um nó </tspan><tspan
     sodipodi:role="line"
     id="tspan3224"
     x="427.16428"
     y="184.79129">de borda</tspan></text>

<rect
   x="669"
   y="13.1"
   class="st11"
   width="237.4"
   height="19.1"
   id="rect158" />
<text
   transform="matrix(1 0 0 1 669.0275 24.9894)"
   class="st15 st17 st14"
   id="text160">Política de implementação</text>

<rect
   x="669"
   y="50.2"
   class="st11"
   width="250.5"
   height="59.6"
   id="rect162" />
<text
   transform="matrix(1 0 0 1 669.0275 62.0051)"
   id="text164"
   style="-inkscape-font-specification:Sans;font-family:Sans;font-weight:normal;font-style:normal;font-stretch:normal;font-variant:normal;font-size:16px;text-anchor:start;text-align:start;writing-mode:lr;line-height:125%"
   sodipodi:linespacing="125%"><tspan
     sodipodi:role="line"
     id="tspan3230">Fornecido pelo administrador de </tspan><tspan
     sodipodi:role="line"
     id="tspan3232">política ao implementar o serviço</tspan></text>

<rect
   x="669"
   y="127.1"
   class="st11"
   width="250.5"
   height="59.6"
   id="rect170" />
<text
   transform="matrix(1 0 0 1 669.0275 138.9767)"
   id="text172"
   style="-inkscape-font-specification:Sans;font-family:Sans;font-weight:normal;font-style:normal;font-stretch:normal;font-variant:normal;font-size:16px;text-anchor:start;text-align:start;writing-mode:lr;line-height:125%"
   sodipodi:linespacing="125%"><tspan
     sodipodi:role="line"
     id="tspan3226">Definir onde o serviço </tspan><tspan
     sodipodi:role="line"
     id="tspan3228">deve ser executado</tspan></text>

<rect
   x="929"
   y="13.1"
   class="st11"
   width="237.4"
   height="19.1"
   id="rect178" />
<text
   transform="matrix(1 0 0 1 929 24.9894)"
   class="st15 st17 st14"
   id="text180">Política de modelo</text>

<rect
   x="929"
   y="50.2"
   class="st11"
   width="239.4"
   height="59.6"
   id="rect182" />
<text
   transform="matrix(1 0 0 1 929 62.0046)"
   id="text184"
   style="-inkscape-font-specification:Sans;font-family:Sans;font-weight:normal;font-style:normal;font-stretch:normal;font-variant:normal;font-size:16px;text-anchor:start;text-align:start;writing-mode:lr;line-height:125%"
   sodipodi:linespacing="125%"><tspan
     sodipodi:role="line"
     id="tspan3234">Fornecido pelo criador do modelo </tspan><tspan
     sodipodi:role="line"
     id="tspan3236">ou pelo cientista de dados ao criar </tspan><tspan
     sodipodi:role="line"
     id="tspan3238">o modelo</tspan></text>

<rect
   x="929"
   y="127.1"
   class="st11"
   width="250.5"
   height="59.6"
   id="rect192" />
<text
   transform="matrix(1 0 0 1 929 138.9767)"
   id="text194"
   style="-inkscape-font-specification:Sans;font-family:Sans;font-weight:normal;font-style:normal;font-stretch:normal;font-variant:normal;font-size:16px;text-anchor:start;text-align:start;writing-mode:lr;line-height:125%"
   sodipodi:linespacing="125%"><tspan
     sodipodi:role="line"
     id="tspan3240">Limitar ainda mais o nó de borda</tspan><tspan
     sodipodi:role="line"
     id="tspan3242">no qual esse modelo está </tspan><tspan
     sodipodi:role="line"
     id="tspan3244">implementado</tspan></text>

<rect
   x="557.9"
   y="472.6"
   class="st11"
   width="100.1"
   height="17.6"
   id="rect200" />
<text
   transform="matrix(1 0 0 1 567.0018 482.9886)"
   class="st15 st16 st18"
   id="text202">camera-type</text>

<rect
   x="662"
   y="472.6"
   class="st11"
   width="85"
   height="17.6"
   id="rect204" />
<text
   transform="matrix(1 0 0 1 671.3695 482.9886)"
   class="st15 st16 st18"
   id="text206">is equal to</text>

<rect
   x="751"
   y="472.6"
   class="st11"
   width="39.4"
   height="17.6"
   id="rect208" />
<text
   transform="matrix(1 0 0 1 758.9452 482.9886)"
   class="st15 st16 st18"
   id="text210">still</text>

<rect
   x="557.9"
   y="544.8"
   class="st11"
   width="100.1"
   height="17.6"
   id="rect212" />
<text
   transform="matrix(1 0 0 1 567.0018 555.1802)"
   class="st15 st16 st18"
   id="text214">camera-type</text>

<rect
   x="572.7"
   y="508.7"
   class="st11"
   width="36.5"
   height="13.9"
   id="rect216" />
<text
   transform="matrix(1 0 0 1 581.4539 519.0385)"
   class="st15 st16 st18"
   id="text218">OU</text>

<rect
   x="662"
   y="544.8"
   class="st11"
   width="85"
   height="17.6"
   id="rect220" />
<text
   transform="matrix(1 0 0 1 671.3695 555.1802)"
   class="st15 st16 st18"
   id="text222">is equal to</text>

<rect
   x="751"
   y="544.8"
   class="st11"
   width="62"
   height="17.6"
   id="rect224" />
<text
   transform="matrix(1 0 0 1 759.4813 555.1802)"
   class="st15 st16 st18"
   id="text226">motion</text>

</svg>
