<?xml version="1.0" encoding="UTF-8" standalone="no"?>
<!-- Generator: Adobe Illustrator 24.2.3, SVG Export Plug-In . SVG Version: 6.00 Build 0)  -->

<svg
   xmlns:dc="http://purl.org/dc/elements/1.1/"
   xmlns:cc="http://creativecommons.org/ns#"
   xmlns:rdf="http://www.w3.org/1999/02/22-rdf-syntax-ns#"
   xmlns:svg="http://www.w3.org/2000/svg"
   xmlns="http://www.w3.org/2000/svg"
   xmlns:sodipodi="http://sodipodi.sourceforge.net/DTD/sodipodi-0.dtd"
   xmlns:inkscape="http://www.inkscape.org/namespaces/inkscape"
   version="1.1"
   x="0px"
   y="0px"
   viewBox="0 0 1085.9 613"
   style="enable-background:new 0 0 1085.9 613;"
   xml:space="preserve"
   id="svg2"
   inkscape:version="0.91 r13725"
   sodipodi:docname="06_IEAM_management_hub_install.svg"><metadata
   id="metadata283"><rdf:RDF><cc:Work
       rdf:about=""><dc:format>image/svg+xml</dc:format><dc:type
         rdf:resource="http://purl.org/dc/dcmitype/StillImage" /></cc:Work></rdf:RDF></metadata><defs
   id="defs281" /><sodipodi:namedview
   pagecolor="#ffffff"
   bordercolor="#666666"
   borderopacity="1"
   objecttolerance="10"
   gridtolerance="10"
   guidetolerance="10"
   inkscape:pageopacity="0"
   inkscape:pageshadow="2"
   inkscape:window-width="1366"
   inkscape:window-height="705"
   id="namedview279"
   showgrid="false"
   inkscape:zoom="0.92726773"
   inkscape:cx="511.61851"
   inkscape:cy="271.41082"
   inkscape:window-x="-8"
   inkscape:window-y="-8"
   inkscape:window-maximized="1"
   inkscape:current-layer="Layer_1" />
<style
   type="text/css"
   id="style4">
	.st0{fill-rule:evenodd;clip-rule:evenodd;fill:#051B75;}
	.st1{fill:#BEBEBE;}
	.st2{fill-rule:evenodd;clip-rule:evenodd;fill:#E3F6FF;}
	.st3{fill-rule:evenodd;clip-rule:evenodd;fill:#0F62FE;}
	.st4{fill-rule:evenodd;clip-rule:evenodd;fill:#054ADA;}
	.st5{fill-rule:evenodd;clip-rule:evenodd;fill:#8A3FFC;}
	.st6{fill:none;stroke:#BEBEBE;stroke-width:2;}
	.st7{display:none;fill:#BEBEBE;}
	.st8{fill-rule:evenodd;clip-rule:evenodd;fill:none;}
	.st9{fill:#F4F4F4;}
	.st10{font-family:'IBMPlexSans-Medium';}
	.st11{font-size:16px;}
	.st12{fill-rule:evenodd;clip-rule:evenodd;fill:#408BFC;}
	.st13{fill:#161616;}
	.st14{font-family:'IBMPlexSans';}
	.st15{font-size:14px;}
	.st16{fill-rule:evenodd;clip-rule:evenodd;fill:#FFFFFF;}
	.st17{fill-rule:evenodd;clip-rule:evenodd;fill:#92EEEE;}
	.st18{fill:none;stroke:#BEBEBE;stroke-width:2;stroke-miterlimit:10;}
	.st19{fill:none;stroke:#BEBEBE;stroke-width:2.2099;stroke-miterlimit:10;}
</style>
<g
   id="Layer_1">
	<rect
   id="Rectangle-Copy-51"
   x="352"
   y="211"
   class="st0"
   width="496.4"
   height="284" />
	<path
   id="Line-11-Copy-3"
   class="st1"
   d="M409.2,367l6.8,14.1l-6-0.1l-0.2,15l6,0.1l-7.2,13.9l-6.8-14.1l6,0.1l0.2-15l-6-0.1   L409.2,367z" />
	<path
   id="Line-11-Copy-4"
   class="st1"
   d="M505,367l6.8,14.1l-6-0.1l-0.2,15l6,0.1l-7.2,13.9l-6.8-14.1l6,0.1l0.2-15l-6-0.1L505,367   z" />
	<path
   id="Line-11-Copy-5"
   class="st1"
   d="M791.7,367l6.8,14.1l-6-0.1l-0.2,15l6,0.1l-7.2,13.9l-6.8-14.1l6,0.1l0.2-15l-6-0.1   L791.7,367z" />
	<circle
   id="Oval-Copy-3"
   class="st2"
   cx="60.6"
   cy="24"
   r="24" />
	<path
   id="Shape"
   class="st3"
   d="M55.6,27c2.8,0,5,2.2,5,5v6h-2v-6c0-1.7-1.3-3-3-3h-4c-1.7,0-3,1.3-3,3v6h-2v-6c0-2.8,2.2-5,5-5   H55.6z M53.6,15c2.8,0,5,2.2,5,5s-2.2,5-5,5s-5-2.2-5-5S50.8,15,53.6,15z M68.6,12.9c2.1,0,3.9,1.4,4.5,3.4l0.1,0.2l0,0.1l0,0   c1.3,0.5,2.2,1.7,2.3,3.1l0,0.2l0,0.2c0,2.1-1.6,3.7-3.7,3.9l-0.2,0h-6.3c-2.1,0-3.9-1.7-3.9-3.9c0-1.5,0.9-2.8,2.2-3.5l0.2-0.1   l0-0.1c0.5-1.9,2.1-3.4,4.1-3.6l0.2,0L68.6,12.9z M53.6,17c-1.7,0-3,1.3-3,3c0,1.7,1.3,3,3,3s3-1.3,3-3S55.2,17,53.6,17z    M68.6,14.9c-1.4,0-2.5,1-2.7,2.4l0,0.2l0,0.8l-0.8,0.2c-0.9,0.2-1.5,0.9-1.5,1.8c0,1,0.8,1.8,1.7,1.9l0.1,0h6.3   c1,0,1.9-0.8,1.9-1.9c0-0.8-0.6-1.6-1.3-1.8l-0.1,0l-0.8-0.2l0-0.8C71.2,16,70,14.9,68.6,14.9z" />
	<rect
   id="Rectangle-Copy-48"
   x="123.7"
   y="211"
   class="st4"
   width="184.7"
   height="284" />
	<rect
   id="Rectangle-Copy-49"
   x="123.7"
   y="513"
   class="st5"
   width="724.7"
   height="100" />
	<polyline
   id="Path-6-Copy-9_4_"
   class="st6"
   points="550.5,95 550.5,171 380.1,171  " />
	<path
   id="Path-6-Copy-8"
   class="st7"
   d="M669.8,95v99h149v304.5H552.3V479h-6l7-14l7,14h-6v17.5h262.5V196h-149V95H669.8z" />
	<path
   id="Path-6-Copy-5"
   class="st1"
   d="M1500.8,507.9l-7,14l-7-14H1500.8z M1494.8,501v4h-2v-4H1494.8z M1494.8,493v4h-2v-4   H1494.8z M1494.8,485v4h-2v-4H1494.8z M1494.8,477v4h-2v-4H1494.8z M1494.8,469v4h-2v-4H1494.8z M1494.8,461v4h-2v-4H1494.8z    M1494.8,453v4h-2v-4H1494.8z M1494.8,445v4h-2v-4H1494.8z M1494.8,437v4h-2v-4H1494.8z M1494.8,429v4h-2v-4H1494.8z M1494.8,421v4   h-2v-4H1494.8z M1494.8,413v4h-2v-4H1494.8z M1494.8,405v4h-2v-4H1494.8z M1494.8,397v4h-2v-4H1494.8z M1494.8,389v4h-2v-4H1494.8z    M1494.8,381v4h-2v-4H1494.8z M1494.8,373v4h-2v-4H1494.8z M1494.8,365v4h-2v-4H1494.8z M1494.8,357v4h-2v-4H1494.8z M1494.8,349v4   h-2v-4H1494.8z M1494.8,341v4h-2v-4H1494.8z" />
	<rect
   x="365.1"
   y="231.1"
   class="st8"
   width="184"
   height="15.6"
   id="rect18" />
	<text
   transform="matrix(1 0 0 1 365.1083 242.9885)"
   class="st9 st10 st11"
   id="text20">Hub de gerenciamento do IEAM</text>

	<rect
   x="139.7"
   y="533.2"
   class="st8"
   width="319.6"
   height="15.6"
   id="rect22" />
	<text
   transform="matrix(1 0 0 1 139.7278 544.9918)"
   class="st9 st10 st11"
   id="text24">Red Hat® OpenShift® Container Platform</text>

	<rect
   id="Rectangle-Copy-14"
   x="868.8"
   y="513"
   class="st12"
   width="117"
   height="100" />
	<rect
   x="884.8"
   y="533.2"
   class="st8"
   width="94.6"
   height="15.6"
   id="rect27" />
	<text
   transform="matrix(1 0 0 1 884.827 544.9918)"
   class="st9 st10 st11"
   id="text29">Nó de borda</text>

	<rect
   x="139.7"
   y="231.1"
   class="st8"
   width="148"
   height="57"
   id="rect31" />
	<text
   transform="matrix(1 0 0 1 139.7274 242.9885)"
   id="text33"><tspan
     x="0"
     y="0"
     class="st9 st10 st11"
     id="tspan35">Serviços Comuns do </tspan><tspan
     x="0"
     y="22"
     class="st9 st10 st11"
     id="tspan37">IBM Cloud Platform</tspan></text>

	<rect
   x="10"
   y="51.6"
   class="st8"
   width="99.9"
   height="17.9"
   id="rect39" />
	<text
   transform="matrix(1 0 0 1 13.4691 61.9691)"
   class="st13 st14 st15"
   id="text41">Instalador em nuvem</text>

	<rect
   x="67.6"
   y="98.6"
   class="st8"
   width="99.9"
   height="56"
   id="rect43" />
	<text
   transform="scale(0.94260302,1.060892)"
   class="st13 st14 st15"
   id="text45"
   x="71.786964"
   y="102.71262"
   style="font-size:13.1964426px;font-family:IBMPlexSans;fill:#161616">1. Configura o OCP</text>

	<rect
   x="195.6"
   y="98.6"
   class="st8"
   width="149.1"
   height="56"
   id="rect47" />
	<text
   transform="scale(0.9377983,1.0663274)"
   id="text49"
   x="208.64986"
   y="102.18906"
   style="font-size:11.25357914px"><tspan
     x="208.64986"
     y="102.18906"
     class="st13 st14 st15"
     id="tspan51"
     style="font-size:13.12917614px;font-family:IBMPlexSans;fill:#161616">2. Instala os Serviços Comuns </tspan><tspan
     x="208.64986"
     y="120.94503"
     class="st13 st14 st15"
     id="tspan53"
     style="font-size:13.12917614px;font-family:IBMPlexSans;fill:#161616">do IBM Cloud </tspan><tspan
     x="208.64986"
     y="139.701"
     class="st13 st14 st15"
     id="tspan55"
     style="font-size:13.12917614px;font-family:IBMPlexSans;fill:#161616">Platform</tspan></text>

	<rect
   x="385.6"
   y="98.6"
   class="st8"
   width="149.1"
   height="56"
   id="rect57" />
	<text
   transform="matrix(1 0 0 1 385.5871 108.967)"
   id="text59"><tspan
     x="0"
     y="0"
     class="st13 st14 st15"
     id="tspan61">3. Instala os </tspan><tspan
     x="0"
     y="20"
     class="st13 st14 st15"
     id="tspan63">componentes no </tspan><tspan
     x="0"
     y="40"
     class="st13 st14 st15"
     id="tspan65">hub de gerenciamento</tspan></text>

	<rect
   x="562.6"
   y="98.6"
   class="st8"
   width="172"
   height="56"
   id="rect67" />
	<text
   transform="matrix(1 0 0 1 562.5871 108.9675)"
   id="text69"><tspan
     x="0"
     y="0"
     class="st13 st14 st15"
     id="tspan71">4. Configura a autenticação </tspan><tspan
     x="0"
     y="20"
     class="st13 st14 st15"
     id="tspan73">para o Identity and Access </tspan><tspan
     x="0"
     y="40"
     class="st13 st14 st15"
     id="tspan75">Manager (IAM)</tspan></text>

	<rect
   x="755.6"
   y="98.6"
   class="st8"
   width="135.2"
   height="56"
   id="rect77" />
	<text
   transform="scale(0.93913665,1.0648078)"
   id="text79"
   x="804.65717"
   y="102.33537"
   style="font-size:11.26963997px"><tspan
     x="804.65717"
     y="102.33537"
     class="st13 st14 st15"
     id="tspan81"
     style="font-size:13.14791298px;font-family:IBMPlexSans;fill:#161616">5. Preenche o </tspan><tspan
     x="804.65717"
     y="121.1181"
     class="st13 st14 st15"
     id="tspan83"
     style="font-size:13.14791298px;font-family:IBMPlexSans;fill:#161616">Exchange com exemplos do </tspan><tspan
     x="804.65717"
     y="139.90083"
     class="st13 st14 st15"
     id="tspan85"
     style="font-size:13.14791298px;font-family:IBMPlexSans;fill:#161616">Open Horizon</tspan></text>

	<rect
   x="939.4"
   y="98.6"
   class="st8"
   width="130.3"
   height="38.4"
   id="rect87" />
	<text
   transform="scale(0.85259138,1.1728948)"
   id="text89"
   x="1101.7743"
   y="92.904755"
   style="font-size:10.23109627px"><tspan
     x="1101.7743"
     y="92.904755"
     class="st13 st14 st15"
     id="tspan91"
     style="font-size:11.9362793px;font-family:IBMPlexSans;fill:#161616">6. Publica arquivos de </tspan><tspan
     x="1101.7743"
     y="109.95658"
     class="st13 st14 st15"
     id="tspan93"
     style="font-size:11.9362793px;font-family:IBMPlexSans;fill:#161616"> instalação do agente no MMS</tspan></text>

	<rect
   x="939.8"
   y="392.8"
   class="st8"
   width="80.8"
   height="56.4"
   id="rect95" />
	<text
   transform="matrix(1 0 0 1 939.8289 403.2048)"
   id="text97"><tspan
     x="0"
     y="0"
     class="st13 st14 st15"
     id="tspan99">Nós de borda </tspan><tspan
     x="0"
     y="20"
     class="st13 st14 st15"
     id="tspan101"> fazem pull de arquivos </tspan><tspan
     x="0"
     y="40"
     class="st13 st14 st15"
     id="tspan103">do MMS</tspan></text>

	<line
   id="Path-6-Copy-4_3_"
   class="st6"
   x1="1352.8"
   y1="102.9"
   x2="1352.8"
   y2="254.4" />
	<path
   id="Path-6-Copy-5_2_"
   class="st1"
   d="M1360.3,507.9l-7,14l-7-14H1360.3z M1354.3,501v4h-2v-4H1354.3z M1354.3,493v4h-2v-4   H1354.3z M1354.3,485v4h-2v-4H1354.3z M1354.3,477v4h-2v-4H1354.3z M1354.3,469v4h-2v-4H1354.3z M1354.3,461v4h-2v-4H1354.3z    M1354.3,453v4h-2v-4H1354.3z M1354.3,445v4h-2v-4H1354.3z M1354.3,437v4h-2v-4H1354.3z M1354.3,429v4h-2v-4H1354.3z M1354.3,421v4   h-2v-4H1354.3z M1354.3,413v4h-2v-4H1354.3z M1354.3,405v4h-2v-4H1354.3z M1354.3,397v4h-2v-4H1354.3z M1354.3,389v4h-2v-4H1354.3z    M1354.3,381v4h-2v-4H1354.3z M1354.3,373v4h-2v-4H1354.3z M1354.3,365v4h-2v-4H1354.3z M1354.3,357v4h-2v-4H1354.3z M1354.3,349v4   h-2v-4H1354.3z M1354.3,341v4h-2v-4H1354.3z" />
	<circle
   id="Oval-Copy-3_10_"
   class="st2"
   cx="1353.3"
   cy="285.9"
   r="24" />
	<path
   id="Shape_4_"
   class="st3"
   d="M1348.3,288.9c2.8,0,5,2.2,5,5v6h-2v-6c0-1.7-1.3-3-3-3h-4c-1.7,0-3,1.3-3,3v6h-2v-6   c0-2.8,2.2-5,5-5H1348.3z M1346.3,276.9c2.8,0,5,2.2,5,5c0,2.8-2.2,5-5,5c-2.8,0-5-2.2-5-5C1341.3,279.2,1343.6,276.9,1346.3,276.9   z M1359.3,284.9v2h-2v-2H1359.3z M1364.3,284.9v2h-2v-2H1364.3z M1346.3,278.9c-1.7,0-3,1.3-3,3c0,1.7,1.3,3,3,3s3-1.3,3-3   C1349.3,280.3,1348,278.9,1346.3,278.9z M1367.3,281.9v2h-2v-2H1367.3z M1356.3,281.9v2h-2v-2H1356.3z M1364.3,276.9v7h-7v-7   H1364.3z M1362.3,278.9h-3v3h3V278.9z M1367.3,276.9v2h-2v-2H1367.3z M1356.3,276.9v2h-2v-2H1356.3z M1359.3,273.9v2h-2v-2H1359.3z    M1364.3,273.9v2h-2v-2H1364.3z" />
	<g
   id="g109">
		<circle
   id="Oval-Copy-3_9_"
   class="st16"
   cx="1352.8"
   cy="209.5"
   r="20" />
		<path
   id="Fill-1_5_"
   class="st12"
   d="M1350.8,209.5h4v-5h-4V209.5z M1354.8,202.5h-4c-1.1,0-2,0.9-2,2v12h2v-5h4v5h2v-12    C1356.8,203.4,1355.9,202.5,1354.8,202.5L1354.8,202.5z" />
		<path
   id="Fill-3_5_"
   class="st12"
   d="M1360.8,208.5h4v-4h-4V208.5z M1366.8,208.5v-4c0-1.1-0.9-2-2-2h-6v14h2v-6h1.5l2.3,6h2.1    l-2.3-6h0.4C1365.9,210.5,1366.8,209.6,1366.8,208.5L1366.8,208.5z" />
		<polygon
   id="Fill-4_5_"
   class="st12"
   points="1338.8,204.5 1341.8,204.5 1341.8,216.5 1343.8,216.5 1343.8,204.5 1346.8,204.5     1346.8,202.5 1338.8,202.5   " />
	</g>
	<circle
   id="Oval-Copy-3_8_"
   class="st16"
   cx="1353.3"
   cy="388.9"
   r="20" />
	<path
   id="Fill-1_4_"
   class="st12"
   d="M1351.3,388.9h4v-5h-4V388.9z M1355.3,381.9h-4c-1.1,0-2,0.9-2,2v12h2v-5h4v5h2v-12   C1357.3,382.8,1356.4,381.9,1355.3,381.9L1355.3,381.9z" />
	<path
   id="Fill-3_4_"
   class="st12"
   d="M1361.3,387.9h4v-4h-4V387.9z M1367.3,387.9v-4c0-1.1-0.9-2-2-2h-6v14h2v-6h1.5l2.3,6h2.1   l-2.3-6h0.4C1366.4,389.9,1367.3,389.1,1367.3,387.9L1367.3,387.9z" />
	<polygon
   id="Fill-4_4_"
   class="st12"
   points="1339.3,383.9 1342.3,383.9 1342.3,395.9 1344.3,395.9 1344.3,383.9 1347.3,383.9    1347.3,381.9 1339.3,381.9  " />
	<rect
   x="1285.2"
   y="320.4"
   class="st8"
   width="135.2"
   height="14.9"
   id="rect119" />
	<text
   transform="matrix(1 0 0 1 1314.0431 330.7556)"
   class="st13 st14 st15"
   id="text121">Proprietário do nó</text>

	<rect
   x="1365.3"
   y="430.2"
   class="st8"
   width="100.2"
   height="56.4"
   id="rect123" />
	<text
   transform="matrix(1 0 0 1 1365.3431 440.6035)"
   id="text125"><tspan
     x="0"
     y="0"
     class="st13 st14 st15"
     id="tspan127">Posteriormente, precisa do </tspan><tspan
     x="0"
     y="20"
     class="st13 st14 st15"
     id="tspan129">arquivo tar para a </tspan><tspan
     x="0"
     y="40"
     class="st13 st14 st15"
     id="tspan131">instalação do agente</tspan></text>

	<g
   id="g133">
		<rect
   id="Rectangle-Copy-16"
   x="655.9"
   y="286"
   class="st16"
   width="80"
   height="81" />
		<rect
   x="655.9"
   y="319.6"
   class="st8"
   width="80"
   height="14.9"
   id="rect136" />
		<text
   transform="matrix(1 0 0 1 682.0273 329.9869)"
   class="st13 st14 st15"
   id="text138">SDO</text>

	</g>
	<g
   id="g140">
		<rect
   id="Rectangle-Copy-16_6_"
   x="751.5"
   y="286"
   class="st16"
   width="80"
   height="81" />
		<rect
   x="751.5"
   y="319.6"
   class="st8"
   width="80"
   height="14.9"
   id="rect143" />
		<text
   transform="matrix(1 0 0 1 775.883 329.9869)"
   class="st13 st14 st15"
   id="text145">MMS</text>

	</g>
	<g
   id="g147">
		<rect
   id="Rectangle-Copy-16_1_"
   x="560.3"
   y="286"
   class="st16"
   width="80"
   height="81" />
		<rect
   x="560.3"
   y="319.6"
   class="st8"
   width="80"
   height="14.9"
   id="rect150" />
		<text
   transform="matrix(1 0 0 1 592.7087 329.9869)"
   class="st13 st14 st15"
   id="text152">IU</text>

	</g>
	<g
   id="g154">
		<rect
   id="Rectangle-Copy-16_2_"
   x="464.8"
   y="286"
   class="st16"
   width="80"
   height="81" />
		<rect
   x="464.8"
   y="319.6"
   class="st8"
   width="80"
   height="14.9"
   id="rect157" />
		<text
   transform="matrix(1 0 0 1 473.8431 329.9869)"
   class="st13 st14 st15"
   id="text159">Exchange</text>

	</g>
	<g
   id="g161">
		<rect
   id="Rectangle-Copy-16_3_"
   x="369.2"
   y="286"
   class="st16"
   width="80"
   height="81" />
		<rect
   x="369.2"
   y="319.6"
   class="st8"
   width="80"
   height="14.9"
   id="rect164" />
		<text
   transform="matrix(1 0 0 1 390.2636 329.9869)"
   class="st13 st14 st15"
   id="text166">Agbot</text>

	</g>
	<g
   id="g168">
		<rect
   id="Rectangle-Copy-16_7_"
   x="139.7"
   y="397"
   class="st16"
   width="80"
   height="81" />
		<rect
   x="139.6"
   y="430.7"
   class="st8"
   width="80"
   height="14.9"
   id="rect171" />
		<text
   transform="matrix(1 0 0 1 166.5116 441.0553)"
   class="st13 st14 st15"
   id="text173">IAM</text>

	</g>
	<g
   id="g175">
		<rect
   id="Rectangle-Copy-16_4_"
   x="369.2"
   y="410"
   class="st17"
   width="80"
   height="68" />
		<rect
   x="369.2"
   y="427.7"
   class="st8"
   width="80"
   height="39.8"
   id="rect178" />
		<text
   transform="matrix(1 0 0 1 381.1071 438.0454)"
   id="text180"><tspan
     x="0"
     y="0"
     class="st13 st14 st15"
     id="tspan182">Postgres </tspan><tspan
     x="18.7"
     y="20"
     class="st13 st14 st15"
     id="tspan184">DB</tspan></text>

	</g>
	<g
   id="g186">
		<rect
   id="Rectangle-Copy-16_5_"
   x="464.8"
   y="410"
   class="st17"
   width="80"
   height="68" />
		<rect
   x="464.8"
   y="427.7"
   class="st8"
   width="80"
   height="39.8"
   id="rect189" />
		<text
   transform="matrix(1 0 0 1 476.6773 438.0454)"
   id="text191"><tspan
     x="0"
     y="0"
     class="st13 st14 st15"
     id="tspan193">Postgres </tspan><tspan
     x="18.7"
     y="20"
     class="st13 st14 st15"
     id="tspan195">DB</tspan></text>

	</g>
	<g
   id="g197">
		<rect
   id="Rectangle-Copy-16_16_"
   x="751.5"
   y="410"
   class="st17"
   width="80"
   height="68" />
		<rect
   x="751.5"
   y="427.7"
   class="st8"
   width="80"
   height="39.8"
   id="rect200" />
		<text
   transform="matrix(1 0 0 1 769.9676 438.0454)"
   id="text202"><tspan
     x="0"
     y="0"
     class="st13 st14 st15"
     id="tspan204">Mongo </tspan><tspan
     x="12.2"
     y="20"
     class="st13 st14 st15"
     id="tspan206">DB</tspan></text>

	</g>
	<g
   id="g208">
		<g
   id="g210">
			<polyline
   class="st18"
   points="743.6,95 743.6,265 504.8,265 504.8,276    "
   id="polyline212" />
			<g
   id="g214">
				<polygon
   class="st1"
   points="497.8,274 504.8,286 511.7,274     "
   id="polygon216" />
			</g>
		</g>
	</g>
	<g
   id="g218">
		<g
   id="g220">
			<polyline
   class="st19"
   points="927.3,95 927.3,313 842.6,313    "
   id="polyline222" />
			<g
   id="g224">
				<polygon
   class="st1"
   points="844.8,305.3 831.5,313 844.8,320.8     "
   id="polygon226" />
			</g>
		</g>
	</g>
	<g
   id="g228">
		<g
   id="g230">
			<polyline
   class="st19"
   points="831.5,339.5 927.3,339.5 927.3,501.9    "
   id="polyline232" />
			<g
   id="g234">
				<polygon
   class="st1"
   points="919.6,499.6 927.3,513 935,499.6     "
   id="polygon236" />
			</g>
		</g>
	</g>
	<g
   id="g238">
		<g
   id="g240">
			<line
   class="st18"
   x1="183.4"
   y1="95"
   x2="183.4"
   y2="201"
   id="line242" />
			<g
   id="g244">
				<polygon
   class="st1"
   points="176.4,198.9 183.4,211 190.4,198.9     "
   id="polygon246" />
			</g>
		</g>
	</g>
	<g
   id="g248">
		<g
   id="g250">
			<polyline
   class="st18"
   points="55.5,80.1 55.5,563 113.7,563    "
   id="polyline252" />
			<g
   id="g254">
				<polygon
   class="st1"
   points="111.6,570 123.7,563 111.6,556     "
   id="polygon256" />
			</g>
		</g>
	</g>
	<g
   id="g258">
		<g
   id="g260">
			<polyline
   class="st18"
   points="229.8,434.1 330.2,434.1 330.2,171 365.1,171    "
   id="polyline262" />
			<g
   id="g264">
				<polygon
   class="st1"
   points="231.8,441.1 219.7,434.1 231.8,427.2     "
   id="polygon266" />
			</g>
		</g>
	</g>
	<g
   id="g268">
		<g
   id="g270">
			<line
   class="st18"
   x1="373.5"
   y1="95"
   x2="373.5"
   y2="201"
   id="line272" />
			<g
   id="g274">
				<polygon
   class="st1"
   points="366.5,198.9 373.5,211 380.5,198.9     "
   id="polygon276" />
			</g>
		</g>
	</g>
</g>
<g
   id="Layer_2">
</g>
</svg>
