<svg id="Layer_1" data-name="Layer 1" xmlns="http://www.w3.org/2000/svg" viewBox="0 0 1012.75 444.41"><defs><style>.cls-1{fill:#f4dd9d;stroke:#bc9a30;}.cls-1,.cls-15,.cls-2,.cls-26,.cls-57,.cls-59,.cls-63{stroke-miterlimit:10;}.cls-1,.cls-15,.cls-26,.cls-57{stroke-width:2px;}.cls-2{font-size:24px;}.cls-2,.cls-59{fill:#cb3694;}.cls-2,.cls-57,.cls-59,.cls-63{stroke:#cb3794;}.cls-16,.cls-2,.cls-3,.cls-34,.cls-35,.cls-40,.cls-49,.cls-59{font-family:IBMPlexSans, IBM Plex Sans;}.cls-3,.cls-34,.cls-45,.cls-49{font-size:14px;}.cls-16,.cls-3{fill:#231f20;}.cls-4{letter-spacing:-0.01em;}.cls-5{letter-spacing:0em;}.cls-6{letter-spacing:0em;}.cls-7{letter-spacing:-0.01em;}.cls-8{letter-spacing:0.01em;}.cls-9{letter-spacing:-0.01em;}.cls-10{letter-spacing:-0.01em;}.cls-11{letter-spacing:0em;}.cls-12{font-size:21px;font-family:MyriadPro-Regular, Myriad Pro;}.cls-12,.cls-58{fill:#cb3794;}.cls-13{fill:#f2f6fc;}.cls-14,.cls-45{fill:#4272b8;}.cls-15,.cls-57,.cls-63{fill:none;}.cls-15{stroke:#4272b8;}.cls-16{font-size:13px;}.cls-17{letter-spacing:-0.01em;}.cls-18{letter-spacing:0em;}.cls-19{letter-spacing:-0.01em;}.cls-20{letter-spacing:-0.01em;}.cls-21{letter-spacing:0em;}.cls-22{letter-spacing:-0.01em;}.cls-23{letter-spacing:0em;}.cls-24{letter-spacing:0em;}.cls-25{letter-spacing:0em;}.cls-26{fill:#e2e8e6;stroke:#038571;}.cls-27{fill:#f9f0f6;}.cls-28{fill:#8d3493;}.cls-29{letter-spacing:0em;}.cls-30,.cls-35{font-size:11px;}.cls-31{letter-spacing:-0.01em;}.cls-32{letter-spacing:-0.01em;}.cls-33{letter-spacing:0.01em;}.cls-34{fill:#fff;}.cls-35,.cls-40,.cls-49{fill:#343434;}.cls-36{letter-spacing:0.01em;}.cls-37{letter-spacing:-0.01em;}.cls-38{letter-spacing:0em;}.cls-39{letter-spacing:-0.01em;}.cls-40{font-size:12px;}.cls-41{letter-spacing:-0.01em;}.cls-42{letter-spacing:-0.01em;}.cls-43{letter-spacing:0em;}.cls-44{letter-spacing:-0.01em;}.cls-45,.cls-50{font-family:IBMPlexSans-Bold, IBM Plex Sans;font-weight:700;}.cls-46{letter-spacing:-0.01em;}.cls-47{letter-spacing:-0.01em;}.cls-48{letter-spacing:-0.01em;}.cls-51{letter-spacing:0em;}.cls-52{letter-spacing:0em;}.cls-53{letter-spacing:-0.01em;}.cls-54{letter-spacing:-0.01em;}.cls-55{letter-spacing:0.01em;}.cls-56{letter-spacing:-0.01em;}.cls-59{font-size:18px;}.cls-60{letter-spacing:0.01em;}.cls-61{letter-spacing:-0.01em;}.cls-62{letter-spacing:0em;}</style></defs><title>access</title><rect class="cls-1" x="320.05" y="366.87" width="261.75" height="58.27" rx="20.55" ry="20.55"/><text class="cls-2" transform="translate(742.56 206.34)">X</text><rect class="cls-1" x="807.22" y="172.85" width="179.28" height="48.6" rx="20.55" ry="20.55"/><text class="cls-3" transform="translate(847.71 199.43)">A<tspan class="cls-4" x="8.97" y="0">n</tspan><tspan x="16.81" y="0">y </tspan><tspan class="cls-5" x="27.1" y="0">r</tspan><tspan x="32.17" y="0">emo</tspan><tspan class="cls-6" x="59.92" y="0">t</tspan><tspan x="64.78" y="0">e ho</tspan><tspan class="cls-7" x="91.56" y="0">s</tspan><tspan x="98.28" y="0">t </tspan></text><text class="cls-3" transform="translate(344.12 402.67)">Se<tspan class="cls-8" x="15.82" y="0">r</tspan><tspan x="21.1" y="0">vi</tspan><tspan class="cls-9" x="31.49" y="0">c</tspan><tspan x="38.44" y="0">e has no </tspan><tspan class="cls-10" x="94.08" y="0">e</tspan><tspan class="cls-11" x="101.6" y="0">xplicit dependency</tspan></text><text class="cls-12" transform="translate(694.54 218.05)">X</text><rect class="cls-13" x="320.87" y="281.26" width="345.71" height="28.72"/><path class="cls-14" d="M665.57,282.26V309H321.87V282.26h343.7m2-2H319.87V311h347.7V280.26Z"/><rect class="cls-14" x="296.4" y="281.76" width="367.52" height="49.07"/><path class="cls-13" d="M662.42,283.26v46.07H297.9V283.26H662.42m3-3H294.9v52.07H665.42V280.26Z"/><rect class="cls-13" x="6.63" y="18.57" width="735.34" height="323.4"/><path class="cls-14" d="M741,19.57V341H7.63V19.57H741m2-2H5.63V343H743V17.57Z"/><rect class="cls-15" x="18.6" y="260.02" width="172.21" height="63.01"/><text class="cls-16" transform="translate(25.06 278.46)"><tspan class="cls-17">P</tspan><tspan class="cls-18" x="7.75" y="0">r</tspan><tspan x="12.45" y="0">o</tspan><tspan class="cls-19" x="19.73" y="0">c</tspan><tspan x="26.19" y="0">e</tspan><tspan class="cls-20" x="33.33" y="0">s</tspan><tspan class="cls-21" x="39.58" y="0">ses that h</tspan><tspan class="cls-22" x="96.36" y="0">av</tspan><tspan x="109.49" y="0">e a</tspan><tspan class="cls-19" x="126.63" y="0">cc</tspan><tspan class="cls-23" x="139.55" y="0">e</tspan><tspan class="cls-19" x="146.69" y="0">s</tspan><tspan x="152.94" y="0">s</tspan><tspan class="cls-24" x="14.44" y="16">t</tspan><tspan x="18.95" y="16">o this vi</tspan><tspan class="cls-25" x="63.54" y="16">r</tspan><tspan x="68.37" y="16">tual net</tspan><tspan class="cls-18" x="112.94" y="16">w</tspan><tspan x="122.86" y="16">ork </tspan><tspan x="37.93" y="32">(with add</tspan><tspan class="cls-18" x="92.56" y="32">r</tspan><tspan class="cls-23" x="97.26" y="32">e</tspan><tspan class="cls-19" x="104.4" y="32">s</tspan><tspan x="110.65" y="32">s)</tspan></text><rect class="cls-15" x="810.76" y="247.79" width="172.21" height="104.92"/><rect class="cls-26" x="216.44" y="81.45" width="498.52" height="173.63"/><rect class="cls-27" x="246.9" y="183.78" width="212" height="48"/><path class="cls-28" d="M457.9,184.78v46h-210v-46h210m2-2h-214v50h214v-50Z"/><rect class="cls-27" x="489.61" y="101.64" width="202" height="40.22"/><path class="cls-28" d="M690.61,102.64v38.22h-200V102.64h200m2-2h-204v42.22h204V100.64Z"/><text class="cls-3" transform="translate(540.83 117.64)">cpu2<tspan class="cls-4" x="31.51" y="0">e</tspan><tspan class="cls-29" x="39.09" y="0">v</tspan><tspan x="46.02" y="0">t</tspan><tspan class="cls-7" x="50.93" y="0">s</tspan><tspan x="57.65" y="0">t</tspan><tspan class="cls-5" x="62.57" y="0">r</tspan><tspan x="67.63" y="0">eams</tspan><tspan class="cls-30"><tspan x="-23.7" y="16">(IBM </tspan><tspan class="cls-31" x="3.1" y="16">E</tspan><tspan x="9.4" y="16">d</tspan><tspan class="cls-32" x="15.78" y="16">g</tspan><tspan x="21.52" y="16">e Computing se</tspan><tspan class="cls-33" x="98.04" y="16">r</tspan><tspan x="102.18" y="16">vi</tspan><tspan class="cls-32" x="110.34" y="16">c</tspan><tspan x="115.81" y="16">e)</tspan></tspan></text><rect class="cls-14" x="294.9" y="291.96" width="116" height="38.02"/><text class="cls-34" transform="translate(319.13 314.94)">OS se<tspan class="cls-8" x="35.85" y="0">r</tspan><tspan x="41.13" y="0">vi</tspan><tspan class="cls-9" x="51.52" y="0">c</tspan><tspan x="58.48" y="0">es</tspan></text><text class="cls-35" transform="translate(514 157.62)">Se<tspan class="cls-36" x="12.43" y="0">r</tspan><tspan x="16.58" y="0">vi</tspan><tspan class="cls-32" x="24.74" y="0">c</tspan><tspan x="30.21" y="0">e </tspan><tspan class="cls-37" x="38.84" y="0">s</tspan><tspan x="44.12" y="0">ta</tspan><tspan class="cls-38" x="53.86" y="0">t</tspan><tspan x="57.67" y="0">es</tspan><tspan class="cls-39" x="-38.71" y="16">e</tspan><tspan x="-32.8" y="16">xplicit dependencies</tspan></text><text class="cls-40" transform="translate(550.18 277.59)">Ha<tspan class="cls-41" x="14.89" y="0">r</tspan><tspan x="19.22" y="0">d</tspan><tspan class="cls-42" x="26.18" y="0">w</tspan><tspan class="cls-43" x="35.29" y="0">a</tspan><tspan class="cls-44" x="41.7" y="0">r</tspan><tspan x="46.04" y="0">e a</tspan><tspan class="cls-41" x="61.87" y="0">cc</tspan><tspan x="73.8" y="0">e</tspan><tspan class="cls-41" x="80.39" y="0">s</tspan><tspan x="86.16" y="0">s</tspan></text><text class="cls-45" transform="translate(425.75 49.19)"><tspan class="cls-46">E</tspan><tspan x="8.36" y="0">d</tspan><tspan class="cls-9" x="16.87" y="0">g</tspan><tspan x="24.51" y="0">e node</tspan><tspan x="-34.68" y="16">IBM </tspan><tspan class="cls-47" x="-4.52" y="16">E</tspan><tspan x="3.84" y="16">d</tspan><tspan class="cls-48" x="12.35" y="16">g</tspan><tspan x="19.99" y="16">e Computing</tspan></text><text class="cls-40" transform="translate(337.06 277.59)">OS a<tspan class="cls-41" x="24.71" y="0">cc</tspan><tspan x="36.64" y="0">e</tspan><tspan class="cls-41" x="43.22" y="0">s</tspan><tspan x="49" y="0">s</tspan></text><rect class="cls-27" x="489.61" y="183.78" width="202" height="48"/><path class="cls-28" d="M690.61,184.78v46h-200v-46h200m2-2h-204v50h204v-50Z"/><text class="cls-3" transform="translate(577.79 202.44)">gps <tspan class="cls-30"><tspan x="-61.8" y="16">(IBM </tspan><tspan class="cls-31" x="-35" y="16">E</tspan><tspan x="-28.7" y="16">d</tspan><tspan class="cls-32" x="-22.32" y="16">g</tspan><tspan x="-16.58" y="16">e Computing se</tspan><tspan class="cls-33" x="59.94" y="16">r</tspan><tspan x="64.08" y="16">vi</tspan><tspan class="cls-32" x="72.24" y="16">c</tspan><tspan x="77.71" y="16">e)</tspan></tspan></text><text class="cls-49" transform="translate(290.9 93.15)"><tspan class="cls-50"><tspan x="-68.83" y="16">IBM </tspan><tspan class="cls-47" x="-38.67" y="16">E</tspan><tspan x="-30.32" y="16">d</tspan><tspan class="cls-48" x="-21.8" y="16">g</tspan><tspan x="-14.16" y="16">e Computing</tspan><tspan x="-65.93" y="32">Depl</tspan><tspan class="cls-47" x="-35.55" y="32">o</tspan><tspan class="cls-51" x="-27.8" y="32">yment p</tspan><tspan class="cls-9" x="25.58" y="32">a</tspan><tspan class="cls-5" x="33.47" y="32">t</tspan><tspan class="cls-52" x="38.76" y="32">t</tspan><tspan class="cls-51" x="44.06" y="32">ern</tspan></tspan></text><rect class="cls-14" x="521.79" y="291.52" width="141.68" height="38.02"/><text class="cls-34" transform="translate(536.5 313.11)">Ha<tspan class="cls-53" x="17.37" y="0">r</tspan><tspan x="22.43" y="0">d</tspan><tspan class="cls-54" x="30.55" y="0">w</tspan><tspan x="41.17" y="0">a</tspan><tspan class="cls-5" x="48.65" y="0">r</tspan><tspan x="53.72" y="0">e d</tspan><tspan class="cls-4" x="72.83" y="0">e</tspan><tspan class="cls-11" x="80.4" y="0">vi</tspan><tspan class="cls-9" x="90.79" y="0">c</tspan><tspan class="cls-51" x="97.75" y="0">es</tspan></text><text class="cls-45" transform="translate(847.7 139.43)">Cloud se<tspan class="cls-55" x="56.33" y="0">r</tspan><tspan class="cls-56" x="62.09" y="0">v</tspan><tspan x="69.51" y="0">ers</tspan><tspan x="13.24" y="16">(o</tspan><tspan class="cls-9" x="25.87" y="16">p</tspan><tspan x="34.3" y="16">tional)</tspan></text><path class="cls-14" d="M912.45,88.3a19.62,19.62,0,0,0-19.63-17.67A19.88,19.88,0,0,0,873.37,87.1a17.68,17.68,0,0,0-2.62-.2,17.43,17.43,0,1,0,0,34.85H905.6a17.43,17.43,0,0,0,6.85-33.45Zm-6.85,28.81H870.75a12.78,12.78,0,1,1,4-24.93l3,1,.07-3.12a15.18,15.18,0,0,1,15.08-14.74A15,15,0,0,1,907.91,90l0,1.65,1.57.5a12.78,12.78,0,0,1-3.92,25Z"/><text class="cls-3" transform="translate(338.66 200.78)">cpu<tspan class="cls-30"><tspan x="-63.06" y="16">(IBM </tspan><tspan class="cls-31" x="-36.27" y="16">E</tspan><tspan x="-29.96" y="16">d</tspan><tspan class="cls-32" x="-23.58" y="16">g</tspan><tspan x="-17.84" y="16">e Computing se</tspan><tspan class="cls-33" x="58.67" y="16">r</tspan><tspan x="62.82" y="16">vi</tspan><tspan class="cls-32" x="70.98" y="16">c</tspan><tspan x="76.45" y="16">e)</tspan></tspan></text><line class="cls-15" x1="591.85" y1="151.06" x2="591.68" y2="174.97"/><polygon class="cls-14" points="587.35 152.34 591.89 144.6 596.33 152.41 587.35 152.34"/><polygon class="cls-14" points="587.2 173.63 591.63 181.43 596.18 173.69 587.2 173.63"/><line class="cls-15" x1="647.38" y1="242.75" x2="647.1" y2="281.99"/><polygon class="cls-14" points="642.88 244.03 647.42 236.29 651.85 244.09 642.88 244.03"/><polygon class="cls-14" points="642.62 280.65 647.05 288.45 651.6 280.71 642.62 280.65"/><line class="cls-15" x1="398.78" y1="242.75" x2="398.5" y2="281.99"/><polygon class="cls-14" points="394.28 244.03 398.82 236.29 403.26 244.09 394.28 244.03"/><polygon class="cls-14" points="394.02 280.65 398.45 288.45 403 280.71 394.02 280.65"/><line class="cls-15" x1="392.4" y1="177.4" x2="477.38" y2="125.14"/><polygon class="cls-14" points="395.87 180.53 386.9 180.78 391.17 172.89 395.87 180.53"/><polygon class="cls-14" points="478.61 129.65 482.88 121.75 473.91 122 478.61 129.65"/><line class="cls-57" x1="158.5" y1="163.49" x2="199" y2="180.92"/><polygon class="cls-58" points="196.01 184.52 204.93 183.47 199.56 176.28 196.01 184.52"/><line class="cls-57" x1="805.2" y1="197.15" x2="760.5" y2="197.15"/><polygon class="cls-58" points="761.81 192.66 754.04 197.15 761.81 201.64 761.81 192.66"/><text class="cls-59" transform="translate(460.35 214.33)">X</text><line class="cls-57" x1="488.61" y1="207.91" x2="474.97" y2="207.91"/><polygon class="cls-58" points="476.28 203.42 468.51 207.91 476.28 212.39 476.28 203.42"/><text class="cls-16" transform="translate(839.44 266.24)">When se<tspan class="cls-60" x="50.02" y="0">r</tspan><tspan x="54.92" y="0">vi</tspan><tspan class="cls-19" x="64.57" y="0">c</tspan><tspan x="71.03" y="0">e po</tspan><tspan class="cls-25" x="96.06" y="0">r</tspan><tspan x="100.88" y="0">ts </tspan><tspan x="16.14" y="16">a</tspan><tspan class="cls-18" x="23.08" y="16">r</tspan><tspan x="27.79" y="16">e published </tspan><tspan x="-1.44" y="32">th</tspan><tspan class="cls-18" x="10.51" y="32">r</tspan><tspan x="15.22" y="32">ough </tspan><tspan class="cls-24" x="47.2" y="32">t</tspan><tspan x="51.71" y="32">o the ho</tspan><tspan class="cls-61" x="98.87" y="32">s</tspan><tspan x="105.11" y="32">t, </tspan><tspan class="cls-18" x="-6.83" y="48">r</tspan><tspan x="-2.13" y="48">emo</tspan><tspan class="cls-24" x="23.64" y="48">t</tspan><tspan x="28.15" y="48">e machines can </tspan><tspan x="-11.41" y="64">a</tspan><tspan class="cls-19" x="-4.47" y="64">cc</tspan><tspan class="cls-23" x="8.46" y="64">e</tspan><tspan class="cls-19" x="15.59" y="64">s</tspan><tspan x="21.85" y="64">s these machines </tspan><tspan x="20.95" y="80">(</tspan><tspan class="cls-18" x="25.3" y="80">w</tspan><tspan x="35.22" y="80">eb se</tspan><tspan class="cls-60" x="66.44" y="80">r</tspan><tspan class="cls-22" x="71.34" y="80">v</tspan><tspan x="77.63" y="80">er)</tspan></text><line class="cls-15" x1="704.11" y1="121.75" x2="838.04" y2="121.75"/><polygon class="cls-14" points="705.42 126.24 697.65 121.75 705.42 117.27 705.42 126.24"/><polygon class="cls-14" points="836.73 126.24 844.5 121.75 836.73 117.27 836.73 126.24"/><line class="cls-15" x1="178.94" y1="251.62" x2="235.77" y2="215.63"/><polygon class="cls-14" points="182.45 254.71 173.49 255.08 177.65 247.13 182.45 254.71"/><polygon class="cls-14" points="237.06 220.12 241.22 212.17 232.25 212.54 237.06 220.12"/><rect class="cls-1" x="18.6" y="109.01" width="179.28" height="48.6" rx="20.55" ry="20.55"/><text class="cls-3" transform="translate(40.83 130.69)">Other non-priviled<tspan class="cls-9" x="114.99" y="0">g</tspan><tspan x="122.3" y="0">ed</tspan><tspan x="20.55" y="16">local p</tspan><tspan class="cls-62" x="61.95" y="16">r</tspan><tspan x="67.02" y="16">o</tspan><tspan class="cls-9" x="74.86" y="16">c</tspan><tspan class="cls-51" x="81.81" y="16">e</tspan><tspan class="cls-53" x="89.5" y="16">s</tspan><tspan x="96.23" y="16">ses</tspan></text><text class="cls-2" transform="translate(201.53 190.54)">X</text><line class="cls-63" x1="458.66" y1="360.94" x2="480.25" y2="208.73"/><line class="cls-15" x1="726.72" y1="244.01" x2="797.58" y2="271.47"/><polygon class="cls-14" points="726.32 248.67 720.69 241.68 729.56 240.3 726.32 248.67"/><polygon class="cls-14" points="794.74 275.18 803.61 273.8 797.98 266.81 794.74 275.18"/></svg>
