<svg xmlns="http://www.w3.org/2000/svg" xmlns:xlink="http://www.w3.org/1999/xlink" style="enable-background:new 0 0 903 817" id="Layer_1" x="0" y="0" version="1.1" viewBox="0 0 903 817" xml:space="preserve"><style type="text/css">.st0{fill:none;stroke:#00bab6;stroke-width:2;stroke-dasharray:7}.st1{fill:#e3f6ff}.st1,.st2,.st3{fill-rule:evenodd;clip-rule:evenodd}.st2{fill:#0f62fe}.st3{fill:#009c98}.st4{fill:#dcdcdc}.st5{fill:#408bfc}.st5,.st6,.st7,.st8{fill-rule:evenodd;clip-rule:evenodd}.st6{fill:#fff}.st7{fill:#051b75}.st8{fill:#8a3ffc}.st9{fill:#ee538b}.st10{fill-rule:evenodd;clip-rule:evenodd;fill:none}.st11{fill:#161616}.st12{font-family:&apos;IBMPlexSans&apos;}.st13{font-size:14px}.st14{fill:#f4f4f4}.st15{font-family:&apos;IBMPlexSans-Medium&apos;}.st16{font-size:16px}.st17{fill:none}</style><path id="Rectangle-Copy-19" d="M505,32h357c22.1,0,40,17.9,40,40v222c0,22.1-17.9,40-40,40H505c-22.1,0-40-17.9-40-40	V72C465,49.9,482.9,32,505,32z" class="st0"/><path id="Rectangle-Copy-23" d="M41,120h237c22.1,0,40,17.9,40,40v94c0,22.1-17.9,40-40,40H41c-22.1,0-40-17.9-40-40	v-94C1,137.9,18.9,120,41,120z" class="st0"/><circle id="Oval-Copy-3" cx="58" cy="180" r="24" class="st1"/><path id="Shape" d="M53,183c2.8,0,5,2.2,5,5v6h-2v-6c0-1.7-1.3-3-3-3h-4c-1.7,0-3,1.3-3,3v6h-2v-6c0-2.8,2.2-5,5-5H53z M51,171c2.8,0,5,2.2,5,5s-2.2,5-5,5s-5-2.2-5-5S48.2,171,51,171z M72,172v8h-2v-8H72z M67,169v11h-2v-11H67z M62,174v6h-2v-6H62z M51,173c-1.7,0-3,1.3-3,3c0,1.7,1.3,3,3,3s3-1.3,3-3S52.7,173,51,173z" class="st2"/><circle id="Oval-Copy-3_1_" cx="529" cy="88" r="24" class="st1"/><path id="Shape_1_" d="M524,91c2.8,0,5,2.2,5,5v6h-2v-6c0-1.7-1.3-3-3-3h-4c-1.7,0-3,1.3-3,3v6h-2v-6c0-2.8,2.2-5,5-5	H524z M522,79c2.8,0,5,2.2,5,5s-2.2,5-5,5s-5-2.2-5-5S519.2,79,522,79z M537.1,77.9l1.8,0.4l-2.4,10.4l-1.8-0.4L537.1,77.9z M531.9,79.6l1.4,1.2l-2.1,2.6l2.1,2.6l-1.4,1.2l-3.1-3.7L531.9,79.6z M541.7,79.6l3.1,3.7l-3.1,3.7l-1.4-1.2l2.1-2.6l-2.1-2.6	L541.7,79.6z M522,81c-1.7,0-3,1.3-3,3c0,1.7,1.3,3,3,3s3-1.3,3-3S523.7,81,522,81z" class="st2"/><rect id="Rectangle-Copy-14" width="260" height="155" x="540" y="422" class="st3"/><path id="Line-5-Copy-5" d="M828.3,498.5l0,1L827.8,623l6,0l-7.1,14l-6.9-14l6,0l0.4-122.5H800v-2H828.3z" class="st4"/><rect id="Rectangle-Copy-14_1_" width="370" height="180" x="480" y="637" class="st5"/><rect id="Rectangle-Copy-9" width="80" height="81" x="496" y="720" class="st6"/><rect id="Rectangle-Copy-24" width="400" height="155" x="1" y="422" class="st7"/><rect id="Rectangle-Copy-16" width="80" height="81" x="305" y="479" class="st6"/><rect id="Rectangle-Copy-18" width="104" height="81" x="673" y="64" class="st8"/><rect id="Rectangle-Copy-18_1_" width="85" height="106" x="785" y="196" class="st8"/><rect id="Rectangle-Copy-18_2_" width="85" height="106" x="749" y="695" class="st8"/><rect id="Rectangle-Copy-18_4_" width="85" height="106" x="497" y="196" class="st8"/><path id="Line-2-Copy-21" d="M659,97.1l14,6.9l-14,7.1l0-6l-92,0.4l-1,0l0-2l1,0l92-0.4L659,97.1z" class="st4"/><path id="Line-2-Copy-30" d="M735,754l14,7l-14,7v-6H576v-2h159V754z" class="st9"/><path id="Line-2-Copy-31" d="M187.5,177l14,7l-14,7v-6H94v-2h93.5V177z" class="st4"/><path id="Line-2-Copy-32" d="M187.5,236l14,7l-14,7v-6H94v-2h93.5V236z" class="st9"/><path id="Line-2-Copy-33" d="M483,201l14,7l-14,7v-6H286v-2h197V201z" class="st4"/><path id="Line-2-Copy-34" d="M828.5,302v77.3l-357,0V455l-56.5,0v6l-14-7l14-7v6h54.5v-75.6l357,0V302H828.5z" class="st4"/><path id="Line-2-Copy-35" d="M771,242l14,7l-14,7v-6H582v-2h189V242z" class="st4"/><path id="Line-4-Copy-3" d="M346,242v223h6l-7,14l-7-14h6V244h-58v-2H346z" class="st9"/><path id="Path-3-Copy" d="M346,560v200h135v-6l14,7l-14,7v-6H344V560H346z" class="st9"/><path id="Line-5" d="M526,447l14,7l-14,7v-6h-55.5v-2H526V447z" class="st4"/><rect width="64.9" height="34.7" x="25" y="214.8" class="st10"/><text transform="matrix(1 0 0 1 42.5615 225.1207)"><tspan x="0" y="0" class="st11 st12 st13">Data </tspan><tspan x="-12.3" y="20" class="st11 st12 st13">scientist</tspan></text><rect width="64.9" height="34.7" x="108" y="196.7" class="st10"/><text transform="matrix(1 0 0 1 111.7521 207.0324)"><tspan x="0" y="0" class="st11 st12 st13">6. Makes </tspan><tspan x="2.7" y="20" class="st11 st12 st13">updates</tspan></text><rect width="104.5" height="58.3" x="357" y="311.6" class="st10"/><text transform="matrix(1 0 0 1 357 321.9854)"><tspan x="0" y="0" class="st11 st12 st13">7. Pushes </tspan><tspan x="0" y="20" class="st11 st12 st13">model updates </tspan><tspan x="0" y="40" class="st11 st12 st13">using MMS</tspan></text><rect width="104.5" height="39.6" x="357" y="658.7" class="st10"/><text transform="matrix(1 0 0 1 357 669.0122)"><tspan x="0" y="0" class="st11 st12 st13">8. Pulls model </tspan><tspan x="0" y="20" class="st11 st12 st13">updates</tspan></text><rect width="114.1" height="39.6" x="597.3" y="716.6" class="st10"/><text transform="matrix(1 0 0 1 608.6749 726.983)"><tspan x="0" y="0" class="st14 st12 st13">9. Pulls model </tspan><tspan x=".9" y="20" class="st14 st12 st13">using ESS API</tspan></text><rect width="74.1" height="34.8" x="491.3" y="122.8" class="st10"/><text transform="matrix(1 0 0 1 499.6205 133.1156)"><tspan x="0" y="0" class="st11 st12 st13">Software </tspan><tspan x="-3.3" y="20" class="st11 st12 st13">developer</tspan></text><rect width="80" height="14.9" x="305" y="512.8" class="st10"/><text class="st11 st12 st13" transform="matrix(1 0 0 1 329.4114 523.149)">MMS</text><rect width="65.8" height="37.9" x="502" y="744.7" class="st10"/><text transform="matrix(1 0 0 1 518.9951 755.1068)"><tspan x="0" y="0" class="st11 st12 st13">Edge </tspan><tspan x="-2.1" y="20" class="st11 st12 st13">agent</tspan></text><rect width="84.8" height="16.4" x="749" y="736.7" class="st10"/><text class="st14 st12 st13" transform="matrix(1 0 0 1 759.3896 747.0668)">AI service</text><rect width="104" height="14.9" x="673" y="96.8" class="st10"/><text class="st14 st12 st13" transform="matrix(1 0 0 1 702.3762 107.1315)">Docker</text><rect width="85" height="14.9" x="784.9" y="237.7" class="st10"/><text class="st14 st12 st13" transform="matrix(1 0 0 1 795.3751 248.0777)">AI service</text><rect width="85.2" height="34.7" x="496.8" y="230.2" class="st10"/><text transform="matrix(1 0 0 1 519.9266 240.5443)"><tspan x="0" y="0" class="st14 st12 st13">AI/ML </tspan><tspan x="-16.2" y="20" class="st14 st12 st13">application</tspan></text><rect width="236.1" height="15.6" x="17" y="442.3" class="st10"/><text class="st14 st15 st16" transform="matrix(1 0 0 1 17.0002 454.0923)">Management hub</text><rect width="236.1" height="15.6" x="496" y="657.3" class="st10"/><text class="st14 st15 st16" transform="matrix(1 0 0 1 496.0002 669.1191)">Edge node</text><rect width="236.1" height="15.6" x="34" y="92.3" class="st10"/><text class="st11 st15 st16" transform="matrix(1 0 0 1 33.9919 104.1321)">Data scientist environment</text><rect width="236.1" height="15.6" x="497" y="4.3" class="st10"/><text class="st11 st15 st16" transform="matrix(1 0 0 1 497.0002 16.1162)">Developer environment</text><rect id="Rectangle-Copy-18_6_" width="85" height="120" x="201" y="154" class="st8"/><rect width="80.6" height="74.6" x="203.1" y="176.7" class="st10"/><text transform="matrix(1 0 0 1 223.9288 187.0765)"><tspan x="0" y="0" class="st14 st12 st13">AI/ML </tspan><tspan x="-16.2" y="20" class="st14 st12 st13">application </tspan><tspan x="-3.9" y="40" class="st14 st12 st13">with its </tspan><tspan x="-.7" y="60" class="st14 st12 st13">model</tspan></text><rect width="162.3" height="15.6" x="575.7" y="440.2" class="st10"/><text class="st14 st15 st16" transform="matrix(1 0 0 1 575.7068 452.0177)">Container registry</text><g><path d="M567.7,439.8h-8c-0.6,0-1,0.4-1,1v11c0,0.6,0.4,1,1,1h8c0.6,0,1-0.4,1-1v-11 C568.7,440.2,568.3,439.8,567.7,439.8z M567.7,440.8v3h-8v-3H567.7z M559.7,447.8v-3h8v3H559.7z M559.7,451.8v-3h8v3H559.7z" class="st14"/><circle cx="561.2" cy="442.2" r=".5" class="st14"/><circle cx="561.2" cy="446.2" r=".5" class="st14"/><circle cx="561.2" cy="450.2" r=".5" class="st14"/><rect id="_x3C_Transparent_Rectangle_x3E__616_" width="16" height="16" x="555.7" y="438.2" class="st17"/></g></svg>