<svg xmlns="http://www.w3.org/2000/svg" xmlns:xlink="http://www.w3.org/1999/xlink" style="enable-background:new 0 0 902 611" id="Layer_1" x="0" y="0" version="1.1" viewBox="0 0 902 611" xml:space="preserve"><style type="text/css">.st0,.st1{fill-rule:evenodd;clip-rule:evenodd;fill:#4589ff}.st1{fill:#f4f4f4}.st2{fill:#bebebe}.st3{fill:#e3f6ff}.st3,.st4,.st5,.st6,.st7{fill-rule:evenodd;clip-rule:evenodd}.st4{fill:#0f62fe}.st5{fill:#009d9a}.st6{fill:#fff}.st7{fill:#dcdcdc}.st8{fill:none;stroke:#bebebe;stroke-width:2}.st10,.st9{fill-rule:evenodd;clip-rule:evenodd}.st9{fill:#001d6c}.st10{fill:none}.st11{fill:#161616}.st12{font-family:&apos;IBMPlexSans&apos;}.st13{font-size:14px}.st14{fill:#f4f4f4}.st15{font-family:&apos;IBMPlexSans-Medium&apos;}.st16{font-size:16px}.st17{font-size:12px}.st18,.st19{fill:none}.st19{stroke:#bebebe;stroke-width:2;stroke-miterlimit:10}</style><rect id="Rectangle-Copy-52" width="318" height="269" x="584" y="342" class="st0"/><path id="Shape" d="M608,365.5c0.8,0,1.5-0.7,1.5-1.5s-0.7-1.5-1.5-1.5c-0.8,0-1.5,0.7-1.5,1.5S607.2,365.5,608,365.5z M608,363.5c0.3,0,0.5,0.2,0.5,0.5s-0.2,0.5-0.5,0.5c-0.3,0-0.5-0.2-0.5-0.5S607.7,363.5,608,363.5z M612.8,367.9	c0.8,0,1.5-0.7,1.5-1.5s-0.7-1.5-1.5-1.5c-0.8,0-1.5,0.7-1.5,1.5S612,367.9,612.8,367.9z M612.8,365.9c0.3,0,0.5,0.2,0.5,0.5	c0,0.3-0.2,0.5-0.5,0.5s-0.5-0.2-0.5-0.5C612.3,366.1,612.5,365.9,612.8,365.9L612.8,365.9z M602.2,370.1c-0.8,0-1.5,0.7-1.5,1.5	s0.7,1.5,1.5,1.5c0.8,0,1.5-0.7,1.5-1.5S603.1,370.1,602.2,370.1z M602.2,372.1c-0.3,0-0.5-0.2-0.5-0.5c0-0.3,0.2-0.5,0.5-0.5	s0.5,0.2,0.5,0.5C602.7,371.9,602.5,372.1,602.2,372.1z M603.2,367.9c0.8,0,1.5-0.7,1.5-1.5s-0.7-1.5-1.5-1.5	c-0.8,0-1.5,0.7-1.5,1.5C601.7,367.2,602.4,367.9,603.2,367.9L603.2,367.9z M603.2,365.9c0.3,0,0.5,0.2,0.5,0.5	c0,0.3-0.2,0.5-0.5,0.5s-0.5-0.2-0.5-0.5C602.7,366.1,602.9,365.9,603.2,365.9L603.2,365.9z M613.8,370.1c-0.8,0-1.5,0.7-1.5,1.5	s0.7,1.5,1.5,1.5c0.8,0,1.5-0.7,1.5-1.5S614.6,370.1,613.8,370.1z M613.8,372.1c-0.3,0-0.5-0.2-0.5-0.5c0-0.3,0.2-0.5,0.5-0.5	c0.3,0,0.5,0.2,0.5,0.5C614.3,371.9,614,372.1,613.8,372.1z M610.4,374c-0.8,0-1.5,0.7-1.5,1.5s0.7,1.5,1.5,1.5	c0.8,0,1.5-0.7,1.5-1.5S611.3,374,610.4,374L610.4,374z M610.4,376c-0.3,0-0.5-0.2-0.5-0.5s0.2-0.5,0.5-0.5c0.3,0,0.5,0.2,0.5,0.5	c0,0.1-0.1,0.3-0.1,0.4C610.7,375.9,610.6,376,610.4,376z M605.6,374c-0.8,0-1.5,0.7-1.5,1.5s0.7,1.5,1.5,1.5c0.8,0,1.5-0.7,1.5-1.5	S606.4,374,605.6,374L605.6,374z M605.6,376c-0.3,0-0.5-0.2-0.5-0.5s0.2-0.5,0.5-0.5c0.3,0,0.5,0.2,0.5,0.5	C606.1,375.8,605.8,376,605.6,376z M611,370c0-1.7-1.3-3-3-3c-1.7,0-3,1.3-3,3s1.3,3,3,3C609.7,373,611,371.7,611,370z M608,372	c-1.1,0-2-0.9-2-2c0-1.1,0.9-2,2-2s2,0.9,2,2c0,0.5-0.2,1-0.6,1.4C609,371.8,608.5,372,608,372z" class="st1"/><path id="Line-4" d="M25.5,59.8V316H388V169h-6l7-14l7,14h-6v149H23.5V59.8H25.5z" class="st2"/><circle id="Oval-Copy-3" cx="660" cy="25" r="24" class="st3"/><path id="Shape_1_" d="M655,28c2.8,0,5,2.2,5,5v6h-2v-6c0-1.7-1.3-3-3-3h-4c-1.7,0-3,1.3-3,3v6h-2v-6c0-2.8,2.2-5,5-5	H655z M653,16c2.8,0,5,2.2,5,5s-2.2,5-5,5s-5-2.2-5-5S650.2,16,653,16z M671.6,16l1.4,1.4l-7.1,7.1l-3.9-3.9l1.4-1.4l2.5,2.5	L671.6,16z M653,18c-1.7,0-3,1.3-3,3c0,1.7,1.3,3,3,3s3-1.3,3-3S654.7,18,653,18z" class="st4"/><circle id="Oval-Copy-3_1_" cx="24" cy="25" r="24" class="st3"/><path id="Shape_2_" d="M19,28c2.8,0,5,2.2,5,5v6h-2v-6c0-1.7-1.3-3-3-3h-4c-1.7,0-3,1.3-3,3v6h-2v-6c0-2.8,2.2-5,5-5H19	z M17,16c2.8,0,5,2.2,5,5s-2.2,5-5,5s-5-2.2-5-5S14.2,16,17,16z M32.1,14.9l1.8,0.4l-2.4,10.4l-1.8-0.4L32.1,14.9z M26.9,16.6	l1.4,1.2l-2.1,2.6l2.1,2.6L26.9,24l-3.1-3.7L26.9,16.6z M36.7,16.6l3.1,3.7L36.7,24l-1.4-1.2l2.1-2.6l-2.1-2.6L36.7,16.6z M17,18	c-1.7,0-3,1.3-3,3c0,1.7,1.3,3,3,3s3-1.3,3-3S18.7,18,17,18z" class="st4"/><rect id="Rectangle-Copy-14" width="250" height="172" x="151" y="342" class="st5"/><rect id="Rectangle-Copy-16" width="80" height="81" x="600" y="401" class="st6"/><rect id="Rectangle-Copy-16_1_" width="80" height="121" x="806" y="401" class="st6"/><rect id="Rectangle-Copy-16_2_" width="80" height="81" x="600" y="514" class="st6"/><path id="Line-2-Copy-24" d="M792,434l14,7l-14,7v-6H680v-2h112V434z" class="st2"/><path id="Line-2-Copy-26" d="M847,522v35.6l-153,0v6l-14-7l14-7v6h151V522H847z" class="st2"/><circle id="Oval-Copy-3_2_" cx="24" cy="82" r="13" class="st7"/><circle id="Oval-Copy-3_3_" cx="24" cy="155" r="13" class="st7"/><circle id="Oval-Copy-3_4_" cx="24" cy="246" r="13" class="st7"/><circle id="Oval-Copy-3_5_" cx="737" cy="232" r="24" class="st3"/><path id="Shape_3_" d="M732,235c2.8,0,5,2.2,5,5v6h-2v-6c0-1.7-1.3-3-3-3h-4c-1.7,0-3,1.3-3,3v6h-2v-6c0-2.8,2.2-5,5-5	H732z M730,223c2.8,0,5,2.2,5,5s-2.2,5-5,5s-5-2.2-5-5S727.2,223,730,223z M743,231v2h-2v-2H743z M748,231v2h-2v-2H748z M730,225	c-1.7,0-3,1.3-3,3c0,1.7,1.3,3,3,3s3-1.3,3-3S731.7,225,730,225z M751,228v2h-2v-2H751z M740,228v2h-2v-2H740z M748,223v7h-7v-7H748	z M746,225h-3v3h3V225z M751,223v2h-2v-2H751z M740,223v2h-2v-2H740z M743,220v2h-2v-2H743z M748,220v2h-2v-2H748z" class="st4"/><path id="Line-8" d="M25.5,315.5v104H137v-6l14,7l-14,7v-6H23.5v-106H25.5z" class="st2"/><path id="Path-8" d="M566,471.8V497h226v-6l14,7l-14,7v-6H564v-25.2l-163,0v-2H566z" class="st2"/><path id="Path-7" d="M566,155v270.5h20v-6l14,7l-14,7v-6h-22V155H566z" class="st2"/><line id="Path-9-Copy" x1="736.3" x2="736.3" y1="342" y2="266" class="st8"/><rect id="Rectangle-Copy-50" width="210" height="155" x="374" class="st9"/><rect id="Rectangle-Copy-16_4_" width="80" height="81" x="486" y="57" class="st6"/><rect id="Rectangle-Copy-16_5_" width="80" height="81" x="390" y="57" class="st6"/><rect width="131.8" height="59.5" x="401" y="227.7" class="st10"/><text transform="matrix(1 0 0 1 400.994 238.0347)"><tspan x="0" y="0" class="st11 st12 st13">2. Publishes service </tspan><tspan x="0" y="20" class="st11 st12 st13">metadata to the </tspan><tspan x="0" y="40" class="st11 st12 st13">management hub</tspan></text><rect width="95.9" height="42.2" x="37" y="351.7" class="st10"/><text transform="matrix(1 0 0 1 36.994 362.0721)"><tspan x="0" y="0" class="st11 st12 st13">1. Pushes </tspan><tspan x="0" y="20" class="st11 st12 st13">containers</tspan></text><rect width="20" height="12.2" x="13.9" y="75.7" class="st10"/><text class="st11 st12 st13" transform="matrix(1 0 0 1 19.4294 86.0119)">A</text><rect width="20" height="13.4" x="13.9" y="148.7" class="st10"/><text class="st11 st12 st13" transform="matrix(1 0 0 1 19.3455 159.0499)">B</text><rect width="17.5" height="13.4" x="15.2" y="239.7" class="st10"/><text class="st11 st12 st13" transform="matrix(1 0 0 1 19.5696 250.0679)">C</text><rect width="88.8" height="59.5" x="577" y="227.7" class="st10"/><text transform="matrix(1 0 0 1 576.994 238.0347)"><tspan x="0" y="0" class="st11 st12 st13">5. Deploys </tspan><tspan x="0" y="20" class="st11 st12 st13">service</tspan></text><rect width="130.8" height="43.3" x="748" y="285.7" class="st10"/><text transform="matrix(1 0 0 1 747.994 296.0494)"><tspan x="0" y="0" class="st11 st12 st13">4. Registers with a </tspan><tspan x="0" y="20" class="st11 st12 st13">pattern node policy</tspan></text><rect width="163" height="14.6" x="401.4" y="448.6" class="st10"/><text class="st11 st12 st13" transform="matrix(1 0 0 1 423.4718 458.9956)">6. Pulls containers</text><rect width="175.7" height="57.4" x="672" y="66.7" class="st10"/><text transform="matrix(1 0 0 1 671.994 77.0378)"><tspan x="0" y="0" class="st11 st12 st13">3. Creates pattern or policy </tspan><tspan x="0" y="20" class="st11 st12 st13">to deploy the service to </tspan><tspan x="0" y="40" class="st11 st12 st13">correct edge nodes</tspan></text><rect width="100" height="15.4" x="773" y="225.7" class="st10"/><text class="st11 st12 st13" transform="matrix(1 0 0 1 773.0168 236.0392)">Node owner</text><rect width="100" height="15.4" x="692" y="18.7" class="st10"/><text class="st11 st12 st13" transform="matrix(1 0 0 1 692.0239 29.0511)">Administrator</text><rect width="187" height="15.6" x="390" y="20.2" class="st10"/><text class="st14 st15 st16" transform="matrix(1 0 0 1 389.9941 32.0859)">Management hub</text><rect width="236.1" height="15.6" x="622" y="362.2" class="st10"/><text class="st14 st15 st16" transform="matrix(1 0 0 1 621.9941 374.0154)">Edge node</text><rect width="80" height="56.3" x="805.9" y="434.6" class="st10"/><text transform="matrix(1 0 0 1 829.9978 445.0018)"><tspan x="0" y="0" class="st11 st12 st13">Edge </tspan><tspan x="-6.9" y="20" class="st11 st12 st13">service</tspan><tspan x="-11.7" y="40" class="st11 st12 st13">operator</tspan></text><rect width="61.1" height="35.7" x="609.4" y="428.7" class="st10"/><text transform="matrix(1 0 0 1 624.0093 439.0639)"><tspan x="0" y="0" class="st11 st12 st13">Edge </tspan><tspan x="-2.1" y="20" class="st11 st12 st13">agent</tspan></text><rect width="61.1" height="35.7" x="609.4" y="541.8" class="st10"/><text transform="matrix(1 0 0 1 624.0093 552.1152)"><tspan x="0" y="0" class="st11 st12 st13">Edge </tspan><tspan x="-6.9" y="20" class="st11 st12 st13">service</tspan></text><rect width="111.2" height="13.7" x="679.3" y="416.6" class="st10"/><text class="st14 st12 st13" transform="matrix(1 0 0 1 710.834 427.0049)">7. Runs</text><rect width="150.7" height="13.7" x="694.5" y="532.6" class="st10"/><text class="st14 st12 st13" transform="matrix(1 0 0 1 742.8313 543.0037)">8. Starts</text><rect width="80" height="14.9" x="485.9" y="90.7" class="st10"/><text class="st11 st12 st13" transform="matrix(1 0 0 1 494.9846 101.0283)">Exchange</text><rect width="80" height="14.9" x="389.9" y="90.7" class="st10"/><text class="st11 st12 st13" transform="matrix(1 0 0 1 410.9753 101.0283)">Agbot</text><rect width="280.6" height="15.7" x="45" y="76.6" class="st10"/><text class="st11 st12 st13" transform="matrix(1 0 0 1 44.994 87.0001)">Creates developer credentials</text><rect width="172.6" height="15.7" x="63" y="18.7" class="st10"/><text class="st11 st12 st13" transform="matrix(1 0 0 1 63.0028 29.0389)">Software developer</text><rect width="283.4" height="15.7" x="45" y="148.5" class="st10"/><text class="st11 st12 st13" transform="matrix(1 0 0 1 44.994 158.9073)">Develops edge service operator</text><rect width="293.1" height="15.7" x="45" y="239.7" class="st10"/><text class="st11 st12 st13" transform="matrix(1 0 0 1 44.994 250.0562)">Signs and publishes to management hub</text><rect width="271.6" height="41.3" x="54" y="100.1" class="st10"/><text transform="matrix(1 0 0 1 53.994 108.9678)"><tspan x="0" y="0" class="st11 st12 st17">• Creates user account</tspan><tspan x="0" y="16" class="st11 st12 st17">• Creates signing key pair (used in step C)</tspan></text><rect width="271.6" height="48.5" x="54" y="172.1" class="st10"/><text transform="matrix(1 0 0 1 53.994 181.0086)"><tspan x="0" y="0" class="st11 st12 st17">• Creates an archive containing the service’s </tspan><tspan x="0" y="16" class="st11 st12 st17">yaml definition files</tspan><tspan x="0" y="32" class="st11 st12 st17">• Creates Open Horizon metadata files</tspan></text><rect width="271.6" height="31.3" x="54" y="263.2" class="st10"/><text transform="matrix(1 0 0 1 53.994 272.0575)"><tspan x="0" y="0" class="st11 st12 st17">• Pushes, signs and publishes containers</tspan><tspan x="0" y="16" class="st11 st12 st17">• Adds service policy constraints</tspan></text><g><rect width="162.3" height="15.6" x="187" y="359.9" class="st10"/><text class="st14 st15 st16" transform="matrix(1 0 0 1 186.9997 371.7318)">Container registry</text><g><path d="M179,359.5h-8c-0.6,0-1,0.4-1,1v11c0,0.6,0.4,1,1,1h8c0.6,0,1-0.4,1-1v-11C180,359.9,179.6,359.5,179,359.5z M179,360.5v3h-8v-3H179z M171,367.5v-3h8v3H171z M171,371.5v-3h8v3H171z" class="st14"/><circle cx="172.5" cy="362" r=".5" class="st14"/><circle cx="172.5" cy="366" r=".5" class="st14"/><circle cx="172.5" cy="370" r=".5" class="st14"/><rect id="_x3C_Transparent_Rectangle_x3E__616_" width="16" height="16" x="167" y="358" class="st18"/></g></g><g><g><polyline points="736 197 736 141 594 141" class="st19"/><g><polygon points="596.1 134 584 141 596.1 148" class="st2"/></g></g></g><g><g><polyline points="660 60.1 660 117 594 117" class="st19"/><g><polygon points="596.1 110 584 117 596.1 124" class="st2"/></g></g></g></svg>