<svg xmlns="http://www.w3.org/2000/svg" xmlns:xlink="http://www.w3.org/1999/xlink" id="Layer_1" x="0" y="0" version="1.1" viewBox="0 0 614 469" xml:space="preserve" style="enable-background:new 0 0 614 469"><style type="text/css">.st0{fill-rule:evenodd;clip-rule:evenodd;fill:#408bfc}.st1{fill:none;stroke:#00bab6;stroke-width:2;stroke-dasharray:7}.st2,.st3{fill-rule:evenodd;clip-rule:evenodd;fill:#4f2196}.st3{fill:#fff}.st4{fill:#bebebe}.st5{fill:#e3f6ff}.st5,.st6,.st7{fill-rule:evenodd;clip-rule:evenodd}.st6{fill:#0062ff}.st7{fill:none}.st8{fill:#161616}.st9{font-family:&apos;IBMPlexSans&apos;}.st10{font-size:14px}.st11{fill:#f4f4f4}.st12{font-family:&apos;IBMPlexSans-Medium&apos;}.st13{font-size:16px}</style><g><rect id="Rectangle-Copy-14_1_" width="141.2" height="56" x="160" y="388" class="st0"/><rect id="Rectangle-Copy-54" width="120.4" height="56" x="25" y="388" class="st0"/><rect id="Rectangle-Copy-14_2_" width="141.2" height="56" x="315.8" y="388" class="st0"/></g><path id="Rectangle" d="M41,1h400c22.1,0,40,17.9,40,40v387c0,22.1-17.9,40-40,40H41c-22.1,0-40-17.9-40-40V41	C1,18.9,18.9,1,41,1z" class="st1"/><rect id="Rectangle-Copy-14" width="432" height="267" x="25" y="65" class="st2"/><rect id="Rectangle-Copy-16" width="192" height="56" x="249" y="131.5" class="st3"/><rect id="Rectangle-Copy-53" width="192" height="56" x="41" y="260" class="st3"/><rect id="Rectangle-Copy-44" width="192" height="56" x="249" y="259.5" class="st3"/><path id="Line-11-Copy-7" d="M238,332l6.9,14l-6,0l-0.3,28l6,0l-7.1,14l-6.9-14l6,0l0.3-28l-6,0L238,332z" class="st4"/><path id="Line-11-Copy-8" d="M83,332l6.9,14l-6,0l-0.3,28l6,0l-7.1,14l-6.9-14l6,0l0.3-28l-6,0L83,332z" class="st4"/><path id="Line-11-Copy-6" d="M235,153l14,7l-14,7v-6h-92.5l-0.4,85l6,0l-7.1,14l-6.9-14l6,0l0.4-86l0-1H235V153z" class="st4"/><path id="Line-11-Copy-9" d="M506,153l14,7l-14,7v-6h-51v6l-14-7l14-7v6h51V153z" class="st4"/><circle id="Oval" cx="560.5" cy="157.5" r="32.5" class="st5"/><path id="Shape" d="M569.5,167h-17c-4.1,0-7.5-3.4-7.5-7.5c0-3.6,2.6-6.7,6.1-7.4c0,0,0.1,0,0.1-0.1c1-4.7,5.1-8,9.8-8	c0.6,0,1.3,0.1,1.9,0.2c4,0.8,7.1,3.9,7.9,7.9c0,0,0,0.1,0.1,0.1c4,0.8,6.7,4.7,6,8.7C576.2,164.4,573.1,167,569.5,167z M552.5,165	h17c2.7,0,4.9-1.9,5.4-4.5c0.3-1.8-0.2-3.6-1.5-4.9c-0.8-0.8-1.8-1.3-2.8-1.5l-0.3-0.1l-1.1-0.2c0,0-0.1,0-0.1-0.1l0,0l-0.2-1	c-0.6-3.2-3-5.8-6.1-6.5c-0.9-0.2-1.9-0.3-2.8-0.1c-3.4,0.5-6,3.1-6.8,6.5l-0.1,0.3l-0.2,0.9c0,0,0,0.1-0.1,0.1l0,0l-1,0.2	c-2.4,0.4-4.4,2.3-4.7,4.7C546.6,162.1,549.2,165,552.5,165z" class="st6"/><rect width="104.5" height="39.6" x="508.6" y="197.6" class="st7"/><text transform="matrix(1 0 0 1 517.0179 207.9835)"><tspan x="0" y="0" class="st8 st9 st10">Cloud servers </tspan><tspan x="12.8" y="20" class="st8 st9 st10">(optional)</tspan></text><rect width="142.9" height="13.9" x="250.5" y="354.6" class="st7"/><text class="st8 st9 st10" transform="matrix(1 0 0 1 250.4992 364.9432)">Hardware access</text><rect width="114.3" height="40.8" x="322.2" y="207.7" class="st7"/><text transform="matrix(1 0 0 1 322.25 218.051)"><tspan x="0" y="0" class="st11 st9 st10">Docker virtual </tspan><tspan x="0" y="20" class="st11 st9 st10">private networks</tspan></text><rect width="77.2" height="13.9" x="95.3" y="354.6" class="st7"/><text class="st8 st9 st10" transform="matrix(1 0 0 1 95.3404 364.9427)">OS access</text><rect width="192" height="39.6" x="248.9" y="140.6" class="st7"/><text transform="matrix(1 0 0 1 303.1973 150.9972)"><tspan x="0" y="0" class="st8 st9 st10">cpu2msghub</tspan><tspan x="-3.5" y="20" class="st8 st9 st10">(edge service)</tspan></text><rect width="192" height="39.6" x="248.9" y="268.6" class="st7"/><text transform="matrix(1 0 0 1 333.5671 279.0005)"><tspan x="0" y="0" class="st8 st9 st10">gps</tspan><tspan x="-33.8" y="20" class="st8 st9 st10">(edge service)</tspan></text><rect width="192" height="39.6" x="40.9" y="268.6" class="st7"/><text transform="matrix(1 0 0 1 125.1779 279.0005)"><tspan x="0" y="0" class="st8 st9 st10">cpu</tspan><tspan x="-33.5" y="20" class="st8 st9 st10">(edge service)</tspan></text><rect width="128.7" height="15.6" x="172.5" y="409.2" class="st7"/><text class="st11 st12 st10" transform="matrix(1 0 0 1 172.5158 419.5187)">Hardware sensors</text><rect width="111" height="15.6" x="327.6" y="409.2" class="st7"/><text class="st11 st12 st10" transform="matrix(1 0 0 1 327.5885 419.5187)">Docker runtime</text><rect width="91.7" height="15.6" x="39" y="409.2" class="st7"/><text class="st11 st12 st10" transform="matrix(1 0 0 1 38.9894 419.5187)">OS services</text><rect width="236.1" height="15.6" x="41" y="85.3" class="st7"/><text class="st11 st12 st13" transform="matrix(1 0 0 1 41.0002 97.1207)">Deployment pattern</text><rect width="236.1" height="15.6" x="25" y="29.2" class="st7"/><text class="st8 st12 st13" transform="matrix(1 0 0 1 25.0038 40.9981)">Edge node</text></svg>