<?xml version="1.0" encoding="utf-8"?>
<!-- Generator: Adobe Illustrator 24.2.3, SVG Export Plug-In . SVG Version: 6.00 Build 0)  -->
<svg version="1.1" id="Layer_1" xmlns="http://www.w3.org/2000/svg" xmlns:xlink="http://www.w3.org/1999/xlink" x="0px" y="0px"
	 viewBox="0 0 1000 650.6" style="enable-background:new 0 0 1000 650.6;" xml:space="preserve">
<style type="text/css">
	.st0{fill-rule:evenodd;clip-rule:evenodd;fill:#051B75;}
	.st1{fill-rule:evenodd;clip-rule:evenodd;fill:#FFFFFF;}
	.st2{fill-rule:evenodd;clip-rule:evenodd;fill:none;}
	.st3{fill:#161616;}
	.st4{font-family:'IBMPlexSans';}
	.st5{font-size:14px;}
	.st6{fill:#F4F4F4;}
	.st7{font-family:'IBMPlexSans-Medium';}
	.st8{font-size:16px;}
	.st9{fill-rule:evenodd;clip-rule:evenodd;fill:#009C98;}
	.st10{fill-rule:evenodd;clip-rule:evenodd;fill:#BEBEBE;}
	.st11{fill:#FFFFFF;}
	.st12{fill-rule:evenodd;clip-rule:evenodd;fill:#E3F6FF;}
	.st13{fill-rule:evenodd;clip-rule:evenodd;fill:#0F62FE;}
	.st14{display:none;}
	.st15{display:inline;fill-rule:evenodd;clip-rule:evenodd;fill:#0F62FE;}
	.st16{display:inline;fill:#0F62FE;}
	.st17{fill:none;stroke:#0F62FE;stroke-width:2;stroke-miterlimit:10;}
	.st18{display:none;fill:none;stroke:#0F62FE;stroke-width:2;stroke-miterlimit:10;}
	.st19{fill-rule:evenodd;clip-rule:evenodd;fill:none;stroke:#0F62FE;stroke-width:2;stroke-miterlimit:10;}
	.st20{fill:none;stroke:#BEBEBE;stroke-width:2;}
	.st21{fill:#BEBEBE;}
	.st22{fill:none;stroke:#BEBEBE;stroke-width:2;stroke-dasharray:7,7;}
	.st23{fill:#E3F6FF;}
	.st24{fill:#0F62FE;}
	.st25{fill-rule:evenodd;clip-rule:evenodd;fill:#408BFC;}
	.st26{fill-rule:evenodd;clip-rule:evenodd;fill:#F4F4F4;}
	.st27{fill:none;stroke:#00BAB6;stroke-width:2;stroke-dasharray:7;}
	.st28{fill-rule:evenodd;clip-rule:evenodd;fill:#161616;}
	.st29{font-size:12px;}
	.st30{fill:none;stroke:#BEBEBE;stroke-width:2;stroke-dasharray:7;}
</style>
<rect id="Rectangle-Copy-12" x="282" y="15.7" class="st0" width="363.3" height="231.6"/>
<g>
	<rect id="Rectangle-Copy-16_2_" x="470.8" y="69.4" class="st1" width="70.5" height="81"/>
	<rect x="470.9" y="102.8" class="st2" width="70.4" height="15.6"/>
	<text transform="matrix(1 0 0 1 475.1807 113.1318)" class="st3 st4 st5">Exchange</text>
</g>
<g>
	<rect id="Rectangle-Copy-16_4_" x="559.5" y="149.4" class="st1" width="70.5" height="81"/>
	<rect x="559.4" y="173.8" class="st2" width="70.6" height="33.5"/>
	<text transform="matrix(1 0 0 1 580.8308 184.1176)"><tspan x="0" y="0" class="st3 st4 st5">SDO</tspan><tspan x="-9.6" y="20" class="st3 st4 st5">Service</tspan></text>
</g>
<rect x="299.1" y="35.8" class="st2" width="236.1" height="15.6"/>
<text transform="matrix(1 0 0 1 299.1044 47.6527)" class="st6 st7 st8">Management hub</text>
<g>
	<rect id="Rectangle-Copy-14_1_" x="825.7" y="15.7" class="st9" width="174" height="99.3"/>
	<rect x="841.7" y="35.8" class="st2" width="150.2" height="59.4"/>
	<text transform="matrix(1 0 0 1 841.6833 47.6526)"><tspan x="0" y="0" class="st6 st7 st8">Intel Corp.</tspan><tspan x="0" y="20" class="st6 st7 st8">Rendezvous Server</tspan></text>
</g>
<g>
	<rect id="Rectangle-Copy-16_3_" x="231.7" y="317.5" class="st10" width="146.7" height="81"/>
	<rect x="247.7" y="336.1" class="st2" width="112.9" height="29.7"/>
	<text transform="matrix(1 0 0 1 247.7004 347.8973)" class="st11 st7 st8">Loading dock</text>
</g>
<g>
	<rect x="325.2" y="476.1" class="st2" width="118.7" height="15.5"/>
	<text transform="matrix(1 0 0 1 332.5803 486.4372)" class="st3 st4 st5">Node technician</text>
	<g id="Group-2_3_" transform="translate(21.000000, 0.000000)">
		<circle id="Oval-Copy-3_3_" class="st12" cx="363.6" cy="441.4" r="24"/>
		<path class="st13" d="M358.6,444.4c2.8,0,5,2.2,5,5v6h-2v-6c0-1.7-1.3-3-3-3h-4c-1.7,0-3,1.3-3,3v6h-2v-6c0-2.8,2.2-5,5-5H358.6z"
			/>
		<g>
			<g>
				<path class="st13" d="M356.6,432.4c-2.8,0-5,2.2-5,5s2.2,5,5,5c2.8,0,5-2.2,5-5S359.4,432.4,356.6,432.4z M356.6,440.4
					c-1.7,0-3-1.3-3-3c0-1.7,1.3-3,3-3c1.7,0,3,1.3,3,3C359.6,439.1,358.2,440.4,356.6,440.4z"/>
			</g>
		</g>
		<g class="st14">
			<rect x="385.6" y="440.4" class="st15" width="2" height="2"/>
			<rect x="390.6" y="440.4" class="st15" width="2" height="2"/>
			<rect x="393.6" y="437.4" class="st15" width="2" height="2"/>
			<rect x="382.6" y="437.4" class="st15" width="2" height="2"/>
			<rect x="385.6" y="432.4" class="st15" width="7" height="7"/>
			<rect x="387.6" y="434.4" class="st15" width="3" height="3"/>
			<rect x="393.6" y="432.4" class="st15" width="2" height="2"/>
			<rect x="382.6" y="432.4" class="st15" width="2" height="2"/>
			<rect x="385.6" y="429.4" class="st15" width="2" height="2"/>
			<rect x="390.6" y="429.4" class="st15" width="2" height="2"/>
		</g>
		<g class="st14">
			<path class="st16" d="M384.6,438.4c-1.1,0-2,0.9-2,2c0,1.1,0.9,2,2,2c1.1,0,2-0.9,2-2C386.6,439.3,385.7,438.4,384.6,438.4
				L384.6,438.4z"/>
		</g>
		<g>
			<line class="st17" x1="376" y1="445.7" x2="376" y2="431.1"/>
			<line class="st18" x1="390.1" y1="435.1" x2="390.1" y2="431.1"/>
			<line class="st17" x1="380" y1="433.1" x2="372" y2="433.1"/>
		</g>
		<g>
			<path class="st19" d="M368.9,431.4c0.8,0.8,0.8,2,0,2.8c-0.8,0.8-2,0.8-2.8,0c-0.8-0.8-0.8-2,0-2.8"/>
			<line class="st17" x1="367.4" y1="445.7" x2="367.4" y2="435"/>
		</g>
	</g>
</g>
<g class="st14">
	<rect x="117.2" y="425.7" class="st15" width="2" height="2"/>
	<rect x="122.2" y="425.7" class="st15" width="2" height="2"/>
	<rect x="125.2" y="422.7" class="st15" width="2" height="2"/>
	<rect x="114.2" y="422.7" class="st15" width="2" height="2"/>
	<rect x="117.2" y="417.7" class="st15" width="7" height="7"/>
	<rect x="119.2" y="419.7" class="st15" width="3" height="3"/>
	<rect x="125.2" y="417.7" class="st15" width="2" height="2"/>
	<rect x="114.2" y="417.7" class="st15" width="2" height="2"/>
	<rect x="117.2" y="414.7" class="st15" width="2" height="2"/>
	<rect x="122.2" y="414.7" class="st15" width="2" height="2"/>
</g>
<g class="st14">
	<path class="st16" d="M116.2,423.7c-1.1,0-2,0.9-2,2c0,1.1,0.9,2,2,2s2-0.9,2-2C118.2,424.6,117.3,423.7,116.2,423.7L116.2,423.7z"
		/>
</g>
<g>
	<g>
		<polyline class="st20" points="593.5,240.5 593.5,284.4 60.9,284.4 60.9,267.2 		"/>
		<g>
			<polygon class="st21" points="586.5,242.5 593.5,230.4 600.4,242.5 			"/>
		</g>
	</g>
</g>
<g>
	<g>
		<polyline class="st20" points="48.9,487.9 48.9,328.7 32.5,328.7 32.5,277.3 		"/>
		<g>
			<polygon class="st21" points="55.9,485.9 48.9,498 41.9,485.9 			"/>
		</g>
		<g>
			<polygon class="st21" points="39.4,279.3 32.5,267.2 25.5,279.3 			"/>
		</g>
	</g>
</g>
<g>
	<g>
		<polyline class="st20" points="72.7,521.9 288.9,521.9 288.9,408.6 		"/>
		<g>
			<polygon class="st21" points="295.9,410.6 288.9,398.5 281.9,410.6 			"/>
		</g>
	</g>
</g>
<polyline class="st20" points="351.5,442.5 321.6,442.5 321.6,398.5 "/>
<g>
	<g>
		<line class="st20" x1="768.3" y1="442.5" x2="416.2" y2="442.5"/>
		<g>
			<polygon class="st21" points="766.2,435.5 778.3,442.5 766.2,449.5 			"/>
		</g>
	</g>
</g>
<g>
	<g>
		<line class="st22" x1="251.3" y1="135.6" x2="460.7" y2="135.6"/>
		<g>
			<polygon class="st21" points="458.7,142.6 470.8,135.6 458.7,128.6 			"/>
		</g>
	</g>
</g>
<g>
	<g>
		<polyline class="st22" points="640,207.3 678.4,207.3 678.4,417.4 768.3,417.4 		"/>
		<g>
			<polygon class="st21" points="642.1,214.3 630,207.3 642.1,200.3 			"/>
		</g>
		<g>
			<polygon class="st21" points="766.2,424.4 778.3,417.4 766.2,410.5 			"/>
		</g>
	</g>
</g>
<g>
	<g>
		<polyline class="st22" points="931.6,359.1 931.6,276 848.2,276 848.2,125 		"/>
		<g>
			<polygon class="st21" points="938.5,357.1 931.6,369.2 924.6,357.1 			"/>
		</g>
		<g>
			<polygon class="st21" points="855.1,127 848.2,114.9 841.2,127 			"/>
		</g>
	</g>
</g>
<g>
	<g>
		<line class="st22" x1="549.4" y1="189.9" x2="251.3" y2="189.9"/>
		<g>
			<polygon class="st21" points="547.4,182.9 559.4,189.9 547.4,196.9 			"/>
		</g>
	</g>
</g>
<g>
	<g>
		<polyline class="st22" points="630,189.9 666,189.9 666,62.3 815.6,62.3 		"/>
		<g>
			<polygon class="st21" points="813.6,69.3 825.7,62.3 813.6,55.3 			"/>
		</g>
	</g>
</g>
<g>
	<rect y="554.2" class="st2" width="97.7" height="33.3"/>
	<text transform="matrix(1 0 0 1 27.375 564.5863)"><tspan x="0" y="0" class="st3 st4 st5">Device </tspan><tspan x="-22.1" y="20" class="st3 st4 st5">manufacturer</tspan></text>
	<g>
		<rect x="25" y="498" class="st23" width="47.8" height="47.8"/>
		<path class="st24" d="M62.4,513c-0.3-0.2-0.7-0.2-1,0l-8.5,4.2v-3.4c0-0.6-0.5-1-1-1c-0.2,0-0.3,0-0.4,0.1l-8.5,4.3v-7.4
			c0-0.6-0.4-1-1-1h-6c-0.6,0-1,0.4-1,1v25h28v-21C62.9,513.5,62.7,513.2,62.4,513z M54.9,532.9h-4v-7h4V532.9z M60.9,532.9h-4v-8
			c0-0.6-0.4-1-1-1h-6c-0.6,0-1,0.4-1,1v8h-12v-22h4v9.6l10-5v5l10-5V532.9z"/>
	</g>
</g>
<g>
	<g>
		<rect id="Rectangle-Copy-14" x="805.7" y="393.7" class="st25" width="30.8" height="29.2"/>
		<g id="icon_x2F_device_x2F_16" transform="translate(685.000000, 339.000000)">
			<path id="Shape_4_" class="st26" d="M137.1,61.8c0.6,0,1,0.4,1,1c0,0.5-0.4,0.9-0.8,1l-0.4,1h3.3c1.1,0,2,0.9,2,2v5
				c0,1.1-0.9,2-2,2h-8c-1.1,0-2-0.9-2-2v-5c0-1.1,0.9-2,2-2h3.7l0.6-1.4c-0.1-0.1-0.2-0.3-0.2-0.5l0-0.1
				C136.1,62.2,136.5,61.8,137.1,61.8z M140.1,65.8h-8c-0.5,0-0.9,0.4-1,0.9l0,0.1v5c0,0.5,0.4,0.9,0.9,1l0.1,0h8
				c0.5,0,0.9-0.4,1-0.9l0-0.1v-5c0-0.5-0.4-0.9-0.9-1L140.1,65.8z M138.6,70.8c0.3,0,0.5,0.2,0.5,0.5s-0.2,0.5-0.5,0.5h-5
				c-0.3,0-0.5-0.2-0.5-0.5s0.2-0.5,0.5-0.5H138.6z M133.6,66.8c0.8,0,1.5,0.7,1.5,1.5c0,0.8-0.7,1.5-1.5,1.5
				c-0.8,0-1.5-0.7-1.5-1.5C132.1,67.4,132.8,66.8,133.6,66.8z M138.6,66.8c0.8,0,1.5,0.7,1.5,1.5c0,0.8-0.7,1.5-1.5,1.5
				c-0.8,0-1.5-0.7-1.5-1.5C137.1,67.4,137.8,66.8,138.6,66.8z M133.6,67.8c-0.3,0-0.5,0.2-0.5,0.5s0.2,0.5,0.5,0.5
				c0.3,0,0.5-0.2,0.5-0.5S133.9,67.8,133.6,67.8z M138.6,67.8c-0.3,0-0.5,0.2-0.5,0.5s0.2,0.5,0.5,0.5c0.3,0,0.5-0.2,0.5-0.5
				S138.9,67.8,138.6,67.8z"/>
		</g>
	</g>
	<g>
		<rect id="Rectangle-Copy-14_2_" x="851.8" y="393.7" class="st25" width="30.8" height="29.2"/>
		<g id="icon_x2F_device_x2F_16_1_" transform="translate(685.000000, 339.000000)">
			<path id="Shape_2_" class="st26" d="M183.2,61.8c0.6,0,1,0.4,1,1c0,0.5-0.4,0.9-0.8,1l-0.4,1h3.3c1.1,0,2,0.9,2,2v5
				c0,1.1-0.9,2-2,2h-8c-1.1,0-2-0.9-2-2v-5c0-1.1,0.9-2,2-2h3.7l0.6-1.4c-0.1-0.1-0.2-0.3-0.2-0.5l0-0.1
				C182.2,62.2,182.6,61.8,183.2,61.8z M186.2,65.8h-8c-0.5,0-0.9,0.4-1,0.9l0,0.1v5c0,0.5,0.4,0.9,0.9,1l0.1,0h8
				c0.5,0,0.9-0.4,1-0.9l0-0.1v-5c0-0.5-0.4-0.9-0.9-1L186.2,65.8z M184.7,70.8c0.3,0,0.5,0.2,0.5,0.5s-0.2,0.5-0.5,0.5h-5
				c-0.3,0-0.5-0.2-0.5-0.5s0.2-0.5,0.5-0.5H184.7z M179.7,66.8c0.8,0,1.5,0.7,1.5,1.5c0,0.8-0.7,1.5-1.5,1.5
				c-0.8,0-1.5-0.7-1.5-1.5C178.2,67.4,178.8,66.8,179.7,66.8z M184.7,66.8c0.8,0,1.5,0.7,1.5,1.5c0,0.8-0.7,1.5-1.5,1.5
				c-0.8,0-1.5-0.7-1.5-1.5C183.2,67.4,183.8,66.8,184.7,66.8z M179.7,67.8c-0.3,0-0.5,0.2-0.5,0.5s0.2,0.5,0.5,0.5
				c0.3,0,0.5-0.2,0.5-0.5S179.9,67.8,179.7,67.8z M184.7,67.8c-0.3,0-0.5,0.2-0.5,0.5s0.2,0.5,0.5,0.5c0.3,0,0.5-0.2,0.5-0.5
				S184.9,67.8,184.7,67.8z"/>
		</g>
	</g>
	<g>
		<rect id="Rectangle-Copy-14_3_" x="897.6" y="393.7" class="st25" width="30.8" height="29.2"/>
		<g id="icon_x2F_device_x2F_16_2_" transform="translate(685.000000, 339.000000)">
			<path id="Shape_3_" class="st26" d="M229,61.8c0.6,0,1,0.4,1,1c0,0.5-0.4,0.9-0.8,1l-0.4,1h3.3c1.1,0,2,0.9,2,2v5
				c0,1.1-0.9,2-2,2h-8c-1.1,0-2-0.9-2-2v-5c0-1.1,0.9-2,2-2h3.7l0.6-1.4c-0.1-0.1-0.2-0.3-0.2-0.5l0-0.1
				C228,62.2,228.4,61.8,229,61.8z M232,65.8h-8c-0.5,0-0.9,0.4-1,0.9l0,0.1v5c0,0.5,0.4,0.9,0.9,1l0.1,0h8c0.5,0,0.9-0.4,1-0.9
				l0-0.1v-5c0-0.5-0.4-0.9-0.9-1L232,65.8z M230.5,70.8c0.3,0,0.5,0.2,0.5,0.5s-0.2,0.5-0.5,0.5h-5c-0.3,0-0.5-0.2-0.5-0.5
				s0.2-0.5,0.5-0.5H230.5z M225.5,66.8c0.8,0,1.5,0.7,1.5,1.5c0,0.8-0.7,1.5-1.5,1.5c-0.8,0-1.5-0.7-1.5-1.5
				C224,67.4,224.6,66.8,225.5,66.8z M230.5,66.8c0.8,0,1.5,0.7,1.5,1.5c0,0.8-0.7,1.5-1.5,1.5c-0.8,0-1.5-0.7-1.5-1.5
				C229,67.4,229.6,66.8,230.5,66.8z M225.5,67.8c-0.3,0-0.5,0.2-0.5,0.5s0.2,0.5,0.5,0.5c0.3,0,0.5-0.2,0.5-0.5
				S225.7,67.8,225.5,67.8z M230.5,67.8c-0.3,0-0.5,0.2-0.5,0.5s0.2,0.5,0.5,0.5c0.3,0,0.5-0.2,0.5-0.5S230.7,67.8,230.5,67.8z"/>
		</g>
	</g>
	<g>
		<rect id="Rectangle-Copy-14_6_" x="805.7" y="436.2" class="st25" width="30.8" height="29.2"/>
		<g id="icon_x2F_device_x2F_16_5_" transform="translate(685.000000, 339.000000)">
			<path id="Shape_7_" class="st26" d="M137.1,104.3c0.6,0,1,0.4,1,1c0,0.5-0.4,0.9-0.8,1l-0.4,1h3.3c1.1,0,2,0.9,2,2v5
				c0,1.1-0.9,2-2,2h-8c-1.1,0-2-0.9-2-2v-5c0-1.1,0.9-2,2-2h3.7l0.6-1.4c-0.1-0.1-0.2-0.3-0.2-0.5l0-0.1
				C136.1,104.8,136.5,104.3,137.1,104.3z M140.1,108.3h-8c-0.5,0-0.9,0.4-1,0.9l0,0.1v5c0,0.5,0.4,0.9,0.9,1l0.1,0h8
				c0.5,0,0.9-0.4,1-0.9l0-0.1v-5c0-0.5-0.4-0.9-0.9-1L140.1,108.3z M138.6,113.3c0.3,0,0.5,0.2,0.5,0.5c0,0.3-0.2,0.5-0.5,0.5h-5
				c-0.3,0-0.5-0.2-0.5-0.5c0-0.3,0.2-0.5,0.5-0.5H138.6z M133.6,109.3c0.8,0,1.5,0.7,1.5,1.5c0,0.8-0.7,1.5-1.5,1.5
				c-0.8,0-1.5-0.7-1.5-1.5C132.1,110,132.8,109.3,133.6,109.3z M138.6,109.3c0.8,0,1.5,0.7,1.5,1.5c0,0.8-0.7,1.5-1.5,1.5
				c-0.8,0-1.5-0.7-1.5-1.5C137.1,110,137.8,109.3,138.6,109.3z M133.6,110.3c-0.3,0-0.5,0.2-0.5,0.5c0,0.3,0.2,0.5,0.5,0.5
				c0.3,0,0.5-0.2,0.5-0.5C134.1,110.5,133.9,110.3,133.6,110.3z M138.6,110.3c-0.3,0-0.5,0.2-0.5,0.5c0,0.3,0.2,0.5,0.5,0.5
				c0.3,0,0.5-0.2,0.5-0.5C139.1,110.5,138.9,110.3,138.6,110.3z"/>
		</g>
	</g>
	<g>
		<rect id="Rectangle-Copy-14_5_" x="851.8" y="436.2" class="st25" width="30.8" height="29.2"/>
		<g id="icon_x2F_device_x2F_16_4_" transform="translate(685.000000, 339.000000)">
			<path id="Shape_6_" class="st26" d="M183.2,104.3c0.6,0,1,0.4,1,1c0,0.5-0.4,0.9-0.8,1l-0.4,1h3.3c1.1,0,2,0.9,2,2v5
				c0,1.1-0.9,2-2,2h-8c-1.1,0-2-0.9-2-2v-5c0-1.1,0.9-2,2-2h3.7l0.6-1.4c-0.1-0.1-0.2-0.3-0.2-0.5l0-0.1
				C182.2,104.8,182.6,104.3,183.2,104.3z M186.2,108.3h-8c-0.5,0-0.9,0.4-1,0.9l0,0.1v5c0,0.5,0.4,0.9,0.9,1l0.1,0h8
				c0.5,0,0.9-0.4,1-0.9l0-0.1v-5c0-0.5-0.4-0.9-0.9-1L186.2,108.3z M184.7,113.3c0.3,0,0.5,0.2,0.5,0.5c0,0.3-0.2,0.5-0.5,0.5h-5
				c-0.3,0-0.5-0.2-0.5-0.5c0-0.3,0.2-0.5,0.5-0.5H184.7z M179.7,109.3c0.8,0,1.5,0.7,1.5,1.5c0,0.8-0.7,1.5-1.5,1.5
				c-0.8,0-1.5-0.7-1.5-1.5C178.2,110,178.8,109.3,179.7,109.3z M184.7,109.3c0.8,0,1.5,0.7,1.5,1.5c0,0.8-0.7,1.5-1.5,1.5
				c-0.8,0-1.5-0.7-1.5-1.5C183.2,110,183.8,109.3,184.7,109.3z M179.7,110.3c-0.3,0-0.5,0.2-0.5,0.5c0,0.3,0.2,0.5,0.5,0.5
				c0.3,0,0.5-0.2,0.5-0.5C180.2,110.5,179.9,110.3,179.7,110.3z M184.7,110.3c-0.3,0-0.5,0.2-0.5,0.5c0,0.3,0.2,0.5,0.5,0.5
				c0.3,0,0.5-0.2,0.5-0.5C185.2,110.5,184.9,110.3,184.7,110.3z"/>
		</g>
	</g>
	<g>
		<rect id="Rectangle-Copy-14_4_" x="897.6" y="436.2" class="st25" width="30.8" height="29.2"/>
		<g id="icon_x2F_device_x2F_16_3_" transform="translate(685.000000, 339.000000)">
			<path id="Shape_5_" class="st26" d="M229,104.3c0.6,0,1,0.4,1,1c0,0.5-0.4,0.9-0.8,1l-0.4,1h3.3c1.1,0,2,0.9,2,2v5
				c0,1.1-0.9,2-2,2h-8c-1.1,0-2-0.9-2-2v-5c0-1.1,0.9-2,2-2h3.7l0.6-1.4c-0.1-0.1-0.2-0.3-0.2-0.5l0-0.1
				C228,104.8,228.4,104.3,229,104.3z M232,108.3h-8c-0.5,0-0.9,0.4-1,0.9l0,0.1v5c0,0.5,0.4,0.9,0.9,1l0.1,0h8c0.5,0,0.9-0.4,1-0.9
				l0-0.1v-5c0-0.5-0.4-0.9-0.9-1L232,108.3z M230.5,113.3c0.3,0,0.5,0.2,0.5,0.5c0,0.3-0.2,0.5-0.5,0.5h-5c-0.3,0-0.5-0.2-0.5-0.5
				c0-0.3,0.2-0.5,0.5-0.5H230.5z M225.5,109.3c0.8,0,1.5,0.7,1.5,1.5c0,0.8-0.7,1.5-1.5,1.5c-0.8,0-1.5-0.7-1.5-1.5
				C224,110,224.6,109.3,225.5,109.3z M230.5,109.3c0.8,0,1.5,0.7,1.5,1.5c0,0.8-0.7,1.5-1.5,1.5c-0.8,0-1.5-0.7-1.5-1.5
				C229,110,229.6,109.3,230.5,109.3z M225.5,110.3c-0.3,0-0.5,0.2-0.5,0.5c0,0.3,0.2,0.5,0.5,0.5c0.3,0,0.5-0.2,0.5-0.5
				C226,110.5,225.7,110.3,225.5,110.3z M230.5,110.3c-0.3,0-0.5,0.2-0.5,0.5c0,0.3,0.2,0.5,0.5,0.5c0.3,0,0.5-0.2,0.5-0.5
				C231,110.5,230.7,110.3,230.5,110.3z"/>
		</g>
	</g>
	<g>
		<rect id="Rectangle-Copy-14_8_" x="941.5" y="393.7" class="st25" width="30.8" height="29.2"/>
		<g id="icon_x2F_device_x2F_16_7_" transform="translate(685.000000, 339.000000)">
			<path id="Shape_9_" class="st26" d="M272.9,61.8c0.6,0,1,0.4,1,1c0,0.5-0.4,0.9-0.8,1l-0.4,1h3.3c1.1,0,2,0.9,2,2v5
				c0,1.1-0.9,2-2,2h-8c-1.1,0-2-0.9-2-2v-5c0-1.1,0.9-2,2-2h3.7l0.6-1.4c-0.1-0.1-0.2-0.3-0.2-0.5l0-0.1
				C271.9,62.2,272.4,61.8,272.9,61.8z M275.9,65.8h-8c-0.5,0-0.9,0.4-1,0.9l0,0.1v5c0,0.5,0.4,0.9,0.9,1l0.1,0h8
				c0.5,0,0.9-0.4,1-0.9l0-0.1v-5c0-0.5-0.4-0.9-0.9-1L275.9,65.8z M274.4,70.8c0.3,0,0.5,0.2,0.5,0.5s-0.2,0.5-0.5,0.5h-5
				c-0.3,0-0.5-0.2-0.5-0.5s0.2-0.5,0.5-0.5H274.4z M269.4,66.8c0.8,0,1.5,0.7,1.5,1.5c0,0.8-0.7,1.5-1.5,1.5
				c-0.8,0-1.5-0.7-1.5-1.5C267.9,67.4,268.6,66.8,269.4,66.8z M274.4,66.8c0.8,0,1.5,0.7,1.5,1.5c0,0.8-0.7,1.5-1.5,1.5
				c-0.8,0-1.5-0.7-1.5-1.5C272.9,67.4,273.6,66.8,274.4,66.8z M269.4,67.8c-0.3,0-0.5,0.2-0.5,0.5s0.2,0.5,0.5,0.5
				c0.3,0,0.5-0.2,0.5-0.5S269.7,67.8,269.4,67.8z M274.4,67.8c-0.3,0-0.5,0.2-0.5,0.5s0.2,0.5,0.5,0.5c0.3,0,0.5-0.2,0.5-0.5
				S274.7,67.8,274.4,67.8z"/>
		</g>
	</g>
	<g>
		<rect id="Rectangle-Copy-14_7_" x="941.5" y="436.2" class="st25" width="30.8" height="29.2"/>
		<g id="icon_x2F_device_x2F_16_6_" transform="translate(685.000000, 339.000000)">
			<path id="Shape_8_" class="st26" d="M272.9,104.3c0.6,0,1,0.4,1,1c0,0.5-0.4,0.9-0.8,1l-0.4,1h3.3c1.1,0,2,0.9,2,2v5
				c0,1.1-0.9,2-2,2h-8c-1.1,0-2-0.9-2-2v-5c0-1.1,0.9-2,2-2h3.7l0.6-1.4c-0.1-0.1-0.2-0.3-0.2-0.5l0-0.1
				C271.9,104.8,272.4,104.3,272.9,104.3z M275.9,108.3h-8c-0.5,0-0.9,0.4-1,0.9l0,0.1v5c0,0.5,0.4,0.9,0.9,1l0.1,0h8
				c0.5,0,0.9-0.4,1-0.9l0-0.1v-5c0-0.5-0.4-0.9-0.9-1L275.9,108.3z M274.4,113.3c0.3,0,0.5,0.2,0.5,0.5c0,0.3-0.2,0.5-0.5,0.5h-5
				c-0.3,0-0.5-0.2-0.5-0.5c0-0.3,0.2-0.5,0.5-0.5H274.4z M269.4,109.3c0.8,0,1.5,0.7,1.5,1.5c0,0.8-0.7,1.5-1.5,1.5
				c-0.8,0-1.5-0.7-1.5-1.5C267.9,110,268.6,109.3,269.4,109.3z M274.4,109.3c0.8,0,1.5,0.7,1.5,1.5c0,0.8-0.7,1.5-1.5,1.5
				c-0.8,0-1.5-0.7-1.5-1.5C272.9,110,273.6,109.3,274.4,109.3z M269.4,110.3c-0.3,0-0.5,0.2-0.5,0.5c0,0.3,0.2,0.5,0.5,0.5
				c0.3,0,0.5-0.2,0.5-0.5C269.9,110.5,269.7,110.3,269.4,110.3z M274.4,110.3c-0.3,0-0.5,0.2-0.5,0.5c0,0.3,0.2,0.5,0.5,0.5
				c0.3,0,0.5-0.2,0.5-0.5C274.9,110.5,274.7,110.3,274.4,110.3z"/>
		</g>
	</g>
	<path id="Rectangle-Copy-17" class="st27" d="M818.3,369.2h140.4c22.1,0,40,17.9,40,40v43.1c0,22.1-17.9,40-40,40H818.3
		c-22.1,0-40-17.9-40-40v-43.1C778.3,387.1,796.2,369.2,818.3,369.2z"/>
	<rect x="810.3" y="341.3" class="st2" width="147.7" height="15.6"/>
	<text transform="matrix(1 0 0 1 810.3135 353.1496)" class="st3 st7 st8">Edge nodes</text>
</g>
<rect x="108.3" y="263.9" class="st2" width="428.2" height="19.5"/>
<text transform="matrix(1 0 0 1 126.1944 274.2462)" class="st3 st4 st5">1. Generates SDO ownership key and imports (first time only)</text>
<rect x="61.8" y="367.2" class="st2" width="144.4" height="79.2"/>
<text transform="matrix(1 0 0 1 61.8214 377.555)"><tspan x="0" y="0" class="st3 st4 st5">2. Orders devices, </tspan><tspan x="0" y="20" class="st3 st4 st5">providing SDO owner </tspan><tspan x="0" y="40" class="st3 st4 st5">public key. Receives </tspan><tspan x="0" y="60" class="st3 st4 st5">ownership vouchers.</tspan></text>
<rect x="129.2" y="501.7" class="st2" width="112.5" height="18.3"/>
<text transform="matrix(1 0 0 1 129.1732 512.0771)" class="st3 st4 st5">4. Ships devices</text>
<rect x="438.5" y="403.8" class="st2" width="240" height="35.4"/>
<text transform="matrix(1 0 0 1 438.4693 414.1839)"><tspan x="0" y="0" class="st3 st4 st5">5. Places in the field, connects </tspan><tspan x="0" y="20" class="st3 st4 st5">network and power, then turns on</tspan></text>
<rect x="863.1" y="149.4" class="st2" width="130.7" height="35.4"/>
<text transform="matrix(1 0 0 1 863.1127 159.7205)"><tspan x="0" y="0" class="st3 st4 st5">6. Contacts </tspan><tspan x="0" y="20" class="st3 st4 st5">rendezvous server</tspan></text>
<rect x="863.1" y="204.8" class="st2" width="136.9" height="60.4"/>
<text transform="matrix(1 0 0 1 863.1122 215.1472)"><tspan x="0" y="0" class="st3 st4 st5">7. Redirects edge </tspan><tspan x="0" y="20" class="st3 st4 st5">nodes to </tspan><tspan x="0" y="40" class="st3 st4 st5">management hub</tspan></text>
<rect x="694" y="209.3" class="st2" width="106.7" height="43.1"/>
<text transform="matrix(1 0 0 1 694.0245 219.634)"><tspan x="0" y="0" class="st3 st4 st5">8. Requests </tspan><tspan x="0" y="20" class="st3 st4 st5">configuration</tspan></text>
<rect x="694" y="271.7" class="st2" width="147.3" height="57.9"/>
<text transform="matrix(1 0 0 1 694.0245 282.102)"><tspan x="0" y="0" class="st3 st4 st5">9. Installs and </tspan><tspan x="0" y="20" class="st3 st4 st5">registers edge agent, </tspan><tspan x="0" y="40" class="st3 st4 st5">deploys edge services</tspan></text>
<rect x="113" y="50.2" class="st2" width="127.6" height="37.5"/>
<text transform="matrix(1 0 0 1 113.0072 60.5782)"><tspan x="0" y="0" class="st3 st4 st5">3. Receives and </tspan><tspan x="0" y="20" class="st3 st4 st5">imports vouchers</tspan></text>
<rect x="661.9" y="43.6" class="st2" width="153" height="18.1"/>
<text transform="matrix(1 0 0 1 661.8508 53.9587)" class="st3 st4 st5">3c. Registers vouchers</text>
<rect x="299.1" y="115.4" class="st2" width="142.1" height="16.5"/>
<text transform="matrix(1 0 0 1 299.1046 125.7275)" class="st6 st4 st5">3a. Adds edge nodes</text>
<rect x="299.1" y="170.5" class="st2" width="144.4" height="16.9"/>
<text transform="matrix(1 0 0 1 299.1041 180.867)" class="st6 st4 st5">3b. Imports vouchers</text>
<g>
	<g id="Group-2" transform="translate(21.000000, 0.000000)">
		<circle id="Oval-Copy-3" class="st12" cx="27.4" cy="208.9" r="24"/>
		<g id="icon_x2F_policy-admin" transform="translate(8.000000, 8.000000)">
			<path id="Shape" class="st13" d="M14.4,203.9c2.8,0,5,2.2,5,5v6h-2v-6c0-1.7-1.3-3-3-3h-4c-1.7,0-3,1.3-3,3v6h-2v-6
				c0-2.8,2.2-5,5-5H14.4z M12.4,191.9c2.8,0,5,2.2,5,5s-2.2,5-5,5s-5-2.2-5-5S9.7,191.9,12.4,191.9z M31,191.8l1.4,1.4l-7.1,7.1
				l-3.9-3.9l1.4-1.4l2.5,2.5L31,191.8z M12.4,193.9c-1.7,0-3,1.3-3,3c0,1.7,1.3,3,3,3s3-1.3,3-3S14.1,193.9,12.4,193.9z"/>
		</g>
	</g>
	<rect x="0.6" y="243.5" class="st2" width="94.5" height="15.5"/>
	<text transform="matrix(1 0 0 1 3.7344 253.8177)" class="st3 st4 st5">Administrator</text>
</g>
<rect x="252.4" y="286.3" class="st11" width="12.3" height="12.3"/>
<g>
	<rect id="Rectangle-Copy-16_5_" x="194.9" y="121.9" class="st28" width="70.5" height="81"/>
	<rect x="194.9" y="155.2" class="st2" width="70.5" height="15.6"/>
	<text transform="matrix(1 0 0 1 219.3163 165.6074)" class="st6 st4 st5">CLI</text>
</g>
<g>
	<g>
		<polyline class="st20" points="82.6,209.3 105.6,209.3 105.6,90.6 230.1,90.6 230.1,111.9 		"/>
		<g>
			<polygon class="st21" points="223.1,109.8 230.1,121.9 237.1,109.8 			"/>
		</g>
	</g>
</g>
<rect x="71.3" y="628.4" class="st2" width="89.1" height="14.5"/>
<text transform="matrix(1 0 0 1 71.3044 637.322)" class="st3 st4 st29">User actions</text>
<rect x="260.3" y="628.4" class="st2" width="89.1" height="14.5"/>
<text transform="matrix(1 0 0 1 260.3043 637.322)" class="st3 st4 st29">System actions</text>
<line class="st20" x1="0" y1="633.7" x2="59.7" y2="633.7"/>
<line class="st30" x1="187.4" y1="633.7" x2="247.2" y2="633.7"/>
</svg>
