<?xml version="1.0" encoding="utf-8"?>
<!-- Generator: Adobe Illustrator 24.2.3, SVG Export Plug-In . SVG Version: 6.00 Build 0)  -->
<svg version="1.1" id="Layer_1" xmlns="http://www.w3.org/2000/svg" xmlns:xlink="http://www.w3.org/1999/xlink" x="0px" y="0px"
	 viewBox="0 0 880 450" style="enable-background:new 0 0 880 450;" xml:space="preserve">
<style type="text/css">
	.st0{fill-rule:evenodd;clip-rule:evenodd;fill:#EDF5FF;}
	.st1{fill-rule:evenodd;clip-rule:evenodd;fill:#0F62FE;}
	.st2{fill-rule:evenodd;clip-rule:evenodd;fill:none;}
	.st3{fill:#161616;}
	.st4{font-family:'IBMPlexSans';}
	.st5{font-size:14px;}
	.st6{fill-rule:evenodd;clip-rule:evenodd;fill:#001D6C;}
	.st7{fill:#F4F4F4;}
	.st8{font-family:'IBMPlexSans-Medium';}
	.st9{font-size:16px;}
	.st10{fill-rule:evenodd;clip-rule:evenodd;fill:#4589FF;}
	.st11{fill-rule:evenodd;clip-rule:evenodd;fill:#E3F6FF;}
	.st12{fill-rule:evenodd;clip-rule:evenodd;fill:#E5F6FF;}
	.st13{fill:none;stroke:#0F62FE;stroke-width:2;stroke-miterlimit:10;}
	.st14{fill-rule:evenodd;clip-rule:evenodd;fill:#8A3FFC;}
	.st15{fill-rule:evenodd;clip-rule:evenodd;fill:#FFFFFF;}
	.st16{fill-rule:evenodd;clip-rule:evenodd;fill:#24A148;}
	.st17{fill-rule:evenodd;clip-rule:evenodd;fill:#491D8B;}
	.st18{fill:#BEBEBE;}
	.st19{fill:none;stroke:#BEBEBE;stroke-width:2;stroke-miterlimit:10;}
</style>
<g id="Group-2_13_" transform="translate(47.000000, 0.000000)">
	<circle id="Oval-Copy-3_15_" class="st0" cx="-5" cy="24" r="24"/>
	<g id="icon_x2F_developer_3_" transform="translate(8.000000, 8.000000)">
		<path id="Shape_16_" class="st1" d="M-18,19c2.8,0,5,2.2,5,5v6h-2v-6c0-1.7-1.3-3-3-3h-4c-1.7,0-3,1.3-3,3v6h-2v-6
			c0-2.8,2.2-5,5-5H-18z M-20,7c2.8,0,5,2.2,5,5s-2.2,5-5,5s-5-2.2-5-5S-22.7,7-20,7z M-4.9,5.9L-3,6.3l-2.4,10.4l-1.8-0.4L-4.9,5.9
			z M-10.1,7.6l1.4,1.2l-2.1,2.6l2.1,2.6l-1.4,1.2l-3.1-3.7L-10.1,7.6z M-0.2,7.6l3.1,3.7L-0.2,15l-1.4-1.2l2.1-2.6l-2.1-2.6
			L-0.2,7.6z M-20,9c-1.7,0-3,1.3-3,3c0,1.7,1.3,3,3,3s3-1.3,3-3S-18.3,9-20,9z"/>
	</g>
</g>
<rect x="2.8" y="58.9" class="st2" width="77.3" height="37.4"/>
<text transform="matrix(1 0 0 1 12.6124 69.2339)"><tspan x="0" y="0" class="st3 st4 st5">Software </tspan><tspan x="-3.3" y="20" class="st3 st4 st5">developer</tspan></text>
<rect id="Rectangle-Copy-12_2_" x="441" y="184.5" class="st6" width="216" height="73"/>
<rect x="457" y="200.5" class="st2" width="176" height="15.6"/>
<text transform="matrix(1 0 0 1 457 212.3398)" class="st7 st8 st9">Management hub</text>
<rect id="Rectangle-Copy_2_" x="728" y="241.5" class="st10" width="152" height="194"/>
<rect x="744" y="257.7" class="st2" width="95" height="15.6"/>
<text transform="matrix(1 0 0 1 744.0157 269.5811)" class="st7 st8 st9">Edge node</text>
<g>
	<g id="Group-2_14_" transform="translate(21.000000, 0.000000)">
		<circle id="Oval-Copy-3_16_" class="st11" cx="505" cy="296.5" r="24"/>
		<g id="icon_x2F_policy-admin_3_" transform="translate(8.000000, 8.000000)">
			<path id="Shape_17_" class="st1" d="M492,291.5c2.8,0,5,2.2,5,5v6h-2v-6c0-1.7-1.3-3-3-3h-4c-1.7,0-3,1.3-3,3v6h-2v-6
				c0-2.8,2.2-5,5-5H492z M490,279.5c2.8,0,5,2.2,5,5c0,2.8-2.2,5-5,5s-5-2.2-5-5C485,281.8,487.3,279.5,490,279.5z M508.6,279.5
				l1.4,1.4l-7.1,7.1l-3.9-3.9l1.4-1.4l2.5,2.5L508.6,279.5z M490,281.5c-1.7,0-3,1.3-3,3c0,1.7,1.3,3,3,3c1.7,0,3-1.3,3-3
				S491.7,281.5,490,281.5z"/>
		</g>
	</g>
	<rect x="478.2" y="331.1" class="st2" width="94.5" height="15.5"/>
	<text transform="matrix(1 0 0 1 481.3025 341.4559)" class="st3 st4 st5">Administrator</text>
</g>
<g id="Layer_2">
</g>
<rect x="763.8" y="101" class="st2" width="116.5" height="37.5"/>
<text transform="matrix(1 0 0 1 781.3759 111.3827)"><tspan x="0" y="0" class="st3 st4 st5">Organization </tspan><tspan x="-2.8" y="20" class="st3 st4 st5">administrator</tspan></text>
<g>
	<circle id="Oval-Copy-3_13_" class="st12" cx="822" cy="66" r="24"/>
	<path class="st1" d="M817,69c2.8,0,5,2.2,5,5v6h-2v-6c0-1.7-1.3-3-3-3h-4c-1.7,0-3,1.3-3,3v6h-2v-6c0-2.8,2.2-5,5-5H817z"/>
	<g>
		<g>
			<path class="st1" d="M815,57c-2.8,0-5,2.2-5,5c0,2.8,2.2,5,5,5c2.8,0,5-2.2,5-5C820,59.2,817.8,57,815,57z M815,65
				c-1.7,0-3-1.3-3-3c0-1.7,1.3-3,3-3c1.7,0,3,1.3,3,3C818,63.7,816.7,65,815,65z"/>
		</g>
	</g>
	<rect x="825" y="55" class="st13" width="4" height="4"/>
	<rect x="833" y="55" class="st13" width="4" height="4"/>
	<rect x="825" y="63" class="st13" width="4" height="4"/>
	<rect x="833" y="63" class="st13" width="4" height="4"/>
</g>
<rect id="Rectangle-Copy-18_4_" x="290" y="1.5" class="st14" width="120" height="96"/>
<rect x="306" y="17.5" class="st2" width="45" height="15.6"/>
<text transform="matrix(1 0 0 1 306 29.3397)" class="st7 st8 st9">App</text>
<rect id="Rectangle-Copy-10_4_" x="306" y="49.5" class="st15" width="88" height="32"/>
<rect x="330" y="60.5" class="st2" width="46" height="16"/>
<text transform="matrix(1 0 0 1 330.0001 70.8596)" class="st3 st4 st5">Secret</text>
<rect x="314" y="57.5" class="st1" width="8" height="16"/>
<rect id="Rectangle-Copy-18_5_" x="290" y="113.5" class="st14" width="120" height="96"/>
<rect x="306" y="129.5" class="st2" width="73" height="15.6"/>
<text transform="matrix(1 0 0 1 306 141.3397)" class="st7 st8 st9">Service</text>
<rect id="Rectangle-Copy-10_5_" x="306" y="161.5" class="st15" width="88" height="32"/>
<rect x="330" y="172.5" class="st2" width="46" height="16"/>
<text transform="matrix(1 0 0 1 330.0001 182.8596)" class="st3 st4 st5">Secret</text>
<rect x="314" y="169.5" class="st1" width="8" height="16"/>
<rect id="Rectangle-Copy-18_6_" x="744" y="323.5" class="st14" width="120" height="96"/>
<rect x="760" y="339.5" class="st2" width="73" height="15.6"/>
<text transform="matrix(1 0 0 1 760 351.3397)" class="st7 st8 st9">Service</text>
<rect id="Rectangle-Copy-10_8_" x="760" y="371.5" class="st15" width="88" height="32"/>
<rect x="784" y="382.5" class="st2" width="46" height="16"/>
<text transform="matrix(1 0 0 1 784.0001 392.8596)" class="st3 st4 st5">Secret</text>
<rect x="768" y="379.5" class="st16" width="8" height="16"/>
<rect id="Rectangle-Copy-18_3_" x="120" y="273.5" class="st17" width="245" height="104"/>
<rect x="136" y="289.5" class="st2" width="75" height="15.6"/>
<text transform="matrix(1 0 0 1 136 301.3397)" class="st7 st8 st9">Policy</text>
<rect id="Rectangle-Copy-10_6_" x="130" y="321.5" class="st15" width="86" height="32"/>
<rect x="154" y="332.5" class="st2" width="46" height="16"/>
<text transform="matrix(1 0 0 1 154.0001 342.8596)" class="st3 st4 st5">Secret</text>
<rect x="138" y="329.5" class="st1" width="8" height="16"/>
<rect id="Rectangle-Copy-10_7_" x="263" y="321.5" class="st15" width="86" height="32"/>
<rect x="287" y="332.5" class="st2" width="46" height="16"/>
<text transform="matrix(1 0 0 1 287.0001 342.8596)" class="st3 st4 st5">Secret</text>
<rect x="271" y="329.5" class="st16" width="8" height="16"/>
<path id="Path-4_7_" class="st18" d="M230,337.5h19v-6l14,7l-14,7v-6h-19V337.5z"/>
<path id="Path-4_6_" class="st18" d="M249,337.5h-19v-6l-14,7l14,7v-6h19V337.5z"/>
<rect x="656" y="46.5" class="st2" width="115" height="16"/>
<text transform="matrix(1 0 0 1 660.2609 56.8867)" class="st3 st4 st5">5. Creates secret</text>
<rect x="146" y="18.5" class="st2" width="127" height="16"/>
<text transform="matrix(1 0 0 1 146.0157 28.8867)" class="st3 st4 st5">1. Develop/test app</text>
<rect x="146" y="59.5" class="st2" width="127" height="16"/>
<text transform="matrix(1 0 0 1 146.0157 69.8867)" class="st3 st4 st5">2. Defines secret</text>
<rect x="146" y="114.5" class="st2" width="127" height="16"/>
<text transform="matrix(1 0 0 1 146.0157 124.8867)" class="st3 st4 st5">3. Packages app</text>
<rect x="420" y="131.5" class="st2" width="132" height="16"/>
<text transform="matrix(1 0 0 1 420.0157 141.8867)" class="st3 st4 st5">4. Publishes service</text>
<rect x="481" y="365.5" class="st2" width="203" height="16"/>
<text transform="matrix(1 0 0 1 481.0157 375.8867)" class="st3 st4 st5">6. Creates deployment policy</text>
<rect x="481" y="389.5" class="st2" width="203" height="16"/>
<text transform="matrix(1 0 0 1 481.0157 399.8867)" class="st3 st4 st5">7. Binds secrets</text>
<rect x="481" y="413.5" class="st2" width="203" height="16"/>
<text transform="matrix(1 0 0 1 481.0157 423.8867)" class="st3 st4 st5">8. Publishes deployment policy</text>
<rect x="674" y="181.5" class="st2" width="135" height="33"/>
<text transform="matrix(1 0 0 1 674.0157 191.8867)"><tspan x="0" y="0" class="st3 st4 st5">9. Service is </tspan><tspan x="0" y="16.8" class="st3 st4 st5">deployed with secret</tspan></text>
<g>
	<g>
		<polyline class="st19" points="410,150.5 562,150.5 562,174.5 		"/>
		<g>
			<polygon class="st18" points="555,172.4 562,184.5 569,172.4 			"/>
		</g>
	</g>
</g>
<g>
	<g>
		<polyline class="st19" points="82,23.5 133,23.5 133,39.5 280,39.5 		"/>
		<g>
			<polygon class="st18" points="277.9,46.5 290,39.5 277.9,32.5 			"/>
		</g>
	</g>
</g>
<g>
	<g>
		<polyline class="st19" points="82,41.5 115,41.5 115,79.5 280,79.5 		"/>
		<g>
			<polygon class="st18" points="277.9,86.5 290,79.5 277.9,72.5 			"/>
		</g>
	</g>
</g>
<g>
	<g>
		<polyline class="st19" points="82,59.5 97,59.5 97,135.5 280,135.5 		"/>
		<g>
			<polygon class="st18" points="277.9,142.5 290,135.5 277.9,128.5 			"/>
		</g>
	</g>
</g>
<g>
	<g>
		<line class="st19" x1="343" y1="273.5" x2="343" y2="220.6"/>
		<g>
			<polygon class="st18" points="350,222.6 343,210.5 336,222.6 			"/>
		</g>
	</g>
</g>
<g>
	<g>
		<polyline class="st19" points="468,267.6 468,438.5 239,438.5 239,377.5 		"/>
		<g>
			<polygon class="st18" points="461,269.6 468,257.5 475,269.6 			"/>
		</g>
	</g>
</g>
<g>
	<g>
		<polyline class="st19" points="657,218.5 818,218.5 818,231.5 		"/>
		<g>
			<polygon class="st18" points="811,229.4 818,241.5 825,229.4 			"/>
		</g>
	</g>
</g>
<g>
	<g id="Rectangle-Copy-10_9_">
		<rect x="544.5" y="49" class="st15" width="87" height="33"/>
		<path class="st3" d="M631,49.5v32h-86v-32H631 M632,48.5h-1h-86h-1v1v32v1h1h86h1v-1v-32V48.5L632,48.5z"/>
	</g>
	<rect x="569" y="60.5" class="st2" width="46" height="16"/>
	<text transform="matrix(1 0 0 1 569.0001 70.8596)" class="st3 st4 st5">Secret</text>
	<rect x="553" y="57.5" class="st16" width="8" height="16"/>
</g>
<g>
	<g>
		<line class="st19" x1="785" y1="65.5" x2="642.1" y2="65.5"/>
		<g>
			<polygon class="st18" points="644.1,58.5 632,65.5 644.1,72.5 			"/>
		</g>
	</g>
</g>
<g>
	<g>
		<line class="st19" x1="588" y1="82.5" x2="588" y2="174.5"/>
		<g>
			<polygon class="st18" points="581,172.4 588,184.5 595,172.4 			"/>
		</g>
	</g>
</g>
</svg>
