<svg xmlns="http://www.w3.org/2000/svg" id="Layer_1" data-name="Layer 1" viewBox="0 0 1012.75 444.41"><defs><style>.cls-1{fill:#f4dd9d;stroke:#bc9a30}.cls-1,.cls-15,.cls-2,.cls-26,.cls-57,.cls-59,.cls-63{stroke-miterlimit:10}.cls-1,.cls-15,.cls-26,.cls-57{stroke-width:2px}.cls-2{font-size:24px}.cls-2,.cls-59{fill:#cb3694}.cls-2,.cls-57,.cls-59,.cls-63{stroke:#cb3794}.cls-16,.cls-2,.cls-3,.cls-34,.cls-35,.cls-40,.cls-49,.cls-59{font-family:IBMPlexSans,IBM Plex Sans}.cls-3,.cls-34,.cls-45,.cls-49{font-size:14px}.cls-16,.cls-3{fill:#231f20}.cls-4{letter-spacing:-.01em}.cls-5,.cls-6{letter-spacing:0}.cls-7{letter-spacing:-.01em}.cls-8{letter-spacing:.01em}.cls-10,.cls-9{letter-spacing:-.01em}.cls-11{letter-spacing:0}.cls-12{font-size:21px;font-family:MyriadPro-Regular,Myriad Pro}.cls-12,.cls-58{fill:#cb3794}.cls-13{fill:#f2f6fc}.cls-14,.cls-45{fill:#4272b8}.cls-15,.cls-57,.cls-63{fill:none}.cls-15{stroke:#4272b8}.cls-16{font-size:13px}.cls-17{letter-spacing:-.01em}.cls-18{letter-spacing:0}.cls-19,.cls-20{letter-spacing:-.01em}.cls-21{letter-spacing:0}.cls-22{letter-spacing:-.01em}.cls-23,.cls-24,.cls-25{letter-spacing:0}.cls-26{fill:#e2e8e6;stroke:#038571}.cls-27{fill:#f9f0f6}.cls-28{fill:#8d3493}.cls-29{letter-spacing:0}.cls-30,.cls-35{font-size:11px}.cls-31,.cls-32{letter-spacing:-.01em}.cls-33{letter-spacing:.01em}.cls-34{fill:#fff}.cls-35,.cls-40,.cls-49{fill:#343434}.cls-36{letter-spacing:.01em}.cls-37{letter-spacing:-.01em}.cls-38{letter-spacing:0}.cls-39{letter-spacing:-.01em}.cls-40{font-size:12px}.cls-41,.cls-42{letter-spacing:-.01em}.cls-43{letter-spacing:0}.cls-44{letter-spacing:-.01em}.cls-45,.cls-50{font-family:IBMPlexSans-Bold,IBM Plex Sans;font-weight:700}.cls-46,.cls-47,.cls-48{letter-spacing:-.01em}.cls-51,.cls-52{letter-spacing:0}.cls-53,.cls-54{letter-spacing:-.01em}.cls-55{letter-spacing:.01em}.cls-56{letter-spacing:-.01em}.cls-59{font-size:18px}.cls-60{letter-spacing:.01em}.cls-61{letter-spacing:-.01em}.cls-62{letter-spacing:0}</style></defs><title>access</title><rect width="261.75" height="58.27" x="320.05" y="366.87" class="cls-1" rx="20.55" ry="20.55"/><text class="cls-2" transform="translate(742.56 206.34)">X</text><rect width="179.28" height="48.6" x="807.22" y="172.85" class="cls-1" rx="20.55" ry="20.55"/><text class="cls-3" transform="translate(847.71 199.43)">A<tspan x="8.97" y="0" class="cls-4">n</tspan><tspan x="16.81" y="0">y </tspan><tspan x="27.1" y="0" class="cls-5">r</tspan><tspan x="32.17" y="0">emo</tspan><tspan x="59.92" y="0" class="cls-6">t</tspan><tspan x="64.78" y="0">e ho</tspan><tspan x="91.56" y="0" class="cls-7">s</tspan><tspan x="98.28" y="0">t</tspan></text><text class="cls-3" transform="translate(344.12 402.67)">Se<tspan x="15.82" y="0" class="cls-8">r</tspan><tspan x="21.1" y="0">vi</tspan><tspan x="31.49" y="0" class="cls-9">c</tspan><tspan x="38.44" y="0">e has no </tspan><tspan x="94.08" y="0" class="cls-10">e</tspan><tspan x="101.6" y="0" class="cls-11">xplicit dependency</tspan></text><text class="cls-12" transform="translate(694.54 218.05)">X</text><rect width="345.71" height="28.72" x="320.87" y="281.26" class="cls-13"/><path d="M665.57,282.26V309H321.87V282.26h343.7m2-2H319.87V311h347.7V280.26Z" class="cls-14"/><rect width="367.52" height="49.07" x="296.4" y="281.76" class="cls-14"/><path d="M662.42,283.26v46.07H297.9V283.26H662.42m3-3H294.9v52.07H665.42V280.26Z" class="cls-13"/><rect width="735.34" height="323.4" x="6.63" y="18.57" class="cls-13"/><path d="M741,19.57V341H7.63V19.57H741m2-2H5.63V343H743V17.57Z" class="cls-14"/><rect width="172.21" height="63.01" x="18.6" y="260.02" class="cls-15"/><text class="cls-16" transform="translate(25.06 278.46)"><tspan class="cls-17">P</tspan><tspan x="7.75" y="0" class="cls-18">r</tspan><tspan x="12.45" y="0">o</tspan><tspan x="19.73" y="0" class="cls-19">c</tspan><tspan x="26.19" y="0">e</tspan><tspan x="33.33" y="0" class="cls-20">s</tspan><tspan x="39.58" y="0" class="cls-21">ses that h</tspan><tspan x="96.36" y="0" class="cls-22">av</tspan><tspan x="109.49" y="0">e a</tspan><tspan x="126.63" y="0" class="cls-19">cc</tspan><tspan x="139.55" y="0" class="cls-23">e</tspan><tspan x="146.69" y="0" class="cls-19">s</tspan><tspan x="152.94" y="0">s</tspan><tspan x="14.44" y="16" class="cls-24">t</tspan><tspan x="18.95" y="16">o this vi</tspan><tspan x="63.54" y="16" class="cls-25">r</tspan><tspan x="68.37" y="16">tual net</tspan><tspan x="112.94" y="16" class="cls-18">w</tspan><tspan x="122.86" y="16">ork </tspan><tspan x="37.93" y="32">(with add</tspan><tspan x="92.56" y="32" class="cls-18">r</tspan><tspan x="97.26" y="32" class="cls-23">e</tspan><tspan x="104.4" y="32" class="cls-19">s</tspan><tspan x="110.65" y="32">s)</tspan></text><rect width="172.21" height="104.92" x="810.76" y="247.79" class="cls-15"/><rect width="498.52" height="173.63" x="216.44" y="81.45" class="cls-26"/><rect width="212" height="48" x="246.9" y="183.78" class="cls-27"/><path d="M457.9,184.78v46h-210v-46h210m2-2h-214v50h214v-50Z" class="cls-28"/><rect width="202" height="40.22" x="489.61" y="101.64" class="cls-27"/><path d="M690.61,102.64v38.22h-200V102.64h200m2-2h-204v42.22h204V100.64Z" class="cls-28"/><text class="cls-3" transform="translate(540.83 117.64)">cpu2<tspan x="31.51" y="0" class="cls-4">e</tspan><tspan x="39.09" y="0" class="cls-29">v</tspan><tspan x="46.02" y="0">t</tspan><tspan x="50.93" y="0" class="cls-7">s</tspan><tspan x="57.65" y="0">t</tspan><tspan x="62.57" y="0" class="cls-5">r</tspan><tspan x="67.63" y="0">eams</tspan><tspan class="cls-30"><tspan x="-23.7" y="16">(IBM </tspan><tspan x="3.1" y="16" class="cls-31">E</tspan><tspan x="9.4" y="16">d</tspan><tspan x="15.78" y="16" class="cls-32">g</tspan><tspan x="21.52" y="16">e Computing se</tspan><tspan x="98.04" y="16" class="cls-33">r</tspan><tspan x="102.18" y="16">vi</tspan><tspan x="110.34" y="16" class="cls-32">c</tspan><tspan x="115.81" y="16">e)</tspan></tspan></text><rect width="116" height="38.02" x="294.9" y="291.96" class="cls-14"/><text class="cls-34" transform="translate(319.13 314.94)">OS se<tspan x="35.85" y="0" class="cls-8">r</tspan><tspan x="41.13" y="0">vi</tspan><tspan x="51.52" y="0" class="cls-9">c</tspan><tspan x="58.48" y="0">es</tspan></text><text class="cls-35" transform="translate(514 157.62)">Se<tspan x="12.43" y="0" class="cls-36">r</tspan><tspan x="16.58" y="0">vi</tspan><tspan x="24.74" y="0" class="cls-32">c</tspan><tspan x="30.21" y="0">e </tspan><tspan x="38.84" y="0" class="cls-37">s</tspan><tspan x="44.12" y="0">ta</tspan><tspan x="53.86" y="0" class="cls-38">t</tspan><tspan x="57.67" y="0">es</tspan><tspan x="-38.71" y="16" class="cls-39">e</tspan><tspan x="-32.8" y="16">xplicit dependencies</tspan></text><text class="cls-40" transform="translate(550.18 277.59)">Ha<tspan x="14.89" y="0" class="cls-41">r</tspan><tspan x="19.22" y="0">d</tspan><tspan x="26.18" y="0" class="cls-42">w</tspan><tspan x="35.29" y="0" class="cls-43">a</tspan><tspan x="41.7" y="0" class="cls-44">r</tspan><tspan x="46.04" y="0">e a</tspan><tspan x="61.87" y="0" class="cls-41">cc</tspan><tspan x="73.8" y="0">e</tspan><tspan x="80.39" y="0" class="cls-41">s</tspan><tspan x="86.16" y="0">s</tspan></text><text class="cls-45" transform="translate(425.75 49.19)"><tspan class="cls-46">E</tspan><tspan x="8.36" y="0">d</tspan><tspan x="16.87" y="0" class="cls-9">g</tspan><tspan x="24.51" y="0">e node</tspan><tspan x="-34.68" y="16">IBM </tspan><tspan x="-4.52" y="16" class="cls-47">E</tspan><tspan x="3.84" y="16">d</tspan><tspan x="12.35" y="16" class="cls-48">g</tspan><tspan x="19.99" y="16">e Computing</tspan></text><text class="cls-40" transform="translate(337.06 277.59)">OS a<tspan x="24.71" y="0" class="cls-41">cc</tspan><tspan x="36.64" y="0">e</tspan><tspan x="43.22" y="0" class="cls-41">s</tspan><tspan x="49" y="0">s</tspan></text><rect width="202" height="48" x="489.61" y="183.78" class="cls-27"/><path d="M690.61,184.78v46h-200v-46h200m2-2h-204v50h204v-50Z" class="cls-28"/><text class="cls-3" transform="translate(577.79 202.44)">gps <tspan class="cls-30"><tspan x="-61.8" y="16">(IBM </tspan><tspan x="-35" y="16" class="cls-31">E</tspan><tspan x="-28.7" y="16">d</tspan><tspan x="-22.32" y="16" class="cls-32">g</tspan><tspan x="-16.58" y="16">e Computing se</tspan><tspan x="59.94" y="16" class="cls-33">r</tspan><tspan x="64.08" y="16">vi</tspan><tspan x="72.24" y="16" class="cls-32">c</tspan><tspan x="77.71" y="16">e)</tspan></tspan></text><text class="cls-49" transform="translate(290.9 93.15)"><tspan class="cls-50"><tspan x="-68.83" y="16">IBM </tspan><tspan x="-38.67" y="16" class="cls-47">E</tspan><tspan x="-30.32" y="16">d</tspan><tspan x="-21.8" y="16" class="cls-48">g</tspan><tspan x="-14.16" y="16">e Computing</tspan><tspan x="-65.93" y="32">Depl</tspan><tspan x="-35.55" y="32" class="cls-47">o</tspan><tspan x="-27.8" y="32" class="cls-51">yment p</tspan><tspan x="25.58" y="32" class="cls-9">a</tspan><tspan x="33.47" y="32" class="cls-5">t</tspan><tspan x="38.76" y="32" class="cls-52">t</tspan><tspan x="44.06" y="32" class="cls-51">ern</tspan></tspan></text><rect width="141.68" height="38.02" x="521.79" y="291.52" class="cls-14"/><text class="cls-34" transform="translate(536.5 313.11)">Ha<tspan x="17.37" y="0" class="cls-53">r</tspan><tspan x="22.43" y="0">d</tspan><tspan x="30.55" y="0" class="cls-54">w</tspan><tspan x="41.17" y="0">a</tspan><tspan x="48.65" y="0" class="cls-5">r</tspan><tspan x="53.72" y="0">e d</tspan><tspan x="72.83" y="0" class="cls-4">e</tspan><tspan x="80.4" y="0" class="cls-11">vi</tspan><tspan x="90.79" y="0" class="cls-9">c</tspan><tspan x="97.75" y="0" class="cls-51">es</tspan></text><text class="cls-45" transform="translate(847.7 139.43)">Cloud se<tspan x="56.33" y="0" class="cls-55">r</tspan><tspan x="62.09" y="0" class="cls-56">v</tspan><tspan x="69.51" y="0">ers</tspan><tspan x="13.24" y="16">(o</tspan><tspan x="25.87" y="16" class="cls-9">p</tspan><tspan x="34.3" y="16">tional)</tspan></text><path d="M912.45,88.3a19.62,19.62,0,0,0-19.63-17.67A19.88,19.88,0,0,0,873.37,87.1a17.68,17.68,0,0,0-2.62-.2,17.43,17.43,0,1,0,0,34.85H905.6a17.43,17.43,0,0,0,6.85-33.45Zm-6.85,28.81H870.75a12.78,12.78,0,1,1,4-24.93l3,1,.07-3.12a15.18,15.18,0,0,1,15.08-14.74A15,15,0,0,1,907.91,90l0,1.65,1.57.5a12.78,12.78,0,0,1-3.92,25Z" class="cls-14"/><text class="cls-3" transform="translate(338.66 200.78)">cpu<tspan class="cls-30"><tspan x="-63.06" y="16">(IBM </tspan><tspan x="-36.27" y="16" class="cls-31">E</tspan><tspan x="-29.96" y="16">d</tspan><tspan x="-23.58" y="16" class="cls-32">g</tspan><tspan x="-17.84" y="16">e Computing se</tspan><tspan x="58.67" y="16" class="cls-33">r</tspan><tspan x="62.82" y="16">vi</tspan><tspan x="70.98" y="16" class="cls-32">c</tspan><tspan x="76.45" y="16">e)</tspan></tspan></text><line x1="591.85" x2="591.68" y1="151.06" y2="174.97" class="cls-15"/><polygon points="587.35 152.34 591.89 144.6 596.33 152.41 587.35 152.34" class="cls-14"/><polygon points="587.2 173.63 591.63 181.43 596.18 173.69 587.2 173.63" class="cls-14"/><line x1="647.38" x2="647.1" y1="242.75" y2="281.99" class="cls-15"/><polygon points="642.88 244.03 647.42 236.29 651.85 244.09 642.88 244.03" class="cls-14"/><polygon points="642.62 280.65 647.05 288.45 651.6 280.71 642.62 280.65" class="cls-14"/><line x1="398.78" x2="398.5" y1="242.75" y2="281.99" class="cls-15"/><polygon points="394.28 244.03 398.82 236.29 403.26 244.09 394.28 244.03" class="cls-14"/><polygon points="394.02 280.65 398.45 288.45 403 280.71 394.02 280.65" class="cls-14"/><line x1="392.4" x2="477.38" y1="177.4" y2="125.14" class="cls-15"/><polygon points="395.87 180.53 386.9 180.78 391.17 172.89 395.87 180.53" class="cls-14"/><polygon points="478.61 129.65 482.88 121.75 473.91 122 478.61 129.65" class="cls-14"/><line x1="158.5" x2="199" y1="163.49" y2="180.92" class="cls-57"/><polygon points="196.01 184.52 204.93 183.47 199.56 176.28 196.01 184.52" class="cls-58"/><line x1="805.2" x2="760.5" y1="197.15" y2="197.15" class="cls-57"/><polygon points="761.81 192.66 754.04 197.15 761.81 201.64 761.81 192.66" class="cls-58"/><text class="cls-59" transform="translate(460.35 214.33)">X</text><line x1="488.61" x2="474.97" y1="207.91" y2="207.91" class="cls-57"/><polygon points="476.28 203.42 468.51 207.91 476.28 212.39 476.28 203.42" class="cls-58"/><text class="cls-16" transform="translate(839.44 266.24)">When se<tspan x="50.02" y="0" class="cls-60">r</tspan><tspan x="54.92" y="0">vi</tspan><tspan x="64.57" y="0" class="cls-19">c</tspan><tspan x="71.03" y="0">e po</tspan><tspan x="96.06" y="0" class="cls-25">r</tspan><tspan x="100.88" y="0">ts </tspan><tspan x="16.14" y="16">a</tspan><tspan x="23.08" y="16" class="cls-18">r</tspan><tspan x="27.79" y="16">e published </tspan><tspan x="-1.44" y="32">th</tspan><tspan x="10.51" y="32" class="cls-18">r</tspan><tspan x="15.22" y="32">ough </tspan><tspan x="47.2" y="32" class="cls-24">t</tspan><tspan x="51.71" y="32">o the ho</tspan><tspan x="98.87" y="32" class="cls-61">s</tspan><tspan x="105.11" y="32">t, </tspan><tspan x="-6.83" y="48" class="cls-18">r</tspan><tspan x="-2.13" y="48">emo</tspan><tspan x="23.64" y="48" class="cls-24">t</tspan><tspan x="28.15" y="48">e machines can </tspan><tspan x="-11.41" y="64">a</tspan><tspan x="-4.47" y="64" class="cls-19">cc</tspan><tspan x="8.46" y="64" class="cls-23">e</tspan><tspan x="15.59" y="64" class="cls-19">s</tspan><tspan x="21.85" y="64">s these machines </tspan><tspan x="20.95" y="80">(</tspan><tspan x="25.3" y="80" class="cls-18">w</tspan><tspan x="35.22" y="80">eb se</tspan><tspan x="66.44" y="80" class="cls-60">r</tspan><tspan x="71.34" y="80" class="cls-22">v</tspan><tspan x="77.63" y="80">er)</tspan></text><line x1="704.11" x2="838.04" y1="121.75" y2="121.75" class="cls-15"/><polygon points="705.42 126.24 697.65 121.75 705.42 117.27 705.42 126.24" class="cls-14"/><polygon points="836.73 126.24 844.5 121.75 836.73 117.27 836.73 126.24" class="cls-14"/><line x1="178.94" x2="235.77" y1="251.62" y2="215.63" class="cls-15"/><polygon points="182.45 254.71 173.49 255.08 177.65 247.13 182.45 254.71" class="cls-14"/><polygon points="237.06 220.12 241.22 212.17 232.25 212.54 237.06 220.12" class="cls-14"/><rect width="179.28" height="48.6" x="18.6" y="109.01" class="cls-1" rx="20.55" ry="20.55"/><text class="cls-3" transform="translate(40.83 130.69)">Other non-priviled<tspan x="114.99" y="0" class="cls-9">g</tspan><tspan x="122.3" y="0">ed</tspan><tspan x="20.55" y="16">local p</tspan><tspan x="61.95" y="16" class="cls-62">r</tspan><tspan x="67.02" y="16">o</tspan><tspan x="74.86" y="16" class="cls-9">c</tspan><tspan x="81.81" y="16" class="cls-51">e</tspan><tspan x="89.5" y="16" class="cls-53">s</tspan><tspan x="96.23" y="16">ses</tspan></text><text class="cls-2" transform="translate(201.53 190.54)">X</text><line x1="458.66" x2="480.25" y1="360.94" y2="208.73" class="cls-63"/><line x1="726.72" x2="797.58" y1="244.01" y2="271.47" class="cls-15"/><polygon points="726.32 248.67 720.69 241.68 729.56 240.3 726.32 248.67" class="cls-14"/><polygon points="794.74 275.18 803.61 273.8 797.98 266.81 794.74 275.18" class="cls-14"/></svg>