<svg xmlns="http://www.w3.org/2000/svg" xmlns:xlink="http://www.w3.org/1999/xlink" width="514" height="235" version="1.1" viewBox="0 0 514 235"><title>edge_server_data_center</title><desc>Created with Sketch.</desc><g id="Page-1" fill="none" fill-rule="evenodd" stroke="none" stroke-width="1"><g id="edge_server_data_center" transform="translate(0.000000, -4.000000)"><rect id="Rectangle" width="225" height="207" x="288.5" y="31.05" stroke="#A4A4A4"/><rect id="Rectangle" width="225" height="207" x=".5" y="31.05" stroke="#A4A4A4"/><rect id="Rectangle" width="189" height="27" x="18.5" y="49.05" stroke="#6EA6FF"/><rect id="Rectangle" width="189" height="27" x="19.5" y="94.05" stroke="#BB8EFF"/><rect id="Rectangle" width="189" height="27" x="19.5" y="139.05" stroke="#BB8EFF"/><rect id="Rectangle" width="189" height="27" x="19.5" y="184.05" stroke="#BB8EFF"/><rect id="Rectangle" width="189" height="27" x="306.5" y="50.05" stroke="#6EA6FF"/><rect id="Rectangle" width="189" height="27" x="307.5" y="94.05" stroke="#BB8EFF"/><polyline id="Path" stroke="#A4A4A4" points="496.5 145.55 496.5 148.05 494 148.05"/><line id="Path" x1="489.03" x2="312.49" y1="148.05" y2="148.05" stroke="#A4A4A4" stroke-dasharray="4.97"/><polyline id="Path" stroke="#A4A4A4" points="310 148.05 307.5 148.05 307.5 145.55"/><line id="Path" x1="307.5" x2="307.5" y1="141.15" y2="125.75" stroke="#A4A4A4" stroke-dasharray="4.4"/><polyline id="Path" stroke="#A4A4A4" points="307.5 123.55 307.5 121.05 310 121.05"/><line id="Path" x1="314.97" x2="491.51" y1="121.05" y2="121.05" stroke="#A4A4A4" stroke-dasharray="4.97"/><polyline id="Path" stroke="#A4A4A4" points="494 121.05 496.5 121.05 496.5 123.55"/><line id="Path" x1="496.5" x2="496.5" y1="127.95" y2="143.35" stroke="#A4A4A4" stroke-dasharray="4.4"/><rect id="Rectangle" width="189" height="27" x="307.5" y="166.05" stroke="#BB8EFF"/><polyline id="Path" stroke="#A4A4A4" points="496.5 217.55 496.5 220.05 494 220.05"/><line id="Path" x1="489.03" x2="312.49" y1="220.05" y2="220.05" stroke="#A4A4A4" stroke-dasharray="4.97"/><polyline id="Path" stroke="#A4A4A4" points="310 220.05 307.5 220.05 307.5 217.55"/><line id="Path" x1="307.5" x2="307.5" y1="213.15" y2="197.75" stroke="#A4A4A4" stroke-dasharray="4.4"/><polyline id="Path" stroke="#A4A4A4" points="307.5 195.55 307.5 193.05 310 193.05"/><line id="Path" x1="314.97" x2="491.51" y1="193.05" y2="193.05" stroke="#A4A4A4" stroke-dasharray="4.97"/><polyline id="Path" stroke="#A4A4A4" points="494 193.05 496.5 193.05 496.5 195.55"/><line id="Path" x1="496.5" x2="496.5" y1="199.95" y2="215.35" stroke="#A4A4A4" stroke-dasharray="4.4"/><g id="Group" fill="#000" font-family="IBMPlexSans, IBM Plex Sans" font-size="14" font-weight="normal" transform="translate(28.000000, 0.910000)"><text id="R"><tspan x="0" y="14">R</tspan></text><text id="emo"><tspan x="8.75" y="14">emo</tspan></text><text id="t"><tspan x="36.5" y="14">t</tspan></text><text id="e-ope"><tspan x="41.36" y="14">e ope</tspan></text><text id="r"><tspan x="75.99" y="14">r</tspan></text><text id="ations"><tspan x="81.07" y="14">ations</tspan></text><text id="c"><tspan x="122.88" y="14">c</tspan></text><text id="en"><tspan x="129.83" y="14">en</tspan></text><text id="t"><tspan x="145.47" y="14">t</tspan></text><text id="er"><tspan x="150.33" y="14">er</tspan></text></g><text id="Central-data-center" fill="#000" font-family="IBMPlexSans, IBM Plex Sans" font-size="14" font-weight="normal"><tspan x="343.258" y="15">Central data center</tspan></text><text id="Applications,-indust" fill="#000" font-family="IBMPlexSans, IBM Plex Sans" font-size="12" font-weight="normal"><tspan x="29.454" y="67">Applications, industry solutions</tspan></text><text id="Gateway,-servers" fill="#000" font-family="IBMPlexSans, IBM Plex Sans" font-size="12" font-weight="normal"><tspan x="67.04" y="112">Gateway, servers</tspan></text><text id="OpenShift速-Container" fill="#000" font-family="IBMPlexSans, IBM Plex Sans" font-size="12" font-weight="normal"><tspan x="22" y="157">OpenShift速 Container Platform 4.2</tspan></text><text id="Linux" fill="#000" font-family="IBMPlexSans, IBM Plex Sans" font-size="12" font-weight="normal"><tspan x="91" y="202.43">Linux</tspan></text><text id="OpenShift速-Container" fill="#000" font-family="IBMPlexSans, IBM Plex Sans" font-size="12" font-weight="normal"><tspan x="309.154" y="185">OpenShift速 Container Platform 4.2</tspan></text><text id="Management-Hub" fill="#000" font-family="IBMPlexSans, IBM Plex Sans" font-size="12" font-weight="normal"><tspan x="353.794" y="112">Management Hub</tspan></text><text id="Cloud-workload-autom" fill="#000" font-family="IBMPlexSans, IBM Plex Sans" font-size="12" font-weight="normal"><tspan x="329.214" y="140">Cloud workload automation</tspan></text><text id="Applications,-indust" fill="#000" font-family="IBMPlexSans, IBM Plex Sans" font-size="12" font-weight="normal"><tspan x="317.954" y="67">Applications, industry solutions</tspan></text><text id="Cloud-infrastructure" fill="#000" font-family="IBMPlexSans, IBM Plex Sans" font-size="12" font-weight="normal"><tspan x="348.65" y="210">Cloud infrastructure</tspan></text></g></g></svg>