<svg xmlns="http://www.w3.org/2000/svg" xmlns:xlink="http://www.w3.org/1999/xlink" width="559" height="398" version="1.1" viewBox="0 0 559 398"><title>edge_server_manage_hub</title><desc>Created with Sketch.</desc><g id="Page-1" fill="none" fill-rule="evenodd" stroke="none" stroke-width="1"><g id="edge_server_manage_hub" transform="translate(-22.000000, -4.000000)"><g id="Group" fill="#000" font-family="IBMPlexSans, IBM Plex Sans" font-size="12.36" font-weight="normal" transform="translate(123.000000, 0.000000)"><text id="Edge-clusters"><tspan x="0" y="13.5">Edge clusters</tspan></text></g><text id="OpenShift速-Container" fill="#000" font-family="IBMPlexSans, IBM Plex Sans" font-size="12.36" font-weight="normal"><tspan x="41.354" y="381">OpenShift速 Container Platform 4.2 cluster</tspan> <tspan x="21.034" y="397">(Hosted separately in remote operations centers)</tspan></text><text id="OpenShift速-Container" fill="#000" font-family="IBMPlexSans, IBM Plex Sans" font-size="12.36" font-weight="normal"><tspan x="348.354" y="384">OpenShift速 Container Platform 4.2 cluster</tspan> <tspan x="379.55" y="400">(Hosted in central data center)</tspan></text><rect id="Rectangle" width="114" height="30" x="132" y="118" stroke="#6EA6FF" stroke-width="1.55"/><rect id="Rectangle" width="136" height="62" x="121" y="107" stroke="#A4A4A4" stroke-width="2.11"/><rect id="Rectangle" width="114" height="30" x="101" y="190" stroke="#6EA6FF" stroke-width="1.55"/><rect id="Rectangle" width="136" height="62" x="90" y="179" stroke="#A4A4A4" stroke-width="2.11"/><rect id="Rectangle" width="114" height="30" x="50" y="262" stroke="#6EA6FF" stroke-width="1.55"/><rect id="Rectangle" width="136" height="62" x="39" y="250" stroke="#A4A4A4" stroke-width="2.11"/><rect id="Rectangle" width="114" height="30" x="91" y="46" stroke="#6EA6FF" stroke-width="1.55"/><text id="Managed-cluster" fill="#000" font-family="IBMPlexSans, IBM Plex Sans" font-size="10.82" font-weight="normal"><tspan x="105.916" y="65">Managed-cluster</tspan></text><text id="Managed-cluster-Copy" fill="#000" font-family="IBMPlexSans, IBM Plex Sans" font-size="10.82" font-weight="normal"><tspan x="147.916" y="137">Managed-cluster</tspan></text><text id="Managed-cluster-Copy-2" fill="#000" font-family="IBMPlexSans, IBM Plex Sans" font-size="10.82" font-weight="normal"><tspan x="116.916" y="209">Managed-cluster</tspan></text><text id="Managed-cluster-Copy-3" fill="#000" font-family="IBMPlexSans, IBM Plex Sans" font-size="10.82" font-weight="normal"><tspan x="64.916" y="281">Managed-cluster</tspan></text><text id="Managed-cluster-Copy-4" fill="#000" font-family="IBMPlexSans, IBM Plex Sans" font-size="10.82" font-weight="normal"><tspan x="209.916" y="333">Managed-cluster</tspan></text><rect id="Rectangle" width="136" height="62" x="80" y="35" stroke="#A4A4A4" stroke-width="2.11"/><rect id="Rectangle" width="104" height="30" x="464" y="159" stroke="#6EA6FF" stroke-width="1.55"/><text id="Hub-cluster" fill="#000" font-family="IBMPlexSans, IBM Plex Sans" font-size="10.82" font-weight="normal"><tspan x="486.502" y="177">Hub-cluster</tspan></text><rect id="Rectangle" width="114" height="30" x="195" y="313" stroke="#6EA6FF" stroke-width="1.55"/><rect id="Rectangle" width="136" height="62" x="184" y="303" stroke="#A4A4A4" stroke-width="2.11"/><rect id="Rectangle" width="125" height="72" x="454" y="148" stroke="#A4A4A4" stroke-width="2.11"/><line id="Path" x1="215" x2="454" y1="65" y2="178" stroke="#6EA6FF" stroke-width="1.55"/><line id="Path" x1="257" x2="454" y1="137" y2="178" stroke="#6EA6FF" stroke-width="1.55"/><line id="Path" x1="226" x2="454" y1="209" y2="179" stroke="#6EA6FF" stroke-width="1.55"/><line id="Path" x1="173" x2="454" y1="282" y2="179" stroke="#6EA6FF" stroke-width="1.55"/><line id="Path" x1="319" x2="455" y1="333" y2="178" stroke="#6EA6FF" stroke-width="1.55"/><rect id="Rectangle" width="73" height="340" x="340" y="24" fill="#FFF" fill-rule="nonzero" stroke="#FFF" stroke-width="1.55"/><line id="Path" x1="339.5" x2="339.5" y1="24" y2="364" fill="#6EA6FF" fill-rule="nonzero" stroke="#6EA6FF" stroke-width="1.55"/><line id="Path" x1="412.5" x2="412.5" y1="24" y2="364" fill="#6EA6FF" fill-rule="nonzero" stroke="#6EA6FF" stroke-width="1.55"/><text id="internet-/intranet" fill="#000" font-family="IBMPlexSans, IBM Plex Sans" font-size="12.36" font-weight="normal"><tspan x="355.067" y="190">internet</tspan> <tspan x="351.334" y="206"> /intranet</tspan></text></g></g></svg>