<svg id="Layer_1" data-name="Layer 1" xmlns="http://www.w3.org/2000/svg" viewBox="0 0 651.47 413.64"><defs><style>.cls-1,.cls-3,.cls-39,.cls-43,.cls-75{fill:none;}.cls-1,.cls-66{stroke:#bc9a30;}.cls-1,.cls-3,.cls-39,.cls-43,.cls-5,.cls-66,.cls-75{stroke-miterlimit:10;}.cls-1,.cls-3,.cls-5,.cls-66,.cls-75{stroke-width:2px;}.cls-2{fill:#bc9a30;}.cls-3,.cls-5{stroke:#038571;}.cls-4{fill:#038571;}.cls-5{fill:#e2e8e6;}.cls-12,.cls-6{font-size:14px;}.cls-6{fill:#343434;}.cls-12,.cls-29,.cls-6{font-family:IBMPlexSans-Medium, IBM Plex Sans;}.cls-7{letter-spacing:-0.01em;}.cls-8{letter-spacing:-0.01em;}.cls-9{fill:#983895;}.cls-10{fill:#f2f6fc;}.cls-11{fill:#4272b8;}.cls-12,.cls-26,.cls-29{fill:#231f20;}.cls-13{letter-spacing:-0.01em;}.cls-14{letter-spacing:0em;}.cls-15{letter-spacing:-0.01em;}.cls-16{letter-spacing:0em;}.cls-17{letter-spacing:-0.01em;}.cls-18{letter-spacing:-0.01em;}.cls-19,.cls-20,.cls-21,.cls-22,.cls-23,.cls-24,.cls-25,.cls-26{font-size:11px;}.cls-19,.cls-20,.cls-21,.cls-22,.cls-23,.cls-24,.cls-25,.cls-26,.cls-34,.cls-40,.cls-48{font-family:IBMPlexSans, IBM Plex Sans;}.cls-20{letter-spacing:0.01em;}.cls-21{letter-spacing:-0.01em;}.cls-22{letter-spacing:0em;}.cls-23{letter-spacing:0em;}.cls-24{letter-spacing:0em;}.cls-25{letter-spacing:-0.01em;}.cls-27{fill:#e6e7e8;}.cls-28{fill:#58595b;}.cls-29{font-size:13px;}.cls-30{letter-spacing:-0.01em;}.cls-31{letter-spacing:0em;}.cls-32{letter-spacing:-0.01em;}.cls-33{letter-spacing:0.01em;}.cls-34{font-size:9px;}.cls-35{letter-spacing:-0.02em;}.cls-36{letter-spacing:-0.01em;}.cls-37{letter-spacing:-0.01em;}.cls-38{letter-spacing:0em;}.cls-39{stroke:#a4a4a5;stroke-width:2.11px;}.cls-40{font-size:10.82px;fill:#010101;}.cls-41{letter-spacing:-0.01em;}.cls-42{letter-spacing:0em;}.cls-43{stroke:#7aa0d4;stroke-width:1.55px;}.cls-44{letter-spacing:-0.01em;}.cls-45{letter-spacing:-0.01em;}.cls-46{letter-spacing:-0.01em;}.cls-47{letter-spacing:-0.01em;}.cls-48{font-size:12px;}.cls-49{letter-spacing:-0.01em;}.cls-50{letter-spacing:0em;}.cls-51{letter-spacing:0em;}.cls-52{letter-spacing:-0.01em;}.cls-53{letter-spacing:-0.02em;}.cls-54{letter-spacing:-0.01em;}.cls-55{letter-spacing:0.01em;}.cls-56{letter-spacing:-0.01em;}.cls-57{letter-spacing:-0.01em;}.cls-58{letter-spacing:-0.01em;}.cls-59{letter-spacing:0em;}.cls-60{letter-spacing:-0.01em;}.cls-61{letter-spacing:0.01em;}.cls-62{letter-spacing:0em;}.cls-63{letter-spacing:-0.01em;}.cls-64{letter-spacing:-0.01em;}.cls-65{letter-spacing:0em;}.cls-66{fill:#f4dd9d;}.cls-67{letter-spacing:-0.01em;}.cls-68{letter-spacing:-0.01em;}.cls-69{letter-spacing:-0.01em;}.cls-70{letter-spacing:0em;}.cls-71{letter-spacing:-0.01em;}.cls-72{letter-spacing:-0.03em;}.cls-73{letter-spacing:0.01em;}.cls-74{letter-spacing:-0.01em;}.cls-75{stroke:#fbb040;}.cls-76{fill:#fbb040;}</style></defs><title>horizonized</title><line class="cls-1" x1="505.66" y1="174.53" x2="505.66" y2="321.76"/><polygon class="cls-2" points="501.17 320.45 505.66 328.22 510.14 320.45 501.17 320.45"/><line class="cls-3" x1="175.76" y1="357.26" x2="216.81" y2="357.26"/><polygon class="cls-4" points="215.49 361.75 223.26 357.26 215.49 352.77 215.49 361.75"/><line class="cls-3" x1="157.44" y1="151.45" x2="222.27" y2="219.28"/><polygon class="cls-4" points="218.12 221.43 226.73 223.95 224.6 215.23 218.12 221.43"/><line class="cls-3" x1="102.5" y1="175.13" x2="102.5" y2="217.49"/><polygon class="cls-4" points="98.02 216.18 102.5 223.95 106.99 216.18 98.02 216.18"/><line class="cls-3" x1="102.5" y1="272.42" x2="102.5" y2="321.76"/><polygon class="cls-4" points="98.02 320.45 102.5 328.22 106.99 320.45 98.02 320.45"/><rect class="cls-5" x="237.36" y="343.68" width="116.32" height="27"/><text class="cls-6" transform="translate(274.96 113.64) scale(1.04 1)">D<tspan class="cls-7" x="9.56" y="0">e</tspan><tspan class="cls-8" x="17.22" y="0">v</tspan><tspan x="24.28" y="0">eloper</tspan></text><path class="cls-9" d="M308.84,39.59c9.82,0,17.8,7.7,17.8,17.17s-8,17.17-17.8,17.17-17.79-7.7-17.79-17.17,8-17.17,17.79-17.17m0-3c-11.53,0-20.89,9-20.89,20.16s9.36,20.16,20.89,20.16,20.9-9,20.9-20.16-9.36-20.16-20.9-20.16Z"/><path class="cls-9" d="M291.4,81.4h34.89a5,5,0,0,1,5,5v9.93a0,0,0,0,1,0,0H286.4a0,0,0,0,1,0,0V86.4A5,5,0,0,1,291.4,81.4Z"/><line class="cls-3" x1="277.69" y1="70.05" x2="191.8" y2="70.05"/><polygon class="cls-4" points="193.11 65.56 185.34 70.05 193.11 74.53 193.11 65.56"/><path class="cls-10" d="M205,228.61H423.55a19.54,19.54,0,0,1,19.54,19.54v7.51a19.55,19.55,0,0,1-19.55,19.55H205a19.54,19.54,0,0,1-19.54-19.54v-7.51A19.54,19.54,0,0,1,205,228.61Z"/><path class="cls-11" d="M423.55,229.61a18.57,18.57,0,0,1,18.55,18.55v7.51a18.57,18.57,0,0,1-18.55,18.55H205a18.57,18.57,0,0,1-18.55-18.55v-7.51A18.57,18.57,0,0,1,205,229.61H423.55m0-2H205a20.55,20.55,0,0,0-20.55,20.55v7.51A20.55,20.55,0,0,0,205,276.22H423.55a20.55,20.55,0,0,0,20.55-20.55v-7.51a20.55,20.55,0,0,0-20.55-20.55Z"/><text class="cls-12" transform="translate(201.82 248.71) scale(1.05 1)">IBM <tspan class="cls-13" x="29.75" y="0">E</tspan><tspan class="cls-14" x="37.91" y="0">d</tspan><tspan class="cls-15" x="46.2" y="0">g</tspan><tspan x="53.63" y="0">e Computing </tspan><tspan class="cls-16" x="138.01" y="0">f</tspan><tspan class="cls-14" x="142.71" y="0">or D</tspan><tspan class="cls-17" x="168.84" y="0">e</tspan><tspan x="176.5" y="0">vi</tspan><tspan class="cls-18" x="187.37" y="0">c</tspan><tspan x="194.43" y="0">es</tspan><tspan x="18.66" y="12.96"> </tspan><tspan class="cls-19" x="21.97" y="12.96">(Cloud se</tspan><tspan class="cls-20" x="68.26" y="12.96">r</tspan><tspan class="cls-19" x="72.4" y="12.96">vi</tspan><tspan class="cls-21" x="80.56" y="12.96">c</tspan><tspan class="cls-19" x="86.03" y="12.96">es </tspan><tspan class="cls-22" x="100.02" y="12.96">t</tspan><tspan class="cls-19" x="103.84" y="12.96">o suppo</tspan><tspan class="cls-23" x="143.12" y="12.96">r</tspan><tspan class="cls-24" x="147.2" y="12.96">t a</tspan><tspan class="cls-25" x="159.53" y="12.96">g</tspan><tspan class="cls-24" x="165.27" y="12.96">ents)</tspan></text><text class="cls-26" transform="translate(207.74 64.9)">Code for edge</text><line class="cls-1" x1="339.7" y1="70.05" x2="425.58" y2="70.05"/><polygon class="cls-2" points="424.27 74.53 432.04 70.05 424.27 65.56 424.27 74.53"/><text class="cls-26" transform="translate(341.23 64.9)">Code for cloud</text><path class="cls-27" d="M42.7,228.61h98.55a19.55,19.55,0,0,1,19.55,19.55v7.51a19.54,19.54,0,0,1-19.54,19.54H42.7a19.54,19.54,0,0,1-19.54-19.54v-7.52A19.54,19.54,0,0,1,42.7,228.61Z"/><path class="cls-28" d="M141.25,229.61a18.57,18.57,0,0,1,18.54,18.55v7.51a18.57,18.57,0,0,1-18.54,18.55H42.7a18.57,18.57,0,0,1-18.55-18.55v-7.51A18.57,18.57,0,0,1,42.7,229.61h98.55m0-2H42.7a20.55,20.55,0,0,0-20.55,20.55v7.51A20.55,20.55,0,0,0,42.7,276.22h98.55a20.55,20.55,0,0,0,20.54-20.55v-7.51a20.55,20.55,0,0,0-20.54-20.55Z"/><text class="cls-29" transform="translate(67.13 248.71) scale(1.05 1)"><tspan class="cls-30">R</tspan><tspan class="cls-31" x="8.32" y="0">egi</tspan><tspan class="cls-32" x="25.97" y="0">s</tspan><tspan x="32.3" y="0">t</tspan><tspan class="cls-33" x="37.05" y="0">r</tspan><tspan x="42.15" y="0">y </tspan><tspan class="cls-34"><tspan x="-21.06" y="12.96">(Doc</tspan><tspan class="cls-35" x="-2.44" y="12.96">k</tspan><tspan x="2.15" y="12.96">er Hub or </tspan><tspan class="cls-36" x="41.81" y="12.96">P</tspan><tspan x="47.17" y="12.96">ri</tspan><tspan class="cls-37" x="52.72" y="12.96">v</tspan><tspan x="57.07" y="12.96">a</tspan><tspan class="cls-38" x="61.88" y="12.96">t</tspan><tspan x="65" y="12.96">e)</tspan></tspan></text><rect class="cls-39" x="34" y="334.76" width="341.85" height="44.84"/><text class="cls-40" transform="translate(94.41 359.88)">A<tspan class="cls-41" x="6.93" y="0">g</tspan><tspan class="cls-42" x="12.58" y="0">ent</tspan></text><polygon class="cls-43" points="175.39 370.76 42.87 370.76 42.9 343.76 175.39 343.76 175.39 370.76"/><text class="cls-40" transform="translate(36.29 328.22)"><tspan class="cls-44">E</tspan><tspan class="cls-42" x="6.2" y="0">d</tspan><tspan class="cls-41" x="12.47" y="0">g</tspan><tspan x="18.12" y="0">e node</tspan></text><path class="cls-5" d="M44.5,54.53V158.82c33.75,70.39,58,0,116,0V54.53Z"/><text class="cls-12" transform="translate(57.82 71.11)">D<tspan class="cls-45" x="9.56" y="0">e</tspan><tspan class="cls-46" x="17.22" y="0">v</tspan><tspan x="24.28" y="0">eloper </tspan><tspan x="0" y="16.8">ed</tspan><tspan class="cls-47" x="16.07" y="16.8">g</tspan><tspan x="23.51" y="16.8">e </tspan><tspan class="cls-47" x="34.59" y="16.8">c</tspan><tspan x="41.65" y="16.8">ode</tspan><tspan class="cls-48"><tspan x="0" y="45.6">(A</tspan><tspan class="cls-49" x="11.71" y="45.6">n</tspan><tspan class="cls-50" x="18.43" y="45.6">y lan</tspan><tspan class="cls-51" x="43.74" y="45.6">g</tspan><tspan x="50.03" y="45.6">ua</tspan><tspan class="cls-52" x="63.25" y="45.6">g</tspan><tspan class="cls-53" x="69.52" y="45.6">e</tspan><tspan x="75.86" y="45.6">, </tspan><tspan class="cls-52" x="0" y="60">c</tspan><tspan x="5.96" y="60">ontaineri</tspan><tspan class="cls-54" x="53.93" y="60">z</tspan><tspan x="59.38" y="60">ed, </tspan><tspan x="0" y="74.4">c</tspan><tspan class="cls-55" x="6.04" y="74.4">r</tspan><tspan x="10.56" y="74.4">y</tspan><tspan class="cls-56" x="16.55" y="74.4">p</tspan><tspan class="cls-51" x="23.44" y="74.4">t</tspan><tspan x="27.6" y="74.4">og</tspan><tspan class="cls-51" x="40.66" y="74.4">r</tspan><tspan x="45.01" y="74.4">aphica</tspan><tspan class="cls-57" x="80.64" y="74.4">l</tspan><tspan class="cls-58" x="83.84" y="74.4">l</tspan><tspan class="cls-59" x="86.99" y="74.4">y </tspan><tspan x="0" y="88.8">self-signed)</tspan></tspan></text><text class="cls-26" transform="translate(106.83 192.76)">Push <tspan class="cls-60" x="0" y="13.2">c</tspan><tspan x="5.47" y="13.2">ontainers</tspan></text><text class="cls-26" transform="translate(198.34 157.45)">Sign and publish <tspan x="0" y="13.2">se</tspan><tspan class="cls-61" x="11.4" y="13.2">r</tspan><tspan x="15.54" y="13.2">vi</tspan><tspan class="cls-60" x="23.71" y="13.2">c</tspan><tspan x="29.17" y="13.2">e</tspan><tspan class="cls-62" x="35.21" y="13.2">s</tspan><tspan x="40.51" y="13.2">, depl</tspan><tspan class="cls-63" x="67.89" y="13.2">o</tspan><tspan x="74" y="13.2">yment </tspan><tspan x="0" y="26.4">pa</tspan><tspan class="cls-64" x="12.25" y="26.4">t</tspan><tspan class="cls-65" x="16.02" y="26.4">t</tspan><tspan x="19.83" y="26.4">erns</tspan></text><text class="cls-26" transform="translate(79.64 290.36)">Pu<tspan class="cls-62" x="12.91" y="0">l</tspan><tspan x="15.85" y="0">l </tspan><tspan class="cls-60" x="-33.2" y="13.2">c</tspan><tspan x="-27.73" y="13.2">ontainers</tspan></text><path class="cls-66" d="M456.88,53.65V157.94c33.75,70.39,58,0,116,0V53.65Z"/><text class="cls-12" transform="translate(465.88 72.24)">D<tspan class="cls-45" x="9.56" y="0">e</tspan><tspan class="cls-46" x="17.22" y="0">v</tspan><tspan x="24.28" y="0">eloper </tspan><tspan x="0" y="16.8">cloud </tspan><tspan class="cls-47" x="38.74" y="16.8">c</tspan><tspan x="45.79" y="16.8">ode</tspan><tspan class="cls-48"><tspan x="0" y="45.6">(Cloud machines </tspan><tspan x="0" y="60">can also be Hori</tspan><tspan x="86.15" y="60">-</tspan><tspan class="cls-54" x="0" y="74.4">z</tspan><tspan x="5.45" y="74.4">on ed</tspan><tspan class="cls-52" x="35.36" y="74.4">g</tspan><tspan x="41.63" y="74.4">e nodes)</tspan></tspan></text><text class="cls-26" transform="translate(514.42 195.48)"><tspan class="cls-67">P</tspan><tspan class="cls-63" x="6.56" y="0">r</tspan><tspan class="cls-68" x="10.54" y="0">o</tspan><tspan x="16.61" y="0">vision cloud </tspan><tspan class="cls-62" x="0" y="13.2">r</tspan><tspan x="3.98" y="13.2">esou</tspan><tspan class="cls-63" x="27.79" y="13.2">r</tspan><tspan class="cls-60" x="31.77" y="13.2">c</tspan><tspan x="37.24" y="13.2">e</tspan><tspan class="cls-62" x="43.27" y="13.2">s</tspan><tspan x="48.58" y="13.2">, in</tspan><tspan class="cls-69" x="63.16" y="13.2">s</tspan><tspan x="68.44" y="13.2">ta</tspan><tspan class="cls-62" x="78.18" y="13.2">l</tspan><tspan class="cls-61" x="81.11" y="13.2">l</tspan><tspan x="84.22" y="13.2">, </tspan><tspan x="0" y="26.4">and moni</tspan><tspan class="cls-70" x="45.86" y="26.4">t</tspan><tspan x="49.68" y="26.4">or cloud </tspan><tspan x="0" y="39.6">s</tspan><tspan class="cls-60" x="5.36" y="39.6">o</tspan><tspan x="11.45" y="39.6">ft</tspan><tspan class="cls-71" x="18.88" y="39.6">w</tspan><tspan x="27.22" y="39.6">a</tspan><tspan class="cls-62" x="33.1" y="39.6">r</tspan><tspan x="37.08" y="39.6">e</tspan></text><line class="cls-3" x1="193.76" y1="272.42" x2="149" y2="324.79"/><polygon class="cls-4" points="146.44 320.88 144.8 329.7 153.26 326.71 146.44 320.88"/><text class="cls-26" transform="translate(137.09 290.36)"><tspan class="cls-72">V</tspan><tspan x="6.37" y="0">eri</tspan><tspan class="cls-61" x="19.19" y="0">f</tspan><tspan x="22.87" y="0">y </tspan><tspan x="-23.17" y="13.2">signatu</tspan><tspan class="cls-62" x="12.98" y="13.2">r</tspan><tspan x="16.96" y="13.2">es</tspan></text><text class="cls-40" transform="translate(188.65 353.25)">Run</text><text class="cls-40" transform="translate(262.11 359.88)"><tspan class="cls-44">E</tspan><tspan class="cls-42" x="6.2" y="0">d</tspan><tspan class="cls-41" x="12.47" y="0">g</tspan><tspan x="18.12" y="0">e se</tspan><tspan class="cls-73" x="37.82" y="0">r</tspan><tspan x="41.9" y="0">vi</tspan><tspan class="cls-74" x="49.93" y="0">c</tspan><tspan x="55.31" y="0">es</tspan></text><rect class="cls-66" x="450.82" y="339.75" width="116.32" height="27"/><text class="cls-40" transform="translate(475.57 357.18)">Cloud se<tspan class="cls-73" x="41.9" y="0">r</tspan><tspan x="45.98" y="0">vi</tspan><tspan class="cls-74" x="54.01" y="0">c</tspan><tspan x="59.38" y="0">es</tspan></text><text class="cls-40" transform="translate(393.33 370.76)"><tspan class="cls-44">P</tspan><tspan x="6.45" y="0">aths</tspan></text><text class="cls-40" transform="translate(393.33 353.25)">Data</text><line class="cls-10" x1="359.75" y1="357.18" x2="444.1" y2="357.26"/><line class="cls-75" x1="366.21" y1="357.18" x2="437.64" y2="357.25"/><polygon class="cls-76" points="367.52 361.67 359.75 357.18 367.53 352.7 367.52 361.67"/><polygon class="cls-76" points="436.32 361.74 444.1 357.26 436.33 352.76 436.32 361.74"/></svg>