<svg id="Layer_1" data-name="Layer 1" xmlns="http://www.w3.org/2000/svg" viewBox="0 0 829.45 635.29"><defs><style>.cls-1{fill:#2f56a6;}.cls-2{fill:#f2f6fc;}.cls-3{fill:#4272b8;}.cls-4{fill:#d6bbda;stroke:#983895;}.cls-21,.cls-4,.cls-5,.cls-50,.cls-52{stroke-miterlimit:10;stroke-width:2px;}.cls-5{fill:#f4dd9d;stroke:#bc9a30;}.cls-6{font-size:14px;}.cls-22,.cls-33,.cls-6{fill:#231f20;}.cls-33,.cls-6{font-family:IBMPlexSans-Medium, IBM Plex Sans;}.cls-7{letter-spacing:-0.01em;}.cls-8{letter-spacing:0em;}.cls-9{letter-spacing:-0.01em;}.cls-10{font-size:9px;}.cls-10,.cls-22{font-family:IBMPlexSans, IBM Plex Sans;}.cls-11{letter-spacing:-0.01em;}.cls-12{letter-spacing:-0.01em;}.cls-13{letter-spacing:-0.01em;}.cls-14{letter-spacing:0em;}.cls-15{letter-spacing:0em;}.cls-16{letter-spacing:-0.01em;}.cls-17{letter-spacing:-0.01em;}.cls-18{letter-spacing:-0.01em;}.cls-19{letter-spacing:0em;}.cls-20{letter-spacing:-0.01em;}.cls-21{fill:#e2e8e6;}.cls-21,.cls-52{stroke:#038571;}.cls-22,.cls-33{font-size:11px;}.cls-23{letter-spacing:-0.01em;}.cls-24{letter-spacing:0em;}.cls-25{letter-spacing:0em;}.cls-26{letter-spacing:-0.01em;}.cls-27{letter-spacing:-0.01em;}.cls-28{letter-spacing:-0.01em;}.cls-29{letter-spacing:-0.01em;}.cls-30{letter-spacing:-0.02em;}.cls-31{letter-spacing:-0.01em;}.cls-32{letter-spacing:0em;}.cls-34{letter-spacing:-0.01em;}.cls-35{letter-spacing:0em;}.cls-36{letter-spacing:-0.01em;}.cls-37{letter-spacing:0.01em;}.cls-38{letter-spacing:-0.03em;}.cls-39{letter-spacing:0.01em;}.cls-40{letter-spacing:0.01em;}.cls-41{letter-spacing:-0.01em;}.cls-42{letter-spacing:0em;}.cls-43{letter-spacing:-0.01em;}.cls-44{letter-spacing:0em;}.cls-45{letter-spacing:-0.02em;}.cls-46{letter-spacing:0em;}.cls-47{letter-spacing:-0.01em;}.cls-48{letter-spacing:0em;}.cls-49{letter-spacing:-0.01em;}.cls-50,.cls-52{fill:none;}.cls-50{stroke:#4272b8;}.cls-51{letter-spacing:-0.01em;}.cls-53{fill:#038571;}.cls-54{letter-spacing:-0.01em;}.cls-55{letter-spacing:0em;}.cls-56{letter-spacing:0em;}</style></defs><title>registration</title><path class="cls-1" d="M104.25,95.65c21.29,0,38.6,16.7,38.6,37.23s-17.31,37.24-38.6,37.24-38.59-16.7-38.59-37.24S83,95.65,104.25,95.65m0-6.48c-25,0-45.31,19.57-45.31,43.71s20.29,43.72,45.31,43.72,45.31-19.57,45.31-43.72-20.28-43.71-45.31-43.71Z"/><path class="cls-1" d="M60.59,186.31h87.34a5,5,0,0,1,5,5v27.38a0,0,0,0,1,0,0H55.59a0,0,0,0,1,0,0V191.31A5,5,0,0,1,60.59,186.31Z"/><path class="cls-2" d="M279.7,23h386a19.55,19.55,0,0,1,19.55,19.55V317.6a19.54,19.54,0,0,1-19.54,19.54h-386a19.54,19.54,0,0,1-19.54-19.54V42.54A19.54,19.54,0,0,1,279.7,23Z"/><path class="cls-3" d="M665.69,24a18.57,18.57,0,0,1,18.55,18.55v275a18.57,18.57,0,0,1-18.55,18.55h-386a18.57,18.57,0,0,1-18.54-18.55v-275A18.57,18.57,0,0,1,279.7,24h386m0-2h-386a20.55,20.55,0,0,0-20.54,20.55v275a20.55,20.55,0,0,0,20.54,20.55h386a20.55,20.55,0,0,0,20.55-20.55v-275A20.55,20.55,0,0,0,665.69,22Z"/><rect class="cls-4" x="465.4" y="512.62" width="276.32" height="76.27" rx="20.55" ry="20.55"/><rect class="cls-5" x="449.19" y="224.71" width="189.96" height="76.27" rx="20.55" ry="20.55"/><text class="cls-6" transform="translate(489.93 259.84) scale(1.05 1)">Hori<tspan class="cls-7" x="26.96" y="0">z</tspan><tspan class="cls-8" x="33.63" y="0">on A</tspan><tspan class="cls-9" x="62.22" y="0">g</tspan><tspan x="69.65" y="0">ent</tspan><tspan class="cls-10"><tspan x="6.55" y="12.96">(on this ed</tspan><tspan class="cls-11" x="49.03" y="12.96">g</tspan><tspan x="53.72" y="12.96">e node)</tspan></tspan></text><path class="cls-2" d="M279.7,382.74H439.78a19.55,19.55,0,0,1,19.55,19.55v54.21A19.55,19.55,0,0,1,439.78,476H279.7a19.54,19.54,0,0,1-19.54-19.54V402.28A19.55,19.55,0,0,1,279.7,382.74Z"/><path class="cls-3" d="M439.78,383.74a18.55,18.55,0,0,1,18.54,18.54v54.21A18.56,18.56,0,0,1,439.78,475H279.7a18.56,18.56,0,0,1-18.54-18.54V402.28a18.56,18.56,0,0,1,18.54-18.54H439.78m0-2H279.7a20.54,20.54,0,0,0-20.54,20.54v54.21A20.55,20.55,0,0,0,279.7,477H439.78a20.54,20.54,0,0,0,20.54-20.54V402.28a20.53,20.53,0,0,0-20.54-20.54Z"/><text class="cls-6" transform="translate(482.11 50.24)"><tspan class="cls-12">E</tspan><tspan x="8.16" y="0">d</tspan><tspan class="cls-13" x="16.45" y="0">g</tspan><tspan x="23.88" y="0">e node</tspan></text><text class="cls-6" transform="translate(541.83 543.82) scale(1.05 1)">Hori<tspan class="cls-7" x="26.96" y="0">z</tspan><tspan class="cls-8" x="33.63" y="0">on AgB</tspan><tspan class="cls-14" x="78.96" y="0">o</tspan><tspan x="86.81" y="0">t(s)</tspan><tspan class="cls-10"><tspan x="-4.12" y="12.96">(</tspan><tspan class="cls-15" x="-1.11" y="12.96">f</tspan><tspan x="1.77" y="12.96">or this depl</tspan><tspan class="cls-16" x="47.09" y="12.96">o</tspan><tspan x="52.09" y="12.96">yment pa</tspan><tspan class="cls-17" x="89.8" y="12.96">t</tspan><tspan class="cls-15" x="92.88" y="12.96">t</tspan><tspan x="96" y="12.96">ern)</tspan></tspan></text><text class="cls-6" transform="translate(299.4 424.19) scale(1.05 1)">Hori<tspan class="cls-7" x="26.96" y="0">z</tspan><tspan class="cls-8" x="33.63" y="0">on E</tspan><tspan class="cls-18" x="61.25" y="0">x</tspan><tspan x="68.47" y="0">chan</tspan><tspan class="cls-9" x="99.54" y="0">g</tspan><tspan x="106.97" y="0">e</tspan><tspan class="cls-10"><tspan x="20.39" y="12.96">(and Swi</tspan><tspan class="cls-19" x="55.06" y="12.96">t</tspan><tspan x="58.18" y="12.96">chboa</tspan><tspan class="cls-20" x="82.88" y="12.96">r</tspan><tspan x="86.13" y="12.96">d)</tspan></tspan></text><rect class="cls-21" x="282.25" y="259.84" width="130.51" height="52.12"/><text class="cls-22" transform="translate(609.84 453.48)">When an a<tspan class="cls-23" x="51.52" y="0">g</tspan><tspan x="57.27" y="0">ent </tspan><tspan class="cls-24" x="76.01" y="0">f</tspan><tspan x="79.53" y="0">orms an ag</tspan><tspan class="cls-25" x="133.68" y="0">r</tspan><tspan x="137.66" y="0">eement, </tspan><tspan x="0" y="13.2">the AgBot sends details about the </tspan><tspan x="0" y="26.4">depl</tspan><tspan class="cls-25" x="21.79" y="26.4">o</tspan><tspan x="27.9" y="26.4">yment pa</tspan><tspan class="cls-26" x="73.98" y="26.4">t</tspan><tspan class="cls-24" x="77.75" y="26.4">t</tspan><tspan x="81.56" y="26.4">ern f</tspan><tspan class="cls-27" x="104.05" y="26.4">r</tspan><tspan x="108.03" y="26.4">om </tspan><tspan class="cls-24" x="126.39" y="26.4">f</tspan><tspan x="129.91" y="26.4">ormal </tspan><tspan x="0" y="39.6">ag</tspan><tspan class="cls-25" x="11.68" y="39.6">r</tspan><tspan x="15.66" y="39.6">eement </tspan><tspan class="cls-24" x="56.09" y="39.6">t</tspan><tspan x="59.91" y="39.6">o p</tspan><tspan class="cls-25" x="75.04" y="39.6">r</tspan><tspan x="79.02" y="39.6">o</tspan><tspan class="cls-28" x="85.18" y="39.6">c</tspan><tspan x="90.65" y="39.6">eed</tspan></text><text class="cls-22" transform="translate(300.39 536.08)">Sea<tspan class="cls-25" x="18.3" y="0">r</tspan><tspan x="22.29" y="0">ching </tspan><tspan class="cls-24" x="51.47" y="0">f</tspan><tspan x="54.99" y="0">or ed</tspan><tspan class="cls-28" x="80.2" y="0">g</tspan><tspan x="85.94" y="0">e node</tspan><tspan class="cls-25" x="119.4" y="0">s</tspan><tspan x="124.71" y="0">,</tspan><tspan x="-19.34" y="13.2">sending p</tspan><tspan class="cls-25" x="28.47" y="13.2">r</tspan><tspan x="32.45" y="13.2">oposals and po</tspan><tspan class="cls-25" x="106.96" y="13.2">l</tspan><tspan x="109.9" y="13.2">ling </tspan><tspan class="cls-24" x="49.38" y="26.4">f</tspan><tspan x="52.9" y="26.4">or a</tspan><tspan class="cls-28" x="71.56" y="26.4">cc</tspan><tspan x="82.5" y="26.4">e</tspan><tspan class="cls-28" x="88.54" y="26.4">p</tspan><tspan x="94.85" y="26.4">tan</tspan><tspan class="cls-29" x="110.84" y="26.4">c</tspan><tspan x="116.3" y="26.4">es</tspan></text><text class="cls-22" transform="translate(481.86 389.39)"><tspan class="cls-30">P</tspan><tspan x="6.45" y="0">o</tspan><tspan class="cls-31" x="12.61" y="0">l</tspan><tspan x="15.54" y="0">ls </tspan><tspan class="cls-24" x="26.49" y="0">f</tspan><tspan x="30.01" y="0">or p</tspan><tspan class="cls-25" x="49.18" y="0">r</tspan><tspan x="53.16" y="0">oposals</tspan><tspan x="0" y="13.2">(f</tspan><tspan class="cls-25" x="7.25" y="13.2">r</tspan><tspan x="11.23" y="13.2">om the AgBots) and </tspan><tspan x="0" y="26.4">sends a</tspan><tspan class="cls-23" x="37.85" y="26.4">cc</tspan><tspan x="48.78" y="26.4">e</tspan><tspan class="cls-23" x="54.82" y="26.4">p</tspan><tspan class="cls-32" x="61.14" y="26.4">tan</tspan><tspan class="cls-29" x="77.12" y="26.4">c</tspan><tspan x="82.59" y="26.4">es</tspan></text><text class="cls-33" transform="translate(449.19 115.33)">A<tspan class="cls-23" x="7.28" y="0">g</tspan><tspan x="13.12" y="0">ent in</tspan><tspan class="cls-34" x="41.52" y="0">s</tspan><tspan x="46.88" y="0">ta</tspan><tspan class="cls-23" x="56.94" y="0">l</tspan><tspan x="60" y="0">ls and runs:</tspan><tspan x="0" y="13.2">- Pu</tspan><tspan class="cls-23" x="20.28" y="13.2">l</tspan><tspan x="23.35" y="13.2">l </tspan><tspan class="cls-23" x="29.08" y="13.2">c</tspan><tspan x="34.63" y="13.2">ontainers f</tspan><tspan class="cls-25" x="88.66" y="13.2">r</tspan><tspan x="92.82" y="13.2">om </tspan><tspan class="cls-25" x="111.32" y="13.2">r</tspan><tspan class="cls-35" x="115.48" y="13.2">egi</tspan><tspan class="cls-36" x="130.41" y="13.2">s</tspan><tspan x="135.77" y="13.2">t</tspan><tspan class="cls-37" x="139.79" y="13.2">r</tspan><tspan x="144.1" y="13.2">y</tspan><tspan x="0" y="26.4">- </tspan><tspan class="cls-38" x="7.01" y="26.4">V</tspan><tspan x="13.56" y="26.4">eri</tspan><tspan class="cls-39" x="26.81" y="26.4">f</tspan><tspan x="30.66" y="26.4">y c</tspan><tspan class="cls-40" x="44.52" y="26.4">r</tspan><tspan x="48.83" y="26.4">y</tspan><tspan class="cls-23" x="54.48" y="26.4">p</tspan><tspan class="cls-24" x="60.93" y="26.4">t</tspan><tspan x="64.9" y="26.4">og</tspan><tspan class="cls-41" x="77.01" y="26.4">r</tspan><tspan x="81.13" y="26.4">aphic sign</tspan><tspan class="cls-42" x="131.82" y="26.4">a</tspan><tspan x="137.83" y="26.4">tu</tspan><tspan class="cls-25" x="148.22" y="26.4">r</tspan><tspan x="152.38" y="26.4">es</tspan><tspan x="0" y="39.6">- In</tspan><tspan class="cls-43" x="17.96" y="39.6">s</tspan><tspan x="23.32" y="39.6">ta</tspan><tspan class="cls-28" x="33.37" y="39.6">l</tspan><tspan x="36.44" y="39.6">l </tspan><tspan class="cls-23" x="42.17" y="39.6">c</tspan><tspan x="47.72" y="39.6">ontainers</tspan><tspan x="0" y="52.8">- Confi</tspan><tspan class="cls-24" x="33.17" y="52.8">g</tspan><tspan x="39.04" y="52.8">u</tspan><tspan class="cls-25" x="45.42" y="52.8">r</tspan><tspan x="49.58" y="52.8">e e</tspan><tspan class="cls-41" x="64.4" y="52.8">n</tspan><tspan x="70.7" y="52.8">vi</tspan><tspan class="cls-27" x="79.24" y="52.8">r</tspan><tspan class="cls-44" x="83.4" y="52.8">onmet and net</tspan><tspan class="cls-34" x="156.45" y="52.8">w</tspan><tspan x="165.16" y="52.8">ork</tspan><tspan x="0" y="66">- Run </tspan><tspan class="cls-23" x="29.57" y="66">c</tspan><tspan x="35.11" y="66">ontainers</tspan></text><text class="cls-33" transform="translate(293.55 281.48)"><tspan class="cls-45">R</tspan><tspan x="7.04" y="0">egi</tspan><tspan class="cls-43" x="21.98" y="0">s</tspan><tspan class="cls-24" x="27.34" y="0">t</tspan><tspan x="31.31" y="0">er node </tspan><tspan class="cls-24" x="72.04" y="0">f</tspan><tspan x="75.73" y="0">or a </tspan><tspan x="0" y="13.2">depl</tspan><tspan class="cls-43" x="22.27" y="13.2">o</tspan><tspan x="28.4" y="13.2">yment p</tspan><tspan class="cls-46" x="69.38" y="13.2">a</tspan><tspan class="cls-34" x="75.38" y="13.2">t</tspan><tspan class="cls-24" x="79.32" y="13.2">t</tspan><tspan x="83.29" y="13.2">ern</tspan></text><rect class="cls-21" x="282.25" y="190.73" width="130.51" height="52.12"/><text class="cls-33" transform="translate(293.55 212.36)">In<tspan class="cls-43" x="10.96" y="0">s</tspan><tspan x="16.31" y="0">ta</tspan><tspan class="cls-28" x="26.37" y="0">l</tspan><tspan x="29.44" y="0">l </tspan><tspan x="0" y="13.2">Hori</tspan><tspan class="cls-47" x="21.19" y="13.2">z</tspan><tspan x="26.42" y="13.2">on</tspan></text><rect class="cls-21" x="282.25" y="122.47" width="130.51" height="52.12"/><text class="cls-33" transform="translate(293.55 144.11)">In<tspan class="cls-43" x="10.96" y="0">s</tspan><tspan x="16.31" y="0">ta</tspan><tspan class="cls-28" x="26.37" y="0">l</tspan><tspan x="29.44" y="0">l ho</tspan><tspan class="cls-43" x="47.75" y="0">s</tspan><tspan x="53.11" y="0">t </tspan><tspan x="0" y="13.2">ope</tspan><tspan class="cls-41" x="18.83" y="13.2">r</tspan><tspan class="cls-48" x="22.96" y="13.2">a</tspan><tspan class="cls-32" x="28.96" y="13.2">ting </tspan><tspan class="cls-49" x="50.78" y="13.2">s</tspan><tspan class="cls-23" x="56.06" y="13.2">y</tspan><tspan class="cls-34" x="61.64" y="13.2">s</tspan><tspan class="cls-24" x="67" y="13.2">t</tspan><tspan x="70.97" y="13.2">em</tspan></text><rect class="cls-21" x="282.25" y="51.41" width="130.51" height="52.12"/><line class="cls-2" x1="459.43" y1="560.08" x2="389.47" y2="482.54"/><line class="cls-50" x1="459.43" y1="560.08" x2="393.8" y2="487.34"/><polygon class="cls-3" points="398.01 485.3 389.47 482.54 391.35 491.32 398.01 485.3"/><line class="cls-2" x1="520.45" y1="311.95" x2="465.4" y2="390.53"/><line class="cls-50" x1="520.45" y1="311.95" x2="469.1" y2="385.24"/><polygon class="cls-3" points="466.18 381.59 465.4 390.53 473.53 386.74 466.18 381.59"/><text class="cls-33" transform="translate(293.55 73.05)">Confi<tspan class="cls-24" x="26.17" y="0">g</tspan><tspan x="32.03" y="0">u</tspan><tspan class="cls-25" x="38.41" y="0">r</tspan><tspan x="42.57" y="0">e</tspan><tspan x="0" y="13.2">ha</tspan><tspan class="cls-25" x="12.42" y="13.2">r</tspan><tspan x="16.58" y="13.2">d</tspan><tspan class="cls-51" x="23.09" y="13.2">w</tspan><tspan x="31.76" y="13.2">a</tspan><tspan class="cls-25" x="37.8" y="13.2">r</tspan><tspan x="41.95" y="13.2">e</tspan></text><line class="cls-52" x1="164.38" y1="152.91" x2="271.87" y2="278.37"/><polygon class="cls-53" points="267.61 280.3 276.07 283.28 274.42 274.46 267.61 280.3"/><line class="cls-52" x1="344.13" y1="317.03" x2="344.13" y2="366.63"/><polygon class="cls-53" points="339.65 365.32 344.13 373.09 348.62 365.32 339.65 365.32"/><line class="cls-52" x1="164.38" y1="152.91" x2="268.91" y2="213.54"/><polygon class="cls-53" points="265.52 216.77 274.49 216.78 270.02 209 265.52 216.77"/><line class="cls-52" x1="164.38" y1="152.91" x2="267.71" y2="143.31"/><polygon class="cls-53" points="266.81 147.9 274.14 142.72 265.98 138.97 266.81 147.9"/><text class="cls-6" transform="translate(46.55 248.92)"><tspan class="cls-12">E</tspan><tspan x="8.16" y="0">d</tspan><tspan class="cls-13" x="16.45" y="0">g</tspan><tspan x="23.88" y="0">e node </tspan><tspan class="cls-54" x="70.36" y="0">o</tspan><tspan x="78.16" y="0">wner</tspan></text><line class="cls-52" x1="163.47" y1="153.5" x2="268.7" y2="85.23"/><polygon class="cls-53" points="270.04 89.71 274.12 81.72 265.15 82.18 270.04 89.71"/><line class="cls-2" x1="604.21" y1="504.3" x2="602.9" y2="311.04"/><line class="cls-50" x1="604.21" y1="504.3" x2="602.94" y2="317.5"/><polygon class="cls-3" points="607.44 318.78 602.9 311.04 598.46 318.84 607.44 318.78"/><text class="cls-22" transform="translate(609.84 444.15)">When an a<tspan class="cls-29" x="51.52" y="0">g</tspan><tspan x="57.27" y="0">ent f</tspan><tspan class="cls-27" x="79.57" y="0">r</tspan><tspan x="83.55" y="0">oms an ag</tspan><tspan class="cls-27" x="133.67" y="0">r</tspan><tspan x="137.65" y="0">eement, the AgBot sends details about the depl</tspan><tspan class="cls-25" x="371.95" y="0">o</tspan><tspan x="378.05" y="0">yment pa</tspan><tspan class="cls-26" x="424.14" y="0">t</tspan><tspan class="cls-55" x="427.91" y="0">t</tspan><tspan x="431.72" y="0">ern f</tspan><tspan class="cls-27" x="454.21" y="0">r</tspan><tspan x="458.19" y="0">om </tspan><tspan class="cls-56" x="476.55" y="0">f</tspan><tspan x="480.07" y="0">ormal ag</tspan><tspan class="cls-27" x="523.01" y="0">r</tspan><tspan x="526.99" y="0">eement </tspan><tspan class="cls-24" x="567.42" y="0">t</tspan><tspan class="cls-35" x="571.23" y="0">o p</tspan><tspan class="cls-27" x="586.37" y="0">r</tspan><tspan x="590.35" y="0">o</tspan><tspan class="cls-28" x="596.51" y="0">c</tspan><tspan x="601.98" y="0">eed</tspan></text></svg>