<svg xmlns="http://www.w3.org/2000/svg" id="Layer_1" data-name="Layer 1" viewBox="0 0 829.45 635.29"><defs><style>.cls-1{fill:#2f56a6}.cls-2{fill:#f2f6fc}.cls-3{fill:#4272b8}.cls-4{fill:#d6bbda;stroke:#983895}.cls-21,.cls-4,.cls-5,.cls-50,.cls-52{stroke-miterlimit:10;stroke-width:2px}.cls-5{fill:#f4dd9d;stroke:#bc9a30}.cls-6{font-size:14px}.cls-22,.cls-33,.cls-6{fill:#231f20}.cls-33,.cls-6{font-family:IBMPlexSans-Medium,IBM Plex Sans}.cls-7{letter-spacing:-.01em}.cls-8{letter-spacing:0}.cls-9{letter-spacing:-.01em}.cls-10{font-size:9px}.cls-10,.cls-22{font-family:IBMPlexSans,IBM Plex Sans}.cls-11,.cls-12,.cls-13{letter-spacing:-.01em}.cls-14,.cls-15{letter-spacing:0}.cls-16,.cls-17,.cls-18{letter-spacing:-.01em}.cls-19{letter-spacing:0}.cls-20{letter-spacing:-.01em}.cls-21{fill:#e2e8e6}.cls-21,.cls-52{stroke:#038571}.cls-22,.cls-33{font-size:11px}.cls-23{letter-spacing:-.01em}.cls-24,.cls-25{letter-spacing:0}.cls-26,.cls-27,.cls-28,.cls-29{letter-spacing:-.01em}.cls-30{letter-spacing:-.02em}.cls-31{letter-spacing:-.01em}.cls-32{letter-spacing:0}.cls-34{letter-spacing:-.01em}.cls-35{letter-spacing:0}.cls-36{letter-spacing:-.01em}.cls-37{letter-spacing:.01em}.cls-38{letter-spacing:-.03em}.cls-39,.cls-40{letter-spacing:.01em}.cls-41{letter-spacing:-.01em}.cls-42{letter-spacing:0}.cls-43{letter-spacing:-.01em}.cls-44{letter-spacing:0}.cls-45{letter-spacing:-.02em}.cls-46{letter-spacing:0}.cls-47{letter-spacing:-.01em}.cls-48{letter-spacing:0}.cls-49{letter-spacing:-.01em}.cls-50,.cls-52{fill:none}.cls-50{stroke:#4272b8}.cls-51{letter-spacing:-.01em}.cls-53{fill:#038571}.cls-54{letter-spacing:-.01em}.cls-55,.cls-56{letter-spacing:0}</style></defs><title>registration</title><path d="M104.25,95.65c21.29,0,38.6,16.7,38.6,37.23s-17.31,37.24-38.6,37.24-38.59-16.7-38.59-37.24S83,95.65,104.25,95.65m0-6.48c-25,0-45.31,19.57-45.31,43.71s20.29,43.72,45.31,43.72,45.31-19.57,45.31-43.72-20.28-43.71-45.31-43.71Z" class="cls-1"/><path d="M60.59,186.31h87.34a5,5,0,0,1,5,5v27.38a0,0,0,0,1,0,0H55.59a0,0,0,0,1,0,0V191.31A5,5,0,0,1,60.59,186.31Z" class="cls-1"/><path d="M279.7,23h386a19.55,19.55,0,0,1,19.55,19.55V317.6a19.54,19.54,0,0,1-19.54,19.54h-386a19.54,19.54,0,0,1-19.54-19.54V42.54A19.54,19.54,0,0,1,279.7,23Z" class="cls-2"/><path d="M665.69,24a18.57,18.57,0,0,1,18.55,18.55v275a18.57,18.57,0,0,1-18.55,18.55h-386a18.57,18.57,0,0,1-18.54-18.55v-275A18.57,18.57,0,0,1,279.7,24h386m0-2h-386a20.55,20.55,0,0,0-20.54,20.55v275a20.55,20.55,0,0,0,20.54,20.55h386a20.55,20.55,0,0,0,20.55-20.55v-275A20.55,20.55,0,0,0,665.69,22Z" class="cls-3"/><rect width="276.32" height="76.27" x="465.4" y="512.62" class="cls-4" rx="20.55" ry="20.55"/><rect width="189.96" height="76.27" x="449.19" y="224.71" class="cls-5" rx="20.55" ry="20.55"/><text class="cls-6" transform="translate(489.93 259.84) scale(1.05 1)">Hori<tspan x="26.96" y="0" class="cls-7">z</tspan><tspan x="33.63" y="0" class="cls-8">on A</tspan><tspan x="62.22" y="0" class="cls-9">g</tspan><tspan x="69.65" y="0">ent</tspan><tspan class="cls-10"><tspan x="6.55" y="12.96">(on this ed</tspan><tspan x="49.03" y="12.96" class="cls-11">g</tspan><tspan x="53.72" y="12.96">e node)</tspan></tspan></text><path d="M279.7,382.74H439.78a19.55,19.55,0,0,1,19.55,19.55v54.21A19.55,19.55,0,0,1,439.78,476H279.7a19.54,19.54,0,0,1-19.54-19.54V402.28A19.55,19.55,0,0,1,279.7,382.74Z" class="cls-2"/><path d="M439.78,383.74a18.55,18.55,0,0,1,18.54,18.54v54.21A18.56,18.56,0,0,1,439.78,475H279.7a18.56,18.56,0,0,1-18.54-18.54V402.28a18.56,18.56,0,0,1,18.54-18.54H439.78m0-2H279.7a20.54,20.54,0,0,0-20.54,20.54v54.21A20.55,20.55,0,0,0,279.7,477H439.78a20.54,20.54,0,0,0,20.54-20.54V402.28a20.53,20.53,0,0,0-20.54-20.54Z" class="cls-3"/><text class="cls-6" transform="translate(482.11 50.24)"><tspan class="cls-12">E</tspan><tspan x="8.16" y="0">d</tspan><tspan x="16.45" y="0" class="cls-13">g</tspan><tspan x="23.88" y="0">e node</tspan></text><text class="cls-6" transform="translate(541.83 543.82) scale(1.05 1)">Hori<tspan x="26.96" y="0" class="cls-7">z</tspan><tspan x="33.63" y="0" class="cls-8">on AgB</tspan><tspan x="78.96" y="0" class="cls-14">o</tspan><tspan x="86.81" y="0">t(s)</tspan><tspan class="cls-10"><tspan x="-4.12" y="12.96">(</tspan><tspan x="-1.11" y="12.96" class="cls-15">f</tspan><tspan x="1.77" y="12.96">or this depl</tspan><tspan x="47.09" y="12.96" class="cls-16">o</tspan><tspan x="52.09" y="12.96">yment pa</tspan><tspan x="89.8" y="12.96" class="cls-17">t</tspan><tspan x="92.88" y="12.96" class="cls-15">t</tspan><tspan x="96" y="12.96">ern)</tspan></tspan></text><text class="cls-6" transform="translate(299.4 424.19) scale(1.05 1)">Hori<tspan x="26.96" y="0" class="cls-7">z</tspan><tspan x="33.63" y="0" class="cls-8">on E</tspan><tspan x="61.25" y="0" class="cls-18">x</tspan><tspan x="68.47" y="0">chan</tspan><tspan x="99.54" y="0" class="cls-9">g</tspan><tspan x="106.97" y="0">e</tspan><tspan class="cls-10"><tspan x="20.39" y="12.96">(and Swi</tspan><tspan x="55.06" y="12.96" class="cls-19">t</tspan><tspan x="58.18" y="12.96">chboa</tspan><tspan x="82.88" y="12.96" class="cls-20">r</tspan><tspan x="86.13" y="12.96">d)</tspan></tspan></text><rect width="130.51" height="52.12" x="282.25" y="259.84" class="cls-21"/><text class="cls-22" transform="translate(609.84 453.48)">When an a<tspan x="51.52" y="0" class="cls-23">g</tspan><tspan x="57.27" y="0">ent </tspan><tspan x="76.01" y="0" class="cls-24">f</tspan><tspan x="79.53" y="0">orms an ag</tspan><tspan x="133.68" y="0" class="cls-25">r</tspan><tspan x="137.66" y="0">eement, </tspan><tspan x="0" y="13.2">the AgBot sends details about the </tspan><tspan x="0" y="26.4">depl</tspan><tspan x="21.79" y="26.4" class="cls-25">o</tspan><tspan x="27.9" y="26.4">yment pa</tspan><tspan x="73.98" y="26.4" class="cls-26">t</tspan><tspan x="77.75" y="26.4" class="cls-24">t</tspan><tspan x="81.56" y="26.4">ern f</tspan><tspan x="104.05" y="26.4" class="cls-27">r</tspan><tspan x="108.03" y="26.4">om </tspan><tspan x="126.39" y="26.4" class="cls-24">f</tspan><tspan x="129.91" y="26.4">ormal </tspan><tspan x="0" y="39.6">ag</tspan><tspan x="11.68" y="39.6" class="cls-25">r</tspan><tspan x="15.66" y="39.6">eement </tspan><tspan x="56.09" y="39.6" class="cls-24">t</tspan><tspan x="59.91" y="39.6">o p</tspan><tspan x="75.04" y="39.6" class="cls-25">r</tspan><tspan x="79.02" y="39.6">o</tspan><tspan x="85.18" y="39.6" class="cls-28">c</tspan><tspan x="90.65" y="39.6">eed</tspan></text><text class="cls-22" transform="translate(300.39 536.08)">Sea<tspan x="18.3" y="0" class="cls-25">r</tspan><tspan x="22.29" y="0">ching </tspan><tspan x="51.47" y="0" class="cls-24">f</tspan><tspan x="54.99" y="0">or ed</tspan><tspan x="80.2" y="0" class="cls-28">g</tspan><tspan x="85.94" y="0">e node</tspan><tspan x="119.4" y="0" class="cls-25">s</tspan><tspan x="124.71" y="0">,</tspan><tspan x="-19.34" y="13.2">sending p</tspan><tspan x="28.47" y="13.2" class="cls-25">r</tspan><tspan x="32.45" y="13.2">oposals and po</tspan><tspan x="106.96" y="13.2" class="cls-25">l</tspan><tspan x="109.9" y="13.2">ling </tspan><tspan x="49.38" y="26.4" class="cls-24">f</tspan><tspan x="52.9" y="26.4">or a</tspan><tspan x="71.56" y="26.4" class="cls-28">cc</tspan><tspan x="82.5" y="26.4">e</tspan><tspan x="88.54" y="26.4" class="cls-28">p</tspan><tspan x="94.85" y="26.4">tan</tspan><tspan x="110.84" y="26.4" class="cls-29">c</tspan><tspan x="116.3" y="26.4">es</tspan></text><text class="cls-22" transform="translate(481.86 389.39)"><tspan class="cls-30">P</tspan><tspan x="6.45" y="0">o</tspan><tspan x="12.61" y="0" class="cls-31">l</tspan><tspan x="15.54" y="0">ls </tspan><tspan x="26.49" y="0" class="cls-24">f</tspan><tspan x="30.01" y="0">or p</tspan><tspan x="49.18" y="0" class="cls-25">r</tspan><tspan x="53.16" y="0">oposals</tspan><tspan x="0" y="13.2">(f</tspan><tspan x="7.25" y="13.2" class="cls-25">r</tspan><tspan x="11.23" y="13.2">om the AgBots) and </tspan><tspan x="0" y="26.4">sends a</tspan><tspan x="37.85" y="26.4" class="cls-23">cc</tspan><tspan x="48.78" y="26.4">e</tspan><tspan x="54.82" y="26.4" class="cls-23">p</tspan><tspan x="61.14" y="26.4" class="cls-32">tan</tspan><tspan x="77.12" y="26.4" class="cls-29">c</tspan><tspan x="82.59" y="26.4">es</tspan></text><text class="cls-33" transform="translate(449.19 115.33)">A<tspan x="7.28" y="0" class="cls-23">g</tspan><tspan x="13.12" y="0">ent in</tspan><tspan x="41.52" y="0" class="cls-34">s</tspan><tspan x="46.88" y="0">ta</tspan><tspan x="56.94" y="0" class="cls-23">l</tspan><tspan x="60" y="0">ls and runs:</tspan><tspan x="0" y="13.2">- Pu</tspan><tspan x="20.28" y="13.2" class="cls-23">l</tspan><tspan x="23.35" y="13.2">l </tspan><tspan x="29.08" y="13.2" class="cls-23">c</tspan><tspan x="34.63" y="13.2">ontainers f</tspan><tspan x="88.66" y="13.2" class="cls-25">r</tspan><tspan x="92.82" y="13.2">om </tspan><tspan x="111.32" y="13.2" class="cls-25">r</tspan><tspan x="115.48" y="13.2" class="cls-35">egi</tspan><tspan x="130.41" y="13.2" class="cls-36">s</tspan><tspan x="135.77" y="13.2">t</tspan><tspan x="139.79" y="13.2" class="cls-37">r</tspan><tspan x="144.1" y="13.2">y</tspan><tspan x="0" y="26.4">- </tspan><tspan x="7.01" y="26.4" class="cls-38">V</tspan><tspan x="13.56" y="26.4">eri</tspan><tspan x="26.81" y="26.4" class="cls-39">f</tspan><tspan x="30.66" y="26.4">y c</tspan><tspan x="44.52" y="26.4" class="cls-40">r</tspan><tspan x="48.83" y="26.4">y</tspan><tspan x="54.48" y="26.4" class="cls-23">p</tspan><tspan x="60.93" y="26.4" class="cls-24">t</tspan><tspan x="64.9" y="26.4">og</tspan><tspan x="77.01" y="26.4" class="cls-41">r</tspan><tspan x="81.13" y="26.4">aphic sign</tspan><tspan x="131.82" y="26.4" class="cls-42">a</tspan><tspan x="137.83" y="26.4">tu</tspan><tspan x="148.22" y="26.4" class="cls-25">r</tspan><tspan x="152.38" y="26.4">es</tspan><tspan x="0" y="39.6">- In</tspan><tspan x="17.96" y="39.6" class="cls-43">s</tspan><tspan x="23.32" y="39.6">ta</tspan><tspan x="33.37" y="39.6" class="cls-28">l</tspan><tspan x="36.44" y="39.6">l </tspan><tspan x="42.17" y="39.6" class="cls-23">c</tspan><tspan x="47.72" y="39.6">ontainers</tspan><tspan x="0" y="52.8">- Confi</tspan><tspan x="33.17" y="52.8" class="cls-24">g</tspan><tspan x="39.04" y="52.8">u</tspan><tspan x="45.42" y="52.8" class="cls-25">r</tspan><tspan x="49.58" y="52.8">e e</tspan><tspan x="64.4" y="52.8" class="cls-41">n</tspan><tspan x="70.7" y="52.8">vi</tspan><tspan x="79.24" y="52.8" class="cls-27">r</tspan><tspan x="83.4" y="52.8" class="cls-44">onmet and net</tspan><tspan x="156.45" y="52.8" class="cls-34">w</tspan><tspan x="165.16" y="52.8">ork</tspan><tspan x="0" y="66">- Run </tspan><tspan x="29.57" y="66" class="cls-23">c</tspan><tspan x="35.11" y="66">ontainers</tspan></text><text class="cls-33" transform="translate(293.55 281.48)"><tspan class="cls-45">R</tspan><tspan x="7.04" y="0">egi</tspan><tspan x="21.98" y="0" class="cls-43">s</tspan><tspan x="27.34" y="0" class="cls-24">t</tspan><tspan x="31.31" y="0">er node </tspan><tspan x="72.04" y="0" class="cls-24">f</tspan><tspan x="75.73" y="0">or a </tspan><tspan x="0" y="13.2">depl</tspan><tspan x="22.27" y="13.2" class="cls-43">o</tspan><tspan x="28.4" y="13.2">yment p</tspan><tspan x="69.38" y="13.2" class="cls-46">a</tspan><tspan x="75.38" y="13.2" class="cls-34">t</tspan><tspan x="79.32" y="13.2" class="cls-24">t</tspan><tspan x="83.29" y="13.2">ern</tspan></text><rect width="130.51" height="52.12" x="282.25" y="190.73" class="cls-21"/><text class="cls-33" transform="translate(293.55 212.36)">In<tspan x="10.96" y="0" class="cls-43">s</tspan><tspan x="16.31" y="0">ta</tspan><tspan x="26.37" y="0" class="cls-28">l</tspan><tspan x="29.44" y="0">l </tspan><tspan x="0" y="13.2">Hori</tspan><tspan x="21.19" y="13.2" class="cls-47">z</tspan><tspan x="26.42" y="13.2">on</tspan></text><rect width="130.51" height="52.12" x="282.25" y="122.47" class="cls-21"/><text class="cls-33" transform="translate(293.55 144.11)">In<tspan x="10.96" y="0" class="cls-43">s</tspan><tspan x="16.31" y="0">ta</tspan><tspan x="26.37" y="0" class="cls-28">l</tspan><tspan x="29.44" y="0">l ho</tspan><tspan x="47.75" y="0" class="cls-43">s</tspan><tspan x="53.11" y="0">t </tspan><tspan x="0" y="13.2">ope</tspan><tspan x="18.83" y="13.2" class="cls-41">r</tspan><tspan x="22.96" y="13.2" class="cls-48">a</tspan><tspan x="28.96" y="13.2" class="cls-32">ting </tspan><tspan x="50.78" y="13.2" class="cls-49">s</tspan><tspan x="56.06" y="13.2" class="cls-23">y</tspan><tspan x="61.64" y="13.2" class="cls-34">s</tspan><tspan x="67" y="13.2" class="cls-24">t</tspan><tspan x="70.97" y="13.2">em</tspan></text><rect width="130.51" height="52.12" x="282.25" y="51.41" class="cls-21"/><line x1="459.43" x2="389.47" y1="560.08" y2="482.54" class="cls-2"/><line x1="459.43" x2="393.8" y1="560.08" y2="487.34" class="cls-50"/><polygon points="398.01 485.3 389.47 482.54 391.35 491.32 398.01 485.3" class="cls-3"/><line x1="520.45" x2="465.4" y1="311.95" y2="390.53" class="cls-2"/><line x1="520.45" x2="469.1" y1="311.95" y2="385.24" class="cls-50"/><polygon points="466.18 381.59 465.4 390.53 473.53 386.74 466.18 381.59" class="cls-3"/><text class="cls-33" transform="translate(293.55 73.05)">Confi<tspan x="26.17" y="0" class="cls-24">g</tspan><tspan x="32.03" y="0">u</tspan><tspan x="38.41" y="0" class="cls-25">r</tspan><tspan x="42.57" y="0">e</tspan><tspan x="0" y="13.2">ha</tspan><tspan x="12.42" y="13.2" class="cls-25">r</tspan><tspan x="16.58" y="13.2">d</tspan><tspan x="23.09" y="13.2" class="cls-51">w</tspan><tspan x="31.76" y="13.2">a</tspan><tspan x="37.8" y="13.2" class="cls-25">r</tspan><tspan x="41.95" y="13.2">e</tspan></text><line x1="164.38" x2="271.87" y1="152.91" y2="278.37" class="cls-52"/><polygon points="267.61 280.3 276.07 283.28 274.42 274.46 267.61 280.3" class="cls-53"/><line x1="344.13" x2="344.13" y1="317.03" y2="366.63" class="cls-52"/><polygon points="339.65 365.32 344.13 373.09 348.62 365.32 339.65 365.32" class="cls-53"/><line x1="164.38" x2="268.91" y1="152.91" y2="213.54" class="cls-52"/><polygon points="265.52 216.77 274.49 216.78 270.02 209 265.52 216.77" class="cls-53"/><line x1="164.38" x2="267.71" y1="152.91" y2="143.31" class="cls-52"/><polygon points="266.81 147.9 274.14 142.72 265.98 138.97 266.81 147.9" class="cls-53"/><text class="cls-6" transform="translate(46.55 248.92)"><tspan class="cls-12">E</tspan><tspan x="8.16" y="0">d</tspan><tspan x="16.45" y="0" class="cls-13">g</tspan><tspan x="23.88" y="0">e node </tspan><tspan x="70.36" y="0" class="cls-54">o</tspan><tspan x="78.16" y="0">wner</tspan></text><line x1="163.47" x2="268.7" y1="153.5" y2="85.23" class="cls-52"/><polygon points="270.04 89.71 274.12 81.72 265.15 82.18 270.04 89.71" class="cls-53"/><line x1="604.21" x2="602.9" y1="504.3" y2="311.04" class="cls-2"/><line x1="604.21" x2="602.94" y1="504.3" y2="317.5" class="cls-50"/><polygon points="607.44 318.78 602.9 311.04 598.46 318.84 607.44 318.78" class="cls-3"/><text class="cls-22" transform="translate(609.84 444.15)">When an a<tspan x="51.52" y="0" class="cls-29">g</tspan><tspan x="57.27" y="0">ent f</tspan><tspan x="79.57" y="0" class="cls-27">r</tspan><tspan x="83.55" y="0">oms an ag</tspan><tspan x="133.67" y="0" class="cls-27">r</tspan><tspan x="137.65" y="0">eement, the AgBot sends details about the depl</tspan><tspan x="371.95" y="0" class="cls-25">o</tspan><tspan x="378.05" y="0">yment pa</tspan><tspan x="424.14" y="0" class="cls-26">t</tspan><tspan x="427.91" y="0" class="cls-55">t</tspan><tspan x="431.72" y="0">ern f</tspan><tspan x="454.21" y="0" class="cls-27">r</tspan><tspan x="458.19" y="0">om </tspan><tspan x="476.55" y="0" class="cls-56">f</tspan><tspan x="480.07" y="0">ormal ag</tspan><tspan x="523.01" y="0" class="cls-27">r</tspan><tspan x="526.99" y="0">eement </tspan><tspan x="567.42" y="0" class="cls-24">t</tspan><tspan x="571.23" y="0" class="cls-35">o p</tspan><tspan x="586.37" y="0" class="cls-27">r</tspan><tspan x="590.35" y="0">o</tspan><tspan x="596.51" y="0" class="cls-28">c</tspan><tspan x="601.98" y="0">eed</tspan></text></svg>