<svg xmlns="http://www.w3.org/2000/svg" id="Layer_1" data-name="Layer 1" viewBox="0 0 939.22 596.23"><defs><style>.cls-1,.cls-15,.cls-85{font-size:14px}.cls-1,.cls-30,.cls-33,.cls-46,.cls-98{fill:#231f20}.cls-1,.cls-15,.cls-33,.cls-46,.cls-85{font-family:IBMPlexSans-Medium,IBM Plex Sans}.cls-2{letter-spacing:-.01em}.cls-3,.cls-30{font-size:11px}.cls-22,.cls-3,.cls-30,.cls-41,.cls-54,.cls-88,.cls-89,.cls-90,.cls-91,.cls-92,.cls-93{font-family:IBMPlexSans,IBM Plex Sans}.cls-4{letter-spacing:-.01em}.cls-12,.cls-40,.cls-44,.cls-5,.cls-7,.cls-82,.cls-9,.cls-99{fill:none}.cls-44,.cls-5{stroke:#7aa0d4}.cls-101,.cls-12,.cls-14,.cls-40,.cls-44,.cls-5,.cls-7,.cls-71,.cls-82,.cls-9,.cls-99{stroke-miterlimit:10}.cls-5{stroke-width:5px}.cls-6{fill:#7aa0d4}.cls-7,.cls-71{stroke:#bc9a30}.cls-101,.cls-12,.cls-14,.cls-7,.cls-71,.cls-82,.cls-9,.cls-99{stroke-width:2px}.cls-8{fill:#bc9a30}.cls-14,.cls-9{stroke:#038571}.cls-10{fill:#038571}.cls-11{fill:#f2f6fc}.cls-12{stroke:#983995}.cls-13{fill:#983995}.cls-14{fill:#e2e8e6}.cls-15{fill:#343434}.cls-16,.cls-17{letter-spacing:-.01em}.cls-18{fill:#983895}.cls-19{fill:#4272b8}.cls-20,.cls-21{letter-spacing:-.01em}.cls-22{font-size:9px}.cls-23,.cls-24{letter-spacing:-.01em}.cls-25{letter-spacing:0}.cls-26{letter-spacing:.01em}.cls-27,.cls-28{letter-spacing:-.01em}.cls-29{letter-spacing:0}.cls-31{fill:#e6e7e8}.cls-32{fill:#58595b}.cls-33{font-size:13px}.cls-34{letter-spacing:-.01em}.cls-35{letter-spacing:0}.cls-36{letter-spacing:-.01em}.cls-37{letter-spacing:.01em}.cls-38{letter-spacing:-.02em}.cls-39{letter-spacing:0}.cls-40{stroke:#a4a4a5;stroke-width:2.11px}.cls-41,.cls-88,.cls-89,.cls-90,.cls-91,.cls-92,.cls-93{font-size:10.82px}.cls-41,.cls-85{fill:#010101}.cls-42{letter-spacing:-.01em}.cls-43{letter-spacing:0}.cls-44{stroke-width:1.55px}.cls-45{letter-spacing:-.01em}.cls-46,.cls-54{font-size:12px}.cls-47,.cls-48{letter-spacing:0}.cls-49,.cls-50{letter-spacing:-.01em}.cls-51{letter-spacing:-.02em}.cls-52,.cls-53,.cls-55{letter-spacing:-.01em}.cls-56,.cls-57{letter-spacing:0}.cls-58{letter-spacing:-.01em}.cls-59{letter-spacing:-.02em}.cls-60{letter-spacing:-.01em}.cls-61{letter-spacing:.01em}.cls-62,.cls-63,.cls-64{letter-spacing:-.01em}.cls-65{letter-spacing:0}.cls-66{letter-spacing:.01em}.cls-67{letter-spacing:0}.cls-68,.cls-69{letter-spacing:-.01em}.cls-70{letter-spacing:0}.cls-71{fill:#f4dd9d}.cls-72,.cls-73,.cls-74{letter-spacing:-.01em}.cls-75{letter-spacing:0}.cls-76{letter-spacing:-.01em}.cls-77,.cls-78,.cls-89{letter-spacing:0}.cls-79,.cls-80,.cls-92,.cls-93{letter-spacing:-.01em}.cls-81{letter-spacing:0}.cls-82{stroke:#4272b8}.cls-83{letter-spacing:-.03em}.cls-84{letter-spacing:.01em}.cls-86,.cls-87,.cls-90,.cls-95{letter-spacing:0}.cls-91{letter-spacing:.01em}.cls-94,.cls-96,.cls-97{letter-spacing:-.01em}.cls-98{font-size:21px;font-family:MyriadPro-Regular,Myriad Pro}.cls-99{stroke:#fbb040}.cls-100{fill:#fbb040}.cls-101{fill:#b7e2e7;stroke:#94d5d8}</style></defs><title>scaled</title><text class="cls-1" transform="translate(19 370.05)">A<tspan x="9.27" y="0" class="cls-2">g</tspan><tspan x="16.7" y="0">ents</tspan><tspan x="44.63" y="0" class="cls-3" xml:space="preserve"> run </tspan><tspan class="cls-3"><tspan x="0" y="13.2">on each ed</tspan><tspan x="53.71" y="13.2" class="cls-4">g</tspan><tspan x="59.45" y="13.2">e </tspan><tspan x="0" y="26.4">node</tspan></tspan></text><line x1="705.63" x2="705.63" y1="275.08" y2="495.26" class="cls-5"/><polygon points="694.41 278.36 705.63 258.93 716.85 278.36 694.41 278.36" class="cls-6"/><polygon points="694.41 491.98 705.63 511.4 716.85 491.98 694.41 491.98" class="cls-6"/><line x1="576.51" x2="576.51" y1="144.67" y2="309.11" class="cls-7"/><polygon points="572.02 307.8 576.51 315.57 581 307.8 572.02 307.8" class="cls-8"/><line x1="246.99" x2="288.03" y1="471.56" y2="471.56" class="cls-9"/><polygon points="286.72 476.05 294.49 471.56 286.72 467.07 286.72 476.05" class="cls-10"/><line x1="246.61" x2="287.66" y1="399.44" y2="399.44" class="cls-9"/><polygon points="286.34 403.93 294.12 399.44 286.34 394.95 286.34 403.93" class="cls-10"/><line x1="246.61" x2="287.66" y1="327.4" y2="327.4" class="cls-9"/><polygon points="286.34 331.89 294.12 327.4 286.34 322.91 286.34 331.89" class="cls-10"/><line x1="659.62" x2="443.38" y1="221.99" y2="221.01" class="cls-11"/><line x1="659.62" x2="449.84" y1="221.99" y2="221.04" class="cls-12"/><polygon points="451.17 216.56 443.38 221.01 451.13 225.53 451.17 216.56" class="cls-13"/><line x1="228.29" x2="293.12" y1="121.59" y2="189.42" class="cls-9"/><polygon points="288.97 191.57 297.58 194.09 295.46 185.37 288.97 191.57" class="cls-10"/><line x1="173.36" x2="173.36" y1="145.27" y2="187.63" class="cls-9"/><polygon points="168.87 186.32 173.36 194.09 177.84 186.32 168.87 186.32" class="cls-10"/><line x1="173.36" x2="173.36" y1="242.56" y2="291.9" class="cls-9"/><polygon points="168.87 290.59 173.36 298.36 177.84 290.59 168.87 290.59" class="cls-10"/><rect width="116.32" height="27" x="308.21" y="313.82" class="cls-14"/><text class="cls-15" transform="translate(345.81 83.78) scale(1.04 1)">D<tspan x="9.56" y="0" class="cls-16">e</tspan><tspan x="17.22" y="0" class="cls-17">v</tspan><tspan x="24.28" y="0">eloper</tspan></text><path d="M379.7,9.73c9.81,0,17.8,7.7,17.8,17.17s-8,17.17-17.8,17.17-17.8-7.7-17.8-17.17,8-17.17,17.8-17.17m0-3c-11.54,0-20.9,9-20.9,20.16s9.36,20.16,20.9,20.16,20.89-9,20.89-20.16S391.24,6.74,379.7,6.74Z" class="cls-18"/><path d="M362.25,51.54h34.89a5,5,0,0,1,5,5v9.93a0,0,0,0,1,0,0H357.25a0,0,0,0,1,0,0V56.54A5,5,0,0,1,362.25,51.54Z" class="cls-18"/><line x1="348.54" x2="262.65" y1="40.19" y2="40.19" class="cls-9"/><polygon points="263.96 35.7 256.19 40.19 263.96 44.68 263.96 35.7" class="cls-10"/><path d="M275.87,198.76H414.06a19.55,19.55,0,0,1,19.55,19.55v7.51a19.55,19.55,0,0,1-19.55,19.55H275.87a19.54,19.54,0,0,1-19.54-19.54V218.3A19.55,19.55,0,0,1,275.87,198.76Z" class="cls-11"/><path d="M414.06,199.76a18.56,18.56,0,0,1,18.55,18.54v7.51a18.57,18.57,0,0,1-18.55,18.55H275.87a18.57,18.57,0,0,1-18.55-18.55V218.3a18.56,18.56,0,0,1,18.55-18.54H414.06m0-2H275.87a20.54,20.54,0,0,0-20.55,20.54v7.51a20.55,20.55,0,0,0,20.55,20.55H414.06a20.55,20.55,0,0,0,20.55-20.55V218.3a20.54,20.54,0,0,0-20.55-20.54Z" class="cls-19"/><text class="cls-1" transform="translate(310.16 218.85) scale(1.05 1)">E<tspan x="8.3" y="0" class="cls-20">x</tspan><tspan x="15.53" y="0">chan</tspan><tspan x="46.59" y="0" class="cls-21">g</tspan><tspan x="54.03" y="0">e</tspan><tspan class="cls-22"><tspan x="-24.47" y="12.96">(Dis</tspan><tspan x="-8.78" y="12.96" class="cls-23">c</tspan><tspan x="-4.31" y="12.96" class="cls-24">ov</tspan><tspan x="5.02" y="12.96" class="cls-25">e</tspan><tspan x="9.96" y="12.96" class="cls-26">r</tspan><tspan x="13.35" y="12.96">y &amp; </tspan><tspan x="28.34" y="12.96" class="cls-27">P</tspan><tspan x="33.7" y="12.96" class="cls-25">a</tspan><tspan x="38.5" y="12.96" class="cls-28">t</tspan><tspan x="41.58" y="12.96" class="cls-29">t</tspan><tspan x="44.71" y="12.96" class="cls-25">ern Mgmt)</tspan></tspan></text><text class="cls-30" transform="translate(278.59 35.04)">Code for edge</text><line x1="410.55" x2="496.44" y1="40.19" y2="40.19" class="cls-7"/><polygon points="495.12 44.68 502.89 40.19 495.12 35.7 495.12 44.68" class="cls-8"/><text class="cls-30" transform="translate(412.08 35.04)">Code for cloud</text><path d="M113.55,198.76H212.1a19.54,19.54,0,0,1,19.54,19.54v7.51a19.55,19.55,0,0,1-19.55,19.55H113.55A19.54,19.54,0,0,1,94,225.81V218.3A19.54,19.54,0,0,1,113.55,198.76Z" class="cls-31"/><path d="M212.1,199.76a18.56,18.56,0,0,1,18.54,18.54v7.51a18.57,18.57,0,0,1-18.54,18.55H113.55A18.56,18.56,0,0,1,95,225.81V218.3a18.55,18.55,0,0,1,18.54-18.54H212.1m0-2H113.55A20.53,20.53,0,0,0,93,218.3v7.51a20.54,20.54,0,0,0,20.54,20.55H212.1a20.54,20.54,0,0,0,20.54-20.55V218.3a20.53,20.53,0,0,0-20.54-20.54Z" class="cls-32"/><text class="cls-33" transform="translate(137.98 218.85) scale(1.05 1)"><tspan class="cls-34">R</tspan><tspan x="8.32" y="0" class="cls-35">egi</tspan><tspan x="25.97" y="0" class="cls-36">s</tspan><tspan x="32.3" y="0">t</tspan><tspan x="37.05" y="0" class="cls-37">r</tspan><tspan x="42.15" y="0">y </tspan><tspan class="cls-22"><tspan x="-21.06" y="12.96">(Doc</tspan><tspan x="-2.44" y="12.96" class="cls-38">k</tspan><tspan x="2.15" y="12.96">er Hub or </tspan><tspan x="41.81" y="12.96" class="cls-27">P</tspan><tspan x="47.17" y="12.96">ri</tspan><tspan x="52.72" y="12.96" class="cls-28">v</tspan><tspan x="57.07" y="12.96">a</tspan><tspan x="61.88" y="12.96" class="cls-39">t</tspan><tspan x="65" y="12.96">e)</tspan></tspan></text><path d="M358,567.63a24,24,0,1,1,0-48H460.11a24,24,0,0,1,0,48Z" class="cls-11"/><path d="M460.11,520.63a23,23,0,0,1,0,46H358a23,23,0,1,1,0-46H460.11m0-2H358a25,25,0,0,0-25,25h0a25,25,0,0,0,25,25H460.11a25,25,0,0,0,25-25h0a25,25,0,0,0-25-25Z" class="cls-19"/><rect width="341.85" height="44.84" x="104.85" y="304.9" class="cls-40"/><text class="cls-41" transform="translate(165.27 330.02)">A<tspan x="6.93" y="0" class="cls-42">g</tspan><tspan x="12.58" y="0" class="cls-43">ent</tspan></text><polygon points="246.24 340.9 113.72 340.9 113.75 313.9 246.24 313.9 246.24 340.9" class="cls-44"/><text class="cls-41" transform="translate(107.14 298.36)"><tspan class="cls-45">E</tspan><tspan x="6.2" y="0" class="cls-43">d</tspan><tspan x="12.47" y="0" class="cls-42">g</tspan><tspan x="18.12" y="0">e node</tspan></text><text class="cls-46" transform="translate(372.52 538.93) scale(1.05 1)">Swi<tspan x="19.94" y="0" class="cls-47">t</tspan><tspan x="24.28" y="0">chboa</tspan><tspan x="57.82" y="0" class="cls-48">r</tspan><tspan x="62.35" y="0">d</tspan><tspan class="cls-22"><tspan x="-9.77" y="12.96">(P2P Me</tspan><tspan x="23.92" y="12.96" class="cls-23">s</tspan><tspan x="28.25" y="12.96">sa</tspan><tspan x="37.44" y="12.96" class="cls-49">g</tspan><tspan x="42.14" y="12.96">e B</tspan><tspan x="55.08" y="12.96" class="cls-50">r</tspan><tspan x="58.34" y="12.96">o</tspan><tspan x="63.38" y="12.96" class="cls-51">k</tspan><tspan x="67.97" y="12.96" class="cls-25">er)</tspan></tspan></text><path d="M115.36,24.67V129c33.75,70.39,58,0,116,0V24.67Z" class="cls-14"/><text class="cls-1" transform="translate(128.67 41.26)">D<tspan x="9.56" y="0" class="cls-52">e</tspan><tspan x="17.22" y="0" class="cls-53">v</tspan><tspan x="24.28" y="0">eloper </tspan><tspan x="0" y="16.8">ed</tspan><tspan x="16.07" y="16.8" class="cls-2">g</tspan><tspan x="23.51" y="16.8">e </tspan><tspan x="34.59" y="16.8" class="cls-2">c</tspan><tspan x="41.65" y="16.8">ode</tspan><tspan class="cls-54"><tspan x="0" y="45.6">(A</tspan><tspan x="11.71" y="45.6" class="cls-55">n</tspan><tspan x="18.43" y="45.6" class="cls-56">y lan</tspan><tspan x="43.74" y="45.6" class="cls-57">g</tspan><tspan x="50.03" y="45.6">ua</tspan><tspan x="63.25" y="45.6" class="cls-58">g</tspan><tspan x="69.52" y="45.6" class="cls-59">e</tspan><tspan x="75.86" y="45.6">, </tspan><tspan x="0" y="60" class="cls-58">c</tspan><tspan x="5.96" y="60">ontaineri</tspan><tspan x="53.93" y="60" class="cls-60">z</tspan><tspan x="59.38" y="60">ed, </tspan><tspan x="0" y="74.4">c</tspan><tspan x="6.04" y="74.4" class="cls-61">r</tspan><tspan x="10.56" y="74.4">y</tspan><tspan x="16.55" y="74.4" class="cls-62">p</tspan><tspan x="23.44" y="74.4" class="cls-57">t</tspan><tspan x="27.6" y="74.4">og</tspan><tspan x="40.66" y="74.4" class="cls-57">r</tspan><tspan x="45.01" y="74.4">aphica</tspan><tspan x="80.64" y="74.4" class="cls-63">l</tspan><tspan x="83.84" y="74.4" class="cls-64">l</tspan><tspan x="86.99" y="74.4" class="cls-65">y </tspan><tspan x="0" y="88.8">self-signed)</tspan></tspan></text><text class="cls-30" transform="translate(177.68 162.9)">Push <tspan x="0" y="13.2" class="cls-4">c</tspan><tspan x="5.47" y="13.2">ontainers</tspan></text><text class="cls-30" transform="translate(269.19 127.59)">Sign and publish <tspan x="0" y="13.2">se</tspan><tspan x="11.4" y="13.2" class="cls-66">r</tspan><tspan x="15.54" y="13.2">vi</tspan><tspan x="23.71" y="13.2" class="cls-4">c</tspan><tspan x="29.17" y="13.2">e</tspan><tspan x="35.21" y="13.2" class="cls-67">s</tspan><tspan x="40.51" y="13.2">, depl</tspan><tspan x="67.89" y="13.2" class="cls-68">o</tspan><tspan x="74" y="13.2">yment </tspan><tspan x="0" y="26.4">pa</tspan><tspan x="12.25" y="26.4" class="cls-69">t</tspan><tspan x="16.02" y="26.4" class="cls-70">t</tspan><tspan x="19.83" y="26.4">erns</tspan></text><text class="cls-30" transform="translate(150.49 260.5)">Pu<tspan x="12.91" y="0" class="cls-67">l</tspan><tspan x="15.85" y="0">l </tspan><tspan x="-33.2" y="13.2" class="cls-4">c</tspan><tspan x="-27.73" y="13.2">ontainers</tspan></text><path d="M527.73,23.79V128.08c33.75,70.39,58,0,116,0V23.79Z" class="cls-71"/><text class="cls-1" transform="translate(536.73 42.39)">D<tspan x="9.56" y="0" class="cls-52">e</tspan><tspan x="17.22" y="0" class="cls-53">v</tspan><tspan x="24.28" y="0">eloper </tspan><tspan x="0" y="16.8">cloud </tspan><tspan x="38.74" y="16.8" class="cls-2">c</tspan><tspan x="45.79" y="16.8">ode</tspan><tspan class="cls-54"><tspan x="0" y="45.6">(Cloud machines </tspan><tspan x="0" y="60">can also be Hori</tspan><tspan x="86.15" y="60">-</tspan><tspan x="0" y="74.4" class="cls-60">z</tspan><tspan x="5.45" y="74.4">on ed</tspan><tspan x="35.36" y="74.4" class="cls-58">g</tspan><tspan x="41.63" y="74.4">e nodes)</tspan></tspan></text><text class="cls-30" transform="translate(585.27 165.62)"><tspan class="cls-72">P</tspan><tspan x="6.56" y="0" class="cls-68">r</tspan><tspan x="10.54" y="0" class="cls-73">o</tspan><tspan x="16.61" y="0">vision cloud </tspan><tspan x="0" y="13.2" class="cls-67">r</tspan><tspan x="3.98" y="13.2">esou</tspan><tspan x="27.79" y="13.2" class="cls-68">r</tspan><tspan x="31.77" y="13.2" class="cls-4">c</tspan><tspan x="37.24" y="13.2">e</tspan><tspan x="43.27" y="13.2" class="cls-67">s</tspan><tspan x="48.58" y="13.2">, in</tspan><tspan x="63.16" y="13.2" class="cls-74">s</tspan><tspan x="68.44" y="13.2">ta</tspan><tspan x="78.18" y="13.2" class="cls-67">l</tspan><tspan x="81.11" y="13.2" class="cls-66">l</tspan><tspan x="84.22" y="13.2">, </tspan><tspan x="0" y="26.4">and moni</tspan><tspan x="45.86" y="26.4" class="cls-75">t</tspan><tspan x="49.68" y="26.4">or cloud </tspan><tspan x="0" y="39.6">s</tspan><tspan x="5.36" y="39.6" class="cls-4">o</tspan><tspan x="11.45" y="39.6">ft</tspan><tspan x="18.88" y="39.6" class="cls-76">w</tspan><tspan x="27.22" y="39.6">a</tspan><tspan x="33.1" y="39.6" class="cls-67">r</tspan><tspan x="37.08" y="39.6">e</tspan></text><rect width="116.32" height="27" x="307.84" y="385.17" class="cls-14"/><rect width="342.22" height="44.84" x="104.48" y="376.25" class="cls-40"/><text class="cls-41" transform="translate(169.33 401.37)">A<tspan x="6.93" y="0" class="cls-42">g</tspan><tspan x="12.58" y="0" class="cls-43">ent</tspan></text><polygon points="246.24 412.25 113.4 412.25 113.44 385.25 246.24 385.25 246.24 412.25" class="cls-44"/><text class="cls-41" transform="translate(106.82 369.71)"><tspan class="cls-45">E</tspan><tspan x="6.2" y="0" class="cls-43">d</tspan><tspan x="12.47" y="0" class="cls-42">g</tspan><tspan x="18.12" y="0">e node</tspan></text><rect width="116.32" height="27" x="307.47" y="456.36" class="cls-14"/><rect width="342.6" height="44.84" x="104.11" y="447.44" class="cls-40"/><text class="cls-41" transform="translate(165.72 472.56)">A<tspan x="6.93" y="0" class="cls-42">g</tspan><tspan x="12.58" y="0" class="cls-43">ent</tspan></text><polygon points="246.24 483.44 113.09 483.44 113.12 456.44 246.24 456.44 246.24 483.44" class="cls-44"/><text class="cls-41" transform="translate(106.5 440.9)"><tspan class="cls-45">E</tspan><tspan x="6.2" y="0" class="cls-43">d</tspan><tspan x="12.47" y="0" class="cls-42">g</tspan><tspan x="18.12" y="0">e node</tspan></text><text class="cls-41" transform="translate(143.46 534.59)">A<tspan x="6.93" y="0" class="cls-42">g</tspan><tspan x="12.58" y="0" class="cls-43">ents po</tspan><tspan x="48.62" y="0" class="cls-77">l</tspan><tspan x="51.51" y="0">l </tspan><tspan x="57" y="0" class="cls-78">f</tspan><tspan x="60.47" y="0">or </tspan><tspan x="-14.98" y="12.98">ag</tspan><tspan x="-3.49" y="12.98" class="cls-77">r</tspan><tspan x=".43" y="12.98">eement p</tspan><tspan x="46.46" y="12.98" class="cls-79">r</tspan><tspan x="50.38" y="12.98">oposals</tspan><tspan x="-17.43" y="25.97">and send a</tspan><tspan x="35.27" y="25.97" class="cls-80">cc</tspan><tspan x="46.03" y="25.97" class="cls-43">e</tspan><tspan x="51.97" y="25.97" class="cls-80">p</tspan><tspan x="58.18" y="25.97" class="cls-81">tan</tspan><tspan x="73.9" y="25.97" class="cls-80">c</tspan><tspan x="79.28" y="25.97">es</tspan></text><line x1="179.82" x2="180.14" y1="340.9" y2="385.17" class="cls-5"/><line x1="179.5" x2="179.83" y1="412.17" y2="456.44" class="cls-5"/><line x1="179.66" x2="179.66" y1="483.44" y2="508.54" class="cls-5"/><polygon points="168.45 505.25 179.66 524.68 190.88 505.25 168.45 505.25" class="cls-6"/><line x1="586.89" x2="493.08" y1="545.34" y2="545.34" class="cls-11"/><line x1="586.89" x2="499.54" y1="545.34" y2="545.34" class="cls-82"/><polygon points="500.85 540.85 493.08 545.34 500.85 549.82 500.85 540.85" class="cls-19"/><line x1="232.87" x2="320.22" y1="545.34" y2="545.34" class="cls-82"/><polygon points="318.91 549.82 326.68 545.34 318.91 540.85 318.91 549.82" class="cls-19"/><line x1="264.62" x2="219.85" y1="242.56" y2="294.94" class="cls-9"/><polygon points="217.29 291.02 215.65 299.85 224.11 296.86 217.29 291.02" class="cls-10"/><text class="cls-30" transform="translate(207.94 260.5)"><tspan class="cls-83">V</tspan><tspan x="6.37" y="0">eri</tspan><tspan x="19.19" y="0" class="cls-66">f</tspan><tspan x="22.87" y="0">y </tspan><tspan x="-23.17" y="13.2">signatu</tspan><tspan x="12.98" y="13.2" class="cls-67">r</tspan><tspan x="16.96" y="13.2">es</tspan></text><text class="cls-41" transform="translate(259.5 323.39)">Run</text><text class="cls-41" transform="translate(332.96 330.02)"><tspan class="cls-45">E</tspan><tspan x="6.2" y="0" class="cls-43">d</tspan><tspan x="12.47" y="0" class="cls-42">g</tspan><tspan x="18.12" y="0">e se</tspan><tspan x="37.82" y="0" class="cls-84">r</tspan><tspan x="41.9" y="0">vi</tspan><tspan x="49.93" y="0" class="cls-80">c</tspan><tspan x="55.31" y="0">es</tspan></text><text class="cls-41" transform="translate(332.96 401.37)"><tspan class="cls-45">E</tspan><tspan x="6.2" y="0" class="cls-43">d</tspan><tspan x="12.47" y="0" class="cls-42">g</tspan><tspan x="18.12" y="0">e se</tspan><tspan x="37.82" y="0" class="cls-84">r</tspan><tspan x="41.9" y="0">vi</tspan><tspan x="49.93" y="0" class="cls-80">c</tspan><tspan x="55.31" y="0">es</tspan></text><text class="cls-41" transform="translate(332.96 472.56)"><tspan class="cls-45">E</tspan><tspan x="6.2" y="0" class="cls-43">d</tspan><tspan x="12.47" y="0" class="cls-42">g</tspan><tspan x="18.12" y="0">e se</tspan><tspan x="37.82" y="0" class="cls-84">r</tspan><tspan x="41.9" y="0">vi</tspan><tspan x="49.93" y="0" class="cls-80">c</tspan><tspan x="55.31" y="0">es</tspan></text><text class="cls-41" transform="translate(259.5 395.44)">Run</text><text class="cls-41" transform="translate(259.5 467.98)">Run</text><text class="cls-85" transform="translate(774.56 358.01)">AgB<tspan x="26.01" y="0" class="cls-86">o</tspan><tspan x="33.87" y="0" class="cls-87">ts</tspan><tspan x="45.89" y="0" class="cls-88" xml:space="preserve"> a</tspan><tspan x="54.22" y="0" class="cls-89">r</tspan><tspan x="58.14" y="0" class="cls-88">e au</tspan><tspan x="78.55" y="0" class="cls-90">t</tspan><tspan x="82.31" y="0" class="cls-91">o-</tspan><tspan x="92.9" y="0" class="cls-92">c</tspan><tspan x="98.28" y="0" class="cls-88">onfi</tspan><tspan x="116.61" y="0" class="cls-90">g</tspan><tspan x="122.28" y="0" class="cls-88">u</tspan><tspan x="128.43" y="0" class="cls-93">r</tspan><tspan x="132.34" y="0" class="cls-88">ed</tspan><tspan class="cls-88"><tspan x="0" y="12.98" class="cls-78">f</tspan><tspan x="3.46" y="12.98">or each depl</tspan><tspan x="63.33" y="12.98" class="cls-77">o</tspan><tspan x="69.34" y="12.98">yment pa</tspan><tspan x="114.67" y="12.98" class="cls-94">t</tspan><tspan x="118.37" y="12.98" class="cls-95">t</tspan><tspan x="122.12" y="12.98">ern,</tspan><tspan x="0" y="25.97">and typica</tspan><tspan x="50.15" y="25.97" class="cls-77">l</tspan><tspan x="53.03" y="25.97" class="cls-45">l</tspan><tspan x="55.87" y="25.97">y run in the cloud, </tspan><tspan x="0" y="38.95">but can run a</tspan><tspan x="63.28" y="38.95" class="cls-96">n</tspan><tspan x="69.34" y="38.95">ywhe</tspan><tspan x="95.13" y="38.95" class="cls-77">r</tspan><tspan x="99.05" y="38.95">e</tspan></tspan></text><text class="cls-41" transform="translate(670.18 222.1)">AgBots sea<tspan x="54.38" y="0" class="cls-79">r</tspan><tspan x="58.29" y="0" class="cls-43">ch </tspan><tspan x="72.43" y="0" class="cls-78">f</tspan><tspan x="75.89" y="0">or</tspan><tspan x="0" y="12.98">ed</tspan><tspan x="12.21" y="12.98" class="cls-42">g</tspan><tspan x="17.86" y="12.98">e nodes </tspan><tspan x="58.59" y="12.98" class="cls-77">r</tspan><tspan x="62.51" y="12.98">egi</tspan><tspan x="76.87" y="12.98" class="cls-97">s</tspan><tspan x="82.06" y="12.98" class="cls-95">t</tspan><tspan x="85.82" y="12.98">e</tspan><tspan x="91.75" y="12.98" class="cls-77">r</tspan><tspan x="95.67" y="12.98">ed </tspan><tspan x="110.44" y="12.98" class="cls-78">f</tspan><tspan x="113.9" y="12.98">or </tspan><tspan x="0" y="25.97">their depl</tspan><tspan x="46.54" y="25.97" class="cls-77">o</tspan><tspan x="52.55" y="25.97">yment pa</tspan><tspan x="97.88" y="25.97" class="cls-94">t</tspan><tspan x="101.58" y="25.97" class="cls-95">t</tspan><tspan x="105.33" y="25.97">ern</tspan></text><text class="cls-41" transform="translate(619.52 534.6)">AgBots send<tspan x="-20.99" y="12.98">ag</tspan><tspan x="-9.5" y="12.98" class="cls-77">r</tspan><tspan x="-5.59" y="12.98">eement p</tspan><tspan x="40.45" y="12.98" class="cls-79">r</tspan><tspan x="44.36" y="12.98">oposals</tspan><tspan x="-28.74" y="25.97">and po</tspan><tspan x="4.34" y="25.97" class="cls-77">l</tspan><tspan x="7.23" y="25.97">l </tspan><tspan x="12.73" y="25.97" class="cls-78">f</tspan><tspan x="16.19" y="25.97">or a</tspan><tspan x="34.55" y="25.97" class="cls-80">cc</tspan><tspan x="45.3" y="25.97">e</tspan><tspan x="51.24" y="25.97" class="cls-80">p</tspan><tspan x="57.45" y="25.97">tan</tspan><tspan x="73.17" y="25.97" class="cls-80">c</tspan><tspan x="78.55" y="25.97">es</tspan></text><rect width="116.32" height="27" x="521.67" y="329.16" class="cls-71"/><text class="cls-41" transform="translate(546.42 345.35)">Cloud se<tspan x="41.9" y="0" class="cls-84">r</tspan><tspan x="45.98" y="0">vi</tspan><tspan x="54.01" y="0" class="cls-80">c</tspan><tspan x="59.38" y="0">es</tspan></text><rect width="116.32" height="27" x="521.67" y="375.39" class="cls-71"/><text class="cls-41" transform="translate(546.42 391.58)">Cloud se<tspan x="41.9" y="0" class="cls-84">r</tspan><tspan x="45.98" y="0">vi</tspan><tspan x="54.01" y="0" class="cls-80">c</tspan><tspan x="59.38" y="0">es</tspan></text><rect width="116.32" height="27" x="521.67" y="446.58" class="cls-71"/><text class="cls-41" transform="translate(546.42 462.77)">Cloud se<tspan x="41.9" y="0" class="cls-84">r</tspan><tspan x="45.98" y="0">vi</tspan><tspan x="54.01" y="0" class="cls-80">c</tspan><tspan x="59.38" y="0">es</tspan></text><text class="cls-98" transform="translate(698.85 434.22)">...</text><text class="cls-98" transform="translate(570.97 425.03)">...</text><text class="cls-98" transform="translate(253.97 434.85)">...</text><text class="cls-41" transform="translate(461.68 412.25)"><tspan class="cls-45">P</tspan><tspan x="6.45" y="0">aths</tspan></text><text class="cls-41" transform="translate(461.68 388.89)">Data</text><line x1="430.61" x2="512.79" y1="387.39" y2="349.74" class="cls-11"/><line x1="436.48" x2="506.91" y1="384.7" y2="352.43" class="cls-99"/><polygon points="439.54 388.23 430.61 387.39 435.8 380.07 439.54 388.23" class="cls-100"/><polygon points="507.59 357.06 512.78 349.74 503.85 348.9 507.59 357.06" class="cls-100"/><line x1="430.61" x2="511.5" y1="412.17" y2="452.29" class="cls-11"/><line x1="436.39" x2="505.71" y1="415.04" y2="449.42" class="cls-99"/><polygon points="435.57 419.64 430.61 412.17 439.56 411.6 435.57 419.64" class="cls-100"/><polygon points="502.54 452.86 511.5 452.29 506.53 444.82 502.54 452.86" class="cls-100"/><line x1="429.19" x2="511.5" y1="472.87" y2="463.09" class="cls-11"/><line x1="435.6" x2="505.09" y1="472.11" y2="463.85" class="cls-99"/><polygon points="437.44 476.41 429.19 472.87 436.38 467.5 437.44 476.41" class="cls-100"/><polygon points="504.31 468.46 511.5 463.09 503.25 459.55 504.31 468.46" class="cls-100"/><line x1="430.6" x2="512.92" y1="401.37" y2="391.58" class="cls-11"/><line x1="437.02" x2="506.51" y1="400.6" y2="392.34" class="cls-99"/><polygon points="438.85 404.9 430.61 401.37 437.79 395.99 438.85 404.9" class="cls-100"/><polygon points="505.73 396.96 512.92 391.58 504.67 388.04 505.73 396.96" class="cls-100"/><line x1="430.6" x2="512.92" y1="327.32" y2="340.82" class="cls-11"/><line x1="436.98" x2="506.55" y1="328.37" y2="339.78" class="cls-99"/><polygon points="437.55 333.01 430.61 327.32 439 324.15 437.55 333.01" class="cls-100"/><polygon points="504.53 343.99 512.92 340.82 505.98 335.13 504.53 343.99" class="cls-100"/><rect width="70.9" height="27" x="670.18" y="298.68" class="cls-101"/><rect width="70.9" height="27" x="670.18" y="384.67" class="cls-101"/><text class="cls-41" transform="translate(688.49 400.37)">AgBot</text><rect width="70.9" height="27" x="672.59" y="451.83" class="cls-101"/><text class="cls-41" transform="translate(691.5 468.64)">AgBot</text><rect width="70.9" height="27" x="670.18" y="344.51" class="cls-101"/><text class="cls-41" transform="translate(688.49 360.71)">AgBot</text><text class="cls-41" transform="translate(688.49 316.17)">AgBot</text></svg>