<svg id="Layer_1" data-name="Layer 1" xmlns="http://www.w3.org/2000/svg" viewBox="0 0 939.22 596.23"><defs><style>.cls-1,.cls-15,.cls-85{font-size:14px;}.cls-1,.cls-30,.cls-33,.cls-46,.cls-98{fill:#231f20;}.cls-1,.cls-15,.cls-33,.cls-46,.cls-85{font-family:IBMPlexSans-Medium, IBM Plex Sans;}.cls-2{letter-spacing:-0.01em;}.cls-3,.cls-30{font-size:11px;}.cls-22,.cls-3,.cls-30,.cls-41,.cls-54,.cls-88,.cls-89,.cls-90,.cls-91,.cls-92,.cls-93{font-family:IBMPlexSans, IBM Plex Sans;}.cls-4{letter-spacing:-0.01em;}.cls-12,.cls-40,.cls-44,.cls-5,.cls-7,.cls-82,.cls-9,.cls-99{fill:none;}.cls-44,.cls-5{stroke:#7aa0d4;}.cls-101,.cls-12,.cls-14,.cls-40,.cls-44,.cls-5,.cls-7,.cls-71,.cls-82,.cls-9,.cls-99{stroke-miterlimit:10;}.cls-5{stroke-width:5px;}.cls-6{fill:#7aa0d4;}.cls-7,.cls-71{stroke:#bc9a30;}.cls-101,.cls-12,.cls-14,.cls-7,.cls-71,.cls-82,.cls-9,.cls-99{stroke-width:2px;}.cls-8{fill:#bc9a30;}.cls-14,.cls-9{stroke:#038571;}.cls-10{fill:#038571;}.cls-11{fill:#f2f6fc;}.cls-12{stroke:#983995;}.cls-13{fill:#983995;}.cls-14{fill:#e2e8e6;}.cls-15{fill:#343434;}.cls-16{letter-spacing:-0.01em;}.cls-17{letter-spacing:-0.01em;}.cls-18{fill:#983895;}.cls-19{fill:#4272b8;}.cls-20{letter-spacing:-0.01em;}.cls-21{letter-spacing:-0.01em;}.cls-22{font-size:9px;}.cls-23{letter-spacing:-0.01em;}.cls-24{letter-spacing:-0.01em;}.cls-25{letter-spacing:0em;}.cls-26{letter-spacing:0.01em;}.cls-27{letter-spacing:-0.01em;}.cls-28{letter-spacing:-0.01em;}.cls-29{letter-spacing:0em;}.cls-31{fill:#e6e7e8;}.cls-32{fill:#58595b;}.cls-33{font-size:13px;}.cls-34{letter-spacing:-0.01em;}.cls-35{letter-spacing:0em;}.cls-36{letter-spacing:-0.01em;}.cls-37{letter-spacing:0.01em;}.cls-38{letter-spacing:-0.02em;}.cls-39{letter-spacing:0em;}.cls-40{stroke:#a4a4a5;stroke-width:2.11px;}.cls-41,.cls-88,.cls-89,.cls-90,.cls-91,.cls-92,.cls-93{font-size:10.82px;}.cls-41,.cls-85{fill:#010101;}.cls-42{letter-spacing:-0.01em;}.cls-43{letter-spacing:0em;}.cls-44{stroke-width:1.55px;}.cls-45{letter-spacing:-0.01em;}.cls-46,.cls-54{font-size:12px;}.cls-47{letter-spacing:0em;}.cls-48{letter-spacing:0em;}.cls-49{letter-spacing:-0.01em;}.cls-50{letter-spacing:-0.01em;}.cls-51{letter-spacing:-0.02em;}.cls-52{letter-spacing:-0.01em;}.cls-53{letter-spacing:-0.01em;}.cls-55{letter-spacing:-0.01em;}.cls-56{letter-spacing:0em;}.cls-57{letter-spacing:0em;}.cls-58{letter-spacing:-0.01em;}.cls-59{letter-spacing:-0.02em;}.cls-60{letter-spacing:-0.01em;}.cls-61{letter-spacing:0.01em;}.cls-62{letter-spacing:-0.01em;}.cls-63{letter-spacing:-0.01em;}.cls-64{letter-spacing:-0.01em;}.cls-65{letter-spacing:0em;}.cls-66{letter-spacing:0.01em;}.cls-67{letter-spacing:0em;}.cls-68{letter-spacing:-0.01em;}.cls-69{letter-spacing:-0.01em;}.cls-70{letter-spacing:0em;}.cls-71{fill:#f4dd9d;}.cls-72{letter-spacing:-0.01em;}.cls-73{letter-spacing:-0.01em;}.cls-74{letter-spacing:-0.01em;}.cls-75{letter-spacing:0em;}.cls-76{letter-spacing:-0.01em;}.cls-77,.cls-89{letter-spacing:0em;}.cls-78{letter-spacing:0em;}.cls-79,.cls-93{letter-spacing:-0.01em;}.cls-80,.cls-92{letter-spacing:-0.01em;}.cls-81{letter-spacing:0em;}.cls-82{stroke:#4272b8;}.cls-83{letter-spacing:-0.03em;}.cls-84{letter-spacing:0.01em;}.cls-86{letter-spacing:0em;}.cls-87{letter-spacing:0em;}.cls-90,.cls-95{letter-spacing:0em;}.cls-91{letter-spacing:0.01em;}.cls-94{letter-spacing:-0.01em;}.cls-96{letter-spacing:-0.01em;}.cls-97{letter-spacing:-0.01em;}.cls-98{font-size:21px;font-family:MyriadPro-Regular, Myriad Pro;}.cls-99{stroke:#fbb040;}.cls-100{fill:#fbb040;}.cls-101{fill:#b7e2e7;stroke:#94d5d8;}</style></defs><title>scaled</title><text class="cls-1" transform="translate(19 370.05)">A<tspan class="cls-2" x="9.27" y="0">g</tspan><tspan x="16.7" y="0">ents</tspan><tspan class="cls-3" x="44.63" y="0" xml:space="preserve"> run </tspan><tspan class="cls-3"><tspan x="0" y="13.2">on each ed</tspan><tspan class="cls-4" x="53.71" y="13.2">g</tspan><tspan x="59.45" y="13.2">e </tspan><tspan x="0" y="26.4">node</tspan></tspan></text><line class="cls-5" x1="705.63" y1="275.08" x2="705.63" y2="495.26"/><polygon class="cls-6" points="694.41 278.36 705.63 258.93 716.85 278.36 694.41 278.36"/><polygon class="cls-6" points="694.41 491.98 705.63 511.4 716.85 491.98 694.41 491.98"/><line class="cls-7" x1="576.51" y1="144.67" x2="576.51" y2="309.11"/><polygon class="cls-8" points="572.02 307.8 576.51 315.57 581 307.8 572.02 307.8"/><line class="cls-9" x1="246.99" y1="471.56" x2="288.03" y2="471.56"/><polygon class="cls-10" points="286.72 476.05 294.49 471.56 286.72 467.07 286.72 476.05"/><line class="cls-9" x1="246.61" y1="399.44" x2="287.66" y2="399.44"/><polygon class="cls-10" points="286.34 403.93 294.12 399.44 286.34 394.95 286.34 403.93"/><line class="cls-9" x1="246.61" y1="327.4" x2="287.66" y2="327.4"/><polygon class="cls-10" points="286.34 331.89 294.12 327.4 286.34 322.91 286.34 331.89"/><line class="cls-11" x1="659.62" y1="221.99" x2="443.38" y2="221.01"/><line class="cls-12" x1="659.62" y1="221.99" x2="449.84" y2="221.04"/><polygon class="cls-13" points="451.17 216.56 443.38 221.01 451.13 225.53 451.17 216.56"/><line class="cls-9" x1="228.29" y1="121.59" x2="293.12" y2="189.42"/><polygon class="cls-10" points="288.97 191.57 297.58 194.09 295.46 185.37 288.97 191.57"/><line class="cls-9" x1="173.36" y1="145.27" x2="173.36" y2="187.63"/><polygon class="cls-10" points="168.87 186.32 173.36 194.09 177.84 186.32 168.87 186.32"/><line class="cls-9" x1="173.36" y1="242.56" x2="173.36" y2="291.9"/><polygon class="cls-10" points="168.87 290.59 173.36 298.36 177.84 290.59 168.87 290.59"/><rect class="cls-14" x="308.21" y="313.82" width="116.32" height="27"/><text class="cls-15" transform="translate(345.81 83.78) scale(1.04 1)">D<tspan class="cls-16" x="9.56" y="0">e</tspan><tspan class="cls-17" x="17.22" y="0">v</tspan><tspan x="24.28" y="0">eloper</tspan></text><path class="cls-18" d="M379.7,9.73c9.81,0,17.8,7.7,17.8,17.17s-8,17.17-17.8,17.17-17.8-7.7-17.8-17.17,8-17.17,17.8-17.17m0-3c-11.54,0-20.9,9-20.9,20.16s9.36,20.16,20.9,20.16,20.89-9,20.89-20.16S391.24,6.74,379.7,6.74Z"/><path class="cls-18" d="M362.25,51.54h34.89a5,5,0,0,1,5,5v9.93a0,0,0,0,1,0,0H357.25a0,0,0,0,1,0,0V56.54A5,5,0,0,1,362.25,51.54Z"/><line class="cls-9" x1="348.54" y1="40.19" x2="262.65" y2="40.19"/><polygon class="cls-10" points="263.96 35.7 256.19 40.19 263.96 44.68 263.96 35.7"/><path class="cls-11" d="M275.87,198.76H414.06a19.55,19.55,0,0,1,19.55,19.55v7.51a19.55,19.55,0,0,1-19.55,19.55H275.87a19.54,19.54,0,0,1-19.54-19.54V218.3A19.55,19.55,0,0,1,275.87,198.76Z"/><path class="cls-19" d="M414.06,199.76a18.56,18.56,0,0,1,18.55,18.54v7.51a18.57,18.57,0,0,1-18.55,18.55H275.87a18.57,18.57,0,0,1-18.55-18.55V218.3a18.56,18.56,0,0,1,18.55-18.54H414.06m0-2H275.87a20.54,20.54,0,0,0-20.55,20.54v7.51a20.55,20.55,0,0,0,20.55,20.55H414.06a20.55,20.55,0,0,0,20.55-20.55V218.3a20.54,20.54,0,0,0-20.55-20.54Z"/><text class="cls-1" transform="translate(310.16 218.85) scale(1.05 1)">E<tspan class="cls-20" x="8.3" y="0">x</tspan><tspan x="15.53" y="0">chan</tspan><tspan class="cls-21" x="46.59" y="0">g</tspan><tspan x="54.03" y="0">e</tspan><tspan class="cls-22"><tspan x="-24.47" y="12.96">(Dis</tspan><tspan class="cls-23" x="-8.78" y="12.96">c</tspan><tspan class="cls-24" x="-4.31" y="12.96">ov</tspan><tspan class="cls-25" x="5.02" y="12.96">e</tspan><tspan class="cls-26" x="9.96" y="12.96">r</tspan><tspan x="13.35" y="12.96">y &amp; </tspan><tspan class="cls-27" x="28.34" y="12.96">P</tspan><tspan class="cls-25" x="33.7" y="12.96">a</tspan><tspan class="cls-28" x="38.5" y="12.96">t</tspan><tspan class="cls-29" x="41.58" y="12.96">t</tspan><tspan class="cls-25" x="44.71" y="12.96">ern Mgmt)</tspan></tspan></text><text class="cls-30" transform="translate(278.59 35.04)">Code for edge</text><line class="cls-7" x1="410.55" y1="40.19" x2="496.44" y2="40.19"/><polygon class="cls-8" points="495.12 44.68 502.89 40.19 495.12 35.7 495.12 44.68"/><text class="cls-30" transform="translate(412.08 35.04)">Code for cloud</text><path class="cls-31" d="M113.55,198.76H212.1a19.54,19.54,0,0,1,19.54,19.54v7.51a19.55,19.55,0,0,1-19.55,19.55H113.55A19.54,19.54,0,0,1,94,225.81V218.3A19.54,19.54,0,0,1,113.55,198.76Z"/><path class="cls-32" d="M212.1,199.76a18.56,18.56,0,0,1,18.54,18.54v7.51a18.57,18.57,0,0,1-18.54,18.55H113.55A18.56,18.56,0,0,1,95,225.81V218.3a18.55,18.55,0,0,1,18.54-18.54H212.1m0-2H113.55A20.53,20.53,0,0,0,93,218.3v7.51a20.54,20.54,0,0,0,20.54,20.55H212.1a20.54,20.54,0,0,0,20.54-20.55V218.3a20.53,20.53,0,0,0-20.54-20.54Z"/><text class="cls-33" transform="translate(137.98 218.85) scale(1.05 1)"><tspan class="cls-34">R</tspan><tspan class="cls-35" x="8.32" y="0">egi</tspan><tspan class="cls-36" x="25.97" y="0">s</tspan><tspan x="32.3" y="0">t</tspan><tspan class="cls-37" x="37.05" y="0">r</tspan><tspan x="42.15" y="0">y </tspan><tspan class="cls-22"><tspan x="-21.06" y="12.96">(Doc</tspan><tspan class="cls-38" x="-2.44" y="12.96">k</tspan><tspan x="2.15" y="12.96">er Hub or </tspan><tspan class="cls-27" x="41.81" y="12.96">P</tspan><tspan x="47.17" y="12.96">ri</tspan><tspan class="cls-28" x="52.72" y="12.96">v</tspan><tspan x="57.07" y="12.96">a</tspan><tspan class="cls-39" x="61.88" y="12.96">t</tspan><tspan x="65" y="12.96">e)</tspan></tspan></text><path class="cls-11" d="M358,567.63a24,24,0,1,1,0-48H460.11a24,24,0,0,1,0,48Z"/><path class="cls-19" d="M460.11,520.63a23,23,0,0,1,0,46H358a23,23,0,1,1,0-46H460.11m0-2H358a25,25,0,0,0-25,25h0a25,25,0,0,0,25,25H460.11a25,25,0,0,0,25-25h0a25,25,0,0,0-25-25Z"/><rect class="cls-40" x="104.85" y="304.9" width="341.85" height="44.84"/><text class="cls-41" transform="translate(165.27 330.02)">A<tspan class="cls-42" x="6.93" y="0">g</tspan><tspan class="cls-43" x="12.58" y="0">ent</tspan></text><polygon class="cls-44" points="246.24 340.9 113.72 340.9 113.75 313.9 246.24 313.9 246.24 340.9"/><text class="cls-41" transform="translate(107.14 298.36)"><tspan class="cls-45">E</tspan><tspan class="cls-43" x="6.2" y="0">d</tspan><tspan class="cls-42" x="12.47" y="0">g</tspan><tspan x="18.12" y="0">e node</tspan></text><text class="cls-46" transform="translate(372.52 538.93) scale(1.05 1)">Swi<tspan class="cls-47" x="19.94" y="0">t</tspan><tspan x="24.28" y="0">chboa</tspan><tspan class="cls-48" x="57.82" y="0">r</tspan><tspan x="62.35" y="0">d</tspan><tspan class="cls-22"><tspan x="-9.77" y="12.96">(P2P Me</tspan><tspan class="cls-23" x="23.92" y="12.96">s</tspan><tspan x="28.25" y="12.96">sa</tspan><tspan class="cls-49" x="37.44" y="12.96">g</tspan><tspan x="42.14" y="12.96">e B</tspan><tspan class="cls-50" x="55.08" y="12.96">r</tspan><tspan x="58.34" y="12.96">o</tspan><tspan class="cls-51" x="63.38" y="12.96">k</tspan><tspan class="cls-25" x="67.97" y="12.96">er)</tspan></tspan></text><path class="cls-14" d="M115.36,24.67V129c33.75,70.39,58,0,116,0V24.67Z"/><text class="cls-1" transform="translate(128.67 41.26)">D<tspan class="cls-52" x="9.56" y="0">e</tspan><tspan class="cls-53" x="17.22" y="0">v</tspan><tspan x="24.28" y="0">eloper </tspan><tspan x="0" y="16.8">ed</tspan><tspan class="cls-2" x="16.07" y="16.8">g</tspan><tspan x="23.51" y="16.8">e </tspan><tspan class="cls-2" x="34.59" y="16.8">c</tspan><tspan x="41.65" y="16.8">ode</tspan><tspan class="cls-54"><tspan x="0" y="45.6">(A</tspan><tspan class="cls-55" x="11.71" y="45.6">n</tspan><tspan class="cls-56" x="18.43" y="45.6">y lan</tspan><tspan class="cls-57" x="43.74" y="45.6">g</tspan><tspan x="50.03" y="45.6">ua</tspan><tspan class="cls-58" x="63.25" y="45.6">g</tspan><tspan class="cls-59" x="69.52" y="45.6">e</tspan><tspan x="75.86" y="45.6">, </tspan><tspan class="cls-58" x="0" y="60">c</tspan><tspan x="5.96" y="60">ontaineri</tspan><tspan class="cls-60" x="53.93" y="60">z</tspan><tspan x="59.38" y="60">ed, </tspan><tspan x="0" y="74.4">c</tspan><tspan class="cls-61" x="6.04" y="74.4">r</tspan><tspan x="10.56" y="74.4">y</tspan><tspan class="cls-62" x="16.55" y="74.4">p</tspan><tspan class="cls-57" x="23.44" y="74.4">t</tspan><tspan x="27.6" y="74.4">og</tspan><tspan class="cls-57" x="40.66" y="74.4">r</tspan><tspan x="45.01" y="74.4">aphica</tspan><tspan class="cls-63" x="80.64" y="74.4">l</tspan><tspan class="cls-64" x="83.84" y="74.4">l</tspan><tspan class="cls-65" x="86.99" y="74.4">y </tspan><tspan x="0" y="88.8">self-signed)</tspan></tspan></text><text class="cls-30" transform="translate(177.68 162.9)">Push <tspan class="cls-4" x="0" y="13.2">c</tspan><tspan x="5.47" y="13.2">ontainers</tspan></text><text class="cls-30" transform="translate(269.19 127.59)">Sign and publish <tspan x="0" y="13.2">se</tspan><tspan class="cls-66" x="11.4" y="13.2">r</tspan><tspan x="15.54" y="13.2">vi</tspan><tspan class="cls-4" x="23.71" y="13.2">c</tspan><tspan x="29.17" y="13.2">e</tspan><tspan class="cls-67" x="35.21" y="13.2">s</tspan><tspan x="40.51" y="13.2">, depl</tspan><tspan class="cls-68" x="67.89" y="13.2">o</tspan><tspan x="74" y="13.2">yment </tspan><tspan x="0" y="26.4">pa</tspan><tspan class="cls-69" x="12.25" y="26.4">t</tspan><tspan class="cls-70" x="16.02" y="26.4">t</tspan><tspan x="19.83" y="26.4">erns</tspan></text><text class="cls-30" transform="translate(150.49 260.5)">Pu<tspan class="cls-67" x="12.91" y="0">l</tspan><tspan x="15.85" y="0">l </tspan><tspan class="cls-4" x="-33.2" y="13.2">c</tspan><tspan x="-27.73" y="13.2">ontainers</tspan></text><path class="cls-71" d="M527.73,23.79V128.08c33.75,70.39,58,0,116,0V23.79Z"/><text class="cls-1" transform="translate(536.73 42.39)">D<tspan class="cls-52" x="9.56" y="0">e</tspan><tspan class="cls-53" x="17.22" y="0">v</tspan><tspan x="24.28" y="0">eloper </tspan><tspan x="0" y="16.8">cloud </tspan><tspan class="cls-2" x="38.74" y="16.8">c</tspan><tspan x="45.79" y="16.8">ode</tspan><tspan class="cls-54"><tspan x="0" y="45.6">(Cloud machines </tspan><tspan x="0" y="60">can also be Hori</tspan><tspan x="86.15" y="60">-</tspan><tspan class="cls-60" x="0" y="74.4">z</tspan><tspan x="5.45" y="74.4">on ed</tspan><tspan class="cls-58" x="35.36" y="74.4">g</tspan><tspan x="41.63" y="74.4">e nodes)</tspan></tspan></text><text class="cls-30" transform="translate(585.27 165.62)"><tspan class="cls-72">P</tspan><tspan class="cls-68" x="6.56" y="0">r</tspan><tspan class="cls-73" x="10.54" y="0">o</tspan><tspan x="16.61" y="0">vision cloud </tspan><tspan class="cls-67" x="0" y="13.2">r</tspan><tspan x="3.98" y="13.2">esou</tspan><tspan class="cls-68" x="27.79" y="13.2">r</tspan><tspan class="cls-4" x="31.77" y="13.2">c</tspan><tspan x="37.24" y="13.2">e</tspan><tspan class="cls-67" x="43.27" y="13.2">s</tspan><tspan x="48.58" y="13.2">, in</tspan><tspan class="cls-74" x="63.16" y="13.2">s</tspan><tspan x="68.44" y="13.2">ta</tspan><tspan class="cls-67" x="78.18" y="13.2">l</tspan><tspan class="cls-66" x="81.11" y="13.2">l</tspan><tspan x="84.22" y="13.2">, </tspan><tspan x="0" y="26.4">and moni</tspan><tspan class="cls-75" x="45.86" y="26.4">t</tspan><tspan x="49.68" y="26.4">or cloud </tspan><tspan x="0" y="39.6">s</tspan><tspan class="cls-4" x="5.36" y="39.6">o</tspan><tspan x="11.45" y="39.6">ft</tspan><tspan class="cls-76" x="18.88" y="39.6">w</tspan><tspan x="27.22" y="39.6">a</tspan><tspan class="cls-67" x="33.1" y="39.6">r</tspan><tspan x="37.08" y="39.6">e</tspan></text><rect class="cls-14" x="307.84" y="385.17" width="116.32" height="27"/><rect class="cls-40" x="104.48" y="376.25" width="342.22" height="44.84"/><text class="cls-41" transform="translate(169.33 401.37)">A<tspan class="cls-42" x="6.93" y="0">g</tspan><tspan class="cls-43" x="12.58" y="0">ent</tspan></text><polygon class="cls-44" points="246.24 412.25 113.4 412.25 113.44 385.25 246.24 385.25 246.24 412.25"/><text class="cls-41" transform="translate(106.82 369.71)"><tspan class="cls-45">E</tspan><tspan class="cls-43" x="6.2" y="0">d</tspan><tspan class="cls-42" x="12.47" y="0">g</tspan><tspan x="18.12" y="0">e node</tspan></text><rect class="cls-14" x="307.47" y="456.36" width="116.32" height="27"/><rect class="cls-40" x="104.11" y="447.44" width="342.6" height="44.84"/><text class="cls-41" transform="translate(165.72 472.56)">A<tspan class="cls-42" x="6.93" y="0">g</tspan><tspan class="cls-43" x="12.58" y="0">ent</tspan></text><polygon class="cls-44" points="246.24 483.44 113.09 483.44 113.12 456.44 246.24 456.44 246.24 483.44"/><text class="cls-41" transform="translate(106.5 440.9)"><tspan class="cls-45">E</tspan><tspan class="cls-43" x="6.2" y="0">d</tspan><tspan class="cls-42" x="12.47" y="0">g</tspan><tspan x="18.12" y="0">e node</tspan></text><text class="cls-41" transform="translate(143.46 534.59)">A<tspan class="cls-42" x="6.93" y="0">g</tspan><tspan class="cls-43" x="12.58" y="0">ents po</tspan><tspan class="cls-77" x="48.62" y="0">l</tspan><tspan x="51.51" y="0">l </tspan><tspan class="cls-78" x="57" y="0">f</tspan><tspan x="60.47" y="0">or </tspan><tspan x="-14.98" y="12.98">ag</tspan><tspan class="cls-77" x="-3.49" y="12.98">r</tspan><tspan x="0.43" y="12.98">eement p</tspan><tspan class="cls-79" x="46.46" y="12.98">r</tspan><tspan x="50.38" y="12.98">oposals</tspan><tspan x="-17.43" y="25.97">and send a</tspan><tspan class="cls-80" x="35.27" y="25.97">cc</tspan><tspan class="cls-43" x="46.03" y="25.97">e</tspan><tspan class="cls-80" x="51.97" y="25.97">p</tspan><tspan class="cls-81" x="58.18" y="25.97">tan</tspan><tspan class="cls-80" x="73.9" y="25.97">c</tspan><tspan x="79.28" y="25.97">es</tspan></text><line class="cls-5" x1="179.82" y1="340.9" x2="180.14" y2="385.17"/><line class="cls-5" x1="179.5" y1="412.17" x2="179.83" y2="456.44"/><line class="cls-5" x1="179.66" y1="483.44" x2="179.66" y2="508.54"/><polygon class="cls-6" points="168.45 505.25 179.66 524.68 190.88 505.25 168.45 505.25"/><line class="cls-11" x1="586.89" y1="545.34" x2="493.08" y2="545.34"/><line class="cls-82" x1="586.89" y1="545.34" x2="499.54" y2="545.34"/><polygon class="cls-19" points="500.85 540.85 493.08 545.34 500.85 549.82 500.85 540.85"/><line class="cls-82" x1="232.87" y1="545.34" x2="320.22" y2="545.34"/><polygon class="cls-19" points="318.91 549.82 326.68 545.34 318.91 540.85 318.91 549.82"/><line class="cls-9" x1="264.62" y1="242.56" x2="219.85" y2="294.94"/><polygon class="cls-10" points="217.29 291.02 215.65 299.85 224.11 296.86 217.29 291.02"/><text class="cls-30" transform="translate(207.94 260.5)"><tspan class="cls-83">V</tspan><tspan x="6.37" y="0">eri</tspan><tspan class="cls-66" x="19.19" y="0">f</tspan><tspan x="22.87" y="0">y </tspan><tspan x="-23.17" y="13.2">signatu</tspan><tspan class="cls-67" x="12.98" y="13.2">r</tspan><tspan x="16.96" y="13.2">es</tspan></text><text class="cls-41" transform="translate(259.5 323.39)">Run</text><text class="cls-41" transform="translate(332.96 330.02)"><tspan class="cls-45">E</tspan><tspan class="cls-43" x="6.2" y="0">d</tspan><tspan class="cls-42" x="12.47" y="0">g</tspan><tspan x="18.12" y="0">e se</tspan><tspan class="cls-84" x="37.82" y="0">r</tspan><tspan x="41.9" y="0">vi</tspan><tspan class="cls-80" x="49.93" y="0">c</tspan><tspan x="55.31" y="0">es</tspan></text><text class="cls-41" transform="translate(332.96 401.37)"><tspan class="cls-45">E</tspan><tspan class="cls-43" x="6.2" y="0">d</tspan><tspan class="cls-42" x="12.47" y="0">g</tspan><tspan x="18.12" y="0">e se</tspan><tspan class="cls-84" x="37.82" y="0">r</tspan><tspan x="41.9" y="0">vi</tspan><tspan class="cls-80" x="49.93" y="0">c</tspan><tspan x="55.31" y="0">es</tspan></text><text class="cls-41" transform="translate(332.96 472.56)"><tspan class="cls-45">E</tspan><tspan class="cls-43" x="6.2" y="0">d</tspan><tspan class="cls-42" x="12.47" y="0">g</tspan><tspan x="18.12" y="0">e se</tspan><tspan class="cls-84" x="37.82" y="0">r</tspan><tspan x="41.9" y="0">vi</tspan><tspan class="cls-80" x="49.93" y="0">c</tspan><tspan x="55.31" y="0">es</tspan></text><text class="cls-41" transform="translate(259.5 395.44)">Run</text><text class="cls-41" transform="translate(259.5 467.98)">Run</text><text class="cls-85" transform="translate(774.56 358.01)">AgB<tspan class="cls-86" x="26.01" y="0">o</tspan><tspan class="cls-87" x="33.87" y="0">ts</tspan><tspan class="cls-88" x="45.89" y="0" xml:space="preserve"> a</tspan><tspan class="cls-89" x="54.22" y="0">r</tspan><tspan class="cls-88" x="58.14" y="0">e au</tspan><tspan class="cls-90" x="78.55" y="0">t</tspan><tspan class="cls-91" x="82.31" y="0">o-</tspan><tspan class="cls-92" x="92.9" y="0">c</tspan><tspan class="cls-88" x="98.28" y="0">onfi</tspan><tspan class="cls-90" x="116.61" y="0">g</tspan><tspan class="cls-88" x="122.28" y="0">u</tspan><tspan class="cls-93" x="128.43" y="0">r</tspan><tspan class="cls-88" x="132.34" y="0">ed</tspan><tspan class="cls-88"><tspan class="cls-78" x="0" y="12.98">f</tspan><tspan x="3.46" y="12.98">or each depl</tspan><tspan class="cls-77" x="63.33" y="12.98">o</tspan><tspan x="69.34" y="12.98">yment pa</tspan><tspan class="cls-94" x="114.67" y="12.98">t</tspan><tspan class="cls-95" x="118.37" y="12.98">t</tspan><tspan x="122.12" y="12.98">ern,</tspan><tspan x="0" y="25.97">and typica</tspan><tspan class="cls-77" x="50.15" y="25.97">l</tspan><tspan class="cls-45" x="53.03" y="25.97">l</tspan><tspan x="55.87" y="25.97">y run in the cloud, </tspan><tspan x="0" y="38.95">but can run a</tspan><tspan class="cls-96" x="63.28" y="38.95">n</tspan><tspan x="69.34" y="38.95">ywhe</tspan><tspan class="cls-77" x="95.13" y="38.95">r</tspan><tspan x="99.05" y="38.95">e</tspan></tspan></text><text class="cls-41" transform="translate(670.18 222.1)">AgBots sea<tspan class="cls-79" x="54.38" y="0">r</tspan><tspan class="cls-43" x="58.29" y="0">ch </tspan><tspan class="cls-78" x="72.43" y="0">f</tspan><tspan x="75.89" y="0">or</tspan><tspan x="0" y="12.98">ed</tspan><tspan class="cls-42" x="12.21" y="12.98">g</tspan><tspan x="17.86" y="12.98">e nodes </tspan><tspan class="cls-77" x="58.59" y="12.98">r</tspan><tspan x="62.51" y="12.98">egi</tspan><tspan class="cls-97" x="76.87" y="12.98">s</tspan><tspan class="cls-95" x="82.06" y="12.98">t</tspan><tspan x="85.82" y="12.98">e</tspan><tspan class="cls-77" x="91.75" y="12.98">r</tspan><tspan x="95.67" y="12.98">ed </tspan><tspan class="cls-78" x="110.44" y="12.98">f</tspan><tspan x="113.9" y="12.98">or </tspan><tspan x="0" y="25.97">their depl</tspan><tspan class="cls-77" x="46.54" y="25.97">o</tspan><tspan x="52.55" y="25.97">yment pa</tspan><tspan class="cls-94" x="97.88" y="25.97">t</tspan><tspan class="cls-95" x="101.58" y="25.97">t</tspan><tspan x="105.33" y="25.97">ern</tspan></text><text class="cls-41" transform="translate(619.52 534.6)">AgBots send<tspan x="-20.99" y="12.98">ag</tspan><tspan class="cls-77" x="-9.5" y="12.98">r</tspan><tspan x="-5.59" y="12.98">eement p</tspan><tspan class="cls-79" x="40.45" y="12.98">r</tspan><tspan x="44.36" y="12.98">oposals</tspan><tspan x="-28.74" y="25.97">and po</tspan><tspan class="cls-77" x="4.34" y="25.97">l</tspan><tspan x="7.23" y="25.97">l </tspan><tspan class="cls-78" x="12.73" y="25.97">f</tspan><tspan x="16.19" y="25.97">or a</tspan><tspan class="cls-80" x="34.55" y="25.97">cc</tspan><tspan x="45.3" y="25.97">e</tspan><tspan class="cls-80" x="51.24" y="25.97">p</tspan><tspan x="57.45" y="25.97">tan</tspan><tspan class="cls-80" x="73.17" y="25.97">c</tspan><tspan x="78.55" y="25.97">es</tspan></text><rect class="cls-71" x="521.67" y="329.16" width="116.32" height="27"/><text class="cls-41" transform="translate(546.42 345.35)">Cloud se<tspan class="cls-84" x="41.9" y="0">r</tspan><tspan x="45.98" y="0">vi</tspan><tspan class="cls-80" x="54.01" y="0">c</tspan><tspan x="59.38" y="0">es</tspan></text><rect class="cls-71" x="521.67" y="375.39" width="116.32" height="27"/><text class="cls-41" transform="translate(546.42 391.58)">Cloud se<tspan class="cls-84" x="41.9" y="0">r</tspan><tspan x="45.98" y="0">vi</tspan><tspan class="cls-80" x="54.01" y="0">c</tspan><tspan x="59.38" y="0">es</tspan></text><rect class="cls-71" x="521.67" y="446.58" width="116.32" height="27"/><text class="cls-41" transform="translate(546.42 462.77)">Cloud se<tspan class="cls-84" x="41.9" y="0">r</tspan><tspan x="45.98" y="0">vi</tspan><tspan class="cls-80" x="54.01" y="0">c</tspan><tspan x="59.38" y="0">es</tspan></text><text class="cls-98" transform="translate(698.85 434.22)">...</text><text class="cls-98" transform="translate(570.97 425.03)">...</text><text class="cls-98" transform="translate(253.97 434.85)">...</text><text class="cls-41" transform="translate(461.68 412.25)"><tspan class="cls-45">P</tspan><tspan x="6.45" y="0">aths</tspan></text><text class="cls-41" transform="translate(461.68 388.89)">Data</text><line class="cls-11" x1="430.61" y1="387.39" x2="512.79" y2="349.74"/><line class="cls-99" x1="436.48" y1="384.7" x2="506.91" y2="352.43"/><polygon class="cls-100" points="439.54 388.23 430.61 387.39 435.8 380.07 439.54 388.23"/><polygon class="cls-100" points="507.59 357.06 512.78 349.74 503.85 348.9 507.59 357.06"/><line class="cls-11" x1="430.61" y1="412.17" x2="511.5" y2="452.29"/><line class="cls-99" x1="436.39" y1="415.04" x2="505.71" y2="449.42"/><polygon class="cls-100" points="435.57 419.64 430.61 412.17 439.56 411.6 435.57 419.64"/><polygon class="cls-100" points="502.54 452.86 511.5 452.29 506.53 444.82 502.54 452.86"/><line class="cls-11" x1="429.19" y1="472.87" x2="511.5" y2="463.09"/><line class="cls-99" x1="435.6" y1="472.11" x2="505.09" y2="463.85"/><polygon class="cls-100" points="437.44 476.41 429.19 472.87 436.38 467.5 437.44 476.41"/><polygon class="cls-100" points="504.31 468.46 511.5 463.09 503.25 459.55 504.31 468.46"/><line class="cls-11" x1="430.6" y1="401.37" x2="512.92" y2="391.58"/><line class="cls-99" x1="437.02" y1="400.6" x2="506.51" y2="392.34"/><polygon class="cls-100" points="438.85 404.9 430.61 401.37 437.79 395.99 438.85 404.9"/><polygon class="cls-100" points="505.73 396.96 512.92 391.58 504.67 388.04 505.73 396.96"/><line class="cls-11" x1="430.6" y1="327.32" x2="512.92" y2="340.82"/><line class="cls-99" x1="436.98" y1="328.37" x2="506.55" y2="339.78"/><polygon class="cls-100" points="437.55 333.01 430.61 327.32 439 324.15 437.55 333.01"/><polygon class="cls-100" points="504.53 343.99 512.92 340.82 505.98 335.13 504.53 343.99"/><rect class="cls-101" x="670.18" y="298.68" width="70.9" height="27"/><rect class="cls-101" x="670.18" y="384.67" width="70.9" height="27"/><text class="cls-41" transform="translate(688.49 400.37)">AgBot</text><rect class="cls-101" x="672.59" y="451.83" width="70.9" height="27"/><text class="cls-41" transform="translate(691.5 468.64)">AgBot</text><rect class="cls-101" x="670.18" y="344.51" width="70.9" height="27"/><text class="cls-41" transform="translate(688.49 360.71)">AgBot</text><text class="cls-41" transform="translate(688.49 316.17)">AgBot</text></svg>