<svg xmlns="http://www.w3.org/2000/svg" id="Layer_1" data-name="Layer 1" viewBox="0 0 687.43 354.46"><defs><style>.cls-1{fill:#f2f6fc}.cls-2,.cls-31{fill:#4272b8}.cls-3{fill:#e2e8e6;stroke:#038571}.cls-3,.cls-44{stroke-miterlimit:10;stroke-width:2px}.cls-4{fill:#f9f0f6}.cls-5{fill:#8d3493}.cls-15,.cls-31,.cls-35,.cls-6{font-size:14px}.cls-6{fill:#231f20}.cls-15,.cls-18,.cls-26,.cls-35,.cls-6{font-family:IBMPlexSans,IBM Plex Sans}.cls-7{letter-spacing:-.01em}.cls-8{letter-spacing:0}.cls-9{letter-spacing:-.01em}.cls-10{letter-spacing:0}.cls-11,.cls-18{font-size:11px}.cls-12,.cls-13{letter-spacing:-.01em}.cls-14{letter-spacing:.01em}.cls-15{fill:#fff}.cls-16{letter-spacing:.01em}.cls-17{letter-spacing:-.01em}.cls-18,.cls-26,.cls-35{fill:#343434}.cls-19{letter-spacing:-.02em}.cls-20{letter-spacing:0}.cls-21{letter-spacing:-.01em}.cls-22,.cls-23,.cls-24{letter-spacing:0}.cls-25{letter-spacing:-.01em}.cls-26{font-size:12px}.cls-27,.cls-28{letter-spacing:-.01em}.cls-29{letter-spacing:0}.cls-30{letter-spacing:-.01em}.cls-31,.cls-36{font-family:IBMPlexSans-Bold,IBM Plex Sans;font-weight:700}.cls-32,.cls-33,.cls-34{letter-spacing:-.01em}.cls-37,.cls-38{letter-spacing:0}.cls-39,.cls-40{letter-spacing:-.01em}.cls-41{letter-spacing:0}.cls-42{letter-spacing:.01em}.cls-43{letter-spacing:-.01em}.cls-44{fill:none;stroke:#4272b8}</style></defs><title>services</title><rect width="345.71" height="28.72" x="142.98" y="275.41" class="cls-1"/><path d="M487.68,276.41v26.72H144V276.41h343.7m2-2H142v30.72h347.7V274.41Z" class="cls-2"/><rect width="367.52" height="49.07" x="118.51" y="275.91" class="cls-2"/><path d="M484.53,277.41v46.07H120V277.41H484.53m3-3H117v52.07H487.53V274.41Z" class="cls-1"/><rect width="543.54" height="323.4" x="20.54" y="12.72" class="cls-1"/><path d="M563.08,13.72v321.4H21.54V13.72H563.08m2-2H19.54v325.4H565.08V11.72Z" class="cls-2"/><rect width="492.72" height="173.63" x="38.55" y="75.6" class="cls-3"/><rect width="212" height="48" x="69.01" y="177.93" class="cls-4"/><path d="M280,178.93v46H70v-46H280m2-2H68v50H282v-50Z" class="cls-5"/><rect width="202" height="40.22" x="311.72" y="95.79" class="cls-4"/><path d="M512.72,96.79V135h-200V96.79h200m2-2h-204V137h204V94.79Z" class="cls-5"/><text class="cls-6" transform="translate(362.94 111.8)">cpu2<tspan x="31.51" y="0" class="cls-7">e</tspan><tspan x="39.09" y="0" class="cls-8">v</tspan><tspan x="46.02" y="0">t</tspan><tspan x="50.93" y="0" class="cls-9">s</tspan><tspan x="57.65" y="0">t</tspan><tspan x="62.57" y="0" class="cls-10">r</tspan><tspan x="67.63" y="0">eams</tspan><tspan class="cls-11"><tspan x="-23.7" y="16">(IBM </tspan><tspan x="3.1" y="16" class="cls-12">E</tspan><tspan x="9.4" y="16">d</tspan><tspan x="15.78" y="16" class="cls-13">g</tspan><tspan x="21.52" y="16">e Computing se</tspan><tspan x="98.04" y="16" class="cls-14">r</tspan><tspan x="102.18" y="16">vi</tspan><tspan x="110.34" y="16" class="cls-13">c</tspan><tspan x="115.81" y="16">e)</tspan></tspan></text><rect width="116" height="38.02" x="117.01" y="286.12" class="cls-2"/><text class="cls-15" transform="translate(141.25 309.09)">OS se<tspan x="35.85" y="0" class="cls-16">r</tspan><tspan x="41.13" y="0">vi</tspan><tspan x="51.52" y="0" class="cls-17">c</tspan><tspan x="58.48" y="0">es</tspan></text><text class="cls-18" transform="translate(324.82 151.77)">Doc<tspan x="19.07" y="0" class="cls-19">k</tspan><tspan x="24.68" y="0">er vi</tspan><tspan x="45.52" y="0" class="cls-20">r</tspan><tspan x="49.6" y="0">tual </tspan><tspan x="-5.71" y="16">pri</tspan><tspan x="7.46" y="16" class="cls-21">v</tspan><tspan x="12.77" y="16" class="cls-22">a</tspan><tspan x="18.64" y="16" class="cls-23">t</tspan><tspan x="22.46" y="16" class="cls-22">e net</tspan><tspan x="47.24" y="16" class="cls-24">w</tspan><tspan x="55.64" y="16" class="cls-22">or</tspan><tspan x="65.83" y="16" class="cls-25">k</tspan><tspan x="71.52" y="16">s</tspan></text><text class="cls-26" transform="translate(372.68 271.74)">Ha<tspan x="14.89" y="0" class="cls-27">r</tspan><tspan x="19.22" y="0">d</tspan><tspan x="26.18" y="0" class="cls-28">w</tspan><tspan x="35.29" y="0" class="cls-29">a</tspan><tspan x="41.7" y="0" class="cls-30">r</tspan><tspan x="46.04" y="0">e a</tspan><tspan x="61.87" y="0" class="cls-27">cc</tspan><tspan x="73.8" y="0">e</tspan><tspan x="80.39" y="0" class="cls-27">s</tspan><tspan x="86.16" y="0">s</tspan></text><text class="cls-31" transform="translate(247.86 43.34)"><tspan class="cls-32">E</tspan><tspan x="8.36" y="0">d</tspan><tspan x="16.87" y="0" class="cls-17">g</tspan><tspan x="24.51" y="0">e node</tspan><tspan x="-34.68" y="16">IBM </tspan><tspan x="-4.52" y="16" class="cls-33">E</tspan><tspan x="3.84" y="16">d</tspan><tspan x="12.35" y="16" class="cls-34">g</tspan><tspan x="19.99" y="16">e Computing</tspan></text><text class="cls-26" transform="translate(159.56 271.74)">OS a<tspan x="24.71" y="0" class="cls-27">cc</tspan><tspan x="36.64" y="0">e</tspan><tspan x="43.22" y="0" class="cls-27">s</tspan><tspan x="49" y="0">s</tspan></text><rect width="202" height="48" x="311.72" y="177.93" class="cls-4"/><path d="M512.72,178.93v46h-200v-46h200m2-2h-204v50h204v-50Z" class="cls-5"/><text class="cls-6" transform="translate(399.9 196.59)">gps <tspan class="cls-11"><tspan x="-61.8" y="16">(IBM </tspan><tspan x="-35" y="16" class="cls-12">E</tspan><tspan x="-28.7" y="16">d</tspan><tspan x="-22.32" y="16" class="cls-13">g</tspan><tspan x="-16.58" y="16">e Computing se</tspan><tspan x="59.94" y="16" class="cls-14">r</tspan><tspan x="64.08" y="16">vi</tspan><tspan x="72.24" y="16" class="cls-13">c</tspan><tspan x="77.71" y="16">e)</tspan></tspan></text><text class="cls-35" transform="translate(113.01 80.21)"><tspan class="cls-36"><tspan x="-68.83" y="16">IBM </tspan><tspan x="-38.67" y="16" class="cls-33">E</tspan><tspan x="-30.32" y="16">d</tspan><tspan x="-21.8" y="16" class="cls-34">g</tspan><tspan x="-14.16" y="16">e Computing</tspan><tspan x="-65.93" y="32">Depl</tspan><tspan x="-35.55" y="32" class="cls-33">o</tspan><tspan x="-27.8" y="32" class="cls-37">yment p</tspan><tspan x="25.58" y="32" class="cls-17">a</tspan><tspan x="33.47" y="32" class="cls-10">t</tspan><tspan x="38.76" y="32" class="cls-38">t</tspan><tspan x="44.06" y="32" class="cls-37">ern</tspan></tspan></text><rect width="141.68" height="38.02" x="343.9" y="285.67" class="cls-2"/><text class="cls-15" transform="translate(358.61 307.26)">Ha<tspan x="17.37" y="0" class="cls-39">r</tspan><tspan x="22.43" y="0">d</tspan><tspan x="30.55" y="0" class="cls-40">w</tspan><tspan x="41.17" y="0">a</tspan><tspan x="48.65" y="0" class="cls-10">r</tspan><tspan x="53.72" y="0">e d</tspan><tspan x="72.83" y="0" class="cls-7">e</tspan><tspan x="80.4" y="0" class="cls-41">vi</tspan><tspan x="90.79" y="0" class="cls-17">c</tspan><tspan x="97.75" y="0" class="cls-37">es</tspan></text><text class="cls-31" transform="translate(578.38 168.42)">Cloud se<tspan x="56.33" y="0" class="cls-42">r</tspan><tspan x="62.09" y="0" class="cls-43">v</tspan><tspan x="69.51" y="0">ers</tspan><tspan x="13.24" y="16">(o</tspan><tspan x="25.87" y="16" class="cls-17">p</tspan><tspan x="34.3" y="16">tional)</tspan></text><path d="M647.7,118.32a19.61,19.61,0,0,0-19.62-17.67,19.9,19.9,0,0,0-19.46,16.47,16.42,16.42,0,0,0-2.62-.2,17.43,17.43,0,0,0,0,34.85h34.86a17.43,17.43,0,0,0,6.84-33.45Zm-6.84,28.8H606a12.78,12.78,0,1,1,0-25.56,13,13,0,0,1,4,.63l3,1L613,120a15.19,15.19,0,0,1,15.09-14.74A15,15,0,0,1,643.16,120l0,1.65,1.57.5a12.78,12.78,0,0,1-3.91,24.94Z" class="cls-2"/><text class="cls-6" transform="translate(160.77 194.93)">cpu<tspan class="cls-11"><tspan x="-63.06" y="16">(IBM </tspan><tspan x="-36.27" y="16" class="cls-12">E</tspan><tspan x="-29.96" y="16">d</tspan><tspan x="-23.58" y="16" class="cls-13">g</tspan><tspan x="-17.84" y="16">e Computing se</tspan><tspan x="58.67" y="16" class="cls-14">r</tspan><tspan x="62.82" y="16">vi</tspan><tspan x="70.98" y="16" class="cls-13">c</tspan><tspan x="76.45" y="16">e)</tspan></tspan></text><line x1="413.96" x2="413.79" y1="145.21" y2="169.12" class="cls-44"/><polygon points="409.46 146.49 414 138.75 418.44 146.56 409.46 146.49" class="cls-2"/><polygon points="409.31 167.78 413.75 175.58 418.29 167.84 409.31 167.78" class="cls-2"/><line x1="469.49" x2="469.21" y1="236.9" y2="276.15" class="cls-44"/><polygon points="464.99 238.18 469.53 230.44 473.96 238.25 464.99 238.18" class="cls-2"/><polygon points="464.73 274.8 469.16 282.6 473.71 274.86 464.73 274.8" class="cls-2"/><line x1="583.61" x2="525.24" y1="121.67" y2="121.24" class="cls-44"/><polygon points="582.33 117.17 590.07 121.71 582.26 126.14 582.33 117.17" class="cls-2"/><polygon points="526.59 116.77 518.79 121.2 526.52 125.74 526.59 116.77" class="cls-2"/><line x1="220.89" x2="220.61" y1="236.9" y2="276.15" class="cls-44"/><polygon points="216.39 238.18 220.94 230.44 225.37 238.25 216.39 238.18" class="cls-2"/><polygon points="216.13 274.8 220.57 282.6 225.11 274.86 216.13 274.8" class="cls-2"/><line x1="214.51" x2="299.49" y1="171.55" y2="119.29" class="cls-44"/><polygon points="217.98 174.68 209.01 174.93 213.28 167.04 217.98 174.68" class="cls-2"/><polygon points="300.72 123.8 304.99 115.9 296.02 116.15 300.72 123.8" class="cls-2"/></svg>