<svg xmlns="http://www.w3.org/2000/svg" id="Layer_1" data-name="Layer 1" viewBox="0 0 645.01 487.13"><defs><style>.cls-1,.cls-4,.cls-6{opacity:.5}.cls-1,.cls-21,.cls-25,.cls-6{font-size:14px}.cls-1{fill:#343434}.cls-1,.cls-21,.cls-25,.cls-29,.cls-48,.cls-6{font-family:IBMPlexSans-Medium,IBM Plex Sans}.cls-2,.cls-3{letter-spacing:-.01em}.cls-5{fill:#973995}.cls-25,.cls-29,.cls-50,.cls-54,.cls-6{fill:#4272b8}.cls-7,.cls-8{letter-spacing:-.01em}.cls-9{font-size:11px;fill:#231f20;font-family:IBMPlexSans,IBM Plex Sans}.cls-10,.cls-11,.cls-12,.cls-13{letter-spacing:-.01em}.cls-14{letter-spacing:-.02em}.cls-15,.cls-16{letter-spacing:0}.cls-17{letter-spacing:-.02em}.cls-18{letter-spacing:0}.cls-19,.cls-20{letter-spacing:-.01em}.cls-21{fill:#bb9930}.cls-22,.cls-23{letter-spacing:0}.cls-24{letter-spacing:-.02em}.cls-26{letter-spacing:-.01em}.cls-27{letter-spacing:.01em}.cls-28{letter-spacing:-.01em}.cls-29{font-size:13.66px}.cls-30,.cls-31,.cls-32,.cls-33{letter-spacing:-.01em}.cls-34{letter-spacing:0}.cls-35{letter-spacing:-.01em}.cls-36{letter-spacing:0}.cls-37{letter-spacing:-.02em}.cls-38{letter-spacing:-.06em}.cls-39{letter-spacing:-.01em}.cls-40{letter-spacing:0}.cls-41,.cls-42{letter-spacing:-.01em}.cls-43{letter-spacing:.01em}.cls-44{letter-spacing:-.01em}.cls-45{letter-spacing:-.02em}.cls-46{letter-spacing:0}.cls-47{letter-spacing:-.02em}.cls-49,.cls-51{fill:none;stroke-miterlimit:10;stroke-width:2px}.cls-49{stroke:#4272b8}.cls-51{stroke:#bc9a30}.cls-52{fill:#bc9a30}.cls-53{fill:#f2f6fc}.cls-54{font-size:32px;font-family:IBMPlexSans-Bold,IBM Plex Sans;font-weight:700}</style></defs><title>updates</title><text class="cls-1" transform="translate(180.66 253.96) scale(1.04 1)">D<tspan x="9.56" y="0" class="cls-2">e</tspan><tspan x="17.22" y="0" class="cls-3">v</tspan><tspan x="24.28" y="0">eloper</tspan></text><g class="cls-4"><path d="M214.54,179.77c9.82,0,17.8,7.7,17.8,17.17s-8,17.17-17.8,17.17-17.8-7.7-17.8-17.17,8-17.17,17.8-17.17m0-3c-11.54,0-20.89,9-20.89,20.16S203,217.1,214.54,217.1s20.9-9,20.9-20.16-9.36-20.16-20.9-20.16Z" class="cls-5"/><path d="M197.1,221.58H232a5,5,0,0,1,5,5v9.93a0,0,0,0,1,0,0H192.1a0,0,0,0,1,0,0v-9.93A5,5,0,0,1,197.1,221.58Z" class="cls-5"/></g><text class="cls-6" transform="translate(20.83 387.78)"><tspan class="cls-7">E</tspan><tspan x="8.16" y="0">d</tspan><tspan x="16.45" y="0" class="cls-8">g</tspan><tspan x="23.88" y="0">e node</tspan><tspan class="cls-9"><tspan x="0" y="13.2" xml:space="preserve">- In</tspan><tspan x="20.23" y="13.2" class="cls-10">s</tspan><tspan x="25.51" y="13.2">ta</tspan><tspan x="35.24" y="13.2" class="cls-11">l</tspan><tspan x="38.18" y="13.2">l Hori</tspan><tspan x="64.49" y="13.2" class="cls-12">z</tspan><tspan x="69.49" y="13.2">on on ed</tspan><tspan x="111.91" y="13.2" class="cls-13">g</tspan><tspan x="117.65" y="13.2">e nodes </tspan><tspan x="0" y="26.4" xml:space="preserve">- </tspan><tspan x="9.58" y="26.4" class="cls-14">R</tspan><tspan x="16.46" y="26.4">egi</tspan><tspan x="31.05" y="26.4" class="cls-10">s</tspan><tspan x="36.33" y="26.4" class="cls-15">t</tspan><tspan x="40.15" y="26.4">er ed</tspan><tspan x="65.24" y="26.4" class="cls-13">g</tspan><tspan x="70.98" y="26.4">e node</tspan><tspan x="0" y="39.6" xml:space="preserve">- Confi</tspan><tspan x="35.06" y="39.6" class="cls-15">g</tspan><tspan x="40.82" y="39.6">u</tspan><tspan x="47.07" y="39.6" class="cls-16">r</tspan><tspan x="51.05" y="39.6">e o</tspan><tspan x="65.85" y="39.6" class="cls-17">r</tspan><tspan x="69.63" y="39.6" class="cls-18">g</tspan><tspan x="75.4" y="39.6">anization ID</tspan><tspan x="0" y="52.8" xml:space="preserve">- Set up IBM E</tspan><tspan x="73.21" y="52.8" class="cls-19">v</tspan><tspan x="78.54" y="52.8">ent St</tspan><tspan x="107.53" y="52.8" class="cls-11">r</tspan><tspan x="111.52" y="52.8">eams</tspan><tspan x="0" y="66" xml:space="preserve">- Set unique ed</tspan><tspan x="77.39" y="66" class="cls-13">g</tspan><tspan x="83.14" y="66">e node identifier</tspan><tspan x="0" y="79.2" xml:space="preserve">- Set del</tspan><tspan x="43.88" y="79.2" class="cls-16">o</tspan><tspan x="49.98" y="79.2">yment pa</tspan><tspan x="96.07" y="79.2" class="cls-20">t</tspan><tspan x="99.83" y="79.2" class="cls-15">t</tspan><tspan x="103.65" y="79.2">ern</tspan></tspan></text><text class="cls-21" transform="translate(485.93 212.41)">Code upd<tspan x="60.84" y="0" class="cls-22">a</tspan><tspan x="68.49" y="0" class="cls-23">t</tspan><tspan x="73.54" y="0">es</tspan><tspan class="cls-9"><tspan x="0" y="13.2">Updating </tspan><tspan x="47.35" y="13.2" class="cls-16">y</tspan><tspan x="52.79" y="13.2">our </tspan><tspan x="71.83" y="13.2" class="cls-13">c</tspan><tspan x="77.3" y="13.2">ode is simple:</tspan><tspan x="0" y="26.4">1. Ma</tspan><tspan x="26.99" y="26.4" class="cls-24">k</tspan><tspan x="32.6" y="26.4">e </tspan><tspan x="41.24" y="26.4" class="cls-13">c</tspan><tspan x="46.71" y="26.4">ode chan</tspan><tspan x="91.78" y="26.4" class="cls-13">g</tspan><tspan x="97.52" y="26.4">es</tspan><tspan x="0" y="39.6">2. push</tspan><tspan x="0" y="52.8">3. sign</tspan><tspan x="0" y="66">4. publish</tspan></tspan></text><text class="cls-25" transform="translate(326.69 389.66)">Sign and publish<tspan class="cls-9"><tspan x="0" y="13.2" xml:space="preserve">- Push, sign, and publish </tspan><tspan x="125.48" y="13.2" class="cls-13">c</tspan><tspan x="130.95" y="13.2">ontainers </tspan><tspan x="0" y="26.4" xml:space="preserve">- Add the </tspan><tspan x="50.73" y="26.4" class="cls-13">c</tspan><tspan x="56.2" y="26.4">ontainers </tspan><tspan x="105.37" y="26.4" class="cls-15">t</tspan><tspan x="109.18" y="26.4">o depl</tspan><tspan x="139.73" y="26.4" class="cls-11">o</tspan><tspan x="145.83" y="26.4">yment pa</tspan><tspan x="191.92" y="26.4" class="cls-26">t</tspan><tspan x="195.69" y="26.4" class="cls-15">t</tspan><tspan x="199.5" y="26.4">erns </tspan><tspan x="0" y="39.6" xml:space="preserve">- AgBots au</tspan><tspan x="59.72" y="39.6" class="cls-15">t</tspan><tspan x="63.53" y="39.6" class="cls-27">o-</tspan><tspan x="74.3" y="39.6" class="cls-13">c</tspan><tspan x="79.77" y="39.6">onfi</tspan><tspan x="98.42" y="39.6" class="cls-15">g</tspan><tspan x="104.18" y="39.6">u</tspan><tspan x="110.43" y="39.6" class="cls-16">r</tspan><tspan x="114.41" y="39.6">e </tspan><tspan x="123.04" y="39.6" class="cls-15">t</tspan><tspan x="126.86" y="39.6">o mana</tspan><tspan x="163.22" y="39.6" class="cls-13">g</tspan><tspan x="168.96" y="39.6">e ed</tspan><tspan x="190.01" y="39.6" class="cls-28">g</tspan><tspan x="195.75" y="39.6">e </tspan><tspan x="0" y="52.8" xml:space="preserve"> node s</tspan><tspan x="43.16" y="52.8" class="cls-13">o</tspan><tspan x="49.26" y="52.8">ft</tspan><tspan x="56.68" y="52.8" class="cls-20">w</tspan><tspan x="65.03" y="52.8">a</tspan><tspan x="70.9" y="52.8" class="cls-16">r</tspan><tspan x="74.89" y="52.8">e</tspan></tspan></text><text class="cls-29" transform="translate(322.49 201.03) scale(1.02 1)">D<tspan x="9.33" y="0" class="cls-30">e</tspan><tspan x="16.8" y="0" class="cls-31">v</tspan><tspan x="23.69" y="0">elop </tspan><tspan x="54.19" y="0" class="cls-32">c</tspan><tspan x="61.08" y="0">ode</tspan><tspan class="cls-9"><tspan x="0" y="13.2" xml:space="preserve">- </tspan><tspan x="9.58" y="13.2" class="cls-33">W</tspan><tspan x="19.27" y="13.2">ri</tspan><tspan x="26.06" y="13.2" class="cls-34">t</tspan><tspan x="29.88" y="13.2">e </tspan><tspan x="38.51" y="13.2" class="cls-35">c</tspan><tspan x="43.98" y="13.2">ode </tspan><tspan x="65.15" y="13.2" class="cls-36">f</tspan><tspan x="68.67" y="13.2">or ed</tspan><tspan x="93.88" y="13.2" class="cls-35">g</tspan><tspan x="99.63" y="13.2">e node</tspan><tspan x="0" y="26.4" xml:space="preserve">- Include </tspan><tspan x="50.02" y="26.4" class="cls-35">c</tspan><tspan x="55.48" y="26.4">ode within </tspan><tspan x="0" y="39.6">Doc</tspan><tspan x="19.07" y="39.6" class="cls-37">k</tspan><tspan x="24.69" y="39.6">er </tspan><tspan x="37.36" y="39.6" class="cls-35">c</tspan><tspan x="42.83" y="39.6">ontainers</tspan><tspan x="0" y="52.8" xml:space="preserve">- </tspan><tspan x="9.58" y="52.8" class="cls-38">T</tspan><tspan x="15.16" y="52.8">e</tspan><tspan x="21.2" y="52.8" class="cls-39">s</tspan><tspan x="26.48" y="52.8">t loca</tspan><tspan x="53.49" y="52.8" class="cls-40">l</tspan><tspan x="56.43" y="52.8" class="cls-41">l</tspan><tspan x="59.31" y="52.8">y</tspan><tspan x="0" y="66" xml:space="preserve">- Simula</tspan><tspan x="43.44" y="66" class="cls-36">t</tspan><tspan x="47.25" y="66">e p</tspan><tspan x="62.27" y="66" class="cls-42">r</tspan><tspan x="66.25" y="66">oduction </tspan><tspan x="0" y="79.2">depl</tspan><tspan x="21.79" y="79.2" class="cls-42">o</tspan><tspan x="27.9" y="79.2">yment</tspan></tspan></text><text class="cls-6" transform="translate(145.83 87.01)">Set up cloud se<tspan x="97.72" y="0" class="cls-43">r</tspan><tspan x="103.21" y="0">vi</tspan><tspan x="114.08" y="0" class="cls-44">c</tspan><tspan x="121.14" y="0">es</tspan><tspan class="cls-9"><tspan x="0" y="13.2" class="cls-45">F</tspan><tspan x="5.93" y="13.2" class="cls-11">r</tspan><tspan x="9.91" y="13.2">om the IBM Cloud </tspan><tspan x="101.33" y="13.2" class="cls-16">w</tspan><tspan x="109.72" y="13.2">eb in</tspan><tspan x="133.74" y="13.2" class="cls-15">t</tspan><tspan x="137.55" y="13.2">e</tspan><tspan x="143.59" y="13.2" class="cls-46">r</tspan><tspan x="147.67" y="13.2">fa</tspan><tspan x="157.11" y="13.2" class="cls-13">c</tspan><tspan x="162.58" y="13.2" class="cls-47">e</tspan><tspan x="168.4" y="13.2">, </tspan><tspan x="0" y="26.4" xml:space="preserve">- C</tspan><tspan x="16.41" y="26.4" class="cls-16">r</tspan><tspan x="20.39" y="26.4">ea</tspan><tspan x="32.31" y="26.4" class="cls-15">t</tspan><tspan x="36.12" y="26.4">e user a</tspan><tspan x="74.91" y="26.4" class="cls-28">cc</tspan><tspan x="85.84" y="26.4">ount</tspan><tspan x="0" y="39.6" xml:space="preserve">- C</tspan><tspan x="16.41" y="39.6" class="cls-16">r</tspan><tspan x="20.39" y="39.6">ea</tspan><tspan x="32.31" y="39.6" class="cls-15">t</tspan><tspan x="36.12" y="39.6">e o</tspan><tspan x="50.92" y="39.6" class="cls-17">r</tspan><tspan x="54.7" y="39.6" class="cls-18">g</tspan><tspan x="60.48" y="39.6">anization ID</tspan><tspan x="0" y="52.8" xml:space="preserve">- Set up IBM E</tspan><tspan x="73.21" y="52.8" class="cls-19">v</tspan><tspan x="78.54" y="52.8">ent St</tspan><tspan x="107.53" y="52.8" class="cls-11">r</tspan><tspan x="111.52" y="52.8">eams</tspan></tspan></text><text class="cls-6" transform="translate(42.45 172.39)">IBM Cloud<tspan class="cls-9"><tspan x="0" y="13.2">O</tspan><tspan x="7.79" y="13.2" class="cls-13">p</tspan><tspan x="14.1" y="13.2">tiona</tspan><tspan x="39" y="13.2" class="cls-11">l</tspan><tspan x="41.93" y="13.2" class="cls-12">l</tspan><tspan x="44.81" y="13.2">y </tspan><tspan x="52.9" y="13.2" class="cls-13">c</tspan><tspan x="58.36" y="13.2">onnect </tspan><tspan x="0" y="26.4" class="cls-26">v</tspan><tspan x="5.31" y="26.4">arious IBM and </tspan><tspan x="0" y="39.6">thi</tspan><tspan x="12.86" y="39.6" class="cls-13">r</tspan><tspan x="16.83" y="39.6">d pa</tspan><tspan x="38.06" y="39.6" class="cls-46">r</tspan><tspan x="42.14" y="39.6">ty cloud </tspan><tspan x="0" y="52.8">and data se</tspan><tspan x="57.08" y="52.8" class="cls-27">r</tspan><tspan x="61.23" y="52.8">vi</tspan><tspan x="69.39" y="52.8" class="cls-13">c</tspan><tspan x="74.85" y="52.8">e</tspan><tspan x="80.89" y="52.8" class="cls-16">s</tspan><tspan x="86.2" y="52.8">, </tspan><tspan x="0" y="66">ana</tspan><tspan x="18" y="66" class="cls-12">l</tspan><tspan x="20.88" y="66">ytic</tspan><tspan x="38.51" y="66" class="cls-11">s</tspan><tspan x="43.81" y="66">, and</tspan><tspan x="0" y="79.2" class="cls-13">c</tspan><tspan x="5.47" y="79.2">ogniti</tspan><tspan x="33.04" y="79.2" class="cls-19">v</tspan><tspan x="38.37" y="79.2">e solution</tspan><tspan x="86.78" y="79.2" class="cls-48">s</tspan></tspan></text><g class="cls-4"><path d="M49.79,267.09c-5.88,16.8,0,35.13,14.79,43" class="cls-49"/><polygon points="45.22 266.57 52.4 261.18 53.48 270.09 45.22 266.57" class="cls-50"/></g><path d="M401.37,306.36c6.5-5.95,8.9-18.27,5.3-31" class="cls-49"/><polygon points="404.71 309.28 395.74 309.54 400 301.64 404.71 309.28" class="cls-50"/><path d="M429.33,337c68-47.34,68.44-129.47-.37-186.26" class="cls-51"/><polygon points="432.91 339.92 423.95 340.53 427.9 332.47 432.91 339.92" class="cls-52"/><path d="M336.92,150.48c-76.58,41.41-85.41,125-18.72,189.5" class="cls-51"/><polygon points="333.69 147.15 342.66 147.52 337.85 155.1 333.69 147.15" class="cls-52"/><g class="cls-4"><path d="M127.23,359.59c67,54.44,159.47,53.05,209.25-4.16" class="cls-49"/><polygon points="125.38 363.85 122.28 355.43 131.12 356.95 125.38 363.85" class="cls-50"/></g><g class="cls-4"><path d="M384.28,110.56C379.52,69,329.2,36.34,267.71,36.34" class="cls-49"/><polygon points="388.59 108.95 384.64 117.01 379.63 109.56 388.59 108.95" class="cls-50"/></g><path d="M375.12,372.33c-18.49,0-33.53-12.94-33.53-28.85s15-28.85,33.53-28.85,33.53,12.94,33.53,28.85S393.61,372.33,375.12,372.33Z" class="cls-53"/><path d="M375.12,315.63c17.94,0,32.53,12.49,32.53,27.85s-14.59,27.85-32.53,27.85-32.53-12.49-32.53-27.85,14.59-27.85,32.53-27.85m0-2c-19.07,0-34.53,13.36-34.53,29.85s15.46,29.85,34.53,29.85,34.53-13.36,34.53-29.85-15.46-29.85-34.53-29.85Z" class="cls-50"/><text class="cls-54" transform="translate(365.52 352.87)">3</text><path d="M387.39,185.31c-18.49,0-33.53-12.94-33.53-28.85s15-28.85,33.53-28.85,33.54,12.94,33.54,28.85S405.88,185.31,387.39,185.31Z" class="cls-53"/><path d="M387.39,128.61c17.94,0,32.54,12.5,32.54,27.85s-14.6,27.85-32.54,27.85-32.53-12.49-32.53-27.85,14.59-27.85,32.53-27.85m0-2c-19.07,0-34.53,13.37-34.53,29.85s15.46,29.85,34.53,29.85,34.54-13.36,34.54-29.85-15.47-29.85-34.54-29.85Z" class="cls-50"/><text class="cls-54" transform="translate(377.79 165.86)">2</text><g class="cls-4"><path d="M77,155.46c-18.49,0-33.53-12.94-33.53-28.85S58.49,97.76,77,97.76s33.53,12.95,33.53,28.85S95.47,155.46,77,155.46Z" class="cls-53"/><path d="M77,98.76c17.94,0,32.53,12.5,32.53,27.85S94.92,154.46,77,154.46,44.45,142,44.45,126.61,59,98.76,77,98.76m0-2c-19.07,0-34.53,13.37-34.53,29.85S57.91,156.46,77,156.46s34.53-13.36,34.53-29.85S96.05,96.76,77,96.76Z" class="cls-50"/><text class="cls-54" transform="translate(67.38 136.01)">5</text></g><g class="cls-4"><path d="M80.92,368.83c-18.49,0-33.53-12.94-33.53-28.85s15-28.85,33.53-28.85,33.53,12.94,33.53,28.85S99.41,368.83,80.92,368.83Z" class="cls-53"/><path d="M80.92,312.13c17.94,0,32.53,12.49,32.53,27.85s-14.59,27.85-32.53,27.85S48.39,355.33,48.39,340,63,312.13,80.92,312.13m0-2c-19.07,0-34.53,13.36-34.53,29.85s15.46,29.85,34.53,29.85,34.53-13.37,34.53-29.85S100,310.13,80.92,310.13Z" class="cls-50"/><text class="cls-54" transform="translate(71.32 349.37)">4</text></g><g class="cls-4"><path d="M217.64,69.64c-18.49,0-33.53-12.94-33.53-28.85s15-28.85,33.53-28.85,33.53,12.94,33.53,28.85S236.13,69.64,217.64,69.64Z" class="cls-53"/><path d="M217.64,12.94c17.94,0,32.53,12.49,32.53,27.85s-14.59,27.85-32.53,27.85-32.53-12.49-32.53-27.85,14.59-27.85,32.53-27.85m0-2c-19.07,0-34.53,13.36-34.53,29.85s15.46,29.85,34.53,29.85,34.53-13.36,34.53-29.85-15.46-29.85-34.53-29.85Z" class="cls-50"/><text class="cls-54" transform="translate(208.04 50.18)">1</text></g></svg>