<svg xmlns="http://www.w3.org/2000/svg" id="Layer_1" data-name="Layer 1" viewBox="0 0 940.44 602.24"><defs><style>.cls-1,.cls-10,.cls-85{font-size:14px}.cls-1{fill:#343434}.cls-1,.cls-10,.cls-33,.cls-46,.cls-85{font-family:IBMPlexSans-Medium,IBM Plex Sans}.cls-2,.cls-3{letter-spacing:-.01em}.cls-4{fill:#983895}.cls-14,.cls-17,.cls-40,.cls-44,.cls-5,.cls-8,.cls-82,.cls-99{fill:none}.cls-19,.cls-5{stroke:#038571}.cls-101,.cls-14,.cls-17,.cls-19,.cls-40,.cls-44,.cls-5,.cls-71,.cls-8,.cls-82,.cls-99{stroke-miterlimit:10}.cls-101,.cls-17,.cls-19,.cls-5,.cls-71,.cls-8,.cls-82,.cls-99{stroke-width:2px}.cls-6{fill:#038571}.cls-12,.cls-7{font-size:11px}.cls-10,.cls-33,.cls-46,.cls-7,.cls-98{fill:#231f20}.cls-12,.cls-23,.cls-41,.cls-54,.cls-7,.cls-88,.cls-89,.cls-90,.cls-91,.cls-92,.cls-93{font-family:IBMPlexSans,IBM Plex Sans}.cls-71,.cls-8{stroke:#bc9a30}.cls-9{fill:#bc9a30}.cls-11,.cls-13{letter-spacing:-.01em}.cls-14,.cls-44{stroke:#7aa0d4}.cls-14{stroke-width:5px}.cls-15{fill:#7aa0d4}.cls-16{fill:#f2f6fc}.cls-17{stroke:#983995}.cls-18{fill:#983995}.cls-19{fill:#e2e8e6}.cls-20{fill:#4272b8}.cls-21,.cls-22{letter-spacing:-.01em}.cls-23{font-size:9px}.cls-24,.cls-25{letter-spacing:-.01em}.cls-26{letter-spacing:0}.cls-27{letter-spacing:.01em}.cls-28,.cls-29{letter-spacing:-.01em}.cls-30{letter-spacing:0}.cls-31{fill:#e6e7e8}.cls-32{fill:#58595b}.cls-33{font-size:13px}.cls-34{letter-spacing:-.01em}.cls-35{letter-spacing:0}.cls-36{letter-spacing:-.01em}.cls-37{letter-spacing:.01em}.cls-38{letter-spacing:-.02em}.cls-39{letter-spacing:0}.cls-40{stroke:#a4a4a5;stroke-width:2.11px}.cls-41,.cls-88,.cls-89,.cls-90,.cls-91,.cls-92,.cls-93{font-size:10.82px}.cls-41,.cls-85{fill:#010101}.cls-42{letter-spacing:-.01em}.cls-43{letter-spacing:0}.cls-44{stroke-width:1.55px}.cls-45{letter-spacing:-.01em}.cls-46,.cls-54{font-size:12px}.cls-47,.cls-48{letter-spacing:0}.cls-49,.cls-50{letter-spacing:-.01em}.cls-51{letter-spacing:-.02em}.cls-52,.cls-53,.cls-55{letter-spacing:-.01em}.cls-56,.cls-57{letter-spacing:0}.cls-58{letter-spacing:-.01em}.cls-59{letter-spacing:-.02em}.cls-60{letter-spacing:-.01em}.cls-61{letter-spacing:.01em}.cls-62,.cls-63,.cls-64{letter-spacing:-.01em}.cls-65{letter-spacing:0}.cls-66{letter-spacing:.01em}.cls-67{letter-spacing:0}.cls-68,.cls-69{letter-spacing:-.01em}.cls-70{letter-spacing:0}.cls-71{fill:#f4dd9d}.cls-72,.cls-73,.cls-74{letter-spacing:-.01em}.cls-75{letter-spacing:0}.cls-76{letter-spacing:-.01em}.cls-77,.cls-78,.cls-89{letter-spacing:0}.cls-79,.cls-80,.cls-92,.cls-93{letter-spacing:-.01em}.cls-81{letter-spacing:0}.cls-82{stroke:#4272b8}.cls-83{letter-spacing:-.03em}.cls-84{letter-spacing:.01em}.cls-86,.cls-87,.cls-90,.cls-95{letter-spacing:0}.cls-91{letter-spacing:.01em}.cls-94,.cls-96,.cls-97{letter-spacing:-.01em}.cls-98{font-size:21px;font-family:MyriadPro-Regular,Myriad Pro}.cls-99{stroke:#fbb040}.cls-100{fill:#fbb040}.cls-101{fill:#b7e2e7;stroke:#94d5d8}</style></defs><title>Whole</title><text class="cls-1" transform="translate(353 102.42) scale(1.04 1)">D<tspan x="9.56" y="0" class="cls-2">e</tspan><tspan x="17.22" y="0" class="cls-3">v</tspan><tspan x="24.28" y="0">eloper</tspan></text><path d="M386.89,28.37c9.81,0,17.8,7.7,17.8,17.17s-8,17.17-17.8,17.17-17.8-7.7-17.8-17.17,8-17.17,17.8-17.17m0-3c-11.54,0-20.9,9-20.9,20.16s9.36,20.16,20.9,20.16,20.89-9,20.89-20.16-9.35-20.16-20.89-20.16Z" class="cls-4"/><path d="M369.44,70.18h34.89a5,5,0,0,1,5,5v9.93a0,0,0,0,1,0,0H364.44a0,0,0,0,1,0,0V75.18A5,5,0,0,1,369.44,70.18Z" class="cls-4"/><line x1="355.73" x2="269.84" y1="58.83" y2="58.83" class="cls-5"/><polygon points="271.15 54.34 263.38 58.83 271.15 63.32 271.15 54.34" class="cls-6"/><text class="cls-7" transform="translate(285.78 53.68)">Code for edge</text><line x1="417.74" x2="503.63" y1="58.83" y2="58.83" class="cls-8"/><polygon points="502.31 63.32 510.08 58.83 502.31 54.34 502.31 63.32" class="cls-9"/><text class="cls-7" transform="translate(419.27 53.68)">Code for cloud</text><text class="cls-10" transform="translate(26.2 405.2)">A<tspan x="9.27" y="0" class="cls-11">g</tspan><tspan x="16.7" y="0">ents</tspan><tspan x="44.63" y="0" class="cls-12" xml:space="preserve"> run </tspan><tspan class="cls-12"><tspan x="0" y="13.2">on each ed</tspan><tspan x="53.71" y="13.2" class="cls-13">g</tspan><tspan x="59.45" y="13.2">e </tspan><tspan x="0" y="26.4">node</tspan></tspan></text><line x1="712.82" x2="712.82" y1="298.18" y2="518.36" class="cls-14"/><polygon points="701.6 301.47 712.82 282.04 724.04 301.47 701.6 301.47" class="cls-15"/><polygon points="701.6 515.08 712.82 534.51 724.04 515.08 701.6 515.08" class="cls-15"/><line x1="583.7" x2="583.7" y1="167.78" y2="332.22" class="cls-8"/><polygon points="579.21 330.9 583.7 338.68 588.19 330.9 579.21 330.9" class="cls-9"/><line x1="254.18" x2="295.22" y1="494.66" y2="494.66" class="cls-5"/><polygon points="293.91 499.15 301.68 494.66 293.91 490.18 293.91 499.15" class="cls-6"/><line x1="253.8" x2="294.85" y1="422.54" y2="422.54" class="cls-5"/><polygon points="293.53 427.03 301.31 422.55 293.53 418.06 293.53 427.03" class="cls-6"/><line x1="253.8" x2="294.85" y1="350.5" y2="350.5" class="cls-5"/><polygon points="293.53 354.99 301.31 350.5 293.53 346.01 293.53 354.99" class="cls-6"/><line x1="666.81" x2="450.57" y1="245.09" y2="244.11" class="cls-16"/><line x1="666.81" x2="457.03" y1="245.09" y2="244.14" class="cls-17"/><polygon points="458.36 239.66 450.57 244.12 458.32 248.64 458.36 239.66" class="cls-18"/><line x1="247.32" x2="285.19" y1="322.47" y2="275.46" class="cls-16"/><line x1="247.32" x2="281.14" y1="322.47" y2="280.49" class="cls-17"/><polygon points="283.81 284.33 285.19 275.46 276.82 278.7 283.81 284.33" class="cls-18"/><line x1="235.48" x2="300.31" y1="144.69" y2="212.52" class="cls-5"/><polygon points="296.16 214.68 304.77 217.19 302.65 208.47 296.16 214.68" class="cls-6"/><line x1="180.55" x2="180.55" y1="168.38" y2="210.73" class="cls-5"/><polygon points="176.06 209.42 180.55 217.19 185.03 209.42 176.06 209.42" class="cls-6"/><line x1="180.55" x2="180.55" y1="265.67" y2="315.01" class="cls-5"/><polygon points="176.06 313.69 180.55 321.46 185.03 313.69 176.06 313.69" class="cls-6"/><rect width="116.32" height="27" x="315.4" y="336.92" class="cls-19"/><path d="M283.06,221.86H421.25A19.54,19.54,0,0,1,440.8,241.4v7.51a19.54,19.54,0,0,1-19.54,19.54H283.06a19.54,19.54,0,0,1-19.54-19.54V241.4A19.55,19.55,0,0,1,283.06,221.86Z" class="cls-16"/><path d="M421.25,222.86A18.57,18.57,0,0,1,439.8,241.4v7.52a18.57,18.57,0,0,1-18.55,18.54H283.06a18.57,18.57,0,0,1-18.55-18.54V241.4a18.57,18.57,0,0,1,18.55-18.54H421.25m0-2H283.06a20.55,20.55,0,0,0-20.55,20.54v7.52a20.55,20.55,0,0,0,20.55,20.54H421.25a20.55,20.55,0,0,0,20.55-20.54V241.4a20.55,20.55,0,0,0-20.55-20.54Z" class="cls-20"/><text class="cls-10" transform="translate(317.35 241.96) scale(1.05 1)">E<tspan x="8.3" y="0" class="cls-21">x</tspan><tspan x="15.53" y="0">chan</tspan><tspan x="46.59" y="0" class="cls-22">g</tspan><tspan x="54.03" y="0">e</tspan><tspan class="cls-23"><tspan x="-24.47" y="12.96">(Dis</tspan><tspan x="-8.78" y="12.96" class="cls-24">c</tspan><tspan x="-4.31" y="12.96" class="cls-25">ov</tspan><tspan x="5.02" y="12.96" class="cls-26">e</tspan><tspan x="9.96" y="12.96" class="cls-27">r</tspan><tspan x="13.35" y="12.96">y &amp; </tspan><tspan x="28.34" y="12.96" class="cls-28">P</tspan><tspan x="33.7" y="12.96" class="cls-26">a</tspan><tspan x="38.5" y="12.96" class="cls-29">t</tspan><tspan x="41.58" y="12.96" class="cls-30">t</tspan><tspan x="44.71" y="12.96" class="cls-26">ern Mgmt)</tspan></tspan></text><path d="M120.74,221.86h98.55a19.54,19.54,0,0,1,19.54,19.54v7.51a19.55,19.55,0,0,1-19.55,19.55H120.74a19.54,19.54,0,0,1-19.54-19.54V241.4A19.54,19.54,0,0,1,120.74,221.86Z" class="cls-31"/><path d="M219.29,222.86a18.56,18.56,0,0,1,18.54,18.54v7.52a18.56,18.56,0,0,1-18.54,18.54H120.74a18.56,18.56,0,0,1-18.54-18.54V241.4a18.56,18.56,0,0,1,18.54-18.54h98.55m0-2H120.74A20.54,20.54,0,0,0,100.2,241.4v7.52a20.54,20.54,0,0,0,20.54,20.54h98.55a20.54,20.54,0,0,0,20.54-20.54V241.4a20.54,20.54,0,0,0-20.54-20.54Z" class="cls-32"/><text class="cls-33" transform="translate(145.17 241.96) scale(1.05 1)"><tspan class="cls-34">R</tspan><tspan x="8.32" y="0" class="cls-35">egi</tspan><tspan x="25.97" y="0" class="cls-36">s</tspan><tspan x="32.3" y="0">t</tspan><tspan x="37.05" y="0" class="cls-37">r</tspan><tspan x="42.15" y="0">y </tspan><tspan class="cls-23"><tspan x="-21.06" y="12.96">(Doc</tspan><tspan x="-2.44" y="12.96" class="cls-38">k</tspan><tspan x="2.15" y="12.96">er Hub or </tspan><tspan x="41.81" y="12.96" class="cls-28">P</tspan><tspan x="47.17" y="12.96">ri</tspan><tspan x="52.72" y="12.96" class="cls-29">v</tspan><tspan x="57.07" y="12.96">a</tspan><tspan x="61.88" y="12.96" class="cls-39">t</tspan><tspan x="65" y="12.96">e)</tspan></tspan></text><path d="M365.15,590.73a24,24,0,0,1,0-48H467.3a24,24,0,0,1,0,48Z" class="cls-16"/><path d="M467.3,543.73a23,23,0,0,1,0,46H365.15a23,23,0,0,1,0-46H467.3m0-2H365.15a25,25,0,0,0-25,25h0a25,25,0,0,0,25,25H467.3a25,25,0,0,0,25-25h0a25,25,0,0,0-25-25Z" class="cls-20"/><rect width="341.85" height="44.84" x="112.04" y="328" class="cls-40"/><text class="cls-41" transform="translate(172.46 353.12)">A<tspan x="6.93" y="0" class="cls-42">g</tspan><tspan x="12.58" y="0" class="cls-43">ent</tspan></text><polygon points="253.43 364 120.91 364 120.94 337 253.43 337 253.43 364" class="cls-44"/><text class="cls-41" transform="translate(114.33 321.47)"><tspan class="cls-45">E</tspan><tspan x="6.2" y="0" class="cls-43">d</tspan><tspan x="12.47" y="0" class="cls-42">g</tspan><tspan x="18.12" y="0">e node</tspan></text><text class="cls-46" transform="translate(379.71 562.03) scale(1.05 1)">Swi<tspan x="19.94" y="0" class="cls-47">t</tspan><tspan x="24.28" y="0">chboa</tspan><tspan x="57.82" y="0" class="cls-48">r</tspan><tspan x="62.35" y="0">d</tspan><tspan class="cls-23"><tspan x="-9.77" y="12.96">(P2P Me</tspan><tspan x="23.92" y="12.96" class="cls-24">s</tspan><tspan x="28.25" y="12.96">sa</tspan><tspan x="37.44" y="12.96" class="cls-49">g</tspan><tspan x="42.14" y="12.96">e B</tspan><tspan x="55.08" y="12.96" class="cls-50">r</tspan><tspan x="58.34" y="12.96">o</tspan><tspan x="63.38" y="12.96" class="cls-51">k</tspan><tspan x="67.97" y="12.96" class="cls-26">er)</tspan></tspan></text><path d="M122.55,47.77V152.06c33.75,70.4,58,0,116,0V47.77Z" class="cls-19"/><text class="cls-10" transform="translate(135.86 64.36)">D<tspan x="9.56" y="0" class="cls-52">e</tspan><tspan x="17.22" y="0" class="cls-53">v</tspan><tspan x="24.28" y="0">eloper </tspan><tspan x="0" y="16.8">ed</tspan><tspan x="16.07" y="16.8" class="cls-11">g</tspan><tspan x="23.51" y="16.8">e </tspan><tspan x="34.59" y="16.8" class="cls-11">c</tspan><tspan x="41.65" y="16.8">ode</tspan><tspan class="cls-54"><tspan x="0" y="45.6">(A</tspan><tspan x="11.71" y="45.6" class="cls-55">n</tspan><tspan x="18.43" y="45.6" class="cls-56">y lan</tspan><tspan x="43.74" y="45.6" class="cls-57">g</tspan><tspan x="50.03" y="45.6">ua</tspan><tspan x="63.25" y="45.6" class="cls-58">g</tspan><tspan x="69.52" y="45.6" class="cls-59">e</tspan><tspan x="75.86" y="45.6">, </tspan><tspan x="0" y="60" class="cls-58">c</tspan><tspan x="5.96" y="60">ontaineri</tspan><tspan x="53.93" y="60" class="cls-60">z</tspan><tspan x="59.38" y="60">ed, </tspan><tspan x="0" y="74.4">c</tspan><tspan x="6.04" y="74.4" class="cls-61">r</tspan><tspan x="10.56" y="74.4">y</tspan><tspan x="16.55" y="74.4" class="cls-62">p</tspan><tspan x="23.44" y="74.4" class="cls-57">t</tspan><tspan x="27.6" y="74.4">og</tspan><tspan x="40.66" y="74.4" class="cls-57">r</tspan><tspan x="45.01" y="74.4">aphica</tspan><tspan x="80.64" y="74.4" class="cls-63">l</tspan><tspan x="83.84" y="74.4" class="cls-64">l</tspan><tspan x="86.99" y="74.4" class="cls-65">y </tspan><tspan x="0" y="88.8">self-signed)</tspan></tspan></text><text class="cls-7" transform="translate(184.87 186)">Push <tspan x="0" y="13.2" class="cls-13">c</tspan><tspan x="5.47" y="13.2">ontainers</tspan></text><text class="cls-7" transform="translate(276.38 150.7)">Sign and publish <tspan x="0" y="13.2">se</tspan><tspan x="11.4" y="13.2" class="cls-66">r</tspan><tspan x="15.54" y="13.2">vi</tspan><tspan x="23.71" y="13.2" class="cls-13">c</tspan><tspan x="29.17" y="13.2">e</tspan><tspan x="35.21" y="13.2" class="cls-67">s</tspan><tspan x="40.51" y="13.2">, depl</tspan><tspan x="67.89" y="13.2" class="cls-68">o</tspan><tspan x="74" y="13.2">yment </tspan><tspan x="0" y="26.4">pa</tspan><tspan x="12.25" y="26.4" class="cls-69">t</tspan><tspan x="16.02" y="26.4" class="cls-70">t</tspan><tspan x="19.83" y="26.4">erns</tspan></text><text class="cls-7" transform="translate(157.68 283.6)">Pu<tspan x="12.91" y="0" class="cls-67">l</tspan><tspan x="15.85" y="0">l </tspan><tspan x="-33.2" y="13.2" class="cls-13">c</tspan><tspan x="-27.73" y="13.2">ontainers</tspan></text><path d="M534.92,46.89V151.18c33.75,70.4,58,0,116,0V46.89Z" class="cls-71"/><text class="cls-10" transform="translate(543.92 65.49)">D<tspan x="9.56" y="0" class="cls-52">e</tspan><tspan x="17.22" y="0" class="cls-53">v</tspan><tspan x="24.28" y="0">eloper </tspan><tspan x="0" y="16.8">cloud </tspan><tspan x="38.74" y="16.8" class="cls-11">c</tspan><tspan x="45.79" y="16.8">ode</tspan><tspan class="cls-54"><tspan x="0" y="45.6">(Cloud machines </tspan><tspan x="0" y="60">can also be Hori</tspan><tspan x="86.15" y="60">-</tspan><tspan x="0" y="74.4" class="cls-60">z</tspan><tspan x="5.45" y="74.4">on ed</tspan><tspan x="35.36" y="74.4" class="cls-58">g</tspan><tspan x="41.63" y="74.4">e nodes)</tspan></tspan></text><text class="cls-7" transform="translate(592.46 188.73)"><tspan class="cls-72">P</tspan><tspan x="6.56" y="0" class="cls-68">r</tspan><tspan x="10.54" y="0" class="cls-73">o</tspan><tspan x="16.61" y="0">vision cloud </tspan><tspan x="0" y="13.2" class="cls-67">r</tspan><tspan x="3.98" y="13.2">esou</tspan><tspan x="27.79" y="13.2" class="cls-68">r</tspan><tspan x="31.77" y="13.2" class="cls-13">c</tspan><tspan x="37.24" y="13.2">e</tspan><tspan x="43.27" y="13.2" class="cls-67">s</tspan><tspan x="48.58" y="13.2">, in</tspan><tspan x="63.16" y="13.2" class="cls-74">s</tspan><tspan x="68.44" y="13.2">ta</tspan><tspan x="78.18" y="13.2" class="cls-67">l</tspan><tspan x="81.11" y="13.2" class="cls-66">l</tspan><tspan x="84.22" y="13.2">, </tspan><tspan x="0" y="26.4">and moni</tspan><tspan x="45.86" y="26.4" class="cls-75">t</tspan><tspan x="49.68" y="26.4">or cloud </tspan><tspan x="0" y="39.6">s</tspan><tspan x="5.36" y="39.6" class="cls-13">o</tspan><tspan x="11.45" y="39.6">ft</tspan><tspan x="18.88" y="39.6" class="cls-76">w</tspan><tspan x="27.22" y="39.6">a</tspan><tspan x="33.1" y="39.6" class="cls-67">r</tspan><tspan x="37.08" y="39.6">e</tspan></text><rect width="116.32" height="27" x="315.03" y="408.27" class="cls-19"/><rect width="342.22" height="44.84" x="111.67" y="399.35" class="cls-40"/><text class="cls-41" transform="translate(176.52 424.47)">A<tspan x="6.93" y="0" class="cls-42">g</tspan><tspan x="12.58" y="0" class="cls-43">ent</tspan></text><polygon points="253.43 435.35 120.59 435.35 120.63 408.35 253.43 408.35 253.43 435.35" class="cls-44"/><text class="cls-41" transform="translate(114.01 392.81)"><tspan class="cls-45">E</tspan><tspan x="6.2" y="0" class="cls-43">d</tspan><tspan x="12.47" y="0" class="cls-42">g</tspan><tspan x="18.12" y="0">e node</tspan></text><rect width="116.32" height="27" x="314.66" y="479.46" class="cls-19"/><rect width="342.6" height="44.84" x="111.3" y="470.54" class="cls-40"/><text class="cls-41" transform="translate(172.91 495.66)">A<tspan x="6.93" y="0" class="cls-42">g</tspan><tspan x="12.58" y="0" class="cls-43">ent</tspan></text><polygon points="253.43 506.54 120.28 506.54 120.31 479.54 253.43 479.54 253.43 506.54" class="cls-44"/><text class="cls-41" transform="translate(113.69 464)"><tspan class="cls-45">E</tspan><tspan x="6.2" y="0" class="cls-43">d</tspan><tspan x="12.47" y="0" class="cls-42">g</tspan><tspan x="18.12" y="0">e node</tspan></text><text class="cls-41" transform="translate(150.65 557.7)">A<tspan x="6.93" y="0" class="cls-42">g</tspan><tspan x="12.58" y="0" class="cls-43">ents po</tspan><tspan x="48.62" y="0" class="cls-77">l</tspan><tspan x="51.51" y="0">l </tspan><tspan x="57" y="0" class="cls-78">f</tspan><tspan x="60.47" y="0">or </tspan><tspan x="-14.98" y="12.98">ag</tspan><tspan x="-3.49" y="12.98" class="cls-77">r</tspan><tspan x=".43" y="12.98">eement p</tspan><tspan x="46.46" y="12.98" class="cls-79">r</tspan><tspan x="50.38" y="12.98">oposals</tspan><tspan x="-17.43" y="25.97">and send a</tspan><tspan x="35.27" y="25.97" class="cls-80">cc</tspan><tspan x="46.03" y="25.97" class="cls-43">e</tspan><tspan x="51.97" y="25.97" class="cls-80">p</tspan><tspan x="58.18" y="25.97" class="cls-81">tan</tspan><tspan x="73.9" y="25.97" class="cls-80">c</tspan><tspan x="79.28" y="25.97">es</tspan></text><line x1="187.01" x2="187.33" y1="364" y2="408.27" class="cls-14"/><line x1="186.69" x2="187.02" y1="435.27" y2="479.54" class="cls-14"/><line x1="186.85" x2="186.85" y1="506.54" y2="531.64" class="cls-14"/><polygon points="175.64 528.36 186.85 547.78 198.07 528.36 175.64 528.36" class="cls-15"/><line x1="594.08" x2="500.27" y1="568.44" y2="568.44" class="cls-16"/><line x1="594.08" x2="506.73" y1="568.44" y2="568.44" class="cls-82"/><polygon points="508.04 563.95 500.27 568.44 508.04 572.93 508.04 563.95" class="cls-20"/><line x1="240.06" x2="327.42" y1="568.44" y2="568.44" class="cls-82"/><polygon points="326.1 572.93 333.87 568.44 326.1 563.95 326.1 572.93" class="cls-20"/><text class="cls-7" transform="translate(275.9 302.08)">A<tspan x="7.05" y="0" class="cls-13">g</tspan><tspan x="12.79" y="0">ents </tspan><tspan x="36.89" y="0" class="cls-68">r</tspan><tspan x="40.88" y="0">egi</tspan><tspan x="55.47" y="0" class="cls-74">s</tspan><tspan x="60.75" y="0" class="cls-75">t</tspan><tspan x="64.57" y="0">er </tspan><tspan x="77.24" y="0" class="cls-75">f</tspan><tspan x="80.76" y="0">or a </tspan><tspan x=".77" y="13.2">depl</tspan><tspan x="22.56" y="13.2" class="cls-67">o</tspan><tspan x="28.67" y="13.2">yment pa</tspan><tspan x="74.76" y="13.2" class="cls-76">t</tspan><tspan x="78.52" y="13.2" class="cls-75">t</tspan><tspan x="82.33" y="13.2">ern</tspan></text><line x1="271.81" x2="227.04" y1="265.67" y2="318.04" class="cls-5"/><polygon points="224.48 314.13 222.84 322.95 231.3 319.96 224.48 314.13" class="cls-6"/><text class="cls-7" transform="translate(215.13 283.6)"><tspan class="cls-83">V</tspan><tspan x="6.37" y="0">eri</tspan><tspan x="19.19" y="0" class="cls-66">f</tspan><tspan x="22.87" y="0">y </tspan><tspan x="-23.17" y="13.2">signatu</tspan><tspan x="12.98" y="13.2" class="cls-67">r</tspan><tspan x="16.96" y="13.2">es</tspan></text><text class="cls-41" transform="translate(266.69 346.5)">Run</text><text class="cls-41" transform="translate(340.15 353.12)"><tspan class="cls-45">E</tspan><tspan x="6.2" y="0" class="cls-43">d</tspan><tspan x="12.47" y="0" class="cls-42">g</tspan><tspan x="18.12" y="0">e se</tspan><tspan x="37.82" y="0" class="cls-84">r</tspan><tspan x="41.9" y="0">vi</tspan><tspan x="49.93" y="0" class="cls-80">c</tspan><tspan x="55.31" y="0">es</tspan></text><text class="cls-41" transform="translate(340.15 424.47)"><tspan class="cls-45">E</tspan><tspan x="6.2" y="0" class="cls-43">d</tspan><tspan x="12.47" y="0" class="cls-42">g</tspan><tspan x="18.12" y="0">e se</tspan><tspan x="37.82" y="0" class="cls-84">r</tspan><tspan x="41.9" y="0">vi</tspan><tspan x="49.93" y="0" class="cls-80">c</tspan><tspan x="55.31" y="0">es</tspan></text><text class="cls-41" transform="translate(340.15 495.66)"><tspan class="cls-45">E</tspan><tspan x="6.2" y="0" class="cls-43">d</tspan><tspan x="12.47" y="0" class="cls-42">g</tspan><tspan x="18.12" y="0">e se</tspan><tspan x="37.82" y="0" class="cls-84">r</tspan><tspan x="41.9" y="0">vi</tspan><tspan x="49.93" y="0" class="cls-80">c</tspan><tspan x="55.31" y="0">es</tspan></text><text class="cls-41" transform="translate(266.69 418.54)">Run</text><text class="cls-41" transform="translate(266.69 491.08)">Run</text><text class="cls-85" transform="translate(781.75 381.12)">AgB<tspan x="26.01" y="0" class="cls-86">o</tspan><tspan x="33.87" y="0" class="cls-87">ts</tspan><tspan x="45.89" y="0" class="cls-88" xml:space="preserve"> a</tspan><tspan x="54.22" y="0" class="cls-89">r</tspan><tspan x="58.14" y="0" class="cls-88">e au</tspan><tspan x="78.55" y="0" class="cls-90">t</tspan><tspan x="82.31" y="0" class="cls-91">o-</tspan><tspan x="92.9" y="0" class="cls-92">c</tspan><tspan x="98.28" y="0" class="cls-88">onfi</tspan><tspan x="116.61" y="0" class="cls-90">g</tspan><tspan x="122.28" y="0" class="cls-88">u</tspan><tspan x="128.43" y="0" class="cls-93">r</tspan><tspan x="132.34" y="0" class="cls-88">ed</tspan><tspan class="cls-88"><tspan x="0" y="12.98" class="cls-78">f</tspan><tspan x="3.46" y="12.98">or each depl</tspan><tspan x="63.33" y="12.98" class="cls-77">o</tspan><tspan x="69.34" y="12.98">yment pa</tspan><tspan x="114.67" y="12.98" class="cls-94">t</tspan><tspan x="118.37" y="12.98" class="cls-95">t</tspan><tspan x="122.12" y="12.98">ern,</tspan><tspan x="0" y="25.97">and typica</tspan><tspan x="50.15" y="25.97" class="cls-77">l</tspan><tspan x="53.03" y="25.97" class="cls-45">l</tspan><tspan x="55.87" y="25.97">y run in the cloud, </tspan><tspan x="0" y="38.95">but can run a</tspan><tspan x="63.28" y="38.95" class="cls-96">n</tspan><tspan x="69.34" y="38.95">ywhe</tspan><tspan x="95.13" y="38.95" class="cls-77">r</tspan><tspan x="99.05" y="38.95">e</tspan></tspan></text><text class="cls-41" transform="translate(677.37 245.2)">AgBots sea<tspan x="54.38" y="0" class="cls-79">r</tspan><tspan x="58.29" y="0" class="cls-43">ch </tspan><tspan x="72.43" y="0" class="cls-78">f</tspan><tspan x="75.89" y="0">or</tspan><tspan x="0" y="12.98">ed</tspan><tspan x="12.21" y="12.98" class="cls-42">g</tspan><tspan x="17.86" y="12.98">e nodes </tspan><tspan x="58.59" y="12.98" class="cls-77">r</tspan><tspan x="62.51" y="12.98">egi</tspan><tspan x="76.87" y="12.98" class="cls-97">s</tspan><tspan x="82.06" y="12.98" class="cls-95">t</tspan><tspan x="85.82" y="12.98">e</tspan><tspan x="91.75" y="12.98" class="cls-77">r</tspan><tspan x="95.67" y="12.98">ed </tspan><tspan x="110.44" y="12.98" class="cls-78">f</tspan><tspan x="113.9" y="12.98">or </tspan><tspan x="0" y="25.97">their depl</tspan><tspan x="46.54" y="25.97" class="cls-77">o</tspan><tspan x="52.55" y="25.97">yment pa</tspan><tspan x="97.88" y="25.97" class="cls-94">t</tspan><tspan x="101.58" y="25.97" class="cls-95">t</tspan><tspan x="105.33" y="25.97">ern</tspan></text><text class="cls-41" transform="translate(626.71 557.7)">AgBots send<tspan x="-20.99" y="12.98">ag</tspan><tspan x="-9.5" y="12.98" class="cls-77">r</tspan><tspan x="-5.59" y="12.98">eement p</tspan><tspan x="40.45" y="12.98" class="cls-79">r</tspan><tspan x="44.36" y="12.98">oposals</tspan><tspan x="-28.74" y="25.97">and po</tspan><tspan x="4.34" y="25.97" class="cls-77">l</tspan><tspan x="7.23" y="25.97">l </tspan><tspan x="12.73" y="25.97" class="cls-78">f</tspan><tspan x="16.19" y="25.97">or a</tspan><tspan x="34.55" y="25.97" class="cls-80">cc</tspan><tspan x="45.3" y="25.97">e</tspan><tspan x="51.24" y="25.97" class="cls-80">p</tspan><tspan x="57.45" y="25.97">tan</tspan><tspan x="73.17" y="25.97" class="cls-80">c</tspan><tspan x="78.55" y="25.97">es</tspan></text><rect width="116.32" height="27" x="528.86" y="352.26" class="cls-71"/><text class="cls-41" transform="translate(553.61 368.46)">Cloud se<tspan x="41.9" y="0" class="cls-84">r</tspan><tspan x="45.98" y="0">vi</tspan><tspan x="54.01" y="0" class="cls-80">c</tspan><tspan x="59.38" y="0">es</tspan></text><rect width="116.32" height="27" x="528.86" y="398.49" class="cls-71"/><text class="cls-41" transform="translate(553.61 414.69)">Cloud se<tspan x="41.9" y="0" class="cls-84">r</tspan><tspan x="45.98" y="0">vi</tspan><tspan x="54.01" y="0" class="cls-80">c</tspan><tspan x="59.38" y="0">es</tspan></text><rect width="116.32" height="27" x="528.86" y="469.68" class="cls-71"/><text class="cls-41" transform="translate(553.61 485.88)">Cloud se<tspan x="41.9" y="0" class="cls-84">r</tspan><tspan x="45.98" y="0">vi</tspan><tspan x="54.01" y="0" class="cls-80">c</tspan><tspan x="59.38" y="0">es</tspan></text><text class="cls-98" transform="translate(706.04 457.32)">...</text><text class="cls-98" transform="translate(578.16 448.13)">...</text><text class="cls-98" transform="translate(261.16 457.95)">...</text><text class="cls-41" transform="translate(468.87 435.35)"><tspan class="cls-45">P</tspan><tspan x="6.45" y="0">aths</tspan></text><text class="cls-41" transform="translate(468.87 411.99)">Data</text><line x1="437.8" x2="519.98" y1="410.49" y2="372.85" class="cls-16"/><line x1="443.67" x2="514.1" y1="407.8" y2="375.54" class="cls-99"/><polygon points="446.73 411.33 437.8 410.49 442.99 403.17 446.73 411.33" class="cls-100"/><polygon points="514.78 380.16 519.98 372.85 511.04 372 514.78 380.16" class="cls-100"/><line x1="437.8" x2="518.69" y1="435.27" y2="475.39" class="cls-16"/><line x1="443.58" x2="512.9" y1="438.14" y2="472.52" class="cls-99"/><polygon points="442.76 442.75 437.8 435.27 446.75 434.7 442.76 442.75" class="cls-100"/><polygon points="509.74 475.96 518.69 475.39 513.72 467.92 509.74 475.96" class="cls-100"/><line x1="436.38" x2="518.69" y1="495.97" y2="486.19" class="cls-16"/><line x1="442.79" x2="512.28" y1="495.21" y2="486.95" class="cls-99"/><polygon points="444.63 499.51 436.38 495.97 443.57 490.6 444.63 499.51" class="cls-100"/><polygon points="511.5 491.56 518.69 486.19 510.44 482.65 511.5 491.56" class="cls-100"/><line x1="437.79" x2="520.11" y1="424.47" y2="414.69" class="cls-16"/><line x1="444.21" x2="513.7" y1="423.71" y2="415.45" class="cls-99"/><polygon points="446.04 428.01 437.8 424.47 444.98 419.1 446.04 428.01" class="cls-100"/><polygon points="512.92 420.06 520.11 414.69 511.86 411.15 512.92 420.06" class="cls-100"/><line x1="437.79" x2="520.11" y1="350.42" y2="363.92" class="cls-16"/><line x1="444.17" x2="513.74" y1="351.47" y2="362.88" class="cls-99"/><polygon points="444.74 356.11 437.8 350.42 446.19 347.25 444.74 356.11" class="cls-100"/><polygon points="511.72 367.1 520.11 363.92 513.17 358.24 511.72 367.1" class="cls-100"/><rect width="70.9" height="27" x="677.37" y="321.78" class="cls-101"/><rect width="70.9" height="27" x="677.37" y="407.78" class="cls-101"/><text class="cls-41" transform="translate(695.68 423.47)">AgBot</text><rect width="70.9" height="27" x="679.78" y="474.94" class="cls-101"/><text class="cls-41" transform="translate(698.69 491.75)">AgBot</text><rect width="70.9" height="27" x="677.37" y="367.62" class="cls-101"/><text class="cls-41" transform="translate(695.68 383.81)">AgBot</text><text class="cls-41" transform="translate(695.68 339.27)">AgBot</text></svg>