<?xml version="1.0" encoding="UTF-8" standalone="no"?>
<!-- Generator: Adobe Illustrator 24.2.3, SVG Export Plug-In . SVG Version: 6.00 Build 0)  -->

<svg
   xmlns:dc="http://purl.org/dc/elements/1.1/"
   xmlns:cc="http://creativecommons.org/ns#"
   xmlns:rdf="http://www.w3.org/1999/02/22-rdf-syntax-ns#"
   xmlns:svg="http://www.w3.org/2000/svg"
   xmlns="http://www.w3.org/2000/svg"
   xmlns:sodipodi="http://sodipodi.sourceforge.net/DTD/sodipodi-0.dtd"
   xmlns:inkscape="http://www.inkscape.org/namespaces/inkscape"
   version="1.1"
   id="Layer_1"
   x="0px"
   y="0px"
   viewBox="0 0 903 817"
   style="enable-background:new 0 0 903 817;"
   xml:space="preserve"
   sodipodi:docname="02b_Updating_AI_model_using_MMS.svg"
   inkscape:version="0.92.4 (5da689c313, 2019-01-14)"><metadata
   id="metadata161"><rdf:RDF><cc:Work
       rdf:about=""><dc:format>image/svg+xml</dc:format><dc:type
         rdf:resource="http://purl.org/dc/dcmitype/StillImage" /></cc:Work></rdf:RDF></metadata><defs
   id="defs159" /><sodipodi:namedview
   pagecolor="#ffffff"
   bordercolor="#666666"
   borderopacity="1"
   objecttolerance="10"
   gridtolerance="10"
   guidetolerance="10"
   inkscape:pageopacity="0"
   inkscape:pageshadow="2"
   inkscape:window-width="1366"
   inkscape:window-height="705"
   id="namedview157"
   showgrid="false"
   inkscape:zoom="0.81702424"
   inkscape:cx="256.97581"
   inkscape:cy="490.477"
   inkscape:window-x="-8"
   inkscape:window-y="-8"
   inkscape:window-maximized="1"
   inkscape:current-layer="Layer_1" />
<style
   type="text/css"
   id="style2">
	.st0{fill:none;stroke:#00BAB6;stroke-width:2;stroke-dasharray:7;}
	.st1{fill-rule:evenodd;clip-rule:evenodd;fill:#E3F6FF;}
	.st2{fill-rule:evenodd;clip-rule:evenodd;fill:#0F62FE;}
	.st3{fill-rule:evenodd;clip-rule:evenodd;fill:#009C98;}
	.st4{fill:#DCDCDC;}
	.st5{fill-rule:evenodd;clip-rule:evenodd;fill:#408BFC;}
	.st6{fill-rule:evenodd;clip-rule:evenodd;fill:#FFFFFF;}
	.st7{fill-rule:evenodd;clip-rule:evenodd;fill:#051B75;}
	.st8{fill-rule:evenodd;clip-rule:evenodd;fill:#8A3FFC;}
	.st9{fill:#EE538B;}
	.st10{fill-rule:evenodd;clip-rule:evenodd;fill:none;}
	.st11{fill:#161616;}
	.st12{font-family:'IBMPlexSans';}
	.st13{font-size:14px;}
	.st14{fill:#F4F4F4;}
	.st15{font-family:'IBMPlexSans-Medium';}
	.st16{font-size:16px;}
	.st17{fill:none;}
</style>
<path
   id="Rectangle-Copy-19"
   class="st0"
   d="M505,32h357c22.1,0,40,17.9,40,40v222c0,22.1-17.9,40-40,40H505c-22.1,0-40-17.9-40-40  V72C465,49.9,482.9,32,505,32z" />
<path
   id="Rectangle-Copy-23"
   class="st0"
   d="M41,120h237c22.1,0,40,17.9,40,40v94c0,22.1-17.9,40-40,40H41c-22.1,0-40-17.9-40-40  v-94C1,137.9,18.9,120,41,120z" />
<circle
   id="Oval-Copy-3"
   class="st1"
   cx="58"
   cy="180"
   r="24" />
<path
   id="Shape"
   class="st2"
   d="M53,183c2.8,0,5,2.2,5,5v6h-2v-6c0-1.7-1.3-3-3-3h-4c-1.7,0-3,1.3-3,3v6h-2v-6c0-2.8,2.2-5,5-5H53z   M51,171c2.8,0,5,2.2,5,5s-2.2,5-5,5s-5-2.2-5-5S48.2,171,51,171z M72,172v8h-2v-8H72z M67,169v11h-2v-11H67z M62,174v6h-2v-6H62z   M51,173c-1.7,0-3,1.3-3,3c0,1.7,1.3,3,3,3s3-1.3,3-3S52.7,173,51,173z" />
<circle
   id="Oval-Copy-3_1_"
   class="st1"
   cx="529"
   cy="88"
   r="24" />
<path
   id="Shape_1_"
   class="st2"
   d="M524,91c2.8,0,5,2.2,5,5v6h-2v-6c0-1.7-1.3-3-3-3h-4c-1.7,0-3,1.3-3,3v6h-2v-6c0-2.8,2.2-5,5-5  H524z M522,79c2.8,0,5,2.2,5,5s-2.2,5-5,5s-5-2.2-5-5S519.2,79,522,79z M537.1,77.9l1.8,0.4l-2.4,10.4l-1.8-0.4L537.1,77.9z   M531.9,79.6l1.4,1.2l-2.1,2.6l2.1,2.6l-1.4,1.2l-3.1-3.7L531.9,79.6z M541.7,79.6l3.1,3.7l-3.1,3.7l-1.4-1.2l2.1-2.6l-2.1-2.6  L541.7,79.6z M522,81c-1.7,0-3,1.3-3,3c0,1.7,1.3,3,3,3s3-1.3,3-3S523.7,81,522,81z" />
<rect
   id="Rectangle-Copy-14"
   x="540"
   y="422"
   class="st3"
   width="260"
   height="155" />
<path
   id="Line-5-Copy-5"
   class="st4"
   d="M828.3,498.5l0,1L827.8,623l6,0l-7.1,14l-6.9-14l6,0l0.4-122.5H800v-2H828.3z" />
<rect
   id="Rectangle-Copy-14_1_"
   x="480"
   y="637"
   class="st5"
   width="370"
   height="180" />
<rect
   id="Rectangle-Copy-9"
   x="496"
   y="720"
   class="st6"
   width="80"
   height="81" />
<rect
   id="Rectangle-Copy-24"
   x="1"
   y="422"
   class="st7"
   width="400"
   height="155" />
<rect
   id="Rectangle-Copy-16"
   x="305"
   y="479"
   class="st6"
   width="80"
   height="81" />
<rect
   id="Rectangle-Copy-18"
   x="673"
   y="64"
   class="st8"
   width="104"
   height="81" />
<rect
   id="Rectangle-Copy-18_1_"
   x="785"
   y="196"
   class="st8"
   width="85"
   height="106" />
<rect
   id="Rectangle-Copy-18_2_"
   x="749"
   y="695"
   class="st8"
   width="85"
   height="106" />
<rect
   id="Rectangle-Copy-18_4_"
   x="497"
   y="196"
   class="st8"
   width="85"
   height="106" />
<path
   id="Line-2-Copy-21"
   class="st4"
   d="M659,97.1l14,6.9l-14,7.1l0-6l-92,0.4l-1,0l0-2l1,0l92-0.4L659,97.1z" />
<path
   id="Line-2-Copy-30"
   class="st9"
   d="M735,754l14,7l-14,7v-6H576v-2h159V754z" />
<path
   id="Line-2-Copy-31"
   class="st4"
   d="M187.5,177l14,7l-14,7v-6H94v-2h93.5V177z" />
<path
   id="Line-2-Copy-32"
   class="st9"
   d="M187.5,236l14,7l-14,7v-6H94v-2h93.5V236z" />
<path
   id="Line-2-Copy-33"
   class="st4"
   d="M483,201l14,7l-14,7v-6H286v-2h197V201z" />
<path
   id="Line-2-Copy-34"
   class="st4"
   d="M828.5,302v77.3l-357,0V455l-56.5,0v6l-14-7l14-7v6h54.5v-75.6l357,0V302H828.5z" />
<path
   id="Line-2-Copy-35"
   class="st4"
   d="M771,242l14,7l-14,7v-6H582v-2h189V242z" />
<path
   id="Line-4-Copy-3"
   class="st9"
   d="M346,242v223h6l-7,14l-7-14h6V244h-58v-2H346z" />
<path
   id="Path-3-Copy"
   class="st9"
   d="M346,560v200h135v-6l14,7l-14,7v-6H344V560H346z" />
<path
   id="Line-5"
   class="st4"
   d="M526,447l14,7l-14,7v-6h-55.5v-2H526V447z" />
<rect
   x="25"
   y="214.8"
   class="st10"
   width="64.9"
   height="34.7"
   id="rect30" />
<text
   id="text36"
   style="font-style:normal;font-variant:normal;font-weight:normal;font-stretch:normal;font-size:14px;font-family:'Source Han Sans JP';-inkscape-font-specification:'Source Han Sans JP, Normal';font-variant-ligatures:normal;font-variant-caps:normal;font-variant-numeric:normal;font-feature-settings:normal;text-align:center;writing-mode:lr-tb;text-anchor:middle"
   x="54.561501"
   y="225.1207"><tspan
     sodipodi:role="line"
     id="tspan169"
     x="54.561501"
     y="225.1207">データ・</tspan><tspan
     sodipodi:role="line"
     id="tspan171"
     x="54.561501"
     y="242.6207">サイエン</tspan><tspan
     sodipodi:role="line"
     id="tspan173"
     x="54.561501"
     y="260.1207">ティスト</tspan></text>

<rect
   x="108"
   y="196.7"
   class="st10"
   width="64.9"
   height="34.7"
   id="rect38" />
<text
   id="text44"
   style="font-style:normal;font-variant:normal;font-weight:normal;font-stretch:normal;font-size:14px;font-family:'Source Han Sans JP';-inkscape-font-specification:'Source Han Sans JP, Normal';font-variant-ligatures:normal;font-variant-caps:normal;font-variant-numeric:normal;font-feature-settings:normal;text-align:center;writing-mode:lr-tb;text-anchor:middle"
   x="139.75211"
   y="207.03239"><tspan
     x="139.75211"
     y="207.03239"
     class="st11 st12 st13"
     id="tspan40"
     style="font-style:normal;font-variant:normal;font-weight:normal;font-stretch:normal;font-size:14px;font-family:'Source Han Sans JP';-inkscape-font-specification:'Source Han Sans JP, Normal';font-variant-ligatures:normal;font-variant-caps:normal;font-variant-numeric:normal;font-feature-settings:normal;text-align:center;writing-mode:lr-tb;text-anchor:middle;fill:#161616">6. 更新を</tspan><tspan
     x="142.4521"
     y="227.03239"
     class="st11 st12 st13"
     id="tspan42"
     style="font-style:normal;font-variant:normal;font-weight:normal;font-stretch:normal;font-size:14px;font-family:'Source Han Sans JP';-inkscape-font-specification:'Source Han Sans JP, Normal';font-variant-ligatures:normal;font-variant-caps:normal;font-variant-numeric:normal;font-feature-settings:normal;text-align:center;writing-mode:lr-tb;text-anchor:middle;fill:#161616">行う</tspan></text>

<rect
   x="357"
   y="311.6"
   class="st10"
   width="104.5"
   height="58.3"
   id="rect46" />
<text
   id="text54"
   style="font-style:normal;font-variant:normal;font-weight:normal;font-stretch:normal;font-size:14px;font-family:'Source Han Sans JP';-inkscape-font-specification:'Source Han Sans JP, Normal';font-variant-ligatures:normal;font-variant-caps:normal;font-variant-numeric:normal;font-feature-settings:normal;text-align:start;writing-mode:lr-tb;text-anchor:start"
   x="351"
   y="335.98541"><tspan
     sodipodi:role="line"
     id="tspan205"
     x="351"
     y="335.98541">7. MMS を使用して</tspan><tspan
     sodipodi:role="line"
     id="tspan207"
     x="351"
     y="353.48541">モデル更新を</tspan><tspan
     sodipodi:role="line"
     id="tspan209"
     x="351"
     y="370.98541">プッシュする</tspan></text>

<rect
   x="357"
   y="658.7"
   class="st10"
   width="104.5"
   height="39.6"
   id="rect56" />
<text
   id="text62"
   style="font-style:normal;font-variant:normal;font-weight:normal;font-stretch:normal;font-size:14px;font-family:'Source Han Sans JP';-inkscape-font-specification:'Source Han Sans JP, Normal';font-variant-ligatures:normal;font-variant-caps:normal;font-variant-numeric:normal;font-feature-settings:normal;text-align:start;writing-mode:lr;text-anchor:start;"
   x="355"
   y="669.01221"><tspan
     sodipodi:role="line"
     id="tspan211"
     x="355"
     y="669.01221">8. モデル更新を</tspan><tspan
     sodipodi:role="line"
     id="tspan213"
     x="355"
     y="687.52081">プルする</tspan></text>

<rect
   x="597.3"
   y="716.6"
   class="st10"
   width="114.1"
   height="39.6"
   id="rect64" />
<text
   id="text70"
   style="font-style:normal;font-variant:normal;font-weight:normal;font-stretch:normal;font-size:14px;font-family:'Source Han Sans JP';-inkscape-font-specification:'Source Han Sans JP, Normal';font-variant-ligatures:normal;font-variant-caps:normal;font-variant-numeric:normal;font-feature-settings:normal;text-align:start;writing-mode:lr-tb;text-anchor:start"
   x="590.67493"
   y="726.98297"><tspan
     x="590.67493"
     y="726.98297"
     class="st14 st12 st13"
     id="tspan66"
     style="font-style:normal;font-variant:normal;font-weight:normal;font-stretch:normal;font-size:14px;font-family:'Source Han Sans JP';-inkscape-font-specification:'Source Han Sans JP, Normal';font-variant-ligatures:normal;font-variant-caps:normal;font-variant-numeric:normal;font-feature-settings:normal;text-align:start;writing-mode:lr-tb;text-anchor:start;fill:#f4f4f4">9. ESS API を使用して</tspan><tspan
     x="591.57489"
     y="746.98297"
     class="st14 st12 st13"
     id="tspan68"
     style="font-style:normal;font-variant:normal;font-weight:normal;font-stretch:normal;font-size:14px;font-family:'Source Han Sans JP';-inkscape-font-specification:'Source Han Sans JP, Normal';font-variant-ligatures:normal;font-variant-caps:normal;font-variant-numeric:normal;font-feature-settings:normal;text-align:start;writing-mode:lr-tb;text-anchor:start;fill:#f4f4f4">モデルをプルする</tspan></text>

<rect
   x="491.3"
   y="122.8"
   class="st10"
   width="74.1"
   height="34.8"
   id="rect72" />
<text
   id="text78"
   style="font-style:normal;font-variant:normal;font-weight:normal;font-stretch:normal;font-size:14px;font-family:'Source Han Sans JP';-inkscape-font-specification:'Source Han Sans JP, Normal';font-variant-ligatures:normal;font-variant-caps:normal;font-variant-numeric:normal;font-feature-settings:normal;text-align:center;writing-mode:lr-tb;text-anchor:middle"
   x="527.62048"
   y="133.1156"><tspan
     sodipodi:role="line"
     id="tspan183"
     x="527.62048"
     y="133.1156">ソフトウェア</tspan><tspan
     sodipodi:role="line"
     id="tspan185"
     x="527.62048"
     y="150.6156">開発者</tspan></text>

<rect
   x="305"
   y="512.8"
   class="st10"
   width="80"
   height="14.9"
   id="rect80" />
<text
   transform="matrix(1 0 0 1 329.4114 523.149)"
   class="st11 st12 st13"
   id="text82"
   style="-inkscape-font-specification:'Source Han Sans JP, Normal';font-family:'Source Han Sans JP';font-weight:normal;font-style:normal;font-stretch:normal;font-variant:normal;font-size:14px;text-anchor:start;text-align:start;writing-mode:lr;font-variant-ligatures:normal;font-variant-caps:normal;font-variant-numeric:normal;font-feature-settings:normal;">MMS</text>

<rect
   x="502"
   y="744.7"
   class="st10"
   width="65.8"
   height="37.9"
   id="rect84" />
<text
   id="text90"
   style="font-style:normal;font-variant:normal;font-weight:normal;font-stretch:normal;font-size:14px;font-family:'Source Han Sans JP';-inkscape-font-specification:'Source Han Sans JP, Normal';font-variant-ligatures:normal;font-variant-caps:normal;font-variant-numeric:normal;font-feature-settings:normal;text-align:center;writing-mode:lr-tb;text-anchor:middle"
   x="534.99512"
   y="755.10681"><tspan
     sodipodi:role="line"
     id="tspan215"
     x="534.99512"
     y="755.10681">エッジ・</tspan><tspan
     sodipodi:role="line"
     id="tspan217"
     x="534.99512"
     y="772.60681">エージェント</tspan></text>

<rect
   x="749"
   y="736.7"
   class="st10"
   width="84.8"
   height="16.4"
   id="rect92" />
<text
   class="st14 st12 st13"
   id="text94"
   style="font-style:normal;font-variant:normal;font-weight:normal;font-stretch:normal;font-size:14px;font-family:'Source Han Sans JP';-inkscape-font-specification:'Source Han Sans JP, Normal';font-variant-ligatures:normal;font-variant-caps:normal;font-variant-numeric:normal;font-feature-settings:normal;text-align:start;writing-mode:lr-tb;text-anchor:start;fill:#f4f4f4"
   x="757.38959"
   y="747.06677">AI サービス</text>

<rect
   x="673"
   y="96.8"
   class="st10"
   width="104"
   height="14.9"
   id="rect96" />
<text
   transform="matrix(1 0 0 1 702.3762 107.1315)"
   class="st14 st12 st13"
   id="text98"
   style="-inkscape-font-specification:'Source Han Sans JP, Normal';font-family:'Source Han Sans JP';font-weight:normal;font-style:normal;font-stretch:normal;font-variant:normal;font-size:14px;text-anchor:start;text-align:start;writing-mode:lr;font-variant-ligatures:normal;font-variant-caps:normal;font-variant-numeric:normal;font-feature-settings:normal;">Docker</text>

<rect
   x="784.9"
   y="237.7"
   class="st10"
   width="85"
   height="14.9"
   id="rect100" />
<text
   class="st14 st12 st13"
   id="text102"
   style="font-style:normal;font-variant:normal;font-weight:normal;font-stretch:normal;font-size:14px;font-family:'Source Han Sans JP';-inkscape-font-specification:'Source Han Sans JP, Normal';font-variant-ligatures:normal;font-variant-caps:normal;font-variant-numeric:normal;font-feature-settings:normal;text-align:start;writing-mode:lr-tb;text-anchor:start;fill:#f4f4f4"
   x="791.37512"
   y="248.0777">AI サービス</text>

<rect
   x="496.8"
   y="230.2"
   class="st10"
   width="85.2"
   height="34.7"
   id="rect104" />
<text
   id="text110"
   style="font-style:normal;font-variant:normal;font-weight:normal;font-stretch:normal;font-size:14px;font-family:'Source Han Sans JP';-inkscape-font-specification:'Source Han Sans JP, Normal';font-variant-ligatures:normal;font-variant-caps:normal;font-variant-numeric:normal;font-feature-settings:normal;text-align:center;writing-mode:lr-tb;text-anchor:middle;fill:#ffffff"
   x="537.92657"
   y="238.5443"><tspan
     sodipodi:role="line"
     id="tspan191"
     x="537.92657"
     y="238.5443">AI/ML</tspan><tspan
     sodipodi:role="line"
     id="tspan193"
     x="537.92657"
     y="256.04431">アプリ</tspan><tspan
     sodipodi:role="line"
     id="tspan195"
     x="537.92657"
     y="273.54431">ケーション</tspan></text>

<rect
   x="17"
   y="442.3"
   class="st10"
   width="236.1"
   height="15.6"
   id="rect112" />
<text
   transform="matrix(1 0 0 1 17.0002 454.0923)"
   class="st14 st15 st16"
   id="text114"
   style="-inkscape-font-specification:'Source Han Sans JP, Normal';font-family:'Source Han Sans JP';font-weight:normal;font-style:normal;font-stretch:normal;font-variant:normal;font-size:16px;text-anchor:start;text-align:start;writing-mode:lr;font-variant-ligatures:normal;font-variant-caps:normal;font-variant-numeric:normal;font-feature-settings:normal;">管理ハブ</text>

<rect
   x="496"
   y="657.3"
   class="st10"
   width="236.1"
   height="15.6"
   id="rect116" />
<text
   transform="matrix(1 0 0 1 496.0002 669.1191)"
   class="st14 st15 st16"
   id="text118"
   style="-inkscape-font-specification:'Source Han Sans JP, Normal';font-family:'Source Han Sans JP';font-weight:normal;font-style:normal;font-stretch:normal;font-variant:normal;font-size:16px;text-anchor:start;text-align:start;writing-mode:lr;font-variant-ligatures:normal;font-variant-caps:normal;font-variant-numeric:normal;font-feature-settings:normal;">エッジ・ノード</text>

<rect
   x="34"
   y="92.3"
   class="st10"
   width="236.1"
   height="15.6"
   id="rect120" />
<text
   transform="matrix(1 0 0 1 33.9919 104.1321)"
   class="st11 st15 st16"
   id="text122"><tspan
     style="-inkscape-font-specification:'Source Han Sans JP';font-family:'Source Han Sans JP';font-weight:normal;font-style:normal;font-stretch:normal;font-variant:normal"
     id="tspan163">データ・サイエンティスト環境</tspan></text>

<rect
   x="497"
   y="4.3"
   class="st10"
   width="236.1"
   height="15.6"
   id="rect124" />
<text
   transform="matrix(1 0 0 1 497.0002 16.1162)"
   class="st11 st15 st16"
   id="text126"
   style="-inkscape-font-specification:'Source Han Sans JP, Normal';font-family:'Source Han Sans JP';font-weight:normal;font-style:normal;font-stretch:normal;font-variant:normal;font-size:16px;text-anchor:start;text-align:start;writing-mode:lr;font-variant-ligatures:normal;font-variant-caps:normal;font-variant-numeric:normal;font-feature-settings:normal;">開発者環境</text>

<rect
   id="Rectangle-Copy-18_6_"
   x="201"
   y="154"
   class="st8"
   width="85"
   height="120" />
<rect
   x="203.1"
   y="176.7"
   class="st10"
   width="80.6"
   height="74.6"
   id="rect129" />
<text
   id="text139"
   style="font-style:normal;font-variant:normal;font-weight:normal;font-stretch:normal;font-size:14px;font-family:'Source Han Sans JP';-inkscape-font-specification:'Source Han Sans JP, Normal';font-variant-ligatures:normal;font-variant-caps:normal;font-variant-numeric:normal;font-feature-settings:normal;text-align:center;writing-mode:lr-tb;text-anchor:middle;fill:#ffffff"
   x="243.9288"
   y="187.07651"><tspan
     sodipodi:role="line"
     id="tspan175"
     x="243.9288"
     y="187.07651">AI/ML</tspan><tspan
     sodipodi:role="line"
     id="tspan177"
     x="243.9288"
     y="204.57651">アプリ</tspan><tspan
     sodipodi:role="line"
     id="tspan179"
     x="243.9288"
     y="222.07651">ケーションと</tspan><tspan
     sodipodi:role="line"
     id="tspan181"
     x="243.9288"
     y="239.57651">そのモデル</tspan></text>

<rect
   x="575.7"
   y="440.2"
   class="st10"
   width="162.3"
   height="15.6"
   id="rect141" />
<text
   transform="matrix(1 0 0 1 575.7068 452.0177)"
   class="st14 st15 st16"
   id="text143"
   style="-inkscape-font-specification:'Source Han Sans JP, Normal';font-family:'Source Han Sans JP';font-weight:normal;font-style:normal;font-stretch:normal;font-variant:normal;font-size:16px;text-anchor:start;text-align:start;writing-mode:lr;font-variant-ligatures:normal;font-variant-caps:normal;font-variant-numeric:normal;font-feature-settings:normal;">コンテナー・レジストリー</text>

<g
   id="g154">
	<path
   class="st14"
   d="M567.7,439.8h-8c-0.6,0-1,0.4-1,1v11c0,0.6,0.4,1,1,1h8c0.6,0,1-0.4,1-1v-11   C568.7,440.2,568.3,439.8,567.7,439.8z M567.7,440.8v3h-8v-3H567.7z M559.7,447.8v-3h8v3H559.7z M559.7,451.8v-3h8v3H559.7z"
   id="path145" />
	<circle
   class="st14"
   cx="561.2"
   cy="442.2"
   r="0.5"
   id="circle147" />
	<circle
   class="st14"
   cx="561.2"
   cy="446.2"
   r="0.5"
   id="circle149" />
	<circle
   class="st14"
   cx="561.2"
   cy="450.2"
   r="0.5"
   id="circle151" />
	<rect
   id="_x3C_Transparent_Rectangle_x3E__616_"
   x="555.7"
   y="438.2"
   class="st17"
   width="16"
   height="16" />
</g>
</svg>
