<?xml version="1.0" encoding="UTF-8" standalone="no"?>
<!-- Generator: Adobe Illustrator 24.2.3, SVG Export Plug-In . SVG Version: 6.00 Build 0)  -->

<svg
   xmlns:dc="http://purl.org/dc/elements/1.1/"
   xmlns:cc="http://creativecommons.org/ns#"
   xmlns:rdf="http://www.w3.org/1999/02/22-rdf-syntax-ns#"
   xmlns:svg="http://www.w3.org/2000/svg"
   xmlns="http://www.w3.org/2000/svg"
   xmlns:sodipodi="http://sodipodi.sourceforge.net/DTD/sodipodi-0.dtd"
   xmlns:inkscape="http://www.inkscape.org/namespaces/inkscape"
   version="1.1"
   x="0px"
   y="0px"
   viewBox="0 0 1085.9 613"
   style="enable-background:new 0 0 1085.9 613;"
   xml:space="preserve"
   id="svg277"
   sodipodi:docname="06_IEAM_management_hub_install.svg"
   inkscape:version="0.92.4 (5da689c313, 2019-01-14)"><metadata
   id="metadata283"><rdf:RDF><cc:Work
       rdf:about=""><dc:format>image/svg+xml</dc:format><dc:type
         rdf:resource="http://purl.org/dc/dcmitype/StillImage" /></cc:Work></rdf:RDF></metadata><defs
   id="defs281">
	
	
	
	
	
	
	
	
	
	
	
	
	
	
	
	
	
	
	
	
	
	
	
	
	
	
	
	
	
	
	
	
	
	
	
	
	
	
	
	
	
	
	
	
	
	
	
	
	
	
	
	
	
	
	
	
	
	
	
	
	
	
	
	
	

		
		
		
	
		
		
		
	
		
		
		
	</defs><sodipodi:namedview
   pagecolor="#ffffff"
   bordercolor="#666666"
   borderopacity="1"
   objecttolerance="10"
   gridtolerance="10"
   guidetolerance="10"
   inkscape:pageopacity="0"
   inkscape:pageshadow="2"
   inkscape:window-width="1366"
   inkscape:window-height="705"
   id="namedview279"
   showgrid="false"
   inkscape:zoom="0.76998369"
   inkscape:cx="499.56627"
   inkscape:cy="468.79519"
   inkscape:window-x="-8"
   inkscape:window-y="-8"
   inkscape:window-maximized="1"
   inkscape:current-layer="svg277" />
<style
   type="text/css"
   id="style2">
	.st0{fill-rule:evenodd;clip-rule:evenodd;fill:#051B75;}
	.st1{fill:#BEBEBE;}
	.st2{fill-rule:evenodd;clip-rule:evenodd;fill:#E3F6FF;}
	.st3{fill-rule:evenodd;clip-rule:evenodd;fill:#0F62FE;}
	.st4{fill-rule:evenodd;clip-rule:evenodd;fill:#054ADA;}
	.st5{fill-rule:evenodd;clip-rule:evenodd;fill:#8A3FFC;}
	.st6{fill:none;stroke:#BEBEBE;stroke-width:2;}
	.st7{display:none;fill:#BEBEBE;}
	.st8{fill-rule:evenodd;clip-rule:evenodd;fill:none;}
	.st9{fill:#F4F4F4;}
	.st10{font-family:'IBMPlexSans-Medium';}
	.st11{font-size:16px;}
	.st12{fill-rule:evenodd;clip-rule:evenodd;fill:#408BFC;}
	.st13{fill:#161616;}
	.st14{font-family:'IBMPlexSans';}
	.st15{font-size:14px;}
	.st16{fill-rule:evenodd;clip-rule:evenodd;fill:#FFFFFF;}
	.st17{fill-rule:evenodd;clip-rule:evenodd;fill:#92EEEE;}
	.st18{fill:none;stroke:#BEBEBE;stroke-width:2;stroke-miterlimit:10;}
	.st19{fill:none;stroke:#BEBEBE;stroke-width:2.2099;stroke-miterlimit:10;}
</style>
<rect
   style="clip-rule:evenodd;fill:#051b75;fill-rule:evenodd"
   height="284"
   width="496.39999"
   class="st0"
   y="211"
   x="352"
   id="Rectangle-Copy-51" /><path
   style="fill:#bebebe"
   inkscape:connector-curvature="0"
   d="m 409.2,367 6.8,14.1 -6,-0.1 -0.2,15 6,0.1 -7.2,13.9 -6.8,-14.1 6,0.1 0.2,-15 -6,-0.1 z"
   class="st1"
   id="Line-11-Copy-3" /><path
   style="fill:#bebebe"
   inkscape:connector-curvature="0"
   d="m 505,367 6.8,14.1 -6,-0.1 -0.2,15 6,0.1 -7.2,13.9 -6.8,-14.1 6,0.1 0.2,-15 -6,-0.1 z"
   class="st1"
   id="Line-11-Copy-4" /><path
   style="fill:#bebebe"
   inkscape:connector-curvature="0"
   d="m 791.7,367 6.8,14.1 -6,-0.1 -0.2,15 6,0.1 -7.2,13.9 -6.8,-14.1 6,0.1 0.2,-15 -6,-0.1 z"
   class="st1"
   id="Line-11-Copy-5" /><circle
   style="clip-rule:evenodd;fill:#e3f6ff;fill-rule:evenodd"
   r="24"
   cy="24"
   cx="60.599998"
   class="st2"
   id="Oval-Copy-3" /><path
   style="clip-rule:evenodd;fill:#0f62fe;fill-rule:evenodd"
   inkscape:connector-curvature="0"
   d="m 55.6,27 c 2.8,0 5,2.2 5,5 v 6 h -2 v -6 c 0,-1.7 -1.3,-3 -3,-3 h -4 c -1.7,0 -3,1.3 -3,3 v 6 h -2 v -6 c 0,-2.8 2.2,-5 5,-5 z m -2,-12 c 2.8,0 5,2.2 5,5 0,2.8 -2.2,5 -5,5 -2.8,0 -5,-2.2 -5,-5 0,-2.8 2.2,-5 5,-5 z m 15,-2.1 c 2.1,0 3.9,1.4 4.5,3.4 l 0.1,0.2 v 0.1 0 c 1.3,0.5 2.2,1.7 2.3,3.1 v 0.2 0.2 c 0,2.1 -1.6,3.7 -3.7,3.9 h -0.2 -6.3 c -2.1,0 -3.9,-1.7 -3.9,-3.9 0,-1.5 0.9,-2.8 2.2,-3.5 l 0.2,-0.1 v -0.1 c 0.5,-1.9 2.1,-3.4 4.1,-3.6 h 0.2 z m -15,4.1 c -1.7,0 -3,1.3 -3,3 0,1.7 1.3,3 3,3 1.7,0 3,-1.3 3,-3 0,-1.7 -1.4,-3 -3,-3 z m 15,-2.1 c -1.4,0 -2.5,1 -2.7,2.4 v 0.2 0.8 l -0.8,0.2 c -0.9,0.2 -1.5,0.9 -1.5,1.8 0,1 0.8,1.8 1.7,1.9 h 0.1 6.3 c 1,0 1.9,-0.8 1.9,-1.9 0,-0.8 -0.6,-1.6 -1.3,-1.8 H 72.2 L 71.4,18.3 V 17.5 C 71.2,16 70,14.9 68.6,14.9 Z"
   class="st3"
   id="Shape" /><rect
   style="clip-rule:evenodd;fill:#054ada;fill-rule:evenodd"
   height="284"
   width="184.7"
   class="st4"
   y="211"
   x="123.7"
   id="Rectangle-Copy-48" /><rect
   style="clip-rule:evenodd;fill:#8a3ffc;fill-rule:evenodd"
   height="100"
   width="724.70001"
   class="st5"
   y="513"
   x="123.7"
   id="Rectangle-Copy-49" /><polyline
   style="fill:none;stroke:#bebebe;stroke-width:2"
   points="550.5,95 550.5,171 380.1,171  "
   class="st6"
   id="Path-6-Copy-9_4_" /><path
   style="display:none;fill:#bebebe"
   inkscape:connector-curvature="0"
   d="m 669.8,95 v 99 h 149 V 498.5 H 552.3 V 479 h -6 l 7,-14 7,14 h -6 v 17.5 H 816.8 V 196 h -149 V 95 Z"
   class="st7"
   id="Path-6-Copy-8" /><path
   style="fill:#bebebe"
   inkscape:connector-curvature="0"
   d="m 1500.8,507.9 -7,14 -7,-14 z m -6,-6.9 v 4 h -2 v -4 z m 0,-8 v 4 h -2 v -4 z m 0,-8 v 4 h -2 v -4 z m 0,-8 v 4 h -2 v -4 z m 0,-8 v 4 h -2 v -4 z m 0,-8 v 4 h -2 v -4 z m 0,-8 v 4 h -2 v -4 z m 0,-8 v 4 h -2 v -4 z m 0,-8 v 4 h -2 v -4 z m 0,-8 v 4 h -2 v -4 z m 0,-8 v 4 h -2 v -4 z m 0,-8 v 4 h -2 v -4 z m 0,-8 v 4 h -2 v -4 z m 0,-8 v 4 h -2 v -4 z m 0,-8 v 4 h -2 v -4 z m 0,-8 v 4 h -2 v -4 z m 0,-8 v 4 h -2 v -4 z m 0,-8 v 4 h -2 v -4 z m 0,-8 v 4 h -2 v -4 z m 0,-8 v 4 h -2 v -4 z m 0,-8 v 4 h -2 v -4 z"
   class="st1"
   id="Path-6-Copy-5" /><rect
   style="clip-rule:evenodd;fill:none;fill-rule:evenodd"
   id="rect15"
   height="15.6"
   width="184"
   class="st8"
   y="231.10001"
   x="365.10001" /><text
   style="font-size:16px;font-family:'Source Han Sans JP';fill:#f4f4f4;-inkscape-font-specification:'Source Han Sans JP';font-weight:normal;font-style:normal;font-stretch:normal;font-variant:normal;"
   id="text17"
   class="st9 st10 st11"
   x="365.10831"
   y="242.98849">IEAM 管理ハブ</text>
<rect
   style="clip-rule:evenodd;fill:none;fill-rule:evenodd"
   id="rect19"
   height="15.6"
   width="319.60001"
   class="st8"
   y="533.20001"
   x="139.7" /><text
   style="font-size:16px;font-family:'Source Han Sans JP';fill:#f4f4f4;-inkscape-font-specification:'Source Han Sans JP';font-weight:normal;font-style:normal;font-stretch:normal;font-variant:normal;"
   id="text21"
   class="st9 st10 st11"
   x="139.7278"
   y="544.99182">Red Hat® OpenShift® Container Platform</text>
<rect
   style="clip-rule:evenodd;fill:#408bfc;fill-rule:evenodd"
   height="100"
   width="117"
   class="st12"
   y="513"
   x="868.79999"
   id="Rectangle-Copy-14" /><rect
   style="clip-rule:evenodd;fill:none;fill-rule:evenodd"
   id="rect24"
   height="15.6"
   width="94.599998"
   class="st8"
   y="533.20001"
   x="884.79999" /><text
   style="font-style:normal;font-variant:normal;font-weight:normal;font-stretch:normal;font-size:16px;font-family:'Source Han Sans JP';-inkscape-font-specification:'Source Han Sans JP, Normal';font-variant-ligatures:normal;font-variant-caps:normal;font-variant-numeric:normal;font-feature-settings:normal;text-align:start;writing-mode:lr-tb;text-anchor:start;fill:#f4f4f4"
   id="text26"
   class="st9 st10 st11"
   x="870.82703"
   y="544.99182">エッジ・ノード</text>
<rect
   style="clip-rule:evenodd;fill:none;fill-rule:evenodd"
   id="rect28"
   height="57"
   width="148"
   class="st8"
   y="231.10001"
   x="139.7" /><text
   id="text34"
   x="139.7274"
   y="242.98849"
   style="font-style:normal;font-variant:normal;font-weight:normal;font-stretch:normal;font-size:16px;font-family:'Source Han Sans JP';-inkscape-font-specification:'Source Han Sans JP, Normal';font-variant-ligatures:normal;font-variant-caps:normal;font-variant-numeric:normal;font-feature-settings:normal;text-align:start;writing-mode:lr-tb;text-anchor:start;fill:#ffffff"><tspan
     sodipodi:role="line"
     id="tspan466"
     x="139.7274"
     y="242.98849">IBM Cloud </tspan><tspan
     sodipodi:role="line"
     id="tspan470"
     x="139.7274"
     y="262.98849" /></text>
<rect
   style="clip-rule:evenodd;fill:none;fill-rule:evenodd"
   id="rect36"
   height="17.9"
   width="99.900002"
   class="st8"
   y="51.599998"
   x="10" /><text
   style="font-style:normal;font-variant:normal;font-weight:normal;font-stretch:normal;font-size:14px;font-family:'Source Han Sans JP';-inkscape-font-specification:'Source Han Sans JP';fill:#161616"
   id="text38"
   class="st13 st14 st15"
   x="-24.530899"
   y="65.969101">クラウド・インストーラー</text>
<rect
   style="clip-rule:evenodd;fill:none;fill-rule:evenodd"
   id="rect40"
   height="56"
   width="99.900002"
   class="st8"
   y="98.599998"
   x="67.599998" /><text
   style="font-style:normal;font-variant:normal;font-weight:normal;font-stretch:normal;font-size:14px;font-family:'Source Han Sans JP';-inkscape-font-specification:'Source Han Sans JP, Normal';font-variant-ligatures:normal;font-variant-caps:normal;font-variant-numeric:normal;font-feature-settings:normal;text-align:start;writing-mode:lr-tb;text-anchor:start;fill:#161616"
   id="text42"
   class="st13 st14 st15"
   x="67.586998"
   y="108.967"><tspan
     sodipodi:role="line"
     id="tspan458"
     x="67.586998"
     y="108.967">1. OCP を</tspan><tspan
     sodipodi:role="line"
     id="tspan460"
     x="67.586998"
     y="126.467" /></text>
<rect
   style="clip-rule:evenodd;fill:none;fill-rule:evenodd"
   id="rect44"
   height="56"
   width="149.10001"
   class="st8"
   y="98.599998"
   x="195.60001" /><text
   id="text52"
   x="197.5871"
   y="108.967"
   style="font-style:normal;font-variant:normal;font-weight:normal;font-stretch:normal;font-size:14px;font-family:'Source Han Sans JP';-inkscape-font-specification:'Source Han Sans JP, Normal';font-variant-ligatures:normal;font-variant-caps:normal;font-variant-numeric:normal;font-feature-settings:normal;text-align:start;writing-mode:lr-tb;text-anchor:start"><tspan
     sodipodi:role="line"
     id="tspan450"
     x="197.5871"
     y="108.967">2. IBM Cloud </tspan><tspan
     sodipodi:role="line"
     id="tspan452"
     x="197.5871"
     y="126.467">プラットフォーム</tspan><tspan
     sodipodi:role="line"
     id="tspan454"
     x="197.5871"
     y="143.96701">共通サービスを</tspan><tspan
     sodipodi:role="line"
     id="tspan456"
     x="197.5871"
     y="161.46701">インストールする</tspan></text>
<rect
   style="clip-rule:evenodd;fill:none;fill-rule:evenodd"
   id="rect54"
   height="56"
   width="149.10001"
   class="st8"
   y="98.599998"
   x="385.60001" /><text
   id="text62"
   x="385.5871"
   y="108.967"
   style="-inkscape-font-specification:'Source Han Sans JP';font-family:'Source Han Sans JP';font-weight:normal;font-style:normal;font-stretch:normal;font-variant:normal;"><tspan
     style="font-size:14px;font-family:'Source Han Sans JP';fill:#161616;-inkscape-font-specification:'Source Han Sans JP';font-weight:normal;font-style:normal;font-stretch:normal;font-variant:normal;"
     id="tspan56"
     class="st13 st14 st15"
     y="108.967"
     x="385.5871">3. コンポーネントを</tspan><tspan
     style="font-size:14px;font-family:'Source Han Sans JP';fill:#161616;-inkscape-font-specification:'Source Han Sans JP';font-weight:normal;font-style:normal;font-stretch:normal;font-variant:normal;"
     id="tspan58"
     class="st13 st14 st15"
     y="128.967"
     x="385.5871">管理ハブに</tspan><tspan
     style="font-size:14px;font-family:'Source Han Sans JP';fill:#161616;-inkscape-font-specification:'Source Han Sans JP';font-weight:normal;font-style:normal;font-stretch:normal;font-variant:normal;"
     id="tspan60"
     class="st13 st14 st15"
     y="148.967"
     x="385.5871">インストールする</tspan></text>
<rect
   style="clip-rule:evenodd;fill:none;fill-rule:evenodd"
   id="rect64"
   height="56"
   width="172"
   class="st8"
   y="98.599998"
   x="562.59998" /><text
   id="text72"
   x="562.5871"
   y="108.9675"
   style="-inkscape-font-specification:'Source Han Sans JP';font-family:'Source Han Sans JP';font-weight:normal;font-style:normal;font-stretch:normal;font-variant:normal;"><tspan
     style="font-size:14px;font-family:'Source Han Sans JP';fill:#161616;-inkscape-font-specification:'Source Han Sans JP';font-weight:normal;font-style:normal;font-stretch:normal;font-variant:normal;"
     id="tspan66"
     class="st13 st14 st15"
     y="108.9675"
     x="562.5871">4. Identity and Access </tspan><tspan
     style="font-size:14px;font-family:'Source Han Sans JP';fill:#161616;-inkscape-font-specification:'Source Han Sans JP';font-weight:normal;font-style:normal;font-stretch:normal;font-variant:normal;"
     id="tspan68"
     class="st13 st14 st15"
     y="128.9675"
     x="562.5871">Manager (IAM) 用の認証を</tspan><tspan
     style="font-size:14px;font-family:'Source Han Sans JP';fill:#161616;-inkscape-font-specification:'Source Han Sans JP';font-weight:normal;font-style:normal;font-stretch:normal;font-variant:normal;"
     id="tspan70"
     class="st13 st14 st15"
     y="148.9675"
     x="562.5871">セットアップする</tspan></text>
<rect
   style="clip-rule:evenodd;fill:none;fill-rule:evenodd"
   id="rect74"
   height="56"
   width="135.2"
   class="st8"
   y="98.599998"
   x="755.59998" /><text
   id="text82"
   x="755.58722"
   y="108.9675"
   style="-inkscape-font-specification:'Source Han Sans JP';font-family:'Source Han Sans JP';font-weight:normal;font-style:normal;font-stretch:normal;font-variant:normal;"><tspan
     style="font-size:14px;font-family:'Source Han Sans JP';fill:#161616;-inkscape-font-specification:'Source Han Sans JP';font-weight:normal;font-style:normal;font-stretch:normal;font-variant:normal;"
     id="tspan76"
     class="st13 st14 st15"
     y="108.9675"
     x="755.58722">5. Exchange に Open </tspan><tspan
     style="font-size:14px;font-family:'Source Han Sans JP';fill:#161616;-inkscape-font-specification:'Source Han Sans JP';font-weight:normal;font-style:normal;font-stretch:normal;font-variant:normal;"
     id="tspan78"
     class="st13 st14 st15"
     y="128.9675"
     x="755.58722">Horizon サンプルを</tspan><tspan
     style="font-size:14px;font-family:'Source Han Sans JP';fill:#161616;-inkscape-font-specification:'Source Han Sans JP';font-weight:normal;font-style:normal;font-stretch:normal;font-variant:normal;"
     id="tspan80"
     class="st13 st14 st15"
     y="148.9675"
     x="755.58722">取り込む</tspan></text>
<rect
   style="clip-rule:evenodd;fill:none;fill-rule:evenodd"
   id="rect84"
   height="38.400002"
   width="130.3"
   class="st8"
   y="98.599998"
   x="939.40002" /><text
   id="text90"
   x="939.36328"
   y="108.9675"
   style="-inkscape-font-specification:'Source Han Sans JP';font-family:'Source Han Sans JP';font-weight:normal;font-style:normal;font-stretch:normal;font-variant:normal;"><tspan
   style="font-size:14px;font-family:'Source Han Sans JP';fill:#161616;-inkscape-font-specification:'Source Han Sans JP';font-weight:normal;font-style:normal;font-stretch:normal;font-variant:normal;"
   id="tspan86"
   class="st13 st14 st15"
   y="108.9675"
   x="939.36328">6. エージェントの</tspan><tspan
   style="font-size:14px;font-family:'Source Han Sans JP';fill:#161616;-inkscape-font-specification:'Source Han Sans JP';font-weight:normal;font-style:normal;font-stretch:normal;font-variant:normal;"
   id="tspan88"
   class="st13 st14 st15"
   y="128.9675"
   x="939.36328">インストール・ファイルを MMS に</tspan>公開する</text>
<rect
   style="clip-rule:evenodd;fill:none;fill-rule:evenodd"
   id="rect92"
   height="56.400002"
   width="80.800003"
   class="st8"
   y="392.79999"
   x="939.79999" /><text
   id="text100"
   x="939.82892"
   y="403.2048"
   style="-inkscape-font-specification:'Source Han Sans JP';font-family:'Source Han Sans JP';font-weight:normal;font-style:normal;font-stretch:normal;font-variant:normal;"><tspan
   style="font-size:14px;font-family:'Source Han Sans JP';fill:#161616;-inkscape-font-specification:'Source Han Sans JP';font-weight:normal;font-style:normal;font-stretch:normal;font-variant:normal;"
   id="tspan94"
   class="st13 st14 st15"
   y="403.2048"
   x="939.82892">エッジ・ノードの</tspan><tspan
   style="font-size:14px;font-family:'Source Han Sans JP';fill:#161616;-inkscape-font-specification:'Source Han Sans JP';font-weight:normal;font-style:normal;font-stretch:normal;font-variant:normal;"
   id="tspan96"
   class="st13 st14 st15"
   y="423.2048"
   x="939.82892">プル・ファイル</tspan>を <tspan
   style="font-size:14px;font-family:'Source Han Sans JP';fill:#161616;-inkscape-font-specification:'Source Han Sans JP';font-weight:normal;font-style:normal;font-stretch:normal;font-variant:normal;"
   id="tspan98"
   class="st13 st14 st15"
   y="443.2048"
   x="939.82892">MMS から</tspan></text>
<line
   style="fill:none;stroke:#bebebe;stroke-width:2"
   y2="254.39999"
   x2="1352.8"
   y1="102.9"
   x1="1352.8"
   class="st6"
   id="Path-6-Copy-4_3_" /><path
   style="fill:#bebebe"
   inkscape:connector-curvature="0"
   d="m 1360.3,507.9 -7,14 -7,-14 z m -6,-6.9 v 4 h -2 v -4 z m 0,-8 v 4 h -2 v -4 z m 0,-8 v 4 h -2 v -4 z m 0,-8 v 4 h -2 v -4 z m 0,-8 v 4 h -2 v -4 z m 0,-8 v 4 h -2 v -4 z m 0,-8 v 4 h -2 v -4 z m 0,-8 v 4 h -2 v -4 z m 0,-8 v 4 h -2 v -4 z m 0,-8 v 4 h -2 v -4 z m 0,-8 v 4 h -2 v -4 z m 0,-8 v 4 h -2 v -4 z m 0,-8 v 4 h -2 v -4 z m 0,-8 v 4 h -2 v -4 z m 0,-8 v 4 h -2 v -4 z m 0,-8 v 4 h -2 v -4 z m 0,-8 v 4 h -2 v -4 z m 0,-8 v 4 h -2 v -4 z m 0,-8 v 4 h -2 v -4 z m 0,-8 v 4 h -2 v -4 z m 0,-8 v 4 h -2 v -4 z"
   class="st1"
   id="Path-6-Copy-5_2_" /><circle
   style="clip-rule:evenodd;fill:#e3f6ff;fill-rule:evenodd"
   r="24"
   cy="285.89999"
   cx="1353.3"
   class="st2"
   id="Oval-Copy-3_10_" /><path
   style="clip-rule:evenodd;fill:#0f62fe;fill-rule:evenodd"
   inkscape:connector-curvature="0"
   d="m 1348.3,288.9 c 2.8,0 5,2.2 5,5 v 6 h -2 v -6 c 0,-1.7 -1.3,-3 -3,-3 h -4 c -1.7,0 -3,1.3 -3,3 v 6 h -2 v -6 c 0,-2.8 2.2,-5 5,-5 z m -2,-12 c 2.8,0 5,2.2 5,5 0,2.8 -2.2,5 -5,5 -2.8,0 -5,-2.2 -5,-5 0,-2.7 2.3,-5 5,-5 z m 13,8 v 2 h -2 v -2 z m 5,0 v 2 h -2 v -2 z m -18,-6 c -1.7,0 -3,1.3 -3,3 0,1.7 1.3,3 3,3 1.7,0 3,-1.3 3,-3 0,-1.6 -1.3,-3 -3,-3 z m 21,3 v 2 h -2 v -2 z m -11,0 v 2 h -2 v -2 z m 8,-5 v 7 h -7 v -7 z m -2,2 h -3 v 3 h 3 z m 5,-2 v 2 h -2 v -2 z m -11,0 v 2 h -2 v -2 z m 3,-3 v 2 h -2 v -2 z m 5,0 v 2 h -2 v -2 z"
   class="st3"
   id="Shape_4_" /><g
   id="g110"
   style="">
		<circle
   style="clip-rule:evenodd;fill:#ffffff;fill-rule:evenodd"
   r="20"
   cy="209.5"
   cx="1352.8"
   class="st16"
   id="Oval-Copy-3_9_" />
		<path
   style="clip-rule:evenodd;fill:#408bfc;fill-rule:evenodd"
   inkscape:connector-curvature="0"
   d="m 1350.8,209.5 h 4 v -5 h -4 z m 4,-7 h -4 c -1.1,0 -2,0.9 -2,2 v 12 h 2 v -5 h 4 v 5 h 2 v -12 c 0,-1.1 -0.9,-2 -2,-2 z"
   class="st12"
   id="Fill-1_5_" />
		<path
   style="clip-rule:evenodd;fill:#408bfc;fill-rule:evenodd"
   inkscape:connector-curvature="0"
   d="m 1360.8,208.5 h 4 v -4 h -4 z m 6,0 v -4 c 0,-1.1 -0.9,-2 -2,-2 h -6 v 14 h 2 v -6 h 1.5 l 2.3,6 h 2.1 l -2.3,-6 h 0.4 c 1.1,0 2,-0.9 2,-2 z"
   class="st12"
   id="Fill-3_5_" />
		<polygon
   style="clip-rule:evenodd;fill:#408bfc;fill-rule:evenodd"
   points="1341.8,216.5 1343.8,216.5 1343.8,204.5 1346.8,204.5 1346.8,202.5 1338.8,202.5 1338.8,204.5 1341.8,204.5 "
   class="st12"
   id="Fill-4_5_" />
	</g><circle
   style="clip-rule:evenodd;fill:#ffffff;fill-rule:evenodd"
   r="20"
   cy="388.89999"
   cx="1353.3"
   class="st16"
   id="Oval-Copy-3_8_" /><path
   style="clip-rule:evenodd;fill:#408bfc;fill-rule:evenodd"
   inkscape:connector-curvature="0"
   d="m 1351.3,388.9 h 4 v -5 h -4 z m 4,-7 h -4 c -1.1,0 -2,0.9 -2,2 v 12 h 2 v -5 h 4 v 5 h 2 v -12 c 0,-1.1 -0.9,-2 -2,-2 z"
   class="st12"
   id="Fill-1_4_" /><path
   style="clip-rule:evenodd;fill:#408bfc;fill-rule:evenodd"
   inkscape:connector-curvature="0"
   d="m 1361.3,387.9 h 4 v -4 h -4 z m 6,0 v -4 c 0,-1.1 -0.9,-2 -2,-2 h -6 v 14 h 2 v -6 h 1.5 l 2.3,6 h 2.1 l -2.3,-6 h 0.4 c 1.1,0 2,-0.8 2,-2 z"
   class="st12"
   id="Fill-3_4_" /><polygon
   style="clip-rule:evenodd;fill:#408bfc;fill-rule:evenodd"
   points="1342.3,395.9 1344.3,395.9 1344.3,383.9 1347.3,383.9 1347.3,381.9 1339.3,381.9 1339.3,383.9 1342.3,383.9 "
   class="st12"
   id="Fill-4_4_" /><rect
   style="clip-rule:evenodd;fill:none;fill-rule:evenodd"
   id="rect116"
   height="14.9"
   width="135.2"
   class="st8"
   y="320.39999"
   x="1285.2" /><text
   style="font-size:14px;font-family:'Source Han Sans JP';fill:#161616;-inkscape-font-specification:'Source Han Sans JP';font-weight:normal;font-style:normal;font-stretch:normal;font-variant:normal;"
   id="text118"
   class="st13 st14 st15"
   x="1314.0431"
   y="330.75562">ノード所有者</text>
<rect
   style="clip-rule:evenodd;fill:none;fill-rule:evenodd"
   id="rect120"
   height="56.400002"
   width="100.2"
   class="st8"
   y="430.20001"
   x="1365.3" /><text
   id="text128"
   x="1365.3431"
   y="440.60349"
   style="-inkscape-font-specification:'Source Han Sans JP';font-family:'Source Han Sans JP';font-weight:normal;font-style:normal;font-stretch:normal;font-variant:normal;"><tspan
     style="font-size:14px;font-family:'Source Han Sans JP';fill:#161616;-inkscape-font-specification:'Source Han Sans JP';font-weight:normal;font-style:normal;font-stretch:normal;font-variant:normal;"
     id="tspan122"
     class="st13 st14 st15"
     y="440.60349"
     x="1365.3431">エージェントのインストール</tspan><tspan
     style="font-size:14px;font-family:'Source Han Sans JP';fill:#161616;-inkscape-font-specification:'Source Han Sans JP';font-weight:normal;font-style:normal;font-stretch:normal;font-variant:normal;"
     id="tspan124"
     class="st13 st14 st15"
     y="460.60349"
     x="1365.3431">のために後で tar ファイルが</tspan><tspan
     style="font-size:14px;font-family:'Source Han Sans JP';fill:#161616;-inkscape-font-specification:'Source Han Sans JP';font-weight:normal;font-style:normal;font-stretch:normal;font-variant:normal;"
     id="tspan126"
     class="st13 st14 st15"
     y="480.60349"
     x="1365.3431">必要</tspan></text>
<g
   id="g135"
   style="">
		<rect
   style="clip-rule:evenodd;fill:#ffffff;fill-rule:evenodd"
   height="81"
   width="80"
   class="st16"
   y="286"
   x="655.90002"
   id="Rectangle-Copy-16" />
		<rect
   style="clip-rule:evenodd;fill:none;fill-rule:evenodd"
   id="rect131"
   height="14.9"
   width="80"
   class="st8"
   y="319.60001"
   x="655.90002" />
		<text
   style="font-size:14px;font-family:IBMPlexSans;fill:#161616"
   id="text133"
   class="st13 st14 st15"
   transform="translate(682.0273,329.9869)">SDO</text>

	</g><g
   id="g142"
   style="">
		<rect
   style="clip-rule:evenodd;fill:#ffffff;fill-rule:evenodd"
   height="81"
   width="80"
   class="st16"
   y="286"
   x="751.5"
   id="Rectangle-Copy-16_6_" />
		<rect
   style="clip-rule:evenodd;fill:none;fill-rule:evenodd"
   id="rect138"
   height="14.9"
   width="80"
   class="st8"
   y="319.60001"
   x="751.5" />
		<text
   style="font-size:14px;font-family:IBMPlexSans;fill:#161616"
   id="text140"
   class="st13 st14 st15"
   transform="translate(775.883,329.9869)">MMS</text>

	</g><g
   id="g149"
   style="">
		<rect
   style="clip-rule:evenodd;fill:#ffffff;fill-rule:evenodd"
   height="81"
   width="80"
   class="st16"
   y="286"
   x="560.29999"
   id="Rectangle-Copy-16_1_" />
		<rect
   style="clip-rule:evenodd;fill:none;fill-rule:evenodd"
   id="rect145"
   height="14.9"
   width="80"
   class="st8"
   y="319.60001"
   x="560.29999" />
		<text
   style="font-size:14px;font-family:IBMPlexSans;fill:#161616"
   id="text147"
   class="st13 st14 st15"
   transform="translate(592.7087,329.9869)">UI</text>

	</g><rect
   id="Rectangle-Copy-16_2_"
   x="464.79999"
   y="286"
   class="st16"
   width="80"
   height="81"
   style="clip-rule:evenodd;fill:#ffffff;fill-rule:evenodd" /><rect
   x="464.79999"
   y="319.60001"
   class="st8"
   width="80"
   height="14.9"
   id="rect152"
   style="clip-rule:evenodd;fill:none;fill-rule:evenodd" /><text
   class="st13 st14 st15"
   id="text154"
   style="font-size:14px;font-family:IBMPlexSans;fill:#161616"
   x="471.84311"
   y="329.98691">Exchange</text>
<rect
   id="Rectangle-Copy-16_3_"
   x="369.20001"
   y="286"
   class="st16"
   width="80"
   height="81"
   style="clip-rule:evenodd;fill:#ffffff;fill-rule:evenodd" /><rect
   x="369.20001"
   y="319.60001"
   class="st8"
   width="80"
   height="14.9"
   id="rect159"
   style="clip-rule:evenodd;fill:none;fill-rule:evenodd" /><text
   class="st13 st14 st15"
   id="text161"
   style="font-size:14px;font-family:IBMPlexSans;fill:#161616"
   x="388.26361"
   y="329.98691">Agbot</text>
<rect
   id="Rectangle-Copy-16_7_"
   x="139.7"
   y="397"
   class="st16"
   width="80"
   height="81"
   style="clip-rule:evenodd;fill:#ffffff;fill-rule:evenodd" /><rect
   x="139.60001"
   y="430.70001"
   class="st8"
   width="80"
   height="14.9"
   id="rect166"
   style="clip-rule:evenodd;fill:none;fill-rule:evenodd" /><text
   class="st13 st14 st15"
   id="text168"
   style="font-size:14px;font-family:IBMPlexSans;fill:#161616"
   x="162.5116"
   y="441.0553"> IAM  </text>
<g
   id="g181"
   style="">
		<rect
   style="clip-rule:evenodd;fill:#92eeee;fill-rule:evenodd"
   height="68"
   width="80"
   class="st17"
   y="410"
   x="369.20001"
   id="Rectangle-Copy-16_4_" />
		<rect
   style="clip-rule:evenodd;fill:none;fill-rule:evenodd"
   id="rect173"
   height="39.799999"
   width="80"
   class="st8"
   y="427.70001"
   x="369.20001" />
		<text
   id="text179"
   transform="translate(381.1071,438.0454)"
   style=""><tspan
     style="font-size:14px;font-family:IBMPlexSans;fill:#161616"
     id="tspan175"
     class="st13 st14 st15"
     y="0"
     x="0">Postgres </tspan><tspan
     style="font-size:14px;font-family:IBMPlexSans;fill:#161616"
     id="tspan177"
     class="st13 st14 st15"
     y="20"
     x="18.700001">DB</tspan></text>

	</g><g
   id="g192"
   style="">
		<rect
   style="clip-rule:evenodd;fill:#92eeee;fill-rule:evenodd"
   height="68"
   width="80"
   class="st17"
   y="410"
   x="464.79999"
   id="Rectangle-Copy-16_5_" />
		<rect
   style="clip-rule:evenodd;fill:none;fill-rule:evenodd"
   id="rect184"
   height="39.799999"
   width="80"
   class="st8"
   y="427.70001"
   x="464.79999" />
		<text
   id="text190"
   transform="translate(476.6773,438.0454)"
   style=""><tspan
     style="font-size:14px;font-family:IBMPlexSans;fill:#161616"
     id="tspan186"
     class="st13 st14 st15"
     y="0"
     x="0">Postgres </tspan><tspan
     style="font-size:14px;font-family:IBMPlexSans;fill:#161616"
     id="tspan188"
     class="st13 st14 st15"
     y="20"
     x="18.700001">DB</tspan></text>

	</g><g
   id="g203"
   style="">
		<rect
   style="clip-rule:evenodd;fill:#92eeee;fill-rule:evenodd"
   height="68"
   width="80"
   class="st17"
   y="410"
   x="751.5"
   id="Rectangle-Copy-16_16_" />
		<rect
   style="clip-rule:evenodd;fill:none;fill-rule:evenodd"
   id="rect195"
   height="39.799999"
   width="80"
   class="st8"
   y="427.70001"
   x="751.5" />
		<text
   id="text201"
   transform="translate(769.9676,438.0454)"
   style=""><tspan
     style="font-size:14px;font-family:IBMPlexSans;fill:#161616"
     id="tspan197"
     class="st13 st14 st15"
     y="0"
     x="0">Mongo </tspan><tspan
     style="font-size:14px;font-family:IBMPlexSans;fill:#161616"
     id="tspan199"
     class="st13 st14 st15"
     y="20"
     x="12.2">DB</tspan></text>

	</g><g
   id="g213"
   style="">
		<g
   id="g211"
   style="">
			<polyline
   style="fill:none;stroke:#bebebe;stroke-width:2;stroke-miterlimit:10"
   id="polyline205"
   points="743.6,95 743.6,265 504.8,265 504.8,276    "
   class="st18" />
			<g
   id="g209"
   style="">
				<polygon
   style="fill:#bebebe"
   id="polygon207"
   points="511.7,274 497.8,274 504.8,286 "
   class="st1" />
			</g>
		</g>
	</g><g
   id="g223"
   style="">
		<g
   id="g221"
   style="">
			<polyline
   style="fill:none;stroke:#bebebe;stroke-width:2.2098999;stroke-miterlimit:10"
   id="polyline215"
   points="927.3,95 927.3,313 842.6,313    "
   class="st19" />
			<g
   id="g219"
   style="">
				<polygon
   style="fill:#bebebe"
   id="polygon217"
   points="844.8,320.8 844.8,305.3 831.5,313 "
   class="st1" />
			</g>
		</g>
	</g><g
   id="g233"
   style="">
		<g
   id="g231"
   style="">
			<polyline
   style="fill:none;stroke:#bebebe;stroke-width:2.2098999;stroke-miterlimit:10"
   id="polyline225"
   points="831.5,339.5 927.3,339.5 927.3,501.9    "
   class="st19" />
			<g
   id="g229"
   style="">
				<polygon
   style="fill:#bebebe"
   id="polygon227"
   points="935,499.6 919.6,499.6 927.3,513 "
   class="st1" />
			</g>
		</g>
	</g><g
   id="g243"
   transform="translate(4.39195,-1.2987288)">
		<g
   id="g241">
			<line
   style="fill:none;stroke:#bebebe;stroke-width:2;stroke-miterlimit:10"
   id="line235"
   y2="201"
   x2="183.39999"
   y1="95"
   x1="183.39999"
   class="st18" />
			<g
   id="g239">
				<polygon
   style="fill:#bebebe"
   id="polygon237"
   points="176.4,198.9 183.4,211 190.4,198.9 "
   class="st1" />
			</g>
		</g>
	</g><g
   id="g253"
   style="">
		<g
   id="g251"
   style="">
			<polyline
   style="fill:none;stroke:#bebebe;stroke-width:2;stroke-miterlimit:10"
   id="polyline245"
   points="55.5,80.1 55.5,563 113.7,563    "
   class="st18" />
			<g
   id="g249"
   style="">
				<polygon
   style="fill:#bebebe"
   id="polygon247"
   points="111.6,556 111.6,570 123.7,563 "
   class="st1" />
			</g>
		</g>
	</g><g
   id="g263"
   style="">
		<g
   id="g261"
   style="">
			<polyline
   style="fill:none;stroke:#bebebe;stroke-width:2;stroke-miterlimit:10"
   id="polyline255"
   points="229.8,434.1 330.2,434.1 330.2,171 365.1,171    "
   class="st18" />
			<g
   id="g259"
   style="">
				<polygon
   style="fill:#bebebe"
   id="polygon257"
   points="231.8,427.2 231.8,441.1 219.7,434.1 "
   class="st1" />
			</g>
		</g>
	</g><g
   id="g273"
   style="">
		<g
   id="g271"
   style="">
			<line
   style="fill:none;stroke:#bebebe;stroke-width:2;stroke-miterlimit:10"
   id="line265"
   y2="201"
   x2="373.5"
   y1="95"
   x1="373.5"
   class="st18" />
			<g
   id="g269"
   style="">
				<polygon
   style="fill:#bebebe"
   id="polygon267"
   points="380.5,198.9 366.5,198.9 373.5,211 "
   class="st1" />
			</g>
		</g>
	</g>
<g
   id="Layer_2"
   style="">
</g>
<text
   xml:space="preserve"
   style="font-style:normal;font-weight:normal;font-size:14px;line-height:1.25;font-family:sans-serif;text-align:center;letter-spacing:0px;word-spacing:0px;text-anchor:middle;fill:#000000;fill-opacity:1;stroke:none"
   x="123.37924"
   y="125.87288"
   id="text464"><tspan
     sodipodi:role="line"
     id="tspan462"
     x="123.37924"
     y="125.87288"
     style="font-style:normal;font-variant:normal;font-weight:normal;font-stretch:normal;font-size:14px;font-family:'Source Han Sans JP';-inkscape-font-specification:'Source Han Sans JP, Normal';font-variant-ligatures:normal;font-variant-caps:normal;font-variant-numeric:normal;font-feature-settings:normal;text-align:center;writing-mode:lr-tb;text-anchor:middle">セットアップする</tspan></text>
<text
   xml:space="preserve"
   style="font-style:normal;font-weight:normal;font-size:16px;line-height:1.25;font-family:sans-serif;text-align:center;letter-spacing:0px;word-spacing:0px;text-anchor:middle;fill:#000000;fill-opacity:1;stroke:none"
   x="136.96397"
   y="268.83685"
   id="text476"><tspan
     sodipodi:role="line"
     id="tspan474"
     x="136.96397"
     y="268.83685"
     style="font-style:normal;font-variant:normal;font-weight:normal;font-stretch:normal;font-size:16px;font-family:'Source Han Sans JP';-inkscape-font-specification:'Source Han Sans JP, Normal';font-variant-ligatures:normal;font-variant-caps:normal;font-variant-numeric:normal;font-feature-settings:normal;text-align:start;writing-mode:lr-tb;text-anchor:start;fill:#ffffff">プラットフォーム</tspan><tspan
     sodipodi:role="line"
     x="136.96397"
     y="290.31958"
     id="tspan478"
     style="font-style:normal;font-variant:normal;font-weight:normal;font-stretch:normal;font-size:16px;font-family:'Source Han Sans JP';-inkscape-font-specification:'Source Han Sans JP, Normal';font-variant-ligatures:normal;font-variant-caps:normal;font-variant-numeric:normal;font-feature-settings:normal;text-align:start;writing-mode:lr-tb;text-anchor:start;fill:#ffffff">共通サービス</tspan></text>
</svg>
