<?xml version="1.0" encoding="UTF-8" standalone="no"?>
<!-- Generator: Adobe Illustrator 24.2.3, SVG Export Plug-In . SVG Version: 6.00 Build 0)  -->

<svg
   xmlns:dc="http://purl.org/dc/elements/1.1/"
   xmlns:cc="http://creativecommons.org/ns#"
   xmlns:rdf="http://www.w3.org/1999/02/22-rdf-syntax-ns#"
   xmlns:svg="http://www.w3.org/2000/svg"
   xmlns="http://www.w3.org/2000/svg"
   xmlns:sodipodi="http://sodipodi.sourceforge.net/DTD/sodipodi-0.dtd"
   xmlns:inkscape="http://www.inkscape.org/namespaces/inkscape"
   version="1.1"
   id="Layer_1"
   x="0px"
   y="0px"
   viewBox="0 0 614 469"
   style="enable-background:new 0 0 614 469;"
   xml:space="preserve"
   sodipodi:docname="07_What_is_an_edge_node.svg"
   inkscape:version="0.92.4 (5da689c313, 2019-01-14)"><metadata
   id="metadata93"><rdf:RDF><cc:Work
       rdf:about=""><dc:format>image/svg+xml</dc:format><dc:type
         rdf:resource="http://purl.org/dc/dcmitype/StillImage" /></cc:Work></rdf:RDF></metadata><defs
   id="defs91" /><sodipodi:namedview
   pagecolor="#ffffff"
   bordercolor="#666666"
   borderopacity="1"
   objecttolerance="10"
   gridtolerance="10"
   guidetolerance="10"
   inkscape:pageopacity="0"
   inkscape:pageshadow="2"
   inkscape:window-width="1366"
   inkscape:window-height="705"
   id="namedview89"
   showgrid="false"
   inkscape:zoom="1.0063966"
   inkscape:cx="212.76764"
   inkscape:cy="223.43786"
   inkscape:window-x="-8"
   inkscape:window-y="-8"
   inkscape:window-maximized="1"
   inkscape:current-layer="Layer_1" />
<style
   type="text/css"
   id="style2">
	.st0{fill-rule:evenodd;clip-rule:evenodd;fill:#408BFC;}
	.st1{fill:none;stroke:#00BAB6;stroke-width:2;stroke-dasharray:7;}
	.st2{fill-rule:evenodd;clip-rule:evenodd;fill:#4F2196;}
	.st3{fill-rule:evenodd;clip-rule:evenodd;fill:#FFFFFF;}
	.st4{fill:#BEBEBE;}
	.st5{fill-rule:evenodd;clip-rule:evenodd;fill:#E3F6FF;}
	.st6{fill-rule:evenodd;clip-rule:evenodd;fill:#0062FF;}
	.st7{fill-rule:evenodd;clip-rule:evenodd;fill:none;}
	.st8{fill:#161616;}
	.st9{font-family:'IBMPlexSans';}
	.st10{font-size:14px;}
	.st11{fill:#F4F4F4;}
	.st12{font-family:'IBMPlexSans-Medium';}
	.st13{font-size:16px;}
</style>
<g
   id="g7"
   style="">
	<rect
   id="Rectangle-Copy-14_1_"
   x="160"
   y="388"
   class="st0"
   width="141.2"
   height="56"
   style="" />
	<rect
   id="Rectangle-Copy-54"
   x="25"
   y="388"
   class="st0"
   width="120.4"
   height="56"
   style="" />
	<rect
   id="Rectangle-Copy-14_2_"
   x="315.8"
   y="388"
   class="st0"
   width="141.2"
   height="56"
   style="" />
</g>
<path
   id="Rectangle"
   class="st1"
   d="M41,1h400c22.1,0,40,17.9,40,40v387c0,22.1-17.9,40-40,40H41c-22.1,0-40-17.9-40-40V41  C1,18.9,18.9,1,41,1z"
   style="" />
<rect
   id="Rectangle-Copy-14"
   x="25"
   y="65"
   class="st2"
   width="432"
   height="267"
   style="" />
<rect
   id="Rectangle-Copy-16"
   x="249"
   y="131.5"
   class="st3"
   width="192"
   height="56"
   style="" />
<rect
   id="Rectangle-Copy-53"
   x="41"
   y="260"
   class="st3"
   width="192"
   height="56"
   style="" />
<rect
   id="Rectangle-Copy-44"
   x="249"
   y="259.5"
   class="st3"
   width="192"
   height="56"
   style="" />
<path
   id="Line-11-Copy-7"
   class="st4"
   d="M238,332l6.9,14l-6,0l-0.3,28l6,0l-7.1,14l-6.9-14l6,0l0.3-28l-6,0L238,332z"
   style="" />
<path
   id="Line-11-Copy-8"
   class="st4"
   d="M83,332l6.9,14l-6,0l-0.3,28l6,0l-7.1,14l-6.9-14l6,0l0.3-28l-6,0L83,332z"
   style="" />
<path
   id="Line-11-Copy-6"
   class="st4"
   d="M235,153l14,7l-14,7v-6h-92.5l-0.4,85l6,0l-7.1,14l-6.9-14l6,0l0.4-86l0-1H235V153z"
   style="" />
<path
   id="Line-11-Copy-9"
   class="st4"
   d="M506,153l14,7l-14,7v-6h-51v6l-14-7l14-7v6h51V153z"
   style="" />
<circle
   id="Oval"
   class="st5"
   cx="560.5"
   cy="157.5"
   r="32.5"
   style="" />
<path
   id="Shape"
   class="st6"
   d="M569.5,167h-17c-4.1,0-7.5-3.4-7.5-7.5c0-3.6,2.6-6.7,6.1-7.4c0,0,0.1,0,0.1-0.1c1-4.7,5.1-8,9.8-8  c0.6,0,1.3,0.1,1.9,0.2c4,0.8,7.1,3.9,7.9,7.9c0,0,0,0.1,0.1,0.1c4,0.8,6.7,4.7,6,8.7C576.2,164.4,573.1,167,569.5,167z M552.5,165  h17c2.7,0,4.9-1.9,5.4-4.5c0.3-1.8-0.2-3.6-1.5-4.9c-0.8-0.8-1.8-1.3-2.8-1.5l-0.3-0.1l-1.1-0.2c0,0-0.1,0-0.1-0.1l0,0l-0.2-1  c-0.6-3.2-3-5.8-6.1-6.5c-0.9-0.2-1.9-0.3-2.8-0.1c-3.4,0.5-6,3.1-6.8,6.5l-0.1,0.3l-0.2,0.9c0,0,0,0.1-0.1,0.1l0,0l-1,0.2  c-2.4,0.4-4.4,2.3-4.7,4.7C546.6,162.1,549.2,165,552.5,165z"
   style="" />
<rect
   x="508.6"
   y="197.6"
   class="st7"
   width="104.5"
   height="39.6"
   id="rect20"
   style="" />
<text
   id="text26"
   style="font-style:normal;font-variant:normal;font-weight:normal;font-stretch:normal;font-family:'Source Han Sans JP';-inkscape-font-specification:'Source Han Sans JP'"
   x="499.01788"
   y="207.98351"><tspan
     x="499.01788"
     y="207.98351"
     class="st8 st9 st10"
     id="tspan22"
     style="font-style:normal;font-variant:normal;font-weight:normal;font-stretch:normal;font-size:14px;font-family:'Source Han Sans JP';-inkscape-font-specification:'Source Han Sans JP';fill:#161616">クラウド・サーバー </tspan><tspan
     x="511.81787"
     y="227.98351"
     class="st8 st9 st10"
     id="tspan24"
     style="font-style:normal;font-variant:normal;font-weight:normal;font-stretch:normal;font-size:14px;font-family:'Source Han Sans JP';-inkscape-font-specification:'Source Han Sans JP';fill:#161616">(オプション)</tspan></text>

<rect
   x="250.5"
   y="354.6"
   class="st7"
   width="142.9"
   height="13.9"
   id="rect28"
   style="" />
<text
   transform="matrix(1 0 0 1 250.4992 364.9432)"
   class="st8 st9 st10"
   id="text30"
   style="-inkscape-font-specification:'Source Han Sans JP';font-family:'Source Han Sans JP';font-weight:normal;font-style:normal;font-stretch:normal;font-variant:normal;">ハードウェア・アクセス</text>

<rect
   x="322.2"
   y="207.7"
   class="st7"
   width="114.3"
   height="40.8"
   id="rect32"
   style="" />
<text
   id="text38"
   style="font-style:normal;font-variant:normal;font-weight:normal;font-stretch:normal;font-family:'Source Han Sans JP';-inkscape-font-specification:'Source Han Sans JP'"
   x="260.25"
   y="218.05099"><tspan
     x="260.25"
     y="218.05099"
     class="st11 st9 st10"
     id="tspan34"
     style="font-style:normal;font-variant:normal;font-weight:normal;font-stretch:normal;font-size:14px;font-family:'Source Han Sans JP';-inkscape-font-specification:'Source Han Sans JP';fill:#f4f4f4">Docker 仮想</tspan><tspan
     x="260.25"
     y="238.05099"
     class="st11 st9 st10"
     id="tspan36"
     style="font-style:normal;font-variant:normal;font-weight:normal;font-stretch:normal;font-size:14px;font-family:'Source Han Sans JP';-inkscape-font-specification:'Source Han Sans JP';fill:#f4f4f4">プライベート・ネットワーク</tspan></text>

<rect
   x="95.3"
   y="354.6"
   class="st7"
   width="77.2"
   height="13.9"
   id="rect40"
   style="" />
<text
   transform="matrix(1 0 0 1 95.3404 364.9427)"
   class="st8 st9 st10"
   id="text42"
   style="-inkscape-font-specification:'Source Han Sans JP';font-family:'Source Han Sans JP';font-weight:normal;font-style:normal;font-stretch:normal;font-variant:normal;">OS アクセス</text>

<rect
   x="248.9"
   y="140.6"
   class="st7"
   width="192"
   height="39.6"
   id="rect44"
   style="" />
<text
   id="text50"
   style="font-style:normal;font-variant:normal;font-weight:normal;font-stretch:normal;font-family:'Source Han Sans JP';-inkscape-font-specification:'Source Han Sans JP'"
   x="291.1973"
   y="152.99719"><tspan
     x="291.1973"
     y="152.99719"
     class="st8 st9 st10"
     id="tspan46"
     style="font-style:normal;font-variant:normal;font-weight:normal;font-stretch:normal;font-size:14px;font-family:'Source Han Sans JP';-inkscape-font-specification:'Source Han Sans JP';fill:#161616">cpu2msghub</tspan><tspan
     x="287.6973"
     y="172.99719"
     class="st8 st9 st10"
     id="tspan48"
     style="font-style:normal;font-variant:normal;font-weight:normal;font-stretch:normal;font-size:14px;font-family:'Source Han Sans JP';-inkscape-font-specification:'Source Han Sans JP';fill:#161616">(エッジ・サービス)</tspan></text>

<rect
   x="248.9"
   y="268.6"
   class="st7"
   width="192"
   height="39.6"
   id="rect52"
   style="" />
<text
   id="text58"
   style="font-style:normal;font-variant:normal;font-weight:normal;font-stretch:normal;font-size:14px;font-family:'Source Han Sans JP';-inkscape-font-specification:'Source Han Sans JP, Normal';font-variant-ligatures:normal;font-variant-caps:normal;font-variant-numeric:normal;font-feature-settings:normal;text-align:center;writing-mode:lr-tb;text-anchor:middle"
   x="345.56711"
   y="281.00049"><tspan
     sodipodi:role="line"
     id="tspan103"
     x="345.56711"
     y="281.00049">gps</tspan><tspan
     sodipodi:role="line"
     id="tspan105"
     x="345.56711"
     y="298.50049">(エッジ・サービス)</tspan></text>

<rect
   x="40.9"
   y="268.6"
   class="st7"
   width="192"
   height="39.6"
   id="rect60"
   style="" />
<text
   id="text66"
   style="font-style:normal;font-variant:normal;font-weight:normal;font-stretch:normal;font-size:14px;font-family:'Source Han Sans JP';-inkscape-font-specification:'Source Han Sans JP, Normal';font-variant-ligatures:normal;font-variant-caps:normal;font-variant-numeric:normal;font-feature-settings:normal;text-align:center;writing-mode:lr-tb;text-anchor:middle"
   x="141.1779"
   y="281.00049"><tspan
     sodipodi:role="line"
     id="tspan99"
     x="141.1779"
     y="281.00049">cpu</tspan><tspan
     sodipodi:role="line"
     id="tspan101"
     x="141.1779"
     y="298.50049">(エッジ・サービス)</tspan></text>

<rect
   x="172.5"
   y="409.2"
   class="st7"
   width="128.7"
   height="15.6"
   id="rect68"
   style="" />
<text
   class="st11 st12 st10"
   id="text70"
   style="font-style:normal;font-variant:normal;font-weight:normal;font-stretch:normal;font-size:14px;font-family:'Source Han Sans JP';-inkscape-font-specification:'Source Han Sans JP, Normal';font-variant-ligatures:normal;font-variant-caps:normal;font-variant-numeric:normal;font-feature-settings:normal;text-align:center;writing-mode:lr-tb;text-anchor:middle;fill:#f4f4f4"
   x="232.51579"
   y="413.51871"><tspan
     sodipodi:role="line"
     id="tspan95"
     x="232.51579"
     y="413.51871">ハードウェア・</tspan><tspan
     sodipodi:role="line"
     id="tspan97"
     x="232.51579"
     y="431.01871">センサー</tspan></text>

<rect
   x="327.6"
   y="409.2"
   class="st7"
   width="111"
   height="15.6"
   id="rect72"
   style="" />
<text
   class="st11 st12 st10"
   id="text74"
   style="font-style:normal;font-variant:normal;font-weight:normal;font-stretch:normal;font-size:14px;font-family:'Source Han Sans JP';-inkscape-font-specification:'Source Han Sans JP';fill:#f4f4f4"
   x="325.5885"
   y="419.51871">Docker ランタイム</text>

<rect
   x="39"
   y="409.2"
   class="st7"
   width="91.7"
   height="15.6"
   id="rect76"
   style="" />
<text
   class="st11 st12 st10"
   id="text78"
   style="font-style:normal;font-variant:normal;font-weight:normal;font-stretch:normal;font-size:14px;font-family:'Source Han Sans JP';-inkscape-font-specification:'Source Han Sans JP';fill:#f4f4f4"
   x="44.989399"
   y="421.51871">OS サービス</text>

<rect
   x="41"
   y="85.3"
   class="st7"
   width="236.1"
   height="15.6"
   id="rect80"
   style="" />
<text
   transform="matrix(1 0 0 1 41.0002 97.1207)"
   class="st11 st12 st13"
   id="text82"
   style="-inkscape-font-specification:'Source Han Sans JP';font-family:'Source Han Sans JP';font-weight:normal;font-style:normal;font-stretch:normal;font-variant:normal;">デプロイメント・パターン</text>

<rect
   x="25"
   y="29.2"
   class="st7"
   width="236.1"
   height="15.6"
   id="rect84"
   style="" />
<text
   transform="matrix(1 0 0 1 25.0038 40.9981)"
   class="st8 st12 st13"
   id="text86"
   style="-inkscape-font-specification:'Source Han Sans JP';font-family:'Source Han Sans JP';font-weight:normal;font-style:normal;font-stretch:normal;font-variant:normal;">エッジ・ノード</text>

</svg>
