<?xml version="1.0" encoding="UTF-8" standalone="no"?>
<!-- Generator: Adobe Illustrator 24.2.3, SVG Export Plug-In . SVG Version: 6.00 Build 0)  -->

<svg
   xmlns:dc="http://purl.org/dc/elements/1.1/"
   xmlns:cc="http://creativecommons.org/ns#"
   xmlns:rdf="http://www.w3.org/1999/02/22-rdf-syntax-ns#"
   xmlns:svg="http://www.w3.org/2000/svg"
   xmlns="http://www.w3.org/2000/svg"
   xmlns:sodipodi="http://sodipodi.sourceforge.net/DTD/sodipodi-0.dtd"
   xmlns:inkscape="http://www.inkscape.org/namespaces/inkscape"
   version="1.1"
   id="Layer_1"
   x="0px"
   y="0px"
   viewBox="0 0 880 450"
   style="enable-background:new 0 0 880 450;"
   xml:space="preserve"
   sodipodi:docname="10_Secrets.svg"
   inkscape:version="0.92.4 (5da689c313, 2019-01-14)"><metadata
   id="metadata269"><rdf:RDF><cc:Work
       rdf:about=""><dc:format>image/svg+xml</dc:format><dc:type
         rdf:resource="http://purl.org/dc/dcmitype/StillImage" /></cc:Work></rdf:RDF></metadata><defs
   id="defs267">
	
	
	
</defs><sodipodi:namedview
   pagecolor="#ffffff"
   bordercolor="#666666"
   borderopacity="1"
   objecttolerance="10"
   gridtolerance="10"
   guidetolerance="10"
   inkscape:pageopacity="0"
   inkscape:pageshadow="2"
   inkscape:window-width="1366"
   inkscape:window-height="705"
   id="namedview265"
   showgrid="false"
   inkscape:zoom="1.0488889"
   inkscape:cx="662.31044"
   inkscape:cy="249.92764"
   inkscape:window-x="-8"
   inkscape:window-y="-8"
   inkscape:window-maximized="1"
   inkscape:current-layer="Layer_1" />
<style
   type="text/css"
   id="style2">
	.st0{fill-rule:evenodd;clip-rule:evenodd;fill:#EDF5FF;}
	.st1{fill-rule:evenodd;clip-rule:evenodd;fill:#0F62FE;}
	.st2{fill-rule:evenodd;clip-rule:evenodd;fill:none;}
	.st3{fill:#161616;}
	.st4{font-family:'IBMPlexSans';}
	.st5{font-size:14px;}
	.st6{fill-rule:evenodd;clip-rule:evenodd;fill:#001D6C;}
	.st7{fill:#F4F4F4;}
	.st8{font-family:'IBMPlexSans-Medium';}
	.st9{font-size:16px;}
	.st10{fill-rule:evenodd;clip-rule:evenodd;fill:#4589FF;}
	.st11{fill-rule:evenodd;clip-rule:evenodd;fill:#E3F6FF;}
	.st12{fill-rule:evenodd;clip-rule:evenodd;fill:#E5F6FF;}
	.st13{fill:none;stroke:#0F62FE;stroke-width:2;stroke-miterlimit:10;}
	.st14{fill-rule:evenodd;clip-rule:evenodd;fill:#8A3FFC;}
	.st15{fill-rule:evenodd;clip-rule:evenodd;fill:#FFFFFF;}
	.st16{fill-rule:evenodd;clip-rule:evenodd;fill:#24A148;}
	.st17{fill-rule:evenodd;clip-rule:evenodd;fill:#491D8B;}
	.st18{fill:#BEBEBE;}
	.st19{fill:none;stroke:#BEBEBE;stroke-width:2;stroke-miterlimit:10;}
</style>
<g
   id="Group-2_13_"
   transform="translate(47.000000, 0.000000)"
   style="">
	<circle
   id="Oval-Copy-3_15_"
   class="st0"
   cx="-5"
   cy="24"
   r="24"
   style="" />
	<g
   id="icon_x2F_developer_3_"
   transform="translate(8.000000, 8.000000)"
   style="">
		<path
   id="Shape_16_"
   class="st1"
   d="M-18,19c2.8,0,5,2.2,5,5v6h-2v-6c0-1.7-1.3-3-3-3h-4c-1.7,0-3,1.3-3,3v6h-2v-6    c0-2.8,2.2-5,5-5H-18z M-20,7c2.8,0,5,2.2,5,5s-2.2,5-5,5s-5-2.2-5-5S-22.7,7-20,7z M-4.9,5.9L-3,6.3l-2.4,10.4l-1.8-0.4L-4.9,5.9    z M-10.1,7.6l1.4,1.2l-2.1,2.6l2.1,2.6l-1.4,1.2l-3.1-3.7L-10.1,7.6z M-0.2,7.6l3.1,3.7L-0.2,15l-1.4-1.2l2.1-2.6l-2.1-2.6    L-0.2,7.6z M-20,9c-1.7,0-3,1.3-3,3c0,1.7,1.3,3,3,3s3-1.3,3-3S-18.3,9-20,9z"
   style="" />
	</g>
</g>
<rect
   x="2.8"
   y="58.9"
   class="st2"
   width="77.3"
   height="37.4"
   id="rect8"
   style="" />
<text
   id="text14"
   style="font-style:normal;font-variant:normal;font-weight:normal;font-stretch:normal;font-size:14px;font-family:'Source Han Sans JP';-inkscape-font-specification:'Source Han Sans JP, Normal';font-variant-ligatures:normal;font-variant-caps:normal;font-variant-numeric:normal;font-feature-settings:normal;text-align:center;writing-mode:lr-tb;text-anchor:middle"
   x="36.6124"
   y="69.233902"><tspan
     sodipodi:role="line"
     id="tspan271"
     x="36.6124"
     y="69.233902">ソフトウェア</tspan><tspan
     sodipodi:role="line"
     id="tspan273"
     x="36.6124"
     y="86.733902">開発者</tspan></text>

<rect
   id="Rectangle-Copy-12_2_"
   x="441"
   y="184.5"
   class="st6"
   width="216"
   height="73"
   style="" />
<rect
   x="457"
   y="200.5"
   class="st2"
   width="176"
   height="15.6"
   id="rect17"
   style="" />
<text
   transform="matrix(1 0 0 1 457 212.3398)"
   class="st7 st8 st9"
   id="text19"
   style="-inkscape-font-specification:'Source Han Sans JP';font-family:'Source Han Sans JP';font-weight:normal;font-style:normal;font-stretch:normal;font-variant:normal;">管理ハブ</text>

<rect
   id="Rectangle-Copy_2_"
   x="728"
   y="241.5"
   class="st10"
   width="152"
   height="194"
   style="" />
<rect
   x="744"
   y="257.7"
   class="st2"
   width="95"
   height="15.6"
   id="rect22"
   style="" />
<text
   transform="matrix(1 0 0 1 744.0157 269.5811)"
   class="st7 st8 st9"
   id="text24"
   style="-inkscape-font-specification:'Source Han Sans JP, Normal';font-family:'Source Han Sans JP';font-weight:normal;font-style:normal;font-stretch:normal;font-variant:normal;font-size:16px;text-anchor:start;text-align:start;writing-mode:lr;font-variant-ligatures:normal;font-variant-caps:normal;font-variant-numeric:normal;font-feature-settings:normal;">エッジ・ノード</text>

<g
   transform="translate(21)"
   id="Group-2_14_">
		<circle
   style="clip-rule:evenodd;fill:#e3f6ff;fill-rule:evenodd"
   r="24"
   cy="296.5"
   cx="505"
   class="st11"
   id="Oval-Copy-3_16_" />
		<g
   transform="translate(8,8)"
   id="icon_x2F_policy-admin_3_">
			<path
   inkscape:connector-curvature="0"
   style="clip-rule:evenodd;fill:#0f62fe;fill-rule:evenodd"
   d="m 492,291.5 c 2.8,0 5,2.2 5,5 v 6 h -2 v -6 c 0,-1.7 -1.3,-3 -3,-3 h -4 c -1.7,0 -3,1.3 -3,3 v 6 h -2 v -6 c 0,-2.8 2.2,-5 5,-5 z m -2,-12 c 2.8,0 5,2.2 5,5 0,2.8 -2.2,5 -5,5 -2.8,0 -5,-2.2 -5,-5 0,-2.7 2.3,-5 5,-5 z m 18.6,0 1.4,1.4 -7.1,7.1 -3.9,-3.9 1.4,-1.4 2.5,2.5 z m -18.6,2 c -1.7,0 -3,1.3 -3,3 0,1.7 1.3,3 3,3 1.7,0 3,-1.3 3,-3 0,-1.7 -1.3,-3 -3,-3 z"
   class="st1"
   id="Shape_17_" />
		</g>
	</g><rect
   style="clip-rule:evenodd;fill:none;fill-rule:evenodd"
   id="rect30"
   height="15.5"
   width="94.5"
   class="st2"
   y="331.10001"
   x="478.20001" /><text
   style="font-style:normal;font-variant:normal;font-weight:normal;font-stretch:normal;font-size:14px;font-family:'Source Han Sans JP';-inkscape-font-specification:'Source Han Sans JP, Normal';font-variant-ligatures:normal;font-variant-caps:normal;font-variant-numeric:normal;font-feature-settings:normal;text-align:start;writing-mode:lr-tb;text-anchor:start;fill:#161616"
   id="text32"
   class="st3 st4 st5"
   x="501.30249"
   y="341.4559">管理者</text>

<g
   id="Layer_2"
   style="">
</g>
<rect
   x="763.8"
   y="101"
   class="st2"
   width="116.5"
   height="37.5"
   id="rect37"
   style="" />
<text
   id="text43"
   style="font-style:normal;font-variant:normal;font-weight:normal;font-stretch:normal;font-family:'Source Han Sans JP';-inkscape-font-specification:'Source Han Sans JP'"
   x="807.37592"
   y="111.3827"><tspan
     x="807.37592"
     y="111.3827"
     class="st3 st4 st5"
     id="tspan39"
     style="font-style:normal;font-variant:normal;font-weight:normal;font-stretch:normal;font-size:14px;font-family:'Source Han Sans JP';-inkscape-font-specification:'Source Han Sans JP';fill:#161616">組織</tspan><tspan
     x="804.57593"
     y="131.38271"
     class="st3 st4 st5"
     id="tspan41"
     style="font-style:normal;font-variant:normal;font-weight:normal;font-stretch:normal;font-size:14px;font-family:'Source Han Sans JP';-inkscape-font-specification:'Source Han Sans JP';fill:#161616">管理者</tspan></text>

<g
   id="g62"
   style="">
	<circle
   id="Oval-Copy-3_13_"
   class="st12"
   cx="822"
   cy="66"
   r="24"
   style="" />
	<path
   class="st1"
   d="M817,69c2.8,0,5,2.2,5,5v6h-2v-6c0-1.7-1.3-3-3-3h-4c-1.7,0-3,1.3-3,3v6h-2v-6c0-2.8,2.2-5,5-5H817z"
   id="path46"
   style="" />
	<g
   id="g52"
   style="">
		<g
   id="g50"
   style="">
			<path
   class="st1"
   d="M815,57c-2.8,0-5,2.2-5,5c0,2.8,2.2,5,5,5c2.8,0,5-2.2,5-5C820,59.2,817.8,57,815,57z M815,65     c-1.7,0-3-1.3-3-3c0-1.7,1.3-3,3-3c1.7,0,3,1.3,3,3C818,63.7,816.7,65,815,65z"
   id="path48"
   style="" />
		</g>
	</g>
	<rect
   x="825"
   y="55"
   class="st13"
   width="4"
   height="4"
   id="rect54"
   style="" />
	<rect
   x="833"
   y="55"
   class="st13"
   width="4"
   height="4"
   id="rect56"
   style="" />
	<rect
   x="825"
   y="63"
   class="st13"
   width="4"
   height="4"
   id="rect58"
   style="" />
	<rect
   x="833"
   y="63"
   class="st13"
   width="4"
   height="4"
   id="rect60"
   style="" />
</g>
<rect
   id="Rectangle-Copy-18_4_"
   x="290"
   y="1.5"
   class="st14"
   width="120"
   height="96"
   style="" />
<rect
   x="306"
   y="17.5"
   class="st2"
   width="45"
   height="15.6"
   id="rect65"
   style="" />
<text
   transform="matrix(1 0 0 1 306 29.3397)"
   class="st7 st8 st9"
   id="text67"
   style="-inkscape-font-specification:'Source Han Sans JP';font-family:'Source Han Sans JP';font-weight:normal;font-style:normal;font-stretch:normal;font-variant:normal;">アプリ</text>

<rect
   id="Rectangle-Copy-10_4_"
   x="306"
   y="49.5"
   class="st15"
   width="88"
   height="32"
   style="" />
<rect
   x="330"
   y="60.5"
   class="st2"
   width="46"
   height="16"
   id="rect70"
   style="" />
<text
   transform="matrix(1 0 0 1 330.0001 70.8596)"
   class="st3 st4 st5"
   id="text72"
   style="-inkscape-font-specification:'Source Han Sans JP';font-family:'Source Han Sans JP';font-weight:normal;font-style:normal;font-stretch:normal;font-variant:normal;">秘密</text>

<rect
   x="314"
   y="57.5"
   class="st1"
   width="8"
   height="16"
   id="rect74"
   style="" />
<rect
   id="Rectangle-Copy-18_5_"
   x="290"
   y="113.5"
   class="st14"
   width="120"
   height="96"
   style="" />
<rect
   x="306"
   y="129.5"
   class="st2"
   width="73"
   height="15.6"
   id="rect77"
   style="" />
<text
   transform="matrix(1 0 0 1 306 141.3397)"
   class="st7 st8 st9"
   id="text79"
   style="-inkscape-font-specification:'Source Han Sans JP';font-family:'Source Han Sans JP';font-weight:normal;font-style:normal;font-stretch:normal;font-variant:normal;">サービス</text>

<rect
   id="Rectangle-Copy-10_5_"
   x="306"
   y="161.5"
   class="st15"
   width="88"
   height="32"
   style="" />
<rect
   x="330"
   y="172.5"
   class="st2"
   width="46"
   height="16"
   id="rect82"
   style="" />
<text
   transform="matrix(1 0 0 1 330.0001 182.8596)"
   class="st3 st4 st5"
   id="text84"
   style="-inkscape-font-specification:'Source Han Sans JP';font-family:'Source Han Sans JP';font-weight:normal;font-style:normal;font-stretch:normal;font-variant:normal;">秘密</text>

<rect
   x="314"
   y="169.5"
   class="st1"
   width="8"
   height="16"
   id="rect86"
   style="" />
<rect
   id="Rectangle-Copy-18_6_"
   x="744"
   y="323.5"
   class="st14"
   width="120"
   height="96"
   style="" />
<rect
   x="760"
   y="339.5"
   class="st2"
   width="73"
   height="15.6"
   id="rect89"
   style="" />
<text
   transform="matrix(1 0 0 1 760 351.3397)"
   class="st7 st8 st9"
   id="text91"
   style="-inkscape-font-specification:'Source Han Sans JP';font-family:'Source Han Sans JP';font-weight:normal;font-style:normal;font-stretch:normal;font-variant:normal;">サービス</text>

<rect
   id="Rectangle-Copy-10_8_"
   x="760"
   y="371.5"
   class="st15"
   width="88"
   height="32"
   style="" />
<rect
   x="784"
   y="382.5"
   class="st2"
   width="46"
   height="16"
   id="rect94"
   style="" />
<text
   transform="matrix(1 0 0 1 784.0001 392.8596)"
   class="st3 st4 st5"
   id="text96"
   style="-inkscape-font-specification:'Source Han Sans JP';font-family:'Source Han Sans JP';font-weight:normal;font-style:normal;font-stretch:normal;font-variant:normal;">秘密</text>

<rect
   x="768"
   y="379.5"
   class="st16"
   width="8"
   height="16"
   id="rect98"
   style="" />
<rect
   id="Rectangle-Copy-18_3_"
   x="120"
   y="273.5"
   class="st17"
   width="245"
   height="104"
   style="" />
<rect
   x="136"
   y="289.5"
   class="st2"
   width="75"
   height="15.6"
   id="rect101"
   style="" />
<text
   transform="matrix(1 0 0 1 136 301.3397)"
   class="st7 st8 st9"
   id="text103"
   style="-inkscape-font-specification:'Source Han Sans JP';font-family:'Source Han Sans JP';font-weight:normal;font-style:normal;font-stretch:normal;font-variant:normal;">ポリシー</text>

<rect
   id="Rectangle-Copy-10_6_"
   x="130"
   y="321.5"
   class="st15"
   width="86"
   height="32"
   style="" />
<rect
   x="154"
   y="332.5"
   class="st2"
   width="46"
   height="16"
   id="rect106"
   style="" />
<text
   transform="matrix(1 0 0 1 154.0001 342.8596)"
   class="st3 st4 st5"
   id="text108"
   style="-inkscape-font-specification:'Source Han Sans JP';font-family:'Source Han Sans JP';font-weight:normal;font-style:normal;font-stretch:normal;font-variant:normal;">秘密</text>

<rect
   x="138"
   y="329.5"
   class="st1"
   width="8"
   height="16"
   id="rect110"
   style="" />
<rect
   id="Rectangle-Copy-10_7_"
   x="263"
   y="321.5"
   class="st15"
   width="86"
   height="32"
   style="" />
<rect
   x="287"
   y="332.5"
   class="st2"
   width="46"
   height="16"
   id="rect113"
   style="" />
<text
   transform="matrix(1 0 0 1 287.0001 342.8596)"
   class="st3 st4 st5"
   id="text115"
   style="-inkscape-font-specification:'Source Han Sans JP';font-family:'Source Han Sans JP';font-weight:normal;font-style:normal;font-stretch:normal;font-variant:normal;">秘密</text>

<rect
   x="271"
   y="329.5"
   class="st16"
   width="8"
   height="16"
   id="rect117"
   style="" />
<path
   id="Path-4_7_"
   class="st18"
   d="M230,337.5h19v-6l14,7l-14,7v-6h-19V337.5z"
   style="" />
<path
   id="Path-4_6_"
   class="st18"
   d="M249,337.5h-19v-6l-14,7l14,7v-6h19V337.5z"
   style="" />
<rect
   x="656"
   y="46.5"
   class="st2"
   width="115"
   height="16"
   id="rect121"
   style="" />
<text
   class="st3 st4 st5"
   id="text123"
   style="font-style:normal;font-variant:normal;font-weight:normal;font-stretch:normal;font-size:14px;font-family:'Source Han Sans JP';-inkscape-font-specification:'Source Han Sans JP, Normal';font-variant-ligatures:normal;font-variant-caps:normal;font-variant-numeric:normal;font-feature-settings:normal;text-align:start;writing-mode:lr-tb;text-anchor:start;fill:#161616"
   x="660.26093"
   y="40.8867"><tspan
     sodipodi:role="line"
     id="tspan285"
     x="660.26093"
     y="40.8867">5. シークレットを</tspan><tspan
     sodipodi:role="line"
     id="tspan287"
     x="660.26093"
     y="58.3867">作成する</tspan></text>

<rect
   x="146"
   y="18.5"
   class="st2"
   width="127"
   height="16"
   id="rect125"
   style="" />
<text
   class="st3 st4 st5"
   id="text127"
   style="font-style:normal;font-variant:normal;font-weight:normal;font-stretch:normal;font-size:14px;font-family:'Source Han Sans JP';-inkscape-font-specification:'Source Han Sans JP, Normal';font-variant-ligatures:normal;font-variant-caps:normal;font-variant-numeric:normal;font-feature-settings:normal;text-align:start;writing-mode:lr-tb;text-anchor:start;fill:#161616"
   x="142.0157"
   y="16.8867"><tspan
     sodipodi:role="line"
     id="tspan275"
     x="142.0157"
     y="16.8867">1. アプリを開発/</tspan><tspan
     sodipodi:role="line"
     id="tspan277"
     x="142.0157"
     y="34.3867">テストする</tspan></text>

<rect
   x="146"
   y="59.5"
   class="st2"
   width="127"
   height="16"
   id="rect129"
   style="" />
<text
   class="st3 st4 st5"
   id="text131"
   style="font-style:normal;font-variant:normal;font-weight:normal;font-stretch:normal;font-size:14px;font-family:'Source Han Sans JP';-inkscape-font-specification:'Source Han Sans JP';fill:#161616"
   x="120.0157"
   y="69.886703">2. シークレットを定義する</text>

<rect
   x="146"
   y="114.5"
   class="st2"
   width="127"
   height="16"
   id="rect133"
   style="" />
<text
   class="st3 st4 st5"
   id="text135"
   style="font-style:normal;font-variant:normal;font-weight:normal;font-stretch:normal;font-size:14px;font-family:'Source Han Sans JP';-inkscape-font-specification:'Source Han Sans JP';fill:#161616"
   x="106.0157"
   y="124.8867">3. アプリをパッケージする</text>

<rect
   x="420"
   y="131.5"
   class="st2"
   width="132"
   height="16"
   id="rect137"
   style="" />
<text
   transform="matrix(1 0 0 1 420.0157 141.8867)"
   class="st3 st4 st5"
   id="text139"
   style="-inkscape-font-specification:'Source Han Sans JP';font-family:'Source Han Sans JP';font-weight:normal;font-style:normal;font-stretch:normal;font-variant:normal;">4. サービスを公開する</text>

<rect
   x="481"
   y="365.5"
   class="st2"
   width="203"
   height="16"
   id="rect141"
   style="" />
<text
   class="st3 st4 st5"
   id="text143"
   style="font-style:normal;font-variant:normal;font-weight:normal;font-stretch:normal;font-size:14px;font-family:'Source Han Sans JP';-inkscape-font-specification:'Source Han Sans JP';fill:#161616"
   x="473.01569"
   y="375.88669">6. デプロイメント・ポリシーを作成する</text>

<rect
   x="481"
   y="389.5"
   class="st2"
   width="203"
   height="16"
   id="rect145"
   style="" />
<text
   class="st3 st4 st5"
   id="text147"
   style="font-style:normal;font-variant:normal;font-weight:normal;font-stretch:normal;font-size:14px;font-family:'Source Han Sans JP';-inkscape-font-specification:'Source Han Sans JP';fill:#161616"
   x="473.01569"
   y="399.88669">7. シークレットをバインドする</text>

<rect
   x="481"
   y="413.5"
   class="st2"
   width="203"
   height="16"
   id="rect149"
   style="" />
<text
   class="st3 st4 st5"
   id="text151"
   style="font-style:normal;font-variant:normal;font-weight:normal;font-stretch:normal;font-size:14px;font-family:'Source Han Sans JP';-inkscape-font-specification:'Source Han Sans JP';fill:#161616"
   x="473.01569"
   y="423.88669">8. デプロイメント・ポリシーを公開する</text>

<rect
   x="674"
   y="181.5"
   class="st2"
   width="135"
   height="33"
   id="rect153"
   style="" />
<text
   id="text159"
   style="font-style:normal;font-variant:normal;font-weight:normal;font-stretch:normal;font-family:'Source Han Sans JP';-inkscape-font-specification:'Source Han Sans JP'"
   x="666.01569"
   y="191.8867"><tspan
     x="666.01569"
     y="191.8867"
     class="st3 st4 st5"
     id="tspan155"
     style="font-style:normal;font-variant:normal;font-weight:normal;font-stretch:normal;font-size:14px;font-family:'Source Han Sans JP';-inkscape-font-specification:'Source Han Sans JP';fill:#161616">9. シークレットと共に</tspan><tspan
     x="666.01569"
     y="208.68671"
     class="st3 st4 st5"
     id="tspan157"
     style="font-style:normal;font-variant:normal;font-weight:normal;font-stretch:normal;font-size:14px;font-family:'Source Han Sans JP';-inkscape-font-specification:'Source Han Sans JP';fill:#161616">サービスがデプロイされる</tspan></text>

<g
   id="g169"
   style="">
	<g
   id="g167"
   style="">
		<polyline
   class="st19"
   points="410,150.5 562,150.5 562,174.5   "
   id="polyline161"
   style="" />
		<g
   id="g165"
   style="">
			<polygon
   class="st18"
   points="555,172.4 562,184.5 569,172.4    "
   id="polygon163"
   style="" />
		</g>
	</g>
</g>
<g
   id="g179"
   style="">
	<g
   id="g177"
   style="">
		<polyline
   class="st19"
   points="82,23.5 133,23.5 133,39.5 280,39.5   "
   id="polyline171"
   style="" />
		<g
   id="g175"
   style="">
			<polygon
   class="st18"
   points="277.9,46.5 290,39.5 277.9,32.5    "
   id="polygon173"
   style="" />
		</g>
	</g>
</g>
<g
   id="g189"
   style="">
	<g
   id="g187"
   style="">
		<polyline
   class="st19"
   points="82,41.5 115,41.5 115,79.5 280,79.5   "
   id="polyline181"
   style="" />
		<g
   id="g185"
   style="">
			<polygon
   class="st18"
   points="277.9,86.5 290,79.5 277.9,72.5    "
   id="polygon183"
   style="" />
		</g>
	</g>
</g>
<g
   id="g199"
   style="">
	<g
   id="g197"
   style="">
		<polyline
   class="st19"
   points="82,59.5 97,59.5 97,135.5 280,135.5   "
   id="polyline191"
   style="" />
		<g
   id="g195"
   style="">
			<polygon
   class="st18"
   points="277.9,142.5 290,135.5 277.9,128.5    "
   id="polygon193"
   style="" />
		</g>
	</g>
</g>
<g
   id="g209"
   style="">
	<g
   id="g207"
   style="">
		<line
   class="st19"
   x1="343"
   y1="273.5"
   x2="343"
   y2="220.6"
   id="line201"
   style="" />
		<g
   id="g205"
   style="">
			<polygon
   class="st18"
   points="350,222.6 343,210.5 336,222.6    "
   id="polygon203"
   style="" />
		</g>
	</g>
</g>
<g
   id="g219"
   style="">
	<g
   id="g217"
   style="">
		<polyline
   class="st19"
   points="468,267.6 468,438.5 239,438.5 239,377.5   "
   id="polyline211"
   style="" />
		<g
   id="g215"
   style="">
			<polygon
   class="st18"
   points="461,269.6 468,257.5 475,269.6    "
   id="polygon213"
   style="" />
		</g>
	</g>
</g>
<g
   id="g229"
   style="">
	<g
   id="g227"
   style="">
		<polyline
   class="st19"
   points="657,218.5 818,218.5 818,231.5   "
   id="polyline221"
   style="" />
		<g
   id="g225"
   style="">
			<polygon
   class="st18"
   points="811,229.4 818,241.5 825,229.4    "
   id="polygon223"
   style="" />
		</g>
	</g>
</g>
<g
   id="g242"
   style="">
	<g
   id="Rectangle-Copy-10_9_"
   style="">
		<rect
   x="544.5"
   y="49"
   class="st15"
   width="87"
   height="33"
   id="rect231"
   style="" />
		<path
   class="st3"
   d="M631,49.5v32h-86v-32H631 M632,48.5h-1h-86h-1v1v32v1h1h86h1v-1v-32V48.5L632,48.5z"
   id="path233"
   style="" />
	</g>
	<rect
   x="569"
   y="60.5"
   class="st2"
   width="46"
   height="16"
   id="rect236"
   style="" />
	<text
   transform="matrix(1 0 0 1 569.0001 70.8596)"
   class="st3 st4 st5"
   id="text238"
   style="">秘密</text>

	<rect
   x="553"
   y="57.5"
   class="st16"
   width="8"
   height="16"
   id="rect240"
   style="" />
</g>
<g
   id="g252"
   style="">
	<g
   id="g250"
   style="">
		<line
   class="st19"
   x1="785"
   y1="65.5"
   x2="642.1"
   y2="65.5"
   id="line244"
   style="" />
		<g
   id="g248"
   style="">
			<polygon
   class="st18"
   points="644.1,58.5 632,65.5 644.1,72.5    "
   id="polygon246"
   style="" />
		</g>
	</g>
</g>
<g
   id="g262"
   style="">
	<g
   id="g260"
   style="">
		<line
   class="st19"
   x1="588"
   y1="82.5"
   x2="588"
   y2="174.5"
   id="line254"
   style="" />
		<g
   id="g258"
   style="">
			<polygon
   class="st18"
   points="581,172.4 588,184.5 595,172.4    "
   id="polygon256"
   style="" />
		</g>
	</g>
</g>
</svg>
