<svg xmlns="http://www.w3.org/2000/svg" xmlns:xlink="http://www.w3.org/1999/xlink" x="0" y="0" version="1.1" viewBox="0 0 2572 2310" xml:space="preserve" style="enable-background:new 0 0 2572 2310"><style type="text/css">.st0{fill:#fff}.st1{opacity:.57}.st2{fill:url(#SVGID_1_)}.st3{fill:url(#SVGID_2_)}.st4{fill:url(#SVGID_3_)}.st5{fill:url(#SVGID_4_)}.st6{fill:url(#SVGID_5_)}.st7{fill:url(#SVGID_6_)}.st8{fill:url(#SVGID_7_)}.st9{fill:url(#SVGID_8_)}.st10{fill:url(#SVGID_9_)}.st11{fill:url(#SVGID_10_)}.st12{fill:url(#SVGID_11_)}.st13{fill:url(#SVGID_12_)}.st14{fill:url(#SVGID_13_)}.st15{fill:url(#SVGID_14_)}</style><g id="Layer_13"><rect width="2601" height="2478" x="-29" y="-56"/></g><g id="Layer_6"><g><path d="M1445.78,1278.91l-0.34-0.54c-5.57-8.93-3.35-20.66,5.14-26.88c97.93-71.7,128.76-204.63,72.38-312.13 c-4.89-9.32-1.71-20.83,7.21-26.4l0.55-0.35c9.93-6.19,23.06-2.68,28.5,7.67c65.85,125.45,29.87,280.61-84.48,364.27 C1465.31,1291.47,1451.97,1288.84,1445.78,1278.91z" class="st0"/><path d="M1402.26,1209.1l-0.35-0.56c-5.42-8.7-3.49-20.12,4.58-26.45c60.36-47.37,79.69-130.72,46.33-199.83 c-4.46-9.23-1.17-20.34,7.53-25.77l0.56-0.35c10.22-6.37,23.66-2.4,28.89,8.45c41.62,86.34,17.48,190.43-57.88,249.63 C1422.45,1221.67,1408.63,1219.32,1402.26,1209.1z" class="st0"/><path d="M1358.43,1138.81l-0.35-0.56c-5.15-8.26-3.53-18.87,3.53-25.57c23.71-22.49,31.75-57.19,20.36-87.83 c-3.39-9.12-0.17-19.37,8.09-24.51l0.56-0.35c10.73-6.69,24.98-2,29.47,9.81c17.65,46.43,5.4,99.27-30.88,133.19 C1379.98,1151.61,1365.12,1149.54,1358.43,1138.81z" class="st0"/></g></g><g id="Layer_5"><g class="st1"><linearGradient id="SVGID_1_" x1="715.221" x2="715.221" y1="1496.705" y2="1667.626" gradientUnits="userSpaceOnUse"><stop offset=".253" style="stop-color:#f6f6f6;stop-opacity:.849"/><stop offset=".406" style="stop-color:#c3c3c3;stop-opacity:.676"/><stop offset="1" style="stop-color:#000;stop-opacity:0"/></linearGradient><path d="M756.39,1661.86c0,1.12-0.22,2.36-0.65,3.73c-0.44,1.37-1.15,2.68-2.15,3.92c-1,1.24-2.24,2.3-3.73,3.17 c-1.49,0.87-3.36,1.31-5.6,1.31h-58.07c-2.24,0-4.11-0.44-5.6-1.31c-1.49-0.87-2.74-1.93-3.73-3.17c-1-1.25-1.71-2.55-2.15-3.92 c-0.44-1.37-0.65-2.61-0.65-3.73v-96.36c0-2.12,0.47-4.05,1.4-5.79c0.93-1.74,2.21-3.11,3.83-4.11l25.4-16.62 c1.37-0.87,3.24-1.31,5.6-1.31c1.74,0,3.55,0.44,5.42,1.31l33.43,17.74c1.74,1,3.42,2.43,5.04,4.29c1.62,1.87,2.36,4.11,2.24,6.72 V1661.86z M710.64,1560.84l-12.51,8.22v83.47h34.17v-80.48L710.64,1560.84z" class="st2"/><linearGradient id="SVGID_2_" x1="826.88" x2="826.88" y1="1496.705" y2="1667.626" gradientUnits="userSpaceOnUse"><stop offset=".253" style="stop-color:#f6f6f6;stop-opacity:.849"/><stop offset=".406" style="stop-color:#c3c3c3;stop-opacity:.676"/><stop offset="1" style="stop-color:#000;stop-opacity:0"/></linearGradient><path d="M812.41,1540.86v33.8l40.9,8.78c4.36,0.75,7.47,2.43,9.34,5.04c1.87,2.61,2.8,4.98,2.8,7.1v66.29 c0,1.12-0.22,2.36-0.65,3.73c-0.44,1.37-1.15,2.68-2.15,3.92c-1,1.24-2.24,2.3-3.73,3.17c-1.49,0.87-3.36,1.31-5.6,1.31 l-64.98-0.93v-132.21H812.41z M841.35,1605.47l-28.94-7.1v54.15h28.94V1605.47z" class="st3"/><linearGradient id="SVGID_3_" x1="930.145" x2="930.145" y1="1496.705" y2="1667.626" gradientUnits="userSpaceOnUse"><stop offset=".253" style="stop-color:#f6f6f6;stop-opacity:.849"/><stop offset=".406" style="stop-color:#c3c3c3;stop-opacity:.676"/><stop offset="1" style="stop-color:#000;stop-opacity:0"/></linearGradient><path d="M895.6,1549.26c0.43-1.37,1.15-2.68,2.15-3.92c0.99-1.25,2.24-2.3,3.73-3.17c1.49-0.87,3.36-1.31,5.6-1.31 h58.26v22.59h-46.31v36.6h42.58v22.59h-42.58v28.76h46.31V1674h-70.4v-121C894.95,1551.88,895.16,1550.63,895.6,1549.26z" class="st4"/><linearGradient id="SVGID_4_" x1="1034.995" x2="1034.995" y1="1496.705" y2="1667.626" gradientUnits="userSpaceOnUse"><stop offset=".253" style="stop-color:#f6f6f6;stop-opacity:.849"/><stop offset=".406" style="stop-color:#c3c3c3;stop-opacity:.676"/><stop offset="1" style="stop-color:#000;stop-opacity:0"/></linearGradient><path d="M1018.75,1674h-23.9v-133.14h24.09v96.73l24.28,14.94h7.84v-111.67h24.09v121c0,1.12-0.22,2.36-0.65,3.73 c-0.44,1.37-1.15,2.68-2.15,3.92c-1,1.24-2.24,2.3-3.73,3.17c-1.49,0.87-3.36,1.31-5.6,1.31h-15.87c-4.85,0-9.34-1.43-13.44-4.29 l-14.19-9.52h-0.75V1674z" class="st5"/><linearGradient id="SVGID_5_" x1="1183.447" x2="1183.447" y1="1496.705" y2="1667.626" gradientUnits="userSpaceOnUse"><stop offset=".253" style="stop-color:#f6f6f6;stop-opacity:.849"/><stop offset=".406" style="stop-color:#c3c3c3;stop-opacity:.676"/><stop offset="1" style="stop-color:#000;stop-opacity:0"/></linearGradient><path d="M1201.19,1674v-49.49h-35.48V1674h-24.09v-133.14h24.09v60.5h35.48v-60.5h24.09V1674H1201.19z" class="st6"/><linearGradient id="SVGID_6_" x1="1298.948" x2="1298.948" y1="1496.705" y2="1667.626" gradientUnits="userSpaceOnUse"><stop offset=".253" style="stop-color:#f6f6f6;stop-opacity:.849"/><stop offset=".406" style="stop-color:#c3c3c3;stop-opacity:.676"/><stop offset="1" style="stop-color:#000;stop-opacity:0"/></linearGradient><path d="M1340.12,1661.86c0,1.12-0.22,2.36-0.65,3.73c-0.44,1.37-1.15,2.68-2.15,3.92c-1,1.24-2.24,2.3-3.73,3.17 c-1.49,0.87-3.36,1.31-5.6,1.31h-58.07c-2.24,0-4.11-0.44-5.6-1.31c-1.49-0.87-2.74-1.93-3.73-3.17c-1-1.25-1.71-2.55-2.15-3.92 c-0.44-1.37-0.65-2.61-0.65-3.73v-96.36c0-2.12,0.47-4.05,1.4-5.79c0.93-1.74,2.21-3.11,3.83-4.11l25.4-16.62 c1.37-0.87,3.24-1.31,5.6-1.31c1.74,0,3.55,0.44,5.42,1.31l33.43,17.74c1.74,1,3.42,2.43,5.04,4.29c1.62,1.87,2.36,4.11,2.24,6.72 V1661.86z M1294.37,1560.84l-12.51,8.22v83.47h34.17v-80.48L1294.37,1560.84z" class="st7"/><linearGradient id="SVGID_7_" x1="1410.607" x2="1410.607" y1="1496.705" y2="1667.626" gradientUnits="userSpaceOnUse"><stop offset=".253" style="stop-color:#f6f6f6;stop-opacity:.849"/><stop offset=".406" style="stop-color:#c3c3c3;stop-opacity:.676"/><stop offset="1" style="stop-color:#000;stop-opacity:0"/></linearGradient><path d="M1448.23,1540.86l-0.93,32.68c-0.25,4.6-1.93,8.59-5.04,11.95l-13.82,14.57l-0.93-2.8l9.52,2.24 c4.23,0.99,7.31,2.8,9.24,5.41c1.93,2.62,2.89,4.98,2.89,7.1v49.86c0,1.12-0.22,2.36-0.65,3.73c-0.44,1.37-1.15,2.68-2.15,3.92 c-1,1.24-2.24,2.3-3.73,3.17c-1.49,0.87-3.36,1.31-5.6,1.31l-64.98-0.93v-132.21h24.09v55.46l-4.48-7.47l18.3,4.11l-7.28,2.99 l22.41-26.89l0.93-28.2H1448.23z M1425.08,1617.05l-28.94-6.91v42.39h28.94V1617.05z" class="st8"/><linearGradient id="SVGID_8_" x1="1494.264" x2="1494.264" y1="1496.705" y2="1667.626" gradientUnits="userSpaceOnUse"><stop offset=".253" style="stop-color:#f6f6f6;stop-opacity:.849"/><stop offset=".406" style="stop-color:#c3c3c3;stop-opacity:.676"/><stop offset="1" style="stop-color:#000;stop-opacity:0"/></linearGradient><path d="M1482.22,1674v-133.14h24.09V1674H1482.22z" class="st9"/><linearGradient id="SVGID_9_" x1="1572.785" x2="1572.785" y1="1496.705" y2="1667.626" gradientUnits="userSpaceOnUse"><stop offset=".253" style="stop-color:#f6f6f6;stop-opacity:.849"/><stop offset=".406" style="stop-color:#c3c3c3;stop-opacity:.676"/><stop offset="1" style="stop-color:#000;stop-opacity:0"/></linearGradient><path d="M1609.57,1659.81V1674h-74.13v-22.22h45.75l-47.24-96.36v-14.57h77.68v22.59h-49.3L1609.57,1659.81z" class="st10"/><linearGradient id="SVGID_10_" x1="1678.201" x2="1678.201" y1="1496.705" y2="1667.626" gradientUnits="userSpaceOnUse"><stop offset=".253" style="stop-color:#f6f6f6;stop-opacity:.849"/><stop offset=".406" style="stop-color:#c3c3c3;stop-opacity:.676"/><stop offset="1" style="stop-color:#000;stop-opacity:0"/></linearGradient><path d="M1719.37,1661.86c0,1.12-0.22,2.36-0.65,3.73c-0.44,1.37-1.15,2.68-2.15,3.92c-1,1.24-2.24,2.3-3.73,3.17 c-1.49,0.87-3.36,1.31-5.6,1.31h-58.07c-2.24,0-4.11-0.44-5.6-1.31c-1.49-0.87-2.74-1.93-3.73-3.17c-1-1.25-1.71-2.55-2.15-3.92 c-0.44-1.37-0.65-2.61-0.65-3.73v-96.36c0-2.12,0.47-4.05,1.4-5.79c0.93-1.74,2.21-3.11,3.83-4.11l25.4-16.62 c1.37-0.87,3.24-1.31,5.6-1.31c1.74,0,3.55,0.44,5.42,1.31l33.43,17.74c1.74,1,3.42,2.43,5.04,4.29c1.62,1.87,2.36,4.11,2.24,6.72 V1661.86z M1673.62,1560.84l-12.51,8.22v83.47h34.17v-80.48L1673.62,1560.84z" class="st11"/><linearGradient id="SVGID_11_" x1="1791.447" x2="1791.447" y1="1496.705" y2="1667.626" gradientUnits="userSpaceOnUse"><stop offset=".253" style="stop-color:#f6f6f6;stop-opacity:.849"/><stop offset=".406" style="stop-color:#c3c3c3;stop-opacity:.676"/><stop offset="1" style="stop-color:#000;stop-opacity:0"/></linearGradient><path d="M1775.2,1674h-23.9v-133.14h24.09v96.73l24.28,14.94h7.84v-111.67h24.09v121c0,1.12-0.22,2.36-0.65,3.73 c-0.44,1.37-1.15,2.68-2.15,3.92c-1,1.24-2.24,2.3-3.73,3.17c-1.49,0.87-3.36,1.31-5.6,1.31h-15.87c-4.85,0-9.34-1.43-13.44-4.29 l-14.19-9.52h-0.75V1674z" class="st12"/></g><path d="M1749,1083c-23.03,0-44.81,5.38-64.15,14.94C1653.81,1034.05,1588.3,990,1512.5,990 c-76.26,0-142.09,44.57-172.9,109.09c-1.53-0.05-3.06-0.09-4.6-0.09c-69.03,0-126.12,51.05-135.61,117.46 c-14.49,3.7-27.36,11.42-37.39,21.88c-9.8-10.22-22.32-17.81-36.4-21.6c-4.27-57.93-42.69-106.36-95.2-125.24 C997.9,1041.82,941.79,1009,878,1009c-94.01,0-171.36,71.28-180.99,162.74c-37.09,16.2-63.01,53.2-63.01,96.26 c0,57.99,47.01,105,105,105c1,0,2-0.02,3-0.05v0.05h136h457h177.5H1749h10v-0.35c75.42-5.14,135-67.93,135-144.65 C1894,1147.92,1829.08,1083,1749,1083z" class="st0"/><g><path d="M756.39,1515.25c0.12,2.61-0.62,4.86-2.24,6.72c-1.62,1.87-3.3,3.3-5.04,4.29l-33.43,17.74 c-1.87,0.87-3.67,1.31-5.42,1.31c-2.37,0-4.23-0.44-5.6-1.31l-25.4-16.62c-1.62-1-2.89-2.36-3.83-4.11 c-0.93-1.74-1.4-3.67-1.4-5.79v-96.36c0-1.12,0.22-2.36,0.65-3.73c0.43-1.37,1.15-2.68,2.15-3.92c1-1.24,2.24-2.3,3.73-3.17 c1.49-0.87,3.36-1.31,5.6-1.31h58.07c2.24,0,4.11,0.44,5.6,1.31c1.49,0.87,2.74,1.93,3.73,3.17c0.99,1.25,1.71,2.55,2.15,3.92 c0.43,1.37,0.65,2.61,0.65,3.73V1515.25z M732.3,1510.96v-80.48h-34.17v83.47l12.51,8.22L732.3,1510.96z" class="st0"/><path d="M788.32,1542.14v-132.21l64.98-0.93c2.24,0,4.11,0.44,5.6,1.31c1.49,0.87,2.74,1.93,3.73,3.17 c0.99,1.25,1.71,2.55,2.15,3.92c0.43,1.37,0.65,2.61,0.65,3.73v66.29c0,2.12-0.93,4.48-2.8,7.1c-1.87,2.61-4.98,4.29-9.34,5.04 l-40.9,8.78v33.8H788.32z M841.35,1430.47h-28.94v54.15l28.94-7.1V1430.47z" class="st0"/><path d="M894.95,1530v-121h70.4v22.59h-46.31v28.76h42.58v22.6h-42.58v36.6h46.31v22.6h-58.26 c-2.24,0-4.11-0.43-5.6-1.31c-1.49-0.87-2.74-1.93-3.73-3.17c-1-1.24-1.71-2.55-2.15-3.92 C895.16,1532.37,894.95,1531.12,894.95,1530z" class="st0"/><path d="M1018.75,1422.82h0.75l14.19-9.52c4.11-2.86,8.59-4.29,13.44-4.29h15.87c2.24,0,4.11,0.44,5.6,1.31 c1.49,0.87,2.74,1.93,3.73,3.17c1,1.25,1.71,2.55,2.15,3.92c0.43,1.37,0.65,2.61,0.65,3.73v121h-24.09v-111.67h-7.84l-24.28,14.94 v96.73h-24.09V1409h23.9V1422.82z" class="st0"/><path d="M1225.28,1409v133.14h-24.09v-60.5h-35.48v60.5h-24.09V1409h24.09v49.48h35.48V1409H1225.28z" class="st0"/><path d="M1340.12,1515.25c0.12,2.61-0.62,4.86-2.24,6.72c-1.62,1.87-3.3,3.3-5.04,4.29l-33.43,17.74 c-1.87,0.87-3.67,1.31-5.42,1.31c-2.37,0-4.23-0.44-5.6-1.31l-25.4-16.62c-1.62-1-2.89-2.36-3.83-4.11 c-0.93-1.74-1.4-3.67-1.4-5.79v-96.36c0-1.12,0.22-2.36,0.65-3.73c0.43-1.37,1.15-2.68,2.15-3.92c1-1.24,2.24-2.3,3.73-3.17 c1.49-0.87,3.36-1.31,5.6-1.31h58.07c2.24,0,4.11,0.44,5.6,1.31c1.49,0.87,2.74,1.93,3.73,3.17c0.99,1.25,1.71,2.55,2.15,3.92 c0.43,1.37,0.65,2.61,0.65,3.73V1515.25z M1316.03,1510.96v-80.48h-34.17v83.47l12.51,8.22L1316.03,1510.96z" class="st0"/><path d="M1426.01,1542.14l-0.93-28.2l-22.41-26.89l7.28,2.99l-18.3,4.11l4.48-7.47v55.46h-24.09v-132.21l64.98-0.93 c2.24,0,4.11,0.44,5.6,1.31c1.49,0.87,2.74,1.93,3.73,3.17c0.99,1.25,1.71,2.55,2.15,3.92c0.43,1.37,0.65,2.61,0.65,3.73V1471 c0,2.12-0.97,4.48-2.89,7.1c-1.93,2.61-5.01,4.42-9.24,5.42l-9.52,2.24l0.93-2.8l13.82,14.57c3.11,3.36,4.79,7.35,5.04,11.95 l0.93,32.68H1426.01z M1425.08,1430.47h-28.94v42.39l28.94-6.91V1430.47z" class="st0"/><path d="M1506.31,1409v133.14h-24.09V1409H1506.31z" class="st0"/><path d="M1562.33,1519.55h49.3v22.6h-77.68v-14.57l47.24-96.36h-45.75V1409h74.13v14.19L1562.33,1519.55z" class="st0"/><path d="M1719.37,1515.25c0.12,2.61-0.62,4.86-2.24,6.72c-1.62,1.87-3.3,3.3-5.04,4.29l-33.43,17.74 c-1.87,0.87-3.67,1.31-5.42,1.31c-2.37,0-4.23-0.44-5.6-1.31l-25.4-16.62c-1.62-1-2.89-2.36-3.83-4.11 c-0.93-1.74-1.4-3.67-1.4-5.79v-96.36c0-1.12,0.22-2.36,0.65-3.73c0.43-1.37,1.15-2.68,2.15-3.92c1-1.24,2.24-2.3,3.73-3.17 c1.49-0.87,3.36-1.31,5.6-1.31h58.07c2.24,0,4.11,0.44,5.6,1.31c1.49,0.87,2.74,1.93,3.73,3.17c0.99,1.25,1.71,2.55,2.15,3.92 c0.43,1.37,0.65,2.61,0.65,3.73V1515.25z M1695.28,1510.96v-80.48h-34.17v83.47l12.51,8.22L1695.28,1510.96z" class="st0"/><path d="M1775.2,1422.82h0.75l14.19-9.52c4.11-2.86,8.59-4.29,13.44-4.29h15.87c2.24,0,4.11,0.44,5.6,1.31 c1.49,0.87,2.74,1.93,3.73,3.17c1,1.25,1.71,2.55,2.15,3.92c0.43,1.37,0.65,2.61,0.65,3.73v121h-24.09v-111.67h-7.84l-24.28,14.94 v96.73h-24.09V1409h23.9V1422.82z" class="st0"/></g></g><g id="Layer_11"><g><path d="M1470.25,835.13l-0.49,0.49c-8.05,8.05-20.96,8.58-29.58,1.15c-99.5-85.69-247.13-85.68-346.64,0.01 c-8.62,7.43-21.53,6.9-29.58-1.15l-0.5-0.5c-8.95-8.95-8.46-23.65,1.12-31.91c116.11-100.06,288.43-100.06,404.54,0 C1478.72,811.48,1479.2,826.18,1470.25,835.13z" class="st0"/><path d="M1407.32,898.06l-0.5,0.5c-7.84,7.84-20.35,8.59-28.99,1.64c-64.67-52.04-157.24-52.03-221.92,0.01 c-8.64,6.95-21.15,6.2-28.99-1.64l-0.5-0.5c-9.21-9.21-8.31-24.35,1.84-32.51c80.82-64.96,196.42-64.96,277.22-0.01 C1415.63,873.71,1416.53,888.85,1407.32,898.06z" class="st0"/><path d="M1343.96,961.43l-0.51,0.51c-7.44,7.44-19.03,8.33-27.81,2.53c-29.5-19.49-68.04-19.49-97.54,0.01 c-8.78,5.8-20.37,4.92-27.81-2.53l-0.51-0.51c-9.67-9.67-8.22-25.84,3.14-33.46c44.62-29.95,103.29-29.95,147.91-0.01 C1352.18,935.59,1353.63,951.76,1343.96,961.43z" class="st0"/><path d="M1289.03,1026.36c12.26,12.26,12.25,32.09,0,44.34c-12.25,12.25-32.08,12.26-44.34,0 c-12.25-12.25-12.24-32.08,0.01-44.33C1256.95,1014.12,1276.78,1014.11,1289.03,1026.36z" class="st0"/></g><g><linearGradient id="SVGID_12_" x1="969.907" x2="1019.023" y1="893.633" y2="1232.982" gradientUnits="userSpaceOnUse"><stop offset=".016" style="stop-color:#fff"/><stop offset=".496" style="stop-color:#fff;stop-opacity:.9"/><stop offset=".613" style="stop-color:#c3c3c3;stop-opacity:.9232"/><stop offset="1" style="stop-color:#000"/></linearGradient><path d="M1010.1,909.44l0.51,0.36c8.39,5.9,10.85,17.29,5.59,26.09c-60.73,101.59-37.92,232.7,53.55,307.83 c7.93,6.51,9.45,18.06,3.55,26.45l-0.37,0.52c-6.56,9.33-19.7,11.17-28.51,3.93c-106.79-87.66-133.41-240.69-62.48-359.25 C987.79,905.58,1000.77,902.88,1010.1,909.44z" class="st13"/><linearGradient id="SVGID_13_" x1="1036.71" x2="1110.384" y1="961.847" y2="1247.614" gradientUnits="userSpaceOnUse"><stop offset=".441" style="stop-color:#fff;stop-opacity:.9"/><stop offset=".57" style="stop-color:#c3c3c3;stop-opacity:.9232"/><stop offset="1" style="stop-color:#000"/></linearGradient><path d="M1075.71,955.61l0.52,0.37c8.17,5.75,10.77,16.75,5.93,25.49c-36.22,65.47-21.92,147.67,34.29,197.07 c7.51,6.6,8.77,17.83,3.02,26l-0.37,0.52c-6.76,9.6-20.34,11.14-29.16,3.39c-70.17-61.74-88.03-164.4-42.83-246.19 C1052.8,951.99,1066.1,948.85,1075.71,955.61z" class="st14"/><linearGradient id="SVGID_14_" x1="1100.061" x2="1162.572" y1="925.526" y2="1206.828" gradientUnits="userSpaceOnUse"><stop offset=".439" style="stop-color:#fff"/><stop offset=".569" style="stop-color:#c3c3c3;stop-opacity:.9073"/><stop offset="1" style="stop-color:#000;stop-opacity:.6"/></linearGradient><path d="M1141.76,1002.09l0.53,0.37c7.76,5.46,10.34,15.61,6.54,24.31c-12.75,29.21-6.8,63.43,15.08,86.62 c6.51,6.9,7.51,17.33,2.05,25.09l-0.37,0.53c-7.09,10.08-21.68,11.29-30.2,2.38c-33.49-35-42.55-87.1-22.86-131.35 C1117.55,998.78,1131.68,995,1141.76,1002.09z" class="st15"/></g></g><g id="dots"><circle cx="1267.5" cy="602.5" r="34.5" class="st0"/><circle cx="984.61" cy="703.28" r="34.5" class="st0"/><circle cx="832.69" cy="962.31" r="34.5" class="st0"/><g><circle cx="868.31" cy="1195.69" r="18.22"/></g><g><circle cx="1659.31" cy="1195.69" r="18.22"/></g><circle cx="1697.35" cy="968.22" r="34.5" class="st0"/><circle cx="1548.98" cy="707.13" r="34.5" class="st0"/></g></svg>