<?xml version="1.0" encoding="UTF-8" standalone="no"?>
<svg
   xmlns:dc="http://purl.org/dc/elements/1.1/"
   xmlns:cc="http://creativecommons.org/ns#"
   xmlns:rdf="http://www.w3.org/1999/02/22-rdf-syntax-ns#"
   xmlns:svg="http://www.w3.org/2000/svg"
   xmlns="http://www.w3.org/2000/svg"
   xmlns:sodipodi="http://sodipodi.sourceforge.net/DTD/sodipodi-0.dtd"
   xmlns:inkscape="http://www.inkscape.org/namespaces/inkscape"
   id="Layer_1"
   data-name="Layer 1"
   viewBox="0 0 645.01 487.13"
   version="1.1"
   inkscape:version="0.91 r13725"
   sodipodi:docname="updates.svg"
   inkscape:export-filename="Q:\PUB\ABD001\ART\WORK\ship3\updates.png"
   inkscape:export-xdpi="92"
   inkscape:export-ydpi="92">
  <metadata
     id="metadata523">
    <rdf:RDF>
      <cc:Work
         rdf:about="">
        <dc:format>image/svg+xml</dc:format>
        <dc:type
           rdf:resource="http://purl.org/dc/dcmitype/StillImage" />
      </cc:Work>
    </rdf:RDF>
  </metadata>
  <sodipodi:namedview
     pagecolor="#ffffff"
     bordercolor="#666666"
     borderopacity="1"
     objecttolerance="10"
     gridtolerance="10"
     guidetolerance="10"
     inkscape:pageopacity="0"
     inkscape:pageshadow="2"
     inkscape:window-width="1920"
     inkscape:window-height="1015"
     id="namedview521"
     showgrid="false"
     inkscape:zoom="1.8914297"
     inkscape:cx="206.19247"
     inkscape:cy="247.79134"
     inkscape:window-x="-8"
     inkscape:window-y="-8"
     inkscape:window-maximized="1"
     inkscape:current-layer="Layer_1" />
  <defs
     id="defs3">
    <style
       id="style5">.cls-1,.cls-4,.cls-6{opacity:0.5;}.cls-1,.cls-21,.cls-25,.cls-6{font-size:14px;}.cls-1{fill:#343434;}.cls-1,.cls-21,.cls-25,.cls-29,.cls-48,.cls-6{font-family:IBMPlexSans-Medium, IBM Plex Sans;}.cls-2{letter-spacing:-0.01em;}.cls-3{letter-spacing:-0.01em;}.cls-5{fill:#973995;}.cls-25,.cls-29,.cls-50,.cls-54,.cls-6{fill:#4272b8;}.cls-7{letter-spacing:-0.01em;}.cls-8{letter-spacing:-0.01em;}.cls-9{font-size:11px;fill:#231f20;font-family:IBMPlexSans, IBM Plex Sans;}.cls-10{letter-spacing:-0.01em;}.cls-11{letter-spacing:-0.01em;}.cls-12{letter-spacing:-0.01em;}.cls-13{letter-spacing:-0.01em;}.cls-14{letter-spacing:-0.02em;}.cls-15{letter-spacing:0em;}.cls-16{letter-spacing:0em;}.cls-17{letter-spacing:-0.02em;}.cls-18{letter-spacing:0em;}.cls-19{letter-spacing:-0.01em;}.cls-20{letter-spacing:-0.01em;}.cls-21{fill:#bb9930;}.cls-22{letter-spacing:0em;}.cls-23{letter-spacing:0em;}.cls-24{letter-spacing:-0.02em;}.cls-26{letter-spacing:-0.01em;}.cls-27{letter-spacing:0.01em;}.cls-28{letter-spacing:-0.01em;}.cls-29{font-size:13.66px;}.cls-30{letter-spacing:-0.01em;}.cls-31{letter-spacing:-0.01em;}.cls-32{letter-spacing:-0.01em;}.cls-33{letter-spacing:-0.01em;}.cls-34{letter-spacing:0em;}.cls-35{letter-spacing:-0.01em;}.cls-36{letter-spacing:0em;}.cls-37{letter-spacing:-0.02em;}.cls-38{letter-spacing:-0.06em;}.cls-39{letter-spacing:-0.01em;}.cls-40{letter-spacing:0em;}.cls-41{letter-spacing:-0.01em;}.cls-42{letter-spacing:-0.01em;}.cls-43{letter-spacing:0.01em;}.cls-44{letter-spacing:-0.01em;}.cls-45{letter-spacing:-0.02em;}.cls-46{letter-spacing:0em;}.cls-47{letter-spacing:-0.02em;}.cls-49,.cls-51{fill:none;stroke-miterlimit:10;stroke-width:2px;}.cls-49{stroke:#4272b8;}.cls-51{stroke:#bc9a30;}.cls-52{fill:#bc9a30;}.cls-53{fill:#f2f6fc;}.cls-54{font-size:32px;font-family:IBMPlexSans-Bold, IBM Plex Sans;font-weight:700;}</style>
  </defs>
  <title
     id="title7">updates</title>
  <text
     class="cls-1"
     transform="translate(192.66 253.96) scale(1.04 1)"
     id="text9"
     style="-inkscape-font-specification:Gulim;font-family:Gulim;font-weight:normal;font-style:normal;font-stretch:normal;font-variant:normal;">개발자<tspan
   class="cls-2"
   x="9.56"
   y="0"
   id="tspan11"
   style="-inkscape-font-specification:Gulim;font-family:Gulim;font-weight:normal;font-style:normal;font-stretch:normal;font-variant:normal;" />
<tspan
   class="cls-3"
   x="17.22"
   y="0"
   id="tspan13"
   style="-inkscape-font-specification:Gulim;font-family:Gulim;font-weight:normal;font-style:normal;font-stretch:normal;font-variant:normal;" />
<tspan
   x="24.28"
   y="0"
   id="tspan15"
   style="-inkscape-font-specification:Gulim;font-family:Gulim;font-weight:normal;font-style:normal;font-stretch:normal;font-variant:normal;" />
</text>
  <g
     class="cls-4"
     id="g17"
     style="">
    <path
       class="cls-5"
       d="M214.54,179.77c9.82,0,17.8,7.7,17.8,17.17s-8,17.17-17.8,17.17-17.8-7.7-17.8-17.17,8-17.17,17.8-17.17m0-3c-11.54,0-20.89,9-20.89,20.16S203,217.1,214.54,217.1s20.9-9,20.9-20.16-9.36-20.16-20.9-20.16Z"
       id="path19"
       style="" />
    <path
       class="cls-5"
       d="M197.1,221.58H232a5,5,0,0,1,5,5v9.93a0,0,0,0,1,0,0H192.1a0,0,0,0,1,0,0v-9.93A5,5,0,0,1,197.1,221.58Z"
       id="path21"
       style="" />
  </g>
  <text
     class="cls-6"
     id="text23"
     style="font-style:normal;font-variant:normal;font-weight:normal;font-stretch:normal;font-size:11px;line-height:125%;font-family:Gulim;-inkscape-font-specification:'Gulim, Normal';text-align:start;writing-mode:lr-tb;text-anchor:start;opacity:0.5;fill:#4272b8"
     sodipodi:linespacing="125%"
     x="20.83"
     y="387.78">
    <tspan
       sodipodi:role="line"
       id="tspan4723"
       style="font-size:14px"
       x="20.83"
       y="387.78">에지 노드</tspan>
    <tspan
       sodipodi:role="line"
       id="tspan4725"
       style="fill:#231f20;fill-opacity:1"
       x="20.83"
       y="403.02448">- 에지 노드에 <tspan
   style="font-style:normal;font-variant:normal;font-weight:normal;font-stretch:normal;font-family:Arial;-inkscape-font-specification:Arial"
   id="tspan4737">Horizon</tspan>

 설치</tspan>
    <tspan
       sodipodi:role="line"
       id="tspan4727"
       style="fill:#231f20;fill-opacity:1"
       x="20.83"
       y="417.6131">- 에지 노드 등록</tspan>
    <tspan
       sodipodi:role="line"
       id="tspan4729"
       style="fill:#231f20;fill-opacity:1"
       x="20.83"
       y="431.91049">- 조직 <tspan
   style="font-style:normal;font-variant:normal;font-weight:normal;font-stretch:normal;font-family:Arial;-inkscape-font-specification:Arial"
   id="tspan4741">ID</tspan>

 구성</tspan>
    <tspan
       sodipodi:role="line"
       id="tspan4731"
       style="fill:#231f20;fill-opacity:1"
       x="20.83"
       y="447.04654">- <tspan
   style="font-style:normal;font-variant:normal;font-weight:normal;font-stretch:normal;font-family:Arial;-inkscape-font-specification:Arial"
   id="tspan4743">IBM Event Streams</tspan>

 설정</tspan>
    <tspan
       sodipodi:role="line"
       id="tspan4733"
       style="fill:#231f20;fill-opacity:1"
       x="20.83"
       y="462.18256">- 고유 에지 노드 <tspan
   style="font-style:normal;font-variant:normal;font-weight:normal;font-stretch:normal;font-family:Arial;-inkscape-font-specification:Arial"
   id="tspan4745">ID</tspan>

 설정</tspan>
    <tspan
       sodipodi:role="line"
       id="tspan4735"
       style="fill:#231f20;fill-opacity:1"
       x="20.83"
       y="476.77115">- 배치 패턴 설정</tspan>
  </text>
  <text
     class="cls-21"
     id="text113"
     style="font-style:normal;font-variant:normal;font-weight:normal;font-stretch:normal;font-size:11px;line-height:125%;font-family:Gulim;-inkscape-font-specification:'Gulim, Normal';text-align:start;writing-mode:lr-tb;text-anchor:start;fill:#bb9930"
     sodipodi:linespacing="125%"
     x="481.92999"
     y="212.41">
    <tspan
       sodipodi:role="line"
       id="tspan4655"
       style="font-size:14px"
       x="481.92999"
       y="212.41">코드 업데이트</tspan>
    <tspan
       sodipodi:role="line"
       id="tspan4657"
       style="font-size:9.75px;fill:#231f20;fill-opacity:1"
       x="481.92999"
       y="225.93918">다음과 같이 간단하게 코드 업데이트:</tspan>
    <tspan
       sodipodi:role="line"
       id="tspan4659"
       x="481.92999"
       y="239.29457"
       style="fill:#231f20;fill-opacity:1">1. 코드 변경</tspan>
    <tspan
       sodipodi:role="line"
       id="tspan4661"
       x="481.92999"
       y="253.04457"
       style="fill:#231f20;fill-opacity:1">2. 푸시</tspan>
    <tspan
       sodipodi:role="line"
       id="tspan4663"
       x="481.92999"
       y="266.79456"
       style="fill:#231f20;fill-opacity:1">3. 서명</tspan>
    <tspan
       sodipodi:role="line"
       id="tspan4665"
       x="481.92999"
       y="280.54456"
       style="fill:#231f20;fill-opacity:1">4. 공개</tspan>
  </text>
  <text
     class="cls-25"
     id="text153"
     style="font-style:normal;font-variant:normal;font-weight:normal;font-stretch:normal;font-size:11px;line-height:125%;font-family:Gulim;-inkscape-font-specification:'Gulim, Normal';text-align:start;writing-mode:lr-tb;text-anchor:start;fill:#4272b8"
     sodipodi:linespacing="125%"
     x="326.69"
     y="389.66">
    <tspan
       sodipodi:role="line"
       id="tspan4681"
       style="font-size:14px"
       x="326.69"
       y="389.66">서명 및 공개</tspan>
    <tspan
       sodipodi:role="line"
       id="tspan4683"
       style="fill:#231f20;fill-opacity:1"
       x="326.69"
       y="404.35706">- 컨테이너 푸시, 서명 및 공개</tspan>
    <tspan
       sodipodi:role="line"
       id="tspan4685"
       style="fill:#231f20;fill-opacity:1"
       x="326.69"
       y="418.10706">- 배치 패턴에 컨테이너 추가</tspan>
    <tspan
       sodipodi:role="line"
       id="tspan4687"
       style="fill:#231f20;fill-opacity:1"
       x="326.69"
       y="432.40448">- <tspan
   style="font-style:normal;font-variant:normal;font-weight:normal;font-stretch:normal;font-family:Arial;-inkscape-font-specification:Arial;fill:#231f20;fill-opacity:1"
   id="tspan4691">AgBot</tspan>

에서 에지 노드 소프트웨어를</tspan>
    <tspan
       sodipodi:role="line"
       id="tspan4689"
       style="fill:#231f20;fill-opacity:1"
       x="326.69"
       y="446.9931">관리하기 위해 자동 구성</tspan>
  </text>
  <text
     class="cls-29"
     transform="scale(1.0099505,0.99014754)"
     id="text227"
     style="font-style:normal;font-variant:normal;font-weight:normal;font-stretch:normal;font-size:11.10949993px;line-height:125%;font-family:Gulim;-inkscape-font-specification:'Gulim, Normal';text-align:start;writing-mode:lr-tb;text-anchor:start;fill:#4272b8"
     sodipodi:linespacing="125%"
     x="319.31268"
     y="203.03035">
    <tspan
       sodipodi:role="line"
       id="tspan4667"
       style="font-size:14px"
       x="319.31268"
       y="203.03035">코드 개발</tspan>
    <tspan
       sodipodi:role="line"
       id="tspan4669"
       style="fill:#231f20;fill-opacity:1"
       x="319.31268"
       y="217.82973">-에지 노드의 코드 작성</tspan>
    <tspan
       sodipodi:role="line"
       id="tspan4671"
       style="fill:#231f20;fill-opacity:1"
       x="319.31268"
       y="232.26947">- <tspan
   style="font-style:normal;font-variant:normal;font-weight:normal;font-stretch:normal;font-family:Arial;-inkscape-font-specification:Arial"
   id="tspan4679">Docker</tspan>

 컨테이너에</tspan>
    <tspan
       sodipodi:role="line"
       id="tspan4673"
       style="fill:#231f20;fill-opacity:1"
       x="319.31268"
       y="247.0033">코드 포함</tspan>
    <tspan
       sodipodi:role="line"
       id="tspan4675"
       style="fill:#231f20;fill-opacity:1"
       x="319.31268"
       y="260.89017">- 로컬에서 테스트</tspan>
    <tspan
       sodipodi:role="line"
       id="tspan4677"
       style="fill:#231f20;fill-opacity:1"
       x="319.31268"
       y="274.77704">- 프로덕션 배치 시뮬레이션</tspan>
  </text>
  <text
     class="cls-6"
     id="text311"
     style="font-style:normal;font-variant:normal;font-weight:normal;font-stretch:normal;font-size:11px;line-height:125%;font-family:Gulim;-inkscape-font-specification:'Gulim, Normal';text-align:start;writing-mode:lr-tb;text-anchor:start;opacity:0.5;fill:#4272b8"
     sodipodi:linespacing="125%"
     x="145.83"
     y="87.010002">
    <tspan
       sodipodi:role="line"
       id="tspan4693"
       style="font-size:14px"
       x="145.83"
       y="87.010002">클라우드 서비스 설정</tspan>
    <tspan
       sodipodi:role="line"
       id="tspan4695"
       style="fill:#231f20;fill-opacity:1"
       x="145.83"
       y="102.25449"><tspan
   style="font-style:normal;font-variant:normal;font-weight:normal;font-stretch:normal;font-family:Arial;-inkscape-font-specification:Arial;fill:#231f20;fill-opacity:1"
   id="tspan4703">IBM Cloud</tspan>
 웹 서비스에서,</tspan>
    <tspan
       sodipodi:role="line"
       id="tspan4697"
       style="fill:#231f20;fill-opacity:1"
       x="145.83"
       y="116.84309">- 사용자 계정 작성</tspan>
    <tspan
       sodipodi:role="line"
       id="tspan4699"
       style="fill:#231f20;fill-opacity:1"
       x="145.83"
       y="131.1405">- 조직 <tspan
   style="font-style:normal;font-variant:normal;font-weight:normal;font-stretch:normal;font-family:Arial;-inkscape-font-specification:Arial;fill:#231f20;fill-opacity:1"
   id="tspan4705">ID</tspan>
 작성</tspan>
    <tspan
       sodipodi:role="line"
       id="tspan4701"
       style="fill:#231f20;fill-opacity:1"
       x="145.83"
       y="146.27654">- <tspan
   style="font-style:normal;font-variant:normal;font-weight:normal;font-stretch:normal;font-family:Arial;-inkscape-font-specification:Arial;fill:#231f20;fill-opacity:1"
   id="tspan4707">IBM Event Streams</tspan>
 설정</tspan>
  </text>
  <text
     class="cls-6"
     id="text387"
     style="font-style:normal;font-variant:normal;font-weight:normal;font-stretch:normal;font-size:14px;line-height:125%;font-family:Gulim;-inkscape-font-specification:'Gulim, Normal';text-align:start;writing-mode:lr-tb;text-anchor:start;opacity:0.5;fill:#4272b8"
     sodipodi:linespacing="125%"
     x="42.450001"
     y="172.39">
    <tspan
       sodipodi:role="line"
       id="tspan4709"
       x="42.450001"
       y="172.39">IBM Cloud</tspan>
    <tspan
       sodipodi:role="line"
       id="tspan4711"
       style="font-size:11px;fill:#231f20;fill-opacity:1"
       x="42.450001"
       y="187.08707">선택적으로</tspan>
    <tspan
       sodipodi:role="line"
       style="font-size:11px;fill:#231f20;fill-opacity:1"
       x="42.450001"
       y="201.38448"
       id="tspan4225">다양한 <tspan
   style="font-style:normal;font-variant:normal;font-weight:normal;font-stretch:normal;font-family:Arial;-inkscape-font-specification:Arial"
   id="tspan4721">IBM</tspan>
과</tspan>
    <tspan
       sodipodi:role="line"
       id="tspan4713"
       style="font-size:11px;fill:#231f20;fill-opacity:1"
       x="42.450001"
       y="215.97308">서드파티 클라우드</tspan>
    <tspan
       sodipodi:role="line"
       id="tspan4715"
       style="font-size:11px;fill:#231f20;fill-opacity:1"
       x="42.450001"
       y="229.72308">및 데이터 서비스,</tspan>
    <tspan
       sodipodi:role="line"
       id="tspan4717"
       style="font-size:11px;fill:#231f20;fill-opacity:1"
       x="42.450001"
       y="243.47308">분석 및 코그너티브</tspan>
    <tspan
       sodipodi:role="line"
       id="tspan4719"
       style="font-size:11px;fill:#231f20;fill-opacity:1"
       x="42.450001"
       y="257.22308">솔루션 연결</tspan>
  </text>
  <g
     class="cls-4"
     id="g455"
     style="">
    <path
       class="cls-49"
       d="M49.79,267.09c-5.88,16.8,0,35.13,14.79,43"
       id="path457"
       style="" />
    <polygon
       class="cls-50"
       points="45.22 266.57 52.4 261.18 53.48 270.09 45.22 266.57"
       id="polygon459"
       style="" />
  </g>
  <path
     class="cls-49"
     d="M401.37,306.36c6.5-5.95,8.9-18.27,5.3-31"
     id="path461"
     style="" />
  <polygon
     class="cls-50"
     points="404.71 309.28 395.74 309.54 400 301.64 404.71 309.28"
     id="polygon463"
     style="" />
  <path
     class="cls-51"
     d="M429.33,337c68-47.34,68.44-129.47-.37-186.26"
     id="path465"
     style="" />
  <polygon
     class="cls-52"
     points="432.91 339.92 423.95 340.53 427.9 332.47 432.91 339.92"
     id="polygon467"
     style="" />
  <path
     class="cls-51"
     d="M336.92,150.48c-76.58,41.41-85.41,125-18.72,189.5"
     id="path469"
     style="" />
  <polygon
     class="cls-52"
     points="333.69 147.15 342.66 147.52 337.85 155.1 333.69 147.15"
     id="polygon471"
     style="" />
  <g
     class="cls-4"
     id="g473"
     style="">
    <path
       class="cls-49"
       d="M127.23,359.59c67,54.44,159.47,53.05,209.25-4.16"
       id="path475"
       style="" />
    <polygon
       class="cls-50"
       points="125.38 363.85 122.28 355.43 131.12 356.95 125.38 363.85"
       id="polygon477"
       style="" />
  </g>
  <g
     class="cls-4"
     id="g479"
     style="">
    <path
       class="cls-49"
       d="M384.28,110.56C379.52,69,329.2,36.34,267.71,36.34"
       id="path481"
       style="" />
    <polygon
       class="cls-50"
       points="388.59 108.95 384.64 117.01 379.63 109.56 388.59 108.95"
       id="polygon483"
       style="" />
  </g>
  <path
     class="cls-53"
     d="M375.12,372.33c-18.49,0-33.53-12.94-33.53-28.85s15-28.85,33.53-28.85,33.53,12.94,33.53,28.85S393.61,372.33,375.12,372.33Z"
     id="path485"
     style="" />
  <path
     class="cls-50"
     d="M375.12,315.63c17.94,0,32.53,12.49,32.53,27.85s-14.59,27.85-32.53,27.85-32.53-12.49-32.53-27.85,14.59-27.85,32.53-27.85m0-2c-19.07,0-34.53,13.36-34.53,29.85s15.46,29.85,34.53,29.85,34.53-13.36,34.53-29.85-15.46-29.85-34.53-29.85Z"
     id="path487" />
  <text
     class="cls-54"
     transform="translate(365.52 352.87)"
     id="text489">3</text>
  <path
     class="cls-53"
     d="M387.39,185.31c-18.49,0-33.53-12.94-33.53-28.85s15-28.85,33.53-28.85,33.54,12.94,33.54,28.85S405.88,185.31,387.39,185.31Z"
     id="path491"
     style="" />
  <path
     class="cls-50"
     d="M387.39,128.61c17.94,0,32.54,12.5,32.54,27.85s-14.6,27.85-32.54,27.85-32.53-12.49-32.53-27.85,14.59-27.85,32.53-27.85m0-2c-19.07,0-34.53,13.37-34.53,29.85s15.46,29.85,34.53,29.85,34.54-13.36,34.54-29.85-15.47-29.85-34.54-29.85Z"
     id="path493" />
  <text
     class="cls-54"
     transform="translate(377.79 165.86)"
     id="text495">2</text>
  <g
     class="cls-4"
     id="g497">
    <path
       class="cls-53"
       d="M77,155.46c-18.49,0-33.53-12.94-33.53-28.85S58.49,97.76,77,97.76s33.53,12.95,33.53,28.85S95.47,155.46,77,155.46Z"
       id="path499" />
    <path
       class="cls-50"
       d="M77,98.76c17.94,0,32.53,12.5,32.53,27.85S94.92,154.46,77,154.46,44.45,142,44.45,126.61,59,98.76,77,98.76m0-2c-19.07,0-34.53,13.37-34.53,29.85S57.91,156.46,77,156.46s34.53-13.36,34.53-29.85S96.05,96.76,77,96.76Z"
       id="path501" />
    <text
       class="cls-54"
       transform="translate(67.38 136.01)"
       id="text503">5</text>
  </g>
  <g
     class="cls-4"
     id="g505"
     style="">
    <path
       class="cls-53"
       d="M80.92,368.83c-18.49,0-33.53-12.94-33.53-28.85s15-28.85,33.53-28.85,33.53,12.94,33.53,28.85S99.41,368.83,80.92,368.83Z"
       id="path507"
       style="" />
    <path
       class="cls-50"
       d="M80.92,312.13c17.94,0,32.53,12.49,32.53,27.85s-14.59,27.85-32.53,27.85S48.39,355.33,48.39,340,63,312.13,80.92,312.13m0-2c-19.07,0-34.53,13.36-34.53,29.85s15.46,29.85,34.53,29.85,34.53-13.37,34.53-29.85S100,310.13,80.92,310.13Z"
       id="path509"
       style="" />
    <text
       class="cls-54"
       transform="translate(71.32 349.37)"
       id="text511"
       style="">4 </text>
  </g>
  <g
     class="cls-4"
     id="g513">
    <path
       class="cls-53"
       d="M217.64,69.64c-18.49,0-33.53-12.94-33.53-28.85s15-28.85,33.53-28.85,33.53,12.94,33.53,28.85S236.13,69.64,217.64,69.64Z"
       id="path515" />
    <path
       class="cls-50"
       d="M217.64,12.94c17.94,0,32.53,12.49,32.53,27.85s-14.59,27.85-32.53,27.85-32.53-12.49-32.53-27.85,14.59-27.85,32.53-27.85m0-2c-19.07,0-34.53,13.36-34.53,29.85s15.46,29.85,34.53,29.85,34.53-13.36,34.53-29.85-15.46-29.85-34.53-29.85Z"
       id="path517" />
    <text
       class="cls-54"
       transform="translate(208.04 50.18)"
       id="text519">1
</text>
  </g>
</svg>
