<?xml version="1.0" encoding="utf-8"?>
<!-- Generator: Adobe Illustrator 24.0.3, SVG Export Plug-In . SVG Version: 6.00 Build 0)  -->
<svg version="1.1" id="Layer_1" xmlns="http://www.w3.org/2000/svg" xmlns:xlink="http://www.w3.org/1999/xlink" x="0px" y="0px"
	 viewBox="0 0 912 817" style="enable-background:new 0 0 912 817;" xml:space="preserve">
<style type="text/css">
	.st0{fill-rule:evenodd;clip-rule:evenodd;fill:#408BFC;}
	.st1{fill-rule:evenodd;clip-rule:evenodd;fill:#FFFFFF;}
	.st2{fill-rule:evenodd;clip-rule:evenodd;fill:#8A3FFC;}
	.st3{fill:none;stroke:#00BAB6;stroke-width:2;stroke-dasharray:7;}
	.st4{fill-rule:evenodd;clip-rule:evenodd;fill:#E3F6FF;}
	.st5{fill-rule:evenodd;clip-rule:evenodd;fill:#0F62FE;}
	.st6{fill-rule:evenodd;clip-rule:evenodd;fill:#009C98;}
	.st7{fill:#BEBEBE;}
	.st8{fill-rule:evenodd;clip-rule:evenodd;fill:#051B75;}
	.st9{fill:#F908ED;}
	.st10{font-family:'IBMPlexSans';}
	.st11{font-size:14px;}
	.st12{fill-rule:evenodd;clip-rule:evenodd;fill:none;}
	.st13{fill:#161616;}
	.st14{fill:#F4F4F4;}
	.st15{font-family:'IBMPlexSans-Medium';}
	.st16{font-size:16px;}
	.st17{fill:none;}
</style>
<rect id="Rectangle-Copy-14" x="480" y="637" class="st0" width="370" height="180"/>
<rect id="Rectangle-Copy-9" x="496" y="720" class="st1" width="80" height="81"/>
<rect id="Rectangle-Copy-18_1_" x="749" y="695" class="st2" width="85" height="106"/>
<path id="Rectangle-Copy-17" class="st3" d="M505,32h357c22.1,0,40,17.9,40,40v222c0,22.1-17.9,40-40,40H505c-22.1,0-40-17.9-40-40
	V72C465,49.9,482.9,32,505,32z"/>
<path id="Rectangle-Copy-22" class="st3" d="M41,120h237c22.1,0,40,17.9,40,40v94c0,22.1-17.9,40-40,40H41c-22.1,0-40-17.9-40-40
	v-94C1,137.9,18.9,120,41,120z"/>
<circle id="Oval-Copy-3" class="st4" cx="58" cy="180" r="24"/>
<path id="Shape" class="st5" d="M53,183c2.8,0,5,2.2,5,5v6h-2v-6c0-1.7-1.3-3-3-3h-4c-1.7,0-3,1.3-3,3v6h-2v-6c0-2.8,2.2-5,5-5H53z
	 M51,171c2.8,0,5,2.2,5,5s-2.2,5-5,5s-5-2.2-5-5S48.2,171,51,171z M72,172v8h-2v-8H72z M67,169v11h-2v-11H67z M62,174v6h-2v-6H62z
	 M51,173c-1.7,0-3,1.3-3,3c0,1.7,1.3,3,3,3c1.7,0,3-1.3,3-3S52.7,173,51,173z"/>
<circle id="Oval-Copy-3_1_" class="st4" cx="529" cy="88" r="24"/>
<path id="Shape_1_" class="st5" d="M524,91c2.8,0,5,2.2,5,5v6h-2v-6c0-1.7-1.3-3-3-3h-4c-1.7,0-3,1.3-3,3v6h-2v-6c0-2.8,2.2-5,5-5
	H524z M522,79c2.8,0,5,2.2,5,5s-2.2,5-5,5s-5-2.2-5-5S519.2,79,522,79z M537.1,77.9l1.8,0.4l-2.4,10.4l-1.8-0.4L537.1,77.9z
	 M531.9,79.6l1.4,1.2l-2.1,2.6l2.1,2.6l-1.4,1.2l-3.1-3.7L531.9,79.6z M541.7,79.6l3.1,3.7l-3.1,3.7l-1.4-1.2l2.1-2.6l-2.1-2.6
	L541.7,79.6z M522,81c-1.7,0-3,1.3-3,3c0,1.7,1.3,3,3,3s3-1.3,3-3S523.7,81,522,81z"/>
<rect id="Rectangle-Copy-14_1_" x="540" y="422" class="st6" width="260" height="155"/>
<path id="Line-2-Copy-37" class="st7" d="M828.5,302v77.3l-357,0V455H415v6l-14-7l14-7v6h54.5v-75.7l357,0V302H828.5z"/>
<path id="Line-5-Copy-3" class="st7" d="M828.3,498.5l0,1L827.8,623l6,0l-7.1,14l-6.9-14l6,0l0.4-122.5H800v-2H828.3z"/>
<path id="Line-5-Copy-4" class="st7" d="M526,447l14,7l-14,7v-6h-55.5v-2H526V447z"/>
<rect id="Rectangle-Copy-18_2_" x="1" y="422" class="st8" width="400" height="155"/>
<text transform="matrix(1 0 0 1 442.8637 174)" class="st9 st10 st11"> </text>
<text transform="matrix(1 0 0 1 727.1121 215)" class="st9 st10 st11"> </text>
<rect id="Rectangle-Copy-16" x="305" y="479" class="st1" width="80" height="81"/>
<rect id="Rectangle-Copy-16_1_" x="209" y="479" class="st1" width="80" height="81"/>
<rect id="Rectangle-Copy-16_2_" x="113" y="479" class="st1" width="80" height="81"/>
<rect id="Rectangle-Copy-16_3_" x="17" y="479" class="st1" width="80" height="81"/>
<rect id="Rectangle-Copy-18_3_" x="673" y="64" class="st2" width="104" height="81"/>
<rect id="Rectangle-Copy-18_4_" x="785" y="196" class="st2" width="85" height="106"/>
<rect id="Rectangle-Copy-18_5_" x="497" y="196" class="st2" width="85" height="106"/>
<path id="Line-2-Copy-20" class="st7" d="M659,97.1l14,6.9l-14,7.1l0-6l-92,0.4l-1,0l0-2l1,0l92-0.4L659,97.1z"/>
<path id="Line-2-Copy-25" class="st7" d="M187.5,177l14,7l-14,7v-6H94v-2h93.5V177z"/>
<path id="Line-2-Copy-27" class="st7" d="M483,201l14,7l-14,7v-6H286v-2h197V201z"/>
<path id="Line-2-Copy-29" class="st7" d="M771,242l14,7l-14,7v-6H582v-2h189V242z"/>
<rect x="25" y="214.6" class="st12" width="64.9" height="34.7"/>
<text transform="matrix(1 0 0 1 42.5615 224.9954)"><tspan x="0" y="0" class="st13 st10 st11">数据</tspan><tspan x="-12.3" y="20" class="st13 st10 st11">研究员</tspan></text>
<rect x="94" y="162.8" class="st12" width="93.5" height="16.3"/>
<text transform="matrix(1 0 0 1 108.0956 173.1962)" class="st13 st10 st11">1. 创建</text>
<rect x="328.8" y="143.6" class="st12" width="125.2" height="64.4"/>
<text transform="matrix(1 0 0 1 349.1719 154.0051)"><tspan x="0" y="0" class="st13 st10 st11">2. 将</tspan><tspan x="-9" y="20" class="st13 st10 st11">应用程序与</tspan><tspan x="-2.1" y="40" class="st13 st10 st11">开发者共享</tspan></text>
<rect x="582.2" y="204.6" class="st12" width="188.3" height="37.3"/>
<text transform="matrix(1 0 0 1 625.7371 214.9965)"><tspan x="0" y="0" class="st13 st10 st11">3. 将</tspan><tspan x="-29.3" y="20" class="st13 st10 st11">应用程序打包到服务</tspan></text>
<rect x="491.3" y="122.6" class="st12" width="74.1" height="34.8"/>
<text transform="matrix(1 0 0 1 499.6205 132.9903)"><tspan x="0" y="0" class="st13 st10 st11">软件</tspan><tspan x="-3.3" y="20" class="st13 st10 st11">开发者</tspan></text>
<rect x="575.9" y="79.6" class="st12" width="74.1" height="14.9"/>
<text transform="matrix(1 0 0 1 588.7766 89.9882)" class="st13 st10 st11">安装</text>
<rect x="630.4" y="354.7" class="st12" width="170.9" height="14.9"/>
<text transform="matrix(1 0 0 1 641.0562 365.0254)" class="st13 st10 st11">4. 发布容器</text>
<rect x="839" y="545.6" class="st12" width="73" height="39.2"/>
<text transform="matrix(1 0 0 1 838.9998 555.9907)"><tspan x="0" y="0" class="st13 st10 st11">5. 拉取</tspan><tspan x="0" y="20" class="st13 st10 st11">容器</tspan></text>
<rect x="305" y="512.7" class="st12" width="80" height="14.9"/>
<text transform="matrix(1 0 0 1 329.4114 523.0237)" class="st13 st10 st11">MMS</text>
<rect x="502" y="744.6" class="st12" width="65.8" height="37.9"/>
<text transform="matrix(1 0 0 1 518.9951 754.9815)"><tspan x="0" y="0" class="st13 st10 st11">边缘</tspan><tspan x="-2.1" y="20" class="st13 st10 st11">代理程序</tspan></text>
<rect x="749" y="736.6" class="st12" width="84.8" height="16.4"/>
<text transform="matrix(1 0 0 1 759.3896 746.9415)" class="st14 st10 st11">AI 服务</text>
<rect x="209" y="512.7" class="st12" width="80" height="14.9"/>
<text transform="matrix(1 0 0 1 241.3772 523.0237)" class="st13 st10 st11">UI</text>
<rect x="113" y="512.7" class="st12" width="80" height="14.9"/>
<text transform="matrix(1 0 0 1 122.0818 523.0237)" class="st13 st10 st11">Exchange</text>
<rect x="17" y="512.7" class="st12" width="80" height="14.9"/>
<text transform="matrix(1 0 0 1 38.0725 523.0237)" class="st13 st10 st11">Agbot</text>
<rect x="673" y="96.6" class="st12" width="104" height="14.9"/>
<text transform="matrix(1 0 0 1 702.3762 107.0062)" class="st14 st10 st11">Docker</text>
<rect x="784.9" y="237.6" class="st12" width="85" height="14.9"/>
<text transform="matrix(1 0 0 1 795.3751 247.9524)" class="st14 st10 st11">AI 服务</text>
<rect x="496.8" y="230.1" class="st12" width="85.2" height="34.7"/>
<text transform="matrix(1 0 0 1 519.9266 240.4189)"><tspan x="0" y="0" class="st14 st10 st11">AI/ML </tspan><tspan x="-16.2" y="20" class="st14 st10 st11">应用程序</tspan></text>
<rect x="17" y="442.1" class="st12" width="236.1" height="15.6"/>
<text transform="matrix(1 0 0 1 17.0002 453.9669)" class="st14 st15 st16">IEAM 管理中心</text>
<rect x="496" y="657.2" class="st12" width="236.1" height="15.6"/>
<text transform="matrix(1 0 0 1 496.0002 668.9938)" class="st14 st15 st16">边缘节点</text>
<rect x="34" y="92.2" class="st12" width="236.1" height="15.6"/>
<text transform="matrix(1 0 0 1 33.9919 104.0068)" class="st13 st15 st16">数据研究员环境</text>
<rect x="497" y="4.2" class="st12" width="236.1" height="15.6"/>
<text transform="matrix(1 0 0 1 497.0002 15.9909)" class="st13 st15 st16">开发者环境</text>
<rect id="Rectangle-Copy-18_6_" x="201" y="154" class="st2" width="85" height="120"/>
<rect x="203.1" y="176.7" class="st12" width="80.6" height="74.6"/>
<text transform="matrix(1 0 0 1 223.9288 187.0765)"><tspan x="0" y="0" class="st14 st10 st11">AI/ML </tspan><tspan x="-16.2" y="20" class="st14 st10 st11">应用程序</tspan><tspan x="-3.9" y="40" class="st14 st10 st11">（带</tspan><tspan x="-0.7" y="60" class="st14 st10 st11">模型）</tspan></text>
<rect x="576" y="443.1" class="st12" width="162.3" height="15.6"/>
<text transform="matrix(1 0 0 1 575.9996 454.9651)" class="st14 st15 st16">容器注册表</text>
<g>
	<path class="st14" d="M568,442.7h-8c-0.6,0-1,0.4-1,1v11c0,0.6,0.4,1,1,1h8c0.6,0,1-0.4,1-1v-11C569,443.1,568.6,442.7,568,442.7z
		 M568,443.7v3h-8v-3H568z M560,450.7v-3h8v3H560z M560,454.7v-3h8v3H560z"/>
	<circle class="st14" cx="561.5" cy="445.2" r="0.5"/>
	<circle class="st14" cx="561.5" cy="449.2" r="0.5"/>
	<circle class="st14" cx="561.5" cy="453.2" r="0.5"/>
	<rect id="_x3C_Transparent_Rectangle_x3E__616_" x="556" y="441.2" class="st17" width="16" height="16"/>
</g>
</svg>
