<?xml version="1.0" encoding="UTF-8" standalone="no"?>
<!-- Generator: Adobe Illustrator 24.0.3, SVG Export Plug-In . SVG Version: 6.00 Build 0)  -->

<svg
   xmlns:dc="http://purl.org/dc/elements/1.1/"
   xmlns:cc="http://creativecommons.org/ns#"
   xmlns:rdf="http://www.w3.org/1999/02/22-rdf-syntax-ns#"
   xmlns:svg="http://www.w3.org/2000/svg"
   xmlns="http://www.w3.org/2000/svg"
   xmlns:sodipodi="http://sodipodi.sourceforge.net/DTD/sodipodi-0.dtd"
   xmlns:inkscape="http://www.inkscape.org/namespaces/inkscape"
   version="1.1"
   id="Layer_1"
   x="0px"
   y="0px"
   viewBox="0 0 614 469"
   style="enable-background:new 0 0 614 469;"
   xml:space="preserve"
   inkscape:version="0.48.1 "
   width="100%"
   height="100%"
   sodipodi:docname="07_What_is_an_edge_node.svg"><metadata
   id="metadata86"><rdf:RDF><cc:Work
       rdf:about=""><dc:format>image/svg+xml</dc:format><dc:type
         rdf:resource="http://purl.org/dc/dcmitype/StillImage" /></cc:Work></rdf:RDF></metadata><defs
   id="defs84" /><sodipodi:namedview
   pagecolor="#ffffff"
   bordercolor="#666666"
   borderopacity="1"
   objecttolerance="10"
   gridtolerance="10"
   guidetolerance="10"
   inkscape:pageopacity="0"
   inkscape:pageshadow="2"
   inkscape:window-width="1280"
   inkscape:window-height="705"
   id="namedview82"
   showgrid="false"
   inkscape:zoom="1.0362473"
   inkscape:cx="307"
   inkscape:cy="234.5"
   inkscape:window-x="-8"
   inkscape:window-y="-8"
   inkscape:window-maximized="1"
   inkscape:current-layer="Layer_1" />
<style
   type="text/css"
   id="style3">
	.st0{fill:none;stroke:#00BAB6;stroke-width:2;stroke-dasharray:7;}
	.st1{fill-rule:evenodd;clip-rule:evenodd;fill:#4F2196;}
	.st2{fill-rule:evenodd;clip-rule:evenodd;fill:#FFFFFF;}
	.st3{fill:#BEBEBE;}
	.st4{fill-rule:evenodd;clip-rule:evenodd;fill:#408BFC;}
	.st5{fill-rule:evenodd;clip-rule:evenodd;fill:#E3F6FF;}
	.st6{fill-rule:evenodd;clip-rule:evenodd;fill:#0062FF;}
	.st7{fill-rule:evenodd;clip-rule:evenodd;fill:none;}
	.st8{fill:#161616;}
	.st9{font-family:'IBMPlexSans';}
	.st10{font-size:14px;}
	.st11{fill:#F4F4F4;}
	.st12{font-family:'IBMPlexSans-Medium';}
	.st13{font-size:16px;}
</style>
<path
   id="Rectangle"
   class="st0"
   d="M41,1h400c22.1,0,40,17.9,40,40v387c0,22.1-17.9,40-40,40H41c-22.1,0-40-17.9-40-40V41  C1,18.9,18.9,1,41,1z" />
<rect
   id="Rectangle-Copy-14"
   x="25"
   y="65"
   class="st1"
   width="432"
   height="267" />
<rect
   id="Rectangle-Copy-16"
   x="249"
   y="131.5"
   class="st2"
   width="192"
   height="56" />
<rect
   id="Rectangle-Copy-53"
   x="41"
   y="260"
   class="st2"
   width="192"
   height="56" />
<rect
   id="Rectangle-Copy-44"
   x="249"
   y="259.5"
   class="st2"
   width="192"
   height="56" />
<path
   id="Line-11-Copy-7"
   class="st3"
   d="M309.8,316l6.9,14l-6,0l-0.3,44l6,0l-7.1,14l-6.9-14l6,0l0.3-44l-6,0L309.8,316z" />
<path
   id="Line-11-Copy-8"
   class="st3"
   d="M141.8,316l6.9,14l-6,0l-0.3,44l6,0l-7.1,14l-6.9-14l6,0l0.3-44l-6,0L141.8,316z" />
<path
   id="Line-11-Copy-6"
   class="st3"
   d="M235,153l14,7l-14,7v-6h-92.5l-0.4,85l6,0l-7.1,14l-6.9-14l6,0l0.4-86l0-1H235V153z" />
<path
   id="Line-11-Copy-9"
   class="st3"
   d="M506,153l14,7l-14,7v-6h-51v6l-14-7l14-7v6h51V153z" />
<rect
   id="Rectangle-Copy-14_1_"
   x="249"
   y="388"
   class="st4"
   width="192"
   height="56" />
<rect
   id="Rectangle-Copy-54"
   x="41"
   y="388"
   class="st4"
   width="192"
   height="56" />
<circle
   id="Oval"
   class="st5"
   cx="560.5"
   cy="157.5"
   r="32.5" />
<path
   id="Shape"
   class="st6"
   d="M569.5,167h-17c-4.1,0-7.5-3.4-7.5-7.5c0-3.6,2.6-6.7,6.1-7.4c0,0,0.1,0,0.1-0.1c1-4.7,5.1-8,9.8-8  c0.6,0,1.3,0.1,1.9,0.2c4,0.8,7.1,3.9,7.9,7.9c0,0,0,0.1,0.1,0.1c4,0.8,6.7,4.7,6,8.7C576.2,164.4,573.1,167,569.5,167z M552.5,165  h17c2.7,0,4.9-1.9,5.4-4.5c0.3-1.8-0.2-3.6-1.5-4.9c-0.8-0.8-1.8-1.3-2.8-1.5l-0.3-0.1l-1.1-0.2c0,0-0.1,0-0.1-0.1l0,0l-0.2-1  c-0.6-3.2-3-5.8-6.1-6.5c-0.9-0.2-1.9-0.3-2.8-0.1c-3.4,0.5-6,3.1-6.8,6.5l-0.1,0.3l-0.2,0.9c0,0,0,0.1-0.1,0.1l0,0l-1,0.2  c-2.4,0.4-4.4,2.3-4.7,4.7C546.6,162.1,549.2,165,552.5,165z" />
<rect
   x="508.6"
   y="197.6"
   class="st7"
   width="104.5"
   height="39.6"
   id="rect18" />
<text
   id="text20"
   x="575.62134"
   y="180.24055"
   transform="scale(0.86660985,1.1539218)"
   style="font-size:10.39931774px"><tspan
     x="575.62134"
     y="180.24055"
     class="st8 st9 st10"
     id="tspan22"
     style="font-size:12.13253784px;fill:#161616;font-family:IBMPlexSans">Servidores em nuvem </tspan><tspan
     x="586.71393"
     y="197.57275"
     class="st8 st9 st10"
     id="tspan24"
     style="font-size:12.13253784px;fill:#161616;font-family:IBMPlexSans">(opcional)</tspan></text>

<rect
   x="322.2"
   y="354.6"
   class="st7"
   width="142.9"
   height="13.9"
   id="rect26" />
<text
   transform="matrix(1 0 0 1 322.2505 364.9432)"
   class="st8 st9 st10"
   id="text28">Acesso de hardware</text>

<rect
   x="322.2"
   y="207.7"
   class="st7"
   width="114.3"
   height="40.8"
   id="rect30" />
<text
   transform="matrix(1 0 0 1 322.25 218.051)"
   id="text32"><tspan
     x="0"
     y="0"
     class="st11 st9 st10"
     id="tspan34">Redes privadas </tspan><tspan
     x="0"
     y="20"
     class="st11 st9 st10"
     id="tspan36">virtuais do Docker</tspan></text>

<rect
   x="154.1"
   y="354.6"
   class="st7"
   width="142.9"
   height="13.9"
   id="rect38" />
<text
   transform="matrix(1 0 0 1 154.0701 364.9432)"
   class="st8 st9 st10"
   id="text40">Acesso do S.O.</text>

<rect
   x="248.9"
   y="140.6"
   class="st7"
   width="192"
   height="39.6"
   id="rect42" />
<text
   transform="matrix(1 0 0 1 303.1973 150.9972)"
   id="text44"><tspan
     x="0"
     y="0"
     class="st8 st9 st10"
     id="tspan46">cpu2msghub</tspan><tspan
     x="-3.5"
     y="20"
     class="st8 st9 st10"
     id="tspan48">(serviço de borda)</tspan></text>

<rect
   x="248.9"
   y="268.6"
   class="st7"
   width="192"
   height="39.6"
   id="rect50" />
<text
   transform="matrix(1 0 0 1 333.5671 279.0005)"
   id="text52"><tspan
     x="0"
     y="0"
     class="st8 st9 st10"
     id="tspan54">gps</tspan><tspan
     x="-33.8"
     y="20"
     class="st8 st9 st10"
     id="tspan56">(serviço de borda)</tspan></text>

<rect
   x="40.9"
   y="268.6"
   class="st7"
   width="192"
   height="39.6"
   id="rect58" />
<text
   transform="matrix(1 0 0 1 125.1779 279.0005)"
   id="text60"><tspan
     x="0"
     y="0"
     class="st8 st9 st10"
     id="tspan62">cpu</tspan><tspan
     x="-33.5"
     y="20"
     class="st8 st9 st10"
     id="tspan64">(serviço de borda)</tspan></text>

<rect
   x="265"
   y="408.2"
   class="st7"
   width="161"
   height="15.6"
   id="rect66" />
<text
   transform="matrix(1 0 0 1 265.0002 419.9979)"
   class="st11 st12 st13"
   id="text68">Sensores de hardware</text>

<rect
   x="57"
   y="408.2"
   class="st7"
   width="161"
   height="15.6"
   id="rect70" />
<text
   transform="matrix(1 0 0 1 56.9915 419.9979)"
   class="st11 st12 st13"
   id="text72">Serviços de S.O.</text>

<rect
   x="41"
   y="85.3"
   class="st7"
   width="236.1"
   height="15.6"
   id="rect74" />
<text
   transform="matrix(1 0 0 1 41.0002 97.1207)"
   class="st11 st12 st13"
   id="text76">Padrão de implementação</text>

<rect
   x="25"
   y="29.2"
   class="st7"
   width="236.1"
   height="15.6"
   id="rect78" />
<text
   transform="matrix(1 0 0 1 25.0038 40.9981)"
   class="st8 st12 st13"
   id="text80">Nó de borda</text>

</svg>
