<svg xmlns="http://www.w3.org/2000/svg" xmlns:xlink="http://www.w3.org/1999/xlink" viewBox="0 0 2396.78 802.77"><defs><style>.cls-1,.cls-10,.cls-11,.cls-12,.cls-13,.cls-2,.cls-3,.cls-38,.cls-39,.cls-4,.cls-40,.cls-41,.cls-5,.cls-6,.cls-7,.cls-8,.cls-9{fill:none;}.cls-1,.cls-13,.cls-5,.cls-9{stroke:#ee538b;}.cls-1,.cls-11,.cls-3{stroke-linecap:square;}.cls-1,.cls-10,.cls-11,.cls-2,.cls-3,.cls-30,.cls-31,.cls-38,.cls-39,.cls-4,.cls-40,.cls-41,.cls-5,.cls-6,.cls-7,.cls-8,.cls-9{stroke-miterlimit:10;}.cls-1,.cls-10,.cls-11,.cls-12,.cls-13,.cls-14,.cls-2,.cls-3,.cls-30,.cls-31,.cls-38,.cls-39,.cls-4,.cls-40,.cls-41,.cls-5,.cls-6,.cls-7,.cls-8,.cls-9{stroke-width:2px;}.cls-2,.cls-3,.cls-4{stroke:#c9deff;}.cls-12,.cls-38,.cls-39,.cls-4,.cls-40,.cls-41,.cls-5,.cls-6{stroke-linecap:round;}.cls-6,.cls-8{stroke:#171717;}.cls-12,.cls-14,.cls-30,.cls-31,.cls-38,.cls-39,.cls-40,.cls-41,.cls-7{stroke:#0062ff;}.cls-10,.cls-11{stroke:#89a2f6;}.cls-12,.cls-13,.cls-14{stroke-linejoin:round;}.cls-14,.cls-31,.cls-37{fill:#fff;}.cls-15{fill:url(#linear-gradient);}.cls-16{fill:url(#linear-gradient-2);}.cls-17{fill:url(#linear-gradient-3);}.cls-18{fill:url(#linear-gradient-4);}.cls-19,.cls-23,.cls-24,.cls-26,.cls-27,.cls-33,.cls-34{opacity:0.5;isolation:isolate;}.cls-19{fill:url(#linear-gradient-5);}.cls-20{fill:url(#linear-gradient-6);}.cls-21{fill:url(#linear-gradient-7);}.cls-22{fill:url(#linear-gradient-8);}.cls-23{fill:url(#linear-gradient-9);}.cls-24{fill:url(#linear-gradient-10);}.cls-25{fill:url(#linear-gradient-11);}.cls-26{fill:url(#linear-gradient-12);}.cls-27{fill:url(#linear-gradient-13);}.cls-28{fill:url(#linear-gradient-14);}.cls-29{fill:url(#linear-gradient-15);}.cls-30{fill:url(#linear-gradient-16);}.cls-32{fill:url(#linear-gradient-17);}.cls-33{fill:url(#linear-gradient-18);}.cls-34{fill:url(#linear-gradient-19);}.cls-35{fill:url(#linear-gradient-20);}.cls-36{fill:url(#linear-gradient-21);}.cls-39{stroke-dasharray:3.88 7.76 7.76 7.76;}.cls-40{stroke-dasharray:11.64 7.76 3.88 7.76 7.76 7.76;}.cls-41{stroke-dasharray:12 8 4 8 8 8;}</style><linearGradient id="linear-gradient" x1="-1712.83" y1="-1510.78" x2="-1647.02" y2="-1444.98" gradientTransform="matrix(0, -1, -1, 0, -1116.85, -1041.84)" gradientUnits="userSpaceOnUse"><stop offset="0" stop-color="#f6f3f3"/><stop offset="1" stop-color="#e7e9f7"/></linearGradient><linearGradient id="linear-gradient-2" x1="414.13" y1="342.95" x2="461.28" y2="342.95" gradientTransform="matrix(1, 0, 0, -1, 0, 962)" gradientUnits="userSpaceOnUse"><stop offset="0" stop-color="#d1d7f4"/><stop offset="1" stop-color="#89a2f6"/></linearGradient><linearGradient id="linear-gradient-3" x1="-1649.44" y1="-1514.29" x2="-1594.03" y2="-1458.89" gradientTransform="matrix(0, -1, -1, 0, -1129.14, -1042.38)" xlink:href="#linear-gradient"/><linearGradient id="linear-gradient-4" x1="-1765.84" y1="-1483.62" x2="-1710.43" y2="-1428.22" gradientTransform="matrix(0, -1, -1, 0, -1104.28, -1038.54)" xlink:href="#linear-gradient"/><linearGradient id="linear-gradient-5" x1="-1700.26" y1="-1506.84" x2="-1642.71" y2="-1449.29" gradientTransform="matrix(-0.21, -0.98, -0.98, 0.21, -1433.78, -697.96)" xlink:href="#linear-gradient-2"/><linearGradient id="linear-gradient-6" x1="951.95" y1="-339.7" x2="1001.14" y2="-290.5" gradientTransform="matrix(1, 0, 0, -1, 88.71, -215.21)" xlink:href="#linear-gradient"/><linearGradient id="linear-gradient-7" x1="-3248.75" y1="218.28" x2="-3199.55" y2="267.48" gradientTransform="matrix(-1, 0, 0, 1, -2295.99, -110.95)" xlink:href="#linear-gradient"/><linearGradient id="linear-gradient-8" x1="874.63" y1="-335.38" x2="939.72" y2="-270.29" gradientTransform="matrix(1, 0, 0, -1, 89.49, -186.94)" xlink:href="#linear-gradient"/><linearGradient id="linear-gradient-9" x1="889.06" y1="-296.83" x2="925.53" y2="-260.36" gradientTransform="matrix(0.92, -0.39, -0.39, -0.92, 40.12, 191.81)" xlink:href="#linear-gradient-2"/><linearGradient id="linear-gradient-10" x1="987.82" y1="784.59" x2="1065.61" y2="784.59" xlink:href="#linear-gradient-2"/><linearGradient id="linear-gradient-11" x1="996.6" y1="1897.79" x2="1039.68" y2="1940.87" gradientTransform="matrix(0, 1, 1, 0, -175.09, -851.55)" xlink:href="#linear-gradient"/><linearGradient id="linear-gradient-12" x1="992.18" y1="1902.24" x2="1026.51" y2="1936.56" gradientTransform="matrix(0.61, 0.8, 0.8, -0.61, -399.78, 517.94)" xlink:href="#linear-gradient-2"/><linearGradient id="linear-gradient-13" x1="1675.32" y1="779.78" x2="1721.67" y2="779.78" xlink:href="#linear-gradient-2"/><linearGradient id="linear-gradient-14" x1="929.98" y1="1888.73" x2="986.88" y2="1945.63" gradientTransform="matrix(0, 1, 1, 0, -210.79, -838.06)" xlink:href="#linear-gradient"/><linearGradient id="linear-gradient-15" x1="1048.81" y1="1888.74" x2="1105.71" y2="1945.64" gradientTransform="matrix(0, 1, 1, 0, -138.87, -862.31)" gradientUnits="userSpaceOnUse"><stop offset="0" stop-color="#051243"/><stop offset="1" stop-color="#0062ff"/></linearGradient><linearGradient id="linear-gradient-16" x1="1741.4" y1="747.25" x2="1815.87" y2="747.25" gradientTransform="matrix(0.8, 0.61, 0.61, -0.8, -89.5, -267.05)" xlink:href="#linear-gradient"/><linearGradient id="linear-gradient-17" x1="530.62" y1="2108.22" x2="605.04" y2="2182.64" gradientTransform="matrix(0, 1, 1, 0, -127.67, 39.37)" xlink:href="#linear-gradient"/><linearGradient id="linear-gradient-18" x1="524.77" y1="2120.55" x2="576.83" y2="2172.61" gradientTransform="matrix(0.26, 0.97, 0.97, -0.26, -204.04, 614.85)" xlink:href="#linear-gradient-2"/><linearGradient id="linear-gradient-19" x1="1930.65" y1="333.36" x2="1962.19" y2="333.36" xlink:href="#linear-gradient-2"/><linearGradient id="linear-gradient-20" x1="449.34" y1="2036.23" x2="495.02" y2="2081.91" gradientTransform="matrix(0, 1, 1, 0, -34.54, 197.87)" xlink:href="#linear-gradient"/><linearGradient id="linear-gradient-21" x1="-2521.4" y1="-2364.2" x2="-2475.72" y2="-2318.52" gradientTransform="matrix(0, -1, -1, 0, -320.26, -1957.04)" xlink:href="#linear-gradient"/></defs><title>Asset 1</title><g id="Layer_2" data-name="Layer 2"><g id="Layer_1-2" data-name="Layer 1"><line class="cls-1" x1="1053.42" y1="411.33" x2="1051.48" y2="393.56"/><line class="cls-1" x1="1042.99" y1="402.6" x2="1041.05" y2="384.84"/><line class="cls-1" x1="1061.84" y1="401.71" x2="1059.91" y2="383.95"/><polygon class="cls-2" points="1055.5 369.31 1056.15 375.21 1040.42 376.94 1039.77 371.04 1027 372.45 1021.47 322.33 1062.75 317.78 1068.27 367.9 1055.5 369.31"/><line class="cls-3" x1="1022.09" y1="332.44" x2="1064.35" y2="327.78"/><line class="cls-3" x1="1025.4" y1="362.46" x2="1067.66" y2="357.8"/><line class="cls-3" x1="1058.15" y1="348.83" x2="1066.55" y2="347.79"/><line class="cls-3" x1="1023.83" y1="352.59" x2="1032.23" y2="351.56"/><line class="cls-3" x1="1056.81" y1="338.72" x2="1065.45" y2="337.79"/><line class="cls-3" x1="1022.49" y1="342.49" x2="1031.13" y2="341.55"/><line class="cls-3" x1="1026.5" y1="372.46" x2="1068.76" y2="367.81"/><line class="cls-3" x1="1020.99" y1="322.43" x2="1063.24" y2="317.77"/><line class="cls-3" x1="1039.8" y1="377.02" x2="1056.51" y2="375.18"/><circle class="cls-2" cx="1044.93" cy="345.61" r="8.9"/><circle class="cls-2" cx="1044.93" cy="345.61" r="2.97"/><line class="cls-1" x1="827.72" y1="676.47" x2="809.89" y2="675.31"/><line class="cls-1" x1="817.33" y1="685.24" x2="799.5" y2="684.08"/><line class="cls-1" x1="819.7" y1="666.51" x2="801.87" y2="665.35"/><line class="cls-1" x1="1360.32" y1="729.14" x2="1377.88" y2="725.82"/><line class="cls-1" x1="1368.2" y1="718.07" x2="1385.76" y2="714.75"/><line class="cls-1" x1="1370.57" y1="736.79" x2="1388.13" y2="733.47"/><line class="cls-1" x1="1662.32" y1="676.14" x2="1679.88" y2="672.82"/><line class="cls-1" x1="1670.2" y1="665.07" x2="1687.76" y2="661.75"/><line class="cls-1" x1="1672.57" y1="683.79" x2="1690.13" y2="680.47"/><line class="cls-1" x1="1492.93" y1="388.15" x2="1505.83" y2="375.78"/><line class="cls-1" x1="1493.48" y1="374.57" x2="1506.38" y2="362.2"/><line class="cls-1" x1="1505.69" y1="388.96" x2="1518.59" y2="376.6"/><g id="planet_att" data-name="planet att"><circle class="cls-2" cx="134.85" cy="609.53" r="39.42"/><path class="cls-2" d="M99.81,596.39Q112.7,616.1,137,616.1t37.25-19.71"/><path class="cls-2" d="M106.38,585.44q10.23,15.33,29.55,15.33t29.58-15.33"/><path class="cls-4" d="M97.62,616.1q13.26,19.71,38.3,19.71t38.35-19.71"/><path class="cls-2" d="M121.48,574.49a4.5,4.5,0,0,0-2,4q0,6.9,16.92,6.9c10,0,18.12-3.09,18.12-6.9,0-1.51-1.38-2.59-3.54-3.73"/></g><g id="stars"><path class="cls-5" d="M251.75,48v6.57m0,6.57v6.57m9.85-9.85H255m-6.57,0h-6.57"/><path class="cls-5" d="M259.75,724v6.57m0,6.57v6.57m9.85-9.85H263m-6.57,0h-6.57"/><path class="cls-6" d="M175.72,464.14v6.57m0,6.57v6.57m9.86-9.86H179m-6.57,0h-6.57"/><path class="cls-6" d="M575.17,361.13v6.57m0,6.57v6.57M585,371h-6.57m-6.57,0h-6.57"/><path class="cls-6" d="M739.52,478.19v6.57m0,6.57v6.57m9.85-9.86H742.8m-6.57,0h-6.57"/><path class="cls-6" d="M697.88,83v6.57m0,6.57v6.57m9.85-9.86h-6.57m-6.57,0H688"/><path class="cls-5" d="M10.85,159.65v6.57m0,6.57v6.57m9.86-9.86H14.14m-6.57,0H1"/><path class="cls-5" d="M1320.85,28.65v6.57m0,6.57v6.57m9.86-9.86h-6.57m-6.57,0H1311"/><path class="cls-5" d="M877.83,563.74v4.93m0,6v4.93m6.57-7.94H880m-4.38,0h-4.38"/><path class="cls-4" d="M72.17,341.14v4.93m0,6V357m6.57-7.94H74.36m-4.38,0H65.6"/><path class="cls-4" d="M1499.31,76.16v4.92m0,6V92m6.57-7.94h-4.38m-4.38,0h-4.38"/><path class="cls-4" d="M575,190.15v4.93m0,6V206m6.57-7.94H577.2m-4.38,0h-4.38"/><path class="cls-4" d="M1169,422.15v4.93m0,6V438m6.57-7.94h-4.38m-4.38,0h-4.38"/><path class="cls-4" d="M480,754.15v4.93m0,6V770m6.57-7.94H482.2m-4.38,0h-4.38"/><circle class="cls-7" cx="405.04" cy="67.67" r="5.47"/><circle class="cls-8" cx="180.57" cy="33.73" r="4.38"/><circle class="cls-8" cx="27.28" cy="397.26" r="4.38"/><circle class="cls-8" cx="1282.8" cy="255.06" r="4.38"/><circle class="cls-8" cx="355.77" cy="259.29" r="4.38"/><circle class="cls-8" cx="461.77" cy="533.29" r="4.38"/><circle class="cls-9" cx="691.24" cy="380.1" r="4.38"/><circle class="cls-9" cx="1409.24" cy="285.1" r="4.38"/><circle class="cls-9" cx="31.24" cy="688.1" r="4.38"/><circle class="cls-2" cx="1210.56" cy="134.46" r="4.38"/><circle class="cls-2" cx="1025.56" cy="521.46" r="4.38"/><circle class="cls-2" cx="1376.56" cy="411.46" r="4.38"/><circle class="cls-7" cx="154.59" cy="197.86" r="4.38"/><circle class="cls-7" cx="220.59" cy="566.86" r="4.38"/><circle class="cls-2" cx="273.76" cy="425.24" r="4.38"/><circle class="cls-2" cx="136.76" cy="735.24" r="4.38"/><circle class="cls-2" cx="320.5" cy="173.27" r="4.38"/><circle class="cls-8" cx="755.62" cy="228.15" r="4.38"/><circle class="cls-8" cx="628.41" cy="674.09" r="4.38"/><circle class="cls-7" cx="881.94" cy="416.8" r="4.38"/></g><g id="stars-2"><path class="cls-5" d="M2141.13,54.53V48m0,19.71V61.1m-3.28-3.28h-6.57m19.71,0h-6.57"/><path class="cls-6" d="M2188.16,579.71v-6.57m0,19.71v-6.57m-3.29-3.29h-6.57m19.71,0h-6.57"/><path class="cls-6" d="M1817.71,367.7v-6.57m0,19.71v-6.57m-3.29-3.28h-6.57m19.71,0H1821"/><path class="cls-6" d="M1622.36,553.76v-6.57m0,19.71v-6.57m-3.28-3.29h-6.57m19.71,0h-6.57"/><path class="cls-6" d="M1722,7.57V1m0,19.71V14.14m-3.28-3.29h-6.57m19.71,0h-6.57"/><path class="cls-5" d="M2382,166.22v-6.57m0,19.71v-6.57m-3.29-3.29h-6.57m19.71,0h-6.57"/><path class="cls-5" d="M1919,773.22v-6.57m0,19.71v-6.57m-3.29-3.29h-6.57m19.71,0h-6.57"/><path class="cls-5" d="M772,776.22v-6.57m0,19.71v-6.57m-3.29-3.29h-6.57m19.71,0h-6.57"/><path class="cls-6" d="M1096.05,310.67v-4.93m0,15.88v-4.93m-2.19-3h-4.38m13.14,0h-4.38"/><path class="cls-4" d="M2320.71,346.07v-4.93m0,15.88v-4.93m-2.19-3h-4.38m13.14,0h-4.38"/><path class="cls-4" d="M1953.71,399.07v-4.93m0,15.88v-4.93m-2.19-3h-4.38m13.14,0h-4.38"/><path class="cls-4" d="M893.57,81.08V76.16m0,15.87V87.11m-2.19-3H887m13.14,0h-4.38"/><path class="cls-4" d="M1869.87,182.08v-4.93m0,15.88V188.1m-2.19-3h-4.38m13.14,0h-4.38"/><circle class="cls-7" cx="1987.84" cy="67.67" r="5.47"/><circle class="cls-7" cx="2130.84" cy="747.67" r="5.47"/><circle class="cls-8" cx="2212.31" cy="33.73" r="4.38"/><circle class="cls-8" cx="2365.6" cy="397.26" r="4.38"/><circle class="cls-2" cx="896.08" cy="285.06" r="4.38"/><circle class="cls-8" cx="2037.11" cy="259.29" r="4.38"/><circle class="cls-9" cx="1701.64" cy="380.1" r="4.38"/><circle class="cls-2" cx="1509.32" cy="189.46" r="4.38"/><circle class="cls-7" cx="2238.29" cy="197.86" r="4.38"/><circle class="cls-2" cx="2119.12" cy="425.24" r="4.38"/><circle class="cls-2" cx="1841.12" cy="541.24" r="4.38"/><circle class="cls-2" cx="2072.38" cy="173.27" r="4.38"/><circle class="cls-2" cx="2340.38" cy="666.27" r="4.38"/><circle class="cls-8" cx="1409.26" cy="93.15" r="4.38"/><circle class="cls-8" cx="1551.47" cy="766.09" r="4.38"/><circle class="cls-7" cx="1510.94" cy="416.8" r="4.38"/></g><circle class="cls-2" cx="2321.67" cy="544.48" r="61.41"/><path class="cls-2" d="M2293.34,490q-34.66-24.92-45-15.11c-5,5-1,17.91,9.49,34.73,10,16.1,25.93,35.75,45.55,55.33a357.66,357.66,0,0,0,45.43,38.81c21.66,15.23,38.93,22,44.85,16.11,4.93-4.92,1-17.71-9.25-34.35"/><circle class="cls-2" cx="654.41" cy="484.88" r="36.54"/><line class="cls-4" x1="690.95" y1="485.68" x2="654.41" y2="485.68"/><line class="cls-4" x1="654.41" y1="496.8" x2="622.64" y2="496.8"/><line class="cls-4" x1="671.89" y1="504.74" x2="657.59" y2="504.74"/><line class="cls-4" x1="649.65" y1="506.33" x2="625.82" y2="506.33"/><line class="cls-4" x1="662.36" y1="474.56" x2="633.76" y2="474.56"/><line class="cls-4" x1="687.77" y1="471.38" x2="678.24" y2="471.38"/><line class="cls-4" x1="651.24" y1="465.03" x2="622.64" y2="465.03"/><line class="cls-4" x1="678.24" y1="457.08" x2="654.41" y2="457.08"/><polygon class="cls-10" points="290.49 645.66 296.33 644.63 299.09 660.2 293.25 661.24 295.48 673.89 245.83 682.68 238.6 641.79 288.25 633 290.49 645.66"/><line class="cls-11" x1="255.87" y1="681.4" x2="248.47" y2="639.54"/><line class="cls-11" x1="285.61" y1="676.14" x2="278.21" y2="634.28"/><line class="cls-11" x1="269.88" y1="644.35" x2="268.3" y2="636.03"/><line class="cls-11" x1="275.88" y1="678.35" x2="274.3" y2="670.03"/><line class="cls-11" x1="259.88" y1="646.35" x2="258.38" y2="637.79"/><line class="cls-11" x1="265.88" y1="680.35" x2="264.38" y2="671.79"/><line class="cls-11" x1="295.53" y1="674.39" x2="288.12" y2="632.53"/><line class="cls-11" x1="245.96" y1="683.15" x2="238.56" y2="641.29"/><line class="cls-11" x1="299.21" y1="660.82" x2="296.28" y2="644.27"/><circle class="cls-10" cx="267.53" cy="657.75" r="8.9"/><circle class="cls-10" cx="267.53" cy="657.75" r="2.97"/><polygon class="cls-2" points="783.05 665.27 788.95 665.93 787.19 681.65 781.29 680.99 779.86 693.76 729.75 688.15 734.37 646.88 784.48 652.49 783.05 665.27"/><line class="cls-3" x1="739.74" y1="689.76" x2="744.48" y2="647.52"/><line class="cls-3" x1="769.76" y1="693.12" x2="774.49" y2="650.88"/><line class="cls-3" x1="763.65" y1="658.18" x2="764.48" y2="649.76"/><line class="cls-3" x1="759.79" y1="692.49" x2="760.63" y2="684.07"/><line class="cls-3" x1="753.49" y1="657.27" x2="754.48" y2="648.64"/><line class="cls-3" x1="749.64" y1="691.58" x2="750.62" y2="682.94"/><line class="cls-3" x1="779.76" y1="694.25" x2="784.49" y2="652"/><line class="cls-3" x1="729.74" y1="688.64" x2="734.47" y2="646.39"/><line class="cls-3" x1="787.13" y1="682.27" x2="789" y2="665.57"/><circle class="cls-2" cx="757.61" cy="670.37" r="8.9"/><circle class="cls-2" cx="757.61" cy="670.37" r="2.97"/><polygon class="cls-2" points="1529.58 363.97 1525.23 368 1514.48 356.4 1518.83 352.37 1510.1 342.94 1547.1 308.68 1575.31 339.14 1538.31 373.4 1529.58 363.97"/><line class="cls-3" x1="1539.34" y1="315.18" x2="1568.23" y2="346.38"/><line class="cls-3" x1="1517.18" y1="335.7" x2="1546.07" y2="366.9"/><line class="cls-3" x1="1547.62" y1="353.92" x2="1553.45" y2="360.06"/><line class="cls-3" x1="1524.18" y1="328.58" x2="1530.01" y2="334.72"/><line class="cls-3" x1="1554.95" y1="346.83" x2="1560.84" y2="353.22"/><line class="cls-3" x1="1531.5" y1="321.48" x2="1537.39" y2="327.88"/><line class="cls-3" x1="1509.8" y1="342.54" x2="1538.68" y2="373.74"/><line class="cls-3" x1="1546.73" y1="308.34" x2="1575.61" y2="339.54"/><line class="cls-3" x1="1514.05" y1="355.95" x2="1525.46" y2="368.28"/><circle class="cls-2" cx="1542.34" cy="341.38" r="8.9"/><circle class="cls-2" cx="1542.34" cy="341.38" r="2.97"/><polygon class="cls-2" points="1405.86 729.25 1400.07 730.55 1396.58 715.13 1402.37 713.82 1399.53 701.28 1448.71 690.15 1457.87 730.65 1408.7 741.78 1405.86 729.25"/><line class="cls-3" x1="1438.74" y1="691.9" x2="1448.12" y2="733.37"/><line class="cls-3" x1="1409.28" y1="698.57" x2="1418.67" y2="740.03"/><line class="cls-3" x1="1426.51" y1="729.58" x2="1428.48" y2="737.81"/><line class="cls-3" x1="1418.91" y1="695.9" x2="1420.88" y2="704.13"/><line class="cls-3" x1="1436.41" y1="727.11" x2="1438.3" y2="735.59"/><line class="cls-3" x1="1428.8" y1="693.43" x2="1430.7" y2="701.91"/><line class="cls-3" x1="1399.46" y1="700.79" x2="1408.85" y2="742.25"/><line class="cls-3" x1="1448.56" y1="689.68" x2="1457.94" y2="731.14"/><line class="cls-3" x1="1396.43" y1="714.52" x2="1400.14" y2="730.91"/><circle class="cls-2" cx="1428.22" cy="716.08" r="8.9"/><circle class="cls-2" cx="1428.22" cy="716.08" r="2.97"/><polygon class="cls-2" points="1706.86 676.25 1701.07 677.55 1697.58 662.13 1703.37 660.82 1700.53 648.28 1749.71 637.15 1758.87 677.65 1709.7 688.78 1706.86 676.25"/><line class="cls-3" x1="1739.74" y1="638.9" x2="1749.12" y2="680.37"/><line class="cls-3" x1="1710.28" y1="645.57" x2="1719.67" y2="687.03"/><line class="cls-3" x1="1727.51" y1="676.58" x2="1729.48" y2="684.81"/><line class="cls-3" x1="1719.91" y1="642.9" x2="1721.88" y2="651.13"/><line class="cls-3" x1="1737.41" y1="674.11" x2="1739.3" y2="682.59"/><line class="cls-3" x1="1729.8" y1="640.43" x2="1731.7" y2="648.91"/><line class="cls-3" x1="1700.46" y1="647.79" x2="1709.85" y2="689.25"/><line class="cls-3" x1="1749.56" y1="636.68" x2="1758.94" y2="678.14"/><line class="cls-3" x1="1697.43" y1="661.52" x2="1701.14" y2="677.91"/><circle class="cls-2" cx="1729.22" cy="663.08" r="8.9"/><circle class="cls-2" cx="1729.22" cy="663.08" r="2.97"/><polyline class="cls-7" points="1234.96 622.59 1313.64 528.91 1269.61 647.73"/><polyline class="cls-12" points="1270.04 646.64 1253.81 601.34 1288.88 594.35 1280.58 568.27 1301.04 561.98 1301.88 543.35"/><polyline class="cls-12" points="1236.88 621.35 1281.15 615.5 1267.98 584.02 1295.88 576.35 1291.6 555.68 1306.88 546.35"/><path class="cls-13" d="M1276.43,540.87a43,43,0,0,1,31.92-51.76l.08,0"/><path class="cls-13" d="M1260.82,545.4a60.1,60.1,0,0,1,44.66-72.31"/><path class="cls-13" d="M1244.71,549.62A77.15,77.15,0,0,1,1302,456.8"/><path class="cls-13" d="M1318.53,566.87a43,43,0,0,0,32-51.7l0-.08"/><path class="cls-13" d="M1321.47,582.86a60.09,60.09,0,0,0,44.66-72.3h0"/><path class="cls-13" d="M1324.9,599.16a77.15,77.15,0,0,0,57.34-92.82"/><circle class="cls-14" cx="1313.79" cy="528.19" r="5.09"/><rect class="cls-15" x="305.97" y="620.31" width="110.12" height="35.55" rx="12" transform="translate(-124.68 88.92) rotate(-11.99)"/><path class="cls-7" d="M311.07,662.56l-3.16.67a8.39,8.39,0,0,1-9.92-6.45l-2.17-10.22a8.39,8.39,0,0,1,6.44-9.92l3.16-.67"/><path class="cls-16" d="M447,590.86l14.1,66.38h.12L445,580.86a39,39,0,0,0-30,46.28h0a40.35,40.35,0,0,0,1.24,4.46A39,39,0,0,1,447,590.86Z"/><path class="cls-7" d="M445,580.86a39,39,0,0,0,16.22,76.35Z"/><line class="cls-7" x1="453.14" y1="619.03" x2="469.5" y2="615.56"/><circle class="cls-9" cx="473.28" cy="614.91" r="3.83"/><rect class="cls-17" x="341.77" y="539.63" width="31.36" height="79.45" transform="translate(-112.56 86.9) rotate(-11.99)"/><rect class="cls-18" x="335.96" y="659.87" width="31.36" height="79.45" transform="translate(-137.66 88.31) rotate(-11.99)"/><rect class="cls-7" x="311.44" y="542.82" width="62.03" height="79.45" transform="translate(-113.55 83.85) rotate(-11.99)"/><line class="cls-7" x1="314.83" y1="601.91" x2="375.51" y2="589.01"/><line class="cls-7" x1="333.82" y1="543.72" x2="350.48" y2="622.12"/><line class="cls-7" x1="309.33" y1="576" x2="370.01" y2="563.11"/><rect class="cls-7" x="335.48" y="656" width="62.03" height="79.45" transform="translate(-136.54 91.31) rotate(-11.99)"/><line class="cls-7" x1="338.88" y1="715.08" x2="399.55" y2="702.19"/><line class="cls-7" x1="357.87" y1="656.89" x2="374.52" y2="735.29"/><line class="cls-7" x1="333.37" y1="689.17" x2="394.05" y2="676.28"/><path class="cls-19" d="M413.65,621a12,12,0,0,0-14.23-9.25h0l-84.24,17.9a12,12,0,0,0-9.25,14.23h0Z"/><rect class="cls-7" x="305.97" y="620.31" width="110.12" height="35.55" rx="12" transform="translate(-124.68 88.92) rotate(-11.99)"/><rect class="cls-20" x="1028.6" y="87.35" width="73.32" height="25.08" transform="translate(46.56 427.02) rotate(-23.16)"/><rect class="cls-7" x="1023.77" y="63.8" width="73.32" height="49.61" transform="translate(50.61 424.21) rotate(-23.16)"/><line class="cls-7" x1="1039.46" y1="70.64" x2="1058.97" y2="116.26"/><line class="cls-7" x1="1094.05" y1="73.97" x2="1026.04" y2="103.06"/><line class="cls-7" x1="1061.93" y1="61.03" x2="1081.44" y2="106.65"/><rect class="cls-21" x="891.49" y="119.39" width="73.32" height="25.08" transform="translate(22.91 375.67) rotate(-23.16)"/><rect class="cls-7" x="896.32" y="118.4" width="73.32" height="49.61" transform="translate(18.87 378.48) rotate(-23.16)"/><line class="cls-7" x1="953.96" y1="161.18" x2="934.45" y2="115.56"/><line class="cls-7" x1="899.37" y1="157.85" x2="967.38" y2="128.76"/><line class="cls-7" x1="931.49" y1="170.79" x2="911.97" y2="125.17"/><rect class="cls-22" x="964.68" y="75.76" width="63.96" height="80.28" rx="12" transform="translate(34.74 401.33) rotate(-23.16)"/><path class="cls-23" d="M1015,77.48a12,12,0,0,0-15.76-6.32L962.51,86.88a12,12,0,0,0-6.31,15.75l1.58,3.7,58.77-25.25Z"/><rect class="cls-7" x="964.68" y="75.76" width="63.96" height="80.28" rx="12" transform="translate(34.74 401.33) rotate(-23.16)"/><path class="cls-7" d="M962.54,87.85l-1.77-4.15c-1.57-3.65-.31-7.72,2.79-9l26.13-11.18c3.1-1.33,6.91.57,8.47,4.22l1.78,4.15"/><path class="cls-24" d="M1015.42,159.85a40.53,40.53,0,0,1,49.53,14.6l.66-.28a40.52,40.52,0,1,0-75.14,30.35c.2.5.41,1,.63,1.48l.67-.28A40.55,40.55,0,0,1,1015.42,159.85Z"/><path class="cls-7" d="M1065.61,174.17a40.52,40.52,0,1,0-75.14,30.35c.2.5.41,1,.63,1.48Z"/><line class="cls-7" x1="1028.35" y1="190.11" x2="1035.18" y2="206.07"/><circle class="cls-9" cx="1036.6" cy="209.8" r="3.98"/><line class="cls-7" x1="964.73" y1="120.27" x2="978.82" y2="114.24"/><line class="cls-7" x1="968.1" y1="128.15" x2="982.19" y2="122.12"/><line class="cls-7" x1="971.47" y1="136.03" x2="985.56" y2="130"/><line class="cls-7" x1="1008.68" y1="101.47" x2="1022.78" y2="95.44"/><line class="cls-7" x1="1012.05" y1="109.35" x2="1026.15" y2="103.32"/><line class="cls-7" x1="1015.42" y1="117.23" x2="1029.52" y2="111.2"/><rect class="cls-25" x="1712.38" y="148.34" width="63.71" height="36.51" rx="12" transform="translate(254.98 1089.76) rotate(-37.25)"/><path class="cls-26" d="M1765.85,142.31A12,12,0,0,0,1749,140l0,0-31.6,24a12,12,0,0,0-2.29,16.81h0Z"/><rect class="cls-7" x="1712.38" y="148.34" width="63.71" height="36.51" rx="12" transform="translate(254.98 1089.76) rotate(-37.25)"/><path class="cls-27" d="M1721.67,190.67A31,31,0,0,0,1680,177.18a30.59,30.59,0,0,0-4.64,2.91l4.36,5.73A31,31,0,0,1,1721.67,190.67Z"/><path class="cls-7" d="M1712.83,229.4a31,31,0,0,0-37.51-49.31Z"/><line class="cls-7" x1="1694.07" y1="204.75" x2="1683.51" y2="212.78"/><circle class="cls-9" cx="1681.01" cy="214.53" r="3.04"/><rect class="cls-28" x="1690.28" y="79.57" width="32.21" height="81.6" transform="translate(275.24 1057.42) rotate(-37.25)"/><rect class="cls-7" x="1691.36" y="79.92" width="31.5" height="81.6" transform="translate(275.17 1057.93) rotate(-37.25)"/><line class="cls-7" x1="1711.45" y1="100.34" x2="1686.38" y2="119.4"/><line class="cls-7" x1="1727.92" y1="121.99" x2="1702.85" y2="141.05"/><rect class="cls-29" x="1762.21" y="174.15" width="32.21" height="81.6" transform="translate(232.67 1120.26) rotate(-37.25)"/><rect class="cls-30" x="1762.85" y="173.93" width="31.5" height="81.6" transform="translate(232.85 1120.38) rotate(-37.25)"/><line class="cls-7" x1="1782.94" y1="194.35" x2="1757.87" y2="213.42"/><line class="cls-7" x1="1799.41" y1="216" x2="1774.34" y2="235.07"/><rect class="cls-31" x="1734.43" y="168.48" width="27.92" height="7.16" rx="3.58" transform="matrix(0.8, -0.61, 0.61, 0.8, 252.52, 1093.39)"/><rect class="cls-32" x="1968.18" y="575.32" width="99.16" height="63.75" rx="12" transform="translate(-88.59 549.54) rotate(-15.18)"/><path class="cls-33" d="M2060.54,575.05a12,12,0,0,0-14.72-8.44l-72.54,19.67a12,12,0,0,0-8.44,14.72h0Z"/><rect class="cls-7" x="1968.18" y="575.32" width="99.16" height="63.75" rx="12" transform="translate(-88.59 549.54) rotate(-15.18)"/><path class="cls-7" d="M1976.62,642.55l-4.15,1.12c-2.58.7-6.37-4.95-8.44-12.57l-4.69-17.3c-2.07-7.61-1.65-14.41.93-15.11l4.15-1.12"/><path class="cls-34" d="M1932.65,611.78a25.18,25.18,0,0,1,29.54,13.94,23.66,23.66,0,0,0-.64-3.23,25.19,25.19,0,0,0-30.9-17.71l13.18,48.61h.1Z"/><path class="cls-7" d="M1943.83,653.39a25.18,25.18,0,0,0-13.18-48.61Z"/><line class="cls-7" x1="1937.24" y1="629.08" x2="1926.82" y2="631.91"/><circle class="cls-9" cx="1924.41" cy="632.46" r="2.47"/><rect class="cls-35" x="2008.88" y="640.02" width="31.29" height="60.07" transform="translate(-104.82 553.51) rotate(-15.18)"/><rect class="cls-7" x="2008.34" y="636" width="61.88" height="60.07" transform="translate(-103.25 557.23) rotate(-15.18)"/><line class="cls-7" x1="2068.84" y1="657.31" x2="2009.12" y2="673.51"/><line class="cls-7" x1="2047.35" y1="694.94" x2="2031.48" y2="636.45"/><rect class="cls-36" x="2005.45" y="511.49" width="31.29" height="60.07" transform="translate(-71.28 548.12) rotate(-15.18)"/><rect class="cls-7" x="1975.38" y="515.49" width="61.88" height="60.07" transform="translate(-72.84 544.39) rotate(-15.18)"/><line class="cls-7" x1="1976.77" y1="554.26" x2="2036.49" y2="538.06"/><line class="cls-7" x1="1998.26" y1="516.63" x2="2014.13" y2="575.11"/><path class="cls-31" d="M2044.79,576a7.08,7.08,0,1,1-7.08,7.08A7.08,7.08,0,0,1,2044.79,576Z"/><circle class="cls-31" cx="2025.04" cy="588.46" r="7.08"/><polygon class="cls-37" points="609.88 504.35 695.88 443.35 706.88 463.35 622.88 521.35 609.88 504.35"/><line class="cls-38" x1="1684.88" y1="221.35" x2="1687.93" y2="226.51"/><line class="cls-39" x1="1691.87" y1="233.19" x2="1703.72" y2="253.22"/><line class="cls-40" x1="1705.69" y1="256.56" x2="1916.85" y2="613.84"/><line class="cls-38" x1="1918.82" y1="617.18" x2="1921.88" y2="622.35"/><line class="cls-41" x1="1674.88" y1="218.35" x2="481.88" y2="614.35"/><line class="cls-41" x1="1295.88" y1="334.35" x2="1041.88" y2="215.35"/><line class="cls-41" x1="1918.88" y1="627.35" x2="1324.88" y2="348.35"/><line class="cls-41" x1="479.88" y1="609.35" x2="1031.88" y2="216.35"/><line class="cls-41" x1="1672.88" y1="215.35" x2="1044.88" y2="210.35"/><line class="cls-41" x1="1924.88" y1="642.35" x2="1841.53" y2="800.76"/><line class="cls-41" x1="475.88" y1="621.35" x2="628.06" y2="800.61"/><line class="cls-41" x1="1921.88" y1="640.35" x2="1736.65" y2="800.76"/><line class="cls-41" x1="480.88" y1="619.35" x2="724.78" y2="800.84"/><line class="cls-41" x1="1664.32" y1="523.21" x2="1650.88" y2="800.35"/><line class="cls-41" x1="1678.88" y1="223.35" x2="1665.78" y2="493.18"/><line class="cls-41" x1="972.88" y1="463.35" x2="889.88" y2="796.35"/><line class="cls-41" x1="1033.88" y1="218.35" x2="978.88" y2="439.35"/><path class="cls-10" d="M1325.34,802.35a183.56,183.56,0,0,0,1.39-22.5,180.5,180.5,0,1,0-361,0,183.56,183.56,0,0,0,1.39,22.5"/><path class="cls-10" d="M1194.38,802.35a40.11,40.11,0,1,0-76.24,0"/><circle class="cls-10" cx="1261.55" cy="724.69" r="25.07"/><circle class="cls-10" cx="1119.95" cy="648.98" r="10.86"/><path class="cls-10" d="M1268.3,802.35a9.14,9.14,0,0,0,.2-1.9,9.26,9.26,0,0,0-18.52,0,9.14,9.14,0,0,0,.2,1.9"/><circle class="cls-10" cx="1314.69" cy="749.49" r="9.26"/><circle class="cls-10" cx="1227.76" cy="719.52" r="9.26"/><circle class="cls-10" cx="1089.97" cy="710.62" r="6.36"/><circle class="cls-10" cx="1160.41" cy="628.19" r="6.36"/><circle class="cls-10" cx="1122.95" cy="611.7" r="6.36"/><circle class="cls-10" cx="1308.79" cy="790.05" r="6.36"/><circle class="cls-10" cx="1010.54" cy="790.05" r="6.36"/><path class="cls-10" d="M1080.75,802.35a6.36,6.36,0,0,0-11.52,0"/><circle class="cls-10" cx="1241.25" cy="673.06" r="9.26"/><circle class="cls-10" cx="1239.1" cy="649.73" r="11.61"/><circle class="cls-10" cx="994.8" cy="780.12" r="11.61"/><circle class="cls-10" cx="1006.79" cy="759.14" r="11.61"/><circle class="cls-10" cx="1125.1" cy="726.26" r="16.01"/><circle class="cls-10" cx="1212.03" cy="783.21" r="16.01"/><circle class="cls-10" cx="1156.57" cy="733.76" r="16.01"/><circle class="cls-10" cx="1014.77" cy="776.1" r="7.59"/><path class="cls-10" d="M1000.61,670.51a10.86,10.86,0,0,0,15-15.71"/><circle class="cls-10" cx="1071.02" cy="684.58" r="25.07"/><circle class="cls-10" cx="1196.37" cy="679.57" r="20.06"/><circle class="cls-10" cx="1066.01" cy="759.79" r="20.06"/></g></g></svg>
