<?xml version="1.0" encoding="UTF-8" standalone="no"?>
<svg
   xmlns:dc="http://purl.org/dc/elements/1.1/"
   xmlns:cc="http://creativecommons.org/ns#"
   xmlns:rdf="http://www.w3.org/1999/02/22-rdf-syntax-ns#"
   xmlns:svg="http://www.w3.org/2000/svg"
   xmlns="http://www.w3.org/2000/svg"
   xmlns:sodipodi="http://sodipodi.sourceforge.net/DTD/sodipodi-0.dtd"
   xmlns:inkscape="http://www.inkscape.org/namespaces/inkscape"
   width="1204px"
   height="794px"
   viewBox="0 0 1204 794"
   version="1.1"
   id="svg154"
   sodipodi:docname="08_sdrarch.svg"
   inkscape:version="0.92.4 (5da689c313, 2019-01-14)">
  <metadata
     id="metadata160">
    <rdf:RDF>
      <cc:Work
         rdf:about="">
        <dc:format>image/svg+xml</dc:format>
        <dc:type
           rdf:resource="http://purl.org/dc/dcmitype/StillImage" />
      </cc:Work>
    </rdf:RDF>
  </metadata>
  <defs
     id="defs158" />
  <sodipodi:namedview
     pagecolor="#ffffff"
     bordercolor="#666666"
     borderopacity="1"
     objecttolerance="10"
     gridtolerance="10"
     guidetolerance="10"
     inkscape:pageopacity="0"
     inkscape:pageshadow="2"
     inkscape:window-width="1680"
     inkscape:window-height="987"
     id="namedview156"
     showgrid="false"
     inkscape:zoom="0.84069119"
     inkscape:cx="491.00887"
     inkscape:cy="342.65059"
     inkscape:window-x="-8"
     inkscape:window-y="-8"
     inkscape:window-maximized="1"
     inkscape:current-layer="svg154" />
  <title
     id="title2">Group 29</title>
  <circle
     style="fill:#e3f6ff;fill-rule:evenodd;stroke:none;stroke-width:1"
     r="32.5"
     cy="185.5"
     cx="46.5"
     id="Oval-Copy-8" />
  <text
     style="font-weight:normal;font-size:14px;font-family:IBMPlexSans, 'IBM Plex Sans';letter-spacing:0.16;fill:#161616;fill-rule:evenodd;stroke:none;stroke-width:1"
     letter-spacing="0.159999996"
     line-spacing="20"
     font-weight="normal"
     font-size="14"
     id="Cloud"
     y="153"
     x="-10">
    <tspan
       style="font-style:normal;font-variant:normal;font-weight:normal;font-stretch:normal;font-family:'Source Han Sans JP';-inkscape-font-specification:'Source Han Sans JP'"
       id="tspan5"
       y="236"
       x="17.393">クラウド</tspan>
  </text>
  <g
     style="fill:#0062ff;fill-rule:evenodd;stroke:none;stroke-width:1"
     transform="translate(31,172)"
     id="Group-11-Copy-4">
    <path
       inkscape:connector-curvature="0"
       id="Shape"
       d="M 24.5077,23.0004 H 7.4917 c -4.146,-0.009 -7.5,-3.375 -7.4920285122,-7.519 C 0.0077,11.8874 2.5647,8.8074 6.0897,8.1304 c 0.049,-0.009 0.087,-0.047 0.096,-0.096 0.953,-4.74 5.134,-8.031 9.808,-8.034 0.626,0 1.259,0.059 1.896,0.181 3.995,0.768 7.124,3.874 7.923,7.854 0.01,0.049 0.048,0.086 0.097,0.095 4.035,0.775 6.703,4.654 5.969,8.704 -0.646,3.564 -3.747,6.158 -7.371,6.166 z m -17.012,-2 h 17.012 c 2.655,-0.006 4.929,-1.908 5.403,-4.523 0.321,-1.772 -0.228,-3.568 -1.54,-4.891 -0.765231,-0.771692 -1.773302,-1.251976 -2.83466,-1.485684 L 25.2697,10.0474 24.2117,9.8554 C 24.1727,9.8479 24.13932,9.822962 24.12086,9.789025 L 24.1077,9.7524 23.9127,8.7434 c -0.612,-3.185 -2.981,-5.839 -6.147,-6.545 -0.944,-0.21 -1.877,-0.256 -2.847,-0.124 C 11.526956,2.5352718 8.8747763,5.2243277 8.1267754,8.5532869 L 8.0717,8.8174 l -0.18,0.935 c -0.0075,0.039 -0.033,0.071813 -0.067641,0.09 l -0.037359,0.013 -1.016,0.184 c -2.382,0.431 -4.374,2.263 -4.714,4.66 -0.479,3.381 2.144,6.294 5.439,6.301 z" />
  </g>
  <text
     style="font-weight:normal;font-size:14px;font-family:IBMPlexSans, 'IBM Plex Sans';letter-spacing:0.16;fill:#161616;fill-rule:evenodd;stroke:none;stroke-width:1"
     letter-spacing="0.159999996"
     line-spacing="20"
     font-weight="normal"
     font-size="14"
     id="Edge-node"
     x="-10"
     y="546.5">
    <tspan
       id="tspan11"
       y="629.5"
       x="2.2609997"
       style="-inkscape-font-specification:'Source Han Sans JP';font-family:'Source Han Sans JP';font-weight:normal;font-style:normal;font-stretch:normal;font-variant:normal">エッジ・ノード</tspan>
  </text>
  <circle
     style="fill:#e3f6ff;fill-rule:evenodd;stroke:none;stroke-width:1"
     r="32.5"
     cy="579"
     cx="47.5"
     id="Oval-Copy-9" />
  <path
     style="fill:#0062ff;fill-rule:evenodd;stroke:none;stroke-width:1"
     inkscape:connector-curvature="0"
     id="Fill-1-Copy-2"
     d="m 55,572.5 h 1 v -1 h -1 z m 1.76,-3 h -2.52 c -0.684,0 -1.24,0.557 -1.24,1.24 v 2.52 c 0,0.683 0.556,1.24 1.24,1.24 h 2.52 c 0.684,0 1.24,-0.557 1.24,-1.24 v -2.52 c 0,-0.683 -0.556,-1.24 -1.24,-1.24 z m -14.763,16 v -8 h 8 l 0.002,8 z m 8,-10 H 49 v -1.999 h -2 v 1.999 h -2 v -1.999 h -2 v 1.999 h -1.003 c -1.102,0 -2,0.897 -2,2 v 1.001 H 38 v 2 h 1.997 v 2 H 38 v 2 h 1.997 v 0.999 c 0,1.103 0.898,2 2,2 h 8 c 1.103,0 2,-0.897 2,-2 v -8 c 0,-1.103 -0.897,-2 -2,-2 z m 2.003,9 h 2 v -2 h -2 z m 0,-4 h 2 v -2 h -2 z m -5,9.001 h 2 v -2 h -2 z m -4,0 h 2 v -2 H 43 Z M 57,579.5 c -0.552,0 -1,0.448 -1,1 0,0.552 0.448,1 1,1 0.552,0 1,-0.448 1,-1 0,-0.552 -0.448,-1 -1,-1 z m 0,4 c -0.552,0 -1,0.448 -1,1 0,0.552 0.448,1 1,1 0.552,0 1,-0.448 1,-1 0,-0.552 -0.448,-1 -1,-1 z m -18,-12 c 0.552,0 1,-0.448 1,-1 0,-0.552 -0.448,-1 -1,-1 -0.552,0 -1,0.448 -1,1 0,0.552 0.448,1 1,1 z m 18,16 c -0.552,0 -1,0.448 -1,1 0,0.552 0.448,1 1,1 0.552,0 1,-0.448 1,-1 0,-0.552 -0.448,-1 -1,-1 z m 3,3.818 c 0,0.1 -0.082,0.182 -0.182,0.182 H 36.182 c -0.1,0 -0.182,-0.082 -0.182,-0.182 v -23.636 c 0,-0.1 0.082,-0.182 0.182,-0.182 h 23.636 c 0.1,0 0.182,0.082 0.182,0.182 z M 59.818,565.5 H 36.182 c -1.203,0 -2.182,0.979 -2.182,2.182 v 23.636 c 0,1.203 0.979,2.182 2.182,2.182 h 23.636 c 1.203,0 2.182,-0.979 2.182,-2.182 v -23.636 c 0,-1.203 -0.979,-2.182 -2.182,-2.182 z" />
  <g
     style="fill:none;fill-rule:evenodd;stroke:none;stroke-width:1"
     id="Group-23">
    <circle
       id="Oval-Copy-2"
       cx="45.5"
       cy="32.5"
       r="32.5"
       style="fill:#e3f6ff" />
    <text
       id="Web-browser"
       font-size="14"
       font-weight="normal"
       line-spacing="20"
       letter-spacing="0.159999996"
       style="font-weight:normal;font-size:14px;font-family:IBMPlexSans, 'IBM Plex Sans';letter-spacing:0.16;fill:#161616">
      <tspan
         x="3.7709999"
         y="83"
         id="tspan18">
        <tspan
           style="font-style:normal;font-variant:normal;font-weight:normal;font-stretch:normal;font-family:'Source Han Sans JP';-inkscape-font-specification:'Source Han Sans JP'"
           id="tspan969">Webブラ</tspan>
        <tspan
           style="font-style:normal;font-variant:normal;font-weight:normal;font-stretch:normal;font-family:'Source Han Sans JP';-inkscape-font-specification:'Source Han Sans JP'"
           id="tspan1254">ウザー</tspan>
      </tspan>
    </text>
    <path
       d="M 34,38 H 58 V 22 H 34 Z m 10,6 h 4 V 40 H 44 Z M 58,20 H 34 c -1.104,0 -2,0.896 -2,2 v 16 c 0,1.104 0.896,2 2,2 h 8 v 4 h -4 v 2 h 16 v -2 h -4 v -4 h 8 c 1.104,0 2,-0.896 2,-2 V 22 c 0,-1.104 -0.896,-2 -2,-2 z"
       id="Fill-1"
       inkscape:connector-curvature="0"
       style="fill:#0062ff" />
  </g>
  <g
     style="fill:none;fill-rule:evenodd;stroke:none;stroke-width:1"
     id="Group-24"
     transform="translate(630,15)">
    <circle
       id="Oval-Copy-10"
       cx="45.5"
       cy="32.5"
       r="32.5"
       style="fill:#e3f6ff" />
    <text
       id="User"
       font-size="14"
       font-weight="normal"
       line-spacing="20"
       letter-spacing="0.159999996"
       style="font-weight:normal;font-size:14px;font-family:IBMPlexSans, 'IBM Plex Sans';letter-spacing:0.16;fill:#161616">
      <tspan
         x="31.113001"
         y="83"
         id="tspan24"
         style="-inkscape-font-specification:'Source Han Sans JP';font-family:'Source Han Sans JP';font-weight:normal;font-style:normal;font-stretch:normal;font-variant:normal">ユーザー</tspan>
    </text>
    <g
       id="Group-5-Copy-3"
       transform="translate(36,18)"
       style="fill:#0062ff">
      <path
         d="m 10.0002,0 c -3.866,0 -7,3.134 -7,7 0,3.866 3.134,7 7,7 3.866,0 7,-3.134 7,-7 0,-3.866 -3.134,-7 -7,-7 m 0,2 c 2.761,0 5,2.239 5,5 0,2.761 -2.239,5 -5,5 -2.762,0 -5,-2.239 -5,-5 0.003,-2.76 2.239,-4.997 5,-5"
         id="path27"
         inkscape:connector-curvature="0" />
      <path
         d="m 20.0002,28 h -2 v -5 c -0.004,-2.76 -2.24,-4.997 -5,-5 h -6 c -2.761,0.003 -4.997,2.24 -5,5 v 5 h -2 v -5 c 0.004,-3.864 3.136,-6.995 7,-7 h 6 c 3.864,0.005 6.995,3.136 7,7 z"
         id="Fill-3"
         inkscape:connector-curvature="0" />
    </g>
  </g>
  <g
     style="fill:none;fill-rule:evenodd;stroke:none;stroke-width:1"
     id="Group-27"
     transform="translate(208,541.5)">
    <rect
       id="Rectangle-Copy-18"
       x="0"
       y="0"
       width="209"
       height="48"
       style="fill:#8a3ffc" />
    <text
       id="AI-service"
       font-size="14"
       font-weight="normal"
       line-spacing="20"
       letter-spacing="0.159999996"
       style="font-weight:normal;font-size:14px;font-family:IBMPlexSans, 'IBM Plex Sans';letter-spacing:0.16;fill:#f4f4f4">
      <tspan
         x="39.605"
         y="27.5"
         id="tspan33"
         style="-inkscape-font-specification:'Source Han Sans JP';font-family:'Source Han Sans JP';font-weight:normal;font-style:normal;font-stretch:normal;font-variant:normal">sdr2msghub サービス</tspan>
    </text>
  </g>
  <rect
     style="fill:#92eeee;fill-rule:evenodd;stroke:none;stroke-width:1"
     height="48"
     width="209"
     y="175"
     x="208"
     id="rect37" />
  <text
     style="font-weight:normal;font-size:14px;font-family:IBMPlexSans, 'IBM Plex Sans';letter-spacing:0.16;fill:#161616;fill-rule:evenodd;stroke:none;stroke-width:1"
     letter-spacing="0.159999996"
     line-spacing="20"
     font-weight="normal"
     font-size="14"
     id="Node.js,-Express,-Gr"
     x="200"
     y="175">
    <tspan
       style="font-style:normal;font-variant:normal;font-weight:normal;font-stretch:normal;font-family:'Source Han Sans JP';-inkscape-font-specification:'Source Han Sans JP'"
       id="tspan39"
       y="202.5"
       x="219.27701">Node.js、Express、GraphQL</tspan>
  </text>
  <rect
     style="fill:#408bfc;fill-rule:evenodd;stroke:none;stroke-width:1"
     height="66"
     width="209"
     y="15"
     x="208"
     id="rect43" />
  <text
     style="font-style:normal;font-variant:normal;font-weight:normal;font-stretch:normal;font-size:14px;font-family:'Source Han Sans JP';-inkscape-font-specification:'Source Han Sans JP, Normal';font-variant-ligatures:normal;font-variant-caps:normal;font-variant-numeric:normal;font-feature-settings:normal;text-align:center;letter-spacing:0.16;writing-mode:lr-tb;text-anchor:middle;fill:#f4f4f4;fill-rule:evenodd;stroke:none;stroke-width:1"
     letter-spacing="0.159999996"
     line-spacing="20"
     font-weight="normal"
     font-size="14"
     id="Provides-data-views"
     x="307.91779"
     y="45.168941">
    <tspan
       y="45.168941"
       x="307.9978"
       id="tspan971"
       sodipodi:role="line">データ・ビューを提供する</tspan>
    <tspan
       y="62.668941"
       x="307.99777"
       id="tspan973"
       sodipodi:role="line">(React、GraphQL)</tspan>
  </text>
  <g
     style="fill:none;fill-rule:evenodd;stroke:none;stroke-width:1"
     id="Group-27-Copy-4"
     transform="translate(208,277)">
    <rect
       id="rect51"
       x="0"
       y="0"
       width="209"
       height="48"
       style="fill:#92eeee" />
    <text
       id="Compose-Postgres-dat"
       font-size="14"
       font-weight="normal"
       line-spacing="20"
       letter-spacing="0.159999996"
       style="font-style:normal;font-variant:normal;font-weight:normal;font-stretch:normal;font-size:14px;font-family:'Source Han Sans JP';-inkscape-font-specification:'Source Han Sans JP, Normal';font-variant-ligatures:normal;font-variant-caps:normal;font-variant-numeric:normal;font-feature-settings:normal;text-align:center;letter-spacing:0.16;writing-mode:lr-tb;text-anchor:middle;fill:#161616"
       x="103.48627"
       y="22.600451">
      <tspan
         sodipodi:role="line"
         id="tspan1209"
         x="103.56628"
         y="22.600451">Postgres データベースを</tspan>
      <tspan
         sodipodi:role="line"
         id="tspan1211"
         x="103.56628"
         y="40.100452">構成する</tspan>
    </text>
  </g>
  <g
     style="fill:none;fill-rule:evenodd;stroke:none;stroke-width:1"
     id="Group-27-Copy"
     transform="translate(208,643.5)">
    <rect
       id="rect57"
       x="0"
       y="0"
       width="209"
       height="48"
       style="fill:#8a3ffc" />
    <text
       id="sdr-service"
       font-size="14"
       font-weight="normal"
       line-spacing="20"
       letter-spacing="0.159999996"
       style="font-weight:normal;font-size:14px;font-family:IBMPlexSans, 'IBM Plex Sans';letter-spacing:0.16;fill:#f4f4f4">
      <tspan
         x="69.523003"
         y="27.5"
         id="tspan59"
         style="-inkscape-font-specification:'Source Han Sans JP';font-family:'Source Han Sans JP';font-weight:normal;font-style:normal;font-stretch:normal;font-variant:normal">sdr サービス</tspan>
    </text>
  </g>
  <rect
     style="fill:#408bfc;fill-rule:evenodd;stroke:none;stroke-width:1"
     height="56"
     width="192"
     y="639.5"
     x="580"
     id="Rectangle-Copy-14" />
  <text
     style="font-style:normal;font-variant:normal;font-weight:normal;font-stretch:normal;font-size:16px;font-family:'Source Han Sans JP';-inkscape-font-specification:'Source Han Sans JP, Normal';font-variant-ligatures:normal;font-variant-caps:normal;font-variant-numeric:normal;font-feature-settings:normal;text-align:center;writing-mode:lr-tb;text-anchor:middle;fill:#f4f4f4;fill-rule:evenodd;stroke:none;stroke-width:1"
     line-spacing="22"
     font-weight="500"
     font-size="16"
     id="Open-Horizon-agent"
     x="677.7077"
     y="662.91095"
     inkscape:transform-center-x="89.212307"
     inkscape:transform-center-y="-27.358441">
    <tspan
       sodipodi:role="line"
       id="tspan1237"
       x="677.7077"
       y="662.91095">Open Horizon</tspan>
    <tspan
       sodipodi:role="line"
       id="tspan1239"
       x="677.7077"
       y="682.91095">エージェント</tspan>
  </text>
  <g
     style="fill:none;fill-rule:evenodd;stroke:none;stroke-width:1"
     id="Group-28-Copy"
     transform="translate(532,170)">
    <rect
       id="rect68"
       x="0"
       y="0"
       width="288"
       height="117"
       style="fill:#408bfc" />
    <text
       id="IBM-functions"
       font-size="16"
       font-weight="500"
       line-spacing="22"
       style="font-weight:500;font-size:16px;font-family:IBMPlexSans-SemiBold, 'IBM Plex Sans';fill:#f4f4f4">
      <tspan
         x="16"
         y="32"
         id="tspan70"
         style="-inkscape-font-specification:'Source Han Sans JP';font-family:'Source Han Sans JP';font-weight:normal;font-style:normal;font-stretch:normal;font-variant:normal">IBM 機能</tspan>
    </text>
  </g>
  <g
     style="fill:none;fill-rule:evenodd;stroke:none;stroke-width:1"
     id="Group-27-Copy-2"
     transform="translate(208,745.5)">
    <rect
       id="rect74"
       x="0"
       y="0"
       width="209"
       height="48"
       style="fill:#8a3ffc" />
    <text
       id="sdr-sensor"
       font-size="14"
       font-weight="normal"
       line-spacing="20"
       letter-spacing="0.159999996"
       style="font-weight:normal;font-size:14px;font-family:IBMPlexSans, 'IBM Plex Sans';letter-spacing:0.16;fill:#f4f4f4">
      <tspan
         x="70.884003"
         y="27.5"
         id="tspan76"
         style="-inkscape-font-specification:'Source Han Sans JP';font-family:'Source Han Sans JP';font-weight:normal;font-style:normal;font-stretch:normal;font-variant:normal">sdr センサー</tspan>
    </text>
  </g>
  <rect
     id="Rectangle-Copy-66"
     x="572"
     y="427"
     width="208"
     height="56"
     rx="14"
     style="fill:#009c98;fill-rule:evenodd;stroke:none;stroke-width:1" />
  <rect
     id="Rectangle-Copy-72"
     x="896"
     y="170"
     width="288"
     height="76"
     rx="14"
     style="fill:#009c98;fill-rule:evenodd;stroke:none;stroke-width:1" />
  <rect
     id="Rectangle-Copy-73"
     x="896"
     y="262"
     width="288"
     height="76"
     rx="14"
     style="fill:#009c98;fill-rule:evenodd;stroke:none;stroke-width:1" />
  <text
     id="Retrieve-audio-clips"
     font-size="14"
     font-weight="normal"
     line-spacing="20"
     letter-spacing="0.159999996"
     style="font-weight:normal;font-size:14px;font-family:IBMPlexSans, 'IBM Plex Sans';letter-spacing:0.16;fill:#161616;fill-rule:evenodd;stroke:none;stroke-width:1"
     x="322.35379"
     y="714.88794">
    <tspan
       sodipodi:role="line"
       id="tspan1230"
       x="322.35379"
       y="714.88794"
       style="-inkscape-font-specification:'Source Han Sans JP';font-family:'Source Han Sans JP';font-weight:normal;font-style:normal;font-stretch:normal;font-variant:normal">無線局から</tspan>
    <tspan
       sodipodi:role="line"
       id="tspan1232"
       x="322.35379"
       y="733.39661"
       style="-inkscape-font-specification:'Source Han Sans JP';font-family:'Source Han Sans JP';font-weight:normal;font-style:normal;font-stretch:normal;font-variant:normal">オーディオ・クリップを取得する</tspan>
  </text>
  <text
     id="Message-triggers-sof"
     font-size="14"
     font-weight="normal"
     line-spacing="20"
     letter-spacing="0.159999996"
     style="font-weight:normal;font-size:14px;font-family:IBMPlexSans, 'IBM Plex Sans';letter-spacing:0.16;fill:#161616;fill-rule:evenodd;stroke:none;stroke-width:1"
     x="685.15051"
     y="396.86063">
    <tspan
       sodipodi:role="line"
       id="tspan1222"
       x="685.15051"
       y="396.86063"
       style="font-style:normal;font-variant:normal;font-weight:normal;font-stretch:normal;font-family:'Source Han Sans JP';-inkscape-font-specification:'Source Han Sans JP'">メッセージがソフトウェア</tspan>
    <tspan
       sodipodi:role="line"
       id="tspan1224"
       x="685.15051"
       y="415.65799"
       style="font-style:normal;font-variant:normal;font-weight:normal;font-stretch:normal;font-family:'Source Han Sans JP';-inkscape-font-specification:'Source Han Sans JP'">無線アクションをトリガーする</tspan>
  </text>
  <text
     id="Use-machine-learning-Copy"
     font-size="14"
     font-weight="normal"
     line-spacing="20"
     letter-spacing="0.159999996"
     style="font-weight:normal;font-size:14px;font-family:IBMPlexSans, 'IBM Plex Sans';letter-spacing:0.16;fill:#161616;fill-rule:evenodd;stroke:none;stroke-width:1"
     x="324.73279"
     y="613.7807">
    <tspan
       sodipodi:role="line"
       id="tspan1226"
       x="324.73279"
       y="613.7807"
       style="-inkscape-font-specification:'Source Han Sans JP';font-family:'Source Han Sans JP';font-weight:normal;font-style:normal;font-stretch:normal;font-variant:normal">機械学習を使用して最良トーク局を</tspan>
    <tspan
       sodipodi:role="line"
       id="tspan1228"
       x="324.73279"
       y="632.28931"
       style="-inkscape-font-specification:'Source Han Sans JP';font-family:'Source Han Sans JP';font-weight:normal;font-style:normal;font-stretch:normal;font-variant:normal">選択し、音声をクラウドに送信する</tspan>
  </text>
  <text
     id="Stores-only-insights"
     font-size="14"
     font-weight="normal"
     line-spacing="20"
     letter-spacing="0.159999996"
     style="font-style:normal;font-variant:normal;font-weight:normal;font-stretch:normal;font-size:14px;font-family:'Source Han Sans JP';-inkscape-font-specification:'Source Han Sans JP, Normal';font-variant-ligatures:normal;font-variant-caps:normal;font-variant-numeric:normal;font-feature-settings:normal;text-align:start;letter-spacing:0.16;writing-mode:lr-tb;text-anchor:start;fill:#161616;fill-rule:evenodd;stroke:none;stroke-width:1"
     x="323.5433"
     y="248.60497">
    <tspan
       sodipodi:role="line"
       id="tspan1205"
       x="323.5433"
       y="248.60497">洞察 (センチメント) のみを</tspan>
    <tspan
       sodipodi:role="line"
       id="tspan1207"
       x="323.5433"
       y="266.10495">データベースに保管する</tspan>
  </text>
  <text
     id="Serves-the-UI,-trans"
     font-size="14"
     font-weight="normal"
     line-spacing="20"
     letter-spacing="0.159999996"
     style="font-weight:normal;font-size:14px;font-family:IBMPlexSans, 'IBM Plex Sans';letter-spacing:0.16;fill:#161616;fill-rule:evenodd;stroke:none;stroke-width:1"
     x="320.78531"
     y="140.3607">
    <tspan
       sodipodi:role="line"
       id="tspan1201"
       x="320.78531"
       y="140.3607"
       style="-inkscape-font-specification:'Source Han Sans JP';font-family:'Source Han Sans JP';font-weight:normal;font-style:normal;font-stretch:normal;font-variant:normal">UI に作用してデータを</tspan>
    <tspan
       sodipodi:role="line"
       id="tspan1203"
       x="320.78531"
       y="158.86932"
       style="-inkscape-font-specification:'Source Han Sans JP';font-family:'Source Han Sans JP';font-weight:normal;font-style:normal;font-stretch:normal;font-variant:normal">ブラウザーに転送する</tspan>
  </text>
  <text
     id="Provide-data-views"
     font-size="14"
     font-weight="normal"
     line-spacing="20"
     letter-spacing="0.159999996"
     style="font-weight:normal;font-size:14px;font-family:IBMPlexSans, 'IBM Plex Sans';letter-spacing:0.16;fill:#161616;fill-rule:evenodd;stroke:none;stroke-width:1"
     y="4"
     x="-12">
    <tspan
       x="454.823"
       y="38"
       id="tspan108"
       style="font-style:normal;font-variant:normal;font-weight:normal;font-stretch:normal;font-family:'Source Han Sans JP';-inkscape-font-specification:'Source Han Sans JP'">データ・ビューの提供</tspan>
  </text>
  <text
     id="Convert-audio-text,"
     font-size="14"
     font-weight="normal"
     line-spacing="20"
     letter-spacing="0.159999996"
     style="font-weight:normal;font-size:14px;font-family:IBMPlexSans, 'IBM Plex Sans';letter-spacing:0.16;fill:#161616;fill-rule:evenodd;stroke:none;stroke-width:1"
     x="951.15503"
     y="142.73969">
    <tspan
       sodipodi:role="line"
       id="tspan1216"
       x="951.15503"
       y="142.73969"
       style="-inkscape-font-specification:'Source Han Sans JP';font-family:'Source Han Sans JP';font-weight:normal;font-style:normal;font-stretch:normal;font-variant:normal">音声をテキストに変換し、</tspan>
    <tspan
       sodipodi:role="line"
       id="tspan1218"
       x="951.15503"
       y="161.24831"
       style="-inkscape-font-specification:'Source Han Sans JP';font-family:'Source Han Sans JP';font-weight:normal;font-style:normal;font-stretch:normal;font-variant:normal">センチメントを分析する</tspan>
  </text>
  <text
     id="IBM-Event-Streams"
     font-size="16"
     font-weight="500"
     line-spacing="22"
     style="font-weight:500;font-size:16px;font-family:IBMPlexSans-SemiBold, 'IBM Plex Sans';fill:#f4f4f4;fill-rule:evenodd;stroke:none;stroke-width:1">
    <tspan
       x="604.79999"
       y="459"
       id="tspan114">IBM Event Streams</tspan>
  </text>
  <text
     id="IBM-Watson-Speech-to"
     font-size="16"
     font-weight="500"
     line-spacing="22"
     style="font-weight:500;font-size:16px;font-family:IBMPlexSans-SemiBold, 'IBM Plex Sans';fill:#f4f4f4;fill-rule:evenodd;stroke:none;stroke-width:1"
     x="-2">
    <tspan
       x="992.64001"
       y="202"
       id="tspan117">IBM Watson</tspan>
    <tspan
       x="982.85602"
       y="224"
       id="tspan119">Speech to Text</tspan>
  </text>
  <text
     id="IBM-Watson-Natural-L"
     font-size="16"
     font-weight="500"
     line-spacing="22"
     style="font-weight:500;font-size:16px;font-family:IBMPlexSans-SemiBold, 'IBM Plex Sans';fill:#f4f4f4;fill-rule:evenodd;stroke:none;stroke-width:1"
     x="-10">
    <tspan
       x="987.64001"
       y="294"
       id="tspan122">IBM Watson</tspan>
    <tspan
       x="910.76801"
       y="316"
       id="tspan124">Natural Language Understanding</tspan>
  </text>
  <path
     id="Path-2-Copy-16"
     d="m 622.87695,41 14,7 -14,7 -9.5e-4,-6 H 431 v 6 l -14,-7 14,-7 v 6 h 191.876 z"
     inkscape:connector-curvature="0"
     style="fill:#bebebe;fill-rule:nonzero;stroke:none;stroke-width:1" />
  <path
     id="Path-2-Copy-12"
     d="m 313,691.5 7,14 h -6 v 26 h 6 l -7,14 -7,-14 h 6 v -26 h -6 z"
     inkscape:connector-curvature="0"
     style="fill:#bebebe;fill-rule:nonzero;stroke:none;stroke-width:1" />
  <path
     id="Path-2-Copy-17"
     d="m 676,373 7,14 h -6 v 40 h -2 v -40 h -6 z"
     inkscape:connector-curvature="0"
     style="fill:#bebebe;fill-rule:nonzero;stroke:none;stroke-width:1" />
  <path
     id="Path-2-Copy-13"
     d="m 313,589.5 7,14 h -6 v 26 h 6 l -7,14 -7,-14 h 6 v -26 h -6 z"
     inkscape:connector-curvature="0"
     style="fill:#bebebe;fill-rule:nonzero;stroke:none;stroke-width:1" />
  <path
     id="Path-2-Copy-22"
     d="m 676,483 7,14 -6,-10e-4 V 569 H 417 v -2 l 258,-10e-4 v -70 L 669,497 Z"
     inkscape:connector-curvature="0"
     style="fill:#bebebe;fill-rule:nonzero;stroke:none;stroke-width:1" />
  <path
     id="Path-2-Copy-14"
     d="m 313,223 7,14 h -6 v 40 h -2 v -40 h -6 z"
     inkscape:connector-curvature="0"
     style="fill:#bebebe;fill-rule:nonzero;stroke:none;stroke-width:1" />
  <path
     id="Path-2-Copy-15"
     d="m 313,81 7,14 h -6 v 66 h 6 l -7,14 -7,-14 h 6 V 95 h -6 z"
     inkscape:connector-curvature="0"
     style="fill:#bebebe;fill-rule:nonzero;stroke:none;stroke-width:1" />
  <line
     x1="3.7953641"
     y1="121.5"
     x2="1203.2046"
     y2="121.5"
     id="Line-12"
     style="fill:none;fill-rule:evenodd;stroke:#00bab6;stroke-width:2;stroke-dasharray:7" />
  <line
     x1="3.7953641"
     y1="514.5"
     x2="1203.2046"
     y2="514.5"
     id="Line-12-Copy"
     style="fill:none;fill-rule:evenodd;stroke:#00bab6;stroke-width:2;stroke-dasharray:7" />
  <g
     style="fill:none;fill-rule:evenodd;stroke:none;stroke-width:1"
     id="Group-27-Copy-6"
     transform="translate(548,223)">
    <rect
       id="rect136"
       x="0"
       y="0"
       width="256"
       height="48"
       style="fill:#8a3ffc" />
    <text
       id="Software-defined-rad"
       font-size="14"
       font-weight="normal"
       line-spacing="20"
       letter-spacing="0.159999996"
       style="font-weight:normal;font-size:14px;font-family:IBMPlexSans, 'IBM Plex Sans';letter-spacing:0.16;fill:#f4f4f4">
      <tspan
         x="32.303001"
         y="27"
         id="tspan138"
         style="-inkscape-font-specification:'Source Han Sans JP';font-family:'Source Han Sans JP';font-weight:normal;font-style:normal;font-stretch:normal;font-variant:normal">ソフトウェア無線アクション</tspan>
    </text>
  </g>
  <g
     style="fill:none;fill-rule:evenodd;stroke:none;stroke-width:1"
     id="Group-27-Copy-7"
     transform="translate(548,325)">
    <rect
       id="rect142"
       x="0"
       y="0"
       width="256"
       height="48"
       style="fill:#8a3ffc" />
    <text
       id="Trigger"
       font-size="14"
       font-weight="normal"
       line-spacing="20"
       letter-spacing="0.159999996"
       style="font-weight:normal;font-size:14px;font-family:IBMPlexSans, 'IBM Plex Sans';letter-spacing:0.16;fill:#f4f4f4">
      <tspan
         x="105.656"
         y="27"
         id="tspan144"
         style="-inkscape-font-specification:'Source Han Sans JP';font-family:'Source Han Sans JP';font-weight:normal;font-style:normal;font-stretch:normal;font-variant:normal">トリガー</tspan>
    </text>
  </g>
  <path
     id="Path-2-Copy-18"
     d="m 676,271 7,14 h -6 v 40 h -2 v -40 h -6 z"
     inkscape:connector-curvature="0"
     style="fill:#bebebe;fill-rule:nonzero;stroke:none;stroke-width:1" />
  <path
     id="Path-2-Copy-19"
     d="m 548,245 v 2 h -35 v 55 h -80.5 v 6 l -14,-7 14,-7 v 6 H 511 v -55 z"
     inkscape:connector-curvature="0"
     style="fill:#bebebe;fill-rule:nonzero;stroke:none;stroke-width:1" />
  <path
     id="Path-2-Copy-20"
     d="m 882,201 14,7 -14,7 v -6.001 H 842.925 L 842.92578,236 818,235.999 V 242 l -14,-7 14,-7 v 5.999 h 22.925 L 840.92578,207 882,206.999 Z"
     inkscape:connector-curvature="0"
     style="fill:#bebebe;fill-rule:nonzero;stroke:none;stroke-width:1" />
  <path
     id="Path-2-Copy-21"
     d="m 818,265 -14,-7 14,-7 v 6 h 25.24805 l -5e-5,42 H 882 v -6 l 14,7 -14,7 v -6 h -40.75195 l -5e-5,-42 H 818 Z"
     inkscape:connector-curvature="0"
     style="fill:#bebebe;fill-rule:nonzero;stroke:none;stroke-width:1" />
</svg>
