<svg id="Layer_1" data-name="Layer 1" xmlns="http://www.w3.org/2000/svg" viewBox="0 0 1110.56 319.28"><defs><style>.cls-1{font-size:21px;font-family:MyriadPro-Regular, Myriad Pro;}.cls-1,.cls-19{fill:#231f20;}.cls-2{fill:#f2f6fc;}.cls-3{fill:#4272b8;}.cls-19,.cls-4{font-size:14px;}.cls-11,.cls-35,.cls-4,.cls-45,.cls-53{fill:#343434;}.cls-11,.cls-23,.cls-4,.cls-49{font-family:IBMPlexSans, IBM Plex Sans;}.cls-5{letter-spacing:-0.01em;}.cls-6{letter-spacing:-0.01em;}.cls-23,.cls-45,.cls-7{font-size:12px;}.cls-8{letter-spacing:-0.01em;}.cls-9{letter-spacing:0em;}.cls-10{letter-spacing:0.01em;}.cls-11{font-size:13px;}.cls-12{letter-spacing:-0.01em;}.cls-13{letter-spacing:-0.01em;}.cls-14{letter-spacing:0.01em;}.cls-15{letter-spacing:0em;}.cls-16{letter-spacing:-0.01em;}.cls-17{letter-spacing:0em;}.cls-18,.cls-38,.cls-65{fill:none;stroke-miterlimit:10;}.cls-18{stroke:#a3a3a2;stroke-width:2.11px;}.cls-19{font-family:IBMPlexSans-Medium, IBM Plex Sans;}.cls-20{letter-spacing:-0.01em;}.cls-21{letter-spacing:-0.01em;}.cls-22{letter-spacing:0.01em;}.cls-24{letter-spacing:-0.02em;}.cls-25{letter-spacing:-0.01em;}.cls-26{letter-spacing:0em;}.cls-27{letter-spacing:0em;}.cls-28{letter-spacing:-0.01em;}.cls-29{letter-spacing:-0.01em;}.cls-30{letter-spacing:0em;}.cls-31{letter-spacing:-0.01em;}.cls-32{letter-spacing:-0.02em;}.cls-33{letter-spacing:-0.02em;}.cls-34{letter-spacing:-0.01em;}.cls-35{font-size:16px;}.cls-35,.cls-45,.cls-53{font-family:IBMPlexSans-Bold, IBM Plex Sans;}.cls-35,.cls-46{font-weight:700;}.cls-36{letter-spacing:-0.01em;}.cls-37{letter-spacing:0em;}.cls-38{stroke:#4267b1;stroke-width:2px;}.cls-39{fill:#4267b1;}.cls-40{letter-spacing:0em;}.cls-41{letter-spacing:-0.01em;}.cls-42{letter-spacing:0em;}.cls-43{fill:#f9f0f6;}.cls-44{fill:#8d3493;}.cls-47{letter-spacing:-0.01em;}.cls-48{letter-spacing:-0.02em;}.cls-50{letter-spacing:-0.01em;}.cls-51{letter-spacing:0.01em;}.cls-52{letter-spacing:-0.01em;}.cls-53{font-size:11px;}.cls-54{letter-spacing:-0.01em;}.cls-55{letter-spacing:0em;}.cls-56{letter-spacing:-0.01em;}.cls-57{letter-spacing:0.01em;}.cls-58{letter-spacing:0.01em;}.cls-59{letter-spacing:-0.01em;}.cls-60{letter-spacing:-0.01em;}.cls-61{letter-spacing:-0.01em;}.cls-62{letter-spacing:-0.01em;}.cls-63{letter-spacing:-0.01em;}.cls-64{letter-spacing:0em;}.cls-65{stroke:#bb9831;stroke-width:7px;}.cls-66{fill:#bb9831;}</style></defs><title>distributed</title><text class="cls-1" transform="translate(96.33 199.07) rotate(-90)">...</text><rect class="cls-2" x="13.38" y="214.62" width="159.83" height="42.5"/><path class="cls-3" d="M172.21,215.62v40.5H14.38v-40.5H172.21m2-2H12.38v44.5H174.21v-44.5Z"/><text class="cls-4" transform="translate(52.21 231.36)">Hori<tspan class="cls-5" x="26.38" y="0">z</tspan><tspan x="32.73" y="0">on a</tspan><tspan class="cls-6" x="59.3" y="0">g</tspan><tspan x="66.61" y="0">ent</tspan><tspan class="cls-7"><tspan x="-16.18" y="16">(running ed</tspan><tspan class="cls-8" x="45.23" y="16">g</tspan><tspan class="cls-9" x="51.49" y="16">e se</tspan><tspan class="cls-10" x="73.34" y="16">r</tspan><tspan x="77.87" y="16">vi</tspan><tspan class="cls-8" x="86.77" y="16">c</tspan><tspan x="92.73" y="16">e)</tspan></tspan></text><rect class="cls-2" x="13.38" y="134.75" width="159.83" height="42.5"/><path class="cls-3" d="M172.21,135.75v40.5H14.38v-40.5H172.21m2-2H12.38v44.5H174.21v-44.5Z"/><text class="cls-4" transform="translate(52.21 151.5)">Hori<tspan class="cls-5" x="26.38" y="0">z</tspan><tspan x="32.73" y="0">on a</tspan><tspan class="cls-6" x="59.3" y="0">g</tspan><tspan x="66.61" y="0">ent</tspan><tspan class="cls-7"><tspan x="-16.18" y="16">(running ed</tspan><tspan class="cls-8" x="45.23" y="16">g</tspan><tspan class="cls-9" x="51.49" y="16">e se</tspan><tspan class="cls-10" x="73.34" y="16">r</tspan><tspan x="77.87" y="16">vi</tspan><tspan class="cls-8" x="86.77" y="16">c</tspan><tspan x="92.73" y="16">e)</tspan></tspan></text><rect class="cls-2" x="13.38" y="78.84" width="159.83" height="42.5"/><path class="cls-3" d="M172.21,79.84v40.5H14.38V79.84H172.21m2-2H12.38v44.5H174.21V77.84Z"/><text class="cls-11" transform="translate(55.32 95.58)">Hori<tspan class="cls-12" x="24.49" y="0">z</tspan><tspan x="30.39" y="0">on a</tspan><tspan class="cls-13" x="55.07" y="0">g</tspan><tspan x="61.85" y="0">ent</tspan><tspan x="-24.27" y="16">(running ed</tspan><tspan class="cls-13" x="42.25" y="16">g</tspan><tspan x="49.04" y="16">e se</tspan><tspan class="cls-14" x="72.71" y="16">r</tspan><tspan class="cls-15" x="77.61" y="16">vi</tspan><tspan class="cls-16" x="87.25" y="16">c</tspan><tspan class="cls-17" x="93.72" y="16">e)</tspan></text><text class="cls-1" transform="translate(1016.74 196.91) rotate(-90)">...</text><rect class="cls-18" x="218.5" y="57.85" width="670" height="236.42"/><text class="cls-19" transform="translate(241.09 103.51)">Hori<tspan class="cls-20" x="26.96" y="0">z</tspan><tspan x="33.63" y="0">on a</tspan><tspan class="cls-6" x="60.63" y="0">g</tspan><tspan x="68.07" y="0">ent </tspan><tspan x="0" y="16.8">use </tspan><tspan class="cls-6" x="26.12" y="16.8">o</tspan><tspan x="33.94" y="16.8">f </tspan><tspan class="cls-6" x="42" y="16.8">c</tspan><tspan x="49.06" y="16.8">ent</tspan><tspan class="cls-21" x="70.07" y="16.8">r</tspan><tspan x="75.32" y="16.8">al se</tspan><tspan class="cls-22" x="105" y="16.8">r</tspan><tspan x="110.49" y="16.8">vi</tspan><tspan class="cls-6" x="121.36" y="16.8">c</tspan><tspan x="128.42" y="16.8">es:</tspan><tspan class="cls-23"><tspan x="0" y="31.2">- </tspan><tspan class="cls-24" x="7.62" y="31.2">R</tspan><tspan x="15.12" y="31.2">egi</tspan><tspan class="cls-25" x="31.04" y="31.2">s</tspan><tspan class="cls-26" x="36.8" y="31.2">t</tspan><tspan x="40.97" y="31.2">er</tspan><tspan x="0" y="45.6" xml:space="preserve">    -  Sta</tspan><tspan class="cls-27" x="39.37" y="45.6">t</tspan><tspan x="43.54" y="45.6">e depl</tspan><tspan class="cls-28" x="76.73" y="45.6">o</tspan><tspan x="83.39" y="45.6">yment pa</tspan><tspan class="cls-29" x="133.67" y="45.6">t</tspan><tspan class="cls-27" x="137.77" y="45.6">t</tspan><tspan x="141.93" y="45.6">ern</tspan><tspan x="0" y="60" xml:space="preserve">    -  </tspan><tspan class="cls-5" x="21.78" y="60">P</tspan><tspan class="cls-30" x="28.93" y="60">r</tspan><tspan class="cls-31" x="33.28" y="60">o</tspan><tspan x="39.9" y="60">vide public </tspan><tspan class="cls-32" x="101.05" y="60">k</tspan><tspan class="cls-30" x="107.17" y="60">e</tspan><tspan x="113.7" y="60">y</tspan><tspan x="0" y="74.4">- </tspan><tspan class="cls-33" x="7.62" y="74.4">P</tspan><tspan x="14.65" y="74.4">o</tspan><tspan class="cls-28" x="21.37" y="74.4">l</tspan><tspan x="24.58" y="74.4">l </tspan><tspan class="cls-27" x="30.67" y="74.4">f</tspan><tspan x="34.51" y="74.4">or me</tspan><tspan class="cls-8" x="65.53" y="74.4">s</tspan><tspan x="71.3" y="74.4">sa</tspan><tspan class="cls-34" x="83.55" y="74.4">g</tspan><tspan x="89.82" y="74.4">es</tspan><tspan x="0" y="88.8">- A</tspan><tspan class="cls-34" x="15.31" y="88.8">cc</tspan><tspan x="27.24" y="88.8">e</tspan><tspan class="cls-34" x="33.83" y="88.8">p</tspan><tspan x="40.72" y="88.8">t ag</tspan><tspan class="cls-28" x="60.5" y="88.8">r</tspan><tspan x="64.85" y="88.8">eements</tspan><tspan x="0" y="103.2">- Set ag</tspan><tspan class="cls-28" x="40.97" y="103.2">r</tspan><tspan x="45.31" y="103.2">eement </tspan><tspan class="cls-25" x="89.41" y="103.2">s</tspan><tspan x="95.17" y="103.2">tatus</tspan></tspan></text><text class="cls-35" transform="translate(45.96 54.48)">Di<tspan class="cls-36" x="15.73" y="0">s</tspan><tspan x="23.66" y="0">tribu</tspan><tspan class="cls-37" x="60.1" y="0">t</tspan><tspan x="66.16" y="0">ed</tspan></text><rect class="cls-2" x="933.79" y="212.46" width="159.83" height="42.5"/><path class="cls-3" d="M1092.62,213.46V254H934.79v-40.5h157.83m2-2H932.79V256h161.83v-44.5Z"/><text class="cls-4" transform="translate(972.62 229.2)">Hori<tspan class="cls-5" x="26.38" y="0">z</tspan><tspan x="32.73" y="0">on a</tspan><tspan class="cls-6" x="59.3" y="0">g</tspan><tspan x="66.61" y="0">ent</tspan><tspan class="cls-7"><tspan x="-16.18" y="16">(running ed</tspan><tspan class="cls-8" x="45.23" y="16">g</tspan><tspan class="cls-9" x="51.49" y="16">e se</tspan><tspan class="cls-10" x="73.34" y="16">r</tspan><tspan x="77.87" y="16">vi</tspan><tspan class="cls-8" x="86.77" y="16">c</tspan><tspan x="92.73" y="16">e)</tspan></tspan></text><rect class="cls-2" x="933.79" y="132.59" width="159.83" height="42.5"/><path class="cls-3" d="M1092.62,133.59v40.5H934.79v-40.5h157.83m2-2H932.79v44.5h161.83v-44.5Z"/><text class="cls-4" transform="translate(972.62 149.33)">Hori<tspan class="cls-5" x="26.38" y="0">z</tspan><tspan x="32.73" y="0">on a</tspan><tspan class="cls-6" x="59.3" y="0">g</tspan><tspan x="66.61" y="0">ent</tspan><tspan class="cls-7"><tspan x="-16.18" y="16">(running ed</tspan><tspan class="cls-8" x="45.23" y="16">g</tspan><tspan class="cls-9" x="51.49" y="16">e se</tspan><tspan class="cls-10" x="73.34" y="16">r</tspan><tspan x="77.87" y="16">vi</tspan><tspan class="cls-8" x="86.77" y="16">c</tspan><tspan x="92.73" y="16">e)</tspan></tspan></text><rect class="cls-2" x="933.79" y="76.68" width="159.83" height="42.5"/><path class="cls-3" d="M1092.62,77.68v40.5H934.79V77.68h157.83m2-2H932.79v44.5h161.83V75.68Z"/><text class="cls-4" transform="translate(972.62 93.42)">Hori<tspan class="cls-5" x="26.38" y="0">z</tspan><tspan x="32.73" y="0">on a</tspan><tspan class="cls-6" x="59.3" y="0">g</tspan><tspan x="66.61" y="0">ent</tspan><tspan class="cls-7"><tspan x="-16.18" y="16">(running ed</tspan><tspan class="cls-8" x="45.23" y="16">g</tspan><tspan class="cls-9" x="51.49" y="16">e se</tspan><tspan class="cls-10" x="73.34" y="16">r</tspan><tspan x="77.87" y="16">vi</tspan><tspan class="cls-8" x="86.77" y="16">c</tspan><tspan x="92.73" y="16">e)</tspan></tspan></text><line class="cls-38" x1="934" y1="154.47" x2="878.21" y2="154.69"/><polygon class="cls-39" points="879.51 150.2 871.75 154.72 879.54 159.18 879.51 150.2"/><line class="cls-38" x1="932.96" y1="233.59" x2="879.92" y2="233.81"/><polygon class="cls-39" points="881.21 229.31 873.46 233.84 881.25 238.29 881.21 229.31"/><line class="cls-38" x1="932.96" y1="97.68" x2="879.92" y2="97.9"/><polygon class="cls-39" points="881.21 93.41 873.46 97.93 881.25 102.38 881.21 93.41"/><text class="cls-19" transform="translate(702.73 103.8)">Hori<tspan class="cls-20" x="26.96" y="0">z</tspan><tspan x="33.63" y="0">on AgB</tspan><tspan class="cls-40" x="78.96" y="0">o</tspan><tspan x="86.81" y="0">t </tspan><tspan x="0" y="16.8">use </tspan><tspan class="cls-6" x="26.12" y="16.8">o</tspan><tspan x="33.94" y="16.8">f </tspan><tspan class="cls-6" x="42" y="16.8">c</tspan><tspan x="49.06" y="16.8">ent</tspan><tspan class="cls-21" x="70.07" y="16.8">r</tspan><tspan x="75.32" y="16.8">al se</tspan><tspan class="cls-22" x="105" y="16.8">r</tspan><tspan x="110.49" y="16.8">vi</tspan><tspan class="cls-6" x="121.36" y="16.8">c</tspan><tspan x="128.42" y="16.8">es:</tspan><tspan class="cls-23"><tspan x="0" y="31.2">- </tspan><tspan class="cls-24" x="7.62" y="31.2">R</tspan><tspan x="15.12" y="31.2">egi</tspan><tspan class="cls-25" x="31.04" y="31.2">s</tspan><tspan class="cls-26" x="36.8" y="31.2">t</tspan><tspan x="40.97" y="31.2">er</tspan><tspan x="0" y="45.6" xml:space="preserve">    -  </tspan><tspan class="cls-5" x="21.78" y="45.6">P</tspan><tspan class="cls-30" x="28.93" y="45.6">r</tspan><tspan class="cls-31" x="33.28" y="45.6">o</tspan><tspan x="39.9" y="45.6">vide public </tspan><tspan class="cls-32" x="101.05" y="45.6">k</tspan><tspan class="cls-30" x="107.17" y="45.6">e</tspan><tspan x="113.7" y="45.6">y</tspan><tspan x="0" y="60">- Mana</tspan><tspan class="cls-34" x="37" y="60">g</tspan><tspan x="43.26" y="60">e </tspan><tspan class="cls-28" x="52.68" y="60">r</tspan><tspan x="57.02" y="60">egi</tspan><tspan class="cls-41" x="72.95" y="60">s</tspan><tspan class="cls-27" x="78.71" y="60">t</tspan><tspan x="82.87" y="60">e</tspan><tspan class="cls-28" x="89.46" y="60">r</tspan><tspan x="93.8" y="60">ed nodes</tspan><tspan x="0" y="74.4" xml:space="preserve">    -  Sea</tspan><tspan class="cls-28" x="41.75" y="74.4">r</tspan><tspan x="46.09" y="74.4">ch</tspan><tspan x="0" y="88.8" xml:space="preserve">    -  Find nodes </tspan><tspan class="cls-28" x="83.86" y="88.8">r</tspan><tspan x="88.2" y="88.8">egi</tspan><tspan class="cls-25" x="104.12" y="88.8">s</tspan><tspan class="cls-26" x="109.88" y="88.8">t</tspan><tspan x="114.05" y="88.8">e</tspan><tspan class="cls-30" x="120.64" y="88.8">r</tspan><tspan x="124.98" y="88.8">ed </tspan><tspan class="cls-27" x="141.36" y="88.8">f</tspan><tspan class="cls-42" x="145.2" y="88.8">or </tspan><tspan x="0" y="103.2" xml:space="preserve">        depl</tspan><tspan class="cls-28" x="46.43" y="103.2">o</tspan><tspan x="53.09" y="103.2">yment pa</tspan><tspan class="cls-29" x="103.37" y="103.2">t</tspan><tspan class="cls-27" x="107.47" y="103.2">t</tspan><tspan x="111.63" y="103.2">ern</tspan><tspan x="0" y="117.6" xml:space="preserve">    -  Ne</tspan><tspan class="cls-34" x="36.85" y="117.6">g</tspan><tspan x="43.12" y="117.6">otia</tspan><tspan class="cls-26" x="63.46" y="117.6">t</tspan><tspan x="67.62" y="117.6">e ag</tspan><tspan class="cls-30" x="89.78" y="117.6">r</tspan><tspan x="94.13" y="117.6">eements</tspan><tspan x="0" y="132">- Set ag</tspan><tspan class="cls-28" x="40.97" y="132">r</tspan><tspan x="45.31" y="132">eement </tspan><tspan class="cls-25" x="89.41" y="132">s</tspan><tspan x="95.17" y="132">tatus</tspan></tspan></text><rect class="cls-43" x="455.74" y="175.38" width="195.75" height="96.98"/><path class="cls-44" d="M650.49,176.38v95H456.74v-95H650.49m2-2H454.74v99H652.49v-99Z"/><text class="cls-45" transform="translate(464.23 193.13)"><tspan class="cls-46">Hori<tspan class="cls-47" x="23.74" y="0">z</tspan><tspan x="29.81" y="0">on E</tspan><tspan class="cls-48" x="53.84" y="0">x</tspan><tspan x="60.37" y="0">chan</tspan><tspan class="cls-8" x="87.71" y="0">g</tspan><tspan x="94.26" y="0">e</tspan></tspan><tspan class="cls-49"><tspan x="0" y="16" xml:space="preserve">-  </tspan><tspan class="cls-5" x="10.45" y="16">E</tspan><tspan x="17.33" y="16">d</tspan><tspan class="cls-34" x="24.29" y="16">g</tspan><tspan x="30.55" y="16">e node </tspan><tspan class="cls-30" x="69.89" y="16">r</tspan><tspan x="74.23" y="16">egi</tspan><tspan class="cls-41" x="90.15" y="16">s</tspan><tspan x="95.92" y="16">t</tspan><tspan class="cls-27" x="100.13" y="16">r</tspan><tspan x="104.48" y="16">ation</tspan><tspan x="0" y="32" xml:space="preserve">-  Dis</tspan><tspan class="cls-8" x="27.35" y="32">c</tspan><tspan class="cls-50" x="33.31" y="32">ov</tspan><tspan class="cls-9" x="45.74" y="32">e</tspan><tspan class="cls-51" x="52.33" y="32">r</tspan><tspan class="cls-9" x="56.85" y="32">y queries</tspan><tspan x="0" y="48" xml:space="preserve">-  Se</tspan><tspan class="cls-51" x="24.01" y="48">r</tspan><tspan class="cls-9" x="28.54" y="48">vi</tspan><tspan class="cls-8" x="37.44" y="48">c</tspan><tspan x="43.4" y="48">e publication</tspan><tspan x="0" y="64" xml:space="preserve">-  Depl</tspan><tspan class="cls-28" x="35.32" y="64">o</tspan><tspan class="cls-9" x="41.98" y="64">yment pa</tspan><tspan class="cls-52" x="92.25" y="64">t</tspan><tspan class="cls-26" x="96.36" y="64">t</tspan><tspan class="cls-9" x="100.52" y="64">ern publication</tspan></tspan></text><rect class="cls-43" x="455.74" y="78.27" width="195.75" height="88.14"/><path class="cls-44" d="M650.49,79.27v86.14H456.74V79.27H650.49m2-2H454.74v90.14H652.49V77.27Z"/><text class="cls-53" transform="translate(462.97 101.26)"><tspan class="cls-46">Hori<tspan class="cls-54" x="21.76" y="0">z</tspan><tspan x="27.32" y="0">on Swi</tspan><tspan class="cls-55" x="61.94" y="0">t</tspan><tspan x="66.11" y="0">chboa</tspan><tspan class="cls-55" x="97.5" y="0">r</tspan><tspan x="101.9" y="0">d</tspan></tspan><tspan class="cls-49"><tspan x="0" y="16" xml:space="preserve">-  P2P me</tspan><tspan class="cls-56" x="47.75" y="16">s</tspan><tspan x="53.04" y="16">saging se</tspan><tspan class="cls-57" x="98.88" y="16">r</tspan><tspan x="103.02" y="16">vi</tspan><tspan class="cls-56" x="111.19" y="16">c</tspan><tspan x="116.65" y="16">e</tspan><tspan x="0" y="32" xml:space="preserve">-  Enc</tspan><tspan class="cls-58" x="27.77" y="32">r</tspan><tspan x="31.92" y="32">y</tspan><tspan class="cls-56" x="37.41" y="32">p</tspan><tspan class="cls-55" x="43.72" y="32">t</tspan><tspan x="47.54" y="32">ed</tspan><tspan x="0" y="48" xml:space="preserve">-  Incapable </tspan><tspan class="cls-59" x="61.9" y="48">o</tspan><tspan x="67.99" y="48">f e</tspan><tspan class="cls-60" x="80.19" y="48">av</tspan><tspan x="91.3" y="48">esd</tspan><tspan class="cls-61" x="109.07" y="48">r</tspan><tspan x="113.06" y="48">opping</tspan></tspan></text><text class="cls-35" transform="translate(958.51 50.13)">Di<tspan class="cls-36" x="15.73" y="0">s</tspan><tspan x="23.66" y="0">tribu</tspan><tspan class="cls-37" x="60.1" y="0">t</tspan><tspan x="66.16" y="0">ed</tspan></text><text class="cls-35" transform="translate(514.17 50.13)">Cent<tspan class="cls-62" x="35.07" y="0">r</tspan><tspan x="41.31" y="0">ali</tspan><tspan class="cls-63" x="59.84" y="0">z</tspan><tspan class="cls-64" x="67.94" y="0">ed</tspan></text><line class="cls-65" x1="695.46" y1="171.63" x2="674.09" y2="171.63"/><polygon class="cls-66" points="676.13 164.65 664.04 171.63 676.13 178.61 676.13 164.65"/><line class="cls-65" x1="409.32" y1="171.63" x2="430.7" y2="171.63"/><polygon class="cls-66" points="428.65 178.61 440.74 171.63 428.65 164.65 428.65 178.61"/><line class="cls-38" x1="227.56" y1="154.49" x2="171.77" y2="154.72"/><polygon class="cls-39" points="226.23 150.01 234.01 154.47 226.26 158.99 226.23 150.01"/><line class="cls-38" x1="225.95" y1="236.56" x2="172.91" y2="236.78"/><polygon class="cls-39" points="224.62 232.07 232.41 236.53 224.66 241.05 224.62 232.07"/><line class="cls-38" x1="225.95" y1="99.99" x2="172.91" y2="100.21"/><polygon class="cls-39" points="224.62 95.51 232.41 99.96 224.66 104.48 224.62 95.51"/></svg>
