<?xml version="1.0" encoding="UTF-8" standalone="no"?>
<svg
   xmlns:dc="http://purl.org/dc/elements/1.1/"
   xmlns:cc="http://creativecommons.org/ns#"
   xmlns:rdf="http://www.w3.org/1999/02/22-rdf-syntax-ns#"
   xmlns:svg="http://www.w3.org/2000/svg"
   xmlns="http://www.w3.org/2000/svg"
   xmlns:sodipodi="http://sodipodi.sourceforge.net/DTD/sodipodi-0.dtd"
   xmlns:inkscape="http://www.inkscape.org/namespaces/inkscape"
   inkscape:version="1.0 (4035a4fb49, 2020-05-01)"
   sodipodi:docname="01_IEAM_overview.svg"
   xml:space="preserve"
   style="enable-background:new 0 0 917 514;"
   viewBox="0 0 917 514"
   y="0px"
   x="0px"
   id="Layer_1"
   version="1.0"><metadata
   id="metadata194"><rdf:RDF><cc:Work
       rdf:about=""><dc:format>image/svg+xml</dc:format><dc:type
         rdf:resource="http://purl.org/dc/dcmitype/StillImage" /></cc:Work></rdf:RDF></metadata><defs
   id="defs192" /><sodipodi:namedview
   inkscape:current-layer="Layer_1"
   inkscape:window-maximized="1"
   inkscape:window-y="52"
   inkscape:window-x="-8"
   inkscape:cy="226.26314"
   inkscape:cx="455.13466"
   inkscape:zoom="1.233463"
   showgrid="false"
   id="namedview190"
   inkscape:window-height="801"
   inkscape:window-width="1536"
   inkscape:pageshadow="2"
   inkscape:pageopacity="0"
   guidetolerance="10"
   gridtolerance="10"
   objecttolerance="10"
   borderopacity="1"
   bordercolor="#666666"
   pagecolor="#ffffff" />
<style
   id="style2"
   type="text/css">
	.st0{fill-rule:evenodd;clip-rule:evenodd;fill:#E3F6FF;}
	.st1{fill-rule:evenodd;clip-rule:evenodd;fill:#0F62FE;}
	.st2{fill-rule:evenodd;clip-rule:evenodd;fill:#408BFC;}
	.st3{fill-rule:evenodd;clip-rule:evenodd;fill:#FFFFFF;}
	.st4{fill-rule:evenodd;clip-rule:evenodd;fill:#009C98;}
	.st5{fill-rule:evenodd;clip-rule:evenodd;fill:#051B75;}
	.st6{fill:#161616;}
	.st7{font-family:'IBMPlexSans';}
	.st8{font-size:14px;}
	.st9{fill:none;stroke:#BEBEBE;stroke-width:2;stroke-linecap:square;}
	.st10{fill:#BEBEBE;}
	.st11{fill-rule:evenodd;clip-rule:evenodd;fill:#F4F4F4;}
	.st12{fill-rule:evenodd;clip-rule:evenodd;fill:none;}
	.st13{fill:#F4F4F4;}
	.st14{font-family:'IBMPlexSans-Medium';}
	.st15{font-size:16px;}
	.st16{font-size:12px;}
	.st17{fill:none;}
</style>
<title
   id="title4">01_IEAM_overview</title>
<g
   transform="translate(21.000000, 0.000000)"
   id="Group-2">
	<circle
   r="24"
   cy="205"
   cx="24"
   class="st0"
   id="Oval-Copy-3" />
	<g
   transform="translate(8.000000, 8.000000)"
   id="icon_x2F_policy-admin">
		<path
   d="M11,200c2.8,0,5,2.2,5,5v6h-2v-6c0-1.7-1.3-3-3-3H7c-1.7,0-3,1.3-3,3v6H2v-6c0-2.8,2.2-5,5-5H11z     M9,188c2.8,0,5,2.2,5,5s-2.2,5-5,5s-5-2.2-5-5S6.2,188,9,188z M27.6,188l1.4,1.4l-7.1,7.1l-3.9-3.9l1.4-1.4l2.5,2.5L27.6,188z     M9,190c-1.7,0-3,1.3-3,3c0,1.7,1.3,3,3,3s3-1.3,3-3S10.7,190,9,190z"
   class="st1"
   id="Shape" />
	</g>
</g>
<g
   transform="translate(21.000000, 0.000000)"
   id="Group-2_1_">
	<circle
   r="24"
   cy="463"
   cx="331"
   class="st0"
   id="Oval-Copy-3_1_" />
	<g
   transform="translate(8.000000, 8.000000)"
   id="icon_x2F_node-owner">
		<g
   transform="translate(2.000000, 4.000000)"
   id="Group-23">
			<path
   d="M316,454c2.8,0,5,2.2,5,5v6h-2v-6c0-1.7-1.3-3-3-3h-4c-1.7,0-3,1.3-3,3v6h-2v-6     c0-2.8,2.2-5,5-5H316z M314,442c2.8,0,5,2.2,5,5s-2.2,5-5,5s-5-2.2-5-5S311.2,442,314,442z M327,450v2h-2v-2H327z M332,450v2h-2     v-2H332z M314,444c-1.7,0-3,1.3-3,3c0,1.7,1.3,3,3,3s3-1.3,3-3S315.7,444,314,444z M335,447v2h-2v-2H335z M324,447v2h-2v-2H324z      M332,442v7h-7v-7H332z M330,444h-3v3h3V444z M335,442v2h-2v-2H335z M324,442v2h-2v-2H324z M327,439v2h-2v-2H327z M332,439v2h-2     v-2H332z"
   class="st1"
   id="Shape_1_" />
		</g>
	</g>
</g>
<g
   transform="translate(27.000000, 0.000000)"
   id="Group-2_2_">
	<circle
   r="24"
   cy="48"
   cx="226"
   class="st0"
   id="Oval-Copy-3_2_" />
	<g
   transform="translate(8.000000, 8.000000)"
   id="icon_x2F_cloud-installer">
		<path
   d="M213,43c2.8,0,5,2.2,5,5v6h-2v-6c0-1.7-1.3-3-3-3h-4c-1.7,0-3,1.3-3,3v6h-2v-6c0-2.8,2.2-5,5-5    H213z M211,31c2.8,0,5,2.2,5,5s-2.2,5-5,5s-5-2.2-5-5S208.2,31,211,31z M226,28.9c2.1,0,3.9,1.4,4.5,3.4l0.1,0.2l0,0.1l0,0    c1.3,0.5,2.2,1.7,2.3,3.1l0,0.2l0,0.2c0,2.1-1.6,3.7-3.7,3.9l-0.2,0h-6.3c-2.1,0-3.9-1.7-3.9-3.9c0-1.5,0.9-2.8,2.2-3.5l0.2-0.1    l0-0.1c0.5-1.9,2.1-3.4,4.1-3.6l0.2,0L226,28.9z M211,33c-1.7,0-3,1.3-3,3c0,1.7,1.3,3,3,3s3-1.3,3-3S212.7,33,211,33z M226,30.9    c-1.4,0-2.5,1-2.7,2.4l0,0.2l0,0.8l-0.8,0.2c-0.9,0.2-1.5,0.9-1.5,1.8c0,1,0.8,1.8,1.7,1.9l0.1,0h6.3c1,0,1.9-0.8,1.9-1.9    c0-0.8-0.6-1.6-1.3-1.8l-0.1,0l-0.8-0.2l0-0.8C228.6,32,227.4,30.9,226,30.9z"
   class="st1"
   id="Shape_2_" />
	</g>
</g>
<g
   transform="translate(47.000000, 0.000000)"
   id="Group-2_3_">
	<circle
   r="24"
   cy="48"
   cx="485"
   class="st0"
   id="Oval-Copy-3_3_" />
	<g
   transform="translate(8.000000, 8.000000)"
   id="icon_x2F_developer">
		<path
   d="M472,43c2.8,0,5,2.2,5,5v6h-2v-6c0-1.7-1.3-3-3-3h-4c-1.7,0-3,1.3-3,3v6h-2v-6c0-2.8,2.2-5,5-5    H472z M470,31c2.8,0,5,2.2,5,5s-2.2,5-5,5s-5-2.2-5-5S467.2,31,470,31z M485.1,29.9l1.8,0.4l-2.4,10.4l-1.8-0.4L485.1,29.9z     M479.9,31.6l1.4,1.2l-2.1,2.6l2.1,2.6l-1.4,1.2l-3.1-3.7L479.9,31.6z M489.7,31.6l3.1,3.7l-3.1,3.7l-1.4-1.2l2.1-2.6l-2.1-2.6    L489.7,31.6z M470,33c-1.7,0-3,1.3-3,3c0,1.7,1.3,3,3,3s3-1.3,3-3S471.7,33,470,33z"
   class="st1"
   id="Shape_3_" />
	</g>
</g>
<rect
   height="157"
   width="304"
   class="st2"
   y="323"
   x="453"
   id="Rectangle-Copy" />
<rect
   height="81"
   width="80"
   class="st3"
   y="383"
   x="469"
   id="Rectangle-Copy-9" />
<rect
   height="81"
   width="80"
   class="st3"
   y="383"
   x="661"
   id="Rectangle-Copy-10" />
<rect
   height="155"
   width="208"
   class="st4"
   y="127"
   x="709"
   id="Rectangle-Copy-11" />
<rect
   height="155"
   width="439.2"
   class="st5"
   y="127"
   x="230.2"
   id="Rectangle-Copy-12" />
<text
   style="-inkscape-font-specification:Arial;font-family:Arial;font-weight:normal;font-style:normal;font-stretch:normal;font-variant:normal;"
   id="text28"
   class="st6 st7 st8"
   transform="matrix(1 0 0 1 389.1527 14)"> </text>
<path
   d="M387.3,464.5c0,0,22.9,0,65.7,0C410.2,464.5,387.3,464.5,387.3,464.5z"
   class="st9"
   id="Line-3-Copy" />
<g
   transform="translate(680.000000, 87.500000) scale(1, -1) translate(-680.000000, -87.500000) translate(565.000000, 48.000000)"
   id="Group-4-Copy">
	<path
   d="M230,0.5l7,14h-6V80H-1v-2h230V14.5h-6L230,0.5z"
   class="st10"
   id="Path-2-Copy-5" />
</g>
<path
   d="M626,48.5v64h6l-7,14l-7-14h6v-64H626z"
   class="st10"
   id="Line-7" />
<path
   d="M647,417l14,7l-14,7l0-6h-98v-2h98L647,417z"
   class="st10"
   id="Path-2-Copy-11" />
<g
   transform="translate(685.000000, 339.000000)"
   id="icon_x2F_device_x2F_16">
	<path
   d="M9,1c0.6,0,1,0.4,1,1c0,0.5-0.4,0.9-0.8,1L8.7,4H12c1.1,0,2,0.9,2,2v5c0,1.1-0.9,2-2,2H4   c-1.1,0-2-0.9-2-2V6c0-1.1,0.9-2,2-2h3.7l0.6-1.4C8.1,2.5,8,2.3,8,2.1L8,2C8,1.4,8.4,1,9,1z M12,5H4C3.5,5,3.1,5.4,3,5.9L3,6v5   c0,0.5,0.4,0.9,0.9,1L4,12h8c0.5,0,0.9-0.4,1-0.9l0-0.1V6c0-0.5-0.4-0.9-0.9-1L12,5z M10.5,10c0.3,0,0.5,0.2,0.5,0.5   c0,0.3-0.2,0.5-0.5,0.5h-5C5.2,11,5,10.8,5,10.5C5,10.2,5.2,10,5.5,10H10.5z M5.5,6C6.3,6,7,6.7,7,7.5C7,8.3,6.3,9,5.5,9   C4.7,9,4,8.3,4,7.5C4,6.7,4.7,6,5.5,6z M10.5,6C11.3,6,12,6.7,12,7.5C12,8.3,11.3,9,10.5,9C9.7,9,9,8.3,9,7.5C9,6.7,9.7,6,10.5,6z    M5.5,7C5.2,7,5,7.2,5,7.5C5,7.8,5.2,8,5.5,8C5.8,8,6,7.8,6,7.5C6,7.2,5.8,7,5.5,7z M10.5,7C10.2,7,10,7.2,10,7.5   C10,7.8,10.2,8,10.5,8C10.8,8,11,7.8,11,7.5C11,7.2,10.8,7,10.5,7z"
   class="st11"
   id="Shape_4_" />
</g>
<g
   transform="translate(606.000000, 339.000000)"
   id="icon_x2F_cluster_x2F_16">
	<path
   d="M8,3.5c0.8,0,1.5-0.7,1.5-1.5c0-0.8-0.7-1.5-1.5-1.5C7.2,0.5,6.5,1.2,6.5,2   C6.5,2.8,7.2,3.5,8,3.5z M8,1.5c0.3,0,0.5,0.2,0.5,0.5c0,0.3-0.2,0.5-0.5,0.5C7.7,2.5,7.5,2.3,7.5,2C7.5,1.7,7.7,1.5,8,1.5z    M12.8,5.9c0.8,0,1.5-0.7,1.5-1.5c0-0.8-0.7-1.5-1.5-1.5c-0.8,0-1.5,0.7-1.5,1.5C11.3,5.2,12,5.9,12.8,5.9z M12.8,3.9   c0.3,0,0.5,0.2,0.5,0.5c0,0.3-0.2,0.5-0.5,0.5c-0.3,0-0.5-0.2-0.5-0.5C12.3,4.1,12.5,3.9,12.8,3.9L12.8,3.9z M2.2,8.1   c-0.8,0-1.5,0.7-1.5,1.5c0,0.8,0.7,1.5,1.5,1.5c0.8,0,1.5-0.7,1.5-1.5C3.7,8.8,3.1,8.1,2.2,8.1z M2.2,10.1c-0.3,0-0.5-0.2-0.5-0.5   c0-0.3,0.2-0.5,0.5-0.5c0.3,0,0.5,0.2,0.5,0.5C2.7,9.9,2.5,10.1,2.2,10.1z M3.2,5.9c0.8,0,1.5-0.7,1.5-1.5c0-0.8-0.7-1.5-1.5-1.5   c-0.8,0-1.5,0.7-1.5,1.5C1.7,5.2,2.4,5.9,3.2,5.9L3.2,5.9z M3.2,3.9c0.3,0,0.5,0.2,0.5,0.5c0,0.3-0.2,0.5-0.5,0.5   C3,4.9,2.7,4.7,2.7,4.4C2.7,4.1,2.9,3.9,3.2,3.9L3.2,3.9z M13.8,8.1c-0.8,0-1.5,0.7-1.5,1.5c0,0.8,0.7,1.5,1.5,1.5   c0.8,0,1.5-0.7,1.5-1.5C15.3,8.8,14.6,8.1,13.8,8.1z M13.8,10.1c-0.3,0-0.5-0.2-0.5-0.5c0-0.3,0.2-0.5,0.5-0.5   c0.3,0,0.5,0.2,0.5,0.5C14.3,9.9,14,10.1,13.8,10.1z M10.4,12c-0.8,0-1.5,0.7-1.5,1.5c0,0.8,0.7,1.5,1.5,1.5c0.8,0,1.5-0.7,1.5-1.5   C11.9,12.7,11.3,12,10.4,12L10.4,12z M10.4,14c-0.3,0-0.5-0.2-0.5-0.5c0-0.3,0.2-0.5,0.5-0.5c0.3,0,0.5,0.2,0.5,0.5   c0,0.1-0.1,0.3-0.1,0.4C10.7,13.9,10.6,14,10.4,14z M5.6,12c-0.8,0-1.5,0.7-1.5,1.5c0,0.8,0.7,1.5,1.5,1.5c0.8,0,1.5-0.7,1.5-1.5   C7.1,12.7,6.4,12,5.6,12L5.6,12z M5.6,14c-0.3,0-0.5-0.2-0.5-0.5c0-0.3,0.2-0.5,0.5-0.5c0.3,0,0.5,0.2,0.5,0.5   C6.1,13.8,5.8,14,5.6,14z M11,8c0-1.7-1.3-3-3-3C6.3,5,5,6.3,5,8c0,1.7,1.3,3,3,3C9.7,11,11,9.7,11,8z M8,10c-1.1,0-2-0.9-2-2   c0-1.1,0.9-2,2-2c1.1,0,2,0.9,2,2c0,0.5-0.2,1-0.6,1.4C9,9.8,8.5,10,8,10z"
   class="st11"
   id="Shape_5_" />
</g>
<g
   id="g44">
	<rect
   height="81"
   width="70.5"
   class="st3"
   y="185"
   x="499"
   id="Rectangle-Copy-16" />
	<rect
   height="81"
   width="70.5"
   class="st3"
   y="185"
   x="583.5"
   id="Rectangle-Copy-16_4_" />
	<rect
   height="81"
   width="70.5"
   class="st3"
   y="185"
   x="414.5"
   id="Rectangle-Copy-16_1_" />
	<rect
   height="81"
   width="70.5"
   class="st3"
   y="185"
   x="330"
   id="Rectangle-Copy-16_2_" />
	<rect
   height="81"
   width="70.5"
   class="st3"
   y="185"
   x="245.5"
   id="Rectangle-Copy-16_3_" />
</g>
<path
   d="M215.8,199.5l14,7l-14,7l0-6L83,208l-1,0l0-2l1,0l132.8-0.5L215.8,199.5z"
   class="st10"
   id="Line-Copy" />
<path
   d="M409.2,282v141H455v-6l14,7l-14,7v-6h-47.8V282H409.2z"
   class="st10"
   id="Path-4" />
<path
   d="M277,282l7,14h-6v167.5h37.5v2H276V296h-6L277,282z"
   class="st10"
   id="Path-5" />
<path
   d="M441,47v66h6l-7,14l-7-14h6V49H289.5v-2H441z"
   class="st10"
   id="Line-6" />
<path
   d="M796,282v143h-41l0,6l-14-7l14-7l0,6h39l0-141H796z"
   class="st10"
   id="Path-3" />
<rect
   id="rect51"
   height="37.3"
   width="130.8"
   class="st12"
   y="3.7"
   x="299.5" />
<text
   y="16.0313"
   x="320.73209"
   style="font-style:normal;font-variant:normal;font-weight:normal;font-stretch:normal;font-family:Arial;-inkscape-font-specification:Arial"
   id="text57"><tspan
     style="font-style:normal;font-variant:normal;font-weight:normal;font-stretch:normal;font-family:Arial;-inkscape-font-specification:Arial"
     id="tspan53"
     class="st6 st7 st8"
     y="16.0313"
     x="320.73209">Installe le</tspan><tspan
     style="font-style:normal;font-variant:normal;font-weight:normal;font-stretch:normal;font-family:Arial;-inkscape-font-specification:Arial"
     id="tspan55"
     class="st6 st7 st8"
     y="36.0313"
     x="288.73209">concentrateur de gestion</tspan></text>
<rect
   id="rect59"
   height="37.3"
   width="133.6"
   class="st12"
   y="163.3"
   x="82" />
<text
   style="-inkscape-font-specification:Arial;font-family:Arial;font-weight:normal;font-style:normal;font-stretch:normal;font-variant:normal;"
   id="text65"
   transform="matrix(1 0 0 1 120.2609 173.6952)"><tspan
     style="-inkscape-font-specification:Arial;font-family:Arial;font-weight:normal;font-style:normal;font-stretch:normal;font-variant:normal;"
     id="tspan61"
     class="st6 st7 st8"
     y="0"
     x="0">Gère le</tspan><tspan
     style="-inkscape-font-specification:Arial;font-family:Arial;font-weight:normal;font-style:normal;font-stretch:normal;font-variant:normal;"
     id="tspan63"
     class="st6 st7 st8"
     y="20"
     x="-9.8">déploiement</tspan></text>
<rect
   id="rect67"
   height="15.6"
   width="70.5"
   class="st12"
   y="218.3"
   x="245.5" />
<text
   style="-inkscape-font-specification:Arial;font-family:Arial;font-weight:normal;font-style:normal;font-stretch:normal;font-variant:normal;"
   id="text69"
   class="st6 st7 st8"
   transform="matrix(1 0 0 1 261.7957 228.6866)">Agbot</text>
<rect
   id="rect71"
   height="15.6"
   width="70.4"
   class="st12"
   y="218.3"
   x="330.1" />
<text
   style="-inkscape-font-specification:Arial;font-family:Arial;font-weight:normal;font-style:normal;font-stretch:normal;font-variant:normal;"
   id="text73"
   class="st6 st7 st8"
   transform="matrix(1 0 0 1 334.3782 228.6866)">Exchange</text>
<rect
   id="rect75"
   height="15.6"
   width="70.5"
   class="st12"
   y="218.3"
   x="414.5" />
<text
   style="-inkscape-font-specification:Arial;font-family:Arial;font-weight:normal;font-style:normal;font-stretch:normal;font-variant:normal;"
   id="text77"
   class="st6 st7 st8"
   transform="matrix(1 0 0 1 442.1425 228.6866)">UI</text>
<rect
   id="rect79"
   height="15.6"
   width="70.5"
   class="st12"
   y="218.3"
   x="499" />
<text
   style="-inkscape-font-specification:Arial;font-family:Arial;font-weight:normal;font-style:normal;font-stretch:normal;font-variant:normal;"
   id="text81"
   class="st6 st7 st8"
   transform="matrix(1 0 0 1 518.6974 228.6866)">MMS</text>
<rect
   id="rect83"
   height="15.6"
   width="70.6"
   class="st12"
   y="218.3"
   x="583.5" />
<text
   style="-inkscape-font-specification:Arial;font-family:Arial;font-weight:normal;font-style:normal;font-stretch:normal;font-variant:normal;"
   id="text85"
   class="st6 st7 st8"
   transform="matrix(1 0 0 1 604.9148 228.6866)">SDO</text>
<rect
   id="rect87"
   height="15.6"
   width="143.7"
   class="st12"
   y="82.6"
   x="459.5" />
<text
   y="92.977699"
   x="472.68951"
   style="font-style:normal;font-variant:normal;font-weight:normal;font-stretch:normal;font-family:Arial;-inkscape-font-specification:Arial"
   id="text89"
   class="st6 st7 st8">Editeur de logiciels</text>
<rect
   id="rect91"
   height="15.6"
   width="143.7"
   class="st12"
   y="82.6"
   x="180.5" />
<text
   y="92.933701"
   x="191.79601"
   style="font-style:normal;font-variant:normal;font-weight:normal;font-stretch:normal;font-size:14px;font-family:Arial;-inkscape-font-specification:'Arial, Normal';font-variant-ligatures:normal;font-variant-caps:normal;font-variant-numeric:normal;font-variant-east-asian:normal;fill:#161616"
   id="text93"
   class="st6 st7 st8"><tspan
     y="92.933701"
     x="191.79601"
     id="tspan196"
     sodipodi:role="line">Installateur du cloud</tspan></text>
<rect
   id="rect95"
   height="41.6"
   width="97.1"
   class="st12"
   y="343.4"
   x="807" />
<text
   style="-inkscape-font-specification:Arial;font-family:Arial;font-weight:normal;font-style:normal;font-stretch:normal;font-variant:normal;"
   id="text101"
   transform="matrix(1 0 0 1 807.0001 353.7596)"><tspan
     style="-inkscape-font-specification:Arial;font-family:Arial;font-weight:normal;font-style:normal;font-stretch:normal;font-variant:normal;"
     id="tspan97"
     class="st6 st7 st8"
     y="0"
     x="0">Extrait les</tspan><tspan
     style="-inkscape-font-specification:Arial;font-family:Arial;font-weight:normal;font-style:normal;font-stretch:normal;font-variant:normal;"
     id="tspan99"
     class="st6 st7 st8"
     y="20"
     x="0">conteneurs</tspan></text>
<rect
   id="rect103"
   height="15.6"
   width="232"
   class="st12"
   y="23.7"
   x="563.8" />
<text
   style="-inkscape-font-specification:Arial;font-family:Arial;font-weight:normal;font-style:normal;font-stretch:normal;font-variant:normal;"
   id="text105"
   class="st6 st7 st8"
   transform="matrix(1 0 0 1 578.9702 34.0099)">Développe et publie le service</text>
<rect
   id="rect107"
   height="15.6"
   width="162.3"
   class="st12"
   y="144.9"
   x="745" />
<text
   style="-inkscape-font-specification:Arial;font-family:Arial;font-weight:normal;font-style:normal;font-stretch:normal;font-variant:normal;"
   id="text109"
   class="st13 st14 st15"
   transform="matrix(1 0 0 1 744.9996 156.7782)">Registre de conteneur</text>
<rect
   id="rect111"
   height="15.6"
   width="236.1"
   class="st12"
   y="147.1"
   x="245.8" />
<text
   style="-inkscape-font-specification:Arial;font-family:Arial;font-weight:normal;font-style:normal;font-stretch:normal;font-variant:normal;"
   id="text113"
   class="st13 st14 st15"
   transform="matrix(1 0 0 1 245.8172 158.9718)">Concentrateur de gestion IEAM</text>
<rect
   id="rect115"
   height="15.6"
   width="95"
   class="st12"
   y="343.2"
   x="469" />
<text
   y="351.05359"
   x="457.00021"
   style="font-style:normal;font-variant:normal;font-weight:normal;font-stretch:normal;font-family:Arial;-inkscape-font-specification:Arial"
   id="text117"
   class="st13 st14 st15">Noeud de périphérie</text>
<rect
   id="rect119"
   height="87.4"
   width="90.6"
   class="st12"
   y="346.6"
   x="174" />
<text
   y="356.97699"
   x="268.22629"
   style="font-style:normal;font-variant:normal;font-weight:normal;font-stretch:normal;font-size:14px;font-family:Arial;-inkscape-font-specification:'Arial, Normal';font-variant-ligatures:normal;font-variant-caps:normal;font-variant-numeric:normal;font-variant-east-asian:normal;text-align:end;text-anchor:end"
   id="text129"><tspan
     y="356.97699"
     x="268.22629"
     id="tspan198"
     sodipodi:role="line">Enregistre le</tspan><tspan
     y="374.47699"
     x="268.22629"
     id="tspan200"
     sodipodi:role="line">noeud auprès</tspan><tspan
     y="391.97699"
     x="268.22629"
     id="tspan202"
     sodipodi:role="line">du concentrateur</tspan><tspan
     y="409.47699"
     x="268.22629"
     id="tspan204"
     sodipodi:role="line">de gestion</tspan></text>
<rect
   id="rect131"
   height="56.2"
   width="90.6"
   class="st12"
   y="323.4"
   x="305.1" />
<text
   y="333.7164"
   x="399.71735"
   style="font-style:normal;font-variant:normal;font-weight:normal;font-stretch:normal;font-size:14px;font-family:Arial;-inkscape-font-specification:'Arial, Normal';font-variant-ligatures:normal;font-variant-caps:normal;font-variant-numeric:normal;font-variant-east-asian:normal;text-align:end;text-anchor:end"
   id="text139"><tspan
     y="333.7164"
     x="399.71735"
     id="tspan206"
     sodipodi:role="line">Récupère des</tspan><tspan
     y="351.2164"
     x="399.71735"
     id="tspan208"
     sodipodi:role="line">instructions de</tspan><tspan
     y="368.7164"
     x="399.71735"
     id="tspan210"
     sodipodi:role="line">déploiement du</tspan><tspan
     y="386.2164"
     x="399.71735"
     id="tspan212"
     sodipodi:role="line">service</tspan></text>
<rect
   id="rect141"
   height="43.6"
   width="64"
   class="st12"
   y="407.6"
   x="477" />
<text
   y="417.98141"
   x="509.50601"
   style="font-style:normal;font-variant:normal;font-weight:normal;font-stretch:normal;font-size:14px;font-family:Arial;-inkscape-font-specification:'Arial, Normal';font-variant-ligatures:normal;font-variant-caps:normal;font-variant-numeric:normal;font-variant-east-asian:normal;text-align:center;text-anchor:middle"
   id="text147"><tspan
     y="417.98141"
     x="509.50601"
     id="tspan218"
     sodipodi:role="line">Agent de</tspan><tspan
     y="435.48141"
     x="509.50601"
     id="tspan220"
     sodipodi:role="line">périphérie</tspan></text>
<rect
   id="rect149"
   height="43.6"
   width="64"
   class="st12"
   y="407.6"
   x="669" />
<text
   y="417.98141"
   x="701.46252"
   style="font-style:normal;font-variant:normal;font-weight:normal;font-stretch:normal;font-size:14px;font-family:Arial;-inkscape-font-specification:'Arial, Normal';font-variant-ligatures:normal;font-variant-caps:normal;font-variant-numeric:normal;font-variant-east-asian:normal;text-align:center;text-anchor:middle"
   id="text155"><tspan
     y="417.98141"
     x="701.46252"
     id="tspan214"
     sodipodi:role="line">Service de</tspan><tspan
     y="435.48141"
     x="701.46252"
     id="tspan216"
     sodipodi:role="line">périphérie</tspan></text>
<rect
   id="rect157"
   height="14.7"
   width="98"
   class="st12"
   y="399.6"
   x="549" />
<text
   style="-inkscape-font-specification:Arial;font-family:Arial;font-weight:normal;font-style:normal;font-stretch:normal;font-variant:normal;"
   id="text159"
   class="st13 st7 st8"
   transform="matrix(1 0 0 1 581.9281 409.9584)">exécute</text>
<rect
   id="rect161"
   height="14.7"
   width="58.9"
   class="st12"
   y="342.2"
   x="625" />
<text
   style="-inkscape-font-specification:Arial;font-family:Arial;font-weight:normal;font-style:normal;font-stretch:normal;font-variant:normal;"
   id="text163"
   class="st13 st7 st16"
   transform="matrix(1 0 0 1 624.9999 351.0321)">cluster ou</text>
<rect
   id="rect165"
   height="14.7"
   width="44.5"
   class="st12"
   y="342.2"
   x="703" />
<text
   style="-inkscape-font-specification:Arial;font-family:Arial;font-weight:normal;font-style:normal;font-stretch:normal;font-variant:normal;"
   id="text167"
   class="st13 st7 st16"
   transform="matrix(1 0 0 1 702.9999 351.0321)">dispositif</text>
<rect
   id="rect169"
   height="15.5"
   width="90.6"
   class="st12"
   y="497.6"
   x="306.1" />
<text
   y="507.99649"
   x="288.60361"
   style="font-style:normal;font-variant:normal;font-weight:normal;font-stretch:normal;font-family:Arial;-inkscape-font-specification:Arial"
   id="text171"
   class="st6 st7 st8">Propriétaire du noeud</text>
<rect
   id="rect173"
   height="15.5"
   width="94.5"
   class="st12"
   y="239.6"
   x="-2.8" />
<text
   y="249.9286"
   x="2.2867002"
   style="font-style:normal;font-variant:normal;font-weight:normal;font-stretch:normal;font-family:Arial;-inkscape-font-specification:Arial"
   id="text175"
   class="st6 st7 st8">Administrateur</text>
<g
   id="g186">
	<path
   id="path177"
   d="M737,144.5h-8c-0.6,0-1,0.4-1,1v11c0,0.6,0.4,1,1,1h8c0.6,0,1-0.4,1-1v-11C738,145,737.6,144.5,737,144.5z    M737,145.5v3h-8v-3H737z M729,152.5v-3h8v3H729z M729,156.5v-3h8v3H729z"
   class="st13" />
	<circle
   id="circle179"
   r="0.5"
   cy="147"
   cx="730.5"
   class="st13" />
	<circle
   id="circle181"
   r="0.5"
   cy="151"
   cx="730.5"
   class="st13" />
	<circle
   id="circle183"
   r="0.5"
   cy="155"
   cx="730.5"
   class="st13" />
	<rect
   height="16"
   width="16"
   class="st17"
   y="143"
   x="725"
   id="_x3C_Transparent_Rectangle_x3E__616_" />
</g>
<g
   id="Layer_2">
</g>
</svg>
