<?xml version="1.0" encoding="UTF-8" standalone="no"?>
<!-- Generator: Adobe Illustrator 24.0.3, SVG Export Plug-In . SVG Version: 6.00 Build 0)  -->

<svg
   xmlns:dc="http://purl.org/dc/elements/1.1/"
   xmlns:cc="http://creativecommons.org/ns#"
   xmlns:rdf="http://www.w3.org/1999/02/22-rdf-syntax-ns#"
   xmlns:svg="http://www.w3.org/2000/svg"
   xmlns="http://www.w3.org/2000/svg"
   xmlns:sodipodi="http://sodipodi.sourceforge.net/DTD/sodipodi-0.dtd"
   xmlns:inkscape="http://www.inkscape.org/namespaces/inkscape"
   version="1.1"
   id="Layer_1"
   x="0px"
   y="0px"
   viewBox="0 0 903 817"
   style="enable-background:new 0 0 903 817;"
   xml:space="preserve"
   sodipodi:docname="02b_Updating_AI_model_using_MMS.svg"
   inkscape:version="0.92.4 (5da689c313, 2019-01-14)"><metadata
   id="metadata176"><rdf:RDF><cc:Work
       rdf:about=""><dc:format>image/svg+xml</dc:format><dc:type
         rdf:resource="http://purl.org/dc/dcmitype/StillImage" /></cc:Work></rdf:RDF></metadata><defs
   id="defs174" /><sodipodi:namedview
   pagecolor="#ffffff"
   bordercolor="#666666"
   borderopacity="1"
   objecttolerance="10"
   gridtolerance="10"
   guidetolerance="10"
   inkscape:pageopacity="0"
   inkscape:pageshadow="2"
   inkscape:window-width="1680"
   inkscape:window-height="987"
   id="namedview172"
   showgrid="false"
   inkscape:zoom="0.81702424"
   inkscape:cx="428.83484"
   inkscape:cy="466.86476"
   inkscape:window-x="-8"
   inkscape:window-y="-8"
   inkscape:window-maximized="1"
   inkscape:current-layer="Layer_1" />
<style
   type="text/css"
   id="style2">
	.st0{fill:none;stroke:#00BAB6;stroke-width:2;stroke-dasharray:7;}
	.st1{fill-rule:evenodd;clip-rule:evenodd;fill:#E3F6FF;}
	.st2{fill-rule:evenodd;clip-rule:evenodd;fill:#0F62FE;}
	.st3{fill-rule:evenodd;clip-rule:evenodd;fill:#009C98;}
	.st4{fill:#DCDCDC;}
	.st5{fill-rule:evenodd;clip-rule:evenodd;fill:#408BFC;}
	.st6{fill-rule:evenodd;clip-rule:evenodd;fill:#FFFFFF;}
	.st7{fill-rule:evenodd;clip-rule:evenodd;fill:#051B75;}
	.st8{fill-rule:evenodd;clip-rule:evenodd;fill:#8A3FFC;}
	.st9{fill:#EE538B;}
	.st10{fill-rule:evenodd;clip-rule:evenodd;fill:none;}
	.st11{fill:#161616;}
	.st12{font-family:'IBMPlexSans';}
	.st13{font-size:14px;}
	.st14{fill:#F4F4F4;}
	.st15{font-family:'IBMPlexSans-Medium';}
	.st16{font-size:16px;}
	.st17{fill:none;}
</style>
<path
   id="Rectangle-Copy-19"
   class="st0"
   d="M505,32h357c22.1,0,40,17.9,40,40v222c0,22.1-17.9,40-40,40H505c-22.1,0-40-17.9-40-40  V72C465,49.9,482.9,32,505,32z"
   style="" />
<path
   id="Rectangle-Copy-23"
   class="st0"
   d="M41,120h237c22.1,0,40,17.9,40,40v94c0,22.1-17.9,40-40,40H41c-22.1,0-40-17.9-40-40  v-94C1,137.9,18.9,120,41,120z"
   style="" />
<circle
   id="Oval-Copy-3"
   class="st1"
   cx="58"
   cy="180"
   r="24"
   style="" />
<path
   id="Shape"
   class="st2"
   d="M53,183c2.8,0,5,2.2,5,5v6h-2v-6c0-1.7-1.3-3-3-3h-4c-1.7,0-3,1.3-3,3v6h-2v-6c0-2.8,2.2-5,5-5H53z   M51,171c2.8,0,5,2.2,5,5s-2.2,5-5,5s-5-2.2-5-5S48.2,171,51,171z M72,172v8h-2v-8H72z M67,169v11h-2v-11H67z M62,174v6h-2v-6H62z   M51,173c-1.7,0-3,1.3-3,3c0,1.7,1.3,3,3,3c1.7,0,3-1.3,3-3S52.7,173,51,173z"
   style="" />
<circle
   id="Oval-Copy-3_1_"
   class="st1"
   cx="529"
   cy="88"
   r="24"
   style="" />
<path
   id="Shape_1_"
   class="st2"
   d="M524,91c2.8,0,5,2.2,5,5v6h-2v-6c0-1.7-1.3-3-3-3h-4c-1.7,0-3,1.3-3,3v6h-2v-6c0-2.8,2.2-5,5-5  H524z M522,79c2.8,0,5,2.2,5,5s-2.2,5-5,5s-5-2.2-5-5S519.2,79,522,79z M537.1,77.9l1.8,0.4l-2.4,10.4l-1.8-0.4L537.1,77.9z   M531.9,79.6l1.4,1.2l-2.1,2.6l2.1,2.6l-1.4,1.2l-3.1-3.7L531.9,79.6z M541.7,79.6l3.1,3.7l-3.1,3.7l-1.4-1.2l2.1-2.6l-2.1-2.6  L541.7,79.6z M522,81c-1.7,0-3,1.3-3,3c0,1.7,1.3,3,3,3s3-1.3,3-3S523.7,81,522,81z"
   style="" />
<rect
   id="Rectangle-Copy-14"
   x="540"
   y="422"
   class="st3"
   width="260"
   height="155"
   style="" />
<path
   id="Line-5-Copy-5"
   class="st4"
   d="M828.3,498.5l0,1L827.8,623l6,0l-7.1,14l-6.9-14l6,0l0.4-122.5H800v-2H828.3z"
   style="" />
<rect
   id="Rectangle-Copy-14_1_"
   x="480"
   y="637"
   class="st5"
   width="370"
   height="180"
   style="" />
<rect
   id="Rectangle-Copy-9"
   x="496"
   y="720"
   class="st6"
   width="80"
   height="81"
   style="" />
<rect
   id="Rectangle-Copy-24"
   x="1"
   y="422"
   class="st7"
   width="400"
   height="155"
   style="" />
<rect
   id="Rectangle-Copy-16"
   x="305"
   y="479"
   class="st6"
   width="80"
   height="81"
   style="" />
<rect
   id="Rectangle-Copy-16_1_"
   x="209"
   y="479"
   class="st6"
   width="80"
   height="81"
   style="" />
<rect
   id="Rectangle-Copy-16_2_"
   x="113"
   y="479"
   class="st6"
   width="80"
   height="81"
   style="" />
<rect
   id="Rectangle-Copy-16_3_"
   x="17"
   y="479"
   class="st6"
   width="80"
   height="81"
   style="" />
<rect
   id="Rectangle-Copy-18"
   x="673"
   y="64"
   class="st8"
   width="104"
   height="81"
   style="" />
<rect
   id="Rectangle-Copy-18_1_"
   x="785"
   y="196"
   class="st8"
   width="85"
   height="106"
   style="" />
<rect
   id="Rectangle-Copy-18_2_"
   x="749"
   y="695"
   class="st8"
   width="85"
   height="106"
   style="" />
<rect
   id="Rectangle-Copy-18_4_"
   x="497"
   y="196"
   class="st8"
   width="85"
   height="106"
   style="" />
<path
   id="Line-2-Copy-21"
   class="st4"
   d="M659,97.1l14,6.9l-14,7.1l0-6l-92,0.4l-1,0l0-2l1,0l92-0.4L659,97.1z"
   style="" />
<path
   id="Line-2-Copy-30"
   class="st9"
   d="M735,754l14,7l-14,7v-6H576v-2h159V754z"
   style="" />
<path
   id="Line-2-Copy-31"
   class="st4"
   d="M187.5,177l14,7l-14,7v-6H94v-2h93.5V177z"
   style="" />
<path
   id="Line-2-Copy-32"
   class="st9"
   d="M187.5,236l14,7l-14,7v-6H94v-2h93.5V236z"
   style="" />
<path
   id="Line-2-Copy-33"
   class="st4"
   d="M483,201l14,7l-14,7v-6H286v-2h197V201z"
   style="" />
<path
   id="Line-2-Copy-34"
   class="st4"
   d="M828.5,302v77.3l-357,0V455l-56.5,0v6l-14-7l14-7v6h54.5v-75.6l357,0V302H828.5z"
   style="" />
<path
   id="Line-2-Copy-35"
   class="st4"
   d="M771,242l14,7l-14,7v-6H582v-2h189V242z"
   style="" />
<path
   id="Line-4-Copy-3"
   class="st9"
   d="M346,242v223h6l-7,14l-7-14h6V244h-58v-2H346z"
   style="" />
<path
   id="Path-3-Copy"
   class="st9"
   d="M346,560v200h135v-6l14,7l-14,7v-6H344V560H346z"
   style="" />
<path
   id="Line-5"
   class="st4"
   d="M526,447l14,7l-14,7v-6h-55.5v-2H526V447z"
   style="" />
<rect
   x="25"
   y="214.8"
   class="st10"
   width="64.9"
   height="34.7"
   id="rect33"
   style="" />
<text
   id="text39"
   style="font-style:normal;font-variant:normal;font-weight:normal;font-stretch:normal;font-family:Arial;-inkscape-font-specification:Arial"
   x="24.561501"
   y="225.1207"><tspan
     x="24.561501"
     y="225.1207"
     class="st11 st12 st13"
     id="tspan35"
     style="font-style:normal;font-variant:normal;font-weight:normal;font-stretch:normal;font-size:14px;font-family:Arial;-inkscape-font-specification:Arial;fill:#161616">Spécialiste</tspan><tspan
     x="12.261499"
     y="245.1207"
     class="st11 st12 st13"
     id="tspan37"
     style="font-style:normal;font-variant:normal;font-weight:normal;font-stretch:normal;font-size:14px;font-family:Arial;-inkscape-font-specification:Arial;fill:#161616">des données</tspan></text>

<rect
   x="108"
   y="196.7"
   class="st10"
   width="64.9"
   height="34.7"
   id="rect41"
   style="" />
<text
   id="text47"
   style="font-style:normal;font-variant:normal;font-weight:normal;font-stretch:normal;font-family:Arial;-inkscape-font-specification:Arial"
   x="103.7521"
   y="207.03239"><tspan
     x="103.7521"
     y="207.03239"
     class="st11 st12 st13"
     id="tspan43"
     style="font-style:normal;font-variant:normal;font-weight:normal;font-stretch:normal;font-size:14px;font-family:Arial;-inkscape-font-specification:Arial;fill:#161616">6. Effectue des </tspan><tspan
     x="106.4521"
     y="227.03239"
     class="st11 st12 st13"
     id="tspan45"
     style="font-style:normal;font-variant:normal;font-weight:normal;font-stretch:normal;font-size:14px;font-family:Arial;-inkscape-font-specification:Arial;fill:#161616">mises à jour</tspan></text>

<rect
   x="357"
   y="311.6"
   class="st10"
   width="104.5"
   height="58.3"
   id="rect49"
   style="" />
<text
   id="text57"
   style="font-style:normal;font-variant:normal;font-weight:normal;font-stretch:normal;font-size:14px;font-family:Arial;-inkscape-font-specification:'Arial, Normal';font-variant-ligatures:normal;font-variant-caps:normal;font-variant-numeric:normal;font-feature-settings:normal;text-align:center;writing-mode:lr-tb;text-anchor:middle"
   x="399"
   y="321.98541"><tspan
     sodipodi:role="line"
     id="tspan190"
     x="400.94141"
     y="321.98541">7. Envoie les </tspan><tspan
     sodipodi:role="line"
     id="tspan192"
     x="400.94141"
     y="339.48541">mises à jour </tspan><tspan
     sodipodi:role="line"
     id="tspan194"
     x="400.94141"
     y="356.98541">du modèle </tspan><tspan
     sodipodi:role="line"
     id="tspan196"
     x="399"
     y="374.48541">via MMS</tspan></text>

<rect
   x="357"
   y="658.7"
   class="st10"
   width="104.5"
   height="39.6"
   id="rect59"
   style="" />
<text
   id="text65"
   style="font-style:normal;font-variant:normal;font-weight:normal;font-stretch:normal;font-size:14px;font-family:Arial;-inkscape-font-specification:'Arial, Normal';font-variant-ligatures:normal;font-variant-caps:normal;font-variant-numeric:normal;font-feature-settings:normal;text-align:center;writing-mode:lr-tb;text-anchor:middle"
   x="409"
   y="669.01221"><tspan
     sodipodi:role="line"
     id="tspan202"
     x="410.94141"
     y="669.01221">8. Récupère les </tspan><tspan
     sodipodi:role="line"
     id="tspan204"
     x="410.94141"
     y="686.51221">mises à jour du </tspan><tspan
     sodipodi:role="line"
     id="tspan206"
     x="409"
     y="704.01221">modèle</tspan></text>

<rect
   x="597.3"
   y="716.6"
   class="st10"
   width="114.1"
   height="39.6"
   id="rect67"
   style="" />
<text
   id="text73"
   style="font-style:normal;font-variant:normal;font-weight:normal;font-stretch:normal;font-family:Arial;-inkscape-font-specification:Arial"
   x="592.67493"
   y="726.98297"><tspan
     x="592.67493"
     y="726.98297"
     class="st14 st12 st13"
     id="tspan69"
     style="font-style:normal;font-variant:normal;font-weight:normal;font-stretch:normal;font-size:14px;font-family:Arial;-inkscape-font-specification:Arial;fill:#f4f4f4">9. Récupère le modèle</tspan><tspan
     x="593.57489"
     y="746.98297"
     class="st14 st12 st13"
     id="tspan71"
     style="font-style:normal;font-variant:normal;font-weight:normal;font-stretch:normal;font-size:14px;font-family:Arial;-inkscape-font-specification:Arial;fill:#f4f4f4">via l'API ESS</tspan></text>

<rect
   x="491.3"
   y="122.8"
   class="st10"
   width="74.1"
   height="34.8"
   id="rect75"
   style="" />
<text
   id="text81"
   style="font-style:normal;font-variant:normal;font-weight:normal;font-stretch:normal;font-family:Arial;-inkscape-font-specification:Arial"
   x="499.62051"
   y="133.1156"><tspan
     x="499.62051"
     y="133.1156"
     class="st11 st12 st13"
     id="tspan77"
     style="font-style:normal;font-variant:normal;font-weight:normal;font-stretch:normal;font-size:14px;font-family:Arial;-inkscape-font-specification:Arial;fill:#161616">Editeur </tspan><tspan
     x="496.3205"
     y="153.1156"
     class="st11 st12 st13"
     id="tspan79"
     style="font-style:normal;font-variant:normal;font-weight:normal;font-stretch:normal;font-size:14px;font-family:Arial;-inkscape-font-specification:Arial;fill:#161616">de logiciels</tspan></text>

<rect
   x="305"
   y="512.8"
   class="st10"
   width="80"
   height="14.9"
   id="rect83"
   style="" />
<text
   transform="matrix(1 0 0 1 329.4114 523.149)"
   class="st11 st12 st13"
   id="text85"
   style="-inkscape-font-specification:Arial;font-family:Arial;font-weight:normal;font-style:normal;font-stretch:normal;font-variant:normal;">MMS</text>

<rect
   x="502"
   y="744.7"
   class="st10"
   width="65.8"
   height="37.9"
   id="rect87"
   style="" />
<text
   id="text93"
   style="font-style:normal;font-variant:normal;font-weight:normal;font-stretch:normal;font-family:Arial;-inkscape-font-specification:Arial"
   x="508.99512"
   y="755.10681"><tspan
     x="508.99512"
     y="755.10681"
     class="st11 st12 st13"
     id="tspan89"
     style="font-style:normal;font-variant:normal;font-weight:normal;font-stretch:normal;font-size:14px;font-family:Arial;-inkscape-font-specification:Arial;fill:#161616">Agent de</tspan><tspan
     x="506.89508"
     y="775.10681"
     class="st11 st12 st13"
     id="tspan91"
     style="font-style:normal;font-variant:normal;font-weight:normal;font-stretch:normal;font-size:14px;font-family:Arial;-inkscape-font-specification:Arial;fill:#161616">périphérie</tspan></text>

<rect
   x="749"
   y="736.7"
   class="st10"
   width="84.8"
   height="16.4"
   id="rect95"
   style="" />
<text
   class="st14 st12 st13"
   id="text97"
   style="font-style:normal;font-variant:normal;font-weight:normal;font-stretch:normal;font-size:14px;font-family:Arial;-inkscape-font-specification:Arial;fill:#f4f4f4"
   x="753.38959"
   y="747.06677">Service d'IA</text>

<rect
   x="209"
   y="512.8"
   class="st10"
   width="80"
   height="14.9"
   id="rect99"
   style="" />
<text
   transform="matrix(1 0 0 1 241.3772 523.149)"
   class="st11 st12 st13"
   id="text101"
   style="-inkscape-font-specification:Arial;font-family:Arial;font-weight:normal;font-style:normal;font-stretch:normal;font-variant:normal;">UI</text>

<rect
   x="113"
   y="512.8"
   class="st10"
   width="80"
   height="14.9"
   id="rect103"
   style="" />
<text
   transform="matrix(1 0 0 1 122.0818 523.149)"
   class="st11 st12 st13"
   id="text105"
   style="-inkscape-font-specification:Arial;font-family:Arial;font-weight:normal;font-style:normal;font-stretch:normal;font-variant:normal;">Exchange</text>

<rect
   x="17"
   y="512.8"
   class="st10"
   width="80"
   height="14.9"
   id="rect107"
   style="" />
<text
   transform="matrix(1 0 0 1 38.0725 523.149)"
   class="st11 st12 st13"
   id="text109"
   style="-inkscape-font-specification:Arial;font-family:Arial;font-weight:normal;font-style:normal;font-stretch:normal;font-variant:normal;">Agbot</text>

<rect
   x="673"
   y="96.8"
   class="st10"
   width="104"
   height="14.9"
   id="rect111"
   style="" />
<text
   transform="matrix(1 0 0 1 702.3762 107.1315)"
   class="st14 st12 st13"
   id="text113"
   style="-inkscape-font-specification:Arial;font-family:Arial;font-weight:normal;font-style:normal;font-stretch:normal;font-variant:normal;">Docker</text>

<rect
   x="784.9"
   y="237.7"
   class="st10"
   width="85"
   height="14.9"
   id="rect115"
   style="" />
<text
   class="st14 st12 st13"
   id="text117"
   style="font-style:normal;font-variant:normal;font-weight:normal;font-stretch:normal;font-size:14px;font-family:Arial;-inkscape-font-specification:Arial;fill:#f4f4f4"
   x="791.37512"
   y="248.0777">Service d'IA</text>

<rect
   x="496.8"
   y="230.2"
   class="st10"
   width="85.2"
   height="34.7"
   id="rect119"
   style="" />
<text
   id="text125"
   style="font-style:normal;font-variant:normal;font-weight:normal;font-stretch:normal;font-size:14px;font-family:Arial;-inkscape-font-specification:'Arial, Normal';font-variant-ligatures:normal;font-variant-caps:normal;font-variant-numeric:normal;font-feature-settings:normal;text-align:center;writing-mode:lr-tb;text-anchor:middle;fill:#ffffff"
   x="537.92657"
   y="240.5443"><tspan
     sodipodi:role="line"
     id="tspan178"
     style="fill:#ffffff"
     x="539.86798"
     y="240.5443">Application </tspan><tspan
     sodipodi:role="line"
     id="tspan180"
     style="fill:#ffffff"
     x="537.92657"
     y="258.04431">d'IA/AU</tspan></text>

<rect
   x="17"
   y="442.3"
   class="st10"
   width="236.1"
   height="15.6"
   id="rect127"
   style="" />
<text
   transform="matrix(1 0 0 1 17.0002 454.0923)"
   class="st14 st15 st16"
   id="text129"
   style="-inkscape-font-specification:Arial;font-family:Arial;font-weight:normal;font-style:normal;font-stretch:normal;font-variant:normal;">Concentrateur de gestion IEAM</text>

<rect
   x="496"
   y="657.3"
   class="st10"
   width="236.1"
   height="15.6"
   id="rect131"
   style="" />
<text
   transform="matrix(1 0 0 1 496.0002 669.1191)"
   class="st14 st15 st16"
   id="text133"
   style="-inkscape-font-specification:Arial;font-family:Arial;font-weight:normal;font-style:normal;font-stretch:normal;font-variant:normal;">Noeud de périphérie</text>

<rect
   x="34"
   y="92.3"
   class="st10"
   width="236.1"
   height="15.6"
   id="rect135"
   style="" />
<text
   transform="matrix(1 0 0 1 33.9919 104.1321)"
   class="st11 st15 st16"
   id="text137"
   style="-inkscape-font-specification:Arial;font-family:Arial;font-weight:normal;font-style:normal;font-stretch:normal;font-variant:normal;">Environnement du spécialiste des données</text>

<rect
   x="497"
   y="4.3"
   class="st10"
   width="236.1"
   height="15.6"
   id="rect139"
   style="" />
<text
   transform="matrix(1 0 0 1 497.0002 16.1162)"
   class="st11 st15 st16"
   id="text141"
   style="-inkscape-font-specification:Arial;font-family:Arial;font-weight:normal;font-style:normal;font-stretch:normal;font-variant:normal;">Environnement du développeur</text>

<rect
   id="Rectangle-Copy-18_6_"
   x="201"
   y="154"
   class="st8"
   width="85"
   height="120"
   style="" />
<rect
   x="203.1"
   y="176.7"
   class="st10"
   width="80.6"
   height="74.6"
   id="rect144"
   style="" />
<text
   id="text154"
   style="font-style:normal;font-variant:normal;font-weight:normal;font-stretch:normal;font-size:14px;font-family:Arial;-inkscape-font-specification:'Arial, Normal';font-variant-ligatures:normal;font-variant-caps:normal;font-variant-numeric:normal;font-feature-settings:normal;text-align:center;writing-mode:lr-tb;text-anchor:middle"
   x="241.9288"
   y="187.07651"><tspan
     sodipodi:role="line"
     id="tspan182"
     style="fill:#ffffff"
     x="243.87021"
     y="187.07651">Application </tspan><tspan
     sodipodi:role="line"
     id="tspan184"
     style="fill:#ffffff"
     x="243.87021"
     y="204.57651">d'IA/AU </tspan><tspan
     sodipodi:role="line"
     id="tspan186"
     style="fill:#ffffff"
     x="243.87021"
     y="222.07651">avec son </tspan><tspan
     sodipodi:role="line"
     id="tspan188"
     style="fill:#ffffff"
     x="241.9288"
     y="239.57651">modèle</tspan></text>

<rect
   x="575.7"
   y="440.2"
   class="st10"
   width="162.3"
   height="15.6"
   id="rect156"
   style="" />
<text
   transform="matrix(1 0 0 1 575.7068 452.0177)"
   class="st14 st15 st16"
   id="text158"
   style="-inkscape-font-specification:Arial;font-family:Arial;font-weight:normal;font-style:normal;font-stretch:normal;font-variant:normal;">Registre de conteneur</text>

<g
   id="g169"
   style="">
	<path
   class="st14"
   d="M567.7,439.8h-8c-0.6,0-1,0.4-1,1v11c0,0.6,0.4,1,1,1h8c0.6,0,1-0.4,1-1v-11   C568.7,440.2,568.3,439.8,567.7,439.8z M567.7,440.8v3h-8v-3H567.7z M559.7,447.8v-3h8v3H559.7z M559.7,451.8v-3h8v3H559.7z"
   id="path160"
   style="" />
	<circle
   class="st14"
   cx="561.2"
   cy="442.2"
   r="0.5"
   id="circle162"
   style="" />
	<circle
   class="st14"
   cx="561.2"
   cy="446.2"
   r="0.5"
   id="circle164"
   style="" />
	<circle
   class="st14"
   cx="561.2"
   cy="450.2"
   r="0.5"
   id="circle166"
   style="" />
	<rect
   id="_x3C_Transparent_Rectangle_x3E__616_"
   x="555.7"
   y="438.2"
   class="st17"
   width="16"
   height="16"
   style="" />
</g>
</svg>
