<?xml version="1.0" encoding="UTF-8" standalone="no"?>
<!-- Generator: Adobe Illustrator 24.0.3, SVG Export Plug-In . SVG Version: 6.00 Build 0)  -->

<svg
   xmlns:dc="http://purl.org/dc/elements/1.1/"
   xmlns:cc="http://creativecommons.org/ns#"
   xmlns:rdf="http://www.w3.org/1999/02/22-rdf-syntax-ns#"
   xmlns:svg="http://www.w3.org/2000/svg"
   xmlns="http://www.w3.org/2000/svg"
   xmlns:sodipodi="http://sodipodi.sourceforge.net/DTD/sodipodi-0.dtd"
   xmlns:inkscape="http://www.inkscape.org/namespaces/inkscape"
   version="1.1"
   id="Layer_1"
   x="0px"
   y="0px"
   viewBox="0 0 614 469"
   style="enable-background:new 0 0 614 469;"
   xml:space="preserve"
   sodipodi:docname="07_What_is_an_edge_node.svg"
   inkscape:version="0.92.4 (5da689c313, 2019-01-14)"><metadata
   id="metadata86"><rdf:RDF><cc:Work
       rdf:about=""><dc:format>image/svg+xml</dc:format><dc:type
         rdf:resource="http://purl.org/dc/dcmitype/StillImage" /></cc:Work></rdf:RDF></metadata><defs
   id="defs84" /><sodipodi:namedview
   pagecolor="#ffffff"
   bordercolor="#666666"
   borderopacity="1"
   objecttolerance="10"
   gridtolerance="10"
   guidetolerance="10"
   inkscape:pageopacity="0"
   inkscape:pageshadow="2"
   inkscape:window-width="1680"
   inkscape:window-height="987"
   id="namedview82"
   showgrid="false"
   inkscape:zoom="1.0063966"
   inkscape:cx="341.59245"
   inkscape:cy="270.35808"
   inkscape:window-x="-8"
   inkscape:window-y="-8"
   inkscape:window-maximized="1"
   inkscape:current-layer="Layer_1" />
<style
   type="text/css"
   id="style2">
	.st0{fill:none;stroke:#00BAB6;stroke-width:2;stroke-dasharray:7;}
	.st1{fill-rule:evenodd;clip-rule:evenodd;fill:#4F2196;}
	.st2{fill-rule:evenodd;clip-rule:evenodd;fill:#FFFFFF;}
	.st3{fill:#BEBEBE;}
	.st4{fill-rule:evenodd;clip-rule:evenodd;fill:#408BFC;}
	.st5{fill-rule:evenodd;clip-rule:evenodd;fill:#E3F6FF;}
	.st6{fill-rule:evenodd;clip-rule:evenodd;fill:#0062FF;}
	.st7{fill-rule:evenodd;clip-rule:evenodd;fill:none;}
	.st8{fill:#161616;}
	.st9{font-family:'IBMPlexSans';}
	.st10{font-size:14px;}
	.st11{fill:#F4F4F4;}
	.st12{font-family:'IBMPlexSans-Medium';}
	.st13{font-size:16px;}
</style>
<path
   id="Rectangle"
   class="st0"
   d="M41,1h400c22.1,0,40,17.9,40,40v387c0,22.1-17.9,40-40,40H41c-22.1,0-40-17.9-40-40V41  C1,18.9,18.9,1,41,1z"
   style="" />
<rect
   id="Rectangle-Copy-14"
   x="25"
   y="65"
   class="st1"
   width="432"
   height="267"
   style="" />
<rect
   id="Rectangle-Copy-16"
   x="249"
   y="131.5"
   class="st2"
   width="192"
   height="56"
   style="" />
<rect
   id="Rectangle-Copy-53"
   x="41"
   y="260"
   class="st2"
   width="192"
   height="56"
   style="" />
<rect
   id="Rectangle-Copy-44"
   x="249"
   y="259.5"
   class="st2"
   width="192"
   height="56"
   style="" />
<path
   id="Line-11-Copy-7"
   class="st3"
   d="M309.8,316l6.9,14l-6,0l-0.3,44l6,0l-7.1,14l-6.9-14l6,0l0.3-44l-6,0L309.8,316z"
   style="" />
<path
   id="Line-11-Copy-8"
   class="st3"
   d="M141.8,316l6.9,14l-6,0l-0.3,44l6,0l-7.1,14l-6.9-14l6,0l0.3-44l-6,0L141.8,316z"
   style="" />
<path
   id="Line-11-Copy-6"
   class="st3"
   d="M235,153l14,7l-14,7v-6h-92.5l-0.4,85l6,0l-7.1,14l-6.9-14l6,0l0.4-86l0-1H235V153z"
   style="" />
<path
   id="Line-11-Copy-9"
   class="st3"
   d="M506,153l14,7l-14,7v-6h-51v6l-14-7l14-7v6h51V153z"
   style="" />
<rect
   id="Rectangle-Copy-14_1_"
   x="249"
   y="388"
   class="st4"
   width="192"
   height="56"
   style="" />
<rect
   id="Rectangle-Copy-54"
   x="41"
   y="388"
   class="st4"
   width="192"
   height="56"
   style="" />
<circle
   id="Oval"
   class="st5"
   cx="560.5"
   cy="157.5"
   r="32.5"
   style="" />
<path
   id="Shape"
   class="st6"
   d="M569.5,167h-17c-4.1,0-7.5-3.4-7.5-7.5c0-3.6,2.6-6.7,6.1-7.4c0,0,0.1,0,0.1-0.1c1-4.7,5.1-8,9.8-8  c0.6,0,1.3,0.1,1.9,0.2c4,0.8,7.1,3.9,7.9,7.9c0,0,0,0.1,0.1,0.1c4,0.8,6.7,4.7,6,8.7C576.2,164.4,573.1,167,569.5,167z M552.5,165  h17c2.7,0,4.9-1.9,5.4-4.5c0.3-1.8-0.2-3.6-1.5-4.9c-0.8-0.8-1.8-1.3-2.8-1.5l-0.3-0.1l-1.1-0.2c0,0-0.1,0-0.1-0.1l0,0l-0.2-1  c-0.6-3.2-3-5.8-6.1-6.5c-0.9-0.2-1.9-0.3-2.8-0.1c-3.4,0.5-6,3.1-6.8,6.5l-0.1,0.3l-0.2,0.9c0,0,0,0.1-0.1,0.1l0,0l-1,0.2  c-2.4,0.4-4.4,2.3-4.7,4.7C546.6,162.1,549.2,165,552.5,165z"
   style="" />
<rect
   x="508.6"
   y="197.6"
   class="st7"
   width="104.5"
   height="39.6"
   id="rect17"
   style="" />
<text
   id="text23"
   style="font-style:normal;font-variant:normal;font-weight:normal;font-stretch:normal;font-family:Arial;-inkscape-font-specification:Arial"
   x="509.01788"
   y="207.98351"><tspan
     x="509.01788"
     y="207.98351"
     class="st8 st9 st10"
     id="tspan19"
     style="font-style:normal;font-variant:normal;font-weight:normal;font-stretch:normal;font-size:14px;font-family:Arial;-inkscape-font-specification:Arial;fill:#161616">Serveurs Cloud</tspan><tspan
     x="521.81787"
     y="227.98351"
     class="st8 st9 st10"
     id="tspan21"
     style="font-style:normal;font-variant:normal;font-weight:normal;font-stretch:normal;font-size:14px;font-family:Arial;-inkscape-font-specification:Arial;fill:#161616">(facultatif)</tspan></text>

<rect
   x="322.2"
   y="354.6"
   class="st7"
   width="142.9"
   height="13.9"
   id="rect25"
   style="" />
<text
   class="st8 st9 st10"
   id="text27"
   style="font-style:normal;font-variant:normal;font-weight:normal;font-stretch:normal;font-size:14px;font-family:Arial;-inkscape-font-specification:Arial;fill:#161616"
   x="322.25049"
   y="354.94321">Accès au matériel</text>

<rect
   x="322.2"
   y="207.7"
   class="st7"
   width="114.3"
   height="40.8"
   id="rect29"
   style="" />
<text
   transform="matrix(1 0 0 1 322.25 218.051)"
   id="text35"
   style="-inkscape-font-specification:Arial;font-family:Arial;font-weight:normal;font-style:normal;font-stretch:normal;font-variant:normal;"><tspan
     x="0"
     y="0"
     class="st11 st9 st10"
     id="tspan31"
     style="-inkscape-font-specification:Arial;font-family:Arial;font-weight:normal;font-style:normal;font-stretch:normal;font-variant:normal;">Réseaux privés</tspan><tspan
     x="0"
     y="20"
     class="st11 st9 st10"
     id="tspan33"
     style="-inkscape-font-specification:Arial;font-family:Arial;font-weight:normal;font-style:normal;font-stretch:normal;font-variant:normal;">virtuels Docker</tspan></text>

<rect
   x="154.1"
   y="354.6"
   class="st7"
   width="142.9"
   height="13.9"
   id="rect37"
   style="" />
<text
   class="st8 st9 st10"
   id="text39"
   style="font-style:normal;font-variant:normal;font-weight:normal;font-stretch:normal;font-size:14px;font-family:Arial;-inkscape-font-specification:'Arial, Normal';font-variant-ligatures:normal;font-variant-caps:normal;font-variant-numeric:normal;font-feature-settings:normal;text-align:start;writing-mode:lr-tb;text-anchor:start;fill:#161616"
   x="154.0701"
   y="354.94321"><tspan
     sodipodi:role="line"
     id="tspan92"
     x="154.0701"
     y="354.94321">Accès au système </tspan><tspan
     sodipodi:role="line"
     id="tspan94"
     x="154.0701"
     y="372.44321">d'exploitation</tspan></text>

<rect
   x="248.9"
   y="140.6"
   class="st7"
   width="192"
   height="39.6"
   id="rect41"
   style="" />
<text
   id="text47"
   style="font-style:normal;font-variant:normal;font-weight:normal;font-stretch:normal;font-family:Arial;-inkscape-font-specification:Arial"
   x="277.1973"
   y="150.99719"><tspan
     x="277.1973"
     y="150.99719"
     class="st8 st9 st10"
     id="tspan43"
     style="font-style:normal;font-variant:normal;font-weight:normal;font-stretch:normal;font-size:14px;font-family:Arial;-inkscape-font-specification:Arial;fill:#161616">cpu2msghub</tspan><tspan
     x="273.6973"
     y="170.99719"
     class="st8 st9 st10"
     id="tspan45"
     style="font-style:normal;font-variant:normal;font-weight:normal;font-stretch:normal;font-size:14px;font-family:Arial;-inkscape-font-specification:Arial;fill:#161616">(service de périphérie)</tspan></text>

<rect
   x="248.9"
   y="268.6"
   class="st7"
   width="192"
   height="39.6"
   id="rect49"
   style="" />
<text
   id="text55"
   style="font-style:normal;font-variant:normal;font-weight:normal;font-stretch:normal;font-family:Arial;-inkscape-font-specification:Arial"
   x="309.56711"
   y="279.00049"><tspan
     x="309.56711"
     y="279.00049"
     class="st8 st9 st10"
     id="tspan51"
     style="font-style:normal;font-variant:normal;font-weight:normal;font-stretch:normal;font-size:14px;font-family:Arial;-inkscape-font-specification:Arial;fill:#161616">gps</tspan><tspan
     x="275.76709"
     y="299.00049"
     class="st8 st9 st10"
     id="tspan53"
     style="font-style:normal;font-variant:normal;font-weight:normal;font-stretch:normal;font-size:14px;font-family:Arial;-inkscape-font-specification:Arial;fill:#161616">(service de périphérie)</tspan></text>

<rect
   x="40.9"
   y="268.6"
   class="st7"
   width="192"
   height="39.6"
   id="rect57"
   style="" />
<text
   id="text63"
   style="font-style:normal;font-variant:normal;font-weight:normal;font-stretch:normal;font-family:Arial;-inkscape-font-specification:Arial"
   x="103.1779"
   y="279.00049"><tspan
     x="103.1779"
     y="279.00049"
     class="st8 st9 st10"
     id="tspan59"
     style="font-style:normal;font-variant:normal;font-weight:normal;font-stretch:normal;font-size:14px;font-family:Arial;-inkscape-font-specification:Arial;fill:#161616">cpu</tspan><tspan
     x="69.677902"
     y="299.00049"
     class="st8 st9 st10"
     id="tspan61"
     style="font-style:normal;font-variant:normal;font-weight:normal;font-stretch:normal;font-size:14px;font-family:Arial;-inkscape-font-specification:Arial;fill:#161616">(service de périphérie)</tspan></text>

<rect
   x="265"
   y="408.2"
   class="st7"
   width="161"
   height="15.6"
   id="rect65"
   style="" />
<text
   transform="matrix(1 0 0 1 265.0002 419.9979)"
   class="st11 st12 st13"
   id="text67"
   style="-inkscape-font-specification:Arial;font-family:Arial;font-weight:normal;font-style:normal;font-stretch:normal;font-variant:normal;">Capteurs du matériel</text>

<rect
   x="57"
   y="408.2"
   class="st7"
   width="161"
   height="15.6"
   id="rect69"
   style="" />
<text
   class="st11 st12 st13"
   id="text71"
   style="font-style:normal;font-variant:normal;font-weight:normal;font-stretch:normal;font-size:16px;font-family:Arial;-inkscape-font-specification:'Arial, Normal';font-variant-ligatures:normal;font-variant-caps:normal;font-variant-numeric:normal;font-feature-settings:normal;text-align:center;writing-mode:lr-tb;text-anchor:middle;fill:#f4f4f4"
   x="140.9915"
   y="411.99789"><tspan
     sodipodi:role="line"
     id="tspan88"
     x="143.21025"
     y="411.99789">Services du système </tspan><tspan
     sodipodi:role="line"
     id="tspan90"
     x="140.9915"
     y="431.99789">d'exploitation</tspan></text>

<rect
   x="41"
   y="85.3"
   class="st7"
   width="236.1"
   height="15.6"
   id="rect73"
   style="" />
<text
   transform="matrix(1 0 0 1 41.0002 97.1207)"
   class="st11 st12 st13"
   id="text75"
   style="-inkscape-font-specification:Arial;font-family:Arial;font-weight:normal;font-style:normal;font-stretch:normal;font-variant:normal;">Pattern de déploiement</text>

<rect
   x="25"
   y="29.2"
   class="st7"
   width="236.1"
   height="15.6"
   id="rect77"
   style="" />
<text
   transform="matrix(1 0 0 1 25.0038 40.9981)"
   class="st8 st12 st13"
   id="text79"
   style="-inkscape-font-specification:Arial;font-family:Arial;font-weight:normal;font-style:normal;font-stretch:normal;font-variant:normal;">Noeud de périphérie</text>

</svg>
