<?xml version="1.0" encoding="UTF-8" standalone="no"?>
<svg
   xmlns:dc="http://purl.org/dc/elements/1.1/"
   xmlns:cc="http://creativecommons.org/ns#"
   xmlns:rdf="http://www.w3.org/1999/02/22-rdf-syntax-ns#"
   xmlns:svg="http://www.w3.org/2000/svg"
   xmlns="http://www.w3.org/2000/svg"
   xmlns:sodipodi="http://sodipodi.sourceforge.net/DTD/sodipodi-0.dtd"
   xmlns:inkscape="http://www.inkscape.org/namespaces/inkscape"
   width="1204px"
   height="794px"
   viewBox="0 0 1204 794"
   version="1.1"
   id="svg154"
   sodipodi:docname="08_sdrarch.svg"
   inkscape:version="0.92.4 (5da689c313, 2019-01-14)">
  <metadata
     id="metadata160">
    <rdf:RDF>
      <cc:Work
         rdf:about="">
        <dc:format>image/svg+xml</dc:format>
        <dc:type
           rdf:resource="http://purl.org/dc/dcmitype/StillImage" />
      </cc:Work>
    </rdf:RDF>
  </metadata>
  <defs
     id="defs158" />
  <sodipodi:namedview
     pagecolor="#ffffff"
     bordercolor="#666666"
     borderopacity="1"
     objecttolerance="10"
     gridtolerance="10"
     guidetolerance="10"
     inkscape:pageopacity="0"
     inkscape:pageshadow="2"
     inkscape:window-width="1680"
     inkscape:window-height="987"
     id="namedview156"
     showgrid="false"
     inkscape:zoom="0.83631234"
     inkscape:cx="400.52025"
     inkscape:cy="373.39063"
     inkscape:window-x="-8"
     inkscape:window-y="-8"
     inkscape:window-maximized="1"
     inkscape:current-layer="svg154" />
  <title
     id="title2">Group 29</title>
  <circle
     style="fill:#e3f6ff;fill-rule:evenodd;stroke:none;stroke-width:1"
     r="32.5"
     cy="185.5"
     cx="46.5"
     id="Oval-Copy-8" />
  <text
     style="font-weight:normal;font-size:14px;font-family:IBMPlexSans, 'IBM Plex Sans';letter-spacing:0.16;fill:#161616;fill-rule:evenodd;stroke:none;stroke-width:1"
     letter-spacing="0.159999996"
     line-spacing="20"
     font-weight="normal"
     font-size="14"
     id="Cloud"
     y="153">
    <tspan
       id="tspan5"
       y="236"
       x="27.393">Cloud</tspan>
  </text>
  <path
     style="fill:#0062ff;fill-rule:evenodd;stroke:none;stroke-width:1"
     d="m 55.5077,195.0004 h -17.016 c -4.146,-0.009 -7.5,-3.375 -7.492029,-7.519 0.008,-3.594 2.565029,-6.674 6.090029,-7.351 0.049,-0.009 0.087,-0.047 0.096,-0.096 0.953,-4.74 5.134,-8.031 9.808,-8.034 0.626,0 1.259,0.059 1.896,0.181 3.995,0.768 7.124,3.874 7.923,7.854 0.01,0.049 0.048,0.086 0.097,0.095 4.035,0.775 6.703,4.654 5.969,8.704 -0.646,3.564 -3.747,6.158 -7.371,6.166 z m -17.012,-2 h 17.012 c 2.655,-0.006 4.929,-1.908 5.403,-4.523 0.321,-1.772 -0.228,-3.568 -1.54,-4.891 -0.765231,-0.77169 -1.773302,-1.25198 -2.83466,-1.48568 l -0.26634,-0.0533 -1.058,-0.192 c -0.039,-0.007 -0.07238,-0.0324 -0.09084,-0.0664 l -0.01316,-0.0366 -0.195,-1.009 c -0.612,-3.185 -2.981,-5.839 -6.147,-6.545 -0.944,-0.21 -1.877,-0.256 -2.847,-0.124 -3.391744,0.46087 -6.043924,3.14993 -6.791925,6.47889 l -0.05508,0.26411 -0.18,0.935 c -0.0075,0.039 -0.033,0.0718 -0.06764,0.09 l -0.03736,0.013 -1.016,0.184 c -2.382,0.431 -4.374,2.263 -4.714,4.66 -0.479,3.381 2.144,6.294 5.439,6.301 z"
     id="Shape"
     inkscape:connector-curvature="0" />
  <text
     style="font-weight:normal;font-size:14px;font-family:IBMPlexSans, 'IBM Plex Sans';letter-spacing:0.16;fill:#161616;fill-rule:evenodd;stroke:none;stroke-width:1"
     letter-spacing="0.159999996"
     line-spacing="20"
     font-weight="normal"
     font-size="14"
     id="Edge-node"
     x="2"
     y="546.5">
    <tspan
       id="tspan11"
       y="629.5"
       x="14.261">Noeud de périphérie</tspan>
  </text>
  <circle
     style="fill:#e3f6ff;fill-rule:evenodd;stroke:none;stroke-width:1"
     r="32.5"
     cy="579"
     cx="47.5"
     id="Oval-Copy-9" />
  <path
     inkscape:connector-curvature="0"
     style="fill:#0062ff;fill-rule:evenodd;stroke:none;stroke-width:1"
     id="Fill-1-Copy-2"
     d="m 55,572.5 h 1 v -1 h -1 z m 1.76,-3 h -2.52 c -0.684,0 -1.24,0.557 -1.24,1.24 v 2.52 c 0,0.683 0.556,1.24 1.24,1.24 h 2.52 c 0.684,0 1.24,-0.557 1.24,-1.24 v -2.52 c 0,-0.683 -0.556,-1.24 -1.24,-1.24 z m -14.763,16 v -8 h 8 l 0.002,8 z m 8,-10 H 49 v -1.999 h -2 v 1.999 h -2 v -1.999 h -2 v 1.999 h -1.003 c -1.102,0 -2,0.897 -2,2 v 1.001 H 38 v 2 h 1.997 v 2 H 38 v 2 h 1.997 v 0.999 c 0,1.103 0.898,2 2,2 h 8 c 1.103,0 2,-0.897 2,-2 v -8 c 0,-1.103 -0.897,-2 -2,-2 z m 2.003,9 h 2 v -2 h -2 z m 0,-4 h 2 v -2 h -2 z m -5,9.001 h 2 v -2 h -2 z m -4,0 h 2 v -2 H 43 Z M 57,579.5 c -0.552,0 -1,0.448 -1,1 0,0.552 0.448,1 1,1 0.552,0 1,-0.448 1,-1 0,-0.552 -0.448,-1 -1,-1 z m 0,4 c -0.552,0 -1,0.448 -1,1 0,0.552 0.448,1 1,1 0.552,0 1,-0.448 1,-1 0,-0.552 -0.448,-1 -1,-1 z m -18,-12 c 0.552,0 1,-0.448 1,-1 0,-0.552 -0.448,-1 -1,-1 -0.552,0 -1,0.448 -1,1 0,0.552 0.448,1 1,1 z m 18,16 c -0.552,0 -1,0.448 -1,1 0,0.552 0.448,1 1,1 0.552,0 1,-0.448 1,-1 0,-0.552 -0.448,-1 -1,-1 z m 3,3.818 c 0,0.1 -0.082,0.182 -0.182,0.182 H 36.182 c -0.1,0 -0.182,-0.082 -0.182,-0.182 v -23.636 c 0,-0.1 0.082,-0.182 0.182,-0.182 h 23.636 c 0.1,0 0.182,0.082 0.182,0.182 z M 59.818,565.5 H 36.182 c -1.203,0 -2.182,0.979 -2.182,2.182 v 23.636 c 0,1.203 0.979,2.182 2.182,2.182 h 23.636 c 1.203,0 2.182,-0.979 2.182,-2.182 v -23.636 c 0,-1.203 -0.979,-2.182 -2.182,-2.182 z" />
  <circle
     style="fill:#e3f6ff;fill-rule:evenodd;stroke:none;stroke-width:1"
     r="32.5"
     cy="32.5"
     cx="45.5"
     id="Oval-Copy-2" />
  <text
     style="font-weight:normal;font-size:14px;font-family:IBMPlexSans, 'IBM Plex Sans';letter-spacing:0.16;fill:#161616;fill-rule:evenodd;stroke:none;stroke-width:1"
     letter-spacing="0.159999996"
     line-spacing="20"
     font-weight="normal"
     font-size="14"
     id="Web-browser">
    <tspan
       id="tspan18"
       y="83"
       x="3.7709999">Navigateur Web</tspan>
  </text>
  <path
     inkscape:connector-curvature="0"
     style="fill:#0062ff;fill-rule:evenodd;stroke:none;stroke-width:1"
     id="Fill-1"
     d="M 34,38 H 58 V 22 H 34 Z m 10,6 h 4 V 40 H 44 Z M 58,20 H 34 c -1.104,0 -2,0.896 -2,2 v 16 c 0,1.104 0.896,2 2,2 h 8 v 4 h -4 v 2 h 16 v -2 h -4 v -4 h 8 c 1.104,0 2,-0.896 2,-2 V 22 c 0,-1.104 -0.896,-2 -2,-2 z" />
  <circle
     style="fill:#e3f6ff;fill-rule:evenodd;stroke:none;stroke-width:1"
     r="32.5"
     cy="47.5"
     cx="675.5"
     id="Oval-Copy-10" />
  <text
     style="font-weight:normal;font-size:14px;font-family:IBMPlexSans, 'IBM Plex Sans';letter-spacing:0.16;fill:#161616;fill-rule:evenodd;stroke:none;stroke-width:1"
     letter-spacing="0.159999996"
     line-spacing="20"
     font-weight="normal"
     font-size="14"
     id="User"
     x="610"
     y="15">
    <tspan
       id="tspan24"
       y="98"
       x="641.11298">Utilisateur</tspan>
  </text>
  <path
     style="fill:#0062ff;fill-rule:evenodd;stroke:none;stroke-width:1"
     d="m 676.0002,33 c -3.866,0 -7,3.134 -7,7 0,3.866 3.134,7 7,7 3.866,0 7,-3.134 7,-7 0,-3.866 -3.134,-7 -7,-7 m 0,2 c 2.761,0 5,2.239 5,5 0,2.761 -2.239,5 -5,5 -2.762,0 -5,-2.239 -5,-5 0.003,-2.76 2.239,-4.997 5,-5"
     id="path27"
     inkscape:connector-curvature="0" />
  <path
     style="fill:#0062ff;fill-rule:evenodd;stroke:none;stroke-width:1"
     d="m 686.0002,61 h -2 v -5 c -0.004,-2.76 -2.24,-4.997 -5,-5 h -6 c -2.761,0.003 -4.997,2.24 -5,5 v 5 h -2 v -5 c 0.004,-3.864 3.136,-6.995 7,-7 h 6 c 3.864,0.005 6.995,3.136 7,7 z"
     id="Fill-3"
     inkscape:connector-curvature="0" />
  <rect
     style="fill:#8a3ffc;fill-rule:evenodd;stroke:none;stroke-width:1"
     height="48"
     width="209"
     y="541.5"
     x="208"
     id="Rectangle-Copy-18" />
  <text
     style="font-weight:normal;font-size:14px;font-family:IBMPlexSans, 'IBM Plex Sans';letter-spacing:0.16;fill:#f4f4f4;fill-rule:evenodd;stroke:none;stroke-width:1"
     letter-spacing="0.159999996"
     line-spacing="20"
     font-weight="normal"
     font-size="14"
     id="AI-service"
     x="208"
     y="541.5">
    <tspan
       id="tspan33"
       y="569"
       x="247.605">Service sdr2msghub</tspan>
  </text>
  <rect
     style="fill:#92eeee;fill-rule:evenodd;stroke:none;stroke-width:1"
     height="48"
     width="209"
     y="175"
     x="208"
     id="rect37" />
  <text
     style="font-weight:normal;font-size:14px;font-family:IBMPlexSans, 'IBM Plex Sans';letter-spacing:0.16;fill:#161616;fill-rule:evenodd;stroke:none;stroke-width:1"
     letter-spacing="0.159999996"
     line-spacing="20"
     font-weight="normal"
     font-size="14"
     id="Node.js,-Express,-Gr"
     x="208"
     y="175">
    <tspan
       id="tspan39"
       y="202.5"
       x="227.27701"
       style="-inkscape-font-specification:Arial;font-family:Arial;font-weight:normal;font-style:normal;font-stretch:normal;font-variant:normal">Node.js, Express, GraphQL</tspan>
  </text>
  <rect
     style="fill:#408bfc;fill-rule:evenodd;stroke:none;stroke-width:1"
     height="66"
     width="209"
     y="15"
     x="208"
     id="rect43" />
  <text
     style="font-weight:normal;font-size:14px;font-family:IBMPlexSans, 'IBM Plex Sans';letter-spacing:0.16;fill:#f4f4f4;fill-rule:evenodd;stroke:none;stroke-width:1"
     letter-spacing="0.159999996"
     line-spacing="20"
     font-weight="normal"
     font-size="14"
     id="Provides-data-views"
     x="208"
     y="15">
    <tspan
       id="tspan45"
       y="42"
       x="248.834">Vues de données</tspan>
    <tspan
       id="tspan47"
       y="62"
       x="257.397">(React, GraphQL)</tspan>
  </text>
  <rect
     style="fill:#92eeee;fill-rule:evenodd;stroke:none;stroke-width:1"
     height="48"
     width="209"
     y="277"
     x="208"
     id="rect51" />
  <text
     style="font-style:normal;font-variant:normal;font-weight:normal;font-stretch:normal;font-size:14px;font-family:Arial;-inkscape-font-specification:'Arial, Normal';font-variant-ligatures:normal;font-variant-caps:normal;font-variant-numeric:normal;font-feature-settings:normal;text-align:center;letter-spacing:0.16;writing-mode:lr-tb;text-anchor:middle;fill:#161616;fill-rule:evenodd;stroke:none;stroke-width:1"
     letter-spacing="0.159999996"
     line-spacing="20"
     font-weight="normal"
     font-size="14"
     id="Compose-Postgres-dat"
     x="312"
     y="297">
    <tspan
       sodipodi:role="line"
       id="tspan386"
       x="312.07999"
       y="297">Base de données</tspan>
    <tspan
       sodipodi:role="line"
       id="tspan388"
       x="312.07999"
       y="314.5">Compose Postgres</tspan>
  </text>
  <rect
     style="fill:#8a3ffc;fill-rule:evenodd;stroke:none;stroke-width:1"
     height="48"
     width="209"
     y="643.5"
     x="208"
     id="rect57" />
  <text
     style="font-weight:normal;font-size:14px;font-family:IBMPlexSans, 'IBM Plex Sans';letter-spacing:0.16;fill:#f4f4f4;fill-rule:evenodd;stroke:none;stroke-width:1"
     letter-spacing="0.159999996"
     line-spacing="20"
     font-weight="normal"
     font-size="14"
     id="sdr-service"
     x="208"
     y="643.5">
    <tspan
       id="tspan59"
       y="671"
       x="277.52301">Service sdr</tspan>
  </text>
  <rect
     style="fill:#408bfc;fill-rule:evenodd;stroke:none;stroke-width:1"
     height="56"
     width="192"
     y="639.5"
     x="580"
     id="Rectangle-Copy-14" />
  <text
     style="font-weight:500;font-size:16px;font-family:IBMPlexSans-SemiBold, 'IBM Plex Sans';fill:#f4f4f4;fill-rule:evenodd;stroke:none;stroke-width:1"
     line-spacing="22"
     font-weight="500"
     font-size="16"
     id="Open-Horizon-agent"
     x="570"
     y="639.5">
    <tspan
       id="tspan64"
       y="671.5"
       x="592.73602">Agent Open Horizon</tspan>
  </text>
  <rect
     style="fill:#408bfc;fill-rule:evenodd;stroke:none;stroke-width:1"
     height="117"
     width="288"
     y="170"
     x="532"
     id="rect68" />
  <text
     style="font-weight:500;font-size:16px;font-family:IBMPlexSans-SemiBold, 'IBM Plex Sans';fill:#f4f4f4;fill-rule:evenodd;stroke:none;stroke-width:1"
     line-spacing="22"
     font-weight="500"
     font-size="16"
     id="IBM-functions"
     x="532"
     y="170">
    <tspan
       id="tspan70"
       y="202"
       x="548">IBM Functions</tspan>
  </text>
  <rect
     style="fill:#8a3ffc;fill-rule:evenodd;stroke:none;stroke-width:1"
     height="48"
     width="209"
     y="745.5"
     x="208"
     id="rect74" />
  <text
     style="font-weight:normal;font-size:14px;font-family:IBMPlexSans, 'IBM Plex Sans';letter-spacing:0.16;fill:#f4f4f4;fill-rule:evenodd;stroke:none;stroke-width:1"
     letter-spacing="0.159999996"
     line-spacing="20"
     font-weight="normal"
     font-size="14"
     id="sdr-sensor"
     x="208"
     y="745.5">
    <tspan
       id="tspan76"
       y="773"
       x="278.884">Capteur sdr</tspan>
  </text>
  <rect
     id="Rectangle-Copy-66"
     x="572"
     y="427"
     width="208"
     height="56"
     rx="14"
     style="fill:#009c98;fill-rule:evenodd;stroke:none;stroke-width:1" />
  <rect
     id="Rectangle-Copy-72"
     x="896"
     y="170"
     width="288"
     height="76"
     rx="14"
     style="fill:#009c98;fill-rule:evenodd;stroke:none;stroke-width:1" />
  <rect
     id="Rectangle-Copy-73"
     x="896"
     y="262"
     width="288"
     height="76"
     rx="14"
     style="fill:#009c98;fill-rule:evenodd;stroke:none;stroke-width:1" />
  <text
     id="Retrieve-audio-clips"
     font-size="14"
     font-weight="normal"
     line-spacing="20"
     letter-spacing="0.159999996"
     style="font-weight:normal;font-size:14px;font-family:Arial;letter-spacing:0.16;fill:#161616;fill-rule:evenodd;stroke:none;stroke-width:1;-inkscape-font-specification:Arial;font-style:normal;font-stretch:normal;font-variant:normal;">
    <tspan
       x="325"
       y="710.5"
       id="tspan83"
       style="-inkscape-font-specification:Arial;font-family:Arial;font-weight:normal;font-style:normal;font-stretch:normal;font-variant:normal;">Récupère des clips audio</tspan>
    <tspan
       x="325"
       y="730.5"
       id="tspan85"
       style="-inkscape-font-specification:Arial;font-family:Arial;font-weight:normal;font-style:normal;font-stretch:normal;font-variant:normal;">sur des stations de radio</tspan>
  </text>
  <text
     id="Message-triggers-sof"
     font-size="14"
     font-weight="normal"
     line-spacing="20"
     letter-spacing="0.159999996"
     style="font-weight:normal;font-size:14px;font-family:Arial;letter-spacing:0.16;fill:#161616;fill-rule:evenodd;stroke:none;stroke-width:1;-inkscape-font-specification:Arial;font-style:normal;font-stretch:normal;font-variant:normal;">
    <tspan
       x="688"
       y="394"
       id="tspan88"
       style="-inkscape-font-specification:Arial;font-family:Arial;font-weight:normal;font-style:normal;font-stretch:normal;font-variant:normal;">Message déclenchant une</tspan>
    <tspan
       x="688"
       y="414"
       id="tspan90"
       style="-inkscape-font-specification:Arial;font-family:Arial;font-weight:normal;font-style:normal;font-stretch:normal;font-variant:normal;">action de radio logicielle</tspan>
  </text>
  <text
     id="Use-machine-learning-Copy"
     font-size="14"
     font-weight="normal"
     line-spacing="20"
     letter-spacing="0.159999996"
     style="font-weight:normal;font-size:14px;font-family:Arial;letter-spacing:0.16;fill:#161616;fill-rule:evenodd;stroke:none;stroke-width:1;-inkscape-font-specification:Arial;font-style:normal;font-stretch:normal;font-variant:normal;">
    <tspan
       x="325"
       y="610.5"
       id="tspan93"
       style="-inkscape-font-specification:Arial;font-family:Arial;font-weight:normal;font-style:normal;font-stretch:normal;font-variant:normal;">Utilise l'apprentissage automatique pour sélectionner</tspan>
    <tspan
       x="325"
       y="630.5"
       id="tspan95"
       style="-inkscape-font-specification:Arial;font-family:Arial;font-weight:normal;font-style:normal;font-stretch:normal;font-variant:normal;">les meilleures stations avec paroles et envoie l'audio vers le cloud</tspan>
  </text>
  <text
     id="Stores-only-insights"
     font-size="14"
     font-weight="normal"
     line-spacing="20"
     letter-spacing="0.159999996"
     style="font-style:normal;font-variant:normal;font-weight:normal;font-stretch:normal;font-size:14px;font-family:Arial;-inkscape-font-specification:'Arial, Normal';font-variant-ligatures:normal;font-variant-caps:normal;font-variant-numeric:normal;font-feature-settings:normal;text-align:center;letter-spacing:0.16;writing-mode:lr-tb;text-anchor:middle;fill:#161616;fill-rule:evenodd;stroke:none;stroke-width:1"
     x="412"
     y="238">
    <tspan
       sodipodi:role="line"
       id="tspan437"
       x="412.07999"
       y="238">Stocke uniquement les</tspan>
    <tspan
       sodipodi:role="line"
       id="tspan439"
       x="412.08002"
       y="255.5">insights (sentiments) dans</tspan>
    <tspan
       sodipodi:role="line"
       id="tspan441"
       x="412.07999"
       y="273">la base de données</tspan>
  </text>
  <text
     id="Serves-the-UI,-trans"
     font-size="14"
     font-weight="normal"
     line-spacing="20"
     letter-spacing="0.159999996"
     style="font-weight:normal;font-size:14px;font-family:Arial;letter-spacing:0.16;fill:#161616;fill-rule:evenodd;stroke:none;stroke-width:1;-inkscape-font-specification:Arial;font-style:normal;font-stretch:normal;font-variant:normal;">
    <tspan
       x="325"
       y="144"
       id="tspan103"
       style="-inkscape-font-specification:Arial;font-family:Arial;font-weight:normal;font-style:normal;font-stretch:normal;font-variant:normal;">Sert l'interface utilisateur, transporte</tspan>
    <tspan
       x="325"
       y="164"
       id="tspan105"
       style="-inkscape-font-specification:Arial;font-family:Arial;font-weight:normal;font-style:normal;font-stretch:normal;font-variant:normal;">les données dans le navigateur</tspan>
  </text>
  <text
     id="Provide-data-views"
     font-size="14"
     font-weight="normal"
     line-spacing="20"
     letter-spacing="0.159999996"
     style="font-style:normal;font-variant:normal;font-weight:normal;font-stretch:normal;font-size:14px;font-family:Arial;-inkscape-font-specification:Arial;letter-spacing:0.16;fill:#161616;fill-rule:evenodd;stroke:none;stroke-width:1"
     x="-36">
    <tspan
       x="430.823"
       y="34"
       id="tspan108"
       style="font-style:normal;font-variant:normal;font-weight:normal;font-stretch:normal;font-family:Arial;-inkscape-font-specification:Arial">Procure des vues de données</tspan>
  </text>
  <text
     id="Convert-audio-text,"
     font-size="14"
     font-weight="normal"
     line-spacing="20"
     letter-spacing="0.159999996"
     style="font-style:normal;font-variant:normal;font-weight:normal;font-stretch:normal;font-size:14px;font-family:Arial;-inkscape-font-specification:Arial;letter-spacing:0.16;fill:#161616;fill-rule:evenodd;stroke:none;stroke-width:1"
     x="-18">
    <tspan
       x="897.30701"
       y="156"
       id="tspan111"
       style="font-style:normal;font-variant:normal;font-weight:normal;font-stretch:normal;font-family:Arial;-inkscape-font-specification:Arial">Convertit le texte audio, analyse les sentiments</tspan>
  </text>
  <text
     id="IBM-Event-Streams"
     font-size="16"
     font-weight="500"
     line-spacing="22"
     style="font-style:normal;font-variant:normal;font-weight:normal;font-stretch:normal;font-size:16px;font-family:Arial;-inkscape-font-specification:Arial;fill:#f4f4f4;fill-rule:evenodd;stroke:none;stroke-width:1"
     x="2">
    <tspan
       x="606.79999"
       y="459"
       id="tspan114"
       style="font-style:normal;font-variant:normal;font-weight:normal;font-stretch:normal;font-family:Arial;-inkscape-font-specification:Arial">IBM Event Streams</tspan>
  </text>
  <text
     id="IBM-Watson-Speech-to"
     font-size="16"
     font-weight="500"
     line-spacing="22"
     style="font-weight:normal;font-size:16px;font-family:Arial;fill:#f4f4f4;fill-rule:evenodd;stroke:none;stroke-width:1;-inkscape-font-specification:Arial;font-style:normal;font-stretch:normal;font-variant:normal;">
    <tspan
       x="994.64001"
       y="202"
       id="tspan117"
       style="-inkscape-font-specification:Arial;font-family:Arial;font-weight:normal;font-style:normal;font-stretch:normal;font-variant:normal;">IBM Watson</tspan>
    <tspan
       x="984.85602"
       y="224"
       id="tspan119"
       style="-inkscape-font-specification:Arial;font-family:Arial;font-weight:normal;font-style:normal;font-stretch:normal;font-variant:normal;">Speech to Text</tspan>
  </text>
  <text
     id="IBM-Watson-Natural-L"
     font-size="16"
     font-weight="500"
     line-spacing="22"
     style="font-weight:normal;font-size:16px;font-family:Arial;fill:#f4f4f4;fill-rule:evenodd;stroke:none;stroke-width:1;-inkscape-font-specification:Arial;font-style:normal;font-stretch:normal;font-variant:normal;">
    <tspan
       x="997.64001"
       y="294"
       id="tspan122"
       style="-inkscape-font-specification:Arial;font-family:Arial;font-weight:normal;font-style:normal;font-stretch:normal;font-variant:normal;">IBM Watson</tspan>
    <tspan
       x="920.76801"
       y="316"
       id="tspan124"
       style="-inkscape-font-specification:Arial;font-family:Arial;font-weight:normal;font-style:normal;font-stretch:normal;font-variant:normal;">Natural Language Understanding</tspan>
  </text>
  <path
     id="Path-2-Copy-16"
     d="m 622.87695,41 14,7 -14,7 -9.5e-4,-6 H 431 v 6 l -14,-7 14,-7 v 6 h 191.876 z"
     style="fill:#bebebe;fill-rule:nonzero;stroke:none;stroke-width:1"
     inkscape:connector-curvature="0" />
  <path
     id="Path-2-Copy-12"
     d="m 313,691.5 7,14 h -6 v 26 h 6 l -7,14 -7,-14 h 6 v -26 h -6 z"
     style="fill:#bebebe;fill-rule:nonzero;stroke:none;stroke-width:1"
     inkscape:connector-curvature="0" />
  <path
     id="Path-2-Copy-17"
     d="m 676,373 7,14 h -6 v 40 h -2 v -40 h -6 z"
     style="fill:#bebebe;fill-rule:nonzero;stroke:none;stroke-width:1"
     inkscape:connector-curvature="0" />
  <path
     id="Path-2-Copy-13"
     d="m 313,589.5 7,14 h -6 v 26 h 6 l -7,14 -7,-14 h 6 v -26 h -6 z"
     style="fill:#bebebe;fill-rule:nonzero;stroke:none;stroke-width:1"
     inkscape:connector-curvature="0" />
  <path
     id="Path-2-Copy-22"
     d="m 676,483 7,14 -6,-10e-4 V 569 H 417 v -2 l 258,-10e-4 v -70 L 669,497 Z"
     style="fill:#bebebe;fill-rule:nonzero;stroke:none;stroke-width:1"
     inkscape:connector-curvature="0" />
  <path
     id="Path-2-Copy-14"
     d="m 313,223 7,14 h -6 v 40 h -2 v -40 h -6 z"
     style="fill:#bebebe;fill-rule:nonzero;stroke:none;stroke-width:1"
     inkscape:connector-curvature="0" />
  <path
     id="Path-2-Copy-15"
     d="m 313,81 7,14 h -6 v 66 h 6 l -7,14 -7,-14 h 6 V 95 h -6 z"
     style="fill:#bebebe;fill-rule:nonzero;stroke:none;stroke-width:1"
     inkscape:connector-curvature="0" />
  <line
     x1="3.7953641"
     y1="121.5"
     x2="1203.2046"
     y2="121.5"
     id="Line-12"
     style="fill:none;fill-rule:evenodd;stroke:#00bab6;stroke-width:2;stroke-dasharray:7" />
  <line
     x1="3.7953641"
     y1="514.5"
     x2="1203.2046"
     y2="514.5"
     id="Line-12-Copy"
     style="fill:none;fill-rule:evenodd;stroke:#00bab6;stroke-width:2;stroke-dasharray:7" />
  <rect
     style="fill:#8a3ffc;fill-rule:evenodd;stroke:none;stroke-width:1"
     height="48"
     width="256"
     y="223"
     x="548"
     id="rect136" />
  <text
     style="font-weight:normal;font-size:14px;font-family:IBMPlexSans, 'IBM Plex Sans';letter-spacing:0.16;fill:#f4f4f4;fill-rule:evenodd;stroke:none;stroke-width:1"
     letter-spacing="0.159999996"
     line-spacing="20"
     font-weight="normal"
     font-size="14"
     id="Software-defined-rad"
     x="556"
     y="223">
    <tspan
       id="tspan138"
       y="250"
       x="588.30298">Action de radio logicielle</tspan>
  </text>
  <rect
     style="fill:#8a3ffc;fill-rule:evenodd;stroke:none;stroke-width:1"
     height="48"
     width="256"
     y="325"
     x="548"
     id="rect142" />
  <text
     style="font-weight:normal;font-size:14px;font-family:IBMPlexSans, 'IBM Plex Sans';letter-spacing:0.16;fill:#f4f4f4;fill-rule:evenodd;stroke:none;stroke-width:1"
     letter-spacing="0.159999996"
     line-spacing="20"
     font-weight="normal"
     font-size="14"
     id="Trigger"
     x="526"
     y="325">
    <tspan
       id="tspan144"
       y="352"
       x="631.65601">Déclencheur</tspan>
  </text>
  <path
     id="Path-2-Copy-18"
     d="m 676,271 7,14 h -6 v 40 h -2 v -40 h -6 z"
     style="fill:#bebebe;fill-rule:nonzero;stroke:none;stroke-width:1"
     inkscape:connector-curvature="0" />
  <path
     id="Path-2-Copy-19"
     d="m 548,245 v 2 h -35 v 55 h -80.5 v 6 l -14,-7 14,-7 v 6 H 511 v -55 z"
     style="fill:#bebebe;fill-rule:nonzero;stroke:none;stroke-width:1"
     inkscape:connector-curvature="0" />
  <path
     id="Path-2-Copy-20"
     d="m 882,201 14,7 -14,7 v -6.001 H 842.925 L 842.92578,236 818,235.999 V 242 l -14,-7 14,-7 v 5.999 h 22.925 L 840.92578,207 882,206.999 Z"
     style="fill:#bebebe;fill-rule:nonzero;stroke:none;stroke-width:1"
     inkscape:connector-curvature="0" />
  <path
     id="Path-2-Copy-21"
     d="m 818,265 -14,-7 14,-7 v 6 h 25.24805 l -5e-5,42 H 882 v -6 l 14,7 -14,7 v -6 h -40.75195 l -5e-5,-42 H 818 Z"
     style="fill:#bebebe;fill-rule:nonzero;stroke:none;stroke-width:1"
     inkscape:connector-curvature="0" />
</svg>
