<?xml version="1.0" encoding="utf-8"?>
<!-- Generator: Adobe Illustrator 25.1.0, SVG Export Plug-In . SVG Version: 6.00 Build 0)  -->
<svg version="1.1" id="Layer_1" xmlns="http://www.w3.org/2000/svg" xmlns:xlink="http://www.w3.org/1999/xlink" x="0px" y="0px"
	 viewBox="0 0 917 514" style="enable-background:new 0 0 917 514;" xml:space="preserve">
<style type="text/css">
	.st0{fill-rule:evenodd;clip-rule:evenodd;fill:#E3F6FF;}
	.st1{fill-rule:evenodd;clip-rule:evenodd;fill:#0F62FE;}
	.st2{fill-rule:evenodd;clip-rule:evenodd;fill:#408BFC;}
	.st3{fill-rule:evenodd;clip-rule:evenodd;fill:#FFFFFF;}
	.st4{fill-rule:evenodd;clip-rule:evenodd;fill:#009C98;}
	.st5{fill-rule:evenodd;clip-rule:evenodd;fill:#051B75;}
	.st6{fill:#161616;}
	.st7{font-family:'IBMPlexSans';}
	.st8{font-size:14px;}
	.st9{fill:none;stroke:#BEBEBE;stroke-width:2;stroke-linecap:square;}
	.st10{fill:#BEBEBE;}
	.st11{fill-rule:evenodd;clip-rule:evenodd;fill:#F4F4F4;}
	.st12{fill:none;}
	.st13{enable-background:new    ;}
	.st14{fill:#F4F4F4;}
	.st15{font-family:'IBMPlexSans-Medium';}
	.st16{font-size:16px;}
	.st17{font-size:12px;}
</style>
<g id="Group-2" transform="translate(21.000000, 0.000000)">
	<circle id="Oval-Copy-3" class="st0" cx="24" cy="205" r="24"/>
	<g id="icon_x2F_policy-admin" transform="translate(8.000000, 8.000000)">
		<path id="Shape" class="st1" d="M11,200c2.8,0,5,2.2,5,5v6h-2v-6c0-1.7-1.3-3-3-3H7c-1.7,0-3,1.3-3,3v6H2v-6c0-2.8,2.2-5,5-5H11z
			 M9,188c2.8,0,5,2.2,5,5s-2.2,5-5,5s-5-2.2-5-5S6.2,188,9,188z M27.6,188l1.4,1.4l-7.1,7.1l-3.9-3.9l1.4-1.4l2.5,2.5L27.6,188z
			 M9,190c-1.7,0-3,1.3-3,3s1.3,3,3,3s3-1.3,3-3S10.7,190,9,190z"/>
	</g>
</g>
<g id="Group-2_1_" transform="translate(21.000000, 0.000000)">
	<circle id="Oval-Copy-3_1_" class="st0" cx="331" cy="463" r="24"/>
	<g id="icon_x2F_node-owner" transform="translate(8.000000, 8.000000)">
		<g id="Group-23" transform="translate(2.000000, 4.000000)">
			<path id="Shape_1_" class="st1" d="M316,454c2.8,0,5,2.2,5,5v6h-2v-6c0-1.7-1.3-3-3-3h-4c-1.7,0-3,1.3-3,3v6h-2v-6
				c0-2.8,2.2-5,5-5H316z M314,442c2.8,0,5,2.2,5,5s-2.2,5-5,5s-5-2.2-5-5S311.2,442,314,442z M327,450v2h-2v-2H327z M332,450v2h-2
				v-2H332z M314,444c-1.7,0-3,1.3-3,3s1.3,3,3,3s3-1.3,3-3S315.7,444,314,444z M335,447v2h-2v-2H335z M324,447v2h-2v-2H324z
				 M332,442v7h-7v-7H332z M330,444h-3v3h3V444z M335,442v2h-2v-2H335z M324,442v2h-2v-2H324z M327,439v2h-2v-2H327z M332,439v2h-2
				v-2H332z"/>
		</g>
	</g>
</g>
<g id="Group-2_2_" transform="translate(27.000000, 0.000000)">
	<circle id="Oval-Copy-3_2_" class="st0" cx="226" cy="48" r="24"/>
	<g id="icon_x2F_cloud-installer" transform="translate(8.000000, 8.000000)">
		<path id="Shape_2_" class="st1" d="M213,43c2.8,0,5,2.2,5,5v6h-2v-6c0-1.7-1.3-3-3-3h-4c-1.7,0-3,1.3-3,3v6h-2v-6c0-2.8,2.2-5,5-5
			H213z M211,31c2.8,0,5,2.2,5,5s-2.2,5-5,5s-5-2.2-5-5S208.2,31,211,31z M226,28.9c2.1,0,3.9,1.4,4.5,3.4l0.1,0.2v0.1l0,0
			c1.3,0.5,2.2,1.7,2.3,3.1v0.2v0.2c0,2.1-1.6,3.7-3.7,3.9H229h-6.3c-2.1,0-3.9-1.7-3.9-3.9c0-1.5,0.9-2.8,2.2-3.5l0.2-0.1v-0.1
			c0.5-1.9,2.1-3.4,4.1-3.6h0.2L226,28.9z M211,33c-1.7,0-3,1.3-3,3s1.3,3,3,3s3-1.3,3-3S212.7,33,211,33z M226,30.9
			c-1.4,0-2.5,1-2.7,2.4v0.2v0.8l-0.8,0.2c-0.9,0.2-1.5,0.9-1.5,1.8c0,1,0.8,1.8,1.7,1.9h0.1h6.3c1,0,1.9-0.8,1.9-1.9
			c0-0.8-0.6-1.6-1.3-1.8h-0.1l-0.8-0.2v-0.8C228.6,32,227.4,30.9,226,30.9z"/>
	</g>
</g>
<g id="Group-2_3_" transform="translate(47.000000, 0.000000)">
	<circle id="Oval-Copy-3_3_" class="st0" cx="485" cy="48" r="24"/>
	<g id="icon_x2F_developer" transform="translate(8.000000, 8.000000)">
		<path id="Shape_3_" class="st1" d="M472,43c2.8,0,5,2.2,5,5v6h-2v-6c0-1.7-1.3-3-3-3h-4c-1.7,0-3,1.3-3,3v6h-2v-6c0-2.8,2.2-5,5-5
			H472z M470,31c2.8,0,5,2.2,5,5s-2.2,5-5,5s-5-2.2-5-5S467.2,31,470,31z M485.1,29.9l1.8,0.4l-2.4,10.4l-1.8-0.4L485.1,29.9z
			 M479.9,31.6l1.4,1.2l-2.1,2.6l2.1,2.6l-1.4,1.2l-3.1-3.7L479.9,31.6z M489.7,31.6l3.1,3.7l-3.1,3.7l-1.4-1.2l2.1-2.6l-2.1-2.6
			L489.7,31.6z M470,33c-1.7,0-3,1.3-3,3s1.3,3,3,3s3-1.3,3-3S471.7,33,470,33z"/>
	</g>
</g>
<rect id="Rectangle-Copy" x="453" y="323" class="st2" width="304" height="157"/>
<rect id="Rectangle-Copy-9" x="469" y="383" class="st3" width="80" height="81"/>
<rect id="Rectangle-Copy-10" x="661" y="383" class="st3" width="80" height="81"/>
<rect id="Rectangle-Copy-11" x="709" y="127" class="st4" width="208" height="155"/>
<rect id="Rectangle-Copy-12" x="230.2" y="127" class="st5" width="439.2" height="155"/>
<text transform="matrix(1 0 0 1 389.1527 14)" class="st6 st7 st8"> </text>
<path id="Line-3-Copy" class="st9" d="M387.3,464.5c0,0,22.9,0,65.7,0C410.2,464.5,387.3,464.5,387.3,464.5z"/>
<g id="Group-4-Copy" transform="translate(680.000000, 87.500000) scale(1, -1) translate(-680.000000, -87.500000) translate(565.000000, 48.000000)">
	<path id="Path-2-Copy-5" class="st10" d="M230,0.5l7,14h-6V80H-1v-2h230V14.5h-6L230,0.5z"/>
</g>
<path id="Line-7" class="st10" d="M626,48.5v64h6l-7,14l-7-14h6v-64H626z"/>
<path id="Path-2-Copy-11" class="st10" d="M647,417l14,7l-14,7v-6h-98v-2h98V417z"/>
<g id="icon_x2F_device_x2F_16" transform="translate(685.000000, 339.000000)">
	<path id="Shape_4_" class="st11" d="M-4,1c0.6,0,1,0.4,1,1c0,0.5-0.4,0.9-0.8,1l-0.5,1H-1c1.1,0,2,0.9,2,2v5c0,1.1-0.9,2-2,2h-8
		c-1.1,0-2-0.9-2-2V6c0-1.1,0.9-2,2-2h3.7l0.6-1.4C-4.9,2.5-5,2.3-5,2.1V2C-5,1.4-4.6,1-4,1z M-1,5h-8c-0.5,0-0.9,0.4-1,0.9V6v5
		c0,0.5,0.4,0.9,0.9,1H-9h8c0.5,0,0.9-0.4,1-0.9V11V6c0-0.5-0.4-0.9-0.9-1H-1z M-2.5,10c0.3,0,0.5,0.2,0.5,0.5S-2.2,11-2.5,11h-7
		C-9.8,11-8,10.8-8,10.5S-33.8,10-33.5,10H-2.5z M-7.5,6C-6.7,6-6,6.7-6,7.5S-6.7,9-7.5,9S-9,8.3-9,7.5S-8.3,6-7.5,6z M-2.5,6
		C-1.7,6-1,6.7-1,7.5S-1.7,9-2.5,9S-4,8.3-4,7.5S-3.3,6-2.5,6z M-7.5,7C-7.8,7-8,7.2-8,7.5S-7.8,8-7.5,8S-7,7.8-7,7.5S-7.2,7-7.5,7z
		 M-2.5,7C-2.8,7-3,7.2-3,7.5S-2.8,8-2.5,8S-2,7.8-2,7.5S-2.2,7-2.5,7z"/>
</g>
<g id="icon_x2F_cluster_x2F_16" transform="translate(606.000000, 339.000000)">
	<path id="Shape_5_" class="st11" d="M-3,3.5c0.8,0,1.5-0.7,1.5-1.5S-2.2,0.5-3,0.5S-4.5,1.2-4.5,2S-3.8,3.5-3,3.5z M-3,1.5
		c0.3,0,0.5,0.2,0.5,0.5S-2.7,2.5-3,2.5S-3.5,2.3-3.5,2S-3.3,1.5-3,1.5z M1.8,5.9c0.8,0,1.5-0.7,1.5-1.5S2.6,2.9,1.8,2.9
		S0.3,3.6,0.3,4.4S1,5.9,1.8,5.9z M1.8,3.9c0.3,0,0.5,0.2,0.5,0.5S2.1,4.9,1.8,4.9S1.3,4.7,1.3,4.4S1.5,3.9,1.8,3.9L1.8,3.9z
		 M-8.8,8.1c-0.8,0-1.5,0.7-1.5,1.5s0.7,1.5,1.5,1.5s1.5-0.7,1.5-1.5S-7.9,8.1-8.8,8.1z M-8.8,10.1c-0.3,0-0.5-0.2-0.5-0.5
		s0.2-0.5,0.5-0.5s0.5,0.2,0.5,0.5C-8.3,9.9-8.5,10.1-8.8,10.1z M-7.8,5.9c0.8,0,1.5-0.7,1.5-1.5S-7,2.9-7.8,2.9s-1.5,0.7-1.5,1.5
		S-8.6,5.9-7.8,5.9L-7.8,5.9z M-7.8,3.9c0.3,0,0.5,0.2,0.5,0.5s-0.2,0.5-0.5,0.5c-0.2,0-0.5-0.2-0.5-0.5C-8.3,4.1-8.1,3.9-7.8,3.9
		L-7.8,3.9z M2.8,8.1C2,8.1,1.3,8.8,1.3,9.6s0.7,1.5,1.5,1.5s1.5-0.7,1.5-1.5S3.6,8.1,2.8,8.1z M2.8,10.1c-0.3,0-0.5-0.2-0.5-0.5
		s0.2-0.5,0.5-0.5s0.5,0.2,0.5,0.5C3.3,9.9,3,10.1,2.8,10.1z M-0.6,12c-0.8,0-1.5,0.7-1.5,1.5S-1.4,15-0.6,15s1.5-0.7,1.5-1.5
		S0.3,12-0.6,12L-0.6,12z M-0.6,14c-0.3,0-0.5-0.2-0.5-0.5S-0.9,13-0.6,13s0.5,0.2,0.5,0.5c0,0.1-0.1,0.3-0.1,0.4
		C-0.3,13.9-0.4,14-0.6,14z M-5.4,12c-0.8,0-1.5,0.7-1.5,1.5S-6.2,15-5.4,15s1.5-0.7,1.5-1.5S-4.6,12-5.4,12L-5.4,12z M-5.4,14
		c-0.3,0-0.5-0.2-0.5-0.5S-5.7,13-5.4,13s0.5,0.2,0.5,0.5S-5.2,14-5.4,14z M0,8c0-1.7-1.3-3-3-3s-3,1.3-3,3s1.3,3,3,3S0,9.7,0,8z
		 M-3,10c-1.1,0-2-0.9-2-2s0.9-2,2-2s2,0.9,2,2c0,0.5-0.2,1-0.6,1.4C-2,9.8-2.5,10-3,10z"/>
</g>
<g>
	<rect id="Rectangle-Copy-16" x="499" y="185" class="st3" width="70.5" height="81"/>
	<rect id="Rectangle-Copy-16_4_" x="583.5" y="185" class="st3" width="70.5" height="81"/>
	<rect id="Rectangle-Copy-16_1_" x="414.5" y="185" class="st3" width="70.5" height="81"/>
	<rect id="Rectangle-Copy-16_2_" x="330" y="185" class="st3" width="70.5" height="81"/>
	<rect id="Rectangle-Copy-16_3_" x="245.5" y="185" class="st3" width="70.5" height="81"/>
</g>
<path id="Line-Copy" class="st10" d="M215.8,199.5l14,7l-14,7v-6L83,208h-1v-2h1l132.8-0.5V199.5z"/>
<path id="Path-4" class="st10" d="M409.2,282v141H455v-6l14,7l-14,7v-6h-47.8V282H409.2z"/>
<path id="Path-5" class="st10" d="M277,282l7,14h-6v167.5h37.5v2H276V296h-6L277,282z"/>
<path id="Line-6" class="st10" d="M441,47v66h6l-7,14l-7-14h6V49H289.5v-2H441z"/>
<path id="Path-3" class="st10" d="M796,282v143h-41v6l-14-7l14-7v6h39V282H796z"/>
<rect x="299.5" y="3.7" class="st12" width="130.8" height="37.3"/>
<text transform="matrix(1 0 0 1 340.7321 14.0312)" class="st6 st7 st8">Instala el</text>
<text transform="matrix(1 0 0 1 308.7321 34.0312)" class="st6 st7 st8">centro de gestión</text>
<rect x="82" y="163.3" class="st12" width="133.6" height="37.3"/>
<text transform="matrix(1 0 0 1 120.2609 173.6952)" class="st6 st7 st8">Gestiona el</text>
<text transform="matrix(1 0 0 1 119.4609 193.6952)" class="st6 st7 st8">despliegue</text>
<rect x="245.5" y="218.3" class="st12" width="70.5" height="15.6"/>
<text transform="matrix(1 0 0 1 261.7957 228.6866)" class="st6 st7 st8">Agbot</text>
<rect x="330.1" y="218.3" class="st12" width="70.4" height="15.6"/>
<text transform="matrix(1 0 0 1 334.3782 228.6866)" class="st6 st7 st8">Exchange</text>
<rect x="414.5" y="218.3" class="st12" width="70.5" height="15.6"/>
<text transform="matrix(1 0 0 1 442.1425 228.6866)" class="st6 st7 st8">UI</text>
<rect x="499" y="218.3" class="st12" width="70.5" height="15.6"/>
<text transform="matrix(1 0 0 1 518.6974 228.6866)" class="st6 st7 st8">MMS</text>
<rect x="583.5" y="218.3" class="st12" width="70.6" height="15.6"/>
<text transform="matrix(1 0 0 1 604.9148 228.6866)" class="st6 st7 st8">SDO</text>
<rect x="459.5" y="82.6" class="st12" width="143.7" height="15.6"/>
<text transform="matrix(1 0 0 1 488.6895 92.9777)" class="st13"><tspan x="0" y="0" class="st6 st7 st8">Desarrollador</tspan><tspan x="0" y="16.8" class="st6 st7 st8">  de software</tspan></text>
<rect x="180.5" y="82.6" class="st12" width="143.7" height="15.6"/>
<text transform="matrix(1 0 0 1 205.796 92.9337)" class="st6 st7 st8">Instalador Cloud</text>
<rect x="807" y="343.4" class="st12" width="97.1" height="41.6"/>
<text transform="matrix(1 0 0 1 807.0001 353.7596)" class="st6 st7 st8">Extrae</text>
<text transform="matrix(1 0 0 1 807.0001 373.7596)" class="st6 st7 st8">contenedores</text>
<rect x="563.8" y="23.7" class="st12" width="232" height="15.6"/>
<text transform="matrix(1 0 0 1 578.9702 34.0099)" class="st6 st7 st8">Desarrolla y publica servicios</text>
<rect x="745" y="144.9" class="st12" width="162.3" height="15.6"/>
<text transform="matrix(1 0 0 1 744.9995 156.7782)" class="st14 st15 st16">Registro contenedores</text>
<rect x="245.8" y="147.1" class="st12" width="236.1" height="15.6"/>
<text transform="matrix(1 0 0 1 245.8172 158.9718)" class="st14 st15 st16">Centro de gestión de IEAM </text>
<rect x="469" y="343.2" class="st12" width="95" height="15.6"/>
<text transform="matrix(1 0 0 1 469.0002 355.0536)" class="st14 st15 st16">Nodo de Edge</text>
<rect x="174" y="346.6" class="st12" width="90.6" height="87.4"/>
<text transform="matrix(1 0 0 1 210.5091 356.977)" class="st6 st7 st8">Registra</text>
<text transform="matrix(1 0 0 1 201.4091 376.977)" class="st6 st7 st8">nodos con</text>
<text transform="matrix(1 0 0 1 189.3091 396.977)" class="st6 st7 st8">el centro de</text>
<text transform="matrix(1 0 0 1 217.3091 416.977)" class="st6 st7 st8">gestión</text>
<rect x="305.1" y="323.4" class="st12" width="90.6" height="56.2"/>
<text transform="matrix(1 0 0 1 347.8609 337.7164)" class="st6 st7 st8">Obtiene</text>
<text transform="matrix(1 0 0 1 316.0609 353.7164)" class="st6 st7 st8">instrucciones</text>
<text transform="matrix(1 0 0 1 312.7609 370.7164)" class="st6 st7 st8">de despliegue</text>
<rect x="477" y="407.6" class="st12" width="64" height="43.6"/>
<text transform="matrix(1 0 0 1 490.0895 417.9814)" class="st6 st7 st8">Agente </text>
<text transform="matrix(1 0 0 1 488.9895 437.9814)" class="st6 st7 st8">de Edge</text>
<rect x="669" y="407.6" class="st12" width="64" height="43.6"/>
<text transform="matrix(1 0 0 1 678.0895 417.9814)" class="st6 st7 st8">Servicio</text>
<text transform="matrix(1 0 0 1 678.1895 437.9814)" class="st6 st7 st8">de Edge</text>
<rect x="549" y="399.6" class="st12" width="98" height="14.7"/>
<text transform="matrix(1 0 0 1 581.9281 409.9584)" class="st14 st7 st8">Ejecuta</text>
<rect x="625" y="342.2" class="st12" width="58.9" height="14.7"/>
<text transform="matrix(1 0 0 1 614.9999 351.0321)" class="st14 st7 st17">Clúster o</text>
<rect x="703" y="342.2" class="st12" width="44.5" height="14.7"/>
<text transform="matrix(1 0 0 1 690.9999 351.0321)" class="st14 st7 st17">Dispositivo</text>
<rect x="306.1" y="497.6" class="st12" width="90.6" height="15.5"/>
<text transform="matrix(1 0 0 1 287.6036 507.9965)" class="st6 st7 st8">Propietario del nodo</text>
<rect x="-2.8" y="239.6" class="st12" width="94.5" height="15.5"/>
<text transform="matrix(1 0 0 1 0.2867 249.9286)" class="st6 st7 st8">Administrador</text>
<g>
	<path class="st14" d="M737,144.5h-8c-0.6,0-1,0.4-1,1v11c0,0.6,0.4,1,1,1h8c0.6,0,1-0.4,1-1v-11C738,145,737.6,144.5,737,144.5z
		 M737,145.5v3h-8v-3H737z M729,152.5v-3h8v3H729z M729,156.5v-3h8v3H729z"/>
	<circle class="st14" cx="730.5" cy="147" r="0.5"/>
	<circle class="st14" cx="730.5" cy="151" r="0.5"/>
	<circle class="st14" cx="730.5" cy="155" r="0.5"/>
	<rect id="_x3C_Transparent_Rectangle_x3E__616_" x="725" y="143" class="st12" width="16" height="16"/>
</g>
<g id="Layer_2">
</g>
<text transform="matrix(1 0 0 1 332.6802 390.0707)" class="st6 st7 st8">de servicio</text>
</svg>
