<?xml version="1.0" encoding="UTF-8" standalone="no"?>
<svg
   xmlns:dc="http://purl.org/dc/elements/1.1/"
   xmlns:cc="http://creativecommons.org/ns#"
   xmlns:rdf="http://www.w3.org/1999/02/22-rdf-syntax-ns#"
   xmlns:svg="http://www.w3.org/2000/svg"
   xmlns="http://www.w3.org/2000/svg"
   xmlns:sodipodi="http://sodipodi.sourceforge.net/DTD/sodipodi-0.dtd"
   xmlns:inkscape="http://www.inkscape.org/namespaces/inkscape"
   id="Layer_1"
   data-name="Layer 1"
   viewBox="0 0 1300.69 386.14"
   version="1.1"
   inkscape:version="0.91 r13725"
   sodipodi:docname="troubleshooting_tools.svg">
  <metadata
     id="metadata475">
    <rdf:RDF>
      <cc:Work
         rdf:about="">
        <dc:format>image/svg+xml</dc:format>
        <dc:type
           rdf:resource="http://purl.org/dc/dcmitype/StillImage" />
      </cc:Work>
    </rdf:RDF>
  </metadata>
  <sodipodi:namedview
     pagecolor="#ffffff"
     bordercolor="#666666"
     borderopacity="1"
     objecttolerance="10"
     gridtolerance="10"
     guidetolerance="10"
     inkscape:pageopacity="0"
     inkscape:pageshadow="2"
     inkscape:window-width="1366"
     inkscape:window-height="706"
     id="namedview473"
     showgrid="false"
     inkscape:zoom="1.5178422"
     inkscape:cx="653.59767"
     inkscape:cy="236.67537"
     inkscape:window-x="-8"
     inkscape:window-y="-8"
     inkscape:window-maximized="1"
     inkscape:current-layer="Layer_1" />
  <defs
     id="defs3">
    <style
       id="style5">.cls-1{fill:#f2f6fc;}.cls-2,.cls-9{fill:#4272b8;}.cls-3,.cls-32,.cls-58,.cls-6,.cls-9{font-size:14px;}.cls-3,.cls-32,.cls-50,.cls-58,.cls-6{fill:#343434;}.cls-3,.cls-9{font-family:IBMPlexSans-Bold, IBM Plex Sans;font-weight:700;}.cls-4{letter-spacing:-0.01em;}.cls-5{letter-spacing:-0.01em;}.cls-25,.cls-36,.cls-50,.cls-58,.cls-6{font-family:IBMPlexSans, IBM Plex Sans;}.cls-7{letter-spacing:-0.01em;}.cls-8{letter-spacing:-0.01em;}.cls-10{letter-spacing:-0.04em;}.cls-11{letter-spacing:0em;}.cls-12{letter-spacing:-0.06em;}.cls-13{fill:#faf8ed;}.cls-14{fill:#bc9b2f;}.cls-15{letter-spacing:-0.02em;}.cls-16{letter-spacing:0em;}.cls-17,.cls-49{fill:none;stroke:#4272b8;}.cls-17,.cls-46,.cls-48,.cls-49{stroke-miterlimit:10;}.cls-17,.cls-46,.cls-48{stroke-width:2px;}.cls-18{fill:#e6e7e7;}.cls-19{fill:#595a5c;}.cls-20{font-size:13px;fill:#231f20;}.cls-20,.cls-32{font-family:IBMPlexSans-Medium, IBM Plex Sans;}.cls-21{letter-spacing:-0.01em;}.cls-22{letter-spacing:0em;}.cls-23{letter-spacing:-0.01em;}.cls-24{letter-spacing:0.01em;}.cls-25{font-size:9px;}.cls-26{letter-spacing:-0.02em;}.cls-27{letter-spacing:-0.01em;}.cls-28{letter-spacing:-0.01em;}.cls-29{letter-spacing:0em;}.cls-30{letter-spacing:0em;}.cls-31{letter-spacing:-0.01em;}.cls-33{letter-spacing:-0.01em;}.cls-34{letter-spacing:-0.01em;}.cls-35{fill:#973995;}.cls-36{font-size:10.82px;fill:#010101;}.cls-37{letter-spacing:0em;}.cls-38{letter-spacing:0em;}.cls-39{letter-spacing:0em;}.cls-40{letter-spacing:-0.02em;}.cls-41{letter-spacing:-0.01em;}.cls-42{letter-spacing:-0.01em;}.cls-43{letter-spacing:-0.02em;}.cls-44{letter-spacing:0.01em;}.cls-45{letter-spacing:0em;}.cls-46{fill:#f4dd9d;stroke:#bc9a30;}.cls-47{letter-spacing:-0.01em;}.cls-48{fill:#e2e8e6;stroke:#038571;}.cls-49{stroke-width:5px;stroke-dasharray:4 3;}.cls-50{font-size:11px;}.cls-51{letter-spacing:0em;}.cls-52{letter-spacing:-0.01em;}.cls-53{fill:#f9f0f6;}.cls-54{fill:#8d3493;}.cls-55{letter-spacing:-0.02em;}.cls-56{letter-spacing:0em;}.cls-57{letter-spacing:0em;}.cls-58{letter-spacing:-0.01em;}.cls-59{letter-spacing:0em;}.cls-60{letter-spacing:-0.01em;}.cls-61{letter-spacing:0em;}.cls-62{letter-spacing:0em;}.cls-63{letter-spacing:-0.01em;}.cls-64{letter-spacing:0.01em;}.cls-65{letter-spacing:-0.02em;}</style>
  </defs>
  <title
     id="title7">troubleshooting_tools</title>
  <rect
     class="cls-1"
     x="840.19"
     y="63.21"
     width="438.63"
     height="298.93"
     id="rect9" />
  <path
     class="cls-2"
     d="M1277.82,64.21V361.14H841.19V64.21h436.63m2-2H839.19V363.14h440.63V62.21Z"
     id="path11" />
  <rect
     class="cls-1"
     x="829.22"
     y="53.39"
     width="438.63"
     height="298.93"
     id="rect13" />
  <path
     class="cls-2"
     d="M1266.85,54.39V351.32H830.22V54.39h436.63m2-2H828.22V353.32h440.63V52.39Z"
     id="path15" />
  <rect
     class="cls-1"
     x="816.86"
     y="42.07"
     width="438.63"
     height="298.93"
     id="rect17" />
  <path
     class="cls-2"
     d="M1254.49,43.07V340H817.86V43.07h436.63m2-2H815.86V342h440.63V41.07Z"
     id="path19" />
  <text
     class="cls-3"
     transform="translate(962.59,70.87)"
     id="text21"
     style="font-weight:700;font-size:14px;font-family:IBMPlexSans-Bold, 'IBM Plex Sans';fill:#343434">
    <tspan
       style="font-style:normal;font-variant:normal;font-weight:bold;font-stretch:normal;font-family:Arial;-inkscape-font-specification:'Arial Bold'"
       id="tspan4635">IBM Edge Computing</tspan>
  </text>
  <rect
     class="cls-1"
     x="957.95"
     y="92.26"
     width="126.64"
     height="42.5"
     id="rect31" />
  <path
     class="cls-2"
     d="M1083.58,93.26v40.5H959V93.26h124.63m2-2H957v44.5h128.63V91.26Z"
     id="path33" />
  <text
     class="cls-6"
     id="text35"
     style="font-style:normal;font-variant:normal;font-weight:normal;font-stretch:normal;font-size:14px;font-family:Arial;-inkscape-font-specification:Arial;fill:#343434"
     x="962.92999"
     y="118.49">Agente de Horizon</text>
  <rect
     class="cls-1"
     x="34.28"
     y="47.45"
     width="424.68"
     height="302.64"
     id="rect45" />
  <path
     class="cls-2"
     d="M458,48.45V349.09H35.28V48.45H458m2-2H33.28V351.09H460V46.45Z"
     id="path47" />
  <text
     class="cls-9"
     id="text49"
     style="font-style:normal;font-variant:normal;font-weight:bold;font-stretch:normal;font-size:14px;font-family:Arial;-inkscape-font-specification:'Arial Bold';fill:#4272b8"
     x="634.88"
     y="16.25">
    <tspan
       x="492.29999"
       y="32.25"
       id="tspan51"
       style="font-style:normal;font-variant:normal;font-weight:bold;font-stretch:normal;font-family:Arial;-inkscape-font-specification:'Arial Bold'">Herramientas de resolución de problemas</tspan>
  </text>
  <rect
     class="cls-1"
     x="477.25"
     y="286.07"
     width="105.5"
     height="33.09"
     id="rect75" />
  <path
     class="cls-2"
     d="M581.75,287.07v31.09H478.25V287.07h103.5m2-2H476.25v35.09h107.5V285.07Z"
     id="path77" />
  <rect
     class="cls-1"
     x="675.25"
     y="286.07"
     width="105.5"
     height="33.09"
     id="rect79" />
  <path
     class="cls-2"
     d="M779.75,287.07v31.09H676.25V287.07h103.5m2-2H674.25v35.09h107.5V285.07Z"
     id="path81" />
  <rect
     class="cls-13"
     x="893.83"
     y="251.51"
     width="56.96"
     height="30.82"
     id="rect83" />
  <path
     class="cls-14"
     d="M949.79,252.51v28.82h-55V252.51h55m2-2h-59v32.82h59V250.51Z"
     id="path85" />
  <text
     class="cls-6"
     transform="translate(902.63 269.21)"
     id="text87">
    <tspan
       class="cls-15"
       id="tspan89">s</tspan>
    <tspan
       class="cls-16"
       x="6.57"
       y="0"
       id="tspan91">y</tspan>
    <tspan
       x="13.5"
       y="0"
       id="tspan93">slog</tspan>
  </text>
  <line
     class="cls-17"
     x1="678.24"
     y1="178.87"
     x2="641.01"
     y2="115.43"
     id="line95" />
  <polygon
     class="cls-2"
     points="645.54 114.29 637.74 109.86 637.8 118.83 645.54 114.29"
     id="polygon97" />
  <rect
     class="cls-18"
     x="557.74"
     y="62.25"
     width="137.64"
     height="46.6"
     rx="19.54"
     ry="19.54"
     id="rect99" />
  <path
     class="cls-19"
     d="M675.83,63.25A18.57,18.57,0,0,1,694.38,81.8v7.51a18.57,18.57,0,0,1-18.55,18.55H577.28a18.57,18.57,0,0,1-18.54-18.55V81.8a18.57,18.57,0,0,1,18.54-18.55h98.55m0-2H577.28A20.55,20.55,0,0,0,556.74,81.8v7.51a20.55,20.55,0,0,0,20.54,20.55h98.55a20.55,20.55,0,0,0,20.55-20.55V81.8a20.55,20.55,0,0,0-20.55-20.55Z"
     id="path101" />
  <rect
     class="cls-1"
     x="266.52"
     y="115.99"
     width="126.64"
     height="42.5"
     id="rect137" />
  <path
     class="cls-2"
     d="M392.16,117v40.5H267.52V117H392.16m2-2H265.52v44.5H394.16V115Z"
     id="path139" />
  <text
     class="cls-6"
     transform="translate(273.37 140.53)"
     id="text141"
     style="-inkscape-font-specification:Arial;font-family:Arial;font-weight:normal;font-style:normal;font-stretch:normal;font-variant:normal;">Hori<tspan
   class="cls-7"
   x="26.38"
   y="0"
   id="tspan143"
   style="-inkscape-font-specification:Arial;font-family:Arial;font-weight:normal;font-style:normal;font-stretch:normal;font-variant:normal;">z</tspan>
<tspan
   x="32.73"
   y="0"
   id="tspan145"
   style="-inkscape-font-specification:Arial;font-family:Arial;font-weight:normal;font-style:normal;font-stretch:normal;font-variant:normal;">on E</tspan>
<tspan
   class="cls-31"
   x="59.99"
   y="0"
   id="tspan147"
   style="-inkscape-font-specification:Arial;font-family:Arial;font-weight:normal;font-style:normal;font-stretch:normal;font-variant:normal;">x</tspan>
<tspan
   x="66.92"
   y="0"
   id="tspan149"
   style="-inkscape-font-specification:Arial;font-family:Arial;font-weight:normal;font-style:normal;font-stretch:normal;font-variant:normal;">chan</tspan>
<tspan
   class="cls-8"
   x="97.34"
   y="0"
   id="tspan151"
   style="-inkscape-font-specification:Arial;font-family:Arial;font-weight:normal;font-style:normal;font-stretch:normal;font-variant:normal;">g</tspan>
<tspan
   x="104.65"
   y="0"
   id="tspan153"
   style="-inkscape-font-specification:Arial;font-family:Arial;font-weight:normal;font-style:normal;font-stretch:normal;font-variant:normal;">e</tspan>
</text>
  <text
     class="cls-3"
     transform="translate(164.31,74.77)"
     id="text155"
     style="font-weight:700;font-size:14px;font-family:IBMPlexSans-Bold, 'IBM Plex Sans';fill:#343434">
    <tspan
       style="font-style:normal;font-variant:normal;font-weight:bold;font-stretch:normal;font-family:Arial;-inkscape-font-specification:'Arial Bold'"
       id="tspan4629">IBM Edge Computing</tspan>
  </text>
  <text
     class="cls-32"
     transform="scale(1.0198039,0.98058068)"
     id="text165"
     style="font-style:normal;font-variant:normal;font-weight:normal;font-stretch:normal;font-size:14.27725506px;font-family:Arial;-inkscape-font-specification:Arial;fill:#343434"
     x="574.87518"
     y="292.59195">D<tspan
   class="cls-33"
   x="584.62451"
   y="292.59195"
   id="tspan167"
   style="font-style:normal;font-variant:normal;font-weight:normal;font-stretch:normal;font-family:Arial;-inkscape-font-specification:Arial;letter-spacing:-0.01em">esarrollador</tspan>
</text>
  <path
     class="cls-35"
     d="M628.14,211.44c9.82,0,17.8,7.7,17.8,17.17s-8,17.17-17.8,17.17-17.8-7.7-17.8-17.17,8-17.17,17.8-17.17m0-3c-11.54,0-20.89,9-20.89,20.16s9.35,20.16,20.89,20.16,20.9-9,20.9-20.16-9.36-20.16-20.9-20.16Z"
     id="path173" />
  <path
     class="cls-35"
     d="M610.7,253.25h34.89a5,5,0,0,1,5,5v9.93a0,0,0,0,1,0,0H605.7a0,0,0,0,1,0,0v-9.93A5,5,0,0,1,610.7,253.25Z"
     id="path175" />
  <line
     class="cls-17"
     x1="476.25"
     y1="309.12"
     x2="450.56"
     y2="309.35"
     id="line177" />
  <polygon
     class="cls-2"
     points="451.83 304.85 444.1 309.4 451.91 313.82 451.83 304.85"
     id="polygon179" />
  <line
     class="cls-17"
     x1="743.96"
     y1="247.04"
     x2="879.77"
     y2="267.23"
     id="line181" />
  <polygon
     class="cls-2"
     points="877.81 271.48 886.16 268.18 879.13 262.6 877.81 271.48"
     id="polygon183" />
  <line
     class="cls-17"
     x1="1003.81"
     y1="286.02"
     x2="795.4"
     y2="308.98"
     id="line185" />
  <polygon
     class="cls-2"
     points="796.21 304.37 788.98 309.68 797.2 313.29 796.21 304.37"
     id="polygon187" />
  <line
     class="cls-17"
     x1="741.87"
     y1="226.08"
     x2="831.15"
     y2="150.97"
     id="line189" />
  <polygon
     class="cls-2"
     points="833.03 155.25 836.09 146.81 827.25 148.38 833.03 155.25"
     id="polygon191" />
  <line
     class="cls-17"
     x1="745.8"
     y1="238.34"
     x2="860.02"
     y2="230.77"
     id="line193" />
  <polygon
     class="cls-2"
     points="859.01 235.34 866.47 230.35 858.41 226.38 859.01 235.34"
     id="polygon195" />
  <line
     class="cls-17"
     x1="743.83"
     y1="230.76"
     x2="840.79"
     y2="189.43"
     id="line197" />
  <polygon
     class="cls-2"
     points="841.34 194.07 846.73 186.89 837.82 185.81 841.34 194.07"
     id="polygon199" />
  <line
     class="cls-17"
     x1="513.9"
     y1="236.28"
     x2="404.36"
     y2="199.65"
     id="line201" />
  <polygon
     class="cls-2"
     points="407.03 195.81 398.24 197.6 404.18 204.32 407.03 195.81"
     id="polygon203" />
  <line
     class="cls-17"
     x1="523.68"
     y1="189.28"
     x2="447.88"
     y2="252.59"
     id="line205" />
  <polygon
     class="cls-2"
     points="446.01 248.3 442.93 256.73 451.77 255.19 446.01 248.3"
     id="polygon207" />
  <line
     class="cls-17"
     x1="574.24"
     y1="178.87"
     x2="615.71"
     y2="115.27"
     id="line209" />
  <polygon
     class="cls-2"
     points="618.75 118.82 619.24 109.86 611.24 113.92 618.75 118.82"
     id="polygon211" />
  <text
     class="cls-36"
     transform="translate(509.84 306.8)"
     id="text213">
    <tspan
       class="cls-37"
       id="tspan215">k</tspan>
    <tspan
       x="5.65"
       y="0"
       id="tspan217">af</tspan>
    <tspan
       class="cls-38"
       x="14.93"
       y="0"
       id="tspan219">k</tspan>
    <tspan
       class="cls-39"
       x="20.58"
       y="0"
       id="tspan221">acat</tspan>
  </text>
  <rect
     class="cls-1"
     x="674.99"
     y="223.52"
     width="69.5"
     height="24.25"
     id="rect223" />
  <path
     class="cls-2"
     d="M743.49,224.52v22.25H676V224.52h67.5m2-2H674v26.25h71.5V222.52Z"
     id="path225" />
  <rect
     class="cls-1"
     x="665.99"
     y="179.87"
     width="69.5"
     height="24.25"
     id="rect227" />
  <path
     class="cls-2"
     d="M734.49,180.87v22.25H667V180.87h67.5m2-2H665v26.25h71.5V178.87Z"
     id="path229" />
  <text
     class="cls-36"
     transform="translate(684.56 197.6)"
     id="text231">doc<tspan
   class="cls-40"
   x="17.78"
   y="0"
   id="tspan233">k</tspan>
<tspan
   x="23.29"
   y="0"
   id="tspan235">er</tspan>
</text>
  <text
     class="cls-36"
     transform="translate(699.35 239.69)"
     id="text237">
    <tspan
       class="cls-41"
       id="tspan239">s</tspan>
    <tspan
       x="5.2"
       y="0"
       id="tspan241">sh</tspan>
  </text>
  <rect
     class="cls-46"
     x="156.77"
     y="256.73"
     width="178.75"
     height="48.34"
     rx="20.55"
     ry="20.55"
     id="rect255" />
  <text
     class="cls-3"
     transform="translate(181.25,285.07)"
     id="text257"
     style="font-weight:700;font-size:14px;font-family:IBMPlexSans-Bold, 'IBM Plex Sans';fill:#343434">
    <tspan
       style="font-style:normal;font-variant:normal;font-weight:bold;font-stretch:normal;font-family:Arial;-inkscape-font-specification:'Arial Bold'"
       id="tspan4643">IBM Event Streams</tspan>
  </text>
  <rect
     class="cls-48"
     x="83.11"
     y="162.22"
     width="161.12"
     height="41.09"
     rx="20.55"
     ry="20.55"
     id="rect271" />
  <rect
     class="cls-48"
     x="65.85"
     y="170.99"
     width="167.29"
     height="41.09"
     rx="20.55"
     ry="20.55"
     id="rect273" />
  <rect
     class="cls-48"
     x="51.66"
     y="180.08"
     width="167.29"
     height="41.09"
     rx="20.55"
     ry="20.55"
     id="rect275" />
  <text
     class="cls-6"
     id="text277"
     style="font-style:normal;font-variant:normal;font-weight:normal;font-stretch:normal;font-size:14px;font-family:Arial;-inkscape-font-specification:Arial;fill:#343434"
     x="47.540001"
     y="204.05">
    <tspan
       x="80.269997"
       y="204.05"
       id="tspan281"
       style="font-style:normal;font-variant:normal;font-weight:normal;font-stretch:normal;font-family:Arial;-inkscape-font-specification:Arial">AgBot de Horizon</tspan>
  </text>
  <line
     class="cls-49"
     x1="1148.42"
     y1="170.72"
     x2="1288.2"
     y2="170.72"
     id="line283" />
  <line
     class="cls-49"
     x1="27.71"
     y1="282.81"
     x2="156.77"
     y2="282.81"
     id="line285" />
  <text
     class="cls-50"
     id="text287"
     style="font-style:normal;font-variant:normal;font-weight:normal;font-stretch:normal;font-size:11px;font-family:Arial;-inkscape-font-specification:Arial;fill:#343434"
     x="2.4900017"
     y="300.12">
    <tspan
       x="46.550003"
       y="300.12"
       id="tspan295"
       style="font-style:normal;font-variant:normal;font-weight:normal;font-stretch:normal;font-family:Arial;-inkscape-font-specification:Arial">de nodos periféricos</tspan>
  </text>
  <line
     class="cls-17"
     x1="363.82"
     y1="314.38"
     x2="341.21"
     y2="302.27"
     id="line297" />
  <polygon
     class="cls-2"
     points="344.48 298.94 335.51 299.23 340.25 306.85 344.48 298.94"
     id="polygon299" />
  <line
     class="cls-17"
     x1="356.3"
     y1="183.35"
     x2="356.18"
     y2="169.28"
     id="line301" />
  <polygon
     class="cls-2"
     points="360.68 170.56 356.13 162.83 351.7 170.63 360.68 170.56"
     id="polygon303" />
  <line
     class="cls-17"
     x1="895.6"
     y1="143.41"
     x2="942.65"
     y2="165.03"
     id="line305" />
  <polygon
     class="cls-2"
     points="939.59 168.56 948.52 167.73 943.33 160.4 939.59 168.56"
     id="polygon307" />
  <line
     class="cls-17"
     x1="363.3"
     y1="259.24"
     x2="343.81"
     y2="268.73"
     id="line309" />
  <polygon
     class="cls-2"
     points="343.02 264.12 338 271.56 346.95 272.19 343.02 264.12"
     id="polygon311" />
  <rect
     class="cls-53"
     x="363"
     y="247.17"
     width="76.42"
     height="35.39"
     id="rect313" />
  <path
     class="cls-54"
     d="M438.43,248.17v33.39H364V248.17h74.43m2-2H362v37.39h78.43V246.17Z"
     id="path315" />
  <text
     class="cls-6"
     transform="translate(377.98,269.01)"
     id="text317"
     style="font-style:normal;font-variant:normal;font-weight:normal;font-stretch:normal;font-size:14px;font-family:Arial;-inkscape-font-specification:Arial;fill:#343434">
    <tspan
       class="cls-55"
       id="tspan319"
       style="font-style:normal;font-variant:normal;font-weight:normal;font-stretch:normal;font-family:Arial;-inkscape-font-specification:Arial;letter-spacing:-0.02em">IU Web</tspan>
  </text>
  <rect
     class="cls-53"
     x="1065.91"
     y="153.29"
     width="81.37"
     height="35.39"
     id="rect323" />
  <path
     class="cls-54"
     d="M1146.28,154.29v33.39h-79.37V154.29h79.37m2-2h-83.37v37.39h83.37V152.29Z"
     id="path325" />
  <text
     class="cls-6"
     transform="translate(1077.03 173.2) scale(1.06 1)"
     id="text327">
    <tspan
       class="cls-56"
       id="tspan329">k</tspan>
    <tspan
       x="7.31"
       y="0"
       id="tspan331">af</tspan>
    <tspan
       class="cls-57"
       x="19.32"
       y="0"
       id="tspan333">k</tspan>
    <tspan
       x="26.63"
       y="0"
       id="tspan335">acat</tspan>
  </text>
  <rect
     class="cls-53"
     x="363"
     y="295.71"
     width="76.42"
     height="35.39"
     id="rect337" />
  <path
     class="cls-54"
     d="M438.43,296.71V330.1H364V296.71h74.43m2-2H362V332.1h78.43V294.71Z"
     id="path339" />
  <text
     class="cls-58"
     transform="translate(382.44 315.62)"
     id="text341">K<tspan
   class="cls-59"
   x="8.67"
   y="0"
   id="tspan343">af</tspan>
<tspan
   class="cls-11"
   x="20.68"
   y="0"
   id="tspan345">k</tspan>
<tspan
   class="cls-59"
   x="27.99"
   y="0"
   id="tspan347">a</tspan>
</text>
  <rect
     class="cls-53"
     x="316.73"
     y="182.93"
     width="76.42"
     height="35.39"
     id="rect349" />
  <path
     class="cls-54"
     d="M392.16,183.93v33.39H317.73V183.93h74.43m2-2H315.73v37.39h78.43V181.93Z"
     id="path351" />
  <text
     class="cls-6"
     transform="translate(324.18,204.77)"
     id="text353"
     style="font-style:normal;font-variant:normal;font-weight:normal;font-stretch:normal;font-size:14px;font-family:Arial;-inkscape-font-specification:Arial;fill:#343434">API REST</text>
  <path
     class="cls-17"
     d="M284.53,164.38c0,29.42,0,31.44-27.16,31.58"
     id="path359" />
  <polygon
     class="cls-2"
     points="258.65 191.44 250.91 195.97 258.7 200.41 258.65 191.44"
     id="polygon361" />
  <rect
     class="cls-1"
     x="521.99"
     y="180.16"
     width="69.5"
     height="24.25"
     id="rect363" />
  <path
     class="cls-2"
     d="M590.49,181.16v22.25H523V181.16h67.5m2-2H521v26.25h71.5V179.16Z"
     id="path365" />
  <text
     class="cls-36"
     id="text367"
     style="font-size:10.81999969px;font-family:IBMPlexSans, 'IBM Plex Sans';fill:#010101"
     x="529.40997"
     y="197.60001">
    <tspan
       style="font-style:normal;font-variant:normal;font-weight:normal;font-stretch:normal;font-family:Arial;-inkscape-font-specification:Arial"
       id="tspan4645">Navegador</tspan>
  </text>
  <rect
     class="cls-1"
     x="512.99"
     y="224.87"
     width="69.5"
     height="24.25"
     id="rect375" />
  <path
     class="cls-2"
     d="M581.49,225.87v22.25H514V225.87h67.5m2-2H512v26.25h71.5V223.87Z"
     id="path377" />
  <text
     class="cls-36"
     transform="translate(530.79 239.69)"
     id="text379">cur<tspan
   class="cls-44"
   x="15.56"
   y="0"
   id="tspan381">l</tspan>
<tspan
   x="18.61"
   y="0"
   id="tspan383">, jq</tspan>
</text>
  <rect
     class="cls-13"
     x="839.29"
     y="129.04"
     width="58"
     height="30.64"
     id="rect401" />
  <path
     class="cls-14"
     d="M896.28,130v28.64h-56V130h56m2-2h-60v32.64h60V128Z"
     id="path403" />
  <text
     class="cls-6"
     transform="translate(846.88 148.04)"
     id="text405">cur<tspan
   class="cls-64"
   x="20.13"
   y="0"
   id="tspan407">l</tspan>
<tspan
   x="24.08"
   y="0"
   id="tspan409">, jq</tspan>
</text>
  <line
     class="cls-17"
     x1="1004.07"
     y1="278.14"
     x2="959.38"
     y2="271.11"
     id="line411" />
  <polygon
     class="cls-2"
     points="961.37 266.89 953 270.11 959.98 275.75 961.37 266.89"
     id="polygon413" />
  <line
     class="cls-17"
     x1="992.21"
     y1="163.68"
     x2="992.03"
     y2="144.14"
     id="line415" />
  <polygon
     class="cls-2"
     points="996.53 145.41 991.97 137.68 987.55 145.49 996.53 145.41"
     id="polygon417" />
  <line
     class="cls-17"
     x1="1091.93"
     y1="243.53"
     x2="1091.5"
     y2="197.99"
     id="line419" />
  <polygon
     class="cls-2"
     points="1096.01 199.26 1091.44 191.53 1087.03 199.35 1096.01 199.26"
     id="polygon421" />
  <line
     class="cls-17"
     x1="910.54"
     y1="195.35"
     x2="943.22"
     y2="179.44"
     id="line423" />
  <polygon
     class="cls-2"
     points="944 184.06 949.02 176.62 940.07 175.98 944 184.06"
     id="polygon425" />
  <rect
     class="cls-13"
     x="853.33"
     y="171.03"
     width="60.26"
     height="30.82"
     id="rect427" />
  <path
     class="cls-14"
     d="M912.59,172v28.83H854.33V172h58.26m2-2H852.33v32.83h62.26V170Z"
     id="path429" />
  <text
     class="cls-6"
     transform="translate(872.26 189.25)"
     id="text431">hzn</text>
  <line
     class="cls-17"
     x1="926.04"
     y1="229.46"
     x2="998.14"
     y2="255.42"
     id="line433" />
  <polygon
     class="cls-2"
     points="995.38 259.2 1004.21 257.61 998.42 250.75 995.38 259.2"
     id="polygon435" />
  <rect
     class="cls-13"
     x="872.37"
     y="213.68"
     width="60.26"
     height="30.82"
     id="rect437" />
  <path
     class="cls-14"
     d="M931.63,214.68V243.5H873.37V214.68h58.26m2-2H871.37V245.5h62.26V212.68Z"
     id="path439" />
  <text
     class="cls-6"
     transform="translate(880.38 234.34)"
     id="text441">Doc<tspan
   class="cls-65"
   x="24.28"
   y="0"
   id="tspan443">k</tspan>
<tspan
   x="31.42"
   y="0"
   id="tspan445">er</tspan>
</text>
  <rect
     class="cls-48"
     x="1024.4"
     y="239.74"
     width="96.69"
     height="41.09"
     rx="20.55"
     ry="20.55"
     id="rect447" />
  <rect
     class="cls-48"
     x="1008.32"
     y="248.51"
     width="102.37"
     height="41.09"
     rx="20.55"
     ry="20.55"
     id="rect449" />
  <rect
     class="cls-48"
     x="999.64"
     y="257.6"
     width="102.37"
     height="41.09"
     rx="20.55"
     ry="20.55"
     id="rect451" />
  <text
     class="cls-6"
     transform="translate(1025.47,280.83)"
     id="text453"
     style="font-size:14px;font-family:Arial;fill:#343434;-inkscape-font-specification:Arial;font-weight:normal;font-style:normal;font-stretch:normal;font-variant:normal;">Se<tspan
   class="cls-64"
   x="15.82"
   y="0"
   id="tspan455"
   style="letter-spacing:0.01em;-inkscape-font-specification:Arial;font-family:Arial;font-weight:normal;font-style:normal;font-stretch:normal;font-variant:normal;">r</tspan>
<tspan
   x="21.1"
   y="0"
   id="tspan457"
   style="-inkscape-font-specification:Arial;font-family:Arial;font-weight:normal;font-style:normal;font-stretch:normal;font-variant:normal;">vi</tspan>
<tspan
   class="cls-8"
   x="31.49"
   y="0"
   id="tspan459"
   style="letter-spacing:-0.01em;-inkscape-font-specification:Arial;font-family:Arial;font-weight:normal;font-style:normal;font-stretch:normal;font-variant:normal;">cio</tspan>
<tspan
   x="38.439999"
   y="0"
   id="tspan461"
   style="-inkscape-font-specification:Arial;font-family:Arial;font-weight:normal;font-style:normal;font-stretch:normal;font-variant:normal;" />
</text>
  <rect
     class="cls-53"
     x="954"
     y="153.29"
     width="76.42"
     height="35.39"
     id="rect463" />
  <path
     class="cls-54"
     d="M1029.42,154.29v33.39H955V154.29h74.42m2-2H953v37.39h78.42V152.29Z"
     id="path465" />
  <text
     y="31.964134"
     x="691.81732"
     class="cls-9"
     id="text49-4"
     style="font-style:normal;font-variant:normal;font-weight:bold;font-stretch:normal;font-size:14px;font-family:Arial;-inkscape-font-specification:'Arial Bold';fill:#4272b8">
    <tspan
       x="549.2373"
       y="47.964134"
       id="tspan51-9"
       style="font-style:normal;font-variant:normal;font-weight:bold;font-stretch:normal;font-family:Arial;-inkscape-font-specification:'Arial Bold'">de IBM Edge Computing</tspan>
  </text>
  <text
     xml:space="preserve"
     style="font-style:normal;font-weight:normal;font-size:12.5px;line-height:125%;font-family:sans-serif;text-align:start;letter-spacing:0px;word-spacing:0px;text-anchor:start;fill:#000000;fill-opacity:1;stroke:none;stroke-width:1px;stroke-linecap:butt;stroke-linejoin:miter;stroke-opacity:1"
     x="190.07217"
     y="70.28479"
     id="text4631"
     sodipodi:linespacing="125%"><tspan
       sodipodi:role="line"
       id="tspan4633"
       x="190.07217"
       y="70.28479"> </tspan></text>
  <text
     xml:space="preserve"
     style="font-style:normal;font-weight:normal;font-size:12.5px;line-height:125%;font-family:sans-serif;text-align:center;letter-spacing:0px;word-spacing:0px;text-anchor:middle;fill:#000000;fill-opacity:1;stroke:none;stroke-width:1px;stroke-linecap:butt;stroke-linejoin:miter;stroke-opacity:1"
     x="629.06311"
     y="82.94342"
     id="text4637"
     sodipodi:linespacing="125%"><tspan
       sodipodi:role="line"
       id="tspan4639"
       x="629.06311"
       y="82.94342"
       style="font-style:normal;font-variant:normal;font-weight:normal;font-stretch:normal;font-size:13.25px;font-family:Arial;-inkscape-font-specification:Arial">Registro</tspan><tspan
       sodipodi:role="line"
       x="629.06311"
       y="95.938644"
       id="tspan4641"
       style="font-style:normal;font-variant:normal;font-weight:normal;font-stretch:normal;font-size:9.625px;font-family:Arial;-inkscape-font-specification:Arial">(Docker Hub o Private)</tspan></text>
  <text
     xml:space="preserve"
     style="font-style:normal;font-weight:normal;font-size:12.5px;line-height:125%;font-family:sans-serif;text-align:start;letter-spacing:0px;word-spacing:0px;text-anchor:start;fill:#000000;fill-opacity:1;stroke:none;stroke-width:1px;stroke-linecap:butt;stroke-linejoin:miter;stroke-opacity:1"
     x="728.19122"
     y="298.79828"
     id="text4656"
     sodipodi:linespacing="125%"><tspan
       sodipodi:role="line"
       id="tspan4658"
       x="729.68195"
       y="298.79828"
       style="font-style:normal;font-variant:normal;font-weight:normal;font-stretch:normal;font-size:10.75px;font-family:Arial;-inkscape-font-specification:Arial;text-align:center;text-anchor:middle">Definido por </tspan><tspan
       sodipodi:role="line"
       x="728.19122"
       y="312.23578"
       id="tspan4660"
       style="font-style:normal;font-variant:normal;font-weight:normal;font-stretch:normal;font-size:10.75px;font-family:Arial;-inkscape-font-specification:Arial;text-align:center;text-anchor:middle">el desarrollador</tspan></text>
  <text
     y="175.03101"
     x="959.604"
     class="cls-6"
     id="text353-8"
     style="font-style:normal;font-variant:normal;font-weight:normal;font-stretch:normal;font-size:14px;font-family:Arial;-inkscape-font-specification:Arial;fill:#343434">API REST</text>
  <text
     xml:space="preserve"
     style="font-style:normal;font-variant:normal;font-weight:normal;font-stretch:normal;font-size:11px;line-height:125%;font-family:Arial;-inkscape-font-specification:Arial;text-align:center;letter-spacing:0px;word-spacing:0px;text-anchor:middle;fill:#000000;fill-opacity:1;stroke:none;stroke-width:1px;stroke-linecap:butt;stroke-linejoin:miter;stroke-opacity:1"
     x="1207.5157"
     y="188.70316"
     id="text4677"
     sodipodi:linespacing="125%"><tspan
       sodipodi:role="line"
       id="tspan4679"
       x="1207.5157"
       y="188.70316">a IBM Event</tspan><tspan
       sodipodi:role="line"
       x="1207.5157"
       y="202.45316"
       id="tspan4681">Streams</tspan></text>
</svg>
