<?xml version="1.0" encoding="UTF-8" standalone="no"?>
<svg
   xmlns:dc="http://purl.org/dc/elements/1.1/"
   xmlns:cc="http://creativecommons.org/ns#"
   xmlns:rdf="http://www.w3.org/1999/02/22-rdf-syntax-ns#"
   xmlns:svg="http://www.w3.org/2000/svg"
   xmlns="http://www.w3.org/2000/svg"
   xmlns:sodipodi="http://sodipodi.sourceforge.net/DTD/sodipodi-0.dtd"
   xmlns:inkscape="http://www.inkscape.org/namespaces/inkscape"
   id="Layer_1"
   data-name="Layer 1"
   viewBox="0 0 658.43 502.91"
   version="1.1"
   inkscape:version="0.91 r13725"
   sodipodi:docname="updates_new.svg">
  <metadata
     id="metadata515">
    <rdf:RDF>
      <cc:Work
         rdf:about="">
        <dc:format>image/svg+xml</dc:format>
        <dc:type
           rdf:resource="http://purl.org/dc/dcmitype/StillImage" />
        <dc:title>devcycle</dc:title>
      </cc:Work>
    </rdf:RDF>
  </metadata>
  <sodipodi:namedview
     pagecolor="#ffffff"
     bordercolor="#666666"
     borderopacity="1"
     objecttolerance="10"
     gridtolerance="10"
     guidetolerance="10"
     inkscape:pageopacity="0"
     inkscape:pageshadow="2"
     inkscape:window-width="1366"
     inkscape:window-height="706"
     id="namedview513"
     showgrid="false"
     inkscape:zoom="1.3272927"
     inkscape:cx="164.03537"
     inkscape:cy="256.32507"
     inkscape:window-x="-8"
     inkscape:window-y="-8"
     inkscape:window-maximized="1"
     inkscape:current-layer="Layer_1" />
  <defs
     id="defs3">
    <style
       id="style5">.cls-1,.cls-48,.cls-51{fill:none;}.cls-2,.cls-21,.cls-6{font-size:14px;}.cls-2{fill:#343434;}.cls-2,.cls-21,.cls-28,.cls-47,.cls-6{font-family:IBMPlexSans-Medium, IBM Plex Sans;}.cls-3{letter-spacing:-0.01em;}.cls-4{letter-spacing:-0.01em;}.cls-5{fill:#973995;}.cls-28,.cls-49,.cls-54,.cls-6{fill:#4272b8;}.cls-7{letter-spacing:-0.01em;}.cls-8{letter-spacing:-0.01em;}.cls-9{font-size:11px;fill:#231f20;font-family:IBMPlexSans, IBM Plex Sans;}.cls-10{letter-spacing:-0.01em;}.cls-11{letter-spacing:-0.01em;}.cls-12{letter-spacing:-0.01em;}.cls-13{letter-spacing:-0.01em;}.cls-14{letter-spacing:-0.02em;}.cls-15{letter-spacing:0em;}.cls-16{letter-spacing:0em;}.cls-17{letter-spacing:-0.02em;}.cls-18{letter-spacing:0em;}.cls-19{letter-spacing:-0.01em;}.cls-20{letter-spacing:-0.01em;}.cls-21{fill:#bb9930;}.cls-21,.cls-50{opacity:0.5;}.cls-22{letter-spacing:0em;}.cls-23{letter-spacing:0em;}.cls-24{letter-spacing:-0.02em;}.cls-25{letter-spacing:-0.01em;}.cls-26{letter-spacing:0.01em;}.cls-27{letter-spacing:-0.01em;}.cls-28{font-size:13.66px;}.cls-29{letter-spacing:-0.01em;}.cls-30{letter-spacing:-0.01em;}.cls-31{letter-spacing:-0.01em;}.cls-32{letter-spacing:-0.01em;}.cls-33{letter-spacing:0em;}.cls-34{letter-spacing:-0.01em;}.cls-35{letter-spacing:0em;}.cls-36{letter-spacing:-0.02em;}.cls-37{letter-spacing:-0.06em;}.cls-38{letter-spacing:-0.01em;}.cls-39{letter-spacing:0em;}.cls-40{letter-spacing:-0.01em;}.cls-41{letter-spacing:-0.01em;}.cls-42{letter-spacing:0.01em;}.cls-43{letter-spacing:-0.01em;}.cls-44{letter-spacing:-0.02em;}.cls-45{letter-spacing:0em;}.cls-46{letter-spacing:-0.02em;}.cls-48{stroke:#4272b8;}.cls-48,.cls-51{stroke-miterlimit:10;stroke-width:2px;}.cls-51{stroke:#bc9a30;}.cls-52{fill:#bc9a30;}.cls-53{fill:#f2f6fc;}.cls-54{font-size:32px;font-family:IBMPlexSans-Bold, IBM Plex Sans;font-weight:700;}</style>
  </defs>
  <title
     id="title7">devcycle</title>
  <line
     class="cls-1"
     x1="363.4"
     y1="113.66"
     x2="588.4"
     y2="127.78"
     id="line9" />
  <text
     class="cls-2"
     transform="scale(1.0198039,0.98058068)"
     id="text11"
     style="font-size:14.27725506px;font-family:IBMPlexSans-Medium, 'IBM Plex Sans';fill:#343434"
     x="169.40509"
     y="264.88388">
    <tspan
       style="font-style:normal;font-variant:normal;font-weight:normal;font-stretch:normal;font-family:Arial;-inkscape-font-specification:Arial"
       id="tspan5487">Desarrollador</tspan>
  </text>
  <path
     class="cls-5"
     d="M216.65,185.55c9.81,0,17.8,7.7,17.8,17.17s-8,17.17-17.8,17.17-17.8-7.7-17.8-17.17,8-17.17,17.8-17.17m0-3c-11.54,0-20.9,9-20.9,20.16s9.36,20.16,20.9,20.16,20.89-9,20.89-20.16-9.35-20.16-20.89-20.16Z"
     id="path19" />
  <path
     class="cls-5"
     d="M199.2,227.36h34.89a5,5,0,0,1,5,5v9.93a0,0,0,0,1,0,0H194.2a0,0,0,0,1,0,0v-9.93A5,5,0,0,1,199.2,227.36Z"
     id="path21" />
  <path
     class="cls-48"
     d="M51.9,272.87c-5.88,16.81,0,35.13,14.78,43"
     id="path455" />
  <polygon
     class="cls-49"
     points="47.33 272.36 54.5 266.96 55.59 275.87 47.33 272.36"
     id="polygon457" />
  <path
     class="cls-48"
     d="M403.47,312.15c6.5-6,8.9-18.28,5.3-31"
     id="path459" />
  <polygon
     class="cls-49"
     points="406.82 315.06 397.85 315.32 402.11 307.42 406.82 315.06"
     id="polygon461" />
  <g
     class="cls-50"
     id="g463">
    <path
       class="cls-51"
       d="M431.44,342.74c68-47.35,68.44-129.48-.38-186.27"
       id="path465" />
    <polygon
       class="cls-52"
       points="435.01 345.7 426.06 346.31 430 338.25 435.01 345.7"
       id="polygon467" />
  </g>
  <g
     class="cls-50"
     id="g469">
    <path
       class="cls-51"
       d="M339,156.26c-76.57,41.41-85.4,125-18.72,189.5"
       id="path471" />
    <polygon
       class="cls-52"
       points="335.8 152.93 344.76 153.3 339.96 160.88 335.8 152.93"
       id="polygon473" />
  </g>
  <path
     class="cls-48"
     d="M129.33,365.37c67,54.44,159.47,53.06,209.26-4.15"
     id="path475" />
  <polygon
     class="cls-49"
     points="127.49 369.64 124.38 361.21 133.23 362.74 127.49 369.64"
     id="polygon477" />
  <path
     class="cls-48"
     d="M386.38,116.35c-4.75-41.57-55.07-74.22-116.56-74.22"
     id="path479" />
  <polygon
     class="cls-49"
     points="390.69 114.73 386.75 122.79 381.74 115.35 390.69 114.73"
     id="polygon481" />
  <path
     class="cls-53"
     d="M377.23,378.11c-18.49,0-33.54-12.94-33.54-28.85s15.05-28.85,33.54-28.85,33.53,12.95,33.53,28.85S395.72,378.11,377.23,378.11Z"
     id="path483" />
  <path
     class="cls-49"
     d="M377.23,321.41c17.94,0,32.53,12.5,32.53,27.85s-14.59,27.85-32.53,27.85-32.54-12.49-32.54-27.85,14.6-27.85,32.54-27.85m0-2c-19.07,0-34.54,13.37-34.54,29.85s15.47,29.85,34.54,29.85,34.53-13.36,34.53-29.85-15.46-29.85-34.53-29.85Z"
     id="path485" />
  <text
     class="cls-54"
     transform="translate(367.63 358.66)"
     id="text487">3</text>
  <path
     class="cls-53"
     d="M389.5,191.1C371,191.1,356,178.15,356,162.25s15-28.85,33.53-28.85S423,146.34,423,162.25,408,191.1,389.5,191.1Z"
     id="path489" />
  <path
     class="cls-49"
     d="M389.5,134.4c17.94,0,32.53,12.49,32.53,27.85S407.44,190.1,389.5,190.1,357,177.6,357,162.25s14.59-27.85,32.53-27.85m0-2c-19.07,0-34.53,13.36-34.53,29.85s15.46,29.85,34.53,29.85S424,178.73,424,162.25,408.57,132.4,389.5,132.4Z"
     id="path491" />
  <text
     class="cls-54"
     transform="translate(379.9 171.64)"
     id="text493">2</text>
  <path
     class="cls-53"
     d="M79.08,161.25c-18.49,0-33.53-12.95-33.53-28.85s15-28.85,33.53-28.85,33.54,12.94,33.54,28.85S97.57,161.25,79.08,161.25Z"
     id="path495" />
  <path
     class="cls-49"
     d="M79.08,104.55c17.94,0,32.54,12.49,32.54,27.85S97,160.25,79.08,160.25s-32.53-12.5-32.53-27.85,14.6-27.85,32.53-27.85m0-2c-19.07,0-34.53,13.36-34.53,29.85S60,162.25,79.08,162.25s34.54-13.37,34.54-29.85-15.46-29.85-34.54-29.85Z"
     id="path497" />
  <text
     class="cls-54"
     transform="translate(69.48 141.79)"
     id="text499">5</text>
  <path
     class="cls-53"
     d="m 89,370.61 c -18.49,0 -33.54,-12.94 -33.54,-28.85 0,-15.91 15.08,-28.85 33.54,-28.85 18.46,0 33.53,12.94 33.53,28.85 0,15.91 -15.01,28.85 -33.53,28.85 z"
     id="path501"
     inkscape:connector-curvature="0"
     style="fill:#f2f6fc" />
  <path
     class="cls-49"
     d="m 91,313.91 c 17.93,0 32.53,12.49 32.53,27.85 0,15.36 -14.53,27.85 -32.53,27.85 -18,0 -32.54,-12.49 -32.54,-27.85 0,-15.36 14.63,-27.85 32.54,-27.85 m 0,-2 c -19.08,0 -34.54,13.37 -34.54,29.85 0,16.48 15.54,29.85 34.54,29.85 19,0 34.53,-13.36 34.53,-29.85 0,-16.49 -15.43,-29.85 -34.53,-29.85 z"
     id="path503"
     inkscape:connector-curvature="0"
     style="fill:#4272b8" />
  <text
     class="cls-54"
     id="text505"
     x="79.43"
     y="353.14999"
     style="font-weight:700;font-size:32px;font-family:IBMPlexSans-Bold, 'IBM Plex Sans';fill:#4272b8">4</text>
  <path
     class="cls-53"
     d="M219.74,75.42c-18.49,0-33.53-12.94-33.53-28.85s15-28.85,33.53-28.85,33.54,12.94,33.54,28.85S238.23,75.42,219.74,75.42Z"
     id="path507" />
  <path
     class="cls-49"
     d="M219.74,18.72c17.94,0,32.54,12.5,32.54,27.85s-14.6,27.85-32.54,27.85-32.53-12.49-32.53-27.85,14.59-27.85,32.53-27.85m0-2c-19.07,0-34.53,13.37-34.53,29.85s15.46,29.85,34.53,29.85,34.54-13.36,34.54-29.85-15.46-29.85-34.54-29.85Z"
     id="path509" />
  <text
     class="cls-54"
     transform="translate(210.14 55.97)"
     id="text511">1</text>
  <text
     xml:space="preserve"
     style="font-style:normal;font-weight:normal;font-size:10px;line-height:125%;font-family:sans-serif;text-align:start;letter-spacing:0px;word-spacing:0px;text-anchor:start;fill:#000000;fill-opacity:1;stroke:none;stroke-width:1px;stroke-linecap:butt;stroke-linejoin:miter;stroke-opacity:1"
     x="139.6239"
     y="91.642746"
     id="text4684"
     sodipodi:linespacing="125%"><tspan
       sodipodi:role="line"
       id="tspan4686"
       x="139.6239"
       y="91.642746"
       style="font-size:13.75px;fill:#4272b8;fill-opacity:1">Configurar servicios en la nube</tspan><tspan
       sodipodi:role="line"
       x="139.6239"
       y="106.08919"
       id="tspan4690"
       style="font-size:11px;fill:#231f20;fill-opacity:1">En la interfaz web de IBM Cloud:</tspan><tspan
       sodipodi:role="line"
       x="139.6239"
       y="119.83919"
       id="tspan4692"
       style="font-size:11px;fill:#231f20;fill-opacity:1">- Crear cuenta de usuario</tspan><tspan
       sodipodi:role="line"
       x="139.6239"
       y="133.58919"
       id="tspan4694"
       style="font-size:11px;fill:#231f20;fill-opacity:1">- Crear ID de organización</tspan><tspan
       sodipodi:role="line"
       x="139.6239"
       y="147.33919"
       id="tspan4696"
       style="font-size:11px;fill:#231f20;fill-opacity:1">- Configurar IBM Event Streams</tspan><tspan
       sodipodi:role="line"
       x="139.6239"
       y="161.08919"
       id="tspan4688" /></text>
  <text
     xml:space="preserve"
     style="font-style:normal;font-weight:normal;font-size:10px;line-height:125%;font-family:sans-serif;text-align:start;letter-spacing:0px;word-spacing:0px;text-anchor:start;fill:#000000;fill-opacity:1;stroke:none;stroke-width:1px;stroke-linecap:butt;stroke-linejoin:miter;stroke-opacity:1"
     x="27.248016"
     y="177.46262"
     id="text4684-6"
     sodipodi:linespacing="125%"><tspan
       sodipodi:role="line"
       id="tspan4686-6"
       x="27.248016"
       y="177.46262"
       style="font-size:13.75px;fill:#4272b8;fill-opacity:1">IBM Cloud</tspan><tspan
       sodipodi:role="line"
       x="27.248016"
       y="191.90906"
       id="tspan4690-1"
       style="font-size:11px;fill:#231f20;fill-opacity:1">Posibilidad de conectar</tspan><tspan
       sodipodi:role="line"
       x="27.248016"
       y="205.65906"
       style="font-size:11px;fill:#231f20;fill-opacity:1"
       id="tspan5291">diversas soluciones de</tspan><tspan
       sodipodi:role="line"
       x="27.248016"
       y="219.40906"
       style="font-size:11px;fill:#231f20;fill-opacity:1"
       id="tspan5297">análisis y cognitivas y</tspan><tspan
       sodipodi:role="line"
       x="27.248016"
       y="233.15906"
       style="font-size:11px;fill:#231f20;fill-opacity:1"
       id="tspan5299">varios servicios de datos</tspan><tspan
       sodipodi:role="line"
       x="27.248016"
       y="246.90906"
       style="font-size:11px;fill:#231f20;fill-opacity:1"
       id="tspan5293">y de nube de IBM y de</tspan><tspan
       sodipodi:role="line"
       x="27.248016"
       y="260.65906"
       id="tspan4696-3"
       style="font-size:11px;fill:#231f20;fill-opacity:1">terceros.</tspan><tspan
       sodipodi:role="line"
       x="27.248016"
       y="274.40906"
       id="tspan4688-6" /></text>
  <text
     xml:space="preserve"
     style="font-style:normal;font-weight:normal;font-size:10px;line-height:125%;font-family:sans-serif;text-align:start;letter-spacing:0px;word-spacing:0px;text-anchor:start;fill:#000000;fill-opacity:1;stroke:none;stroke-width:1px;stroke-linecap:butt;stroke-linejoin:miter;stroke-opacity:1"
     x="293.87439"
     y="206.47627"
     id="text4684-9"
     sodipodi:linespacing="125%"><tspan
       sodipodi:role="line"
       id="tspan4686-7"
       x="293.87439"
       y="206.47627"
       style="font-size:13.75px;fill:#4272b8;fill-opacity:1">Desarrollar código</tspan><tspan
       sodipodi:role="line"
       x="293.87439"
       y="220.92271"
       id="tspan4690-8"
       style="font-size:11px;fill:#231f20;fill-opacity:1">- Escribir código para nodo </tspan><tspan
       sodipodi:role="line"
       x="293.87439"
       y="234.67271"
       style="font-size:11px;fill:#231f20;fill-opacity:1"
       id="tspan5332">periférico</tspan><tspan
       sodipodi:role="line"
       x="293.87439"
       y="248.42271"
       id="tspan4692-6"
       style="font-size:11px;fill:#231f20;fill-opacity:1">- Incluir código en contenedores</tspan><tspan
       sodipodi:role="line"
       x="293.87439"
       y="262.1727"
       style="font-size:11px;fill:#231f20;fill-opacity:1"
       id="tspan5328">de Docker</tspan><tspan
       sodipodi:role="line"
       x="293.87439"
       y="275.9227"
       id="tspan4694-4"
       style="font-size:11px;fill:#231f20;fill-opacity:1">- Probar localmente</tspan><tspan
       sodipodi:role="line"
       x="293.87439"
       y="289.6727"
       style="font-size:11px;fill:#231f20;fill-opacity:1"
       id="tspan5330">- Simular despliegue </tspan><tspan
       sodipodi:role="line"
       x="293.87439"
       y="303.4227"
       style="font-size:11px;fill:#231f20;fill-opacity:1"
       id="tspan5336">de producción</tspan><tspan
       sodipodi:role="line"
       x="293.87439"
       y="317.1727"
       id="tspan4688-3" /></text>
  <text
     xml:space="preserve"
     style="font-style:normal;font-weight:normal;font-size:10px;line-height:125%;font-family:sans-serif;text-align:start;letter-spacing:0px;word-spacing:0px;text-anchor:start;fill:#000000;fill-opacity:1;stroke:none;stroke-width:1px;stroke-linecap:butt;stroke-linejoin:miter;stroke-opacity:1"
     x="12.605499"
     y="386.80063"
     id="text4684-2"
     sodipodi:linespacing="125%"><tspan
       sodipodi:role="line"
       id="tspan4686-0"
       x="12.605499"
       y="386.80063"
       style="font-size:13.75px;fill:#4272b8;fill-opacity:1">Nodo periférico</tspan><tspan
       sodipodi:role="line"
       x="12.605499"
       y="401.24707"
       style="font-size:11px;fill:#231f20;fill-opacity:1"
       id="tspan5362">- Instalar Horizon en nodos </tspan><tspan
       sodipodi:role="line"
       x="12.605499"
       y="414.99707"
       style="font-size:11px;fill:#231f20;fill-opacity:1"
       id="tspan5366">periféricos</tspan><tspan
       sodipodi:role="line"
       x="12.605499"
       y="428.74707"
       id="tspan4692-2"
       style="font-size:11px;fill:#231f20;fill-opacity:1">- Registrar nodo periférico</tspan><tspan
       sodipodi:role="line"
       x="12.605499"
       y="442.49707"
       id="tspan4694-3"
       style="font-size:11px;fill:#231f20;fill-opacity:1">- Configurar ID de organización</tspan><tspan
       sodipodi:role="line"
       x="12.605499"
       y="456.24707"
       id="tspan4696-7"
       style="font-size:11px;fill:#231f20;fill-opacity:1">- Configurar IBM Event Streams</tspan><tspan
       sodipodi:role="line"
       x="12.605499"
       y="469.99707"
       style="font-size:11px;fill:#231f20;fill-opacity:1"
       id="tspan5356">- Establecer identificador de nodo </tspan><tspan
       sodipodi:role="line"
       x="12.605499"
       y="483.74707"
       style="font-size:11px;fill:#231f20;fill-opacity:1"
       id="tspan5358">periférico exclusivo</tspan><tspan
       sodipodi:role="line"
       x="12.605499"
       y="497.49707"
       style="font-size:11px;fill:#231f20;fill-opacity:1"
       id="tspan5360">- Establecer patrón de despliegue</tspan><tspan
       sodipodi:role="line"
       x="12.605499"
       y="511.24707"
       id="tspan4688-1" /></text>
  <text
     xml:space="preserve"
     style="font-style:normal;font-weight:normal;font-size:10px;line-height:125%;font-family:sans-serif;text-align:start;letter-spacing:0px;word-spacing:0px;text-anchor:start;fill:#000000;fill-opacity:1;stroke:none;stroke-width:1px;stroke-linecap:butt;stroke-linejoin:miter;stroke-opacity:1"
     x="327.31213"
     y="399.89783"
     id="text4684-1"
     sodipodi:linespacing="125%"><tspan
       sodipodi:role="line"
       id="tspan4686-2"
       x="327.31213"
       y="399.89783"
       style="font-size:13.75px;fill:#4272b8;fill-opacity:1">Firmar y publicar</tspan><tspan
       sodipodi:role="line"
       x="327.31213"
       y="414.34427"
       id="tspan4690-5"
       style="font-size:11px;fill:#231f20;fill-opacity:1">- Enviar, firmar y publicar contenedores</tspan><tspan
       sodipodi:role="line"
       x="327.31213"
       y="428.09427"
       id="tspan4694-5"
       style="font-size:11px;fill:#231f20;fill-opacity:1">- Añadir los contenedores a los patrones</tspan><tspan
       sodipodi:role="line"
       x="327.31213"
       y="441.84427"
       style="font-size:11px;fill:#231f20;fill-opacity:1"
       id="tspan5461"> de despliegue</tspan><tspan
       sodipodi:role="line"
       x="327.31213"
       y="455.59427"
       id="tspan4696-9"
       style="font-size:11px;fill:#231f20;fill-opacity:1">- Configuración automática de agBots </tspan><tspan
       sodipodi:role="line"
       x="327.31213"
       y="469.34427"
       style="font-size:11px;fill:#231f20;fill-opacity:1"
       id="tspan5463">para gestionar software de nodo periférico</tspan><tspan
       sodipodi:role="line"
       x="327.31213"
       y="483.09427"
       id="tspan4688-7" /></text>
  <text
     xml:space="preserve"
     style="font-style:normal;font-weight:normal;font-size:10px;line-height:125%;font-family:sans-serif;text-align:start;letter-spacing:0px;word-spacing:0px;text-anchor:start;fill:#000000;fill-opacity:1;stroke:none;stroke-width:1px;stroke-linecap:butt;stroke-linejoin:miter;stroke-opacity:1"
     x="488.98279"
     y="210.9711"
     id="text4684-3"
     sodipodi:linespacing="125%"><tspan
       sodipodi:role="line"
       id="tspan4686-00"
       x="488.98279"
       y="210.9711"
       style="font-size:13.75px;fill:#bb9930;fill-opacity:1">Actualizaciones </tspan><tspan
       sodipodi:role="line"
       x="488.98279"
       y="228.1586"
       style="font-size:13.75px;fill:#bb9930;fill-opacity:1"
       id="tspan5485">de código</tspan><tspan
       sodipodi:role="line"
       x="488.98279"
       y="242.60504"
       id="tspan4690-58"
       style="font-size:11px;fill:#231f20;fill-opacity:1">Actualizar el código es fácil:</tspan><tspan
       sodipodi:role="line"
       x="488.98279"
       y="256.35504"
       id="tspan4692-8"
       style="font-size:11px;fill:#231f20;fill-opacity:1">1. Haga cambios de código</tspan><tspan
       sodipodi:role="line"
       x="488.98279"
       y="270.10504"
       id="tspan4694-53"
       style="font-size:11px;fill:#231f20;fill-opacity:1">2. Envíe</tspan><tspan
       sodipodi:role="line"
       x="488.98279"
       y="283.85504"
       id="tspan4696-33"
       style="font-size:11px;fill:#231f20;fill-opacity:1">3. Firme</tspan><tspan
       sodipodi:role="line"
       x="488.98279"
       y="297.60504"
       style="font-size:11px;fill:#231f20;fill-opacity:1"
       id="tspan5483">4. Publique</tspan><tspan
       sodipodi:role="line"
       x="488.98279"
       y="311.35504"
       id="tspan4688-8" /></text>
</svg>
