<?xml version="1.0" encoding="utf-8"?>
<!-- Generator: Adobe Illustrator 21.1.0, SVG Export Plug-In . SVG Version: 6.00 Build 0)  -->
<svg version="1.1" id="Layer_1" xmlns="http://www.w3.org/2000/svg" xmlns:xlink="http://www.w3.org/1999/xlink" x="0px" y="0px"
	 viewBox="0 0 958.8 848.2" style="enable-background:new 0 0 958.8 848.2;" xml:space="preserve">
<style type="text/css">
	.st0{fill:#408BFC;}
	.st1{fill:#FFFFFF;}
	.st2{fill:#8A3FFC;}
	.st3{fill:none;stroke:#00BAB6;stroke-width:2;stroke-dasharray:7;}
	.st4{fill:#E3F6FF;}
	.st5{fill:#0F62FE;}
	.st6{fill:#009C98;}
	.st7{fill:#BEBEBE;}
	.st8{fill:#051B75;}
	.st9{fill:none;}
	.st10{fill:#161616;}
	.st11{font-family:'IBMPlexSans';}
	.st12{font-size:14px;}
	.st13{fill:#F4F4F4;}
	.st14{font-family:'IBMPlexSans-Medium';}
	.st15{font-size:16px;}
</style>
<rect id="Rectangle-Copy-14" x="503.4" y="652.6" class="st0" width="370" height="180"/>
<rect id="Rectangle-Copy-9" x="519.4" y="735.6" class="st1" width="80" height="81"/>
<rect id="Rectangle-Copy-18_1_" x="772.4" y="710.6" class="st2" width="85" height="106"/>
<path id="Rectangle-Copy-17" class="st3" d="M528.4,47.6h357c22.1,0,40,17.9,40,40v222c0,22.1-17.9,40-40,40h-357
	c-22.1,0-40-17.9-40-40v-222C488.4,65.5,506.3,47.6,528.4,47.6z"/>
<path id="Rectangle-Copy-22" class="st3" d="M64.4,135.6h237c22.1,0,40,17.9,40,40v94c0,22.1-17.9,40-40,40h-237
	c-22.1,0-40-17.9-40-40v-94C24.4,153.5,42.3,135.6,64.4,135.6z"/>
<circle id="Oval-Copy-3" class="st4" cx="81.4" cy="195.6" r="24"/>
<path id="Shape" class="st5" d="M76.4,198.6c2.8,0,5,2.2,5,5v6h-2v-6c0-1.7-1.3-3-3-3h-4c-1.7,0-3,1.3-3,3v6h-2v-6c0-2.8,2.2-5,5-5
	H76.4z M74.4,186.6c2.8,0,5,2.2,5,5s-2.2,5-5,5c-2.8,0-5-2.2-5-5S71.6,186.6,74.4,186.6z M95.4,187.6v8h-2v-8H95.4z M90.4,184.6v11
	h-2v-11H90.4z M85.4,189.6v6h-2v-6H85.4z M74.4,188.6c-1.7,0-3,1.3-3,3s1.3,3,3,3c1.7,0,3-1.3,3-3S76.1,188.6,74.4,188.6z"/>
<circle id="Oval-Copy-3_1_" class="st4" cx="552.4" cy="103.6" r="24"/>
<path id="Shape_1_" class="st5" d="M547.4,106.6c2.8,0,5,2.2,5,5v6h-2v-6c0-1.7-1.3-3-3-3h-4c-1.7,0-3,1.3-3,3v6h-2v-6
	c0-2.8,2.2-5,5-5H547.4z M545.4,94.6c2.8,0,5,2.2,5,5s-2.2,5-5,5s-5-2.2-5-5S542.6,94.6,545.4,94.6z M560.5,93.5l1.8,0.4l-2.4,10.4
	l-1.8-0.4L560.5,93.5z M555.3,95.2l1.4,1.2l-2.1,2.6l2.1,2.6l-1.4,1.2l-3.1-3.7L555.3,95.2z M565.1,95.2l3.1,3.7l-3.1,3.7l-1.4-1.2
	l2.1-2.6l-2.1-2.6L565.1,95.2z M545.4,96.6c-1.7,0-3,1.3-3,3s1.3,3,3,3s3-1.3,3-3S547.1,96.6,545.4,96.6z"/>
<rect id="Rectangle-Copy-14_1_" x="563.4" y="437.6" class="st6" width="260" height="155"/>
<path id="Line-2-Copy-37" class="st7" d="M851.9,317.6v77.3h-357v75.7h-56.5v6l-14-7l14-7v6h54.5v-75.7h357v-75.3H851.9z"/>
<path id="Line-5-Copy-3" class="st7" d="M851.7,514.1v1l-0.5,123.5h6l-7.1,14l-6.9-14h6l0.4-122.5h-26.2v-2H851.7z"/>
<path id="Line-5-Copy-4" class="st7" d="M549.4,462.6l14,7l-14,7v-6h-55.5v-2h55.5V462.6z"/>
<rect id="Rectangle-Copy-18_2_" x="24.4" y="437.6" class="st8" width="400" height="155"/>
<rect id="Rectangle-Copy-16" x="328.4" y="494.6" class="st1" width="80" height="81"/>
<rect id="Rectangle-Copy-18_3_" x="696.4" y="79.6" class="st2" width="104" height="81"/>
<rect id="Rectangle-Copy-18_4_" x="808.4" y="211.6" class="st2" width="85" height="106"/>
<rect id="Rectangle-Copy-18_5_" x="520.4" y="211.6" class="st2" width="85" height="106"/>
<path id="Line-2-Copy-20" class="st7" d="M682.4,112.7l14,6.9l-14,7.1v-6l-92,0.4h-1v-2h1l92-0.4V112.7z"/>
<path id="Line-2-Copy-25" class="st7" d="M210.9,192.6l14,7l-14,7v-6h-93.5v-2h93.5V192.6z"/>
<path id="Line-2-Copy-27" class="st7" d="M506.4,216.6l14,7l-14,7v-6h-197v-2h197V216.6z"/>
<path id="Line-2-Copy-29" class="st7" d="M794.4,257.6l14,7l-14,7v-6h-189v-2h189V257.6z"/>
<rect x="117.4" y="178.4" class="st9" width="93.5" height="16.3"/>
<text transform="matrix(1 0 0 1 131.4812 188.8046)" class="st10 st11 st12">1. Erstellt</text>
<rect x="599.3" y="95.2" class="st9" width="74.1" height="14.9"/>
<text transform="matrix(1 0 0 1 605.4955 110.9298)" class="st10 st11 st12">Installiert</text>
<rect x="653.8" y="370.3" class="st9" width="170.9" height="14.9"/>
<text transform="matrix(1 0 0 1 676.6334 383.9671)" class="st10 st11 st12">4. Veröffentlicht Services</text>
<rect x="328.4" y="528.3" class="st9" width="80" height="14.9"/>
<text transform="matrix(1 0 0 1 352.797 538.6321)" class="st10 st11 st12">MMS</text>
<rect x="525.4" y="760.2" class="st9" width="65.8" height="37.9"/>
<rect x="772.4" y="752.2" class="st9" width="84.8" height="16.4"/>
<text transform="matrix(1 0 0 1 782.7752 772.5499)" class="st13 st11 st12">KI-Service</text>
<rect x="696.4" y="112.2" class="st9" width="104" height="14.9"/>
<text transform="matrix(1 0 0 1 725.7618 122.6146)" class="st13 st11 st12">Docker</text>
<rect x="808.3" y="253.2" class="st9" width="85" height="14.9"/>
<text transform="matrix(1 0 0 1 816.0941 266.8941)" class="st13 st11 st12">KI-Service</text>
<rect x="520.2" y="245.7" class="st9" width="85.2" height="34.7"/>
<rect x="40.4" y="457.7" class="st9" width="236.1" height="15.6"/>
<text transform="matrix(1 0 0 1 40.3858 469.5753)" class="st13 st14 st15">Management-Hub</text>
<rect x="519.4" y="672.8" class="st9" width="236.1" height="15.6"/>
<text transform="matrix(1 0 0 1 519.3859 684.6022)" class="st13 st14 st15">Edge-Knoten</text>
<rect x="57.4" y="107.8" class="st9" width="236.1" height="15.6"/>
<text transform="matrix(1 0 0 1 57.3775 119.6152)" class="st10 st14 st15">Data-Scientist-Umgebung</text>
<rect x="520.4" y="19.8" class="st9" width="236.1" height="15.6"/>
<text transform="matrix(1 0 0 1 520.3859 31.5993)" class="st10 st14 st15">Entwicklerumgebung</text>
<rect id="Rectangle-Copy-18_6_" x="224.4" y="169.6" class="st2" width="85" height="120"/>
<rect x="226.5" y="192.3" class="st9" width="80.6" height="74.6"/>
<rect x="599.4" y="458.7" class="st9" width="162.3" height="15.6"/>
<text transform="matrix(1 0 0 1 599.3852 470.5735)" class="st13 st14 st15">Container-Registry</text>
<g>
	<path class="st13" d="M591.4,458.3h-8c-0.6,0-1,0.4-1,1v11c0,0.6,0.4,1,1,1h8c0.6,0,1-0.4,1-1v-11
		C592.4,458.7,592,458.3,591.4,458.3z M591.4,459.3v3h-8v-3H591.4z M583.4,466.3v-3h8v3H583.4z M583.4,470.3v-3h8v3H583.4z"/>
	<circle class="st13" cx="584.9" cy="460.8" r="0.5"/>
	<circle class="st13" cx="584.9" cy="464.8" r="0.5"/>
	<circle class="st13" cx="584.9" cy="468.8" r="0.5"/>
	<rect id="_x3C_Transparent_Rectangle_x3E__616_" x="579.4" y="456.8" class="st9" width="16" height="16"/>
</g>
<rect x="34.7" y="230.9" class="st9" width="91.3" height="13.8"/>
<text transform="matrix(1 0 0 1 34.7191 241.2483)" class="st10 st11 st12">Data-Scientist</text>
<rect x="229.7" y="190.9" class="st9" width="71.3" height="64.2"/>
<text transform="matrix(1 0 0 1 232.2269 201.2483)"><tspan x="0" y="0" class="st13 st11 st12">KI-/ML-An</tspan><tspan x="4.3" y="16.8" class="st13 st11 st12">wendung </tspan><tspan x="2.9" y="33.6" class="st13 st11 st12">mit ihrem </tspan><tspan x="11.8" y="50.4" class="st13 st11 st12">Modell</tspan></text>
<rect x="354.1" y="168.2" class="st9" width="122.3" height="47.4"/>
<text transform="matrix(1 0 0 1 382.2004 178.5816)"><tspan x="0" y="0" class="st10 st11 st12">2. Teilt die </tspan><tspan x="-16.3" y="16.8" class="st10 st11 st12">Anwendung mit </tspan><tspan x="-15.8" y="33.6" class="st10 st11 st12">dem Entwickler</tspan></text>
<rect x="496.4" y="135.2" class="st9" width="126" height="13.8"/>
<text transform="matrix(1 0 0 1 496.3856 145.5816)" class="st10 st11 st12">Softwareentwickler</text>
<rect x="523.1" y="249.2" class="st9" width="80" height="30.6"/>
<text transform="matrix(1 0 0 1 523.0523 259.5818)"><tspan x="0" y="0" class="st13 st11 st12">KI-/ML-</tspan><tspan x="0" y="16.8" class="st13 st11 st12">Anwendung</tspan></text>
<rect x="613.1" y="228.2" class="st9" width="171.7" height="30.6"/>
<text transform="matrix(1 0 0 1 613.0523 238.5801)"><tspan x="0" y="0" class="st10 st11 st12">3. Paketiert die Anwen</tspan><tspan x="141.9" y="0" class="st10 st11 st12">-</tspan><tspan x="0" y="16.8" class="st10 st11 st12">dung in einen Service</tspan></text>
<rect x="856.7" y="550.2" class="st9" width="69" height="13.8"/>
<text transform="matrix(1 0 0 1 856.7186 560.5818)" class="st10 st11 st12">5. </text>
<text transform="matrix(1 0 0 1 537.327 770.1462)"><tspan x="0" y="0" class="st10 st11 st12">Edge-</tspan><tspan x="0" y="16.8" class="st10 st11 st12">Agent</tspan></text>
</svg>
