<?xml version="1.0" encoding="utf-8"?>
<!-- Generator: Adobe Illustrator 21.1.0, SVG Export Plug-In . SVG Version: 6.00 Build 0)  -->
<svg version="1.1" id="Layer_1" xmlns="http://www.w3.org/2000/svg" xmlns:xlink="http://www.w3.org/1999/xlink" x="0px" y="0px"
	 viewBox="0 0 941.1 843.5" style="enable-background:new 0 0 941.1 843.5;" xml:space="preserve">
<style type="text/css">
	.st0{fill:none;stroke:#00BAB6;stroke-width:2;stroke-dasharray:7;}
	.st1{fill:#E3F6FF;}
	.st2{fill:#0F62FE;}
	.st3{fill:#009C98;}
	.st4{fill:#DCDCDC;}
	.st5{fill:#408BFC;}
	.st6{fill:#FFFFFF;}
	.st7{fill:#051B75;}
	.st8{fill:#8A3FFC;}
	.st9{fill:#EE538B;}
	.st10{fill:none;}
	.st11{fill:#161616;}
	.st12{font-family:'IBMPlexSans';}
	.st13{font-size:14px;}
	.st14{fill:#F4F4F4;}
	.st15{font-family:'IBMPlexSans-Medium';}
	.st16{font-size:16px;}
</style>
<path id="Rectangle-Copy-19" class="st0" d="M524,45.2h357c22.1,0,40,17.9,40,40v222c0,22.1-17.9,40-40,40H524
	c-22.1,0-40-17.9-40-40v-222C484,63.1,501.9,45.2,524,45.2z"/>
<path id="Rectangle-Copy-23" class="st0" d="M60,133.2h237c22.1,0,40,17.9,40,40v94c0,22.1-17.9,40-40,40H60c-22.1,0-40-17.9-40-40
	v-94C20,151.1,37.9,133.2,60,133.2z"/>
<circle id="Oval-Copy-3" class="st1" cx="77" cy="193.2" r="24"/>
<path id="Shape" class="st2" d="M72,196.2c2.8,0,5,2.2,5,5v6h-2v-6c0-1.7-1.3-3-3-3h-4c-1.7,0-3,1.3-3,3v6h-2v-6c0-2.8,2.2-5,5-5H72
	z M70,184.2c2.8,0,5,2.2,5,5s-2.2,5-5,5c-2.8,0-5-2.2-5-5S67.2,184.2,70,184.2z M91,185.2v8h-2v-8H91z M86,182.2v11h-2v-11H86z
	 M81,187.2v6h-2v-6H81z M70,186.2c-1.7,0-3,1.3-3,3s1.3,3,3,3c1.7,0,3-1.3,3-3S71.7,186.2,70,186.2z"/>
<circle id="Oval-Copy-3_1_" class="st1" cx="548" cy="101.2" r="24"/>
<path id="Shape_1_" class="st2" d="M543,104.2c2.8,0,5,2.2,5,5v6h-2v-6c0-1.7-1.3-3-3-3h-4c-1.7,0-3,1.3-3,3v6h-2v-6
	c0-2.8,2.2-5,5-5H543z M541,92.2c2.8,0,5,2.2,5,5s-2.2,5-5,5s-5-2.2-5-5S538.2,92.2,541,92.2z M556.1,91.1l1.8,0.4l-2.4,10.4
	l-1.8-0.4L556.1,91.1z M550.9,92.8l1.4,1.2l-2.1,2.6l2.1,2.6l-1.4,1.2l-3.1-3.7L550.9,92.8z M560.7,92.8l3.1,3.7l-3.1,3.7l-1.4-1.2
	l2.1-2.6l-2.1-2.6L560.7,92.8z M541,94.2c-1.7,0-3,1.3-3,3s1.3,3,3,3s3-1.3,3-3S542.7,94.2,541,94.2z"/>
<rect id="Rectangle-Copy-14" x="559" y="435.2" class="st3" width="260" height="155"/>
<path id="Line-5-Copy-5" class="st4" d="M847.3,511.7v1l-0.5,123.5h6l-7.1,14l-6.9-14h6l0.4-122.5H819v-2H847.3z"/>
<rect id="Rectangle-Copy-14_1_" x="499" y="650.2" class="st5" width="370" height="180"/>
<rect id="Rectangle-Copy-9" x="515" y="733.2" class="st6" width="80" height="81"/>
<rect id="Rectangle-Copy-24" x="20" y="435.2" class="st7" width="400" height="155"/>
<rect id="Rectangle-Copy-16" x="324" y="492.2" class="st6" width="80" height="81"/>
<rect id="Rectangle-Copy-18" x="692" y="77.2" class="st8" width="104" height="81"/>
<rect id="Rectangle-Copy-18_1_" x="804" y="209.2" class="st8" width="85" height="106"/>
<rect id="Rectangle-Copy-18_2_" x="768" y="708.2" class="st8" width="85" height="106"/>
<rect id="Rectangle-Copy-18_4_" x="516" y="209.2" class="st8" width="85" height="106"/>
<path id="Line-2-Copy-21" class="st4" d="M678,110.3l14,6.9l-14,7.1v-6l-92,0.4h-1v-2h1l92-0.4V110.3z"/>
<path id="Line-2-Copy-30" class="st9" d="M754,767.2l14,7l-14,7v-6H595v-2h159V767.2z"/>
<path id="Line-2-Copy-31" class="st4" d="M206.5,190.2l14,7l-14,7v-6H113v-2h93.5V190.2z"/>
<path id="Line-2-Copy-32" class="st9" d="M206.5,249.2l14,7l-14,7v-6H113v-2h93.5V249.2z"/>
<path id="Line-2-Copy-33" class="st4" d="M502,214.2l14,7l-14,7v-6H305v-2h197V214.2z"/>
<path id="Line-2-Copy-34" class="st4" d="M847.5,315.2v77.3h-357v75.7H434v6l-14-7l14-7v6h54.5v-75.6h357v-75.4H847.5z"/>
<path id="Line-2-Copy-35" class="st4" d="M790,255.2l14,7l-14,7v-6H601v-2h189V255.2z"/>
<path id="Line-4-Copy-3" class="st9" d="M365,255.2v223h6l-7,14l-7-14h6v-221h-58v-2H365z"/>
<path id="Path-3-Copy" class="st9" d="M365,573.2v200h135v-6l14,7l-14,7v-6H363v-202H365z"/>
<path id="Line-5" class="st4" d="M545,460.2l14,7l-14,7v-6h-55.5v-2H545V460.2z"/>
<rect x="616.3" y="729.8" class="st10" width="114.1" height="39.6"/>
<rect x="324" y="526" class="st10" width="80" height="14.9"/>
<text transform="matrix(1 0 0 1 348.4483 536.3878)" class="st11 st12 st13">MMS</text>
<rect x="521" y="757.9" class="st10" width="65.8" height="37.9"/>
<rect x="768" y="749.9" class="st10" width="84.8" height="16.4"/>
<text transform="matrix(1 0 0 1 776.4265 764.9722)" class="st14 st12 st13">KI-Service</text>
<rect x="692" y="110" class="st10" width="104" height="14.9"/>
<text transform="matrix(1 0 0 1 721.4131 120.3703)" class="st14 st12 st13">Docker</text>
<rect x="803.9" y="250.9" class="st10" width="85" height="14.9"/>
<text transform="matrix(1 0 0 1 814.412 263.3165)" class="st14 st12 st13">KI-Service</text>
<rect x="515.8" y="243.4" class="st10" width="85.2" height="34.7"/>
<rect x="36" y="455.5" class="st10" width="236.1" height="15.6"/>
<text transform="matrix(1 0 0 1 36.0371 467.3311)" class="st14 st15 st16">Management-Hub</text>
<rect x="515" y="670.5" class="st10" width="236.1" height="15.6"/>
<text transform="matrix(1 0 0 1 515.0371 682.3578)" class="st14 st15 st16">Edge-Knoten</text>
<rect x="53" y="105.5" class="st10" width="236.1" height="15.6"/>
<text transform="matrix(1 0 0 1 53.0288 117.3709)" class="st11 st15 st16">Data-Scientist-Umgebung</text>
<rect x="516" y="17.5" class="st10" width="236.1" height="15.6"/>
<text transform="matrix(1 0 0 1 516.0371 29.355)" class="st11 st15 st16">Entwicklerumgebung</text>
<rect id="Rectangle-Copy-18_6_" x="220" y="167.2" class="st8" width="85" height="120"/>
<rect x="222.1" y="189.9" class="st10" width="80.6" height="74.6"/>
<rect x="594.7" y="453.4" class="st10" width="162.3" height="15.6"/>
<text transform="matrix(1 0 0 1 594.7437 465.2565)" class="st14 st15 st16">Container-Registry</text>
<g>
	<path class="st14" d="M586.7,453h-8c-0.6,0-1,0.4-1,1v11c0,0.6,0.4,1,1,1h8c0.6,0,1-0.4,1-1v-11C587.7,453.4,587.3,453,586.7,453z
		 M586.7,454v3h-8v-3H586.7z M578.7,461v-3h8v3H578.7z M578.7,465v-3h8v3H578.7z"/>
	<circle class="st14" cx="580.2" cy="455.4" r="0.5"/>
	<circle class="st14" cx="580.2" cy="459.4" r="0.5"/>
	<circle class="st14" cx="580.2" cy="463.4" r="0.5"/>
	<rect id="_x3C_Transparent_Rectangle_x3E__616_" x="574.7" y="451.4" class="st10" width="16" height="16"/>
</g>
<rect x="46.2" y="225" class="st10" width="59.5" height="30.6"/>
<text transform="matrix(1 0 0 1 46.2036 235.3787)"><tspan x="0" y="0" class="st11 st12 st13">Data- </tspan><tspan x="0" y="16.8" class="st11 st12 st13">Scientist</tspan></text>
<rect x="114.5" y="208" class="st10" width="88" height="30.6"/>
<text transform="matrix(1 0 0 1 114.5369 218.3787)"><tspan x="0" y="0" class="st11 st12 st13">6. Vollzieht </tspan><tspan x="0" y="16.8" class="st11 st12 st13">Updates</tspan></text>
<rect x="230.5" y="196" class="st10" width="69" height="64.2"/>
<text transform="matrix(1 0 0 1 230.5369 206.3787)"><tspan x="0" y="0" class="st14 st12 st13">KI-/ML-An</tspan><tspan x="0" y="16.8" class="st14 st12 st13">wendung </tspan><tspan x="0" y="33.6" class="st14 st12 st13">mit ihrem </tspan><tspan x="0" y="50.4" class="st14 st12 st13">Modell</tspan></text>
<rect x="371.5" y="329.5" class="st10" width="100.5" height="13.8"/>
<text transform="matrix(1 0 0 1 371.5369 339.8787)" class="st11 st12 st13">7. </text>
<text transform="matrix(0.9805 0 0 1 489.3699 140.8787)" class="st11 st12 st13">Softwareentwickler</text>
<text transform="matrix(1 0 0 1 524.712 257.3787)"><tspan x="0" y="0" class="st14 st12 st13">KI-/ML-An </tspan><tspan x="4.3" y="16.8" class="st14 st12 st13">wendung</tspan></text>
<rect x="370.7" y="662.5" class="st10" width="120" height="67.3"/>
<text transform="matrix(1 0 0 1 370.7034 672.8782)" class="st11 st12 st13">8. </text>
<rect x="607" y="720.2" class="st10" width="138.7" height="47.3"/>
<text transform="matrix(1 0 0 1 607.0369 730.5461)" class="st14 st12 st13">9. </text>
<text transform="matrix(1 0 0 1 516.7039 775.8782)" class="st11 st12 st13">Edge-Agent</text>
</svg>
