<?xml version="1.0" encoding="utf-8"?>
<!-- Generator: Adobe Illustrator 21.1.0, SVG Export Plug-In . SVG Version: 6.00 Build 0)  -->
<svg version="1.1" id="Layer_1" xmlns="http://www.w3.org/2000/svg" xmlns:xlink="http://www.w3.org/1999/xlink" x="0px" y="0px"
	 viewBox="0 0 937.8 653.2" style="enable-background:new 0 0 937.8 653.2;" xml:space="preserve">
<style type="text/css">
	.st0{fill:#4589FF;}
	.st1{fill:#F4F4F4;}
	.st2{fill:#BEBEBE;}
	.st3{fill:#E3F6FF;}
	.st4{fill:#0F62FE;}
	.st5{fill:#009D9A;}
	.st6{fill:#FFFFFF;}
	.st7{fill:#DCDCDC;}
	.st8{fill:none;stroke:#BEBEBE;stroke-width:2;}
	.st9{fill:#001D6C;}
	.st10{fill:none;}
	.st11{fill:#161616;}
	.st12{font-family:'IBMPlexSans';}
	.st13{font-size:14px;}
	.st14{enable-background:new    ;}
	.st15{font-family:'IBMPlexSans-Medium';}
	.st16{font-size:16px;}
	.st17{fill:none;stroke:#BEBEBE;stroke-width:2;stroke-miterlimit:10;}
	.st18{font-size:12px;}
</style>
<rect id="Rectangle-Copy-52" x="601.9" y="363.1" class="st0" width="318" height="269"/>
<path id="Shape" class="st1" d="M625.9,386.6c0.8,0,1.5-0.7,1.5-1.5s-0.7-1.5-1.5-1.5s-1.5,0.7-1.5,1.5S625.1,386.6,625.9,386.6z
	 M625.9,384.6c0.3,0,0.5,0.2,0.5,0.5s-0.2,0.5-0.5,0.5s-0.5-0.2-0.5-0.5S625.6,384.6,625.9,384.6z M630.7,389c0.8,0,1.5-0.7,1.5-1.5
	s-0.7-1.5-1.5-1.5s-1.5,0.7-1.5,1.5S629.9,389,630.7,389z M630.7,387c0.3,0,0.5,0.2,0.5,0.5s-0.2,0.5-0.5,0.5s-0.5-0.2-0.5-0.5
	S630.4,387,630.7,387L630.7,387z M620.1,391.2c-0.8,0-1.5,0.7-1.5,1.5s0.7,1.5,1.5,1.5s1.5-0.7,1.5-1.5S621,391.2,620.1,391.2z
	 M620.1,393.2c-0.3,0-0.5-0.2-0.5-0.5s0.2-0.5,0.5-0.5s0.5,0.2,0.5,0.5S620.4,393.2,620.1,393.2z M621.1,389c0.8,0,1.5-0.7,1.5-1.5
	s-0.7-1.5-1.5-1.5s-1.5,0.7-1.5,1.5C619.6,388.3,620.3,389,621.1,389L621.1,389z M621.1,387c0.3,0,0.5,0.2,0.5,0.5s-0.2,0.5-0.5,0.5
	s-0.5-0.2-0.5-0.5S620.8,387,621.1,387L621.1,387z M631.7,391.2c-0.8,0-1.5,0.7-1.5,1.5s0.7,1.5,1.5,1.5s1.5-0.7,1.5-1.5
	S632.5,391.2,631.7,391.2z M631.7,393.2c-0.3,0-0.5-0.2-0.5-0.5s0.2-0.5,0.5-0.5s0.5,0.2,0.5,0.5S631.9,393.2,631.7,393.2z
	 M628.3,395.1c-0.8,0-1.5,0.7-1.5,1.5s0.7,1.5,1.5,1.5s1.5-0.7,1.5-1.5S629.2,395.1,628.3,395.1L628.3,395.1z M628.3,397.1
	c-0.3,0-0.5-0.2-0.5-0.5s0.2-0.5,0.5-0.5s0.5,0.2,0.5,0.5c0,0.1-0.1,0.3-0.1,0.4C628.6,397,628.5,397.1,628.3,397.1z M623.5,395.1
	c-0.8,0-1.5,0.7-1.5,1.5s0.7,1.5,1.5,1.5s1.5-0.7,1.5-1.5S624.3,395.1,623.5,395.1L623.5,395.1z M623.5,397.1
	c-0.3,0-0.5-0.2-0.5-0.5s0.2-0.5,0.5-0.5s0.5,0.2,0.5,0.5S623.7,397.1,623.5,397.1z M628.9,391.1c0-1.7-1.3-3-3-3s-3,1.3-3,3
	s1.3,3,3,3S628.9,392.8,628.9,391.1z M625.9,393.1c-1.1,0-2-0.9-2-2s0.9-2,2-2s2,0.9,2,2c0,0.5-0.2,1-0.6,1.4
	C626.9,392.9,626.4,393.1,625.9,393.1z"/>
<path id="Line-4" class="st2" d="M43.4,80.9v256.2h362.5v-147h-6l7-14l7,14h-6v149H41.4V80.9H43.4z"/>
<circle id="Oval-Copy-3" class="st3" cx="677.9" cy="46.1" r="24"/>
<path id="Shape_1_" class="st4" d="M672.9,49.1c2.8,0,5,2.2,5,5v6h-2v-6c0-1.7-1.3-3-3-3h-4c-1.7,0-3,1.3-3,3v6h-2v-6
	c0-2.8,2.2-5,5-5H672.9z M670.9,37.1c2.8,0,5,2.2,5,5s-2.2,5-5,5s-5-2.2-5-5S668.1,37.1,670.9,37.1z M689.5,37.1l1.4,1.4l-7.1,7.1
	l-3.9-3.9l1.4-1.4l2.5,2.5L689.5,37.1z M670.9,39.1c-1.7,0-3,1.3-3,3s1.3,3,3,3s3-1.3,3-3S672.6,39.1,670.9,39.1z"/>
<circle id="Oval-Copy-3_1_" class="st3" cx="41.9" cy="46.1" r="24"/>
<path id="Shape_2_" class="st4" d="M36.9,49.1c2.8,0,5,2.2,5,5v6h-2v-6c0-1.7-1.3-3-3-3h-4c-1.7,0-3,1.3-3,3v6h-2v-6
	c0-2.8,2.2-5,5-5H36.9z M34.9,37.1c2.8,0,5,2.2,5,5s-2.2,5-5,5s-5-2.2-5-5S32.1,37.1,34.9,37.1z M50,36l1.8,0.4l-2.4,10.4l-1.8-0.4
	L50,36z M44.8,37.7l1.4,1.2l-2.1,2.6l2.1,2.6l-1.4,1l-3.1-3.7L44.8,37.7z M54.6,37.7l3.1,3.7l-3.1,3.7l-1.4-1.2l2.1-2.6l-2.1-2.6
	L54.6,37.7z M34.9,39.1c-1.7,0-3,1.3-3,3s1.3,3,3,3c1.7,0,3-1.3,3-3S36.6,39.1,34.9,39.1z"/>
<rect id="Rectangle-Copy-14" x="168.9" y="363.1" class="st5" width="250" height="172"/>
<rect id="Rectangle-Copy-16" x="617.9" y="422.1" class="st6" width="80" height="81"/>
<rect id="Rectangle-Copy-16_1_" x="823.9" y="422.1" class="st6" width="80" height="121"/>
<rect id="Rectangle-Copy-16_2_" x="617.9" y="535.1" class="st6" width="80" height="81"/>
<path id="Line-2-Copy-24" class="st2" d="M809.9,455.1l14,7l-14,7v-6h-112v-2h112V455.1z"/>
<path id="Line-2-Copy-26" class="st2" d="M864.9,543.1v35.6h-153v6l-14-7l14-7v6h151v-33.6H864.9z"/>
<circle id="Oval-Copy-3_2_" class="st7" cx="41.9" cy="103.1" r="13"/>
<circle id="Oval-Copy-3_3_" class="st7" cx="41.9" cy="176.1" r="13"/>
<circle id="Oval-Copy-3_4_" class="st7" cx="41.9" cy="267.1" r="13"/>
<circle id="Oval-Copy-3_5_" class="st3" cx="754.9" cy="253.1" r="24"/>
<path id="Shape_3_" class="st4" d="M749.9,256.1c2.8,0,5,2.2,5,5v6h-2v-6c0-1.7-1.3-3-3-3h-4c-1.7,0-3,1.3-3,3v6h-2v-6
	c0-2.8,2.2-5,5-5H749.9z M747.9,244.1c2.8,0,5,2.2,5,5s-2.2,5-5,5s-5-2.2-5-5S745.1,244.1,747.9,244.1z M760.9,252.1v2h-2v-2H760.9z
	 M765.9,252.1v2h-2v-2H765.9z M747.9,246.1c-1.7,0-3,1.3-3,3s1.3,3,3,3s3-1.3,3-3S749.6,246.1,747.9,246.1z M768.9,249.1v2h-2v-2
	H768.9z M757.9,249.1v2h-2v-2H757.9z M765.9,244.1v7h-7v-7H765.9z M763.9,246.1h-3v3h3V246.1z M768.9,244.1v2h-2v-2H768.9z
	 M757.9,244.1v2h-2v-2H757.9z M760.9,241.1v2h-2v-2H760.9z M765.9,241.1v2h-2v-2H765.9z"/>
<path id="Line-8" class="st2" d="M43.4,336.6v104h111.5v-6l14,7l-14,7v-6H41.4v-106H43.4z"/>
<path id="Path-8" class="st2" d="M583.9,492.9v25.2h226v-6l14,7l-14,7v-6h-228v-25.2h-163v-2H583.9z"/>
<path id="Path-7" class="st2" d="M583.9,176.1v270.5h20v-6l14,7l-14,7v-6h-22V176.1H583.9z"/>
<line id="Path-9-Copy" class="st8" x1="754.2" y1="363.1" x2="754.2" y2="287.1"/>
<rect id="Rectangle-Copy-50" x="391.9" y="21.1" class="st9" width="210" height="155"/>
<rect id="Rectangle-Copy-16_4_" x="503.9" y="78.1" class="st6" width="80" height="81"/>
<rect id="Rectangle-Copy-16_5_" x="407.9" y="78.1" class="st6" width="80" height="81"/>
<rect x="31.8" y="96.8" class="st10" width="20" height="12.2"/>
<text transform="matrix(1 0 0 1 37.3156 107.1252)" class="st11 st12 st13">A</text>
<rect x="31.8" y="169.8" class="st10" width="20" height="13.4"/>
<text transform="matrix(1 0 0 1 37.2317 180.1631)" class="st11 st12 st13">B</text>
<rect x="33.1" y="260.8" class="st10" width="17.5" height="13.4"/>
<text transform="matrix(1 0 0 1 37.4558 271.1812)" class="st11 st12 st13">C</text>
<rect x="419.3" y="469.7" class="st10" width="163" height="14.6"/>
<text transform="matrix(1 0 0 1 441.358 480.1089)" class="st11 st12 st13">6. </text>
<rect x="790.9" y="246.8" class="st10" width="100" height="15.4"/>
<rect x="785.6" y="236.6" class="st10" width="140.6" height="32.5"/>
<text transform="matrix(1 0 0 1 785.5696 248.4858)" class="st14"><tspan x="0" y="0" class="st11 st12 st13">Knoten- </tspan><tspan x="0" y="16.8" class="st11 st12 st13">Berechtigungsinhaber</tspan></text>
<rect x="709.9" y="39.8" class="st10" width="100" height="15.4"/>
<text transform="matrix(1 0 0 1 709.9101 50.1643)" class="st11 st12 st13">Administrator</text>
<rect x="407.9" y="41.3" class="st10" width="187" height="15.6"/>
<text transform="matrix(1 0 0 1 407.8803 53.1991)" class="st1 st15 st16">Management-Hub</text>
<rect x="639.9" y="383.3" class="st10" width="236.1" height="15.6"/>
<text transform="matrix(1 0 0 1 639.8802 395.1287)" class="st1 st15 st16">Edge-Knoten</text>
<rect x="823.8" y="455.7" class="st10" width="80" height="56.3"/>
<rect x="627.3" y="449.8" class="st10" width="61.1" height="35.7"/>
<rect x="627.3" y="562.9" class="st10" width="61.1" height="35.7"/>
<rect x="697.2" y="437.7" class="st10" width="111.2" height="13.7"/>
<text transform="matrix(1 0 0 1 728.7202 448.1182)" class="st1 st12 st13">7. Läuft</text>
<rect x="712.4" y="553.7" class="st10" width="150.7" height="13.7"/>
<text transform="matrix(1 0 0 1 760.7175 564.1169)" class="st1 st12 st13">8. Beginnt</text>
<rect x="503.8" y="111.8" class="st10" width="80" height="14.9"/>
<text transform="matrix(1 0 0 1 512.8707 122.1415)" class="st11 st12 st13">Exchange</text>
<rect x="407.8" y="111.8" class="st10" width="80" height="14.9"/>
<text transform="matrix(1 0 0 1 428.8615 122.1415)" class="st11 st12 st13">Agbot</text>
<rect x="62.9" y="97.7" class="st10" width="280.6" height="15.7"/>
<text transform="matrix(1 0 0 1 62.8802 108.1134)" class="st11 st12 st13">Erstellt Berechtigungsnachweise für Entwickler</text>
<rect x="80.9" y="39.8" class="st10" width="172.6" height="15.7"/>
<text transform="matrix(1 0 0 1 80.889 50.1521)" class="st11 st12 st13">Softwareentwickler</text>
<rect x="62.9" y="169.6" class="st10" width="283.4" height="15.7"/>
<text transform="matrix(1 0 0 1 62.8802 180.0205)" class="st11 st12 st13">Entwickelt Edge-Serviceoperator</text>
<rect x="62.9" y="260.8" class="st10" width="293.1" height="15.7"/>
<text transform="matrix(1 0 0 1 62.8802 271.1695)" class="st11 st12 st13">Signiert und veröffentlicht an Management-Hub</text>
<g>
	<rect x="204.9" y="381" class="st10" width="162.3" height="15.6"/>
	<text transform="matrix(1 0 0 1 204.8858 392.8451)" class="st1 st15 st16">Container-Registry</text>
	<g>
		<path class="st1" d="M196.9,380.6h-8c-0.6,0-1,0.4-1,1v11c0,0.6,0.4,1,1,1h8c0.6,0,1-0.4,1-1v-11
			C197.9,381,197.5,380.6,196.9,380.6z M196.9,381.6v3h-8v-3H196.9z M188.9,388.6v-3h8v3H188.9z M188.9,392.6v-3h8v3H188.9z"/>
		<circle class="st1" cx="190.4" cy="383.1" r="0.5"/>
		<circle class="st1" cx="190.4" cy="387.1" r="0.5"/>
		<circle class="st1" cx="190.4" cy="391.1" r="0.5"/>
		<rect id="_x3C_Transparent_Rectangle_x3E__616_" x="184.9" y="379.1" class="st10" width="16" height="16"/>
	</g>
</g>
<g>
	<g>
		<polyline class="st17" points="753.9,218.1 753.9,162.1 611.9,162.1 		"/>
		<g>
			<polygon class="st2" points="614,155.1 601.9,162.1 614,169.1 			"/>
		</g>
	</g>
</g>
<g>
	<g>
		<polyline class="st17" points="677.9,81.2 677.9,138.1 611.9,138.1 		"/>
		<g>
			<polygon class="st2" points="614,131.1 601.9,138.1 614,145.1 			"/>
		</g>
	</g>
</g>
<text transform="matrix(1 0 0 1 66.3862 129.7732)"><tspan x="0" y="0" class="st11 st12 st18">• Erstellt Benutzeraccount</tspan><tspan x="0" y="14.4" class="st11 st12 st18">• Erstellt Signierschlüsselpaar (in Schritt C verwendet)</tspan></text>
<text transform="matrix(1 0 0 1 65.3862 206.7732)"><tspan x="0" y="0" class="st11 st12 st18">• Erstellt Archiv mit Yaml-Definitionsdateien des Services</tspan><tspan x="0" y="14.4" class="st11 st12 st18">• Erstellt Open Horizon-Metadaten-Dateien</tspan></text>
<text transform="matrix(1 0 0 1 68.8862 297.7732)"><tspan x="0" y="0" class="st11 st12 st18">• Verschiebt, signiert und veröffentlicht Container</tspan><tspan x="0" y="14.4" class="st11 st12 st18">• Fügt Bedingungen zur Servicerichtlinie hinzu</tspan></text>
<rect x="53.9" y="366.9" class="st10" width="107.5" height="60"/>
<text transform="matrix(1 0 0 1 53.8862 377.2527)"><tspan x="0" y="0" class="st11 st12 st13">1. Verschiebt </tspan><tspan x="0" y="16.8" class="st11 st12 st13">Container</tspan></text>
<rect x="422.4" y="240.9" class="st10" width="148" height="47.4"/>
<text transform="matrix(1 0 0 1 422.3862 251.2531)"><tspan x="0" y="0" class="st11 st12 st13">2. Veröffentlicht </tspan><tspan x="0" y="16.8" class="st11 st12 st13">Service-Metadaten an </tspan><tspan x="0" y="33.6" class="st11 st12 st13">Management-Hub</tspan></text>
<rect x="700.6" y="71.2" class="st10" width="198.5" height="63.8"/>
<text transform="matrix(1 0 0 1 700.5528 81.5865)"><tspan x="0" y="0" class="st11 st12 st13">3. Erstellt Muster oder Richtli</tspan><tspan x="183" y="0" class="st11 st12 st13">-</tspan><tspan x="0" y="16.8" class="st11 st12 st13">nien zur Implementierung des </tspan><tspan x="0" y="33.6" class="st11 st12 st13">Services zur Korrektur von </tspan><tspan x="0" y="50.4" class="st11 st12 st13">Edge-Knoten</tspan></text>
<rect x="597.4" y="248.4" class="st10" width="118" height="57"/>
<text transform="matrix(1 0 0 1 597.3862 258.7531)"><tspan x="0" y="0" class="st11 st12 st13">5. Stellt Service </tspan><tspan x="0" y="16.8" class="st11 st12 st13">bereit</tspan></text>
<rect x="765.4" y="305.9" class="st10" width="154.8" height="30.6"/>
<text transform="matrix(1 0 0 1 765.3862 316.2531)"><tspan x="0" y="0" class="st11 st12 st13">4. Registriert mit </tspan><tspan x="0" y="16.8" class="st11 st12 st13">Muster-Knotenrichtlinie</tspan></text>
<rect x="621.7" y="447.1" class="st10" width="68" height="30.6"/>
<text transform="matrix(1 0 0 1 637.2468 457.4193)"><tspan x="0" y="0" class="st11 st12 st13">Edge-</tspan><tspan x="0" y="16.8" class="st11 st12 st13">Agent</tspan></text>
<rect x="628.4" y="559.1" class="st10" width="56.5" height="30.6"/>
<text transform="matrix(1 0 0 1 628.3862 569.4193)"><tspan x="0" y="0" class="st11 st12 st13">Edge- </tspan><tspan x="0" y="16.8" class="st11 st12 st13">Service</tspan></text>
<rect x="833.1" y="456.2" class="st10" width="65.5" height="47.4"/>
<text transform="matrix(1 0 0 1 833.0528 466.586)"><tspan x="0" y="0" class="st11 st12 st13">Edge- </tspan><tspan x="0" y="16.8" class="st11 st12 st13">Service- </tspan><tspan x="0" y="33.6" class="st11 st12 st13">operator</tspan></text>
</svg>
