<?xml version="1.0" encoding="utf-8"?>
<!-- Generator: Adobe Illustrator 21.1.0, SVG Export Plug-In . SVG Version: 6.00 Build 0)  -->
<svg version="1.1" id="Layer_1" xmlns="http://www.w3.org/2000/svg" xmlns:xlink="http://www.w3.org/1999/xlink" x="0px" y="0px"
	 viewBox="0 0 919.8 473.2" style="enable-background:new 0 0 919.8 473.2;" xml:space="preserve">
<style type="text/css">
	.st0{fill:#EDF5FF;}
	.st1{fill:#0F62FE;}
	.st2{fill:#001D6C;}
	.st3{fill:none;}
	.st4{fill:#F4F4F4;}
	.st5{font-family:'IBMPlexSans-Medium';}
	.st6{font-size:16px;}
	.st7{fill:#4589FF;}
	.st8{fill:#E3F6FF;}
	.st9{fill:#161616;}
	.st10{font-family:'IBMPlexSans';}
	.st11{font-size:14px;}
	.st12{fill:#E5F6FF;}
	.st13{fill:none;stroke:#0F62FE;stroke-width:2;stroke-miterlimit:10;}
	.st14{fill:#8A3FFC;}
	.st15{fill:#FFFFFF;}
	.st16{enable-background:new    ;}
	.st17{fill:#24A148;}
	.st18{fill:#491D8B;}
	.st19{fill:#BEBEBE;}
	.st20{fill:none;stroke:#BEBEBE;stroke-width:2;stroke-miterlimit:10;}
</style>
<g id="Group-2_13_" transform="translate(47.000000, 0.000000)">
	<circle id="Oval-Copy-3_15_" class="st0" cx="14.9" cy="35.6" r="24"/>
	<g id="icon_x2F_developer_3_" transform="translate(8.000000, 8.000000)">
		<path id="Shape_16_" class="st1" d="M1.9,30.6c2.8,0,5,2.2,5,5v6h-2v-6c0-1.7-1.3-3-3-3h-4c-1.7,0-3,1.3-3,3v6h-2v-6
			c0-2.8,2.2-5,5-5H1.9z M-0.1,18.6c2.8,0,5,2.2,5,5s-2.2,5-5,5s-5-2.2-5-5S-2.8,18.6-0.1,18.6z M15,17.5l1.9,0.4l-2.4,10.4
			l-1.8-0.4L15,17.5z M9.8,19.2l1.4,1.2L9.1,23l2.1,2.6l-1.4,1.2l-3.1-3.7L9.8,19.2z M19.7,19.2l3.1,3.7l-3.1,3.7l-1.4-1.2l2.1-2.6
			l-2.1-2.6L19.7,19.2z M-0.1,20.6c-1.7,0-3,1.3-3,3c0,1.7,1.3,3,3,3s3-1.3,3-3C2.9,21.9,1.6,20.6-0.1,20.6z"/>
	</g>
</g>
<rect id="Rectangle-Copy-12_2_" x="460.9" y="196.1" class="st2" width="216" height="73"/>
<rect x="476.9" y="212.1" class="st3" width="176" height="15.6"/>
<text transform="matrix(1 0 0 1 476.8866 223.9575)" class="st4 st5 st6">Management-Hub</text>
<rect id="Rectangle-Copy_2_" x="747.9" y="253.1" class="st7" width="152" height="194"/>
<rect x="763.9" y="269.3" class="st3" width="95" height="15.6"/>
<text transform="matrix(1 0 0 1 763.9023 281.1988)" class="st4 st5 st6">Edge-Knoten</text>
<g>
	<g id="Group-2_14_" transform="translate(21.000000, 0.000000)">
		<circle id="Oval-Copy-3_16_" class="st8" cx="524.9" cy="308.1" r="24"/>
		<g id="icon_x2F_policy-admin_3_" transform="translate(8.000000, 8.000000)">
			<path id="Shape_17_" class="st1" d="M511.9,303.1c2.8,0,5,2.2,5,5v6h-2v-6c0-1.7-1.3-3-3-3h-4c-1.7,0-3,1.3-3,3v6h-2v-6
				c0-2.8,2.2-5,5-5H511.9z M509.9,291.1c2.8,0,5,2.2,5,5s-2.2,5-5,5s-5-2.2-5-5C504.9,293.4,507.2,291.1,509.9,291.1z M528.5,291.1
				l1.4,1.4l-7.1,7.1l-3.9-3.9l1.4-1.4l2.5,2.5L528.5,291.1z M509.9,293.1c-1.7,0-3,1.3-3,3s1.3,3,3,3s3-1.3,3-3
				S511.6,293.1,509.9,293.1z"/>
		</g>
	</g>
	<rect x="498.1" y="342.7" class="st3" width="94.5" height="15.5"/>
	<text transform="matrix(1 0 0 1 501.1891 353.0736)" class="st9 st10 st11">Administrator</text>
</g>
<g>
	<circle id="Oval-Copy-3_13_" class="st12" cx="841.9" cy="77.6" r="24"/>
	<path class="st1" d="M836.9,80.6c2.8,0,5,2.2,5,5v6h-2v-6c0-1.7-1.3-3-3-3h-4c-1.7,0-3,1.3-3,3v6h-2v-6c0-2.8,2.2-5,5-5H836.9z"/>
	<g>
		<g>
			<path class="st1" d="M834.9,68.6c-2.8,0-5,2.2-5,5c0,2.8,2.2,5,5,5s5-2.2,5-5C839.9,70.8,837.7,68.6,834.9,68.6z M834.9,76.6
				c-1.7,0-3-1.3-3-3c0-1.7,1.3-3,3-3s3,1.3,3,3C837.9,75.3,836.6,76.6,834.9,76.6z"/>
		</g>
	</g>
	<rect x="844.9" y="66.6" class="st13" width="4" height="4"/>
	<rect x="852.9" y="66.6" class="st13" width="4" height="4"/>
	<rect x="844.9" y="74.6" class="st13" width="4" height="4"/>
	<rect x="852.9" y="74.6" class="st13" width="4" height="4"/>
</g>
<rect id="Rectangle-Copy-18_4_" x="309.9" y="13.1" class="st14" width="120" height="96"/>
<rect x="325.9" y="29.1" class="st3" width="45" height="15.6"/>
<text transform="matrix(1 0 0 1 325.8866 40.9574)" class="st4 st5 st6">App</text>
<rect id="Rectangle-Copy-10_4_" x="325.9" y="61.1" class="st15" width="88" height="32"/>
<rect x="349.9" y="72.1" class="st3" width="46" height="16"/>
<rect x="345.6" y="61.9" class="st3" width="67.3" height="30"/>
<text transform="matrix(1 0 0 1 345.5533 73.8106)" class="st16"><tspan x="0" y="0" class="st9 st10 st11">Geheimer </tspan><tspan x="0" y="16.8" class="st9 st10 st11">Schlüssel</tspan></text>
<rect x="333.9" y="69.1" class="st1" width="8" height="16"/>
<rect id="Rectangle-Copy-18_5_" x="309.9" y="125.1" class="st14" width="120" height="96"/>
<rect x="325.9" y="141.1" class="st3" width="73" height="15.6"/>
<text transform="matrix(1 0 0 1 325.8866 152.9574)" class="st4 st5 st6">Service</text>
<rect id="Rectangle-Copy-10_5_" x="325.9" y="173.1" class="st15" width="88" height="32"/>
<rect x="349.9" y="184.1" class="st3" width="46" height="16"/>
<rect x="347.2" y="173.9" class="st3" width="65.3" height="30.6"/>
<text transform="matrix(1 0 0 1 347.22 185.8106)" class="st16"><tspan x="0" y="0" class="st9 st10 st11">Geheimer </tspan><tspan x="0" y="16.8" class="st9 st10 st11">Schlüssel</tspan></text>
<rect x="333.9" y="181.1" class="st1" width="8" height="16"/>
<rect id="Rectangle-Copy-18_6_" x="763.9" y="335.1" class="st14" width="120" height="96"/>
<rect x="779.9" y="351.1" class="st3" width="73" height="15.6"/>
<text transform="matrix(1 0 0 1 779.8866 362.9574)" class="st4 st5 st6">Service</text>
<rect id="Rectangle-Copy-10_8_" x="779.9" y="383.1" class="st15" width="88" height="32"/>
<rect x="803.9" y="394.1" class="st3" width="46" height="16"/>
<rect x="799.2" y="384.1" class="st3" width="64.7" height="30"/>
<text transform="matrix(1 0 0 1 799.22 396.0306)" class="st16"><tspan x="0" y="0" class="st9 st10 st11">Geheimer </tspan><tspan x="0" y="16.8" class="st9 st10 st11">Schlüssel</tspan></text>
<rect x="787.9" y="391.1" class="st17" width="8" height="16"/>
<rect id="Rectangle-Copy-18_3_" x="139.9" y="285.1" class="st18" width="245" height="104"/>
<rect x="155.9" y="301.1" class="st3" width="75" height="15.6"/>
<text transform="matrix(1 0 0 1 155.8866 312.9574)" class="st4 st5 st6">Richtlinie</text>
<rect id="Rectangle-Copy-10_6_" x="149.9" y="333.1" class="st15" width="86" height="32"/>
<rect x="173.9" y="344.1" class="st3" width="46" height="16"/>
<rect x="169.9" y="333.6" class="st3" width="64.7" height="32"/>
<text transform="matrix(1 0 0 1 169.8867 345.4773)" class="st16"><tspan x="0" y="0" class="st9 st10 st11">Geheimer </tspan><tspan x="0" y="16.8" class="st9 st10 st11">Schlüssel</tspan></text>
<rect x="157.9" y="341.1" class="st1" width="8" height="16"/>
<rect id="Rectangle-Copy-10_7_" x="282.9" y="333.1" class="st15" width="86" height="32"/>
<rect x="306.9" y="344.1" class="st3" width="46" height="16"/>
<rect x="302.2" y="333.3" class="st3" width="64.3" height="30.6"/>
<text transform="matrix(1 0 0 1 302.22 345.144)" class="st16"><tspan x="0" y="0" class="st9 st10 st11">Geheimer </tspan><tspan x="0" y="16.8" class="st9 st10 st11">Schlüssel</tspan></text>
<rect x="290.9" y="341.1" class="st17" width="8" height="16"/>
<path id="Path-4_7_" class="st19" d="M249.9,349.1h19v-6l14,7l-14,7v-6h-19V349.1z"/>
<path id="Path-4_6_" class="st19" d="M268.9,349.1h-19v-6l-14,7l14,7v-6h19V349.1z"/>
<rect x="675.9" y="58.1" class="st3" width="115" height="16"/>
<rect x="668.1" y="40" class="st3" width="135.1" height="31.9"/>
<text transform="matrix(1 0 0 1 668.1475 51.8377)" class="st16"><tspan x="0" y="0" class="st9 st10 st11">5. Erstellt geheimen </tspan><tspan x="0" y="16.8" class="st9 st10 st11">Schlüssel</tspan></text>
<rect x="165.9" y="30.1" class="st3" width="127" height="16"/>
<rect x="161.9" y="16.6" class="st3" width="124" height="32.1"/>
<text transform="matrix(1 0 0 1 161.9023 28.5044)" class="st16"><tspan x="0" y="0" class="st9 st10 st11">1. App entwickeln/</tspan><tspan x="118.1" y="0" class="st9 st10 st11">-</tspan><tspan x="0" y="16.8" class="st9 st10 st11">testen</tspan></text>
<rect x="165.9" y="71.1" class="st3" width="127" height="16"/>
<text transform="matrix(1 0 0 1 145.2356 68.8377)" class="st16"><tspan x="0" y="0" class="st9 st10 st11">2. Legt geheimen  </tspan><tspan x="0" y="16.8" class="st9 st10 st11">Schlüssel fest</tspan></text>
<rect x="165.9" y="126.1" class="st3" width="127" height="16"/>
<text transform="matrix(1 0 0 1 128.569 137.8377)" class="st9 st10 st11">3. Packetiert App</text>
<rect x="439.9" y="143.1" class="st3" width="132" height="16"/>
<rect x="453.9" y="125" class="st3" width="106.7" height="31.6"/>
<text transform="matrix(1 0 0 1 453.9023 136.8377)" class="st16"><tspan x="0" y="0" class="st9 st10 st11">4. Veröffentlicht </tspan><tspan x="0" y="16.8" class="st9 st10 st11">Service</tspan></text>
<rect x="500.9" y="377.1" class="st3" width="203" height="16"/>
<text transform="matrix(1 0 0 1 500.9023 382.5044)" class="st9 st10 st11">6. Erstellt Bereitstellungsrichtlinie</text>
<rect x="500.9" y="401.1" class="st3" width="203" height="16"/>
<text transform="matrix(1 0 0 1 500.9023 406.5044)" class="st9 st10 st11">7. Bindet geheime Schlüssel</text>
<rect x="500.9" y="425.1" class="st3" width="203" height="16"/>
<rect x="500.9" y="418.6" class="st3" width="208.3" height="30.3"/>
<text transform="matrix(1 0 0 1 500.9023 430.5044)" class="st16"><tspan x="0" y="0" class="st9 st10 st11">8. Veröffentlicht </tspan><tspan x="0" y="16.8" class="st9 st10 st11">Bereitstellungsrichtlinie</tspan></text>
<g>
	<g>
		<polyline class="st20" points="429.9,162.1 581.9,162.1 581.9,186.1 		"/>
		<g>
			<polygon class="st19" points="574.9,184 581.9,196.1 588.9,184 			"/>
		</g>
	</g>
</g>
<g>
	<g>
		<polyline class="st20" points="101.9,35.1 152.9,35.1 152.9,51.1 299.9,51.1 		"/>
		<g>
			<polygon class="st19" points="297.8,58.1 309.9,51.1 297.8,44.1 			"/>
		</g>
	</g>
</g>
<g>
	<g>
		<polyline class="st20" points="101.9,53.1 134.9,53.1 134.9,91.1 299.9,91.1 		"/>
		<g>
			<polygon class="st19" points="297.8,98.1 309.9,91.1 297.8,84.1 			"/>
		</g>
	</g>
</g>
<g>
	<g>
		<polyline class="st20" points="101.9,71.1 116.9,71.1 116.9,147.1 299.9,147.1 		"/>
		<g>
			<polygon class="st19" points="297.8,154.1 309.9,147.1 297.8,140.1 			"/>
		</g>
	</g>
</g>
<g>
	<g>
		<line class="st20" x1="362.9" y1="285.1" x2="362.9" y2="232.2"/>
		<g>
			<polygon class="st19" points="369.9,234.2 362.9,222.1 355.9,234.2 			"/>
		</g>
	</g>
</g>
<g>
	<g>
		<polyline class="st20" points="487.9,279.2 487.9,450.1 258.9,450.1 258.9,389.1 		"/>
		<g>
			<polygon class="st19" points="480.9,281.2 487.9,269.1 494.9,281.2 			"/>
		</g>
	</g>
</g>
<g>
	<g>
		<polyline class="st20" points="676.9,230.1 837.9,230.1 837.9,243.1 		"/>
		<g>
			<polygon class="st19" points="830.9,241 837.9,253.1 844.9,241 			"/>
		</g>
	</g>
</g>
<g>
	<g id="Rectangle-Copy-10_9_">
		<rect x="564.4" y="60.6" class="st15" width="87" height="33"/>
		<path class="st9" d="M650.9,61.1v32h-86v-32H650.9 M651.9,60.1h-1h-86h-1v1v32v1h1h86h1v-1v-32V60.1L651.9,60.1z"/>
	</g>
	<rect x="586.2" y="61.9" class="st3" width="65" height="31.3"/>
	<text transform="matrix(1 0 0 1 586.2195 73.8106)" class="st16"><tspan x="0" y="0" class="st9 st10 st11">Geheimer </tspan><tspan x="0" y="16.8" class="st9 st10 st11">Schlüssel</tspan></text>
	<rect x="572.9" y="69.1" class="st17" width="8" height="16"/>
</g>
<g>
	<g>
		<line class="st20" x1="804.9" y1="77.1" x2="662" y2="77.1"/>
		<g>
			<polygon class="st19" points="664,70.1 651.9,77.1 664,84.1 			"/>
		</g>
	</g>
</g>
<g>
	<g>
		<line class="st20" x1="607.9" y1="94.1" x2="607.9" y2="186.1"/>
		<g>
			<polygon class="st19" points="600.9,184 607.9,196.1 614.9,184 			"/>
		</g>
	</g>
</g>
<rect x="26.9" y="66.9" class="st3" width="69" height="30.6"/>
<text transform="matrix(1 0 0 1 30.3558 77.2576)"><tspan x="0" y="0" class="st9 st10 st11">Software</tspan><tspan x="56.5" y="0" class="st9 st10 st11">-</tspan><tspan x="-1.9" y="16.8" class="st9 st10 st11">entwickler</tspan></text>
<rect x="780.6" y="107.9" class="st3" width="122.7" height="30.6"/>
<text transform="matrix(1 0 0 1 792.3697 118.2576)"><tspan x="0" y="0" class="st9 st10 st11">Unternehmens- </tspan><tspan x="7" y="16.8" class="st9 st10 st11">administrator</tspan></text>
<rect x="691.9" y="179.2" class="st3" width="135.3" height="46.7"/>
<text transform="matrix(1 0 0 1 691.8863 189.5909)"><tspan x="0" y="0" class="st9 st10 st11">9. Service ist mit </tspan><tspan x="0" y="16.8" class="st9 st10 st11">geheimem Schlüssel </tspan><tspan x="0" y="33.6" class="st9 st10 st11">bereitgestellt</tspan></text>
</svg>
