<?xml version="1.0" encoding="utf-8"?>
<!-- Generator: Adobe Illustrator 21.1.0, SVG Export Plug-In . SVG Version: 6.00 Build 0)  -->
<svg version="1.1" id="Capa_1" xmlns="http://www.w3.org/2000/svg" xmlns:xlink="http://www.w3.org/1999/xlink" x="0px" y="0px"
	 viewBox="0 0 1118.9 633.5" style="enable-background:new 0 0 1118.9 633.5;" xml:space="preserve">
<style type="text/css">
	.st0{fill:#051B75;}
	.st1{fill:#BEBEBE;}
	.st2{fill:#E3F6FF;}
	.st3{fill:#0F62FE;}
	.st4{fill:#054ADA;}
	.st5{fill:#8A3FFC;}
	.st6{fill:none;stroke:#BEBEBE;stroke-width:2;}
	.st7{display:none;fill:#BEBEBE;}
	.st8{fill:none;}
	.st9{fill:#F4F4F4;}
	.st10{font-family:'IBMPlexSans-Medium';}
	.st11{font-size:16px;}
	.st12{fill:#408BFC;}
	.st13{enable-background:new    ;}
	.st14{fill:#161616;}
	.st15{font-family:'IBMPlexSans';}
	.st16{font-size:14px;}
	.st17{fill:#FFFFFF;}
	.st18{fill:#92EEEE;}
	.st19{fill:none;stroke:#BEBEBE;stroke-width:2;stroke-miterlimit:10;}
	.st20{fill:none;stroke:#BEBEBE;stroke-width:2.2099;stroke-miterlimit:10;}
</style>
<rect id="Rectangle-Copy-51" x="368.5" y="221.2" class="st0" width="496.4" height="284"/>
<path id="Line-11-Copy-3" class="st1" d="M425.7,377.2l6.8,14.1l-6-0.1l-0.2,15l6,0.1l-7.2,13.9l-6.8-14.1l6,0.1l0.2-15l-6-0.1
	L425.7,377.2z"/>
<path id="Line-11-Copy-4" class="st1" d="M521.5,377.2l6.8,14.1l-6-0.1l-0.2,15l6,0.1l-7.2,13.9l-6.8-14.1l6,0.1l0.2-15l-6-0.1
	L521.5,377.2z"/>
<path id="Line-11-Copy-5" class="st1" d="M808.2,377.2l6.8,14.1l-6-0.1l-0.2,15l6,0.1l-7.2,13.9l-6.8-14.1l6,0.1l0.2-15l-6-0.1
	L808.2,377.2z"/>
<circle id="Oval-Copy-3" class="st2" cx="77.1" cy="34.2" r="24"/>
<path id="Shape" class="st3" d="M72.1,37.2c2.8,0,5,2.2,5,5v6h-2v-6c0-1.7-1.3-3-3-3h-4c-1.7,0-3,1.3-3,3v6h-2v-6c0-2.8,2.2-5,5-5
	H72.1z M70.1,25.2c2.8,0,5,2.2,5,5s-2.2,5-5,5c-2.8,0-5-2.2-5-5S67.3,25.2,70.1,25.2z M85.1,23.1c2.1,0,3.9,1.4,4.5,3.4l0.1,0.2v0.1
	l0,0c1.3,0.5,2.2,1.7,2.3,3.1v0.2v0.2c0,2.1-1.6,3.7-3.7,3.9h-0.2h-6.3c-2.1,0-3.9-1.7-3.9-3.9c0-1.5,0.9-2.8,2.2-3.5l0.2-0.1v-0.1
	c0.5-1.9,2.1-3.4,4.1-3.6h0.2L85.1,23.1z M70.1,27.2c-1.7,0-3,1.3-3,3s1.3,3,3,3c1.7,0,3-1.3,3-3S71.7,27.2,70.1,27.2z M85.1,25.1
	c-1.4,0-2.5,1-2.7,2.4v0.2v0.8l-0.8,0.2c-0.9,0.2-1.5,0.9-1.5,1.8c0,1,0.8,1.8,1.7,1.9h0.1h6.3c1,0,1.9-0.8,1.9-1.9
	c0-0.8-0.6-1.6-1.3-1.8h-0.1l-0.8-0.2v-0.8C87.7,26.2,86.5,25.1,85.1,25.1z"/>
<rect id="Rectangle-Copy-48" x="140.2" y="221.2" class="st4" width="184.7" height="284"/>
<rect id="Rectangle-Copy-49" x="140.2" y="523.2" class="st5" width="724.7" height="100"/>
<polyline id="Path-6-Copy-9_4_" class="st6" points="567,105.2 567,181.2 396.6,181.2 "/>
<path id="Path-6-Copy-8" class="st7" d="M686.3,105.2v99h149v304.5H568.8v-19.5h-6l7-14l7,14h-6v17.5h262.5V206.2h-149v-101H686.3z"
	/>
<rect x="381.6" y="241.3" class="st8" width="184" height="15.6"/>
<text transform="matrix(1 0 0 1 381.6205 253.2279)" class="st9 st10 st11">Pôle de gestion IEAM</text>
<rect x="156.2" y="543.4" class="st8" width="319.6" height="15.6"/>
<text transform="matrix(1 0 0 1 156.24 555.2312)" class="st9 st10 st11">Plateforme de conteneurs Red Hat® OpenShift</text>
<rect id="Rectangle-Copy-14" x="885.3" y="523.2" class="st12" width="117" height="100"/>
<rect x="901.3" y="543.4" class="st8" width="94.6" height="15.6"/>
<rect x="898.3" y="532.6" class="st8" width="90.8" height="36.9"/>
<text transform="matrix(1 0 0 1 898.3392 546.2312)" class="st13"><tspan x="0" y="0" class="st9 st10 st11">Noeud de </tspan><tspan x="0" y="19.2" class="st9 st10 st11">périphérie</tspan></text>
<rect x="156.2" y="241.3" class="st8" width="148" height="57"/>
<rect x="26.5" y="61.8" class="st8" width="99.9" height="17.9"/>
<text transform="matrix(1 0 0 1 10.6479 74.2085)" class="st14 st15 st16">Installateur de cloud</text>
<rect x="84.1" y="108.8" class="st8" width="99.9" height="56"/>
<text transform="matrix(1 0 0 1 80.4325 119.2064)" class="st14 st15 st16">1. Configure l&apos;OCP</text>
<g>
	<rect id="Rectangle-Copy-16" x="672.4" y="296.2" class="st17" width="80" height="81"/>
	<rect x="672.4" y="329.8" class="st8" width="80" height="14.9"/>
	<text transform="matrix(1 0 0 1 676.2061 340.2263)" class="st14 st15 st16">objets SDO</text>
</g>
<g>
	<rect id="Rectangle-Copy-16_6_" x="768" y="296.2" class="st17" width="80" height="81"/>
	<rect x="768" y="329.8" class="st8" width="80" height="14.9"/>
	<text transform="matrix(1 0 0 1 792.3951 340.2263)" class="st14 st15 st16">MMS</text>
</g>
<g>
	<rect id="Rectangle-Copy-16_1_" x="576.8" y="296.2" class="st17" width="80" height="81"/>
	<rect x="576.8" y="329.8" class="st8" width="80" height="14.9"/>
	<rect x="580.2" y="320.7" class="st8" width="70.3" height="32.1"/>
	<text transform="matrix(1 0 0 1 587.402 332.5596)" class="st13"><tspan x="0" y="0" class="st14 st15 st16">interface </tspan><tspan x="-3.9" y="16.8" class="st14 st15 st16">utilisateur</tspan></text>
</g>
<g>
	<rect id="Rectangle-Copy-16_2_" x="481.3" y="296.2" class="st17" width="80" height="81"/>
	<rect x="481.3" y="329.8" class="st8" width="80" height="14.9"/>
	<text transform="matrix(1 0 0 1 490.3553 340.2263)" class="st14 st15 st16">Échange</text>
</g>
<g>
	<rect id="Rectangle-Copy-16_3_" x="385.7" y="296.2" class="st17" width="80" height="81"/>
	<rect x="385.7" y="329.8" class="st8" width="80" height="14.9"/>
	<text transform="matrix(1 0 0 1 406.7758 340.2263)" class="st14 st15 st16">Agbot</text>
</g>
<g>
	<rect id="Rectangle-Copy-16_7_" x="156.2" y="407.2" class="st17" width="80" height="81"/>
	<rect x="156.1" y="440.9" class="st8" width="80" height="14.9"/>
	<text transform="matrix(1 0 0 1 183.0238 451.2947)" class="st14 st15 st16">IAM</text>
</g>
<g>
	<rect id="Rectangle-Copy-16_4_" x="385.7" y="420.2" class="st18" width="80" height="68"/>
	<rect x="385.7" y="437.9" class="st8" width="80" height="39.8"/>
</g>
<g>
	<rect id="Rectangle-Copy-16_5_" x="481.3" y="420.2" class="st18" width="80" height="68"/>
</g>
<g>
	<rect id="Rectangle-Copy-16_16_" x="768" y="420.2" class="st18" width="80" height="68"/>
</g>
<g>
	<g>
		<polyline class="st19" points="760.1,105.2 760.1,275.2 521.3,275.2 521.3,286.2 		"/>
		<g>
			<polygon class="st1" points="514.3,284.2 521.3,296.2 528.2,284.2 			"/>
		</g>
	</g>
</g>
<g>
	<g>
		<polyline class="st20" points="943.8,105.2 943.8,323.2 859.1,323.2 		"/>
		<g>
			<polygon class="st1" points="861.3,315.5 848,323.2 861.3,331 			"/>
		</g>
	</g>
</g>
<g>
	<g>
		<polyline class="st20" points="848,349.7 943.8,349.7 943.8,512.1 		"/>
		<g>
			<polygon class="st1" points="936.1,509.8 943.8,523.2 951.5,509.8 			"/>
		</g>
	</g>
</g>
<g>
	<g>
		<line class="st19" x1="199.9" y1="105.2" x2="199.9" y2="211.2"/>
		<g>
			<polygon class="st1" points="192.9,209.1 199.9,221.2 206.9,209.1 			"/>
		</g>
	</g>
</g>
<g>
	<g>
		<polyline class="st19" points="72,90.3 72,573.2 130.2,573.2 		"/>
		<g>
			<polygon class="st1" points="128.1,580.2 140.2,573.2 128.1,566.2 			"/>
		</g>
	</g>
</g>
<g>
	<g>
		<polyline class="st19" points="246.3,444.3 346.7,444.3 346.7,181.2 381.6,181.2 		"/>
		<g>
			<polygon class="st1" points="248.3,451.3 236.2,444.3 248.3,437.4 			"/>
		</g>
	</g>
</g>
<g>
	<g>
		<line class="st19" x1="390" y1="105.2" x2="390" y2="211.2"/>
		<g>
			<polygon class="st1" points="383,209.1 390,221.2 397,209.1 			"/>
		</g>
	</g>
</g>
<rect x="208.3" y="107.5" class="st8" width="173.5" height="30.6"/>
<text transform="matrix(1 0 0 1 208.3455 117.8793)"><tspan x="0" y="0" class="st14 st15 st16">2. Installe IBM Cloud </tspan><tspan x="0" y="16.8" class="st14 st15 st16">Platform Common Services</tspan></text>
<rect x="397.5" y="105.5" class="st8" width="163" height="47.4"/>
<text transform="matrix(1 0 0 1 397.5121 115.8793)"><tspan x="0" y="0" class="st14 st15 st16">3. Installe les </tspan><tspan x="0" y="16.8" class="st14 st15 st16">composants sur le </tspan><tspan x="0" y="33.6" class="st14 st15 st16">concentrateur de gestion</tspan></text>
<rect x="576.5" y="104.5" class="st8" width="179.7" height="64.2"/>
<text transform="matrix(1 0 0 1 576.5121 114.8793)"><tspan x="0" y="0" class="st14 st15 st16">4. Configure </tspan><tspan x="0" y="16.8" class="st14 st15 st16">l&apos;authentification pour </tspan><tspan x="0" y="33.6" class="st14 st15 st16">l&apos;Identité et le Gestionnaire </tspan><tspan x="0" y="50.4" class="st14 st15 st16">d&apos;Accès (IAM)</tspan></text>
<rect x="768.5" y="107" class="st8" width="162.5" height="47.4"/>
<text transform="matrix(1 0 0 1 768.5121 117.3793)"><tspan x="0" y="0" class="st14 st15 st16">5. Alimente la plateforme </tspan><tspan x="0" y="16.8" class="st14 st15 st16">d&apos;échange avec des </tspan><tspan x="0" y="33.6" class="st14 st15 st16">exemples d&apos;Open Horizon</tspan></text>
<rect x="952.5" y="104.5" class="st8" width="135.7" height="47.4"/>
<text transform="matrix(1 0 0 1 952.5121 114.8793)"><tspan x="0" y="0" class="st14 st15 st16">6. Publie les fichiers </tspan><tspan x="0" y="16.8" class="st14 st15 st16">d&apos;installation de </tspan><tspan x="0" y="33.6" class="st14 st15 st16">l&apos;agent dans le MMS</tspan></text>
<rect x="151" y="233" class="st8" width="162" height="80.5"/>
<text transform="matrix(1 0 0 1 151.0122 244.8593)"><tspan x="0" y="0" class="st9 st10 st11">IBM Cloud Platform </tspan><tspan x="0" y="19.2" class="st9 st10 st11">Common Services</tspan></text>
<rect x="390.5" y="437.5" class="st8" width="70.5" height="30.6"/>
<text transform="matrix(1 0 0 1 398.2172 447.8788)"><tspan x="0" y="0" class="st14 st15 st16">Postgres </tspan><tspan x="18.3" y="16.8" class="st14 st15 st16">DB</tspan></text>
<rect x="485.5" y="437.5" class="st8" width="70.5" height="30.6"/>
<text transform="matrix(1 0 0 1 493.2172 447.8788)"><tspan x="0" y="0" class="st14 st15 st16">Postgres </tspan><tspan x="18.3" y="16.8" class="st14 st15 st16">DB</tspan></text>
<rect x="780.5" y="437.5" class="st8" width="53.1" height="30.6"/>
<text transform="matrix(1 0 0 1 785.8434 447.8788)"><tspan x="0" y="0" class="st14 st15 st16">Mongo </tspan><tspan x="11.9" y="16.8" class="st14 st15 st16">DB</tspan></text>
<rect x="955" y="385" class="st8" width="111" height="66"/>
<text transform="matrix(1 0 0 1 955.0121 395.3788)"><tspan x="0" y="0" class="st14 st15 st16">Les nœuds de </tspan><tspan x="0" y="16.8" class="st14 st15 st16">périphérie </tspan><tspan x="0" y="33.6" class="st14 st15 st16">extraient les </tspan><tspan x="0" y="50.4" class="st14 st15 st16">fichiers des MMS</tspan></text>
</svg>
