<?xml version="1.0" encoding="utf-8"?>
<!-- Generator: Adobe Illustrator 24.0.3, SVG Export Plug-In . SVG Version: 6.00 Build 0)  -->
<svg version="1.1" id="Layer_1" xmlns="http://www.w3.org/2000/svg" xmlns:xlink="http://www.w3.org/1999/xlink" x="0px" y="0px"
	 viewBox="0 0 1183 926" style="enable-background:new 0 0 1183 926;" xml:space="preserve">
<style type="text/css">
	.st0{fill-rule:evenodd;clip-rule:evenodd;fill:#6E32C9;}
	.st1{fill-rule:evenodd;clip-rule:evenodd;fill:#4F2196;}
	.st2{fill-rule:evenodd;clip-rule:evenodd;fill:#FFFFFF;stroke:#E0E0E0;}
	.st3{fill-rule:evenodd;clip-rule:evenodd;fill:#FFFFFF;}
	.st4{fill-rule:evenodd;clip-rule:evenodd;fill:#C9DEFF;}
	.st5{fill-rule:evenodd;clip-rule:evenodd;fill:#408BFC;}
	.st6{fill-rule:evenodd;clip-rule:evenodd;fill:#054ADA;}
	.st7{fill:none;stroke:#054ADA;stroke-linecap:square;}
	.st8{fill:none;stroke:#054ADA;}
	.st9{fill:#BEBEBE;}
	.st10{fill-rule:evenodd;clip-rule:evenodd;fill:#24A148;}
	.st11{fill-rule:evenodd;clip-rule:evenodd;fill:none;}
	.st12{fill:#F4F4F4;}
	.st13{font-family:'IBMPlexSans-Medium';}
	.st14{font-size:16px;}
	.st15{fill:#161616;}
	.st16{font-family:'IBMPlexSans';}
	.st17{font-family:'IBMPlexSans-Bold';}
	.st18{font-size:14px;}
</style>
<rect id="Rectangle-Copy-14" x="21" y="263" class="st0" width="281" height="663"/>
<rect id="Rectangle-Copy-14_1_" x="495" y="263" class="st1" width="667" height="663"/>
<rect id="Rectangle" x="0.5" y="0.5" class="st2" width="144" height="37"/>
<rect id="Rectangle-Copy-28" x="0.5" y="37.5" class="st2" width="144" height="76"/>
<rect id="Rectangle-Copy-31" x="0.5" y="114.5" class="st2" width="144" height="79"/>
<rect id="Rectangle-Copy-29" x="143.5" y="37.5" class="st2" width="260" height="76"/>
<rect id="Rectangle-Copy-33" x="403.5" y="37.5" class="st2" width="260" height="76"/>
<rect id="Rectangle-Copy-36" x="663.5" y="37.5" class="st2" width="260" height="76"/>
<rect id="Rectangle-Copy-39" x="922.5" y="37.5" class="st2" width="260" height="76"/>
<rect id="Rectangle-Copy-32" x="143.5" y="114.5" class="st2" width="260" height="79"/>
<rect id="Rectangle-Copy-34" x="403.5" y="114.5" class="st2" width="260" height="79"/>
<rect id="Rectangle-Copy-37" x="663.5" y="114.5" class="st2" width="260" height="79"/>
<rect id="Rectangle-Copy-40" x="922.5" y="114.5" class="st2" width="260" height="79"/>
<rect id="Rectangle-Copy-26" x="143.5" y="0.5" class="st2" width="260" height="37"/>
<rect id="Rectangle-Copy-35" x="403.5" y="0.5" class="st2" width="260" height="37"/>
<rect id="Rectangle-Copy-38" x="663.5" y="0.5" class="st2" width="260" height="37"/>
<rect id="Rectangle-Copy-41" x="922.5" y="0.5" class="st2" width="260" height="37"/>
<rect id="Rectangle-Copy-30" x="53" y="334" class="st3" width="217" height="264"/>
<path id="Default-Copy-4" class="st4" d="M85,398h129c8.8,0,16,7.2,16,16l0,0c0,8.8-7.2,16-16,16H85c-8.8,0-16-7.2-16-16l0,0
	C69,405.2,76.2,398,85,398z"/>
<rect id="Rectangle-Copy-45" x="53" y="630" class="st3" width="217" height="264"/>
<rect id="Rectangle-Copy-46" x="527" y="334" class="st3" width="603" height="264"/>
<rect id="Rectangle_1_" x="543" y="398" class="st5" width="286" height="184"/>
<rect id="Rectangle-Copy-43" x="829" y="398" class="st6" width="286" height="184"/>
<rect id="Default" x="558" y="462" class="st4" width="100" height="32"/>
<rect id="Default-Copy" x="558" y="534" class="st4" width="100" height="32"/>
<rect id="Default_1_" x="662" y="462" class="st4" width="85" height="32"/>
<rect id="Default-Copy-2" x="662" y="534" class="st4" width="85" height="32"/>
<rect id="Default_2_" x="751" y="462" class="st4" width="39" height="32"/>
<rect id="Default-Copy-3" x="751" y="534" class="st4" width="62" height="32"/>
<line id="Line-3" class="st7" x1="616" y1="514.5" x2="813.5" y2="514.5"/>
<line id="Line-3-Copy" class="st8" x1="558" y1="514" x2="566" y2="514"/>
<rect id="Field-color" x="570" y="502" class="st4" width="42" height="24"/>
<rect id="Rectangle-Copy-47" x="527" y="630" class="st3" width="603" height="264"/>
<rect id="Rectangle_2_" x="543" y="694" class="st5" width="286" height="184"/>
<rect id="Rectangle-Copy-43_1_" x="829" y="694" class="st6" width="286" height="184"/>
<path id="Line-9" class="st9" d="M527,459c3.9,0,7,3.1,7,7s-3.1,7-7,7c-3.5,0-6.4-2.6-6.9-6l-235.6,0v6l-14-7l14-7v6h235.6
	c0.5-3.3,3.3-5.9,6.7-6L527,459z"/>
<path id="Line-9-Copy" class="st9" d="M513,755l14,7l-14,7v-6l-235.6,0c-0.5,3.3-3.3,5.9-6.7,6l-0.2,0c-3.9,0-7-3.1-7-7s3.1-7,7-7
	c3.5,0,6.4,2.6,6.9,6H513V755z"/>
<circle id="Oval" class="st3" cx="399" cy="466" r="20"/>
<path id="path-1_1_" class="st10" d="M406,462.4l-1.4-1.4l-7.6,7.6l-3.6-3.6l-1.4,1.4l5,5L406,462.4z M399,452c-7.7,0-14,6.3-14,14
	s6.3,14,14,14s14-6.3,14-14S406.7,452,399,452z M399,478c-6.6,0-12-5.4-12-12s5.4-12,12-12s12,5.4,12,12S405.6,478,399,478z"/>
<circle id="Oval_1_" class="st3" cx="399" cy="762" r="20"/>
<path id="path-3_1_" class="st10" d="M406,758.4l-1.4-1.4l-7.6,7.6l-3.6-3.6l-1.4,1.4l5,5L406,758.4z M399,748c-7.7,0-14,6.3-14,14
	s6.3,14,14,14s14-6.3,14-14S406.7,748,399,748z M399,774c-6.6,0-12-5.4-12-12s5.4-12,12-12s12,5.4,12,12S405.6,774,399,774z"/>
<rect x="511" y="283.2" class="st11" width="236.1" height="15.6"/>
<text transform="matrix(1 0 0 1 511.0002 295.0103)" class="st12 st13 st14">Bereitstellungsrichtlinie</text>
<rect x="542.9" y="354.2" class="st11" width="236.1" height="15.6"/>
<text transform="matrix(1 0 0 1 542.886 366.0135)" class="st15 st16 st14">Bedingungen</text>
<rect x="542.9" y="650.1" class="st11" width="236.1" height="15.6"/>
<text transform="matrix(1 0 0 1 542.886 661.9528)" class="st15 st16 st14">Eigenschaften</text>
<rect x="69" y="354.2" class="st11" width="179.7" height="15.6"/>
<text transform="matrix(1 0 0 1 69.0002 366.0135)" class="st15 st16 st14">Knoteneigenschaften</text>
<rect x="69" y="650.2" class="st11" width="179.7" height="15.6"/>
<text transform="matrix(1 0 0 1 69.0002 662.0065)" class="st15 st16 st14">Knotenbedingungen</text>
<rect x="37" y="283.2" class="st11" width="236.1" height="15.6"/>
<text transform="matrix(1 0 0 1 37.0001 295.0103)" class="st12 st13 st14">Knotenrichtlinie</text>
<rect x="150" y="13.1" class="st11" width="237.4" height="19.1"/>
<text transform="matrix(1 0 0 1 150 24.9894)" class="st15 st17 st14">Knotenrichtlinie</text>
<rect x="5" y="50.2" class="st11" width="129.5" height="19.1"/>
<text transform="matrix(1 0 0 1 5 62.0046)" class="st15 st17 st14">Rolle</text>
<rect x="5" y="127.1" class="st11" width="129.5" height="19.1"/>
<text transform="matrix(1 0 0 1 5 138.9762)" class="st15 st17 st14">Zweck</text>
<rect x="150" y="50.2" class="st11" width="250.5" height="59.6"/>
<text transform="matrix(1 0 0 1 150 62.0051)"><tspan x="0" y="0" class="st15 st16 st14">Wird beim Registrieren des Knotens </tspan><tspan x="0" y="20" class="st15 st16 st14">vom Knoteneigner bereitgestellt</tspan></text>
<rect x="150" y="127.1" class="st11" width="250.5" height="59.6"/>
<text transform="matrix(1 0 0 1 150 138.9767)"><tspan x="0" y="0" class="st15 st16 st14">Definiert die Funktionen des Knotens </tspan><tspan x="0" y="20" class="st15 st16 st14">und den beabsichtigten Zweck </tspan><tspan x="0" y="40" class="st15 st16 st14">des Knotens</tspan></text>
<rect x="69" y="711.6" class="st11" width="186.2" height="29.8"/>
<text transform="matrix(1 0 0 1 69.0152 722.0035)" class="st15 st16 st18">(Optional)</text>
<rect x="559" y="714.2" class="st11" width="236.1" height="15.6"/>
<text transform="matrix(1 0 0 1 559.0001 725.9962)" class="st12 st16 st14">Bereitstellungseigenschaften</text>
<rect x="559" y="758.6" class="st11" width="186.2" height="29.8"/>
<text transform="matrix(1 0 0 1 559 768.9775)" class="st12 st16 st18">(Optional)</text>
<rect x="845" y="714.2" class="st11" width="236.1" height="15.6"/>
<text transform="matrix(1 0 0 1 845.0001 725.9962)" class="st12 st16 st14">Serviceeigenschaften</text>
<rect x="845" y="758.6" class="st11" width="186.2" height="29.8"/>
<text transform="matrix(1 0 0 1 845 768.9775)" class="st12 st16 st18">(Optional)</text>
<rect x="559" y="418.2" class="st11" width="236.1" height="15.6"/>
<text transform="matrix(1 0 0 1 559.0001 430.0558)" class="st12 st16 st14">Bereitstellungsbedingungen</text>
<rect x="845" y="418.2" class="st11" width="236.1" height="15.6"/>
<text transform="matrix(1 0 0 1 845.0001 430.0558)" class="st12 st16 st14">Servicebedingungen</text>
<rect x="845" y="462.7" class="st11" width="186.2" height="29.8"/>
<text transform="matrix(1 0 0 1 845 473.0371)" class="st12 st16 st18">(Optional)</text>
<rect x="81" y="408.7" class="st11" width="142.2" height="17.6"/>
<text transform="matrix(1 0 0 1 81 419.0175)" class="st15 st16 st18">camera-type=motion</text>
<rect x="409" y="13.1" class="st11" width="237.4" height="19.1"/>
<text transform="matrix(1 0 0 1 409 24.9894)" class="st15 st17 st14">Servicerichtlinie</text>
<rect x="409" y="50.2" class="st11" width="250.5" height="59.6"/>
<text transform="matrix(1 0 0 1 409 62.0051)"><tspan x="0" y="0" class="st15 st16 st14">Wird beim Publizieren des Service</tspan><tspan x="0" y="20" class="st15 st16 st14">vom Serviceentwickler bereitgestellt</tspan></text>
<rect x="409" y="127.1" class="st11" width="250.5" height="59.6"/>
<text transform="matrix(1 0 0 1 409 138.9767)"><tspan x="0" y="0" class="st15 st16 st14">Definiert, was der Service für eine </tspan><tspan x="0" y="20" class="st15 st16 st14">korrekte Ausführung auf einem Edge-</tspan><tspan x="0" y="40" class="st15 st16 st14">Knoten benötigt, und seinen Zweck</tspan></text>
<rect x="669" y="13.1" class="st11" width="237.4" height="19.1"/>
<text transform="matrix(1 0 0 1 669.0275 24.9894)" class="st15 st17 st14">Bereitstellungsrichtlinie</text>
<rect x="669" y="50.2" class="st11" width="250.5" height="59.6"/>
<text transform="matrix(1 0 0 1 669.0275 62.0051)"><tspan x="0" y="0" class="st15 st16 st14">Wird beim Bereitstellen des Service </tspan><tspan x="0" y="20" class="st15 st16 st14">vom Richtlinienadministrator </tspan><tspan x="0" y="40" class="st15 st16 st14">bereitgestellt</tspan></text>
<rect x="669" y="127.1" class="st11" width="250.5" height="59.6"/>
<text transform="matrix(1 0 0 1 669.0275 138.9767)"><tspan x="0" y="0" class="st15 st16 st14">Definiert, wo der Service ausgeführt </tspan><tspan x="0" y="20" class="st15 st16 st14">werden soll</tspan></text>
<rect x="929" y="13.1" class="st11" width="237.4" height="19.1"/>
<text transform="matrix(1 0 0 1 929 24.9894)" class="st15 st17 st14">Modellrichtlinie</text>
<rect x="929" y="50.2" class="st11" width="239.4" height="59.6"/>
<text transform="matrix(1 0 0 1 929 62.0046)"><tspan x="0" y="0" class="st15 st16 st14">Wird beim Erstellen des Modells </tspan><tspan x="0" y="20" class="st15 st16 st14">vom Modellersteller oder </tspan><tspan x="0" y="40" class="st15 st16 st14">Data-Scientist bereitgestellt</tspan></text>
<rect x="929" y="127.1" class="st11" width="250.5" height="59.6"/>
<text transform="matrix(1 0 0 1 929 138.9767)"><tspan x="0" y="0" class="st15 st16 st14">Schränkt den Edge-Knoten, auf dem </tspan><tspan x="0" y="20" class="st15 st16 st14">dieses Modell bereitgestellt </tspan><tspan x="0" y="40" class="st15 st16 st14">wird, weiter ein </tspan></text>
<rect x="557.9" y="472.6" class="st11" width="100.1" height="17.6"/>
<text transform="matrix(1 0 0 1 567.0018 482.9886)" class="st15 st16 st18">camera-type</text>
<rect x="662" y="472.6" class="st11" width="85" height="17.6"/>
<text transform="matrix(1 0 0 1 671.3695 482.9886)" class="st15 st16 st18">ist gleich</text>
<rect x="751" y="472.6" class="st11" width="39.4" height="17.6"/>
<text transform="matrix(1 0 0 1 758.9452 482.9886)" class="st15 st16 st18">still</text>
<rect x="557.9" y="544.8" class="st11" width="100.1" height="17.6"/>
<text transform="matrix(1 0 0 1 567.0018 555.1802)" class="st15 st16 st18">camera-type</text>
<rect x="572.7" y="508.7" class="st11" width="36.5" height="13.9"/>
<text transform="matrix(1 0 0 1 581.4539 519.0385)" class="st15 st16 st18">OR</text>
<rect x="662" y="544.8" class="st11" width="85" height="17.6"/>
<text transform="matrix(1 0 0 1 671.3695 555.1802)" class="st15 st16 st18">ist gleich</text>
<rect x="751" y="544.8" class="st11" width="62" height="17.6"/>
<text transform="matrix(1 0 0 1 759.4813 555.1802)" class="st15 st16 st18">motion</text>
</svg>
