<?xml version="1.0" encoding="utf-8"?>
<!-- Generator: Adobe Illustrator 21.1.0, SVG Export Plug-In . SVG Version: 6.00 Build 0)  -->
<svg version="1.1" id="Layer_1" xmlns="http://www.w3.org/2000/svg" xmlns:xlink="http://www.w3.org/1999/xlink" x="0px" y="0px"
	 viewBox="0 0 959.1 882.5" style="enable-background:new 0 0 959.1 882.5;" xml:space="preserve">
<style type="text/css">
	.st0{fill:none;stroke:#00BAB6;stroke-width:2;stroke-dasharray:7;}
	.st1{fill:#E3F6FF;}
	.st2{fill:#0F62FE;}
	.st3{fill:#009C98;}
	.st4{fill:#DCDCDC;}
	.st5{fill:#408BFC;}
	.st6{fill:#FFFFFF;}
	.st7{fill:#051B75;}
	.st8{fill:#8A3FFC;}
	.st9{fill:#EE538B;}
	.st10{fill:none;}
	.st11{fill:#161616;}
	.st12{font-family:'IBMPlexSans';}
	.st13{font-size:14px;}
	.st14{enable-background:new    ;}
	.st15{fill:#F4F4F4;}
	.st16{font-family:'AdobeMyungjoStd-Medium-KSCpc-EUC-H';}
	.st17{font-size:16px;}
	.st18{font-family:'IBMPlexSans-Medium';}
</style>
<path id="Rectangle-Copy-19" class="st0" d="M533,64.7h357c22.1,0,40,17.9,40,40v222c0,22.1-17.9,40-40,40H533
	c-22.1,0-40-17.9-40-40v-222C493,82.6,510.9,64.7,533,64.7z"/>
<path id="Rectangle-Copy-23" class="st0" d="M69,152.7h237c22.1,0,40,17.9,40,40v94c0,22.1-17.9,40-40,40H69c-22.1,0-40-17.9-40-40
	v-94C29,170.6,46.9,152.7,69,152.7z"/>
<circle id="Oval-Copy-3" class="st1" cx="86" cy="212.7" r="24"/>
<path id="Shape" class="st2" d="M81,215.7c2.8,0,5,2.2,5,5v6h-2v-6c0-1.7-1.3-3-3-3h-4c-1.7,0-3,1.3-3,3v6h-2v-6c0-2.8,2.2-5,5-5H81
	z M79,203.7c2.8,0,5,2.2,5,5s-2.2,5-5,5c-2.8,0-5-2.2-5-5S76.2,203.7,79,203.7z M100,204.7v8h-2v-8H100z M95,201.7v11h-2v-11H95z
	 M90,206.7v6h-2v-6H90z M79,205.7c-1.7,0-3,1.3-3,3s1.3,3,3,3c1.7,0,3-1.3,3-3S80.7,205.7,79,205.7z"/>
<circle id="Oval-Copy-3_1_" class="st1" cx="557" cy="120.7" r="24"/>
<path id="Shape_1_" class="st2" d="M552,123.7c2.8,0,5,2.2,5,5v6h-2v-6c0-1.7-1.3-3-3-3h-4c-1.7,0-3,1.3-3,3v6h-2v-6
	c0-2.8,2.2-5,5-5H552z M550,111.7c2.8,0,5,2.2,5,5s-2.2,5-5,5s-5-2.2-5-5S547.2,111.7,550,111.7z M565.1,110.6l1.8,0.4l-2.4,10.4
	l-1.8-0.4L565.1,110.6z M559.9,112.3l1.4,1.2l-2.1,2.6l2.1,2.6l-1.4,1.2l-3.1-3.7L559.9,112.3z M569.7,112.3l3.1,3.7l-3.1,3.7
	l-1.4-1.2l2.1-2.6l-2.1-2.6L569.7,112.3z M550,113.7c-1.7,0-3,1.3-3,3s1.3,3,3,3s3-1.3,3-3S551.7,113.7,550,113.7z"/>
<rect id="Rectangle-Copy-14" x="568" y="454.7" class="st3" width="260" height="155"/>
<path id="Line-5-Copy-5" class="st4" d="M856.3,531.2v1l-0.5,123.5h6l-7.1,14l-6.9-14h6l0.4-122.5H828v-2H856.3z"/>
<rect id="Rectangle-Copy-14_1_" x="508" y="669.7" class="st5" width="370" height="180"/>
<rect id="Rectangle-Copy-9" x="524" y="752.7" class="st6" width="80" height="81"/>
<rect id="Rectangle-Copy-24" x="29" y="454.7" class="st7" width="400" height="155"/>
<rect id="Rectangle-Copy-16" x="333" y="511.7" class="st6" width="80" height="81"/>
<rect id="Rectangle-Copy-18" x="701" y="96.7" class="st8" width="104" height="81"/>
<rect id="Rectangle-Copy-18_1_" x="813" y="228.7" class="st8" width="85" height="106"/>
<rect id="Rectangle-Copy-18_2_" x="777" y="727.7" class="st8" width="85" height="106"/>
<rect id="Rectangle-Copy-18_4_" x="525" y="228.7" class="st8" width="85" height="106"/>
<path id="Line-2-Copy-21" class="st4" d="M687,129.8l14,6.9l-14,7.1v-6l-92,0.4h-1v-2h1l92-0.4V129.8z"/>
<path id="Line-2-Copy-30" class="st9" d="M763,786.7l14,7l-14,7v-6H604v-2h159V786.7z"/>
<path id="Line-2-Copy-31" class="st4" d="M215.5,209.7l14,7l-14,7v-6H122v-2h93.5V209.7z"/>
<path id="Line-2-Copy-32" class="st9" d="M215.5,268.7l14,7l-14,7v-6H122v-2h93.5V268.7z"/>
<path id="Line-2-Copy-33" class="st4" d="M511,233.7l14,7l-14,7v-6H314v-2h197V233.7z"/>
<path id="Line-2-Copy-34" class="st4" d="M856.5,334.7V412h-357v75.7H443v6l-14-7l14-7v6h54.5v-75.6h357v-75.4H856.5z"/>
<path id="Line-2-Copy-35" class="st4" d="M799,274.7l14,7l-14,7v-6H610v-2h189V274.7z"/>
<path id="Line-4-Copy-3" class="st9" d="M374,274.7v223h6l-7,14l-7-14h6v-221h-58v-2H374z"/>
<path id="Path-3-Copy" class="st9" d="M374,592.7v200h135v-6l14,7l-14,7v-6H372v-202H374z"/>
<path id="Line-5" class="st4" d="M554,479.7l14,7l-14,7v-6h-55.5v-2H554V479.7z"/>
<rect x="625.3" y="749.3" class="st10" width="114.1" height="39.6"/>
<rect x="333" y="545.5" class="st10" width="80" height="14.9"/>
<text transform="matrix(1 0 0 1 357.4478 555.8868)" class="st11 st12 st13">MMS</text>
<rect x="530" y="777.4" class="st10" width="65.8" height="37.9"/>
<rect x="777" y="769.4" class="st10" width="84.8" height="16.4"/>
<text transform="matrix(1 0 0 1 787.426 785.1379)" class="st14"><tspan x="0" y="0" class="st15 st12 st13">AI </tspan><tspan x="17.9" y="0" class="st15 st16 st13">서비스</tspan></text>
<rect x="701" y="129.5" class="st10" width="104" height="14.9"/>
<text transform="matrix(1 0 0 1 730.4127 139.8693)" class="st15 st12 st13">Docker</text>
<rect x="812.9" y="270.4" class="st10" width="85" height="14.9"/>
<text transform="matrix(1 0 0 1 824.7449 284.8155)" class="st14"><tspan x="0" y="0" class="st15 st12 st13">AI </tspan><tspan x="17.9" y="0" class="st15 st16 st13">서비스</tspan></text>
<rect x="524.8" y="262.9" class="st10" width="85.2" height="34.7"/>
<rect x="45" y="475" class="st10" width="236.1" height="15.6"/>
<text transform="matrix(1 0 0 1 45.0366 486.8301)" class="st14"><tspan x="0" y="0" class="st15 st16 st17">관리</tspan><tspan x="32" y="0" class="st15 st18 st17"> </tspan><tspan x="35.8" y="0" class="st15 st16 st17">허브</tspan></text>
<rect x="524" y="690" class="st10" width="236.1" height="15.6"/>
<text transform="matrix(1 0 0 1 524.0367 701.8569)" class="st14"><tspan x="0" y="0" class="st15 st16 st17">에지</tspan><tspan x="32" y="0" class="st15 st18 st17"> </tspan><tspan x="35.8" y="0" class="st15 st16 st17">노드</tspan></text>
<rect x="62" y="125" class="st10" width="236.1" height="15.6"/>
<text transform="matrix(1 0 0 1 62.0283 136.8699)" class="st14"><tspan x="0" y="0" class="st11 st16 st17">데이터</tspan><tspan x="48" y="0" class="st11 st18 st17"> </tspan><tspan x="51.8" y="0" class="st11 st16 st17">과학자</tspan><tspan x="99.8" y="0" class="st11 st18 st17"> </tspan><tspan x="103.6" y="0" class="st11 st16 st17">환경</tspan></text>
<rect x="525" y="37" class="st10" width="236.1" height="15.6"/>
<text transform="matrix(1 0 0 1 525.0367 48.854)" class="st14"><tspan x="0" y="0" class="st11 st16 st17">개발자</tspan><tspan x="48" y="0" class="st11 st18 st17"> </tspan><tspan x="51.8" y="0" class="st11 st16 st17">환경</tspan></text>
<rect id="Rectangle-Copy-18_6_" x="229" y="186.7" class="st8" width="85" height="120"/>
<rect x="231.1" y="209.4" class="st10" width="80.6" height="74.6"/>
<rect x="603.7" y="472.9" class="st10" width="162.3" height="15.6"/>
<text transform="matrix(1 0 0 1 603.7432 484.7555)" class="st14"><tspan x="0" y="0" class="st15 st16 st17">컨테이너</tspan><tspan x="64" y="0" class="st15 st18 st17"> </tspan><tspan x="67.8" y="0" class="st15 st16 st17">레지스트리</tspan></text>
<g>
	<path class="st15" d="M595.7,472.5h-8c-0.6,0-1,0.4-1,1v11c0,0.6,0.4,1,1,1h8c0.6,0,1-0.4,1-1v-11
		C596.7,472.9,596.3,472.5,595.7,472.5z M595.7,473.5v3h-8v-3H595.7z M587.7,480.5v-3h8v3H587.7z M587.7,484.5v-3h8v3H587.7z"/>
	<circle class="st15" cx="589.2" cy="474.9" r="0.5"/>
	<circle class="st15" cx="589.2" cy="478.9" r="0.5"/>
	<circle class="st15" cx="589.2" cy="482.9" r="0.5"/>
	<rect id="_x3C_Transparent_Rectangle_x3E__616_" x="583.7" y="470.9" class="st10" width="16" height="16"/>
</g>
<rect x="59.9" y="242" class="st10" width="48.1" height="29.2"/>
<text transform="matrix(1 0 0 1 59.9458 252.3777)"><tspan x="0" y="0" class="st11 st16 st13">데이터</tspan><tspan x="42" y="0" class="st11 st12 st13"> </tspan><tspan x="0" y="16.8" class="st11 st16 st13">과학자</tspan></text>
<text transform="matrix(0.9094 0 0 1 123.5364 237.8777)"><tspan x="0" y="0" class="st11 st12 st13">6. </tspan><tspan x="15.5" y="0" class="st11 st16 st13">업데이트</tspan><tspan x="71.5" y="0" class="st11 st12 st13"> </tspan><tspan x="74.8" y="0" class="st11 st16 st13">작성</tspan></text>
<rect x="236" y="215.5" class="st10" width="69" height="64.2"/>
<text transform="matrix(1 0 0 1 251.3778 225.8777)"><tspan x="0" y="0" class="st15 st12 st13">AI/ML </tspan><tspan x="-8.8" y="16.8" class="st15 st16 st13">애플리케</tspan><tspan x="-11.2" y="33.6" class="st15 st16 st13">이션</tspan><tspan x="16.8" y="33.6" class="st15 st12 st13">(</tspan><tspan x="21.5" y="33.6" class="st15 st16 st13">모델</tspan><tspan x="49.5" y="33.6" class="st15 st12 st13"> </tspan><tspan x="2.8" y="50.4" class="st15 st16 st13">포함</tspan><tspan x="30.8" y="50.4" class="st15 st12 st13">)</tspan></text>
<rect x="380.5" y="349" class="st10" width="96.2" height="47.4"/>
<text transform="matrix(1 0 0 1 380.5364 359.3777)"><tspan x="0" y="0" class="st11 st12 st13">7. MMS</tspan><tspan x="46.4" y="0" class="st11 st16 st13">를</tspan><tspan x="60.4" y="0" class="st11 st12 st13"> </tspan><tspan x="0" y="16.8" class="st11 st16 st13">사용하여</tspan><tspan x="56" y="16.8" class="st11 st12 st13"> </tspan><tspan x="59.3" y="16.8" class="st11 st16 st13">모델</tspan><tspan x="87.3" y="16.8" class="st11 st12 st13"> </tspan><tspan x="0" y="33.6" class="st11 st16 st13">업데이트</tspan><tspan x="56" y="33.6" class="st11 st12 st13"> </tspan><tspan x="59.3" y="33.6" class="st11 st16 st13">푸시</tspan></text>
<rect x="526" y="151.4" class="st10" width="63.2" height="30.6"/>
<text transform="matrix(1 0 0 1 526.0371 161.5289)"><tspan x="0" y="0" class="st11 st16 st13">소프트웨</tspan><tspan x="0" y="17" class="st11 st16 st13">어</tspan><tspan x="14" y="17" class="st11 st12 st13"> </tspan><tspan x="17.3" y="17" class="st11 st16 st13">개발자</tspan></text>
<rect x="535.2" y="260.2" class="st10" width="64.5" height="46"/>
<text transform="matrix(1 0 0 1 548.2939 270.5444)"><tspan x="0" y="0" class="st15 st12 st13">AI/ML </tspan><tspan x="-8.8" y="16.8" class="st15 st16 st13">애플리케</tspan><tspan x="5.2" y="33.6" class="st15 st16 st13">이션</tspan></text>
<rect x="379.7" y="691" class="st10" width="120" height="29.2"/>
<text transform="matrix(1 0 0 1 379.7029 701.3768)"><tspan x="0" y="0" class="st11 st12 st13">8. </tspan><tspan x="15.5" y="0" class="st11 st16 st13">모델</tspan><tspan x="43.5" y="0" class="st11 st12 st13"> </tspan><tspan x="46.8" y="0" class="st11 st16 st13">업데이트</tspan><tspan x="102.8" y="0" class="st11 st12 st13"> </tspan><tspan x="0" y="16.8" class="st11 st16 st13">가져오기</tspan></text>
<rect x="614" y="757" class="st10" width="151.3" height="30.6"/>
<text transform="matrix(1 0 0 1 614.0364 767.3785)"><tspan x="0" y="0" class="st15 st12 st13">9. ESS API</tspan><tspan x="66.3" y="0" class="st15 st16 st13">를</tspan><tspan x="80.3" y="0" class="st15 st12 st13"> </tspan><tspan x="83.6" y="0" class="st15 st16 st13">사용하여</tspan><tspan x="139.6" y="0" class="st15 st12 st13"> </tspan><tspan x="0" y="16.8" class="st15 st16 st13">모델</tspan><tspan x="28" y="16.8" class="st15 st12 st13"> </tspan><tspan x="31.3" y="16.8" class="st15 st16 st13">가져오기</tspan></text>
<rect x="528.4" y="779" class="st10" width="70.7" height="29.2"/>
<text transform="matrix(1 0 0 1 549.7031 789.3772)"><tspan x="0" y="0" class="st11 st16 st13">에지</tspan><tspan x="28" y="0" class="st11 st12 st13"> </tspan><tspan x="-14" y="16.8" class="st11 st16 st13">에이전트</tspan></text>
</svg>
