<?xml version="1.0" encoding="utf-8"?>
<!-- Generator: Adobe Illustrator 21.1.0, SVG Export Plug-In . SVG Version: 6.00 Build 0)  -->
<svg version="1.1" id="Layer_1" xmlns="http://www.w3.org/2000/svg" xmlns:xlink="http://www.w3.org/1999/xlink" x="0px" y="0px"
	 viewBox="0 0 1243 975.4" style="enable-background:new 0 0 1243 975.4;" xml:space="preserve">
<style type="text/css">
	.st0{fill:#6E32C9;}
	.st1{fill:#4F2196;}
	.st2{fill:#FFFFFF;stroke:#E0E0E0;}
	.st3{fill:#FFFFFF;}
	.st4{fill:#C9DEFF;}
	.st5{fill:#408BFC;}
	.st6{fill:#054ADA;}
	.st7{fill:none;stroke:#054ADA;stroke-linecap:square;}
	.st8{fill:none;stroke:#054ADA;}
	.st9{fill:#BEBEBE;}
	.st10{fill:#24A148;}
	.st11{fill:none;}
	.st12{enable-background:new    ;}
	.st13{fill:#F4F4F4;}
	.st14{font-family:'AdobeMyungjoStd-Medium-KSCpc-EUC-H';}
	.st15{font-size:16px;}
	.st16{font-family:'IBMPlexSans-Medium';}
	.st17{fill:#161616;}
	.st18{font-family:'IBMPlexSans';}
	.st19{font-family:'IBMPlexSans-Bold';}
	.st20{font-size:14px;}
</style>
<rect id="Rectangle-Copy-14" x="51" y="287.7" class="st0" width="281" height="663"/>
<rect id="Rectangle-Copy-14_1_" x="525" y="287.7" class="st1" width="667" height="663"/>
<rect id="Rectangle" x="30.5" y="25.2" class="st2" width="144" height="37"/>
<rect id="Rectangle-Copy-28" x="30.5" y="62.2" class="st2" width="144" height="76"/>
<rect id="Rectangle-Copy-31" x="30.5" y="139.2" class="st2" width="144" height="79"/>
<rect id="Rectangle-Copy-29" x="173.5" y="62.2" class="st2" width="260" height="76"/>
<rect id="Rectangle-Copy-33" x="433.5" y="62.2" class="st2" width="260" height="76"/>
<rect id="Rectangle-Copy-36" x="693.5" y="62.2" class="st2" width="260" height="76"/>
<rect id="Rectangle-Copy-39" x="952.5" y="62.2" class="st2" width="260" height="76"/>
<rect id="Rectangle-Copy-32" x="173.5" y="139.2" class="st2" width="260" height="79"/>
<rect id="Rectangle-Copy-34" x="433.5" y="139.2" class="st2" width="260" height="79"/>
<rect id="Rectangle-Copy-37" x="693.5" y="139.2" class="st2" width="260" height="79"/>
<rect id="Rectangle-Copy-40" x="952.5" y="139.2" class="st2" width="260" height="79"/>
<rect id="Rectangle-Copy-26" x="173.5" y="25.2" class="st2" width="260" height="37"/>
<rect id="Rectangle-Copy-35" x="433.5" y="25.2" class="st2" width="260" height="37"/>
<rect id="Rectangle-Copy-38" x="693.5" y="25.2" class="st2" width="260" height="37"/>
<rect id="Rectangle-Copy-41" x="952.5" y="25.2" class="st2" width="260" height="37"/>
<rect id="Rectangle-Copy-30" x="83" y="358.7" class="st3" width="217" height="264"/>
<path id="Default-Copy-4" class="st4" d="M115,422.7h129c8.8,0,16,7.2,16,16l0,0c0,8.8-7.2,16-16,16H115c-8.8,0-16-7.2-16-16l0,0
	C99,429.9,106.2,422.7,115,422.7z"/>
<rect id="Rectangle-Copy-45" x="83" y="654.7" class="st3" width="217" height="264"/>
<rect id="Rectangle-Copy-46" x="557" y="358.7" class="st3" width="603" height="264"/>
<rect id="Rectangle_1_" x="573" y="422.7" class="st5" width="286" height="184"/>
<rect id="Rectangle-Copy-43" x="859" y="422.7" class="st6" width="286" height="184"/>
<rect id="Default" x="588" y="486.7" class="st4" width="100" height="32"/>
<rect id="Default-Copy" x="588" y="558.7" class="st4" width="100" height="32"/>
<rect id="Default_1_" x="692" y="486.7" class="st4" width="85" height="32"/>
<rect id="Default-Copy-2" x="692" y="558.7" class="st4" width="85" height="32"/>
<rect id="Default_2_" x="781" y="486.7" class="st4" width="39" height="32"/>
<rect id="Default-Copy-3" x="781" y="558.7" class="st4" width="62" height="32"/>
<line id="Line-3" class="st7" x1="646" y1="539.2" x2="843.5" y2="539.2"/>
<line id="Line-3-Copy" class="st8" x1="588" y1="538.7" x2="596" y2="538.7"/>
<rect id="Field-color" x="600" y="526.7" class="st4" width="42" height="24"/>
<rect id="Rectangle-Copy-47" x="557" y="654.7" class="st3" width="603" height="264"/>
<rect id="Rectangle_2_" x="573" y="718.7" class="st5" width="286" height="184"/>
<rect id="Rectangle-Copy-43_1_" x="859" y="718.7" class="st6" width="286" height="184"/>
<path id="Line-9" class="st9" d="M557,483.7c3.9,0,7,3.1,7,7s-3.1,7-7,7c-3.5,0-6.4-2.6-6.9-6H314.5v6l-14-7l14-7v6h235.6
	c0.5-3.3,3.3-5.9,6.7-6H557z"/>
<path id="Line-9-Copy" class="st9" d="M543,779.7l14,7l-14,7v-6H307.4c-0.5,3.3-3.3,5.9-6.7,6h-0.2c-3.9,0-7-3.1-7-7s3.1-7,7-7
	c3.5,0,6.4,2.6,6.9,6H543V779.7z"/>
<circle id="Oval" class="st3" cx="429" cy="490.7" r="20"/>
<path id="path-1_1_" class="st10" d="M436,487.1l-1.4-1.4l-7.6,7.6l-3.6-3.6l-1.4,1.4l5,5L436,487.1z M429,476.7
	c-7.7,0-14,6.3-14,14s6.3,14,14,14s14-6.3,14-14S436.7,476.7,429,476.7z M429,502.7c-6.6,0-12-5.4-12-12s5.4-12,12-12s12,5.4,12,12
	S435.6,502.7,429,502.7z"/>
<circle id="Oval_1_" class="st3" cx="429" cy="786.7" r="20"/>
<path id="path-3_1_" class="st10" d="M436,783.1l-1.4-1.4l-7.6,7.6l-3.6-3.6l-1.4,1.4l5,5L436,783.1z M429,772.7
	c-7.7,0-14,6.3-14,14s6.3,14,14,14s14-6.3,14-14S436.7,772.7,429,772.7z M429,798.7c-6.6,0-12-5.4-12-12s5.4-12,12-12s12,5.4,12,12
	S435.6,798.7,429,798.7z"/>
<rect x="541" y="307.9" class="st11" width="236.1" height="15.6"/>
<text transform="matrix(1 0 0 1 541.0002 319.7303)" class="st12"><tspan x="0" y="0" class="st13 st14 st15">배치</tspan><tspan x="32" y="0" class="st13 st16 st15"> </tspan><tspan x="35.8" y="0" class="st13 st14 st15">정책</tspan></text>
<rect x="572.9" y="378.9" class="st11" width="236.1" height="15.6"/>
<text transform="matrix(1 0 0 1 572.886 390.7335)" class="st17 st14 st15">제한조건</text>
<rect x="572.9" y="674.8" class="st11" width="236.1" height="15.6"/>
<text transform="matrix(1 0 0 1 572.886 686.6728)" class="st17 st14 st15">특성</text>
<rect x="99" y="378.9" class="st11" width="179.7" height="15.6"/>
<text transform="matrix(1 0 0 1 99.0002 390.7335)" class="st12"><tspan x="0" y="0" class="st17 st14 st15">노드</tspan><tspan x="32" y="0" class="st17 st18 st15"> </tspan><tspan x="35.8" y="0" class="st17 st14 st15">특성</tspan></text>
<rect x="99" y="674.9" class="st11" width="179.7" height="15.6"/>
<text transform="matrix(1 0 0 1 99.0002 686.7264)" class="st12"><tspan x="0" y="0" class="st17 st14 st15">노드</tspan><tspan x="32" y="0" class="st17 st18 st15"> </tspan><tspan x="35.8" y="0" class="st17 st14 st15">제한조건</tspan></text>
<rect x="67" y="307.9" class="st11" width="236.1" height="15.6"/>
<text transform="matrix(1 0 0 1 67.0001 319.7303)" class="st12"><tspan x="0" y="0" class="st13 st14 st15">노드</tspan><tspan x="32" y="0" class="st13 st16 st15"> </tspan><tspan x="35.8" y="0" class="st13 st14 st15">정책</tspan></text>
<rect x="180" y="37.8" class="st11" width="237.4" height="19.1"/>
<text transform="matrix(1 0 0 1 180 49.7095)" class="st12"><tspan x="0" y="0" class="st17 st14 st15">노드</tspan><tspan x="32" y="0" class="st17 st19 st15"> </tspan><tspan x="35.8" y="0" class="st17 st14 st15">정책</tspan></text>
<rect x="35" y="74.9" class="st11" width="129.5" height="19.1"/>
<text transform="matrix(1 0 0 1 35 86.08)" class="st17 st14 st15">역할</text>
<rect x="35" y="151.8" class="st11" width="129.5" height="19.1"/>
<text transform="matrix(1 0 0 1 35 164.4135)" class="st17 st14 st15">목적</text>
<rect x="180" y="74.9" class="st11" width="250.5" height="59.6"/>
<rect x="180" y="151.8" class="st11" width="250.5" height="59.6"/>
<rect x="99" y="736.3" class="st11" width="186.2" height="29.8"/>
<text transform="matrix(1 0 0 1 99.0152 746.7234)" class="st12"><tspan x="0" y="0" class="st17 st18 st20">(</tspan><tspan x="4.7" y="0" class="st17 st14 st20">선택사항</tspan><tspan x="60.7" y="0" class="st17 st18 st20">)</tspan></text>
<rect x="589" y="738.9" class="st11" width="236.1" height="15.6"/>
<text transform="matrix(1 0 0 1 589.0001 750.7162)" class="st12"><tspan x="0" y="0" class="st13 st14 st15">배치</tspan><tspan x="32" y="0" class="st13 st18 st15"> </tspan><tspan x="35.8" y="0" class="st13 st14 st15">특성</tspan></text>
<rect x="589" y="783.3" class="st11" width="186.2" height="29.8"/>
<text transform="matrix(1 0 0 1 589 793.6974)" class="st12"><tspan x="0" y="0" class="st13 st18 st20">(</tspan><tspan x="4.7" y="0" class="st13 st14 st20">선택사항</tspan><tspan x="60.7" y="0" class="st13 st18 st20">)</tspan></text>
<rect x="875" y="738.9" class="st11" width="236.1" height="15.6"/>
<text transform="matrix(1 0 0 1 875.0001 750.7162)" class="st12"><tspan x="0" y="0" class="st13 st14 st15">서비스</tspan><tspan x="48" y="0" class="st13 st18 st15"> </tspan><tspan x="51.8" y="0" class="st13 st14 st15">특성</tspan></text>
<rect x="875" y="783.3" class="st11" width="186.2" height="29.8"/>
<text transform="matrix(1 0 0 1 875 793.6974)" class="st12"><tspan x="0" y="0" class="st13 st18 st20">(</tspan><tspan x="4.7" y="0" class="st13 st14 st20">선택사항</tspan><tspan x="60.7" y="0" class="st13 st18 st20">)</tspan></text>
<rect x="589" y="442.9" class="st11" width="236.1" height="15.6"/>
<text transform="matrix(1 0 0 1 589.0001 454.7758)" class="st12"><tspan x="0" y="0" class="st13 st14 st15">배치</tspan><tspan x="32" y="0" class="st13 st18 st15"> </tspan><tspan x="35.8" y="0" class="st13 st14 st15">제한조건</tspan></text>
<rect x="875" y="442.9" class="st11" width="236.1" height="15.6"/>
<text transform="matrix(1 0 0 1 875.0001 454.7758)" class="st12"><tspan x="0" y="0" class="st13 st14 st15">서비스</tspan><tspan x="48" y="0" class="st13 st18 st15"> </tspan><tspan x="51.8" y="0" class="st13 st14 st15">제한조건</tspan></text>
<rect x="875" y="487.4" class="st11" width="186.2" height="29.8"/>
<text transform="matrix(1 0 0 1 875 497.7571)" class="st12"><tspan x="0" y="0" class="st13 st18 st20">(</tspan><tspan x="4.7" y="0" class="st13 st14 st20">선택사항</tspan><tspan x="60.7" y="0" class="st13 st18 st20">)</tspan></text>
<rect x="111" y="433.4" class="st11" width="142.2" height="17.6"/>
<text transform="matrix(1 0 0 1 111 443.7375)" class="st17 st18 st20">camera-type=motion</text>
<rect x="439" y="37.8" class="st11" width="237.4" height="19.1"/>
<text transform="matrix(1 0 0 1 439 49.7095)" class="st12"><tspan x="0" y="0" class="st17 st14 st15">서비스</tspan><tspan x="48" y="0" class="st17 st19 st15"> </tspan><tspan x="51.8" y="0" class="st17 st14 st15">정책</tspan></text>
<rect x="439" y="74.9" class="st11" width="250.5" height="59.6"/>
<rect x="439" y="151.8" class="st11" width="250.5" height="59.6"/>
<rect x="699" y="37.8" class="st11" width="237.4" height="19.1"/>
<text transform="matrix(1 0 0 1 699.0275 49.7095)" class="st12"><tspan x="0" y="0" class="st17 st14 st15">배치</tspan><tspan x="32" y="0" class="st17 st19 st15"> </tspan><tspan x="35.8" y="0" class="st17 st14 st15">정책</tspan></text>
<rect x="699" y="74.9" class="st11" width="250.5" height="59.6"/>
<rect x="699" y="151.8" class="st11" width="250.5" height="59.6"/>
<rect x="959" y="37.8" class="st11" width="237.4" height="19.1"/>
<text transform="matrix(1 0 0 1 959 49.7095)" class="st12"><tspan x="0" y="0" class="st17 st14 st15">모델</tspan><tspan x="32" y="0" class="st17 st19 st15"> </tspan><tspan x="35.8" y="0" class="st17 st14 st15">정책</tspan></text>
<rect x="959" y="74.9" class="st11" width="239.4" height="59.6"/>
<rect x="959" y="151.8" class="st11" width="250.5" height="59.6"/>
<rect x="587.9" y="497.3" class="st11" width="100.1" height="17.6"/>
<text transform="matrix(1 0 0 1 597.0018 507.7086)" class="st17 st18 st20">camera-type</text>
<rect x="692" y="497.3" class="st11" width="85" height="17.6"/>
<text transform="matrix(1 0 0 1 701.3695 507.7086)" class="st17 st18 st20">is equal to</text>
<rect x="781" y="497.3" class="st11" width="39.4" height="17.6"/>
<text transform="matrix(1 0 0 1 788.9452 507.7086)" class="st17 st18 st20">still</text>
<rect x="587.9" y="569.5" class="st11" width="100.1" height="17.6"/>
<text transform="matrix(1 0 0 1 597.0018 579.9001)" class="st17 st18 st20">camera-type</text>
<rect x="602.7" y="533.4" class="st11" width="36.5" height="13.9"/>
<text transform="matrix(1 0 0 1 611.4539 543.7585)" class="st17 st18 st20">OR</text>
<rect x="692" y="569.5" class="st11" width="85" height="17.6"/>
<text transform="matrix(1 0 0 1 701.3695 579.9001)" class="st17 st18 st20">is equal to</text>
<rect x="781" y="569.5" class="st11" width="62" height="17.6"/>
<text transform="matrix(1 0 0 1 789.4813 579.9001)" class="st17 st18 st20">motion</text>
<rect x="179.3" y="72" class="st11" width="221.3" height="43.3"/>
<text transform="matrix(1 0 0 1 179.3333 83.8398)"><tspan x="0" y="0" class="st17 st14 st15">노드</tspan><tspan x="32" y="0" class="st17 st18 st15"> </tspan><tspan x="35.8" y="0" class="st17 st14 st15">등록</tspan><tspan x="67.8" y="0" class="st17 st18 st15"> </tspan><tspan x="71.6" y="0" class="st17 st14 st15">시</tspan><tspan x="87.6" y="0" class="st17 st18 st15"> </tspan><tspan x="91.3" y="0" class="st17 st14 st15">노드</tspan><tspan x="123.3" y="0" class="st17 st18 st15"> </tspan><tspan x="127.1" y="0" class="st17 st14 st15">소유자가</tspan><tspan x="191.1" y="0" class="st17 st18 st15"> </tspan><tspan x="0" y="19.2" class="st17 st14 st15">제공함</tspan></text>
<rect x="182" y="150.3" class="st11" width="167.6" height="35"/>
<text transform="matrix(1 0 0 1 182 162.1732)"><tspan x="0" y="0" class="st17 st14 st15">노드</tspan><tspan x="32" y="0" class="st17 st18 st15"> </tspan><tspan x="35.8" y="0" class="st17 st14 st15">기능</tspan><tspan x="67.8" y="0" class="st17 st18 st15"> </tspan><tspan x="71.6" y="0" class="st17 st14 st15">및</tspan><tspan x="87.6" y="0" class="st17 st18 st15"> </tspan><tspan x="91.3" y="0" class="st17 st14 st15">노드의</tspan><tspan x="139.3" y="0" class="st17 st18 st15"> </tspan><tspan x="0" y="19.2" class="st17 st14 st15">의도</tspan><tspan x="32" y="19.2" class="st17 st18 st15"> </tspan><tspan x="35.8" y="19.2" class="st17 st14 st15">목적을</tspan><tspan x="83.8" y="19.2" class="st17 st18 st15"> </tspan><tspan x="87.6" y="19.2" class="st17 st14 st15">정의함</tspan></text>
<rect x="447.3" y="72" class="st11" width="228" height="56"/>
<text transform="matrix(1 0 0 1 447.3335 83.8398)"><tspan x="0" y="0" class="st17 st14 st15">서비스</tspan><tspan x="48" y="0" class="st17 st18 st15"> </tspan><tspan x="51.8" y="0" class="st17 st14 st15">공개</tspan><tspan x="83.8" y="0" class="st17 st18 st15"> </tspan><tspan x="87.6" y="0" class="st17 st14 st15">시</tspan><tspan x="103.6" y="0" class="st17 st18 st15"> </tspan><tspan x="107.3" y="0" class="st17 st14 st15">서비스</tspan><tspan x="155.3" y="0" class="st17 st18 st15"> </tspan><tspan x="159.1" y="0" class="st17 st14 st15">개발자가</tspan><tspan x="223.1" y="0" class="st17 st18 st15"> </tspan><tspan x="0" y="19.2" class="st17 st14 st15">제공함</tspan></text>
<rect x="443.3" y="150.3" class="st11" width="206.3" height="54.2"/>
<text transform="matrix(1 0 0 1 443.3335 162.1734)"><tspan x="0" y="0" class="st17 st14 st15">에지</tspan><tspan x="32" y="0" class="st17 st18 st15"> </tspan><tspan x="35.8" y="0" class="st17 st14 st15">노드에서</tspan><tspan x="99.8" y="0" class="st17 st18 st15"> </tspan><tspan x="103.6" y="0" class="st17 st14 st15">서비스를</tspan><tspan x="167.6" y="0" class="st17 st18 st15"> </tspan><tspan x="0" y="19.2" class="st17 st14 st15">제대로</tspan><tspan x="48" y="19.2" class="st17 st18 st15"> </tspan><tspan x="51.8" y="19.2" class="st17 st14 st15">실행하기</tspan><tspan x="115.8" y="19.2" class="st17 st18 st15"> </tspan><tspan x="119.6" y="19.2" class="st17 st14 st15">위해</tspan><tspan x="151.6" y="19.2" class="st17 st18 st15"> </tspan><tspan x="155.3" y="19.2" class="st17 st14 st15">필요한</tspan><tspan x="203.3" y="19.2" class="st17 st18 st15"> </tspan><tspan x="0" y="38.4" class="st17 st14 st15">항목과</tspan><tspan x="48" y="38.4" class="st17 st18 st15"> </tspan><tspan x="51.8" y="38.4" class="st17 st14 st15">의도를</tspan><tspan x="99.8" y="38.4" class="st17 st18 st15"> </tspan><tspan x="103.6" y="38.4" class="st17 st14 st15">정의함</tspan></text>
<rect x="700" y="72" class="st11" width="238" height="55.3"/>
<text transform="matrix(1 0 0 1 700 83.8398)"><tspan x="0" y="0" class="st17 st14 st15">서비스</tspan><tspan x="48" y="0" class="st17 st18 st15"> </tspan><tspan x="51.8" y="0" class="st17 st14 st15">배치</tspan><tspan x="83.8" y="0" class="st17 st18 st15"> </tspan><tspan x="87.6" y="0" class="st17 st14 st15">시</tspan><tspan x="103.6" y="0" class="st17 st18 st15"> </tspan><tspan x="107.3" y="0" class="st17 st14 st15">정책</tspan><tspan x="139.3" y="0" class="st17 st18 st15"> </tspan><tspan x="143.1" y="0" class="st17 st14 st15">관리자가</tspan><tspan x="207.1" y="0" class="st17 st18 st15"> </tspan><tspan x="0" y="19.2" class="st17 st14 st15">제공함</tspan></text>
<rect x="700" y="150.3" class="st11" width="191.1" height="35"/>
<text transform="matrix(1 0 0 1 700 162.1733)"><tspan x="0" y="0" class="st17 st14 st15">서비스를</tspan><tspan x="64" y="0" class="st17 st18 st15"> </tspan><tspan x="67.8" y="0" class="st17 st14 st15">실행해야</tspan><tspan x="131.8" y="0" class="st17 st18 st15"> </tspan><tspan x="135.6" y="0" class="st17 st14 st15">하는</tspan><tspan x="167.6" y="0" class="st17 st18 st15"> </tspan><tspan x="0" y="19.2" class="st17 st14 st15">위치를</tspan><tspan x="48" y="19.2" class="st17 st18 st15"> </tspan><tspan x="51.8" y="19.2" class="st17 st14 st15">정의함</tspan></text>
<rect x="958.7" y="72" class="st11" width="240" height="62"/>
<text transform="matrix(1 0 0 1 958.667 83.8398)"><tspan x="0" y="0" class="st17 st14 st15">모델</tspan><tspan x="32" y="0" class="st17 st18 st15"> </tspan><tspan x="35.8" y="0" class="st17 st14 st15">작성</tspan><tspan x="67.8" y="0" class="st17 st18 st15"> </tspan><tspan x="71.6" y="0" class="st17 st14 st15">시</tspan><tspan x="87.6" y="0" class="st17 st18 st15"> </tspan><tspan x="91.3" y="0" class="st17 st14 st15">모델</tspan><tspan x="123.3" y="0" class="st17 st18 st15"> </tspan><tspan x="127.1" y="0" class="st17 st14 st15">작성자</tspan><tspan x="175.1" y="0" class="st17 st18 st15"> </tspan><tspan x="178.9" y="0" class="st17 st14 st15">또는</tspan><tspan x="210.9" y="0" class="st17 st18 st15"> </tspan><tspan x="0" y="19.2" class="st17 st14 st15">데이터</tspan><tspan x="48" y="19.2" class="st17 st18 st15"> </tspan><tspan x="51.8" y="19.2" class="st17 st14 st15">과학자가</tspan><tspan x="115.8" y="19.2" class="st17 st18 st15"> </tspan><tspan x="119.6" y="19.2" class="st17 st14 st15">제공함</tspan></text>
<rect x="961.3" y="150.3" class="st11" width="210.2" height="35"/>
<text transform="matrix(1 0 0 1 961.333 162.1733)"><tspan x="0" y="0" class="st17 st14 st15">이</tspan><tspan x="16" y="0" class="st17 st18 st15"> </tspan><tspan x="19.8" y="0" class="st17 st14 st15">모델이</tspan><tspan x="67.8" y="0" class="st17 st18 st15"> </tspan><tspan x="71.6" y="0" class="st17 st14 st15">배치되는</tspan><tspan x="135.6" y="0" class="st17 st18 st15"> </tspan><tspan x="139.3" y="0" class="st17 st14 st15">에지</tspan><tspan x="171.3" y="0" class="st17 st18 st15"> </tspan><tspan x="0" y="19.2" class="st17 st14 st15">노드를</tspan><tspan x="48" y="19.2" class="st17 st18 st15"> </tspan><tspan x="51.8" y="19.2" class="st17 st14 st15">추가로</tspan><tspan x="99.8" y="19.2" class="st17 st18 st15"> </tspan><tspan x="103.6" y="19.2" class="st17 st14 st15">제한함</tspan></text>
</svg>
