<svg xmlns="http://www.w3.org/2000/svg" xmlns:xlink="http://www.w3.org/1999/xlink" style="enable-background:new 0 0 917 514" id="Layer_1" x="0" y="0" version="1.1" viewBox="0 0 917 514" xml:space="preserve"><style type="text/css">.st0{fill:#e3f6ff}.st0,.st1,.st2,.st3,.st4,.st5{fill-rule:evenodd;clip-rule:evenodd}.st1{fill:#0f62fe}.st2{fill:#408bfc}.st3{fill:#fff}.st4{fill:#009c98}.st5{fill:#051b75}.st6{fill:#161616}.st7{font-family:&apos;IBMPlexSans&apos;}.st8{font-size:14px}.st9{fill:none;stroke:#bebebe;stroke-width:2;stroke-linecap:square}.st10{fill:#bebebe}.st11,.st12{fill-rule:evenodd;clip-rule:evenodd;fill:#f4f4f4}.st12{fill:none}.st13{fill:#f4f4f4}.st14{font-family:&apos;IBMPlexSans-Medium&apos;}.st15{font-size:16px}.st16{font-size:12px}.st17{fill:none}</style><g id="Group-2" transform="translate(21.000000, 0.000000)"><circle id="Oval-Copy-3" cx="24" cy="205" r="24" class="st0"/><g id="icon_x2F_policy-admin" transform="translate(8.000000, 8.000000)"><path id="Shape" d="M11,200c2.8,0,5,2.2,5,5v6h-2v-6c0-1.7-1.3-3-3-3H7c-1.7,0-3,1.3-3,3v6H2v-6c0-2.8,2.2-5,5-5H11z M9,188c2.8,0,5,2.2,5,5s-2.2,5-5,5s-5-2.2-5-5S6.2,188,9,188z M27.6,188l1.4,1.4l-7.1,7.1l-3.9-3.9l1.4-1.4l2.5,2.5L27.6,188z M9,190c-1.7,0-3,1.3-3,3c0,1.7,1.3,3,3,3s3-1.3,3-3S10.7,190,9,190z" class="st1"/></g></g><g id="Group-2_1_" transform="translate(21.000000, 0.000000)"><circle id="Oval-Copy-3_1_" cx="331" cy="463" r="24" class="st0"/><g id="icon_x2F_node-owner" transform="translate(8.000000, 8.000000)"><g id="Group-23" transform="translate(2.000000, 4.000000)"><path id="Shape_1_" d="M316,454c2.8,0,5,2.2,5,5v6h-2v-6c0-1.7-1.3-3-3-3h-4c-1.7,0-3,1.3-3,3v6h-2v-6 c0-2.8,2.2-5,5-5H316z M314,442c2.8,0,5,2.2,5,5s-2.2,5-5,5s-5-2.2-5-5S311.2,442,314,442z M327,450v2h-2v-2H327z M332,450v2h-2 v-2H332z M314,444c-1.7,0-3,1.3-3,3c0,1.7,1.3,3,3,3s3-1.3,3-3S315.7,444,314,444z M335,447v2h-2v-2H335z M324,447v2h-2v-2H324z M332,442v7h-7v-7H332z M330,444h-3v3h3V444z M335,442v2h-2v-2H335z M324,442v2h-2v-2H324z M327,439v2h-2v-2H327z M332,439v2h-2 v-2H332z" class="st1"/></g></g></g><g id="Group-2_2_" transform="translate(27.000000, 0.000000)"><circle id="Oval-Copy-3_2_" cx="226" cy="48" r="24" class="st0"/><g id="icon_x2F_cloud-installer" transform="translate(8.000000, 8.000000)"><path id="Shape_2_" d="M213,43c2.8,0,5,2.2,5,5v6h-2v-6c0-1.7-1.3-3-3-3h-4c-1.7,0-3,1.3-3,3v6h-2v-6c0-2.8,2.2-5,5-5 H213z M211,31c2.8,0,5,2.2,5,5s-2.2,5-5,5s-5-2.2-5-5S208.2,31,211,31z M226,28.9c2.1,0,3.9,1.4,4.5,3.4l0.1,0.2l0,0.1l0,0 c1.3,0.5,2.2,1.7,2.3,3.1l0,0.2l0,0.2c0,2.1-1.6,3.7-3.7,3.9l-0.2,0h-6.3c-2.1,0-3.9-1.7-3.9-3.9c0-1.5,0.9-2.8,2.2-3.5l0.2-0.1 l0-0.1c0.5-1.9,2.1-3.4,4.1-3.6l0.2,0L226,28.9z M211,33c-1.7,0-3,1.3-3,3c0,1.7,1.3,3,3,3s3-1.3,3-3S212.7,33,211,33z M226,30.9 c-1.4,0-2.5,1-2.7,2.4l0,0.2l0,0.8l-0.8,0.2c-0.9,0.2-1.5,0.9-1.5,1.8c0,1,0.8,1.8,1.7,1.9l0.1,0h6.3c1,0,1.9-0.8,1.9-1.9 c0-0.8-0.6-1.6-1.3-1.8l-0.1,0l-0.8-0.2l0-0.8C228.6,32,227.4,30.9,226,30.9z" class="st1"/></g></g><g id="Group-2_3_" transform="translate(47.000000, 0.000000)"><circle id="Oval-Copy-3_3_" cx="485" cy="48" r="24" class="st0"/><g id="icon_x2F_developer" transform="translate(8.000000, 8.000000)"><path id="Shape_3_" d="M472,43c2.8,0,5,2.2,5,5v6h-2v-6c0-1.7-1.3-3-3-3h-4c-1.7,0-3,1.3-3,3v6h-2v-6c0-2.8,2.2-5,5-5 H472z M470,31c2.8,0,5,2.2,5,5s-2.2,5-5,5s-5-2.2-5-5S467.2,31,470,31z M485.1,29.9l1.8,0.4l-2.4,10.4l-1.8-0.4L485.1,29.9z M479.9,31.6l1.4,1.2l-2.1,2.6l2.1,2.6l-1.4,1.2l-3.1-3.7L479.9,31.6z M489.7,31.6l3.1,3.7l-3.1,3.7l-1.4-1.2l2.1-2.6l-2.1-2.6 L489.7,31.6z M470,33c-1.7,0-3,1.3-3,3c0,1.7,1.3,3,3,3s3-1.3,3-3S471.7,33,470,33z" class="st1"/></g></g><rect id="Rectangle-Copy" width="304" height="157" x="453" y="323" class="st2"/><rect id="Rectangle-Copy-9" width="80" height="81" x="469" y="383" class="st3"/><rect id="Rectangle-Copy-10" width="80" height="81" x="661" y="383" class="st3"/><rect id="Rectangle-Copy-11" width="208" height="155" x="709" y="127" class="st4"/><rect id="Rectangle-Copy-12" width="439.2" height="155" x="230.2" y="127" class="st5"/><path id="Line-3-Copy" d="M387.3,464.5c0,0,22.9,0,65.7,0C410.2,464.5,387.3,464.5,387.3,464.5z" class="st9"/><g id="Group-4-Copy" transform="translate(680.000000, 87.500000) scale(1, -1) translate(-680.000000, -87.500000) translate(565.000000, 48.000000)"><path id="Path-2-Copy-5" d="M230,0.5l7,14h-6V80H-1v-2h230V14.5h-6L230,0.5z" class="st10"/></g><path id="Line-7" d="M626,48.5v64h6l-7,14l-7-14h6v-64H626z" class="st10"/><path id="Path-2-Copy-11" d="M647,417l14,7l-14,7l0-6h-98v-2h98L647,417z" class="st10"/><g id="icon_x2F_device_x2F_16" transform="translate(685.000000, 339.000000)"><path id="Shape_4_" d="M9,1c0.6,0,1,0.4,1,1c0,0.5-0.4,0.9-0.8,1L8.7,4H12c1.1,0,2,0.9,2,2v5c0,1.1-0.9,2-2,2H4 c-1.1,0-2-0.9-2-2V6c0-1.1,0.9-2,2-2h3.7l0.6-1.4C8.1,2.5,8,2.3,8,2.1L8,2C8,1.4,8.4,1,9,1z M12,5H4C3.5,5,3.1,5.4,3,5.9L3,6v5 c0,0.5,0.4,0.9,0.9,1L4,12h8c0.5,0,0.9-0.4,1-0.9l0-0.1V6c0-0.5-0.4-0.9-0.9-1L12,5z M10.5,10c0.3,0,0.5,0.2,0.5,0.5 c0,0.3-0.2,0.5-0.5,0.5h-5C5.2,11,5,10.8,5,10.5C5,10.2,5.2,10,5.5,10H10.5z M5.5,6C6.3,6,7,6.7,7,7.5C7,8.3,6.3,9,5.5,9 C4.7,9,4,8.3,4,7.5C4,6.7,4.7,6,5.5,6z M10.5,6C11.3,6,12,6.7,12,7.5C12,8.3,11.3,9,10.5,9C9.7,9,9,8.3,9,7.5C9,6.7,9.7,6,10.5,6z M5.5,7C5.2,7,5,7.2,5,7.5C5,7.8,5.2,8,5.5,8C5.8,8,6,7.8,6,7.5C6,7.2,5.8,7,5.5,7z M10.5,7C10.2,7,10,7.2,10,7.5 C10,7.8,10.2,8,10.5,8C10.8,8,11,7.8,11,7.5C11,7.2,10.8,7,10.5,7z" class="st11"/></g><g id="icon_x2F_cluster_x2F_16" transform="translate(606.000000, 339.000000)"><path id="Shape_5_" d="M8,3.5c0.8,0,1.5-0.7,1.5-1.5c0-0.8-0.7-1.5-1.5-1.5C7.2,0.5,6.5,1.2,6.5,2 C6.5,2.8,7.2,3.5,8,3.5z M8,1.5c0.3,0,0.5,0.2,0.5,0.5c0,0.3-0.2,0.5-0.5,0.5C7.7,2.5,7.5,2.3,7.5,2C7.5,1.7,7.7,1.5,8,1.5z M12.8,5.9c0.8,0,1.5-0.7,1.5-1.5c0-0.8-0.7-1.5-1.5-1.5c-0.8,0-1.5,0.7-1.5,1.5C11.3,5.2,12,5.9,12.8,5.9z M12.8,3.9 c0.3,0,0.5,0.2,0.5,0.5c0,0.3-0.2,0.5-0.5,0.5c-0.3,0-0.5-0.2-0.5-0.5C12.3,4.1,12.5,3.9,12.8,3.9L12.8,3.9z M2.2,8.1 c-0.8,0-1.5,0.7-1.5,1.5c0,0.8,0.7,1.5,1.5,1.5c0.8,0,1.5-0.7,1.5-1.5C3.7,8.8,3.1,8.1,2.2,8.1z M2.2,10.1c-0.3,0-0.5-0.2-0.5-0.5 c0-0.3,0.2-0.5,0.5-0.5c0.3,0,0.5,0.2,0.5,0.5C2.7,9.9,2.5,10.1,2.2,10.1z M3.2,5.9c0.8,0,1.5-0.7,1.5-1.5c0-0.8-0.7-1.5-1.5-1.5 c-0.8,0-1.5,0.7-1.5,1.5C1.7,5.2,2.4,5.9,3.2,5.9L3.2,5.9z M3.2,3.9c0.3,0,0.5,0.2,0.5,0.5c0,0.3-0.2,0.5-0.5,0.5 C3,4.9,2.7,4.7,2.7,4.4C2.7,4.1,2.9,3.9,3.2,3.9L3.2,3.9z M13.8,8.1c-0.8,0-1.5,0.7-1.5,1.5c0,0.8,0.7,1.5,1.5,1.5 c0.8,0,1.5-0.7,1.5-1.5C15.3,8.8,14.6,8.1,13.8,8.1z M13.8,10.1c-0.3,0-0.5-0.2-0.5-0.5c0-0.3,0.2-0.5,0.5-0.5 c0.3,0,0.5,0.2,0.5,0.5C14.3,9.9,14,10.1,13.8,10.1z M10.4,12c-0.8,0-1.5,0.7-1.5,1.5c0,0.8,0.7,1.5,1.5,1.5c0.8,0,1.5-0.7,1.5-1.5 C11.9,12.7,11.3,12,10.4,12L10.4,12z M10.4,14c-0.3,0-0.5-0.2-0.5-0.5c0-0.3,0.2-0.5,0.5-0.5c0.3,0,0.5,0.2,0.5,0.5 c0,0.1-0.1,0.3-0.1,0.4C10.7,13.9,10.6,14,10.4,14z M5.6,12c-0.8,0-1.5,0.7-1.5,1.5c0,0.8,0.7,1.5,1.5,1.5c0.8,0,1.5-0.7,1.5-1.5 C7.1,12.7,6.4,12,5.6,12L5.6,12z M5.6,14c-0.3,0-0.5-0.2-0.5-0.5c0-0.3,0.2-0.5,0.5-0.5c0.3,0,0.5,0.2,0.5,0.5 C6.1,13.8,5.8,14,5.6,14z M11,8c0-1.7-1.3-3-3-3C6.3,5,5,6.3,5,8c0,1.7,1.3,3,3,3C9.7,11,11,9.7,11,8z M8,10c-1.1,0-2-0.9-2-2 c0-1.1,0.9-2,2-2c1.1,0,2,0.9,2,2c0,0.5-0.2,1-0.6,1.4C9,9.8,8.5,10,8,10z" class="st11"/></g><path id="Line-Copy" d="M215.8,199.5l14,7l-14,7l0-6L83,208l-1,0l0-2l1,0l132.8-0.5L215.8,199.5z" class="st10"/><path id="Path-4" d="M409.2,282v141H455v-6l14,7l-14,7v-6h-47.8V282H409.2z" class="st10"/><path id="Path-5" d="M277,282l7,14h-6v167.5h37.5v2H276V296h-6L277,282z" class="st10"/><path id="Line-6" d="M441,47v66h6l-7,14l-7-14h6V49H289.5v-2H441z" class="st10"/><path id="Path-3" d="M796,282v143h-41l0,6l-14-7l14-7l0,6h39l0-141H796z" class="st10"/><rect width="130.8" height="37.3" x="299.5" y="3.7" class="st12"/><text transform="matrix(1 0 0 1 340.7321 14.0313)"><tspan x="0" y="0" class="st6 st7 st8">Installs</tspan><tspan x="-32" y="20" class="st6 st7 st8">management hub</tspan></text><rect width="133.6" height="37.3" x="82" y="163.3" class="st12"/><text transform="matrix(1 0 0 1 120.2609 173.6952)"><tspan x="0" y="0" class="st6 st7 st8">Manages </tspan><tspan x="-9.8" y="20" class="st6 st7 st8">deployment</tspan></text><rect width="143.7" height="15.6" x="459.5" y="82.6" class="st12"/><text class="st6 st7 st8" transform="matrix(1 0 0 1 468.6895 92.9777)">Software developer</text><rect width="143.7" height="15.6" x="180.5" y="82.6" class="st12"/><text class="st6 st7 st8" transform="matrix(1 0 0 1 205.796 92.9337)">Cloud installer</text><rect width="97.1" height="41.6" x="807" y="343.4" class="st12"/><text transform="matrix(1 0 0 1 807.0001 353.7596)"><tspan x="0" y="0" class="st6 st7 st8">Pulls </tspan><tspan x="0" y="20" class="st6 st7 st8">containers</tspan></text><rect width="232" height="15.6" x="563.8" y="23.7" class="st12"/><text class="st6 st7 st8" transform="matrix(1 0 0 1 578.9702 34.0099)">Develops and publishes service</text><rect width="162.3" height="15.6" x="745" y="144.9" class="st12"/><text class="st13 st14 st15" transform="matrix(1 0 0 1 744.9996 156.7782)">Container registry</text><rect width="236.1" height="15.6" x="245.8" y="147.1" class="st12"/><text class="st13 st14 st15" transform="matrix(1 0 0 1 245.8172 158.9718)">Management hub</text><rect width="95" height="15.6" x="469" y="343.2" class="st12"/><text class="st13 st14 st15" transform="matrix(1 0 0 1 469.0002 355.0536)">Edge node</text><rect width="90.6" height="87.4" x="174" y="346.6" class="st12"/><text transform="matrix(1 0 0 1 204.5091 356.977)"><tspan x="0" y="0" class="st6 st7 st8">Registers </tspan><tspan x="-3.1" y="20" class="st6 st7 st8">node with </tspan><tspan x="-24.2" y="40" class="st6 st7 st8">management </tspan><tspan x="35.8" y="60" class="st6 st7 st8">hub</tspan></text><rect width="90.6" height="56.2" x="305.1" y="323.4" class="st12"/><text transform="matrix(1 0 0 1 316.8609 333.7164)"><tspan x="0" y="0" class="st6 st7 st8">Gets service </tspan><tspan x="2.2" y="20" class="st6 st7 st8">deployment </tspan><tspan x="2.9" y="40" class="st6 st7 st8">instructions</tspan></text><rect width="64" height="43.6" x="477" y="407.6" class="st12"/><text transform="matrix(1 0 0 1 493.0895 417.9814)"><tspan x="0" y="0" class="st6 st7 st8">Edge </tspan><tspan x="-2.1" y="20" class="st6 st7 st8">agent</tspan></text><rect width="64" height="43.6" x="669" y="407.6" class="st12"/><text transform="matrix(1 0 0 1 685.0895 417.9814)"><tspan x="0" y="0" class="st6 st7 st8">Edge </tspan><tspan x="-6.9" y="20" class="st6 st7 st8">service</tspan></text><rect width="98" height="14.7" x="549" y="399.6" class="st12"/><text class="st13 st7 st8" transform="matrix(1 0 0 1 581.9281 409.9584)">Runs</text><rect width="58.9" height="14.7" x="625" y="342.2" class="st12"/><text class="st13 st7 st16" transform="matrix(1 0 0 1 624.9999 351.0321)">Cluster or</text><rect width="44.5" height="14.7" x="703" y="342.2" class="st12"/><text class="st13 st7 st16" transform="matrix(1 0 0 1 702.9999 351.0321)">Device</text><rect width="90.6" height="15.5" x="306.1" y="497.6" class="st12"/><text class="st6 st7 st8" transform="matrix(1 0 0 1 312.6036 507.9965)">Node owner</text><rect width="94.5" height="15.5" x="-2.8" y="239.6" class="st12"/><text class="st6 st7 st8" transform="matrix(1 0 0 1 0.2867 249.9286)">Administrator</text><g><path d="M737,144.5h-8c-0.6,0-1,0.4-1,1v11c0,0.6,0.4,1,1,1h8c0.6,0,1-0.4,1-1v-11C738,145,737.6,144.5,737,144.5z M737,145.5v3h-8v-3H737z M729,152.5v-3h8v3H729z M729,156.5v-3h8v3H729z" class="st13"/><circle cx="730.5" cy="147" r=".5" class="st13"/><circle cx="730.5" cy="151" r=".5" class="st13"/><circle cx="730.5" cy="155" r=".5" class="st13"/><rect id="_x3C_Transparent_Rectangle_x3E__616_" width="16" height="16" x="725" y="143" class="st17"/></g></svg>