<svg xmlns="http://www.w3.org/2000/svg" xmlns:xlink="http://www.w3.org/1999/xlink" x="0" y="0" version="1.1" viewBox="0 0 665.9 613" xml:space="preserve" style="enable-background:new 0 0 665.9 613"><style type="text/css">.st0{fill-rule:evenodd;clip-rule:evenodd;fill:#051b75}.st1{fill:#bebebe}.st2,.st3{fill-rule:evenodd;clip-rule:evenodd;fill:#e3f6ff}.st3{fill:#0f62fe}.st4{display:none;fill:#bebebe}.st5{fill-rule:evenodd;clip-rule:evenodd;fill:none}.st6{fill:#f4f4f4}.st7{font-family:&apos;IBMPlexSans-Medium&apos;}.st8{font-size:16px}.st9{fill-rule:evenodd;clip-rule:evenodd;fill:#408bfc}.st10{fill:#161616}.st11{font-family:&apos;IBMPlexSans&apos;}.st12{font-size:14px}.st13,.st14{fill-rule:evenodd;clip-rule:evenodd;fill:#fff}.st14{fill:#92eeee}.st15,.st16{fill:none;stroke:#bebebe;stroke-width:2;stroke-miterlimit:10}.st16{stroke-width:2.2099}</style><g id="Layer_1"><rect id="Rectangle-Copy-51" width="495.3" height="284" x="42.3" y="211" class="st0"/><path id="Line-11-Copy-3" d="M99.5,360l6.8,14.1l-6-0.1l-0.2,22l6,0.1L99,410L92.1,396l6,0.1l0.2-22l-6-0.1L99.5,360z" class="st1"/><path id="Line-11-Copy-4" d="M195.3,360l6.8,14.1l-6-0.1l-0.2,22l6,0.1l-7.2,13.9L188,396l6,0.1l0.2-22l-6-0.1 L195.3,360z" class="st1"/><path id="Line-11-Copy-5" d="M483.4,360l6.8,14.1l-6-0.1l-0.2,22l6,0.1l-7.2,13.9l-6.8-14.1l6,0.1l0.2-22l-6-0.1 L483.4,360z" class="st1"/><circle id="Oval-Copy-3" cx="60.6" cy="24" r="24" class="st2"/><path id="Shape" d="M55.6,27c2.8,0,5,2.2,5,5v6h-2v-6c0-1.7-1.3-3-3-3h-4c-1.7,0-3,1.3-3,3v6h-2v-6c0-2.8,2.2-5,5-5 H55.6z M53.6,15c2.8,0,5,2.2,5,5s-2.2,5-5,5s-5-2.2-5-5S50.8,15,53.6,15z M68.6,12.9c2.1,0,3.9,1.4,4.5,3.4l0.1,0.2l0,0.1l0,0 c1.3,0.5,2.2,1.7,2.3,3.1l0,0.2l0,0.2c0,2.1-1.6,3.7-3.7,3.9l-0.2,0h-6.3c-2.1,0-3.9-1.7-3.9-3.9c0-1.5,0.9-2.8,2.2-3.5l0.2-0.1 l0-0.1c0.5-1.9,2.1-3.4,4.1-3.6l0.2,0L68.6,12.9z M53.6,17c-1.7,0-3,1.3-3,3c0,1.7,1.3,3,3,3s3-1.3,3-3S55.2,17,53.6,17z M68.6,14.9c-1.4,0-2.5,1-2.7,2.4l0,0.2l0,0.8l-0.8,0.2c-0.9,0.2-1.5,0.9-1.5,1.8c0,1,0.8,1.8,1.7,1.9l0.1,0h6.3 c1,0,1.9-0.8,1.9-1.9c0-0.8-0.6-1.6-1.3-1.8l-0.1,0l-0.8-0.2l0-0.8C71.2,16,70,14.9,68.6,14.9z" class="st3"/><path id="Path-6-Copy-8" d="M669.8,95v99h149v304.5H552.3V479h-6l7-14l7,14h-6v17.5h262.5V196h-149V95H669.8z" class="st4"/><rect width="184" height="15.6" x="55.4" y="231.1" class="st5"/><text class="st6 st7 st8" transform="matrix(1 0 0 1 55.393 242.9885)">Management hub</text><rect id="Rectangle-Copy-14" width="144" height="100" x="443.1" y="513" class="st9"/><rect width="94.6" height="15.6" x="459.1" y="533.2" class="st5"/><text class="st6 st7 st8" transform="matrix(1 0 0 1 459.1378 544.9918)">Edge node</text><rect width="99.9" height="17.9" x="10" y="51.6" class="st5"/><text class="st10 st11 st12" transform="matrix(1 0 0 1 13.4691 61.9691)">Cloud installer</text><rect width="149.1" height="56" x="34" y="98.6" class="st5"/><text transform="matrix(1 0 0 1 33.9642 108.967)"><tspan x="0" y="0" class="st10 st11 st12">1. Installs the </tspan><tspan x="0" y="20" class="st10 st11 st12">components for the </tspan><tspan x="0" y="40" class="st10 st11 st12">management hub</tspan></text><rect width="135.2" height="56" x="327.8" y="98.6" class="st5"/><text transform="matrix(1 0 0 1 327.7807 108.9675)"><tspan x="0" y="0" class="st10 st11 st12">2. Populates the </tspan><tspan x="0" y="20" class="st10 st11 st12">exchange with Open </tspan><tspan x="0" y="40" class="st10 st11 st12">Horizon examples</tspan></text><rect width="130.3" height="38.4" x="511.6" y="98.6" class="st5"/><text transform="matrix(1 0 0 1 511.5568 108.9675)"><tspan x="0" y="0" class="st10 st11 st12">3. Publishes agent </tspan><tspan x="0" y="20" class="st10 st11 st12">install files to MMS</tspan></text><rect width="80.8" height="56.4" x="576" y="392.8" class="st5"/><text transform="matrix(1 0 0 1 576.0086 403.2048)"><tspan x="0" y="0" class="st10 st11 st12">Edge nodes </tspan><tspan x="0" y="20" class="st10 st11 st12">pull files </tspan><tspan x="0" y="40" class="st10 st11 st12">from MMS</tspan></text><g><rect id="Rectangle-Copy-16_6_" width="80" height="81" x="346.2" y="279.1" class="st13"/><rect width="80" height="14.9" x="346.2" y="312.7" class="st5"/><text class="st10 st11 st12" transform="matrix(1 0 0 1 372.3124 323.0649)">SDO</text></g><g><rect id="Rectangle-Copy-16_8_" width="80" height="81" x="443.1" y="279.1" class="st13"/><rect width="80" height="14.9" x="443.1" y="312.7" class="st5"/><text class="st10 st11 st12" transform="matrix(1 0 0 1 467.5515 323.0649)">MMS</text></g><g><rect id="Rectangle-Copy-16_9_" width="80" height="81" x="250.6" y="279.1" class="st13"/><rect width="80" height="36.7" x="250.6" y="302.8" class="st5"/><text transform="matrix(1 0 0 1 266.4445 313.1799)"><tspan x="0" y="0" class="st10 st11 st12">Secrets </tspan><tspan x="-4" y="20" class="st10 st11 st12">manager</tspan></text></g><g><rect id="Rectangle-Copy-16_2_" width="80" height="81" x="155" y="279.1" class="st13"/><rect width="80" height="14.9" x="155" y="312.7" class="st5"/><text class="st10 st11 st12" transform="matrix(1 0 0 1 164.1277 323.0649)">Exchange</text></g><g><rect id="Rectangle-Copy-16_3_" width="80" height="81" x="59.5" y="279.1" class="st13"/><rect width="80" height="14.9" x="59.5" y="312.7" class="st5"/><text class="st10 st11 st12" transform="matrix(1 0 0 1 80.5483 323.0649)">Agbot</text></g><g><rect id="Rectangle-Copy-16_4_" width="80" height="68" x="59.5" y="410" class="st14"/><rect width="80" height="39.8" x="59.5" y="427.7" class="st5"/><text transform="matrix(1 0 0 1 71.3918 438.0454)"><tspan x="0" y="0" class="st10 st11 st12">Postgres</tspan><tspan x="18.7" y="20" class="st10 st11 st12">DB</tspan></text></g><g><rect id="Rectangle-Copy-16_5_" width="80" height="68" x="155" y="410" class="st14"/><rect width="80" height="39.8" x="155" y="427.7" class="st5"/><text transform="matrix(1 0 0 1 166.962 438.0454)"><tspan x="0" y="0" class="st10 st11 st12">Postgres</tspan><tspan x="18.7" y="20" class="st10 st11 st12">DB</tspan></text></g><g><rect id="Rectangle-Copy-16_16_" width="80" height="68" x="443.1" y="410" class="st14"/><rect width="80" height="39.8" x="443.1" y="427.7" class="st5"/><text transform="matrix(1 0 0 1 461.636 438.0454)"><tspan x="0" y="0" class="st10 st11 st12">Mongo</tspan><tspan x="12.2" y="20" class="st10 st11 st12">DB</tspan></text></g><g><g><polyline points="315 95 315 258.1 195 258.1 195 269.1" class="st15"/><g><polygon points="188.1 267 195 279.1 202 267" class="st1"/></g></g></g><g><g><polyline points="499.5 95 499.5 190.5 482.1 190.5 482.1 244.8 482.1 268" class="st16"/><g><polygon points="474.4 265.8 482.1 279.1 489.8 265.8" class="st1"/></g></g></g><g><g><polyline points="523.1 339.5 560.7 339.5 560.7 501.9" class="st16"/><g><polygon points="553 499.6 560.7 513 568.4 499.6" class="st1"/></g></g></g><g><g><polyline points="21.9 95 21.9 319.6 32.2 319.6" class="st15"/><g><polygon points="30.2 326.6 42.3 319.6 30.2 312.6" class="st1"/></g></g></g></g></svg>