<svg xmlns="http://www.w3.org/2000/svg" id="Layer_1" data-name="Layer 1" viewBox="0 0 863.27 359.42"><defs><style>.cls-1{fill:#2f56a6}.cls-2{font-size:10.82px;fill:#010101}.cls-10,.cls-11,.cls-12,.cls-13,.cls-2,.cls-21,.cls-22,.cls-43,.cls-65{font-family:IBMPlexSans,IBM Plex Sans}.cls-3{letter-spacing:-.01em}.cls-4,.cls-5{letter-spacing:0}.cls-6{font-size:15px}.cls-27,.cls-53,.cls-6,.cls-65,.cls-71{fill:#231f20}.cls-16,.cls-17,.cls-18,.cls-27,.cls-53,.cls-6{font-family:IBMPlexSans-Medium,IBM Plex Sans}.cls-7{letter-spacing:-.01em}.cls-8{letter-spacing:0}.cls-9{letter-spacing:-.01em}.cls-10,.cls-11,.cls-12,.cls-13,.cls-21,.cls-22,.cls-65{font-size:11px}.cls-11,.cls-26{letter-spacing:0}.cls-12,.cls-13,.cls-14,.cls-15,.cls-24{letter-spacing:-.01em}.cls-16,.cls-17,.cls-18,.cls-19,.cls-27{font-size:14px}.cls-17,.cls-18,.cls-28,.cls-29{letter-spacing:-.01em}.cls-20{letter-spacing:0}.cls-21,.cls-25{letter-spacing:-.01em}.cls-22,.cls-23{letter-spacing:0}.cls-30,.cls-31,.cls-32{letter-spacing:-.01em}.cls-33{letter-spacing:0}.cls-34,.cls-37,.cls-60,.cls-63,.cls-72{fill:none}.cls-34,.cls-39{stroke:#038571}.cls-34,.cls-37,.cls-39,.cls-60,.cls-63,.cls-70,.cls-72{stroke-miterlimit:10}.cls-34,.cls-37,.cls-39,.cls-70,.cls-72{stroke-width:2px}.cls-35{fill:#038571}.cls-36{fill:#f2f6fc}.cls-37{stroke:#983995}.cls-38{fill:#983995}.cls-39{fill:#e2e8e6}.cls-40{fill:#4272b8}.cls-41,.cls-42{letter-spacing:-.01em}.cls-43{font-size:9px}.cls-44,.cls-45{letter-spacing:-.01em}.cls-46{letter-spacing:0}.cls-47{letter-spacing:.01em}.cls-48,.cls-49{letter-spacing:-.01em}.cls-50{letter-spacing:0}.cls-51{fill:#e6e7e8}.cls-52{fill:#58595b}.cls-53{font-size:13px}.cls-54{letter-spacing:-.01em}.cls-55{letter-spacing:0}.cls-56{letter-spacing:-.01em}.cls-57{letter-spacing:.01em}.cls-58{letter-spacing:-.02em}.cls-59{letter-spacing:0}.cls-60{stroke:#a4a4a5;stroke-width:2.11px}.cls-61{letter-spacing:-.01em}.cls-62{letter-spacing:0}.cls-63{stroke:#7aa0d4;stroke-width:1.55px}.cls-64{letter-spacing:-.01em}.cls-66{letter-spacing:-.03em}.cls-67,.cls-68{letter-spacing:.01em}.cls-69{letter-spacing:-.01em}.cls-70{fill:#f4dd9d;stroke:#bc9a30}.cls-71{font-size:21px;font-family:MyriadPro-Regular,Myriad Pro}.cls-72{stroke:#fbb040}.cls-73{fill:#fbb040}</style></defs><title>installers</title><path d="M737.65,269.76c9.81,0,17.8,7.7,17.8,17.17s-8,17.17-17.8,17.17-17.8-7.7-17.8-17.17,8-17.17,17.8-17.17m0-3c-11.54,0-20.9,9-20.9,20.16s9.36,20.16,20.9,20.16,20.89-9,20.89-20.16-9.35-20.16-20.89-20.16Z" class="cls-1"/><path d="M720.21,311.57h34.89a5,5,0,0,1,5,5v9.93a0,0,0,0,1,0,0H715.21a0,0,0,0,1,0,0v-9.93A5,5,0,0,1,720.21,311.57Z" class="cls-1"/><text class="cls-2" transform="translate(706.56 346.56)">Cloud in<tspan x="39.54" y="0" class="cls-3">s</tspan><tspan x="44.74" y="0" class="cls-4">ta</tspan><tspan x="54.31" y="0" class="cls-5">l</tspan><tspan x="57.2" y="0">ler</tspan></text><path d="M63.71,269.76c9.81,0,17.79,7.7,17.79,17.17s-8,17.17-17.79,17.17-17.8-7.7-17.8-17.17,8-17.17,17.8-17.17m0-3c-11.54,0-20.9,9-20.9,20.16s9.36,20.16,20.9,20.16,20.89-9,20.89-20.16-9.35-20.16-20.89-20.16Z" class="cls-1"/><path d="M46.26,311.57H81.15a5,5,0,0,1,5,5v9.93a0,0,0,0,1,0,0H41.26a0,0,0,0,1,0,0v-9.93A5,5,0,0,1,46.26,311.57Z" class="cls-1"/><text class="cls-6" transform="translate(678.61 175.08)"><tspan class="cls-7">P</tspan><tspan x="9.25" y="0" class="cls-8">r</tspan><tspan x="14.93" y="0" class="cls-9">o</tspan><tspan x="23.27" y="0">vision</tspan><tspan x="63.46" y="0" class="cls-10" xml:space="preserve"> cloud </tspan><tspan x="95.97" y="0" class="cls-11">r</tspan><tspan x="99.95" y="0" class="cls-10">esou</tspan><tspan x="123.75" y="0" class="cls-12">r</tspan><tspan x="127.74" y="0" class="cls-13">c</tspan><tspan x="133.2" y="0" class="cls-10">es </tspan><tspan class="cls-10"><tspan x="0" y="16.8">(data in</tspan><tspan x="37.27" y="16.8" class="cls-14">g</tspan><tspan x="43.01" y="16.8">e</tspan><tspan x="49.05" y="16.8" class="cls-15">s</tspan><tspan x="54.33" y="16.8">t),</tspan><tspan x="64.87" y="16.8" class="cls-16" xml:space="preserve"> in</tspan><tspan x="80" y="16.8" class="cls-17">s</tspan><tspan x="86.82" y="16.8" class="cls-16">ta</tspan><tspan x="99.61" y="16.8" class="cls-18">l</tspan><tspan x="103.52" y="16.8" class="cls-16">l and </tspan></tspan><tspan class="cls-19"><tspan x="0" y="33.6">moni</tspan><tspan x="32.07" y="33.6" class="cls-20">t</tspan><tspan x="37.13" y="33.6">or </tspan><tspan x="53.69" y="33.6" class="cls-10">cloud s</tspan><tspan x="88.95" y="33.6" class="cls-13">o</tspan><tspan x="95.05" y="33.6" class="cls-10">ft</tspan><tspan x="102.47" y="33.6" class="cls-21">w</tspan><tspan x="110.82" y="33.6" class="cls-10">a</tspan><tspan x="116.7" y="33.6" class="cls-11">r</tspan><tspan x="120.68" y="33.6" class="cls-10">e </tspan><tspan x="129.31" y="33.6" class="cls-22">t</tspan><tspan x="133.13" y="33.6" class="cls-10">o </tspan></tspan><tspan class="cls-10"><tspan x="0" y="46.8" class="cls-14">c</tspan><tspan x="5.47" y="46.8">ommunica</tspan><tspan x="57.49" y="46.8" class="cls-23">t</tspan><tspan x="61.3" y="46.8">e with </tspan><tspan x="93.84" y="46.8" class="cls-24">y</tspan><tspan x="99.27" y="46.8">our ed</tspan><tspan x="130.73" y="46.8" class="cls-14">g</tspan><tspan x="136.48" y="46.8">e </tspan><tspan x="0" y="60">s</tspan><tspan x="5.36" y="60" class="cls-14">o</tspan><tspan x="11.45" y="60">ft</tspan><tspan x="18.88" y="60" class="cls-25">w</tspan><tspan x="27.22" y="60">a</tspan><tspan x="33.1" y="60" class="cls-26">r</tspan><tspan x="37.08" y="60">e</tspan></tspan></text><text class="cls-27" transform="translate(7.35 159.66)">In<tspan x="13.94" y="0" class="cls-28">s</tspan><tspan x="20.76" y="0">ta</tspan><tspan x="33.56" y="0" class="cls-29">l</tspan><tspan x="37.46" y="0">l</tspan><tspan class="cls-10"><tspan x="0" y="13.2">Hori</tspan><tspan x="20.72" y="13.2" class="cls-30">z</tspan><tspan x="25.72" y="13.2">on A</tspan><tspan x="47.77" y="13.2" class="cls-14">g</tspan><tspan x="53.52" y="13.2">ent s</tspan><tspan x="77.62" y="13.2" class="cls-14">o</tspan><tspan x="83.71" y="13.2">ft</tspan><tspan x="91.13" y="13.2">-</tspan><tspan x="0" y="26.4" class="cls-31">w</tspan><tspan x="8.35" y="26.4">a</tspan><tspan x="14.22" y="26.4" class="cls-24">r</tspan><tspan x="18.21" y="26.4">e on each IBM </tspan><tspan x="0" y="39.6" class="cls-30">E</tspan><tspan x="6.3" y="39.6">d</tspan><tspan x="12.68" y="39.6" class="cls-14">g</tspan><tspan x="18.43" y="39.6">e Computing </tspan><tspan x="83.54" y="39.6" class="cls-23">f</tspan><tspan x="87.06" y="39.6">or </tspan><tspan x="0" y="52.8">D</tspan><tspan x="7.38" y="52.8" class="cls-32">e</tspan><tspan x="13.33" y="52.8">vi</tspan><tspan x="21.49" y="52.8" class="cls-14">c</tspan><tspan x="26.96" y="52.8">es node and </tspan></tspan><tspan x="0" y="69.6" class="cls-33">r</tspan><tspan x="5.29" y="69.6">egi</tspan><tspan x="24.3" y="69.6" class="cls-28">s</tspan><tspan x="31.12" y="69.6" class="cls-20">t</tspan><tspan x="36.18" y="69.6">er</tspan><tspan x="49.32" y="69.6" class="cls-10"> </tspan><tspan x="51.92" y="69.6" class="cls-22">f</tspan><tspan x="55.44" y="69.6" class="cls-10">or the </tspan><tspan class="cls-10"><tspan x="0" y="82.8">depl</tspan><tspan x="21.79" y="82.8" class="cls-26">o</tspan><tspan x="27.9" y="82.8">yment pa</tspan><tspan x="73.99" y="82.8" class="cls-25">t</tspan><tspan x="77.75" y="82.8" class="cls-23">t</tspan><tspan x="81.56" y="82.8">ern </tspan><tspan x="0" y="96" class="cls-14">o</tspan><tspan x="6.09" y="96">f </tspan><tspan x="12.25" y="96" class="cls-24">y</tspan><tspan x="17.69" y="96">our ed</tspan><tspan x="49.15" y="96" class="cls-14">g</tspan><tspan x="54.89" y="96">e s</tspan><tspan x="68.88" y="96" class="cls-14">o</tspan><tspan x="74.98" y="96">ft</tspan><tspan x="82.4" y="96" class="cls-31">w</tspan><tspan x="90.75" y="96">a</tspan><tspan x="96.62" y="96" class="cls-24">r</tspan><tspan x="100.61" y="96">e</tspan></tspan></text><line x1="266.75" x2="307.79" y1="294.79" y2="294.79" class="cls-34"/><polygon points="306.48 299.27 314.25 294.79 306.48 290.3 306.48 299.27" class="cls-35"/><line x1="266.38" x2="307.42" y1="222.67" y2="222.67" class="cls-34"/><polygon points="306.11 227.16 313.88 222.67 306.11 218.18 306.11 227.16" class="cls-35"/><line x1="266.38" x2="307.42" y1="150.63" y2="150.63" class="cls-34"/><polygon points="306.11 155.11 313.88 150.63 306.11 146.14 306.11 155.11" class="cls-35"/><line x1="259.9" x2="297.77" y1="122.6" y2="75.59" class="cls-36"/><line x1="259.9" x2="293.71" y1="122.6" y2="80.61" class="cls-37"/><polygon points="296.39 84.45 297.77 75.58 289.4 78.82 296.39 84.45" class="cls-38"/><line x1="193.12" x2="193.12" y1="65.79" y2="115.13" class="cls-34"/><polygon points="188.63 113.82 193.12 121.59 197.61 113.82 188.63 113.82" class="cls-35"/><rect width="116.32" height="27" x="327.97" y="137.05" class="cls-39"/><path d="M295.63,22H433.82a19.55,19.55,0,0,1,19.55,19.55V49a19.54,19.54,0,0,1-19.54,19.54H295.63A19.55,19.55,0,0,1,276.09,49V41.53A19.55,19.55,0,0,1,295.63,22Z" class="cls-36"/><path d="M433.82,23a18.57,18.57,0,0,1,18.55,18.55V49a18.57,18.57,0,0,1-18.55,18.55H295.63A18.56,18.56,0,0,1,277.09,49V41.53A18.56,18.56,0,0,1,295.63,23H433.82m0-2H295.63a20.54,20.54,0,0,0-20.54,20.55V49a20.54,20.54,0,0,0,20.54,20.55H433.82A20.55,20.55,0,0,0,454.37,49V41.53A20.55,20.55,0,0,0,433.82,21Z" class="cls-40"/><text class="cls-27" transform="translate(329.93 42.08) scale(1.05 1)">E<tspan x="8.3" y="0" class="cls-41">x</tspan><tspan x="15.53" y="0">chan</tspan><tspan x="46.59" y="0" class="cls-42">g</tspan><tspan x="54.03" y="0">e</tspan><tspan class="cls-43"><tspan x="-24.47" y="12.96">(Dis</tspan><tspan x="-8.78" y="12.96" class="cls-44">c</tspan><tspan x="-4.31" y="12.96" class="cls-45">ov</tspan><tspan x="5.02" y="12.96" class="cls-46">e</tspan><tspan x="9.96" y="12.96" class="cls-47">r</tspan><tspan x="13.35" y="12.96">y &amp; </tspan><tspan x="28.34" y="12.96" class="cls-48">P</tspan><tspan x="33.7" y="12.96" class="cls-46">a</tspan><tspan x="38.5" y="12.96" class="cls-49">t</tspan><tspan x="41.58" y="12.96" class="cls-50">t</tspan><tspan x="44.71" y="12.96" class="cls-46">ern Mgmt)</tspan></tspan></text><rect width="137.64" height="46.6" x="113.77" y="21.98" class="cls-51" rx="19.55" ry="19.55"/><path d="M231.86,23a18.57,18.57,0,0,1,18.55,18.55V49a18.57,18.57,0,0,1-18.55,18.55H133.31A18.57,18.57,0,0,1,114.77,49V41.53A18.57,18.57,0,0,1,133.31,23h98.55m0-2H133.31a20.55,20.55,0,0,0-20.54,20.55V49a20.55,20.55,0,0,0,20.54,20.55h98.55A20.55,20.55,0,0,0,252.41,49V41.53A20.55,20.55,0,0,0,231.86,21Z" class="cls-52"/><text class="cls-53" transform="translate(157.74 42.08) scale(1.05 1)"><tspan class="cls-54">R</tspan><tspan x="8.32" y="0" class="cls-55">egi</tspan><tspan x="25.97" y="0" class="cls-56">s</tspan><tspan x="32.3" y="0">t</tspan><tspan x="37.05" y="0" class="cls-57">r</tspan><tspan x="42.15" y="0">y </tspan><tspan class="cls-43"><tspan x="-21.06" y="12.96">(Doc</tspan><tspan x="-2.44" y="12.96" class="cls-58">k</tspan><tspan x="2.15" y="12.96">er Hub or </tspan><tspan x="41.81" y="12.96" class="cls-48">P</tspan><tspan x="47.17" y="12.96">ri</tspan><tspan x="52.72" y="12.96" class="cls-49">v</tspan><tspan x="57.07" y="12.96">a</tspan><tspan x="61.88" y="12.96" class="cls-59">t</tspan><tspan x="65" y="12.96">e)</tspan></tspan></text><rect width="341.85" height="44.84" x="124.62" y="128.13" class="cls-60"/><text class="cls-2" transform="translate(185.03 153.24)">A<tspan x="6.93" y="0" class="cls-61">g</tspan><tspan x="12.58" y="0" class="cls-62">ent</tspan></text><polygon points="266.01 164.13 133.48 164.13 133.51 137.13 266.01 137.13 266.01 164.13" class="cls-63"/><text class="cls-2" transform="translate(32.61 346.56)"><tspan class="cls-64">E</tspan><tspan x="6.2" y="0" class="cls-62">d</tspan><tspan x="12.47" y="0" class="cls-61">g</tspan><tspan x="18.12" y="0">e in</tspan><tspan x="35.46" y="0" class="cls-3">s</tspan><tspan x="40.66" y="0">ta</tspan><tspan x="50.23" y="0" class="cls-5">l</tspan><tspan x="53.12" y="0">ler</tspan></text><text class="cls-2" transform="translate(126.9 121.59)"><tspan class="cls-64">E</tspan><tspan x="6.2" y="0" class="cls-62">d</tspan><tspan x="12.47" y="0" class="cls-61">g</tspan><tspan x="18.12" y="0">e node</tspan></text><text class="cls-65" transform="translate(170.25 83.73)">Pu<tspan x="12.91" y="0" class="cls-26">l</tspan><tspan x="15.85" y="0">l </tspan><tspan x="-33.2" y="13.2" class="cls-14">c</tspan><tspan x="-27.73" y="13.2">ontainers</tspan></text><rect width="116.32" height="27" x="327.6" y="208.4" class="cls-39"/><rect width="342.22" height="44.84" x="124.25" y="199.47" class="cls-60"/><text class="cls-2" transform="translate(189.09 224.59)">A<tspan x="6.93" y="0" class="cls-61">g</tspan><tspan x="12.58" y="0" class="cls-62">ent</tspan></text><polygon points="266.01 235.47 133.17 235.47 133.2 208.47 266.01 208.47 266.01 235.47" class="cls-63"/><text class="cls-2" transform="translate(126.58 192.94)"><tspan class="cls-64">E</tspan><tspan x="6.2" y="0" class="cls-62">d</tspan><tspan x="12.47" y="0" class="cls-61">g</tspan><tspan x="18.12" y="0">e node</tspan></text><rect width="116.32" height="27" x="327.23" y="279.59" class="cls-39"/><rect width="342.6" height="44.84" x="123.87" y="270.66" class="cls-60"/><text class="cls-2" transform="translate(185.48 295.78)">A<tspan x="6.93" y="0" class="cls-61">g</tspan><tspan x="12.58" y="0" class="cls-62">ent</tspan></text><polygon points="266.01 306.66 132.85 306.66 132.88 279.66 266.01 279.66 266.01 306.66" class="cls-63"/><text class="cls-2" transform="translate(126.27 264.13)"><tspan class="cls-64">E</tspan><tspan x="6.2" y="0" class="cls-62">d</tspan><tspan x="12.47" y="0" class="cls-61">g</tspan><tspan x="18.12" y="0">e node</tspan></text><text class="cls-65" transform="translate(288.48 102.2)">A<tspan x="7.05" y="0" class="cls-14">g</tspan><tspan x="12.79" y="0">ents </tspan><tspan x="36.89" y="0" class="cls-24">r</tspan><tspan x="40.88" y="0">egi</tspan><tspan x="55.47" y="0" class="cls-15">s</tspan><tspan x="60.75" y="0" class="cls-23">t</tspan><tspan x="64.57" y="0">er </tspan><tspan x="77.24" y="0" class="cls-23">f</tspan><tspan x="80.76" y="0">or a </tspan><tspan x=".77" y="13.2">depl</tspan><tspan x="22.56" y="13.2" class="cls-26">o</tspan><tspan x="28.67" y="13.2">yment pa</tspan><tspan x="74.76" y="13.2" class="cls-25">t</tspan><tspan x="78.52" y="13.2" class="cls-23">t</tspan><tspan x="82.33" y="13.2">ern</tspan></text><line x1="284.38" x2="239.61" y1="65.79" y2="118.16" class="cls-34"/><polygon points="237.06 114.25 235.42 123.07 243.88 120.08 237.06 114.25" class="cls-35"/><text class="cls-65" transform="translate(227.7 83.72)"><tspan class="cls-66">V</tspan><tspan x="6.37" y="0">eri</tspan><tspan x="19.19" y="0" class="cls-67">f</tspan><tspan x="22.87" y="0">y </tspan><tspan x="-23.17" y="13.2">signatu</tspan><tspan x="12.98" y="13.2" class="cls-26">r</tspan><tspan x="16.96" y="13.2">es</tspan></text><text class="cls-2" transform="translate(279.26 146.62)">Run</text><text class="cls-2" transform="translate(352.72 153.24)"><tspan class="cls-64">E</tspan><tspan x="6.2" y="0" class="cls-62">d</tspan><tspan x="12.47" y="0" class="cls-61">g</tspan><tspan x="18.12" y="0">e se</tspan><tspan x="37.82" y="0" class="cls-68">r</tspan><tspan x="41.9" y="0">vi</tspan><tspan x="49.93" y="0" class="cls-69">c</tspan><tspan x="55.31" y="0">es</tspan></text><text class="cls-2" transform="translate(352.72 224.59)"><tspan class="cls-64">E</tspan><tspan x="6.2" y="0" class="cls-62">d</tspan><tspan x="12.47" y="0" class="cls-61">g</tspan><tspan x="18.12" y="0">e se</tspan><tspan x="37.82" y="0" class="cls-68">r</tspan><tspan x="41.9" y="0">vi</tspan><tspan x="49.93" y="0" class="cls-69">c</tspan><tspan x="55.31" y="0">es</tspan></text><text class="cls-2" transform="translate(352.72 295.78)"><tspan class="cls-64">E</tspan><tspan x="6.2" y="0" class="cls-62">d</tspan><tspan x="12.47" y="0" class="cls-61">g</tspan><tspan x="18.12" y="0">e se</tspan><tspan x="37.82" y="0" class="cls-68">r</tspan><tspan x="41.9" y="0">vi</tspan><tspan x="49.93" y="0" class="cls-69">c</tspan><tspan x="55.31" y="0">es</tspan></text><text class="cls-2" transform="translate(279.26 218.66)">Run</text><text class="cls-2" transform="translate(279.26 291.2)">Run</text><rect width="116.32" height="27" x="541.44" y="152.38" class="cls-70"/><text class="cls-2" transform="translate(566.19 168.58)">Cloud se<tspan x="41.9" y="0" class="cls-68">r</tspan><tspan x="45.98" y="0">vi</tspan><tspan x="54.01" y="0" class="cls-69">c</tspan><tspan x="59.38" y="0">es</tspan></text><rect width="116.32" height="27" x="541.44" y="198.61" class="cls-70"/><text class="cls-2" transform="translate(566.19 214.81)">Cloud se<tspan x="41.9" y="0" class="cls-68">r</tspan><tspan x="45.98" y="0">vi</tspan><tspan x="54.01" y="0" class="cls-69">c</tspan><tspan x="59.38" y="0">es</tspan></text><rect width="116.32" height="27" x="541.44" y="269.8" class="cls-70"/><text class="cls-2" transform="translate(566.19 286)">Cloud se<tspan x="41.9" y="0" class="cls-68">r</tspan><tspan x="45.98" y="0">vi</tspan><tspan x="54.01" y="0" class="cls-69">c</tspan><tspan x="59.38" y="0">es</tspan></text><text class="cls-71" transform="translate(590.74 248.25)">...</text><text class="cls-71" transform="translate(273.74 258.07)">...</text><text class="cls-2" transform="translate(481.44 235.47)"><tspan class="cls-64">P</tspan><tspan x="6.45" y="0">aths</tspan></text><text class="cls-2" transform="translate(481.44 212.11)">Data</text><line x1="450.37" x2="532.55" y1="210.61" y2="172.97" class="cls-36"/><line x1="456.24" x2="526.68" y1="207.92" y2="175.66" class="cls-72"/><polygon points="459.3 211.46 450.37 210.61 455.57 203.3 459.3 211.46" class="cls-73"/><polygon points="527.35 180.29 532.55 172.97 523.61 172.13 527.35 180.29" class="cls-73"/><line x1="450.37" x2="531.26" y1="235.4" y2="275.52" class="cls-36"/><line x1="456.16" x2="525.48" y1="238.27" y2="272.65" class="cls-72"/><polygon points="455.34 242.87 450.37 235.4 459.33 234.83 455.34 242.87" class="cls-73"/><polygon points="522.31 276.08 531.26 275.52 526.3 268.05 522.31 276.08" class="cls-73"/><line x1="448.95" x2="531.27" y1="296.1" y2="286.31" class="cls-36"/><line x1="455.37" x2="524.85" y1="295.33" y2="287.07" class="cls-72"/><polygon points="457.2 299.63 448.95 296.1 456.14 290.72 457.2 299.63" class="cls-73"/><polygon points="524.08 291.69 531.27 286.31 523.02 282.77 524.08 291.69" class="cls-73"/><line x1="450.37" x2="532.68" y1="224.59" y2="214.81" class="cls-36"/><line x1="456.78" x2="526.27" y1="223.83" y2="215.57" class="cls-72"/><polygon points="458.62 228.13 450.37 224.59 457.56 219.22 458.62 228.13" class="cls-73"/><polygon points="525.49 220.18 532.68 214.81 524.43 211.27 525.49 220.18" class="cls-73"/><line x1="450.37" x2="532.68" y1="150.55" y2="164.05" class="cls-36"/><line x1="456.74" x2="526.31" y1="151.59" y2="163" class="cls-72"/><polygon points="457.31 156.23 450.37 150.55 458.76 147.38 457.31 156.23" class="cls-73"/><polygon points="524.29 167.22 532.68 164.05 525.74 158.36 524.29 167.22" class="cls-73"/></svg>