<svg xmlns="http://www.w3.org/2000/svg" xmlns:xlink="http://www.w3.org/1999/xlink" width="633" height="351" version="1.1" viewBox="0 0 633 351"><title>multicloud_managed_cluster</title><desc>Created with Sketch.</desc><g id="Page-1" fill="none" fill-rule="evenodd" stroke="none" stroke-width="1"><g id="multicloud_managed_cluster" transform="translate(1.000000, -3.000000)"><text id="Boot-node" fill="#000" font-family="IBMPlexSans, IBM Plex Sans" font-size="11" font-weight="normal"><tspan x="47.106" y="39">Boot node</tspan></text><text id="OpenShift®-Container" fill="#000" font-family="IBMPlexSans, IBM Plex Sans" font-size="11" font-weight="normal"><tspan x="187.456" y="337">OpenShift® Container Platform 4.2 edge device profile</tspan> <tspan x="201.673" y="351">(Hosted separately in remote operation centers)</tspan></text><g id="Group" fill="#000" font-family="IBMPlexSans-Bold, IBM Plex Sans" font-size="12" font-weight="bold" transform="translate(163.020000, 0.890000)"><text id="E"><tspan x="0" y="12">E</tspan></text><text id="d"><tspan x="7.16" y="12">d</tspan></text><text id="g"><tspan x="14.46" y="12">g</tspan></text><text id="e-se"><tspan x="21.01" y="12">e se</tspan></text><text id="r"><tspan x="43.38" y="12">r</tspan></text><text id="v"><tspan x="48.31" y="12">v</tspan></text><text id="er-(IBM-Mu"><tspan x="54.67" y="12">er (IBM Mu</tspan></text><text id="l"><tspan x="115.98" y="12">l</tspan></text><text id="ticloud-Mana"><tspan x="119.55" y="12">ticloud Mana</tspan></text><text id="g"><tspan x="192.1" y="12">g</tspan></text><text id="er-mana"><tspan x="198.66" y="12">er mana</tspan></text><text id="g"><tspan x="244.62" y="12">g</tspan></text><text id="ed"><tspan x="251.17" y="12">ed</tspan></text><text id="-"><tspan x="265.21" y="12">-</tspan></text><text id="clu"><tspan x="270.16" y="12">clu</tspan></text><text id="s"><tspan x="287.16" y="12">s</tspan></text><text id="t"><tspan x="293.11" y="12">t</tspan></text><text id="er)"><tspan x="297.66" y="12">er)</tspan></text></g><text id="Master-node" fill="#000" font-family="IBMPlexSans, IBM Plex Sans" font-size="11" font-weight="normal"><tspan x="206.299" y="40">Master node</tspan></text><text id="Management-node" fill="#000" font-family="IBMPlexSans, IBM Plex Sans" font-size="11" font-weight="normal"><tspan x="353.058" y="39">Management node</tspan></text><g id="Group" fill="#000" font-family="IBMPlexSans, IBM Plex Sans" font-size="11" font-weight="normal" transform="translate(523.370000, 28.150000)"><text id="W"><tspan x="0" y="11">W</tspan></text><text id="or"><tspan x="9.64" y="11">or</tspan></text><text id="k"><tspan x="19.83" y="11">k</tspan></text><text id="er-node"><tspan x="25.44" y="11">er node</tspan></text></g><rect id="Rectangle" width="144" height="270" x="163" y="48.02" stroke="#A4A4A4" stroke-width="1.55"/><rect id="Rectangle" width="126" height="27" x="172" y="66.02" stroke="#6EA6FF" stroke-width="1.55"/><rect id="Rectangle" width="126" height="27" x="172" y="102.02" stroke="#BB8EFF" stroke-width="1.55"/><rect id="Rectangle" width="126" height="27" x="172" y="138.02" stroke="#BB8EFF" stroke-width="1.55"/><text id="Klusterlet" fill="#000" font-family="IBMPlexSans, IBM Plex Sans" font-size="10.82" font-weight="normal"><tspan x="211.256" y="84">Klusterlet</tspan></text><text id="Helm-(Tiller)" fill="#000" font-family="IBMPlexSans, IBM Plex Sans" font-size="10.82" font-weight="normal"><tspan x="206.182" y="120">Helm (Tiller)</tspan></text><text id="etcd" fill="#000" font-family="IBMPlexSans, IBM Plex Sans" font-size="10.82" font-weight="normal"><tspan x="224.326" y="155">etcd</tspan></text><rect id="Rectangle" width="126" height="27" x="172" y="174.02" stroke="#BB8EFF" stroke-width="1.55"/><rect id="Rectangle" width="126" height="27" x="172" y="210.02" stroke="#BB8EFF" stroke-width="1.55"/><rect id="Rectangle" width="126" height="27" x="172" y="246.02" stroke="#BB8EFF" stroke-width="1.55"/><rect id="Rectangle" width="126" height="27" x="172" y="282.02" stroke="#BB8EFF" stroke-width="1.55"/><text id="CoreDNS" fill="#000" font-family="IBMPlexSans, IBM Plex Sans" font-size="10.82" font-weight="normal"><tspan x="213.084" y="192">CoreDNS</tspan></text><g id="Group" fill="#000" font-family="IBMPlexSans, IBM Plex Sans" font-size="10.82" font-weight="normal" transform="translate(224.000000, 217.000000)"><text id="K"><tspan x="0" y="11">K</tspan></text><text id="ube"><tspan x="6.75" y="11">ube</tspan></text></g><g id="Group" fill="#000" font-family="IBMPlexSans, IBM Plex Sans" font-size="10.82" font-weight="normal" transform="translate(217.030000, 252.690000)"><text id="K"><tspan x="0" y="11">K</tspan></text><text id="ubelet"><tspan x="6.75" y="11">ubelet</tspan></text></g><text id="Calico" fill="#000" font-family="IBMPlexSans, IBM Plex Sans" font-size="10.82" font-weight="normal"><tspan x="220.209" y="300">Calico</tspan></text><rect id="Rectangle" width="144" height="270" x="325" y="48.02" stroke="#A4A4A4" stroke-width="1.55"/><rect id="Rectangle" width="126" height="27" x="334" y="210.02" stroke="#BB8EFF" stroke-width="1.55"/><rect id="Rectangle" width="126" height="27" x="334" y="246.02" stroke="#BB8EFF" stroke-width="1.55"/><polygon id="Path" stroke="#BB8EFF" stroke-width="1.55" points="460 310.02 334 309.02 334 282.02 460 282.02"/><g id="Group" fill="#000" font-family="IBMPlexSans, IBM Plex Sans" font-size="10.82" font-weight="normal" transform="translate(370.370000, 216.950000)"><text id="K"><tspan x="0" y="11">K</tspan></text><text id="ube-p"><tspan x="6.75" y="11">ube p</tspan></text><text id="r"><tspan x="33.94" y="11">r</tspan></text><text id="o"><tspan x="37.85" y="11">o</tspan></text><text id="xy"><tspan x="43.78" y="11">xy</tspan></text></g><g id="Group" fill="#000" font-family="IBMPlexSans, IBM Plex Sans" font-size="10.82" font-weight="normal" transform="translate(379.030000, 252.690000)"><text id="K"><tspan x="0" y="11">K</tspan></text><text id="ubelet"><tspan x="6.75" y="11">ubelet</tspan></text></g><text id="Calico-components" fill="#000" font-family="IBMPlexSans, IBM Plex Sans" font-size="10.82" font-weight="normal"><tspan x="351.174" y="300">Calico components</tspan></text><text id="Calico-components-Copy" fill="#000" font-family="IBMPlexSans, IBM Plex Sans" font-size="10.82" font-weight="normal"><tspan x="513.174" y="300">Calico components</tspan></text><rect id="Rectangle" width="144" height="270" x="487" y="48.02" stroke="#A4A4A4" stroke-width="1.55"/><rect id="Rectangle" width="126" height="45" x="496" y="156.02" stroke="#6EA6FF" stroke-width="1.55"/><rect id="Rectangle" width="126" height="27" x="496" y="210.02" stroke="#BB8EFF" stroke-width="1.55"/><polygon id="Path" stroke="#BB8EFF" stroke-width="1.55" points="622 273.64 496 273.02 496 246.02 622 246.02"/><rect id="Rectangle" width="126" height="27" x="496" y="282.02" stroke="#BB8EFF" stroke-width="1.55"/><text id="Application-containe" fill="#000" font-family="IBMPlexSans, IBM Plex Sans" font-size="10.82" font-weight="normal"><tspan x="505.097" y="183">Application containers</tspan></text><g id="Group" fill="#000" font-family="IBMPlexSans, IBM Plex Sans" font-size="10.82" font-weight="normal" transform="translate(532.370000, 216.950000)"><text id="K"><tspan x="0" y="11">K</tspan></text><text id="ube-p"><tspan x="6.75" y="11">ube p</tspan></text><text id="r"><tspan x="33.94" y="11">r</tspan></text><text id="o"><tspan x="37.85" y="11">o</tspan></text><text id="xy"><tspan x="43.78" y="11">xy</tspan></text></g><g id="Group" fill="#000" font-family="IBMPlexSans, IBM Plex Sans" font-size="10.82" font-weight="normal" transform="translate(541.030000, 252.690000)"><text id="K"><tspan x="0" y="11">K</tspan></text><text id="ubelet"><tspan x="6.75" y="11">ubelet</tspan></text></g><polygon id="Path" stroke="#A4A4A4" stroke-width="1.55" points="145 318.02 0 318.02 1 48.02 145 48.02"/><rect id="Rectangle" width="126" height="27" x="10" y="282.02" stroke="#BB8EFF" stroke-width="1.55"/><text id="Docker" fill="#000" font-family="IBMPlexSans, IBM Plex Sans" font-size="10.82" font-weight="normal"><tspan x="55.404" y="300">Docker</tspan></text></g></g></svg>