<?xml version="1.0" encoding="utf-8"?>
<!-- Generator: Adobe Illustrator 21.1.0, SVG Export Plug-In . SVG Version: 6.00 Build 0)  -->
<svg version="1.1" id="Layer_1" xmlns="http://www.w3.org/2000/svg" xmlns:xlink="http://www.w3.org/1999/xlink" x="0px" y="0px"
	 viewBox="0 0 948.8 545.2" style="enable-background:new 0 0 948.8 545.2;" xml:space="preserve">
<style type="text/css">
	.st0{fill:#E3F6FF;}
	.st1{fill:#0F62FE;}
	.st2{fill:#408BFC;}
	.st3{fill:#FFFFFF;}
	.st4{fill:#009C98;}
	.st5{fill:#051B75;}
	.st6{fill:none;stroke:#BEBEBE;stroke-width:2;stroke-linecap:square;}
	.st7{fill:#BEBEBE;}
	.st8{fill:#F4F4F4;}
	.st9{fill:none;}
	.st10{enable-background:new    ;}
	.st11{fill:#161616;}
	.st12{font-family:'AdobeMyungjoStd-Medium-KSCpc-EUC-H';}
	.st13{font-size:14px;}
	.st14{font-family:'IBMPlexSans';}
	.st15{font-size:16px;}
	.st16{font-family:'IBMPlexSans-Medium';}
	.st17{font-size:12px;}
</style>
<g id="Group-2" transform="translate(21.000000, 0.000000)">
	<circle id="Oval-Copy-3" class="st0" cx="39.9" cy="220.6" r="24"/>
	<g id="icon_x2F_policy-admin" transform="translate(8.000000, 8.000000)">
		<path id="Shape" class="st1" d="M26.9,215.6c2.8,0,5,2.2,5,5v6h-2v-6c0-1.7-1.3-3-3-3h-4c-1.7,0-3,1.3-3,3v6h-2v-6
			c0-2.8,2.2-5,5-5H26.9z M24.9,203.6c2.8,0,5,2.2,5,5s-2.2,5-5,5s-5-2.2-5-5S22.1,203.6,24.9,203.6z M43.5,203.6l1.4,1.4l-7.1,7.1
			l-3.9-3.9l1.4-1.4l2.5,2.5L43.5,203.6z M24.9,205.6c-1.7,0-3,1.3-3,3s1.3,3,3,3c1.7,0,3-1.3,3-3S26.6,205.6,24.9,205.6z"/>
	</g>
</g>
<g id="Group-2_1_" transform="translate(21.000000, 0.000000)">
	<circle id="Oval-Copy-3_1_" class="st0" cx="346.9" cy="478.6" r="24"/>
	<g id="icon_x2F_node-owner" transform="translate(8.000000, 8.000000)">
		<g id="Group-23" transform="translate(2.000000, 4.000000)">
			<path id="Shape_1_" class="st1" d="M331.9,469.6c2.8,0,5,2.2,5,5v6h-2v-6c0-1.7-1.3-3-3-3h-4c-1.7,0-3,1.3-3,3v6h-2v-6
				c0-2.8,2.2-5,5-5H331.9z M329.9,457.6c2.8,0,5,2.2,5,5s-2.2,5-5,5s-5-2.2-5-5S327.1,457.6,329.9,457.6z M342.9,465.6v2h-2v-2
				H342.9z M347.9,465.6v2h-2v-2H347.9z M329.9,459.6c-1.7,0-3,1.3-3,3s1.3,3,3,3s3-1.3,3-3S331.6,459.6,329.9,459.6z M350.9,462.6
				v2h-2v-2H350.9z M339.9,462.6v2h-2v-2H339.9z M347.9,457.6v7h-7v-7H347.9z M345.9,459.6h-3v3h3V459.6z M350.9,457.6v2h-2v-2
				H350.9z M339.9,457.6v2h-2v-2H339.9z M342.9,454.6v2h-2v-2H342.9z M347.9,454.6v2h-2v-2H347.9z"/>
		</g>
	</g>
</g>
<g id="Group-2_2_" transform="translate(27.000000, 0.000000)">
	<circle id="Oval-Copy-3_2_" class="st0" cx="241.9" cy="63.6" r="24"/>
	<g id="icon_x2F_cloud-installer" transform="translate(8.000000, 8.000000)">
		<path id="Shape_2_" class="st1" d="M228.9,58.6c2.8,0,5,2.2,5,5v6h-2v-6c0-1.7-1.3-3-3-3h-4c-1.7,0-3,1.3-3,3v6h-2v-6
			c0-2.8,2.2-5,5-5H228.9z M226.9,46.6c2.8,0,5,2.2,5,5s-2.2,5-5,5s-5-2.2-5-5S224.1,46.6,226.9,46.6z M241.9,44.5
			c2.1,0,3.9,1.4,4.5,3.4l0.1,0.2v0.1l0,0c1.3,0.5,2.2,1.7,2.3,3.1v0.2v0.2c0,2.1-1.6,3.7-3.7,3.9h-0.2h-6.3c-2.1,0-3.9-1.7-3.9-3.9
			c0-1.5,0.9-2.8,2.2-3.5l0.2-0.1V48c0.5-1.9,2.1-3.4,4.1-3.6h0.2L241.9,44.5z M226.9,48.6c-1.7,0-3,1.3-3,3s1.3,3,3,3s3-1.3,3-3
			S228.6,48.6,226.9,48.6z M241.9,46.5c-1.4,0-2.5,1-2.7,2.4v0.2v0.8l-0.8,0.2c-0.9,0.2-1.5,0.9-1.5,1.8c0,1,0.8,1.8,1.7,1.9h0.1
			h6.3c1,0,1.9-0.8,1.9-1.9c0-0.8-0.6-1.6-1.3-1.8h-0.1l-0.8-0.2v-0.8C244.5,47.6,243.3,46.5,241.9,46.5z"/>
	</g>
</g>
<g id="Group-2_3_" transform="translate(47.000000, 0.000000)">
	<circle id="Oval-Copy-3_3_" class="st0" cx="500.9" cy="63.6" r="24"/>
	<g id="icon_x2F_developer" transform="translate(8.000000, 8.000000)">
		<path id="Shape_3_" class="st1" d="M487.9,58.6c2.8,0,5,2.2,5,5v6h-2v-6c0-1.7-1.3-3-3-3h-4c-1.7,0-3,1.3-3,3v6h-2v-6
			c0-2.8,2.2-5,5-5H487.9z M485.9,46.6c2.8,0,5,2.2,5,5s-2.2,5-5,5s-5-2.2-5-5S483.1,46.6,485.9,46.6z M501,45.5l1.8,0.4l-2.4,10.4
			l-1.8-0.4L501,45.5z M495.8,47.2l1.4,1.2l-2.1,2.6l2.1,2.6l-1.4,1.2l-3.1-3.7L495.8,47.2z M505.6,47.2l3.1,3.7l-3.1,3.7l-1.4-1.2
			l2.1-2.6l-2.1-2.6L505.6,47.2z M485.9,48.6c-1.7,0-3,1.3-3,3s1.3,3,3,3s3-1.3,3-3S487.6,48.6,485.9,48.6z"/>
	</g>
</g>
<rect id="Rectangle-Copy" x="468.9" y="338.6" class="st2" width="304" height="157"/>
<rect id="Rectangle-Copy-9" x="484.9" y="398.6" class="st3" width="80" height="81"/>
<rect id="Rectangle-Copy-10" x="676.9" y="398.6" class="st3" width="80" height="81"/>
<rect id="Rectangle-Copy-11" x="724.9" y="142.6" class="st4" width="208" height="155"/>
<rect id="Rectangle-Copy-12" x="246.1" y="142.6" class="st5" width="439.2" height="155"/>
<path id="Line-3-Copy" class="st6" d="M403.2,480.1c0,0,22.9,0,65.7,0C426.1,480.1,403.2,480.1,403.2,480.1z"/>
<g id="Group-4-Copy" transform="translate(680.000000, 87.500000) scale(1, -1) translate(-680.000000, -87.500000) translate(565.000000, 48.000000)">
	<path id="Path-2-Copy-5" class="st7" d="M245.9-15.1l7,14h-6v65.5h-232v-2h230V-1.1h-6L245.9-15.1z"/>
</g>
<path id="Line-7" class="st7" d="M641.9,64.1v64h6l-7,14l-7-14h6v-64H641.9z"/>
<path id="Path-2-Copy-11" class="st7" d="M662.9,432.6l14,7l-14,7v-6h-98v-2h98V432.6z"/>
<g id="icon_x2F_device_x2F_16" transform="translate(685.000000, 339.000000)">
	<path id="Shape_4_" class="st8" d="M24.9,16.6c0.6,0,1,0.4,1,1c0,0.5-0.4,0.9-0.8,1l-0.5,1h3.3c1.1,0,2,0.9,2,2v5c0,1.1-0.9,2-2,2
		h-8c-1.1,0-2-0.9-2-2v-5c0-1.1,0.9-2,2-2h3.7l0.6-1.4c-0.2-0.1-0.3-0.3-0.3-0.5v-0.1C23.9,17,24.3,16.6,24.9,16.6z M27.9,20.6h-8
		c-0.5,0-0.9,0.4-1,0.9v0.1v5c0,0.5,0.4,0.9,0.9,1h0.1h8c0.5,0,0.9-0.4,1-0.9v-0.1v-5c0-0.5-0.4-0.9-0.9-1H27.9z M26.4,25.6
		c0.3,0,0.5,0.2,0.5,0.5c0,0.3-0.2,0.5-0.5,0.5h-5c-0.3,0-0.5-0.2-0.5-0.5c0-0.3,0.2-0.5,0.5-0.5H26.4z M21.4,21.6
		c0.8,0,1.5,0.7,1.5,1.5c0,0.8-0.7,1.5-1.5,1.5c-0.8,0-1.5-0.7-1.5-1.5C19.9,22.3,20.6,21.6,21.4,21.6z M26.4,21.6
		c0.8,0,1.5,0.7,1.5,1.5c0,0.8-0.7,1.5-1.5,1.5c-0.8,0-1.5-0.7-1.5-1.5C24.9,22.3,25.6,21.6,26.4,21.6z M21.4,22.6
		c-0.3,0-0.5,0.2-0.5,0.5c0,0.3,0.2,0.5,0.5,0.5c0.3,0,0.5-0.2,0.5-0.5C21.9,22.8,21.7,22.6,21.4,22.6z M26.4,22.6
		c-0.3,0-0.5,0.2-0.5,0.5c0,0.3,0.2,0.5,0.5,0.5c0.3,0,0.5-0.2,0.5-0.5C26.9,22.8,26.7,22.6,26.4,22.6z"/>
</g>
<g id="icon_x2F_cluster_x2F_16" transform="translate(606.000000, 339.000000)">
	<path id="Shape_5_" class="st8" d="M23.9,19.1c0.8,0,1.5-0.7,1.5-1.5c0-0.8-0.7-1.5-1.5-1.5c-0.8,0-1.5,0.7-1.5,1.5
		C22.4,18.4,23.1,19.1,23.9,19.1z M23.9,17.1c0.3,0,0.5,0.2,0.5,0.5c0,0.3-0.2,0.5-0.5,0.5c-0.3,0-0.5-0.2-0.5-0.5
		C23.4,17.3,23.6,17.1,23.9,17.1z M28.7,21.5c0.8,0,1.5-0.7,1.5-1.5c0-0.8-0.7-1.5-1.5-1.5c-0.8,0-1.5,0.7-1.5,1.5
		C27.2,20.8,27.9,21.5,28.7,21.5z M28.7,19.5c0.3,0,0.5,0.2,0.5,0.5c0,0.3-0.2,0.5-0.5,0.5c-0.3,0-0.5-0.2-0.5-0.5
		C28.2,19.7,28.4,19.5,28.7,19.5L28.7,19.5z M18.1,23.7c-0.8,0-1.5,0.7-1.5,1.5c0,0.8,0.7,1.5,1.5,1.5c0.8,0,1.5-0.7,1.5-1.5
		C19.6,24.4,19,23.7,18.1,23.7z M18.1,25.7c-0.3,0-0.5-0.2-0.5-0.5c0-0.3,0.2-0.5,0.5-0.5c0.3,0,0.5,0.2,0.5,0.5
		S18.4,25.7,18.1,25.7z M19.1,21.5c0.8,0,1.5-0.7,1.5-1.5c0-0.8-0.7-1.5-1.5-1.5s-1.5,0.7-1.5,1.5C17.6,20.8,18.3,21.5,19.1,21.5
		L19.1,21.5z M19.1,19.5c0.3,0,0.5,0.2,0.5,0.5c0,0.3-0.2,0.5-0.5,0.5c-0.2,0-0.5-0.2-0.5-0.5C18.6,19.7,18.8,19.5,19.1,19.5
		L19.1,19.5z M29.7,23.7c-0.8,0-1.5,0.7-1.5,1.5c0,0.8,0.7,1.5,1.5,1.5c0.8,0,1.5-0.7,1.5-1.5C31.2,24.4,30.5,23.7,29.7,23.7z
		 M29.7,25.7c-0.3,0-0.5-0.2-0.5-0.5c0-0.3,0.2-0.5,0.5-0.5c0.3,0,0.5,0.2,0.5,0.5S29.9,25.7,29.7,25.7z M26.3,27.6
		c-0.8,0-1.5,0.7-1.5,1.5c0,0.8,0.7,1.5,1.5,1.5c0.8,0,1.5-0.7,1.5-1.5C27.8,28.3,27.2,27.6,26.3,27.6L26.3,27.6z M26.3,29.6
		c-0.3,0-0.5-0.2-0.5-0.5c0-0.3,0.2-0.5,0.5-0.5c0.3,0,0.5,0.2,0.5,0.5c0,0.1-0.1,0.3-0.1,0.4C26.6,29.5,26.5,29.6,26.3,29.6z
		 M21.5,27.6c-0.8,0-1.5,0.7-1.5,1.5c0,0.8,0.7,1.5,1.5,1.5c0.8,0,1.5-0.7,1.5-1.5C23,28.3,22.3,27.6,21.5,27.6L21.5,27.6z
		 M21.5,29.6c-0.3,0-0.5-0.2-0.5-0.5c0-0.3,0.2-0.5,0.5-0.5c0.3,0,0.5,0.2,0.5,0.5C22,29.4,21.7,29.6,21.5,29.6z M26.9,23.6
		c0-1.7-1.3-3-3-3c-1.7,0-3,1.3-3,3c0,1.7,1.3,3,3,3C25.6,26.6,26.9,25.3,26.9,23.6z M23.9,25.6c-1.1,0-2-0.9-2-2c0-1.1,0.9-2,2-2
		s2,0.9,2,2c0,0.5-0.2,1-0.6,1.4C24.9,25.4,24.4,25.6,23.9,25.6z"/>
</g>
<path id="Line-Copy" class="st7" d="M231.7,215.1l14,7l-14,7v-6l-132.8,0.5h-1v-2h1l132.8-0.5V215.1z"/>
<path id="Path-4" class="st7" d="M425.1,297.6v141h45.8v-6l14,7l-14,7v-6h-47.8v-143H425.1z"/>
<path id="Path-5" class="st7" d="M292.9,297.6l7,14h-6v167.5h37.5v2h-39.5V311.6h-6L292.9,297.6z"/>
<path id="Line-6" class="st7" d="M456.9,62.6v66h6l-7,14l-7-14h6v-64H305.4v-2H456.9z"/>
<path id="Path-3" class="st7" d="M811.9,297.6v143h-41v6l-14-7l14-7v6h39v-141H811.9z"/>
<rect x="475.4" y="98.2" class="st9" width="143.7" height="15.6"/>
<text transform="matrix(1 0 0 1 491.1736 109.5362)" class="st10"><tspan x="0" y="0" class="st11 st12 st13">소프트웨어</tspan><tspan x="70" y="0" class="st11 st14 st13"> </tspan><tspan x="73.3" y="0" class="st11 st12 st13">개발자</tspan></text>
<rect x="196.4" y="98.2" class="st9" width="143.7" height="15.6"/>
<text transform="matrix(1 0 0 1 195.2892 108.5496)" class="st10"><tspan x="0" y="0" class="st11 st12 st13">클라우드</tspan><tspan x="56" y="0" class="st11 st14 st13"> </tspan><tspan x="59.3" y="0" class="st11 st12 st13">설치</tspan><tspan x="87.3" y="0" class="st11 st14 st13"> </tspan><tspan x="90.6" y="0" class="st11 st12 st13">프로그램</tspan></text>
<rect x="579.7" y="39.3" class="st9" width="232" height="15.6"/>
<text transform="matrix(1 0 0 1 631.6173 54.3387)" class="st10"><tspan x="0" y="0" class="st11 st12 st13">서비스</tspan><tspan x="42" y="0" class="st11 st14 st13"> </tspan><tspan x="45.3" y="0" class="st11 st12 st13">개발</tspan><tspan x="73.3" y="0" class="st11 st14 st13"> </tspan><tspan x="76.6" y="0" class="st11 st12 st13">및</tspan><tspan x="90.6" y="0" class="st11 st14 st13"> </tspan><tspan x="93.9" y="0" class="st11 st12 st13">공개</tspan></text>
<rect x="760.9" y="160.5" class="st9" width="162.3" height="15.6"/>
<text transform="matrix(1 0 0 1 760.8854 172.3941)" class="st10"><tspan x="0" y="0" class="st8 st12 st15">컨테이너</tspan><tspan x="64" y="0" class="st8 st16 st15"> </tspan><tspan x="67.8" y="0" class="st8 st12 st15">레지스트리</tspan></text>
<rect x="261.7" y="162.7" class="st9" width="236.1" height="15.6"/>
<text transform="matrix(1 0 0 1 261.7031 174.5877)" class="st10"><tspan x="0" y="0" class="st8 st12 st15">관리</tspan><tspan x="32" y="0" class="st8 st16 st15"> </tspan><tspan x="35.8" y="0" class="st8 st12 st15">허브</tspan></text>
<rect x="484.9" y="358.8" class="st9" width="95" height="15.6"/>
<text transform="matrix(1 0 0 1 484.8861 370.6695)" class="st10"><tspan x="0" y="0" class="st8 st12 st15">에지</tspan><tspan x="32" y="0" class="st8 st16 st15"> </tspan><tspan x="35.8" y="0" class="st8 st12 st15">노드</tspan></text>
<rect x="492.9" y="423.2" class="st9" width="64" height="43.6"/>
<rect x="684.9" y="423.2" class="st9" width="64" height="43.6"/>
<rect x="564.9" y="415.2" class="st9" width="98" height="14.7"/>
<text transform="matrix(1 0 0 1 597.814 425.5743)" class="st8 st12 st13">실행</text>
<rect x="640.9" y="357.8" class="st9" width="58.9" height="14.7"/>
<text transform="matrix(1 0 0 1 640.8857 366.648)" class="st10"><tspan x="0" y="0" class="st8 st12 st17">클러스터</tspan><tspan x="48" y="0" class="st8 st14 st17"> </tspan><tspan x="50.8" y="0" class="st8 st12 st17">또는</tspan></text>
<rect x="718.9" y="357.8" class="st9" width="44.5" height="14.7"/>
<text transform="matrix(1 0 0 1 718.8857 366.648)" class="st8 st12 st17">디바이스</text>
<rect x="322" y="513.2" class="st9" width="90.6" height="15.5"/>
<text transform="matrix(1 0 0 1 328.4895 523.6124)" class="st10"><tspan x="0" y="0" class="st11 st12 st13">노드</tspan><tspan x="28" y="0" class="st11 st14 st13"> </tspan><tspan x="31.3" y="0" class="st11 st12 st13">소유자</tspan></text>
<rect x="13.1" y="255.2" class="st9" width="94.5" height="15.5"/>
<text transform="matrix(1 0 0 1 37.0819 265.5445)" class="st11 st12 st13">관리자</text>
<g>
	<path class="st8" d="M752.9,160.1h-8c-0.6,0-1,0.4-1,1v11c0,0.6,0.4,1,1,1h8c0.6,0,1-0.4,1-1v-11
		C753.9,160.6,753.5,160.1,752.9,160.1z M752.9,161.1v3h-8v-3H752.9z M744.9,168.1v-3h8v3H744.9z M744.9,172.1v-3h8v3H744.9z"/>
	<circle class="st8" cx="746.4" cy="162.6" r="0.5"/>
	<circle class="st8" cx="746.4" cy="166.6" r="0.5"/>
	<circle class="st8" cx="746.4" cy="170.6" r="0.5"/>
	<rect id="_x3C_Transparent_Rectangle_x3E__616_" x="740.9" y="158.6" class="st9" width="16" height="16"/>
</g>
<text transform="matrix(1 0 0 1 133.7619 213.3614)"><tspan x="0" y="0" class="st11 st12 st13">배치</tspan><tspan x="28" y="0" class="st11 st14 st13"> </tspan><tspan x="31.3" y="0" class="st11 st12 st13">관리</tspan></text>
<text transform="matrix(1 0 0 1 322.1804 55.2633)"><tspan x="0" y="0" class="st11 st12 st13">관리</tspan><tspan x="28" y="0" class="st11 st14 st13"> </tspan><tspan x="31.3" y="0" class="st11 st12 st13">허브</tspan><tspan x="59.3" y="0" class="st11 st14 st13"> </tspan><tspan x="62.6" y="0" class="st11 st12 st13">설치</tspan></text>
<rect x="202.4" y="328.9" class="st9" width="75.5" height="118"/>
<text transform="matrix(1 0 0 1 202.3858 339.2553)"><tspan x="0" y="0" class="st11 st12 st13">관리</tspan><tspan x="28" y="0" class="st11 st14 st13"> </tspan><tspan x="31.3" y="0" class="st11 st12 st13">허브에</tspan><tspan x="73.3" y="0" class="st11 st14 st13"> </tspan><tspan x="0" y="16.8" class="st11 st12 st13">노드</tspan><tspan x="28" y="16.8" class="st11 st14 st13"> </tspan><tspan x="31.3" y="16.8" class="st11 st12 st13">등록</tspan></text>
<rect x="339.7" y="342.4" class="st9" width="75.9" height="46"/>
<text transform="matrix(1 0 0 1 339.6804 352.7553)"><tspan x="0" y="0" class="st11 st12 st13">서비스</tspan><tspan x="42" y="0" class="st11 st14 st13"> </tspan><tspan x="45.3" y="0" class="st11 st12 st13">배치</tspan><tspan x="73.3" y="0" class="st11 st14 st13"> </tspan><tspan x="0" y="16.8" class="st11 st12 st13">지시사항</tspan><tspan x="56" y="16.8" class="st11 st14 st13"> </tspan><tspan x="0" y="33.6" class="st11 st12 st13">가져오기</tspan></text>
<rect x="494.5" y="422.1" class="st9" width="60.6" height="29.2"/>
<text transform="matrix(1 0 0 1 510.792 432.4805)"><tspan x="0" y="0" class="st11 st12 st13">에지</tspan><tspan x="28" y="0" class="st11 st14 st13"> </tspan><tspan x="-14" y="16.8" class="st11 st12 st13">에이전트</tspan></text>
<rect x="682.4" y="423.5" class="st9" width="70.5" height="29.2"/>
<text transform="matrix(1 0 0 1 703.6359 433.8942)"><tspan x="0" y="0" class="st11 st12 st13">에지</tspan><tspan x="28" y="0" class="st11 st14 st13"> </tspan><tspan x="-7" y="16.8" class="st11 st12 st13">서비스</tspan></text>
<text transform="matrix(1 0 0 1 820.3284 366.3942)"><tspan x="0" y="0" class="st11 st12 st13">컨테이너</tspan><tspan x="56" y="0" class="st11 st14 st13">  </tspan><tspan x="0" y="16.8" class="st11 st12 st13">가져오기</tspan></text>
</svg>
