<?xml version="1.0" encoding="utf-8"?>
<!-- Generator: Adobe Illustrator 21.1.0, SVG Export Plug-In . SVG Version: 6.00 Build 0)  -->
<svg version="1.1" id="Layer_1" xmlns="http://www.w3.org/2000/svg" xmlns:xlink="http://www.w3.org/1999/xlink" x="0px" y="0px"
	 viewBox="0 0 964.8 842.2" style="enable-background:new 0 0 964.8 842.2;" xml:space="preserve">
<style type="text/css">
	.st0{fill:#408BFC;}
	.st1{fill:#FFFFFF;}
	.st2{fill:#8A3FFC;}
	.st3{fill:none;stroke:#00BAB6;stroke-width:2;stroke-dasharray:7;}
	.st4{fill:#E3F6FF;}
	.st5{fill:#0F62FE;}
	.st6{fill:#009C98;}
	.st7{fill:#BEBEBE;}
	.st8{fill:#051B75;}
	.st9{fill:none;}
	.st10{enable-background:new    ;}
	.st11{fill:#161616;}
	.st12{font-family:'IBMPlexSans';}
	.st13{font-size:14px;}
	.st14{font-family:'AdobeMyungjoStd-Medium-KSCpc-EUC-H';}
	.st15{fill:#F4F4F4;}
	.st16{font-size:16px;}
	.st17{font-family:'IBMPlexSans-Medium';}
</style>
<rect id="Rectangle-Copy-14" x="506.4" y="649.6" class="st0" width="370" height="180"/>
<rect id="Rectangle-Copy-9" x="522.4" y="732.6" class="st1" width="80" height="81"/>
<rect id="Rectangle-Copy-18_1_" x="775.4" y="707.6" class="st2" width="85" height="106"/>
<path id="Rectangle-Copy-17" class="st3" d="M531.4,44.6h357c22.1,0,40,17.9,40,40v222c0,22.1-17.9,40-40,40h-357
	c-22.1,0-40-17.9-40-40v-222C491.4,62.5,509.3,44.6,531.4,44.6z"/>
<path id="Rectangle-Copy-22" class="st3" d="M67.4,132.6h237c22.1,0,40,17.9,40,40v94c0,22.1-17.9,40-40,40h-237
	c-22.1,0-40-17.9-40-40v-94C27.4,150.5,45.3,132.6,67.4,132.6z"/>
<circle id="Oval-Copy-3" class="st4" cx="84.4" cy="192.6" r="24"/>
<path id="Shape" class="st5" d="M79.4,195.6c2.8,0,5,2.2,5,5v6h-2v-6c0-1.7-1.3-3-3-3h-4c-1.7,0-3,1.3-3,3v6h-2v-6c0-2.8,2.2-5,5-5
	H79.4z M77.4,183.6c2.8,0,5,2.2,5,5s-2.2,5-5,5c-2.8,0-5-2.2-5-5S74.6,183.6,77.4,183.6z M98.4,184.6v8h-2v-8H98.4z M93.4,181.6v11
	h-2v-11H93.4z M88.4,186.6v6h-2v-6H88.4z M77.4,185.6c-1.7,0-3,1.3-3,3s1.3,3,3,3c1.7,0,3-1.3,3-3S79.1,185.6,77.4,185.6z"/>
<circle id="Oval-Copy-3_1_" class="st4" cx="555.4" cy="100.6" r="24"/>
<path id="Shape_1_" class="st5" d="M550.4,103.6c2.8,0,5,2.2,5,5v6h-2v-6c0-1.7-1.3-3-3-3h-4c-1.7,0-3,1.3-3,3v6h-2v-6
	c0-2.8,2.2-5,5-5H550.4z M548.4,91.6c2.8,0,5,2.2,5,5s-2.2,5-5,5s-5-2.2-5-5S545.6,91.6,548.4,91.6z M563.5,90.5l1.8,0.4l-2.4,10.4
	l-1.8-0.4L563.5,90.5z M558.3,92.2l1.4,1.2l-2.1,2.6l2.1,2.6l-1.4,1.2l-3.1-3.7L558.3,92.2z M568.1,92.2l3.1,3.7l-3.1,3.7l-1.4-1.2
	l2.1-2.6l-2.1-2.6L568.1,92.2z M548.4,93.6c-1.7,0-3,1.3-3,3s1.3,3,3,3s3-1.3,3-3S550.1,93.6,548.4,93.6z"/>
<rect id="Rectangle-Copy-14_1_" x="566.4" y="434.6" class="st6" width="260" height="155"/>
<path id="Line-2-Copy-37" class="st7" d="M854.9,314.6v77.3h-357v75.7h-56.5v6l-14-7l14-7v6h54.5v-75.7h357v-75.3H854.9z"/>
<path id="Line-5-Copy-3" class="st7" d="M854.7,511.1v1l-0.5,123.5h6l-7.1,14l-6.9-14h6l0.4-122.5h-26.2v-2H854.7z"/>
<path id="Line-5-Copy-4" class="st7" d="M552.4,459.6l14,7l-14,7v-6h-55.5v-2h55.5V459.6z"/>
<rect id="Rectangle-Copy-18_2_" x="27.4" y="434.6" class="st8" width="400" height="155"/>
<rect id="Rectangle-Copy-16" x="331.4" y="491.6" class="st1" width="80" height="81"/>
<rect id="Rectangle-Copy-18_3_" x="699.4" y="76.6" class="st2" width="104" height="81"/>
<rect id="Rectangle-Copy-18_4_" x="811.4" y="208.6" class="st2" width="85" height="106"/>
<rect id="Rectangle-Copy-18_5_" x="523.4" y="208.6" class="st2" width="85" height="106"/>
<path id="Line-2-Copy-20" class="st7" d="M685.4,109.7l14,6.9l-14,7.1v-6l-92,0.4h-1v-2h1l92-0.4V109.7z"/>
<path id="Line-2-Copy-25" class="st7" d="M213.9,189.6l14,7l-14,7v-6h-93.5v-2h93.5V189.6z"/>
<path id="Line-2-Copy-27" class="st7" d="M509.4,213.6l14,7l-14,7v-6h-197v-2h197V213.6z"/>
<path id="Line-2-Copy-29" class="st7" d="M797.4,254.6l14,7l-14,7v-6h-189v-2h189V254.6z"/>
<rect x="120.4" y="175.4" class="st9" width="93.5" height="16.3"/>
<text transform="matrix(1 0 0 1 144.4811 189.8047)" class="st10"><tspan x="0" y="0" class="st11 st12 st13">1. </tspan><tspan x="15.5" y="0" class="st11 st14 st13">작성</tspan></text>
<rect x="602.3" y="92.2" class="st9" width="74.1" height="14.9"/>
<text transform="matrix(1 0 0 1 622.4954 108.5967)" class="st11 st14 st13">설치</text>
<rect x="656.8" y="367.3" class="st9" width="170.9" height="14.9"/>
<text transform="matrix(1 0 0 1 652.4677 377.6339)" class="st10"><tspan x="0" y="0" class="st11 st12 st13">4. </tspan><tspan x="15.5" y="0" class="st11 st14 st13">서비스</tspan><tspan x="57.5" y="0" class="st11 st12 st13"> </tspan><tspan x="60.8" y="0" class="st11 st14 st13">공개</tspan></text>
<rect x="331.4" y="525.3" class="st9" width="80" height="14.9"/>
<text transform="matrix(1 0 0 1 355.7969 535.6322)" class="st11 st12 st13">MMS</text>
<rect x="528.4" y="757.2" class="st9" width="65.8" height="37.9"/>
<rect x="775.4" y="749.2" class="st9" width="84.8" height="16.4"/>
<text transform="matrix(1 0 0 1 785.7751 768.5496)" class="st10"><tspan x="0" y="0" class="st15 st12 st13">AI </tspan><tspan x="17.9" y="0" class="st15 st14 st13">서비스</tspan></text>
<rect x="699.4" y="109.2" class="st9" width="104" height="14.9"/>
<text transform="matrix(1 0 0 1 728.7617 119.6148)" class="st15 st12 st13">Docker</text>
<rect x="811.3" y="250.2" class="st9" width="85" height="14.9"/>
<text transform="matrix(1 0 0 1 821.7606 260.5609)" class="st10"><tspan x="0" y="0" class="st15 st12 st13">AI </tspan><tspan x="17.9" y="0" class="st15 st14 st13">서비스</tspan></text>
<rect x="523.2" y="242.7" class="st9" width="85.2" height="34.7"/>
<rect x="43.4" y="454.7" class="st9" width="236.1" height="15.6"/>
<text transform="matrix(1 0 0 1 43.3857 466.5754)" class="st10"><tspan x="0" y="0" class="st15 st14 st16">관리</tspan><tspan x="32" y="0" class="st15 st17 st16"> </tspan><tspan x="35.8" y="0" class="st15 st14 st16">허브</tspan></text>
<rect x="522.4" y="669.8" class="st9" width="236.1" height="15.6"/>
<text transform="matrix(1 0 0 1 522.3857 681.6023)" class="st10"><tspan x="0" y="0" class="st15 st14 st16">에지</tspan><tspan x="32" y="0" class="st15 st17 st16"> </tspan><tspan x="35.8" y="0" class="st15 st14 st16">노드</tspan></text>
<rect x="60.4" y="104.8" class="st9" width="236.1" height="15.6"/>
<text transform="matrix(1 0 0 1 58.3774 121.9487)" class="st10"><tspan x="0" y="0" class="st11 st14 st16">데이터</tspan><tspan x="48" y="0" class="st11 st17 st16"> </tspan><tspan x="51.8" y="0" class="st11 st14 st16">과학자</tspan><tspan x="99.8" y="0" class="st11 st17 st16"> </tspan><tspan x="103.6" y="0" class="st11 st14 st16">환경</tspan></text>
<rect x="523.4" y="16.8" class="st9" width="236.1" height="15.6"/>
<text transform="matrix(1 0 0 1 523.3857 28.5994)" class="st10"><tspan x="0" y="0" class="st11 st14 st16">개발자</tspan><tspan x="48" y="0" class="st11 st17 st16"> </tspan><tspan x="51.8" y="0" class="st11 st14 st16">환경</tspan></text>
<rect id="Rectangle-Copy-18_6_" x="227.4" y="166.6" class="st2" width="85" height="120"/>
<rect x="229.5" y="189.3" class="st9" width="80.6" height="74.6"/>
<rect x="602.4" y="455.7" class="st9" width="162.3" height="15.6"/>
<text transform="matrix(1 0 0 1 602.3851 467.5736)" class="st10"><tspan x="0" y="0" class="st15 st14 st16">컨테이너</tspan><tspan x="64" y="0" class="st15 st17 st16"> </tspan><tspan x="67.8" y="0" class="st15 st14 st16">레지스트리</tspan></text>
<g>
	<path class="st15" d="M594.4,455.3h-8c-0.6,0-1,0.4-1,1v11c0,0.6,0.4,1,1,1h8c0.6,0,1-0.4,1-1v-11
		C595.4,455.7,595,455.3,594.4,455.3z M594.4,456.3v3h-8v-3H594.4z M586.4,463.3v-3h8v3H586.4z M586.4,467.3v-3h8v3H586.4z"/>
	<circle class="st15" cx="587.9" cy="457.8" r="0.5"/>
	<circle class="st15" cx="587.9" cy="461.8" r="0.5"/>
	<circle class="st15" cx="587.9" cy="465.8" r="0.5"/>
	<rect id="_x3C_Transparent_Rectangle_x3E__616_" x="582.4" y="453.8" class="st9" width="16" height="16"/>
</g>
<rect x="36.1" y="223.9" class="st9" width="91.3" height="13.8"/>
<text transform="matrix(1 0 0 1 36.0523 234.2484)"><tspan x="0" y="0" class="st11 st14 st13">데이터</tspan><tspan x="42" y="0" class="st11 st12 st13"> </tspan><tspan x="45.3" y="0" class="st11 st14 st13">과학자</tspan></text>
<rect x="232.7" y="176.9" class="st9" width="71.3" height="97"/>
<text transform="matrix(1 0 0 1 232.719 187.2484)"><tspan x="0" y="0" class="st15 st12 st13">AI/ML </tspan><tspan x="0" y="16.8" class="st15 st14 st13">애플리케이</tspan><tspan x="0" y="33.6" class="st15 st14 st13">션</tspan><tspan x="14" y="33.6" class="st15 st12 st13">(</tspan><tspan x="18.7" y="33.6" class="st15 st14 st13">모델</tspan><tspan x="46.7" y="33.6" class="st15 st12 st13"> </tspan><tspan x="0" y="50.4" class="st15 st14 st13">포함</tspan><tspan x="28" y="50.4" class="st15 st12 st13">)</tspan></text>
<rect x="359.7" y="178.2" class="st9" width="122.3" height="30.6"/>
<text transform="matrix(1 0 0 1 359.719 188.5837)"><tspan x="0" y="0" class="st11 st12 st13">2. </tspan><tspan x="15.5" y="0" class="st11 st14 st13">개발자와</tspan><tspan x="71.5" y="0" class="st11 st12 st13"> </tspan><tspan x="0" y="16.8" class="st11 st14 st13">애플리케이션</tspan><tspan x="84" y="16.8" class="st11 st12 st13"> </tspan><tspan x="87.3" y="16.8" class="st11 st14 st13">공유</tspan></text>
<rect x="517.1" y="132.9" class="st9" width="74.7" height="29.2"/>
<text transform="matrix(1 0 0 1 517.0521 143.2484)"><tspan x="0" y="0" class="st11 st14 st13">소프트웨어</tspan><tspan x="70" y="0" class="st11 st12 st13"> </tspan><tspan x="0" y="16.8" class="st11 st14 st13">개발자</tspan></text>
<rect x="531.1" y="237.6" class="st9" width="67" height="46"/>
<text transform="matrix(1 0 0 1 545.3929 247.9153)"><tspan x="0" y="0" class="st15 st12 st13">AI/ML </tspan><tspan x="-8.8" y="16.8" class="st15 st14 st13">애플리케</tspan><tspan x="5.2" y="33.6" class="st15 st14 st13">이션</tspan></text>
<rect x="637.4" y="225.2" class="st9" width="134.3" height="30.6"/>
<text transform="matrix(1 0 0 1 637.3855 235.5818)"><tspan x="0" y="0" class="st11 st12 st13">3. </tspan><tspan x="15.5" y="0" class="st11 st14 st13">서비스에</tspan><tspan x="71.5" y="0" class="st11 st12 st13"> </tspan><tspan x="0" y="16.8" class="st11 st14 st13">애플리케이션</tspan><tspan x="84" y="16.8" class="st11 st12 st13"> </tspan><tspan x="87.3" y="16.8" class="st11 st14 st13">패키징</tspan></text>
<rect x="859.7" y="562.3" class="st9" width="80.7" height="29.2"/>
<text transform="matrix(1 0 0 1 859.7185 572.6737)"><tspan x="0" y="0" class="st11 st12 st13">5. </tspan><tspan x="15.5" y="0" class="st11 st14 st13">컨테이너</tspan><tspan x="71.5" y="0" class="st11 st12 st13"> </tspan><tspan x="0" y="16.8" class="st11 st14 st13">가져오기</tspan></text>
<rect x="530.3" y="753.8" class="st9" width="64.6" height="29.2"/>
<text transform="matrix(1 0 0 1 548.6082 764.1464)"><tspan x="0" y="0" class="st11 st14 st13">에지</tspan><tspan x="28" y="0" class="st11 st12 st13"> </tspan><tspan x="-14" y="16.8" class="st11 st14 st13">에이전트</tspan></text>
</svg>
