<?xml version="1.0" encoding="utf-8"?>
<!-- Generator: Adobe Illustrator 21.1.0, SVG Export Plug-In . SVG Version: 6.00 Build 0)  -->
<svg version="1.1" id="Layer_1" xmlns="http://www.w3.org/2000/svg" xmlns:xlink="http://www.w3.org/1999/xlink" x="0px" y="0px"
	 viewBox="0 0 1048.8 542.2" style="enable-background:new 0 0 1048.8 542.2;" xml:space="preserve">
<style type="text/css">
	.st0{fill:#BEBEBE;}
	.st1{fill:#E3F6FF;}
	.st2{fill:#0F62FE;}
	.st3{fill:#009C98;}
	.st4{fill:#408BFC;}
	.st5{fill:#F4F4F4;}
	.st6{fill:#FFFFFF;}
	.st7{fill:#DCDCDC;}
	.st8{fill:none;stroke:#BEBEBE;stroke-width:2;}
	.st9{fill:#051B75;}
	.st10{fill:none;}
	.st11{fill:#161616;}
	.st12{font-family:'IBMPlexSans';}
	.st13{font-size:14px;}
	.st14{enable-background:new    ;}
	.st15{font-family:'AdobeMyungjoStd-Medium-KSCpc-EUC-H';}
	.st16{font-size:16px;}
	.st17{font-family:'IBMPlexSans-Medium';}
	.st18{font-size:12px;}
</style>
<path id="Line-4" class="st0" d="M39.9,73.9v256.2h362.5v-147h-6l7-14l7,14h-6v149H37.9V73.9H39.9z"/>
<path id="Line-4-Copy-2" class="st0" d="M845.9,73.9v59.8h-44.5v6l-14-7l14-7v6h42.5V73.9H845.9z"/>
<circle id="Oval-Copy-3" class="st1" cx="845.4" cy="39.1" r="24"/>
<path id="Shape" class="st2" d="M840.4,42.1c2.8,0,5,2.2,5,5v6h-2v-6c0-1.7-1.3-3-3-3h-4c-1.7,0-3,1.3-3,3v6h-2v-6c0-2.8,2.2-5,5-5
	H840.4z M838.4,30.1c2.8,0,5,2.2,5,5s-2.2,5-5,5s-5-2.2-5-5S835.6,30.1,838.4,30.1z M857,30.1l1.4,1.4l-7.1,7.1l-3.9-3.9l1.4-1.4
	l2.5,2.5L857,30.1z M838.4,32.1c-1.7,0-3,1.3-3,3s1.3,3,3,3s3-1.3,3-3S840.1,32.1,838.4,32.1z"/>
<circle id="Oval-Copy-3_1_" class="st1" cx="38.4" cy="39.1" r="24"/>
<path id="Shape_1_" class="st2" d="M33.4,42.1c2.8,0,5,2.2,5,5v6h-2v-6c0-1.7-1.3-3-3-3h-4c-1.7,0-3,1.3-3,3v6h-2v-6
	c0-2.8,2.2-5,5-5H33.4z M31.4,30.1c2.8,0,5,2.2,5,5s-2.2,5-5,5s-5-2.2-5-5S28.6,30.1,31.4,30.1z M46.5,29l1.8,0.4l-2.4,10.4
	l-1.8-0.4L46.5,29z M41.3,30.7l1.4,1.2l-2.1,2.6l2.1,2.6l-1.4,1l-3.1-3.7L41.3,30.7z M51.1,30.7l3.1,3.7l-3.1,3.7l-1.4-1.2l2.1-2.6
	l-2.1-2.6L51.1,30.7z M31.4,32.1c-1.7,0-3,1.3-3,3s1.3,3,3,3s3-1.3,3-3S33.1,32.1,31.4,32.1z"/>
<rect id="Rectangle-Copy-14" x="165.4" y="356.1" class="st3" width="250" height="172"/>
<rect id="Rectangle-Copy-14_1_" x="598.4" y="356.1" class="st4" width="318" height="156"/>
<path id="Shape_2_" class="st5" d="M623.4,377.1c0.6,0,1,0.4,1,1c0,0.5-0.4,0.9-0.8,1l-0.4,1h3.3c1.1,0,2,0.9,2,2v5c0,1.1-0.9,2-2,2
	h-8c-1.1,0-2-0.9-2-2v-5c0-1.1,0.9-2,2-2h3.7l0.6-1.4c-0.1-0.1-0.2-0.3-0.2-0.5v-0.1C622.4,377.5,622.8,377.1,623.4,377.1z
	 M626.4,381.1h-8c-0.5,0-0.9,0.4-1,0.9v0.1v5c0,0.5,0.4,0.9,0.9,1h0.1h8c0.5,0,0.9-0.4,1-0.9v-0.1v-5
	C627.4,381.6,627,381.2,626.4,381.1L626.4,381.1z M624.9,386.1c0.3,0,0.5,0.2,0.5,0.5s-0.2,0.5-0.5,0.5h-5c-0.3,0-0.5-0.2-0.5-0.5
	s0.2-0.5,0.5-0.5H624.9z M619.9,382.1c0.8,0,1.5,0.7,1.5,1.5s-0.7,1.5-1.5,1.5s-1.5-0.7-1.5-1.5S619.1,382.1,619.9,382.1z
	 M624.9,382.1c0.8,0,1.5,0.7,1.5,1.5s-0.7,1.5-1.5,1.5s-1.5-0.7-1.5-1.5S624.1,382.1,624.9,382.1z M619.9,383.1
	c-0.3,0-0.5,0.2-0.5,0.5s0.2,0.5,0.5,0.5s0.5-0.2,0.5-0.5S620.2,383.1,619.9,383.1z M624.9,383.1c-0.3,0-0.5,0.2-0.5,0.5
	s0.2,0.5,0.5,0.5s0.5-0.2,0.5-0.5S625.2,383.1,624.9,383.1z"/>
<rect id="Rectangle-Copy-16" x="614.4" y="415.1" class="st6" width="80" height="81"/>
<rect id="Rectangle-Copy-16_1_" x="820.4" y="415.1" class="st6" width="80" height="81"/>
<path id="Line-2-Copy-24" class="st0" d="M806.4,448.1l14,7l-14,7v-6h-112v-2h112V448.1z"/>
<circle id="Oval-Copy-3_2_" class="st7" cx="38.4" cy="100.1" r="13"/>
<circle id="Oval-Copy-3_3_" class="st7" cx="38.4" cy="172.1" r="13"/>
<circle id="Oval-Copy-3_4_" class="st7" cx="38.4" cy="260.1" r="13"/>
<circle id="Oval-Copy-3_5_" class="st1" cx="751.4" cy="246.1" r="24"/>
<path id="Shape_3_" class="st2" d="M746.4,249.1c2.8,0,5,2.2,5,5v6h-2v-6c0-1.7-1.3-3-3-3h-4c-1.7,0-3,1.3-3,3v6h-2v-6
	c0-2.8,2.2-5,5-5H746.4z M744.4,237.1c2.8,0,5,2.2,5,5s-2.2,5-5,5s-5-2.2-5-5S741.6,237.1,744.4,237.1z M757.4,245.1v2h-2v-2H757.4z
	 M762.4,245.1v2h-2v-2H762.4z M744.4,239.1c-1.7,0-3,1.3-3,3s1.3,3,3,3s3-1.3,3-3S746.1,239.1,744.4,239.1z M765.4,242.1v2h-2v-2
	H765.4z M754.4,242.1v2h-2v-2H754.4z M762.4,237.1v7h-7v-7H762.4z M760.4,239.1h-3v3h3V239.1z M765.4,237.1v2h-2v-2H765.4z
	 M754.4,237.1v2h-2v-2H754.4z M757.4,234.1v2h-2v-2H757.4z M762.4,234.1v2h-2v-2H762.4z"/>
<path id="Line-8" class="st0" d="M39.9,329.6v104h111.5v-6l14,7l-14,7v-6H37.9v-106H39.9z"/>
<path id="Path-8" class="st0" d="M600.4,462.1l14,7l-14,7v-6h-185v-2h185V462.1z"/>
<path id="Path-7" class="st0" d="M580.4,169.1v270.5h20v-6l14,7l-14,7v-6h-22V169.1H580.4z"/>
<path id="Path-9" class="st0" d="M750.4,169.1l7.1,14h-6l0.2,28.4h-2l-0.2-28.4h-6L750.4,169.1z"/>
<line id="Path-9-Copy" class="st8" x1="750.7" y1="356.1" x2="750.7" y2="280.1"/>
<rect id="Rectangle-Copy-50" x="388.4" y="14.1" class="st9" width="400" height="155"/>
<rect id="Rectangle-Copy-16_2_" x="692.4" y="71.1" class="st6" width="80" height="81"/>
<rect id="Rectangle-Copy-16_3_" x="596.4" y="71.1" class="st6" width="80" height="81"/>
<rect id="Rectangle-Copy-16_4_" x="500.4" y="71.1" class="st6" width="80" height="81"/>
<rect id="Rectangle-Copy-16_5_" x="404.4" y="71.1" class="st6" width="80" height="81"/>
<rect x="28.3" y="93.7" class="st10" width="20" height="12.2"/>
<text transform="matrix(1 0 0 1 33.8189 104.1172)" class="st11 st12 st13">A</text>
<rect x="28.3" y="165.7" class="st10" width="20" height="13.4"/>
<text transform="matrix(1 0 0 1 33.7349 176.1221)" class="st11 st12 st13">B</text>
<rect x="29.6" y="253.8" class="st10" width="17.5" height="13.4"/>
<text transform="matrix(1 0 0 1 33.959 264.1313)" class="st11 st12 st13">C</text>
<rect x="415.8" y="444.7" class="st10" width="163" height="21"/>
<text transform="matrix(1 0 0 1 437.8608 455.1133)" class="st14"><tspan x="0" y="0" class="st11 st12 st13">6. </tspan><tspan x="15.5" y="0" class="st11 st15 st13">컨테이너</tspan><tspan x="71.5" y="0" class="st11 st12 st13"> </tspan><tspan x="74.8" y="0" class="st11 st15 st13">가져오기</tspan></text>
<rect x="787.4" y="239.7" class="st10" width="100" height="15.4"/>
<text transform="matrix(1 0 0 1 787.4062 250.1026)" class="st14"><tspan x="0" y="0" class="st11 st15 st13">노드</tspan><tspan x="28" y="0" class="st11 st12 st13"> </tspan><tspan x="31.3" y="0" class="st11 st15 st13">소유자</tspan></text>
<rect x="877.4" y="32.7" class="st10" width="100" height="15.4"/>
<text transform="matrix(1 0 0 1 877.4133 43.1145)" class="st11 st15 st13">관리자</text>
<rect x="404.4" y="34.3" class="st10" width="236.1" height="15.6"/>
<text transform="matrix(1 0 0 1 404.3836 46.149)" class="st14"><tspan x="0" y="0" class="st5 st15 st16">관리</tspan><tspan x="32" y="0" class="st5 st17 st16"> </tspan><tspan x="35.8" y="0" class="st5 st15 st16">허브</tspan></text>
<rect x="636.4" y="376.3" class="st10" width="236.1" height="15.6"/>
<text transform="matrix(1 0 0 1 636.3835 388.1695)" class="st14"><tspan x="0" y="0" class="st5 st15 st16">에지</tspan><tspan x="32" y="0" class="st5 st17 st16"> </tspan><tspan x="35.8" y="0" class="st5 st15 st16">노드</tspan></text>
<rect x="692.3" y="104.7" class="st10" width="80" height="14.9"/>
<text transform="matrix(1 0 0 1 716.7036 115.0918)" class="st11 st12 st13">MMS</text>
<rect x="820.4" y="439.8" class="st10" width="80" height="35.7"/>
<rect x="694.7" y="430.7" class="st10" width="111.2" height="13.7"/>
<text transform="matrix(1 0 0 1 726.2264 441.1199)" class="st14"><tspan x="0" y="0" class="st5 st12 st13">7. </tspan><tspan x="15.5" y="0" class="st5 st15 st13">실행</tspan></text>
<rect x="596.3" y="95" class="st10" width="80" height="36.4"/>
<rect x="500.3" y="104.7" class="st10" width="80" height="14.9"/>
<text transform="matrix(1 0 0 1 509.374 115.0918)" class="st11 st12 st13">Exchange</text>
<rect x="404.3" y="104.7" class="st10" width="80" height="14.9"/>
<text transform="matrix(1 0 0 1 425.3648 115.0918)" class="st11 st12 st13">Agbot</text>
<rect x="59.4" y="93.7" class="st10" width="203" height="15.7"/>
<text transform="matrix(1 0 0 1 59.3834 104.1178)" class="st14"><tspan x="0" y="0" class="st11 st15 st13">개발자</tspan><tspan x="42" y="0" class="st11 st12 st13"> </tspan><tspan x="45.3" y="0" class="st11 st15 st13">인증</tspan><tspan x="73.3" y="0" class="st11 st12 st13"> </tspan><tspan x="76.6" y="0" class="st11 st15 st13">정보</tspan><tspan x="104.6" y="0" class="st11 st12 st13"> </tspan><tspan x="107.9" y="0" class="st11 st15 st13">작성</tspan></text>
<rect x="77.4" y="32.7" class="st10" width="172.6" height="15.7"/>
<text transform="matrix(1 0 0 1 77.3923 43.1025)" class="st14"><tspan x="0" y="0" class="st11 st15 st13">소프트웨어</tspan><tspan x="70" y="0" class="st11 st12 st13"> </tspan><tspan x="73.3" y="0" class="st11 st15 st13">개발자</tspan></text>
<rect x="59.4" y="165.7" class="st10" width="203" height="15.7"/>
<text transform="matrix(1 0 0 1 59.3834 176.0968)" class="st14"><tspan x="0" y="0" class="st11 st15 st13">에지</tspan><tspan x="28" y="0" class="st11 st12 st13"> </tspan><tspan x="31.3" y="0" class="st11 st15 st13">서비스</tspan><tspan x="73.3" y="0" class="st11 st12 st13"> </tspan><tspan x="76.6" y="0" class="st11 st15 st13">개발</tspan></text>
<rect x="59.4" y="253.7" class="st10" width="293.1" height="15.7"/>
<text transform="matrix(1 0 0 1 59.3834 264.1196)" class="st14"><tspan x="0" y="0" class="st11 st15 st13">관리</tspan><tspan x="28" y="0" class="st11 st12 st13"> </tspan><tspan x="31.3" y="0" class="st11 st15 st13">허브에</tspan><tspan x="73.3" y="0" class="st11 st12 st13"> </tspan><tspan x="76.6" y="0" class="st11 st15 st13">서명</tspan><tspan x="104.6" y="0" class="st11 st12 st13"> </tspan><tspan x="107.9" y="0" class="st11 st15 st13">및</tspan><tspan x="121.9" y="0" class="st11 st12 st13"> </tspan><tspan x="125.2" y="0" class="st11 st15 st13">공개</tspan></text>
<rect x="201.4" y="374" class="st10" width="162.3" height="15.6"/>
<text transform="matrix(1 0 0 1 201.3831 385.8477)" class="st14"><tspan x="0" y="0" class="st5 st15 st16">컨테이너</tspan><tspan x="64" y="0" class="st5 st17 st16"> </tspan><tspan x="67.8" y="0" class="st5 st15 st16">레지스트리</tspan></text>
<g>
	<path class="st5" d="M193.4,373.6h-8c-0.6,0-1,0.4-1,1v11c0,0.6,0.4,1,1,1h8c0.6,0,1-0.4,1-1v-11C194.4,374,194,373.6,193.4,373.6z
		 M193.4,374.6v3h-8v-3H193.4z M185.4,381.6v-3h8v3H185.4z M185.4,385.6v-3h8v3H185.4z"/>
	<circle class="st5" cx="186.9" cy="376.1" r="0.5"/>
	<circle class="st5" cx="186.9" cy="380.1" r="0.5"/>
	<circle class="st5" cx="186.9" cy="384.1" r="0.5"/>
	<rect id="_x3C_Transparent_Rectangle_x3E__616_" x="181.4" y="372.1" class="st10" width="16" height="16"/>
</g>
<rect x="62.9" y="112.9" class="st10" width="203" height="42.5"/>
<text transform="matrix(1 0 0 1 62.8834 121.7759)"><tspan x="0" y="0" class="st11 st12 st18">• </tspan><tspan x="7.6" y="0" class="st11 st15 st18">사용자</tspan><tspan x="43.6" y="0" class="st11 st12 st18"> </tspan><tspan x="46.4" y="0" class="st11 st15 st18">계정</tspan><tspan x="70.4" y="0" class="st11 st12 st18"> </tspan><tspan x="73.2" y="0" class="st11 st15 st18">작성</tspan><tspan x="0" y="14.4" class="st11 st12 st18">• </tspan><tspan x="7.6" y="14.4" class="st11 st15 st18">서명</tspan><tspan x="31.6" y="14.4" class="st11 st12 st18"> </tspan><tspan x="34.4" y="14.4" class="st11 st15 st18">키</tspan><tspan x="46.4" y="14.4" class="st11 st12 st18"> </tspan><tspan x="49.2" y="14.4" class="st11 st15 st18">쌍</tspan><tspan x="61.2" y="14.4" class="st11 st12 st18"> </tspan><tspan x="64.1" y="14.4" class="st11 st15 st18">작성</tspan><tspan x="88.1" y="14.4" class="st11 st12 st18">(C</tspan><tspan x="99.6" y="14.4" class="st11 st15 st18">단계에서</tspan><tspan x="147.6" y="14.4" class="st11 st12 st18"> </tspan><tspan x="150.4" y="14.4" class="st11 st15 st18">사용됨</tspan><tspan x="186.4" y="14.4" class="st11 st12 st18">)</tspan></text>
<rect x="62.9" y="184.9" class="st10" width="253.5" height="57"/>
<text transform="matrix(1 0 0 1 62.8834 193.7759)"><tspan x="0" y="0" class="st11 st12 st18">• </tspan><tspan x="7.6" y="0" class="st11 st15 st18">애플리케이션</tspan><tspan x="79.6" y="0" class="st11 st12 st18"> </tspan><tspan x="82.4" y="0" class="st11 st15 st18">도커화</tspan><tspan x="0" y="14.4" class="st11 st12 st18">• </tspan><tspan x="7.6" y="14.4" class="st11 st15 st18">프로덕션</tspan><tspan x="55.6" y="14.4" class="st11 st12 st18"> </tspan><tspan x="58.4" y="14.4" class="st11 st15 st18">환경</tspan><tspan x="82.4" y="14.4" class="st11 st12 st18"> </tspan><tspan x="85.2" y="14.4" class="st11 st15 st18">테스트</tspan><tspan x="121.2" y="14.4" class="st11 st12 st18"> </tspan><tspan x="124.1" y="14.4" class="st11 st15 st18">및</tspan><tspan x="136.1" y="14.4" class="st11 st12 st18"> </tspan><tspan x="138.9" y="14.4" class="st11 st15 st18">시뮬레이션</tspan><tspan x="0" y="28.8" class="st11 st12 st18">• Open Horizon </tspan><tspan x="83.8" y="28.8" class="st11 st15 st18">메타데이터</tspan><tspan x="143.8" y="28.8" class="st11 st12 st18"> </tspan><tspan x="146.7" y="28.8" class="st11 st15 st18">파일</tspan><tspan x="170.7" y="28.8" class="st11 st12 st18"> </tspan><tspan x="173.5" y="28.8" class="st11 st15 st18">작성</tspan></text>
<rect x="63.9" y="273.4" class="st10" width="255" height="26.2"/>
<text transform="matrix(1 0 0 1 63.8834 282.2758)"><tspan x="0" y="0" class="st11 st12 st18">• </tspan><tspan x="7.6" y="0" class="st11 st15 st18">컨테이너</tspan><tspan x="55.6" y="0" class="st11 st12 st18"> </tspan><tspan x="58.4" y="0" class="st11 st15 st18">푸시</tspan><tspan x="82.4" y="0" class="st11 st12 st18">, </tspan><tspan x="88.5" y="0" class="st11 st15 st18">서명</tspan><tspan x="112.5" y="0" class="st11 st12 st18"> </tspan><tspan x="115.3" y="0" class="st11 st15 st18">및</tspan><tspan x="127.3" y="0" class="st11 st12 st18"> </tspan><tspan x="130.2" y="0" class="st11 st15 st18">공개</tspan><tspan x="0" y="14.4" class="st11 st12 st18">• </tspan><tspan x="7.6" y="14.4" class="st11 st15 st18">서비스</tspan><tspan x="43.6" y="14.4" class="st11 st12 st18"> </tspan><tspan x="46.4" y="14.4" class="st11 st15 st18">정책</tspan><tspan x="70.4" y="14.4" class="st11 st12 st18"> </tspan><tspan x="73.2" y="14.4" class="st11 st15 st18">제한조건</tspan><tspan x="121.2" y="14.4" class="st11 st12 st18"> </tspan><tspan x="124.1" y="14.4" class="st11 st15 st18">추가</tspan></text>
<rect x="46.9" y="358.9" class="st10" width="103.5" height="58.5"/>
<text transform="matrix(1 0 0 1 46.8834 369.2553)"><tspan x="0" y="0" class="st11 st12 st13">1. </tspan><tspan x="15.5" y="0" class="st11 st15 st13">컨테이너</tspan><tspan x="71.5" y="0" class="st11 st12 st13"> </tspan><tspan x="74.8" y="0" class="st11 st15 st13">푸시</tspan></text>
<rect x="416.4" y="233.9" class="st10" width="144" height="71.5"/>
<text transform="matrix(1 0 0 1 416.3834 244.2558)"><tspan x="0" y="0" class="st11 st12 st13">2. </tspan><tspan x="15.5" y="0" class="st11 st15 st13">관리</tspan><tspan x="43.5" y="0" class="st11 st12 st13"> </tspan><tspan x="46.8" y="0" class="st11 st15 st13">허브에</tspan><tspan x="88.8" y="0" class="st11 st12 st13"> </tspan><tspan x="92.1" y="0" class="st11 st15 st13">서비스</tspan><tspan x="134.1" y="0" class="st11 st12 st13"> </tspan><tspan x="0" y="16.8" class="st11 st15 st13">메타데이터</tspan><tspan x="70" y="16.8" class="st11 st12 st13"> </tspan><tspan x="73.3" y="16.8" class="st11 st15 st13">공개</tspan></text>
<rect x="613.4" y="97.6" class="st10" width="47" height="29.2"/>
<text transform="matrix(1 0 0 1 613.3834 107.9225)"><tspan x="0" y="0" class="st11 st15 st13">시크릿</tspan><tspan x="42" y="0" class="st11 st12 st13"> </tspan><tspan x="0" y="16.8" class="st11 st15 st13">관리자</tspan></text>
<rect x="596.9" y="231.4" class="st10" width="104.5" height="57.5"/>
<text transform="matrix(1 0 0 1 596.8834 241.7558)"><tspan x="0" y="0" class="st11 st12 st13">5. </tspan><tspan x="15.5" y="0" class="st11 st15 st13">서비스</tspan><tspan x="57.5" y="0" class="st11 st12 st13"> </tspan><tspan x="60.8" y="0" class="st11 st15 st13">배치</tspan></text>
<rect x="868.9" y="67.9" class="st10" width="145" height="72"/>
<text transform="matrix(1 0 0 1 868.8834 78.2558)"><tspan x="0" y="0" class="st11 st12 st13">3. </tspan><tspan x="15.5" y="0" class="st11 st15 st13">서비스를</tspan><tspan x="71.5" y="0" class="st11 st12 st13"> </tspan><tspan x="74.8" y="0" class="st11 st15 st13">올바른</tspan><tspan x="116.8" y="0" class="st11 st12 st13"> </tspan><tspan x="0" y="16.8" class="st11 st15 st13">에지</tspan><tspan x="28" y="16.8" class="st11 st12 st13"> </tspan><tspan x="31.3" y="16.8" class="st11 st15 st13">노드에</tspan><tspan x="73.3" y="16.8" class="st11 st12 st13"> </tspan><tspan x="76.6" y="16.8" class="st11 st15 st13">배치할</tspan><tspan x="118.6" y="16.8" class="st11 st12 st13"> </tspan><tspan x="0" y="33.6" class="st11 st15 st13">패턴</tspan><tspan x="28" y="33.6" class="st11 st12 st13"> </tspan><tspan x="31.3" y="33.6" class="st11 st15 st13">또는</tspan><tspan x="59.3" y="33.6" class="st11 st12 st13"> </tspan><tspan x="62.6" y="33.6" class="st11 st15 st13">정책</tspan><tspan x="90.6" y="33.6" class="st11 st12 st13"> </tspan><tspan x="93.9" y="33.6" class="st11 st15 st13">작성</tspan></text>
<rect x="765.9" y="301.9" class="st10" width="99.2" height="30.6"/>
<text transform="matrix(1 0 0 1 765.8834 312.2553)"><tspan x="0" y="0" class="st11 st12 st13">4. </tspan><tspan x="15.5" y="0" class="st11 st15 st13">패턴</tspan><tspan x="43.5" y="0" class="st11 st12 st13"> </tspan><tspan x="46.8" y="0" class="st11 st15 st13">또는</tspan><tspan x="74.8" y="0" class="st11 st12 st13"> </tspan><tspan x="0" y="16.8" class="st11 st15 st13">노드</tspan><tspan x="28" y="16.8" class="st11 st12 st13"> </tspan><tspan x="31.3" y="16.8" class="st11 st15 st13">정책</tspan><tspan x="59.3" y="16.8" class="st11 st12 st13"> </tspan><tspan x="62.6" y="16.8" class="st11 st15 st13">등록</tspan></text>
<rect x="625.7" y="440.1" class="st10" width="60" height="29.2"/>
<text transform="matrix(1 0 0 1 625.7167 450.422)"><tspan x="0" y="0" class="st11 st15 st13">에지</tspan><tspan x="28" y="0" class="st11 st12 st13"> </tspan><tspan x="0" y="16.8" class="st11 st15 st13">에이전트</tspan></text>
<rect x="834.2" y="439.4" class="st10" width="47.5" height="29.2"/>
<text transform="matrix(1 0 0 1 834.2167 449.7553)"><tspan x="0" y="0" class="st11 st15 st13">에지</tspan><tspan x="28" y="0" class="st11 st12 st13"> </tspan><tspan x="0" y="16.8" class="st11 st15 st13">서비스</tspan></text>
</svg>
