<?xml version="1.0" encoding="utf-8"?>
<!-- Generator: Adobe Illustrator 21.1.0, SVG Export Plug-In . SVG Version: 6.00 Build 0)  -->
<svg version="1.1" id="Layer_1" xmlns="http://www.w3.org/2000/svg" xmlns:xlink="http://www.w3.org/1999/xlink" x="0px" y="0px"
	 viewBox="0 0 937.8 638.2" style="enable-background:new 0 0 937.8 638.2;" xml:space="preserve">
<style type="text/css">
	.st0{fill:#4589FF;}
	.st1{fill:#F4F4F4;}
	.st2{fill:#BEBEBE;}
	.st3{fill:#E3F6FF;}
	.st4{fill:#0F62FE;}
	.st5{fill:#009D9A;}
	.st6{fill:#FFFFFF;}
	.st7{fill:#DCDCDC;}
	.st8{fill:none;stroke:#BEBEBE;stroke-width:2;}
	.st9{fill:#001D6C;}
	.st10{fill:none;}
	.st11{fill:#161616;}
	.st12{font-family:'IBMPlexSans';}
	.st13{font-size:14px;}
	.st14{enable-background:new    ;}
	.st15{font-family:'AdobeMyungjoStd-Medium-KSCpc-EUC-H';}
	.st16{font-size:16px;}
	.st17{font-family:'IBMPlexSans-Medium';}
	.st18{fill:none;stroke:#BEBEBE;stroke-width:2;stroke-miterlimit:10;}
	.st19{font-size:12px;}
</style>
<rect id="Rectangle-Copy-52" x="601.9" y="355.6" class="st0" width="318" height="269"/>
<path id="Shape" class="st1" d="M625.9,379.1c0.8,0,1.5-0.7,1.5-1.5s-0.7-1.5-1.5-1.5s-1.5,0.7-1.5,1.5S625.1,379.1,625.9,379.1z
	 M625.9,377.1c0.3,0,0.5,0.2,0.5,0.5s-0.2,0.5-0.5,0.5s-0.5-0.2-0.5-0.5S625.6,377.1,625.9,377.1z M630.7,381.5
	c0.8,0,1.5-0.7,1.5-1.5s-0.7-1.5-1.5-1.5s-1.5,0.7-1.5,1.5S629.9,381.5,630.7,381.5z M630.7,379.5c0.3,0,0.5,0.2,0.5,0.5
	s-0.2,0.5-0.5,0.5s-0.5-0.2-0.5-0.5S630.4,379.5,630.7,379.5L630.7,379.5z M620.1,383.7c-0.8,0-1.5,0.7-1.5,1.5s0.7,1.5,1.5,1.5
	s1.5-0.7,1.5-1.5S621,383.7,620.1,383.7z M620.1,385.7c-0.3,0-0.5-0.2-0.5-0.5s0.2-0.5,0.5-0.5s0.5,0.2,0.5,0.5
	S620.4,385.7,620.1,385.7z M621.1,381.5c0.8,0,1.5-0.7,1.5-1.5s-0.7-1.5-1.5-1.5s-1.5,0.7-1.5,1.5
	C619.6,380.8,620.3,381.5,621.1,381.5L621.1,381.5z M621.1,379.5c0.3,0,0.5,0.2,0.5,0.5s-0.2,0.5-0.5,0.5s-0.5-0.2-0.5-0.5
	S620.8,379.5,621.1,379.5L621.1,379.5z M631.7,383.7c-0.8,0-1.5,0.7-1.5,1.5s0.7,1.5,1.5,1.5s1.5-0.7,1.5-1.5
	S632.5,383.7,631.7,383.7z M631.7,385.7c-0.3,0-0.5-0.2-0.5-0.5s0.2-0.5,0.5-0.5s0.5,0.2,0.5,0.5S631.9,385.7,631.7,385.7z
	 M628.3,387.6c-0.8,0-1.5,0.7-1.5,1.5s0.7,1.5,1.5,1.5s1.5-0.7,1.5-1.5S629.2,387.6,628.3,387.6L628.3,387.6z M628.3,389.6
	c-0.3,0-0.5-0.2-0.5-0.5s0.2-0.5,0.5-0.5s0.5,0.2,0.5,0.5c0,0.1-0.1,0.3-0.1,0.4C628.6,389.5,628.5,389.6,628.3,389.6z M623.5,387.6
	c-0.8,0-1.5,0.7-1.5,1.5s0.7,1.5,1.5,1.5s1.5-0.7,1.5-1.5S624.3,387.6,623.5,387.6L623.5,387.6z M623.5,389.6
	c-0.3,0-0.5-0.2-0.5-0.5s0.2-0.5,0.5-0.5s0.5,0.2,0.5,0.5S623.7,389.6,623.5,389.6z M628.9,383.6c0-1.7-1.3-3-3-3s-3,1.3-3,3
	s1.3,3,3,3S628.9,385.3,628.9,383.6z M625.9,385.6c-1.1,0-2-0.9-2-2s0.9-2,2-2s2,0.9,2,2c0,0.5-0.2,1-0.6,1.4
	C626.9,385.4,626.4,385.6,625.9,385.6z"/>
<path id="Line-4" class="st2" d="M43.4,73.4v256.2h362.5v-147h-6l7-14l7,14h-6v149H41.4V73.4H43.4z"/>
<circle id="Oval-Copy-3" class="st3" cx="677.9" cy="38.6" r="24"/>
<path id="Shape_1_" class="st4" d="M672.9,41.6c2.8,0,5,2.2,5,5v6h-2v-6c0-1.7-1.3-3-3-3h-4c-1.7,0-3,1.3-3,3v6h-2v-6
	c0-2.8,2.2-5,5-5H672.9z M670.9,29.6c2.8,0,5,2.2,5,5s-2.2,5-5,5s-5-2.2-5-5S668.1,29.6,670.9,29.6z M689.5,29.6l1.4,1.4l-7.1,7.1
	l-3.9-3.9l1.4-1.4l2.5,2.5L689.5,29.6z M670.9,31.6c-1.7,0-3,1.3-3,3s1.3,3,3,3s3-1.3,3-3S672.6,31.6,670.9,31.6z"/>
<circle id="Oval-Copy-3_1_" class="st3" cx="41.9" cy="38.6" r="24"/>
<path id="Shape_2_" class="st4" d="M36.9,41.6c2.8,0,5,2.2,5,5v6h-2v-6c0-1.7-1.3-3-3-3h-4c-1.7,0-3,1.3-3,3v6h-2v-6
	c0-2.8,2.2-5,5-5H36.9z M34.9,29.6c2.8,0,5,2.2,5,5s-2.2,5-5,5s-5-2.2-5-5S32.1,29.6,34.9,29.6z M50,28.5l1.8,0.4l-2.4,10.4
	l-1.8-0.4L50,28.5z M44.8,30.2l1.4,1.2L44.1,34l2.1,2.6l-1.4,1l-3.1-3.7L44.8,30.2z M54.6,30.2l3.1,3.7l-3.1,3.7l-1.4-1.2l2.1-2.6
	l-2.1-2.6L54.6,30.2z M34.9,31.6c-1.7,0-3,1.3-3,3s1.3,3,3,3c1.7,0,3-1.3,3-3S36.6,31.6,34.9,31.6z"/>
<rect id="Rectangle-Copy-14" x="168.9" y="355.6" class="st5" width="250" height="172"/>
<rect id="Rectangle-Copy-16" x="617.9" y="414.6" class="st6" width="80" height="81"/>
<rect id="Rectangle-Copy-16_1_" x="823.9" y="414.6" class="st6" width="80" height="121"/>
<rect id="Rectangle-Copy-16_2_" x="617.9" y="527.6" class="st6" width="80" height="81"/>
<path id="Line-2-Copy-24" class="st2" d="M809.9,447.6l14,7l-14,7v-6h-112v-2h112V447.6z"/>
<path id="Line-2-Copy-26" class="st2" d="M864.9,535.6v35.6h-153v6l-14-7l14-7v6h151v-33.6H864.9z"/>
<circle id="Oval-Copy-3_2_" class="st7" cx="41.9" cy="95.6" r="13"/>
<circle id="Oval-Copy-3_3_" class="st7" cx="41.9" cy="168.6" r="13"/>
<circle id="Oval-Copy-3_4_" class="st7" cx="41.9" cy="259.6" r="13"/>
<circle id="Oval-Copy-3_5_" class="st3" cx="754.9" cy="245.6" r="24"/>
<path id="Shape_3_" class="st4" d="M749.9,248.6c2.8,0,5,2.2,5,5v6h-2v-6c0-1.7-1.3-3-3-3h-4c-1.7,0-3,1.3-3,3v6h-2v-6
	c0-2.8,2.2-5,5-5H749.9z M747.9,236.6c2.8,0,5,2.2,5,5s-2.2,5-5,5s-5-2.2-5-5S745.1,236.6,747.9,236.6z M760.9,244.6v2h-2v-2H760.9z
	 M765.9,244.6v2h-2v-2H765.9z M747.9,238.6c-1.7,0-3,1.3-3,3s1.3,3,3,3s3-1.3,3-3S749.6,238.6,747.9,238.6z M768.9,241.6v2h-2v-2
	H768.9z M757.9,241.6v2h-2v-2H757.9z M765.9,236.6v7h-7v-7H765.9z M763.9,238.6h-3v3h3V238.6z M768.9,236.6v2h-2v-2H768.9z
	 M757.9,236.6v2h-2v-2H757.9z M760.9,233.6v2h-2v-2H760.9z M765.9,233.6v2h-2v-2H765.9z"/>
<path id="Line-8" class="st2" d="M43.4,329.1v104h111.5v-6l14,7l-14,7v-6H41.4v-106H43.4z"/>
<path id="Path-8" class="st2" d="M583.9,485.4v25.2h226v-6l14,7l-14,7v-6h-228v-25.2h-163v-2H583.9z"/>
<path id="Path-7" class="st2" d="M583.9,168.6v270.5h20v-6l14,7l-14,7v-6h-22V168.6H583.9z"/>
<line id="Path-9-Copy" class="st8" x1="754.2" y1="355.6" x2="754.2" y2="279.6"/>
<rect id="Rectangle-Copy-50" x="391.9" y="13.6" class="st9" width="210" height="155"/>
<rect id="Rectangle-Copy-16_4_" x="503.9" y="70.6" class="st6" width="80" height="81"/>
<rect id="Rectangle-Copy-16_5_" x="407.9" y="70.6" class="st6" width="80" height="81"/>
<rect x="31.8" y="89.3" class="st10" width="20" height="12.2"/>
<text transform="matrix(1 0 0 1 37.3156 99.6255)" class="st11 st12 st13">A</text>
<rect x="31.8" y="162.3" class="st10" width="20" height="13.4"/>
<text transform="matrix(1 0 0 1 37.2317 172.6635)" class="st11 st12 st13">B</text>
<rect x="33.1" y="253.3" class="st10" width="17.5" height="13.4"/>
<text transform="matrix(1 0 0 1 37.4558 263.6815)" class="st11 st12 st13">C</text>
<rect x="419.3" y="462.2" class="st10" width="163" height="14.6"/>
<text transform="matrix(1 0 0 1 434.0246 472.6092)" class="st14"><tspan x="0" y="0" class="st11 st12 st13">6. </tspan><tspan x="15.5" y="0" class="st11 st15 st13">컨테이너</tspan><tspan x="71.5" y="0" class="st11 st12 st13"> </tspan><tspan x="74.8" y="0" class="st11 st15 st13">가져오기</tspan></text>
<rect x="790.9" y="239.3" class="st10" width="100" height="15.4"/>
<text transform="matrix(1 0 0 1 790.903 249.6528)" class="st14"><tspan x="0" y="0" class="st11 st15 st13">노드</tspan><tspan x="28" y="0" class="st11 st12 st13"> </tspan><tspan x="31.3" y="0" class="st11 st15 st13">소유자</tspan></text>
<rect x="709.9" y="32.3" class="st10" width="100" height="15.4"/>
<text transform="matrix(1 0 0 1 709.9101 42.6647)" class="st11 st15 st13">관리자</text>
<rect x="407.9" y="33.8" class="st10" width="187" height="15.6"/>
<text transform="matrix(1 0 0 1 407.8803 45.6995)" class="st14"><tspan x="0" y="0" class="st1 st15 st16">관리</tspan><tspan x="32" y="0" class="st1 st17 st16"> </tspan><tspan x="35.8" y="0" class="st1 st15 st16">허브</tspan></text>
<rect x="639.9" y="375.8" class="st10" width="236.1" height="15.6"/>
<text transform="matrix(1 0 0 1 639.8802 387.629)" class="st14"><tspan x="0" y="0" class="st1 st15 st16">에지</tspan><tspan x="32" y="0" class="st1 st17 st16"> </tspan><tspan x="35.8" y="0" class="st1 st15 st16">노드</tspan></text>
<rect x="823.8" y="448.2" class="st10" width="80" height="56.3"/>
<rect x="627.3" y="442.3" class="st10" width="61.1" height="35.7"/>
<rect x="627.3" y="555.4" class="st10" width="61.1" height="35.7"/>
<rect x="697.2" y="430.2" class="st10" width="111.2" height="13.7"/>
<text transform="matrix(1 0 0 1 724.7202 444.6185)" class="st14"><tspan x="0" y="0" class="st1 st12 st13">7. </tspan><tspan x="15.5" y="0" class="st1 st15 st13">실행</tspan></text>
<rect x="712.4" y="546.2" class="st10" width="150.7" height="13.7"/>
<text transform="matrix(1 0 0 1 754.7175 560.6174)" class="st14"><tspan x="0" y="0" class="st1 st12 st13">8. </tspan><tspan x="15.5" y="0" class="st1 st15 st13">시작</tspan></text>
<rect x="503.8" y="104.3" class="st10" width="80" height="14.9"/>
<text transform="matrix(1 0 0 1 512.8707 114.6419)" class="st11 st12 st13">Exchange</text>
<rect x="407.8" y="104.3" class="st10" width="80" height="14.9"/>
<text transform="matrix(1 0 0 1 428.8615 114.6419)" class="st11 st12 st13">Agbot</text>
<rect x="62.9" y="90.2" class="st10" width="280.6" height="15.7"/>
<text transform="matrix(1 0 0 1 62.8802 100.6137)" class="st14"><tspan x="0" y="0" class="st11 st15 st13">개발자</tspan><tspan x="42" y="0" class="st11 st12 st13"> </tspan><tspan x="45.3" y="0" class="st11 st15 st13">인증</tspan><tspan x="73.3" y="0" class="st11 st12 st13"> </tspan><tspan x="76.6" y="0" class="st11 st15 st13">정보</tspan><tspan x="104.6" y="0" class="st11 st12 st13"> </tspan><tspan x="107.9" y="0" class="st11 st15 st13">작성</tspan></text>
<rect x="80.9" y="32.3" class="st10" width="172.6" height="15.7"/>
<text transform="matrix(1 0 0 1 80.889 42.6525)" class="st14"><tspan x="0" y="0" class="st11 st15 st13">소프트웨어</tspan><tspan x="70" y="0" class="st11 st12 st13"> </tspan><tspan x="73.3" y="0" class="st11 st15 st13">개발자</tspan></text>
<rect x="62.9" y="162.1" class="st10" width="283.4" height="15.7"/>
<text transform="matrix(1 0 0 1 62.8802 172.5209)" class="st14"><tspan x="0" y="0" class="st11 st15 st13">에지</tspan><tspan x="28" y="0" class="st11 st12 st13"> </tspan><tspan x="31.3" y="0" class="st11 st15 st13">서비스</tspan><tspan x="73.3" y="0" class="st11 st12 st13"> </tspan><tspan x="76.6" y="0" class="st11 st15 st13">운영자</tspan><tspan x="118.6" y="0" class="st11 st12 st13"> </tspan><tspan x="121.9" y="0" class="st11 st15 st13">개발</tspan></text>
<rect x="62.9" y="253.3" class="st10" width="293.1" height="15.7"/>
<text transform="matrix(1 0 0 1 62.8802 263.6698)" class="st14"><tspan x="0" y="0" class="st11 st15 st13">관리</tspan><tspan x="28" y="0" class="st11 st12 st13"> </tspan><tspan x="31.3" y="0" class="st11 st15 st13">허브에</tspan><tspan x="73.3" y="0" class="st11 st12 st13"> </tspan><tspan x="76.6" y="0" class="st11 st15 st13">서명</tspan><tspan x="104.6" y="0" class="st11 st12 st13"> </tspan><tspan x="107.9" y="0" class="st11 st15 st13">및</tspan><tspan x="121.9" y="0" class="st11 st12 st13"> </tspan><tspan x="125.2" y="0" class="st11 st15 st13">공개</tspan></text>
<g>
	<rect x="204.9" y="373.5" class="st10" width="162.3" height="15.6"/>
	<text transform="matrix(1 0 0 1 204.8858 385.3454)" class="st14"><tspan x="0" y="0" class="st1 st15 st16">컨테이너</tspan><tspan x="64" y="0" class="st1 st17 st16"> </tspan><tspan x="67.8" y="0" class="st1 st15 st16">레지스트리</tspan></text>
	<g>
		<path class="st1" d="M196.9,373.1h-8c-0.6,0-1,0.4-1,1v11c0,0.6,0.4,1,1,1h8c0.6,0,1-0.4,1-1v-11
			C197.9,373.5,197.5,373.1,196.9,373.1z M196.9,374.1v3h-8v-3H196.9z M188.9,381.1v-3h8v3H188.9z M188.9,385.1v-3h8v3H188.9z"/>
		<circle class="st1" cx="190.4" cy="375.6" r="0.5"/>
		<circle class="st1" cx="190.4" cy="379.6" r="0.5"/>
		<circle class="st1" cx="190.4" cy="383.6" r="0.5"/>
		<rect id="_x3C_Transparent_Rectangle_x3E__616_" x="184.9" y="371.6" class="st10" width="16" height="16"/>
	</g>
</g>
<g>
	<g>
		<polyline class="st18" points="753.9,210.6 753.9,154.6 611.9,154.6 		"/>
		<g>
			<polygon class="st2" points="614,147.6 601.9,154.6 614,161.6 			"/>
		</g>
	</g>
</g>
<g>
	<g>
		<polyline class="st18" points="677.9,73.7 677.9,130.6 611.9,130.6 		"/>
		<g>
			<polygon class="st2" points="614,123.6 601.9,130.6 614,137.6 			"/>
		</g>
	</g>
</g>
<rect x="66.4" y="109.4" class="st10" width="250" height="41.5"/>
<text transform="matrix(1 0 0 1 66.3862 118.2735)"><tspan x="0" y="0" class="st11 st12 st19">• </tspan><tspan x="7.6" y="0" class="st11 st15 st19">사용자</tspan><tspan x="43.6" y="0" class="st11 st12 st19"> </tspan><tspan x="46.4" y="0" class="st11 st15 st19">계정</tspan><tspan x="70.4" y="0" class="st11 st12 st19"> </tspan><tspan x="73.2" y="0" class="st11 st15 st19">작성</tspan><tspan x="0" y="14.4" class="st11 st12 st19">• </tspan><tspan x="7.6" y="14.4" class="st11 st15 st19">서명</tspan><tspan x="31.6" y="14.4" class="st11 st12 st19"> </tspan><tspan x="34.4" y="14.4" class="st11 st15 st19">키</tspan><tspan x="46.4" y="14.4" class="st11 st12 st19"> </tspan><tspan x="49.2" y="14.4" class="st11 st15 st19">쌍</tspan><tspan x="61.2" y="14.4" class="st11 st12 st19"> </tspan><tspan x="64.1" y="14.4" class="st11 st15 st19">작성</tspan><tspan x="88.1" y="14.4" class="st11 st12 st19">(C</tspan><tspan x="99.6" y="14.4" class="st11 st15 st19">단계에서</tspan><tspan x="147.6" y="14.4" class="st11 st12 st19"> </tspan><tspan x="150.4" y="14.4" class="st11 st15 st19">사용됨</tspan><tspan x="186.4" y="14.4" class="st11 st12 st19">)</tspan></text>
<rect x="65.4" y="190.4" class="st10" width="270" height="26.2"/>
<text transform="matrix(1 0 0 1 65.3862 199.2735)"><tspan x="0" y="0" class="st11 st12 st19">• </tspan><tspan x="7.6" y="0" class="st11 st15 st19">서비스</tspan><tspan x="43.6" y="0" class="st11 st12 st19"> yaml </tspan><tspan x="75.4" y="0" class="st11 st15 st19">정의</tspan><tspan x="99.4" y="0" class="st11 st12 st19"> </tspan><tspan x="102.2" y="0" class="st11 st15 st19">파일을</tspan><tspan x="138.2" y="0" class="st11 st12 st19"> </tspan><tspan x="141" y="0" class="st11 st15 st19">포함하는</tspan><tspan x="189" y="0" class="st11 st12 st19"> </tspan><tspan x="191.9" y="0" class="st11 st15 st19">아카이브</tspan><tspan x="239.9" y="0" class="st11 st12 st19"> </tspan><tspan x="242.7" y="0" class="st11 st15 st19">작성</tspan><tspan x="0" y="14.4" class="st11 st12 st19">• Open Horizon </tspan><tspan x="83.8" y="14.4" class="st11 st15 st19">메타데이터</tspan><tspan x="143.8" y="14.4" class="st11 st12 st19"> </tspan><tspan x="146.7" y="14.4" class="st11 st15 st19">파일</tspan><tspan x="170.7" y="14.4" class="st11 st12 st19"> </tspan><tspan x="173.5" y="14.4" class="st11 st15 st19">작성</tspan></text>
<rect x="68.9" y="281.4" class="st10" width="242.5" height="26.2"/>
<text transform="matrix(1 0 0 1 68.8862 290.2735)"><tspan x="0" y="0" class="st11 st12 st19">• </tspan><tspan x="7.6" y="0" class="st11 st15 st19">컨테이너</tspan><tspan x="55.6" y="0" class="st11 st12 st19"> </tspan><tspan x="58.4" y="0" class="st11 st15 st19">푸시</tspan><tspan x="82.4" y="0" class="st11 st12 st19">, </tspan><tspan x="88.5" y="0" class="st11 st15 st19">서명</tspan><tspan x="112.5" y="0" class="st11 st12 st19"> </tspan><tspan x="115.3" y="0" class="st11 st15 st19">및</tspan><tspan x="127.3" y="0" class="st11 st12 st19"> </tspan><tspan x="130.2" y="0" class="st11 st15 st19">공개</tspan><tspan x="0" y="14.4" class="st11 st12 st19">• </tspan><tspan x="7.6" y="14.4" class="st11 st15 st19">서비스</tspan><tspan x="43.6" y="14.4" class="st11 st12 st19"> </tspan><tspan x="46.4" y="14.4" class="st11 st15 st19">정책</tspan><tspan x="70.4" y="14.4" class="st11 st12 st19"> </tspan><tspan x="73.2" y="14.4" class="st11 st15 st19">제한조건</tspan><tspan x="121.2" y="14.4" class="st11 st12 st19"> </tspan><tspan x="124.1" y="14.4" class="st11 st15 st19">추가</tspan></text>
<rect x="50.9" y="359.4" class="st10" width="107.5" height="13.8"/>
<text transform="matrix(1 0 0 1 50.8862 369.753)"><tspan x="0" y="0" class="st11 st12 st13">1. </tspan><tspan x="15.5" y="0" class="st11 st15 st13">컨테이너</tspan><tspan x="71.5" y="0" class="st11 st12 st13"> </tspan><tspan x="74.8" y="0" class="st11 st15 st13">푸시</tspan></text>
<rect x="422.4" y="245.4" class="st10" width="148" height="30.6"/>
<text transform="matrix(1 0 0 1 422.3862 255.7535)"><tspan x="0" y="0" class="st11 st12 st13">2. </tspan><tspan x="15.5" y="0" class="st11 st15 st13">관리</tspan><tspan x="43.5" y="0" class="st11 st12 st13"> </tspan><tspan x="46.8" y="0" class="st11 st15 st13">허브에</tspan><tspan x="88.8" y="0" class="st11 st12 st13"> </tspan><tspan x="92.1" y="0" class="st11 st15 st13">서비스</tspan><tspan x="134.1" y="0" class="st11 st12 st13"> </tspan><tspan x="0" y="16.8" class="st11 st15 st13">메타데이터</tspan><tspan x="70" y="16.8" class="st11 st12 st13"> </tspan><tspan x="73.3" y="16.8" class="st11 st15 st13">공개</tspan></text>
<rect x="691.9" y="72.4" class="st10" width="198.5" height="53"/>
<text transform="matrix(1 0 0 1 691.8862 82.7535)"><tspan x="0" y="0" class="st11 st12 st13">3. </tspan><tspan x="15.5" y="0" class="st11 st15 st13">서비스를</tspan><tspan x="71.5" y="0" class="st11 st12 st13"> </tspan><tspan x="74.8" y="0" class="st11 st15 st13">올바른</tspan><tspan x="116.8" y="0" class="st11 st12 st13"> </tspan><tspan x="120.1" y="0" class="st11 st15 st13">에지</tspan><tspan x="148.1" y="0" class="st11 st12 st13"> </tspan><tspan x="151.4" y="0" class="st11 st15 st13">노드에</tspan><tspan x="193.4" y="0" class="st11 st12 st13"> </tspan><tspan x="0" y="16.8" class="st11 st15 st13">배치할</tspan><tspan x="42" y="16.8" class="st11 st12 st13"> </tspan><tspan x="45.3" y="16.8" class="st11 st15 st13">패턴</tspan><tspan x="73.3" y="16.8" class="st11 st12 st13"> </tspan><tspan x="76.6" y="16.8" class="st11 st15 st13">또는</tspan><tspan x="104.6" y="16.8" class="st11 st12 st13"> </tspan><tspan x="107.9" y="16.8" class="st11 st15 st13">정책</tspan><tspan x="135.9" y="16.8" class="st11 st12 st13"> </tspan><tspan x="139.2" y="16.8" class="st11 st15 st13">작성</tspan></text>
<rect x="597.4" y="240.9" class="st10" width="118" height="57"/>
<text transform="matrix(1 0 0 1 597.3862 251.2535)"><tspan x="0" y="0" class="st11 st12 st13">5. </tspan><tspan x="15.5" y="0" class="st11 st15 st13">서비스</tspan><tspan x="57.5" y="0" class="st11 st12 st13"> </tspan><tspan x="60.8" y="0" class="st11 st15 st13">배치</tspan></text>
<rect x="765.4" y="305.7" class="st10" width="138.5" height="13.8"/>
<text transform="matrix(1 0 0 1 765.3862 316.0869)"><tspan x="0" y="0" class="st11 st12 st13">4. </tspan><tspan x="15.5" y="0" class="st11 st15 st13">패턴</tspan><tspan x="43.5" y="0" class="st11 st12 st13"> </tspan><tspan x="46.8" y="0" class="st11 st15 st13">노드</tspan><tspan x="74.8" y="0" class="st11 st12 st13"> </tspan><tspan x="78.1" y="0" class="st11 st15 st13">정책</tspan><tspan x="106.1" y="0" class="st11 st12 st13"> </tspan><tspan x="109.4" y="0" class="st11 st15 st13">등록</tspan></text>
<rect x="624.4" y="438.9" class="st10" width="68" height="29.2"/>
<text transform="matrix(1 0 0 1 624.3862 449.253)"><tspan x="0" y="0" class="st11 st15 st13">에지</tspan><tspan x="28" y="0" class="st11 st12 st13"> </tspan><tspan x="0" y="16.8" class="st11 st15 st13">에이전트</tspan></text>
<rect x="632.4" y="554.2" class="st10" width="48.5" height="29.2"/>
<text transform="matrix(1 0 0 1 632.3862 564.5864)"><tspan x="0" y="0" class="st11 st15 st13">에지</tspan><tspan x="28" y="0" class="st11 st12 st13"> </tspan><tspan x="0" y="16.8" class="st11 st15 st13">서비스</tspan></text>
<rect x="841.1" y="450.1" class="st10" width="51.2" height="46"/>
<text transform="matrix(1 0 0 1 841.0528 460.4197)"><tspan x="0" y="0" class="st11 st15 st13">에지</tspan><tspan x="28" y="0" class="st11 st12 st13"> </tspan><tspan x="0" y="16.8" class="st11 st15 st13">서비스</tspan><tspan x="42" y="16.8" class="st11 st12 st13"> </tspan><tspan x="0" y="33.6" class="st11 st15 st13">운영자</tspan></text>
</svg>
