<?xml version="1.0" encoding="utf-8"?>
<!-- Generator: Adobe Illustrator 21.1.0, SVG Export Plug-In . SVG Version: 6.00 Build 0)  -->
<svg version="1.1" id="Capa_1" xmlns="http://www.w3.org/2000/svg" xmlns:xlink="http://www.w3.org/1999/xlink" x="0px" y="0px"
	 viewBox="0 0 1117.7 641.2" style="enable-background:new 0 0 1117.7 641.2;" xml:space="preserve">
<style type="text/css">
	.st0{fill:#051B75;}
	.st1{fill:#BEBEBE;}
	.st2{fill:#E3F6FF;}
	.st3{fill:#0F62FE;}
	.st4{fill:#054ADA;}
	.st5{fill:#8A3FFC;}
	.st6{fill:none;stroke:#BEBEBE;stroke-width:2;}
	.st7{display:none;fill:#BEBEBE;}
	.st8{fill:none;}
	.st9{enable-background:new    ;}
	.st10{fill:#F4F4F4;}
	.st11{font-family:'IBMPlexSans-Medium';}
	.st12{font-size:16px;}
	.st13{font-family:'AdobeMyungjoStd-Medium-KSCpc-EUC-H';}
	.st14{fill:#408BFC;}
	.st15{fill:#161616;}
	.st16{font-size:14px;}
	.st17{font-family:'IBMPlexSans';}
	.st18{fill:#FFFFFF;}
	.st19{fill:#92EEEE;}
	.st20{fill:none;stroke:#BEBEBE;stroke-width:2;stroke-miterlimit:10;}
	.st21{fill:none;stroke:#BEBEBE;stroke-width:2.2099;stroke-miterlimit:10;}
</style>
<rect id="Rectangle-Copy-51" x="367.9" y="225.1" class="st0" width="496.4" height="284"/>
<path id="Line-11-Copy-3" class="st1" d="M425.1,381.1l6.8,14.1l-6-0.1l-0.2,15l6,0.1l-7.2,13.9l-6.8-14.1l6,0.1l0.2-15l-6-0.1
	L425.1,381.1z"/>
<path id="Line-11-Copy-4" class="st1" d="M520.9,381.1l6.8,14.1l-6-0.1l-0.2,15l6,0.1l-7.2,13.9l-6.8-14.1l6,0.1l0.2-15l-6-0.1
	L520.9,381.1z"/>
<path id="Line-11-Copy-5" class="st1" d="M807.6,381.1l6.8,14.1l-6-0.1l-0.2,15l6,0.1l-7.2,13.9l-6.8-14.1l6,0.1l0.2-15l-6-0.1
	L807.6,381.1z"/>
<circle id="Oval-Copy-3" class="st2" cx="76.5" cy="38.1" r="24"/>
<path id="Shape" class="st3" d="M71.5,41.1c2.8,0,5,2.2,5,5v6h-2v-6c0-1.7-1.3-3-3-3h-4c-1.7,0-3,1.3-3,3v6h-2v-6c0-2.8,2.2-5,5-5
	H71.5z M69.5,29.1c2.8,0,5,2.2,5,5s-2.2,5-5,5c-2.8,0-5-2.2-5-5S66.7,29.1,69.5,29.1z M84.5,27c2.1,0,3.9,1.4,4.5,3.4l0.1,0.2v0.1
	l0,0c1.3,0.5,2.2,1.7,2.3,3.1V34v0.2c0,2.1-1.6,3.7-3.7,3.9h-0.2h-6.3c-2.1,0-3.9-1.7-3.9-3.9c0-1.5,0.9-2.8,2.2-3.5l0.2-0.1v-0.1
	c0.5-1.9,2.1-3.4,4.1-3.6H84L84.5,27z M69.5,31.1c-1.7,0-3,1.3-3,3s1.3,3,3,3c1.7,0,3-1.3,3-3S71.1,31.1,69.5,31.1z M84.5,29
	c-1.4,0-2.5,1-2.7,2.4v0.2v0.8L81,32.6c-0.9,0.2-1.5,0.9-1.5,1.8c0,1,0.8,1.8,1.7,1.9h0.1h6.3c1,0,1.9-0.8,1.9-1.9
	c0-0.8-0.6-1.6-1.3-1.8h-0.1l-0.8-0.2v-0.8C87.1,30.1,85.9,29,84.5,29z"/>
<rect id="Rectangle-Copy-48" x="139.6" y="225.1" class="st4" width="184.7" height="284"/>
<rect id="Rectangle-Copy-49" x="139.6" y="527.1" class="st5" width="724.7" height="100"/>
<polyline id="Path-6-Copy-9_4_" class="st6" points="566.4,109.1 566.4,185.1 396,185.1 "/>
<path id="Path-6-Copy-8" class="st7" d="M685.7,109.1v99h149v304.5H568.2v-19.5h-6l7-14l7,14h-6v17.5h262.5V210.1h-149v-101H685.7z"
	/>
<rect x="381" y="245.2" class="st8" width="184" height="15.6"/>
<text transform="matrix(1 0 0 1 380.99 257.1021)" class="st9"><tspan x="0" y="0" class="st10 st11 st12">IEAM </tspan><tspan x="43.5" y="0" class="st10 st13 st12">관리</tspan><tspan x="75.5" y="0" class="st10 st11 st12"> </tspan><tspan x="79.3" y="0" class="st10 st13 st12">허브</tspan></text>
<rect x="155.6" y="547.3" class="st8" width="319.6" height="15.6"/>
<text transform="matrix(1 0 0 1 155.6095 559.1053)" class="st10 st11 st12">Red Hat® OpenShift® Container Platform</text>
<rect id="Rectangle-Copy-14" x="884.7" y="527.1" class="st14" width="117" height="100"/>
<rect x="900.7" y="547.3" class="st8" width="94.6" height="15.6"/>
<text transform="matrix(1 0 0 1 900.7087 559.1053)" class="st9"><tspan x="0" y="0" class="st10 st13 st12">에지</tspan><tspan x="32" y="0" class="st10 st11 st12"> </tspan><tspan x="35.8" y="0" class="st10 st13 st12">노드</tspan></text>
<rect x="155.6" y="245.2" class="st8" width="148" height="57"/>
<rect x="25.9" y="65.7" class="st8" width="99.9" height="17.9"/>
<text transform="matrix(1 0 0 1 2.6841 78.7494)" class="st9"><tspan x="0" y="0" class="st15 st13 st16">클라우드</tspan><tspan x="56" y="0" class="st15 st17 st16"> </tspan><tspan x="59.3" y="0" class="st15 st13 st16">설치</tspan><tspan x="87.3" y="0" class="st15 st17 st16"> </tspan><tspan x="90.6" y="0" class="st15 st13 st16">프로그램</tspan></text>
<rect x="83.5" y="112.7" class="st8" width="99.9" height="56"/>
<text transform="matrix(1 0 0 1 83.4687 123.0806)" class="st9"><tspan x="0" y="0" class="st15 st17 st16">1. OCP </tspan><tspan x="45.9" y="0" class="st15 st13 st16">설정</tspan></text>
<g>
	<rect id="Rectangle-Copy-16" x="671.8" y="300.1" class="st18" width="80" height="81"/>
	<rect x="671.8" y="333.7" class="st8" width="80" height="14.9"/>
	<text transform="matrix(1 0 0 1 697.9089 344.1005)" class="st15 st17 st16">SDO</text>
</g>
<g>
	<rect id="Rectangle-Copy-16_6_" x="767.4" y="300.1" class="st18" width="80" height="81"/>
	<rect x="767.4" y="333.7" class="st8" width="80" height="14.9"/>
	<text transform="matrix(1 0 0 1 791.7646 344.1005)" class="st15 st17 st16">MMS</text>
</g>
<g>
	<rect id="Rectangle-Copy-16_1_" x="576.2" y="300.1" class="st18" width="80" height="81"/>
	<rect x="576.2" y="333.7" class="st8" width="80" height="14.9"/>
	<text transform="matrix(1 0 0 1 608.5903 344.1005)" class="st15 st17 st16">UI</text>
</g>
<g>
	<rect id="Rectangle-Copy-16_2_" x="480.7" y="300.1" class="st18" width="80" height="81"/>
	<rect x="480.7" y="333.7" class="st8" width="80" height="14.9"/>
	<text transform="matrix(1 0 0 1 489.7248 344.1005)" class="st15 st17 st16">Exchange</text>
</g>
<g>
	<rect id="Rectangle-Copy-16_3_" x="385.1" y="300.1" class="st18" width="80" height="81"/>
	<rect x="385.1" y="333.7" class="st8" width="80" height="14.9"/>
	<text transform="matrix(1 0 0 1 406.1453 344.1005)" class="st15 st17 st16">Agbot</text>
</g>
<g>
	<rect id="Rectangle-Copy-16_7_" x="155.6" y="411.1" class="st18" width="80" height="81"/>
	<rect x="155.5" y="444.8" class="st8" width="80" height="14.9"/>
	<text transform="matrix(1 0 0 1 182.3932 455.1689)" class="st15 st17 st16">IAM</text>
</g>
<g>
	<rect id="Rectangle-Copy-16_4_" x="385.1" y="424.1" class="st19" width="80" height="68"/>
	<rect x="385.1" y="441.8" class="st8" width="80" height="39.8"/>
</g>
<g>
	<rect id="Rectangle-Copy-16_5_" x="480.7" y="424.1" class="st19" width="80" height="68"/>
</g>
<g>
	<rect id="Rectangle-Copy-16_16_" x="767.4" y="424.1" class="st19" width="80" height="68"/>
</g>
<g>
	<g>
		<polyline class="st20" points="759.5,109.1 759.5,279.1 520.7,279.1 520.7,290.1 		"/>
		<g>
			<polygon class="st1" points="513.7,288.1 520.7,300.1 527.6,288.1 			"/>
		</g>
	</g>
</g>
<g>
	<g>
		<polyline class="st21" points="943.2,109.1 943.2,327.1 858.5,327.1 		"/>
		<g>
			<polygon class="st1" points="860.7,319.4 847.4,327.1 860.7,334.9 			"/>
		</g>
	</g>
</g>
<g>
	<g>
		<polyline class="st21" points="847.4,353.6 943.2,353.6 943.2,516 		"/>
		<g>
			<polygon class="st1" points="935.5,513.7 943.2,527.1 950.9,513.7 			"/>
		</g>
	</g>
</g>
<g>
	<g>
		<line class="st20" x1="199.3" y1="109.1" x2="199.3" y2="215.1"/>
		<g>
			<polygon class="st1" points="192.3,213 199.3,225.1 206.3,213 			"/>
		</g>
	</g>
</g>
<g>
	<g>
		<polyline class="st20" points="71.4,94.2 71.4,577.1 129.6,577.1 		"/>
		<g>
			<polygon class="st1" points="127.5,584.1 139.6,577.1 127.5,570.1 			"/>
		</g>
	</g>
</g>
<g>
	<g>
		<polyline class="st20" points="245.7,448.2 346.1,448.2 346.1,185.1 381,185.1 		"/>
		<g>
			<polygon class="st1" points="247.7,455.2 235.6,448.2 247.7,441.3 			"/>
		</g>
	</g>
</g>
<g>
	<g>
		<line class="st20" x1="389.4" y1="109.1" x2="389.4" y2="215.1"/>
		<g>
			<polygon class="st1" points="382.4,213 389.4,225.1 396.4,213 			"/>
		</g>
	</g>
</g>
<rect x="211.4" y="111.4" class="st8" width="146" height="30.6"/>
<text transform="matrix(1 0 0 1 211.3817 121.7534)"><tspan x="0" y="0" class="st15 st17 st16">2. IBM Cloud Platform </tspan><tspan x="0" y="16.8" class="st15 st17 st16">Common Services </tspan><tspan x="116.3" y="16.8" class="st15 st13 st16">설치</tspan></text>
<rect x="397.9" y="109.4" class="st8" width="105" height="30.6"/>
<text transform="matrix(1 0 0 1 397.8817 119.7534)"><tspan x="0" y="0" class="st15 st17 st16">3. </tspan><tspan x="15.5" y="0" class="st15 st13 st16">관리</tspan><tspan x="43.5" y="0" class="st15 st17 st16"> </tspan><tspan x="46.8" y="0" class="st15 st13 st16">허브에</tspan><tspan x="88.8" y="0" class="st15 st17 st16"> </tspan><tspan x="0" y="16.8" class="st15 st13 st16">컴포넌트</tspan><tspan x="56" y="16.8" class="st15 st17 st16"> </tspan><tspan x="59.3" y="16.8" class="st15 st13 st16">설치</tspan></text>
<rect x="576.9" y="108.4" class="st8" width="174" height="30.6"/>
<text transform="matrix(1 0 0 1 576.8817 118.7534)"><tspan x="0" y="0" class="st15 st17 st16">4. IAM(Identity and Access </tspan><tspan x="0" y="16.8" class="st15 st17 st16">Manager)</tspan><tspan x="59.2" y="16.8" class="st15 st13 st16">에</tspan><tspan x="73.2" y="16.8" class="st15 st17 st16"> </tspan><tspan x="76.5" y="16.8" class="st15 st13 st16">대한</tspan><tspan x="104.5" y="16.8" class="st15 st17 st16"> </tspan><tspan x="107.8" y="16.8" class="st15 st13 st16">인증</tspan><tspan x="135.8" y="16.8" class="st15 st17 st16"> </tspan><tspan x="139.1" y="16.8" class="st15 st13 st16">설정</tspan></text>
<rect x="767.9" y="110.9" class="st8" width="171.7" height="30.6"/>
<text transform="matrix(1 0 0 1 767.8817 121.2534)"><tspan x="0" y="0" class="st15 st17 st16">5. Open Horizon </tspan><tspan x="104.5" y="0" class="st15 st13 st16">예제로</tspan><tspan x="146.5" y="0" class="st15 st17 st16"> </tspan><tspan x="0" y="16.8" class="st15 st17 st16">Exchange </tspan><tspan x="64.1" y="16.8" class="st15 st13 st16">채우기</tspan></text>
<rect x="951.9" y="108.4" class="st8" width="122.3" height="30.6"/>
<text transform="matrix(1 0 0 1 951.8817 118.7534)"><tspan x="0" y="0" class="st15 st17 st16">6. MMS</tspan><tspan x="46.4" y="0" class="st15 st13 st16">에</tspan><tspan x="60.4" y="0" class="st15 st17 st16"> </tspan><tspan x="63.7" y="0" class="st15 st13 st16">에이전트</tspan><tspan x="119.7" y="0" class="st15 st17 st16"> </tspan><tspan x="0" y="16.8" class="st15 st13 st16">설치</tspan><tspan x="28" y="16.8" class="st15 st17 st16"> </tspan><tspan x="31.3" y="16.8" class="st15 st13 st16">파일</tspan><tspan x="59.3" y="16.8" class="st15 st17 st16"> </tspan><tspan x="62.6" y="16.8" class="st15 st13 st16">공개</tspan></text>
<rect x="150.4" y="236.9" class="st8" width="162" height="80.5"/>
<text transform="matrix(1 0 0 1 150.3817 248.7334)"><tspan x="0" y="0" class="st10 st11 st12">IBM Cloud Platform </tspan><tspan x="0" y="19.2" class="st10 st11 st12">Common Services</tspan></text>
<rect x="389.9" y="442.9" class="st8" width="70.5" height="30.6"/>
<text transform="matrix(1 0 0 1 397.5867 453.253)"><tspan x="0" y="0" class="st15 st17 st16">Postgres </tspan><tspan x="18.3" y="16.8" class="st15 st17 st16">DB</tspan></text>
<rect x="484.9" y="442.9" class="st8" width="70.5" height="30.6"/>
<text transform="matrix(1 0 0 1 492.5867 453.253)"><tspan x="0" y="0" class="st15 st17 st16">Postgres </tspan><tspan x="18.3" y="16.8" class="st15 st17 st16">DB</tspan></text>
<rect x="783.4" y="442.9" class="st8" width="47.5" height="30.6"/>
<text transform="matrix(1 0 0 1 785.9354 453.253)"><tspan x="0" y="0" class="st15 st17 st16">Mongo </tspan><tspan x="11.9" y="16.8" class="st15 st17 st16">DB</tspan></text>
<rect x="954.4" y="420.9" class="st8" width="127.5" height="30.6"/>
<text transform="matrix(1 0 0 1 954.3817 431.253)"><tspan x="0" y="0" class="st15 st13 st16">에지</tspan><tspan x="28" y="0" class="st15 st17 st16"> </tspan><tspan x="31.3" y="0" class="st15 st13 st16">노드가</tspan><tspan x="73.3" y="0" class="st15 st17 st16"> MMS</tspan><tspan x="0" y="16.8" class="st15 st13 st16">에서</tspan><tspan x="28" y="16.8" class="st15 st17 st16"> </tspan><tspan x="31.3" y="16.8" class="st15 st13 st16">파일</tspan><tspan x="59.3" y="16.8" class="st15 st17 st16"> </tspan><tspan x="62.6" y="16.8" class="st15 st13 st16">가져오기</tspan></text>
</svg>
