<?xml version="1.0" encoding="utf-8"?>
<!-- Generator: Adobe Illustrator 21.1.0, SVG Export Plug-In . SVG Version: 6.00 Build 0)  -->
<svg version="1.1" id="Layer_1" xmlns="http://www.w3.org/2000/svg" xmlns:xlink="http://www.w3.org/1999/xlink" x="0px" y="0px"
	 viewBox="0 0 644.8 510.2" style="enable-background:new 0 0 644.8 510.2;" xml:space="preserve">
<style type="text/css">
	.st0{fill:#408BFC;}
	.st1{fill:none;stroke:#00BAB6;stroke-width:2;stroke-dasharray:7;}
	.st2{fill:#4F2196;}
	.st3{fill:#FFFFFF;}
	.st4{fill:#BEBEBE;}
	.st5{fill:#E3F6FF;}
	.st6{fill:#0062FF;}
	.st7{fill:none;}
	.st8{enable-background:new    ;}
	.st9{fill:#161616;}
	.st10{font-family:'AdobeMyungjoStd-Medium-KSCpc-EUC-H';}
	.st11{font-size:14px;}
	.st12{font-family:'IBMPlexSans';}
	.st13{fill:#F4F4F4;}
	.st14{font-family:'IBMPlexSans-Medium';}
	.st15{font-size:16px;}
</style>
<g>
	<rect id="Rectangle-Copy-14_1_" x="175.4" y="408.6" class="st0" width="141.2" height="56"/>
	<rect id="Rectangle-Copy-54" x="40.4" y="408.6" class="st0" width="120.4" height="56"/>
	<rect id="Rectangle-Copy-14_2_" x="331.2" y="408.6" class="st0" width="141.2" height="56"/>
</g>
<path id="Rectangle" class="st1" d="M56.4,21.6h400c22.1,0,40,17.9,40,40v387c0,22.1-17.9,40-40,40h-400c-22.1,0-40-17.9-40-40v-387
	C16.4,39.5,34.3,21.6,56.4,21.6z"/>
<rect id="Rectangle-Copy-14" x="40.4" y="85.6" class="st2" width="432" height="267"/>
<rect id="Rectangle-Copy-16" x="264.4" y="152.1" class="st3" width="192" height="56"/>
<rect id="Rectangle-Copy-53" x="56.4" y="280.6" class="st3" width="192" height="56"/>
<rect id="Rectangle-Copy-44" x="264.4" y="280.1" class="st3" width="192" height="56"/>
<path id="Line-11-Copy-7" class="st4" d="M253.4,352.6l6.9,14h-6l-0.3,28h6l-7.1,14l-6.9-14h6l0.3-28h-6L253.4,352.6z"/>
<path id="Line-11-Copy-8" class="st4" d="M98.4,352.6l6.9,14h-6l-0.3,28h6l-7.1,14l-6.9-14h6l0.3-28h-6L98.4,352.6z"/>
<path id="Line-11-Copy-6" class="st4" d="M250.4,173.6l14,7l-14,7v-6h-92.5l-0.4,85h6l-7.1,14l-6.9-14h6l0.4-86v-1h94.5V173.6z"/>
<path id="Line-11-Copy-9" class="st4" d="M521.4,173.6l14,7l-14,7v-6h-51v6l-14-7l14-7v6h51V173.6z"/>
<circle id="Oval" class="st5" cx="575.9" cy="178.1" r="32.5"/>
<path id="Shape" class="st6" d="M584.9,187.6h-17c-4.1,0-7.5-3.4-7.5-7.5c0-3.6,2.6-6.7,6.1-7.4c0,0,0.1,0,0.1-0.1
	c1-4.7,5.1-8,9.8-8c0.6,0,1.3,0.1,1.9,0.2c4,0.8,7.1,3.9,7.9,7.9c0,0,0,0.1,0.1,0.1c4,0.8,6.7,4.7,6,8.7
	C591.6,185,588.5,187.6,584.9,187.6z M567.9,185.6h17c2.7,0,4.9-1.9,5.4-4.5c0.3-1.8-0.2-3.6-1.5-4.9c-0.8-0.8-1.8-1.3-2.8-1.5
	l-0.3-0.1l-1.1-0.2c0,0-0.1,0-0.1-0.1l0,0l-0.2-1c-0.6-3.2-3-5.8-6.1-6.5c-0.9-0.2-1.9-0.3-2.8-0.1c-3.4,0.5-6,3.1-6.8,6.5l-0.1,0.3
	l-0.2,0.9c0,0,0,0.1-0.1,0.1l0,0l-1,0.2c-2.4,0.4-4.4,2.3-4.7,4.7C562,182.7,564.6,185.6,567.9,185.6z"/>
<rect x="265.9" y="375.2" class="st7" width="142.9" height="13.9"/>
<text transform="matrix(1 0 0 1 265.8926 385.56)" class="st8"><tspan x="0" y="0" class="st9 st10 st11">하드웨어</tspan><tspan x="56" y="0" class="st9 st12 st11"> </tspan><tspan x="59.3" y="0" class="st9 st10 st11">액세스</tspan></text>
<rect x="110.7" y="375.2" class="st7" width="77.2" height="13.9"/>
<text transform="matrix(1 0 0 1 110.7338 385.5595)" class="st8"><tspan x="0" y="0" class="st9 st12 st11">OS </tspan><tspan x="21.3" y="0" class="st9 st10 st11">액세스</tspan></text>
<rect x="264.3" y="161.2" class="st7" width="192" height="39.6"/>
<rect x="264.3" y="289.2" class="st7" width="192" height="39.6"/>
<rect x="56.3" y="289.2" class="st7" width="192" height="39.6"/>
<rect x="187.9" y="429.8" class="st7" width="128.7" height="15.6"/>
<text transform="matrix(1 0 0 1 187.9092 440.1355)" class="st8"><tspan x="0" y="0" class="st13 st10 st11">하드웨어</tspan><tspan x="56" y="0" class="st13 st14 st11"> </tspan><tspan x="59.3" y="0" class="st13 st10 st11">센서</tspan></text>
<rect x="343" y="429.8" class="st7" width="111" height="15.6"/>
<text transform="matrix(1 0 0 1 342.9819 440.1355)" class="st8"><tspan x="0" y="0" class="st13 st14 st11">Docker </tspan><tspan x="48.7" y="0" class="st13 st10 st11">런타임</tspan></text>
<rect x="54.4" y="429.8" class="st7" width="91.7" height="15.6"/>
<text transform="matrix(1 0 0 1 54.3828 440.1355)" class="st8"><tspan x="0" y="0" class="st13 st14 st11">OS </tspan><tspan x="21.6" y="0" class="st13 st10 st11">서비스</tspan></text>
<rect x="56.4" y="105.9" class="st7" width="236.1" height="15.6"/>
<text transform="matrix(1 0 0 1 56.3936 117.7375)" class="st8"><tspan x="0" y="0" class="st13 st10 st15">배치</tspan><tspan x="32" y="0" class="st13 st14 st15"> </tspan><tspan x="35.8" y="0" class="st13 st10 st15">패턴</tspan></text>
<rect x="40.4" y="49.8" class="st7" width="236.1" height="15.6"/>
<text transform="matrix(1 0 0 1 40.3972 61.6149)" class="st8"><tspan x="0" y="0" class="st9 st10 st15">에지</tspan><tspan x="32" y="0" class="st9 st14 st15"> </tspan><tspan x="35.8" y="0" class="st9 st10 st15">노드</tspan></text>
<text transform="matrix(1 0 0 1 100.3934 314.2464)"><tspan x="0" y="0" class="st9 st12 st11">cpu(</tspan><tspan x="27.8" y="0" class="st9 st10 st11">에지</tspan><tspan x="55.8" y="0" class="st9 st12 st11"> </tspan><tspan x="59.1" y="0" class="st9 st10 st11">서비스</tspan><tspan x="101.1" y="0" class="st9 st12 st11">)</tspan></text>
<text transform="matrix(1 0 0 1 310.0601 313.266)"><tspan x="0" y="0" class="st9 st12 st11">gps(</tspan><tspan x="27" y="0" class="st9 st10 st11">에지</tspan><tspan x="55" y="0" class="st9 st12 st11"> </tspan><tspan x="58.3" y="0" class="st9 st10 st11">서비스</tspan><tspan x="100.3" y="0" class="st9 st12 st11">)</tspan></text>
<rect x="325.9" y="224.4" class="st7" width="123" height="13.8"/>
<text transform="matrix(1 0 0 1 325.8934 234.7567)"><tspan x="0" y="0" class="st13 st12 st11">Docker </tspan><tspan x="47.8" y="0" class="st13 st10 st11">가상</tspan><tspan x="75.8" y="0" class="st13 st12 st11"> </tspan><tspan x="79.1" y="0" class="st13 st10 st11">사설망</tspan></text>
<rect x="298.1" y="165.1" class="st7" width="117" height="30.6"/>
<text transform="matrix(1 0 0 1 315.5757 175.4233)"><tspan x="0" y="0" class="st9 st12 st11">cpu2msghub</tspan><tspan x="-0.4" y="16.8" class="st9 st12 st11">(</tspan><tspan x="4.3" y="16.8" class="st9 st10 st11">에지</tspan><tspan x="32.3" y="16.8" class="st9 st12 st11"> </tspan><tspan x="35.6" y="16.8" class="st9 st10 st11">서비스</tspan><tspan x="77.6" y="16.8" class="st9 st12 st11">)</tspan></text>
<rect x="521.6" y="215.1" class="st7" width="104.5" height="30.6"/>
<text transform="matrix(1 0 0 1 530.1578 225.4233)"><tspan x="0" y="0" class="st9 st10 st11">클라우드</tspan><tspan x="56" y="0" class="st9 st12 st11"> </tspan><tspan x="59.3" y="0" class="st9 st10 st11">서버</tspan><tspan x="11" y="16.8" class="st9 st12 st11">(</tspan><tspan x="15.7" y="16.8" class="st9 st10 st11">선택사항</tspan><tspan x="71.7" y="16.8" class="st9 st12 st11">)</tspan></text>
</svg>
