<?xml version="1.0" encoding="utf-8"?>
<!-- Generator: Adobe Illustrator 21.1.0, SVG Export Plug-In . SVG Version: 6.00 Build 0)  -->
<svg version="1.1" id="Layer_1" xmlns="http://www.w3.org/2000/svg" xmlns:xlink="http://www.w3.org/1999/xlink" x="0px" y="0px"
	 viewBox="0 0 1239.1 833.5" style="enable-background:new 0 0 1239.1 833.5;" xml:space="preserve">
<style type="text/css">
	.st0{fill:#E3F6FF;}
	.st1{fill:#0062FF;}
	.st2{fill:#8A3FFC;}
	.st3{fill:#92EEEE;}
	.st4{fill:#408BFC;}
	.st5{fill:#009C98;}
	.st6{fill:#BEBEBE;}
	.st7{fill:none;stroke:#00BAB6;stroke-width:2;stroke-dasharray:7;}
	.st8{fill:none;}
	.st9{enable-background:new    ;}
	.st10{fill:#F4F4F4;}
	.st11{font-family:'IBMPlexSans';}
	.st12{font-size:14px;}
	.st13{font-family:'AdobeMyungjoStd-Medium-KSCpc-EUC-H';}
	.st14{fill:#161616;}
	.st15{font-family:'IBMPlexSans-Medium';}
	.st16{font-size:16px;}
</style>
<circle id="Oval-Copy-8" class="st0" cx="64" cy="205.2" r="32.5"/>
<path id="Shape" class="st1" d="M73,214.7H56c-4.1,0-7.5-3.4-7.5-7.5c0-3.6,2.6-6.7,6.1-7.4c0,0,0.1,0,0.1-0.1c1-4.7,5.1-8,9.8-8
	c0.6,0,1.3,0.1,1.9,0.2c4,0.8,7.1,3.9,7.9,7.9c0,0,0,0.1,0.1,0.1c4,0.8,6.7,4.7,6,8.7C79.7,212.1,76.6,214.7,73,214.7z M56,212.7h17
	c2.7,0,4.9-1.9,5.4-4.5c0.3-1.8-0.2-3.6-1.5-4.9c-0.8-0.8-1.8-1.3-2.8-1.5l-0.3-0.1l-1.1-0.2c0,0-0.1,0-0.1-0.1l0,0l-0.2-1
	c-0.6-3.2-3-5.8-6.1-6.5c-0.9-0.2-1.9-0.3-2.8-0.1c-3.4,0.5-6,3.1-6.8,6.5l-0.1,0.3l-0.2,0.9c0,0,0,0.1-0.1,0.1l0,0l-1,0.2
	c-2.4,0.4-4.4,2.3-4.7,4.7C50.1,209.8,52.7,212.7,56,212.7z"/>
<circle id="Oval-Copy-9" class="st0" cx="65" cy="598.7" r="32.5"/>
<path id="Fill-1-Copy-2" class="st1" d="M72.5,592.2h1v-1h-1V592.2z M74.3,589.2h-2.5c-0.7,0-1.2,0.6-1.2,1.2v2.5
	c0,0.7,0.6,1.2,1.2,1.2h2.5c0.7,0,1.2-0.6,1.2-1.2v-2.5C75.5,589.8,74.9,589.2,74.3,589.2L74.3,589.2z M59.5,605.2v-8h8v8H59.5z
	 M67.5,595.2h-1v-2h-2v2h-2v-2h-2v2h-1c-1.1,0-2,0.9-2,2v1h-2v2h2v2h-2v2h2v1c0,1.1,0.9,2,2,2h8c1.1,0,2-0.9,2-2v-8
	C69.5,596.1,68.6,595.2,67.5,595.2L67.5,595.2z M69.5,604.2h2v-2h-2V604.2z M69.5,600.2h2v-2h-2V600.2z M64.5,609.2h2v-2h-2V609.2z
	 M60.5,609.2h2v-2h-2V609.2z M74.5,599.2c-0.6,0-1,0.4-1,1s0.4,1,1,1s1-0.4,1-1S75.1,599.2,74.5,599.2L74.5,599.2z M74.5,603.2
	c-0.6,0-1,0.4-1,1s0.4,1,1,1s1-0.4,1-1S75.1,603.2,74.5,603.2L74.5,603.2z M56.5,591.2c0.6,0,1-0.4,1-1s-0.4-1-1-1s-1,0.4-1,1
	S55.9,591.2,56.5,591.2L56.5,591.2z M74.5,607.2c-0.6,0-1,0.4-1,1s0.4,1,1,1s1-0.4,1-1S75.1,607.2,74.5,607.2L74.5,607.2z M77.5,611
	c0,0.1-0.1,0.2-0.2,0.2H53.7c-0.1,0-0.2-0.1-0.2-0.2v-23.6c0-0.1,0.1-0.2,0.2-0.2h23.6c0.1,0,0.2,0.1,0.2,0.2L77.5,611z M77.3,585.2
	H53.7c-1.2,0-2.2,1-2.2,2.2V611c0,1.2,1,2.2,2.2,2.2h23.6c1.2,0,2.2-1,2.2-2.2v-23.6C79.5,586.2,78.5,585.2,77.3,585.2L77.3,585.2z"
	/>
<circle id="Oval-Copy-2" class="st0" cx="63" cy="52.2" r="32.5"/>
<path id="Fill-1" class="st1" d="M51.5,57.7h24v-16h-24V57.7z M61.5,63.7h4v-4h-4V63.7z M75.5,39.7h-24c-1.1,0-2,0.9-2,2v16
	c0,1.1,0.9,2,2,2h8v4h-4v2h16v-2h-4v-4h8c1.1,0,2-0.9,2-2v-16C77.5,40.6,76.6,39.7,75.5,39.7L75.5,39.7z"/>
<circle id="Oval-Copy-10" class="st0" cx="693" cy="67.2" r="32.5"/>
<path id="Fill-1_1_" class="st1" d="M693.5,52.7c-3.9,0-7,3.1-7,7s3.1,7,7,7s7-3.1,7-7S697.4,52.7,693.5,52.7 M693.5,54.7
	c2.8,0,5,2.2,5,5s-2.2,5-5,5s-5-2.2-5-5S690.7,54.7,693.5,54.7"/>
<path id="Fill-3" class="st1" d="M703.5,80.7h-2v-5c0-2.8-2.2-5-5-5h-6c-2.8,0-5,2.2-5,5v5h-2v-5c0-3.9,3.1-7,7-7h6c3.9,0,7,3.1,7,7
	V80.7z"/>
<rect id="Rectangle-Copy-18" x="225.5" y="561.2" class="st2" width="209" height="48"/>
<rect id="Rectangle-Copy-18_1_" x="225.5" y="194.7" class="st3" width="209" height="48"/>
<rect id="Rectangle-Copy-18_2_" x="225.5" y="34.7" class="st4" width="209" height="66"/>
<rect id="Rectangle-Copy-18_3_" x="225.5" y="296.7" class="st3" width="209" height="48"/>
<rect id="Rectangle-Copy-18_4_" x="225.5" y="663.2" class="st2" width="209" height="48"/>
<rect id="Rectangle-Copy-14" x="597.5" y="659.2" class="st4" width="192" height="56"/>
<rect id="Rectangle-Copy-14_1_" x="549.5" y="189.7" class="st4" width="288" height="117"/>
<rect id="Rectangle-Copy-18_5_" x="225.5" y="765.2" class="st2" width="209" height="48"/>
<path id="Rectangle-Copy-66" class="st5" d="M603.5,446.7h180c7.7,0,14,6.3,14,14v28c0,7.7-6.3,14-14,14h-180c-7.7,0-14-6.3-14-14
	v-28C589.5,453,595.8,446.7,603.5,446.7z"/>
<path id="Rectangle-Copy-72" class="st5" d="M927.5,189.7h260c7.7,0,14,6.3,14,14v48c0,7.7-6.3,14-14,14h-260c-7.7,0-14-6.3-14-14
	v-48C913.5,196,919.8,189.7,927.5,189.7z"/>
<path id="Rectangle-Copy-73" class="st5" d="M927.5,281.7h260c7.7,0,14,6.3,14,14v48c0,7.7-6.3,14-14,14h-260c-7.7,0-14-6.3-14-14
	v-48C913.5,288,919.8,281.7,927.5,281.7z"/>
<path id="Path-2-Copy-16" class="st6" d="M640.4,60.7l14,7l-14,7v-6H448.5v6l-14-7l14-7v6h191.9V60.7z"/>
<path id="Path-2-Copy-12" class="st6" d="M330.5,711.2l7,14h-6v26h6l-7,14l-7-14h6v-26h-6L330.5,711.2z"/>
<path id="Path-2-Copy-17" class="st6" d="M693.5,392.7l7,14h-6v40h-2v-40h-6L693.5,392.7z"/>
<path id="Path-2-Copy-13" class="st6" d="M330.5,609.2l7,14h-6v26h6l-7,14l-7-14h6v-26h-6L330.5,609.2z"/>
<path id="Path-2-Copy-22" class="st6" d="M693.5,502.7l7,14h-6v72h-260v-2h258v-70h-6L693.5,502.7z"/>
<path id="Path-2-Copy-14" class="st6" d="M330.5,242.7l7,14h-6v40h-2v-40h-6L330.5,242.7z"/>
<path id="Path-2-Copy-15" class="st6" d="M330.5,100.7l7,14h-6v66h6l-7,14l-7-14h6v-66h-6L330.5,100.7z"/>
<line id="Line-12" class="st7" x1="21.3" y1="141.2" x2="1220.7" y2="141.2"/>
<line id="Line-12-Copy" class="st7" x1="21.3" y1="534.2" x2="1220.7" y2="534.2"/>
<rect id="Rectangle-Copy-18_6_" x="565.5" y="242.7" class="st2" width="256" height="48"/>
<rect id="Rectangle-Copy-18_7_" x="565.5" y="344.7" class="st2" width="256" height="48"/>
<path id="Path-2-Copy-18" class="st6" d="M693.5,290.7l7,14h-6v40h-2v-40h-6L693.5,290.7z"/>
<path id="Path-2-Copy-19" class="st6" d="M565.5,264.7v2h-35v55H450v6l-14-7l14-7v6h78.5v-55H565.5z"/>
<path id="Path-2-Copy-20" class="st6" d="M899.5,220.7l14,7l-14,7v-6h-39.1v27h-24.9v6l-14-7l14-7v6h22.9v-27h41.1V220.7z"/>
<path id="Path-2-Copy-21" class="st6" d="M835.5,284.7l-14-7l14-7v6h25.2v42h38.8v-6l14,7l-14,7v-6h-40.8v-42h-23.2V284.7z"/>
<rect x="225.4" y="578.3" class="st8" width="209" height="17.2"/>
<text transform="matrix(1 0 0 1 267.8479 588.731)" class="st9"><tspan x="0" y="0" class="st10 st11 st12">sdr2msghub </tspan><tspan x="82.2" y="0" class="st10 st13 st12">서비스</tspan></text>
<rect x="225.4" y="51.3" class="st8" width="209" height="38.4"/>
<rect x="565.5" y="361.3" class="st8" width="256" height="17.2"/>
<text transform="matrix(1 0 0 1 670.9512 371.7135)" class="st10 st13 st12">트리거</text>
<rect x="565.3" y="259.3" class="st8" width="256" height="17.2"/>
<text transform="matrix(1 0 0 1 597.817 269.7254)" class="st9"><tspan x="0" y="0" class="st10 st13 st12">소프트웨어</tspan><tspan x="70" y="0" class="st10 st11 st12"> </tspan><tspan x="73.3" y="0" class="st10 st13 st12">정의</tspan><tspan x="101.3" y="0" class="st10 st11 st12"> </tspan><tspan x="104.6" y="0" class="st10 st13 st12">라디오</tspan><tspan x="146.6" y="0" class="st10 st11 st12"> </tspan><tspan x="149.9" y="0" class="st10 st13 st12">작업</tspan></text>
<rect x="225.4" y="680.3" class="st8" width="209" height="17.2"/>
<text transform="matrix(1 0 0 1 297.1483 690.7343)" class="st9"><tspan x="0" y="0" class="st10 st11 st12">sdr </tspan><tspan x="23.4" y="0" class="st10 st13 st12">서비스</tspan></text>
<rect x="225.4" y="782.3" class="st8" width="209" height="17.2"/>
<text transform="matrix(1 0 0 1 303.9767 792.7238)" class="st9"><tspan x="0" y="0" class="st10 st11 st12">sdr </tspan><tspan x="23.4" y="0" class="st10 st13 st12">센서</tspan></text>
<rect x="932.8" y="165.3" class="st8" width="288" height="15"/>
<text transform="matrix(1 0 0 1 932.8471 183.0644)" class="st9"><tspan x="0" y="0" class="st14 st13 st12">오디오</tspan><tspan x="42" y="0" class="st14 st11 st12"> </tspan><tspan x="45.3" y="0" class="st14 st13 st12">텍스트</tspan><tspan x="87.3" y="0" class="st14 st11 st12"> </tspan><tspan x="90.6" y="0" class="st14 st13 st12">변환</tspan><tspan x="118.6" y="0" class="st14 st11 st12">, </tspan><tspan x="125.7" y="0" class="st14 st13 st12">감상</tspan><tspan x="153.7" y="0" class="st14 st11 st12"> </tspan><tspan x="157" y="0" class="st14 st13 st12">분석</tspan></text>
<rect x="449.7" y="43.3" class="st8" width="189.3" height="17"/>
<text transform="matrix(1 0 0 1 484.132 53.7292)" class="st9"><tspan x="0" y="0" class="st14 st13 st12">데이터</tspan><tspan x="42" y="0" class="st14 st11 st12"> </tspan><tspan x="45.3" y="0" class="st14 st13 st12">뷰</tspan><tspan x="59.3" y="0" class="st14 st11 st12"> </tspan><tspan x="62.6" y="0" class="st14 st13 st12">제공</tspan></text>
<rect x="660.9" y="107.3" class="st8" width="65" height="17"/>
<text transform="matrix(1 0 0 1 673.3192 117.7237)" class="st14 st13 st12">사용자</text>
<rect x="225.5" y="313.9" class="st8" width="209" height="16.5"/>
<text transform="matrix(1 0 0 1 238.6908 324.3175)" class="st9"><tspan x="0" y="0" class="st14 st11 st12">Postgres </tspan><tspan x="58.4" y="0" class="st14 st13 st12">데이터베이스</tspan><tspan x="142.4" y="0" class="st14 st11 st12"> </tspan><tspan x="145.7" y="0" class="st14 st13 st12">작성</tspan></text>
<rect x="225.5" y="211.9" class="st8" width="209" height="16.5"/>
<text transform="matrix(1 0 0 1 244.6551 222.2474)" class="st14 st11 st12">Node.js, Express, GraphQL</text>
<rect x="28" y="245.4" class="st8" width="70.9" height="16.5"/>
<text transform="matrix(1 0 0 1 44.9201 255.7475)" class="st14 st11 st12">Cloud</text>
<rect x="29.6" y="638.7" class="st8" width="70.9" height="16.5"/>
<text transform="matrix(1 0 0 1 31.2936 649.0839)" class="st9"><tspan x="0" y="0" class="st14 st13 st12">에지</tspan><tspan x="28" y="0" class="st14 st11 st12"> </tspan><tspan x="31.3" y="0" class="st14 st13 st12">노드</tspan></text>
<rect x="19.4" y="92.3" class="st8" width="88.1" height="16.5"/>
<text transform="matrix(1 0 0 1 26.4524 102.73)" class="st9"><tspan x="0" y="0" class="st14 st13 st12">웹</tspan><tspan x="14" y="0" class="st14 st11 st12"> </tspan><tspan x="17.3" y="0" class="st14 st13 st12">브라우저</tspan></text>
<rect x="565.5" y="209.8" class="st8" width="158.1" height="15.6"/>
<text transform="matrix(1 0 0 1 565.5397 221.7181)" class="st9"><tspan x="0" y="0" class="st10 st15 st16">IBM </tspan><tspan x="34" y="0" class="st10 st13 st16">기능</tspan></text>
<rect x="588.6" y="466.9" class="st8" width="207.9" height="15.6"/>
<text transform="matrix(1 0 0 1 622.2175 478.7265)" class="st10 st15 st16">IBM Event Streams</text>
<rect x="597.5" y="679.4" class="st8" width="192" height="15.6"/>
<text transform="matrix(1 0 0 1 612.4264 693.9503)" class="st9"><tspan x="0" y="0" class="st10 st15 st16">Open Horizon </tspan><tspan x="103.5" y="0" class="st10 st13 st16">에이전트</tspan></text>
<rect x="914.5" y="301.9" class="st8" width="288" height="41"/>
<rect x="913.5" y="209.9" class="st8" width="288" height="41"/>
<rect x="44.8" y="362.7" class="st8" width="99.4" height="15.6"/>
<text transform="matrix(1 0 0 1 44.8409 374.5701)" class="st9"><tspan x="0" y="0" class="st14 st13 st16">에지</tspan><tspan x="32" y="0" class="st14 st15 st16"> </tspan><tspan x="35.8" y="0" class="st14 st13 st16">노드</tspan></text>
<rect x="245.5" y="53" class="st8" width="181.3" height="30.6"/>
<text transform="matrix(1 0 0 1 245.5403 63.3699)"><tspan x="0" y="0" class="st10 st13 st12">데이터</tspan><tspan x="42" y="0" class="st10 st11 st12"> </tspan><tspan x="45.3" y="0" class="st10 st13 st12">뷰</tspan><tspan x="59.3" y="0" class="st10 st11 st12"> </tspan><tspan x="62.6" y="0" class="st10 st13 st12">제공 </tspan><tspan x="0" y="16.8" class="st10 st11 st12">(React, GraphQL)</tspan></text>
<rect x="352.2" y="153" class="st8" width="129.3" height="30.6"/>
<text transform="matrix(1 0 0 1 352.2066 163.3699)"><tspan x="0" y="0" class="st14 st11 st12">UI </tspan><tspan x="18.4" y="0" class="st14 st13 st12">제공</tspan><tspan x="46.4" y="0" class="st14 st11 st12">, </tspan><tspan x="53.5" y="0" class="st14 st13 st12">브라우저로</tspan><tspan x="123.5" y="0" class="st14 st11 st12"> </tspan><tspan x="0" y="16.8" class="st14 st13 st12">데이터</tspan><tspan x="42" y="16.8" class="st14 st11 st12"> </tspan><tspan x="45.3" y="16.8" class="st14 st13 st12">전송</tspan></text>
<rect x="346.2" y="255" class="st8" width="168.7" height="30.6"/>
<text transform="matrix(1 0 0 1 346.2069 265.3701)"><tspan x="0" y="0" class="st14 st13 st12">데이터베이스에</tspan><tspan x="98" y="0" class="st14 st11 st12"> </tspan><tspan x="0" y="16.8" class="st14 st13 st12">인사이트</tspan><tspan x="56" y="16.8" class="st14 st11 st12">(</tspan><tspan x="60.7" y="16.8" class="st14 st13 st12">감상</tspan><tspan x="88.7" y="16.8" class="st14 st11 st12">)</tspan><tspan x="93.4" y="16.8" class="st14 st13 st12">만</tspan><tspan x="107.4" y="16.8" class="st14 st11 st12"> </tspan><tspan x="110.7" y="16.8" class="st14 st13 st12">저장</tspan></text>
<rect x="346.9" y="614.3" class="st8" width="192.7" height="48"/>
<text transform="matrix(1 0 0 1 346.8734 624.7034)"><tspan x="0" y="0" class="st14 st13 st12">머신</tspan><tspan x="28" y="0" class="st14 st11 st12"> </tspan><tspan x="31.3" y="0" class="st14 st13 st12">러닝을</tspan><tspan x="73.3" y="0" class="st14 st11 st12"> </tspan><tspan x="76.6" y="0" class="st14 st13 st12">사용하여</tspan><tspan x="132.6" y="0" class="st14 st11 st12"> </tspan><tspan x="135.9" y="0" class="st14 st13 st12">최상의</tspan><tspan x="177.9" y="0" class="st14 st11 st12"> </tspan><tspan x="0" y="16.8" class="st14 st13 st12">토킹</tspan><tspan x="28" y="16.8" class="st14 st11 st12"> </tspan><tspan x="31.3" y="16.8" class="st14 st13 st12">스테이션을</tspan><tspan x="101.3" y="16.8" class="st14 st11 st12"> </tspan><tspan x="104.6" y="16.8" class="st14 st13 st12">선택하고</tspan><tspan x="160.6" y="16.8" class="st14 st11 st12"> </tspan><tspan x="0" y="33.6" class="st14 st13 st12">클라우드로</tspan><tspan x="70" y="33.6" class="st14 st11 st12"> </tspan><tspan x="73.3" y="33.6" class="st14 st13 st12">오디오</tspan><tspan x="115.3" y="33.6" class="st14 st11 st12"> </tspan><tspan x="118.6" y="33.6" class="st14 st13 st12">보내기</tspan></text>
<rect x="350.9" y="723" class="st8" width="152.7" height="30.6"/>
<text transform="matrix(1 0 0 1 350.8736 733.3707)"><tspan x="0" y="0" class="st14 st13 st12">라디오</tspan><tspan x="42" y="0" class="st14 st11 st12"> </tspan><tspan x="45.3" y="0" class="st14 st13 st12">스테이션에서</tspan><tspan x="129.3" y="0" class="st14 st11 st12"> </tspan><tspan x="0" y="16.8" class="st14 st13 st12">오디오</tspan><tspan x="42" y="16.8" class="st14 st11 st12"> </tspan><tspan x="45.3" y="16.8" class="st14 st13 st12">클립</tspan><tspan x="73.3" y="16.8" class="st14 st11 st12"> </tspan><tspan x="76.6" y="16.8" class="st14 st13 st12">검색</tspan></text>
<rect x="712.2" y="404.3" class="st8" width="158" height="30.6"/>
<text transform="matrix(1 0 0 1 712.2071 414.7036)"><tspan x="0" y="0" class="st14 st13 st12">메시지가</tspan><tspan x="56" y="0" class="st14 st11 st12"> </tspan><tspan x="59.3" y="0" class="st14 st13 st12">소프트웨어</tspan><tspan x="129.3" y="0" class="st14 st11 st12"> </tspan><tspan x="0" y="16.8" class="st14 st13 st12">정의</tspan><tspan x="28" y="16.8" class="st14 st11 st12"> </tspan><tspan x="31.3" y="16.8" class="st14 st13 st12">라디오</tspan><tspan x="73.3" y="16.8" class="st14 st11 st12"> </tspan><tspan x="76.6" y="16.8" class="st14 st13 st12">작업</tspan><tspan x="104.6" y="16.8" class="st14 st11 st12"> </tspan><tspan x="107.9" y="16.8" class="st14 st13 st12">트리거</tspan></text>
<rect x="934.2" y="220.3" class="st8" width="245.3" height="16"/>
<text transform="matrix(1 0 0 1 955.5948 232.1831)" class="st10 st15 st16">IBM Watson Speech to Text</text>
<rect x="961.5" y="300.3" class="st8" width="206.7" height="35.2"/>
<text transform="matrix(1 0 0 1 990.7621 312.1832)"><tspan x="0" y="0" class="st10 st15 st16">IBM Watson Natural </tspan><tspan x="-17.1" y="19.2" class="st10 st15 st16">Language Understanding</tspan></text>
</svg>
