<?xml version="1.0" encoding="utf-8"?>
<!-- Generator: Adobe Illustrator 21.1.0, SVG Export Plug-In . SVG Version: 6.00 Build 0)  -->
<svg version="1.1" id="Layer_1" xmlns="http://www.w3.org/2000/svg" xmlns:xlink="http://www.w3.org/1999/xlink" x="0px" y="0px"
	 viewBox="0 0 901.8 473.2" style="enable-background:new 0 0 901.8 473.2;" xml:space="preserve">
<style type="text/css">
	.st0{fill:#EDF5FF;}
	.st1{fill:#0F62FE;}
	.st2{fill:#001D6C;}
	.st3{fill:none;}
	.st4{enable-background:new    ;}
	.st5{fill:#F4F4F4;}
	.st6{font-family:'AdobeMyungjoStd-Medium-KSCpc-EUC-H';}
	.st7{font-size:16px;}
	.st8{font-family:'IBMPlexSans-Medium';}
	.st9{fill:#4589FF;}
	.st10{fill:#E3F6FF;}
	.st11{fill:#161616;}
	.st12{font-size:14px;}
	.st13{fill:#E5F6FF;}
	.st14{fill:none;stroke:#0F62FE;stroke-width:2;stroke-miterlimit:10;}
	.st15{fill:#8A3FFC;}
	.st16{fill:#FFFFFF;}
	.st17{fill:#24A148;}
	.st18{fill:#491D8B;}
	.st19{fill:#BEBEBE;}
	.st20{font-family:'IBMPlexSans';}
	.st21{fill:none;stroke:#BEBEBE;stroke-width:2;stroke-miterlimit:10;}
</style>
<g id="Group-2_13_" transform="translate(47.000000, 0.000000)">
	<circle id="Oval-Copy-3_15_" class="st0" cx="5.9" cy="35.6" r="24"/>
	<g id="icon_x2F_developer_3_" transform="translate(8.000000, 8.000000)">
		<path id="Shape_16_" class="st1" d="M-7.1,30.6c2.8,0,5,2.2,5,5v6h-2v-6c0-1.7-1.3-3-3-3h-4c-1.7,0-3,1.3-3,3v6h-2v-6
			c0-2.8,2.2-5,5-5H-7.1z M-9.1,18.6c2.8,0,5,2.2,5,5s-2.2,5-5,5s-5-2.2-5-5S-11.8,18.6-9.1,18.6z M6,17.5l1.9,0.4L5.5,28.3
			l-1.8-0.4L6,17.5z M0.8,19.2l1.4,1.2L0.1,23l2.1,2.6l-1.4,1.2l-3.1-3.7L0.8,19.2z M10.7,19.2l3.1,3.7l-3.1,3.7l-1.4-1.2l2.1-2.6
			l-2.1-2.6L10.7,19.2z M-9.1,20.6c-1.7,0-3,1.3-3,3c0,1.7,1.3,3,3,3s3-1.3,3-3C-6.1,21.9-7.4,20.6-9.1,20.6z"/>
	</g>
</g>
<rect id="Rectangle-Copy-12_2_" x="451.9" y="196.1" class="st2" width="216" height="73"/>
<rect x="467.9" y="212.1" class="st3" width="176" height="15.6"/>
<text transform="matrix(1 0 0 1 467.8871 223.9575)" class="st4"><tspan x="0" y="0" class="st5 st6 st7">관리</tspan><tspan x="32" y="0" class="st5 st8 st7"> </tspan><tspan x="35.8" y="0" class="st5 st6 st7">허브</tspan></text>
<rect id="Rectangle-Copy_2_" x="738.9" y="253.1" class="st9" width="152" height="194"/>
<rect x="754.9" y="269.3" class="st3" width="95" height="15.6"/>
<text transform="matrix(1 0 0 1 754.9028 281.1988)" class="st4"><tspan x="0" y="0" class="st5 st6 st7">에지</tspan><tspan x="32" y="0" class="st5 st8 st7"> </tspan><tspan x="35.8" y="0" class="st5 st6 st7">노드</tspan></text>
<g>
	<g id="Group-2_14_" transform="translate(21.000000, 0.000000)">
		<circle id="Oval-Copy-3_16_" class="st10" cx="515.9" cy="308.1" r="24"/>
		<g id="icon_x2F_policy-admin_3_" transform="translate(8.000000, 8.000000)">
			<path id="Shape_17_" class="st1" d="M502.9,303.1c2.8,0,5,2.2,5,5v6h-2v-6c0-1.7-1.3-3-3-3h-4c-1.7,0-3,1.3-3,3v6h-2v-6
				c0-2.8,2.2-5,5-5H502.9z M500.9,291.1c2.8,0,5,2.2,5,5s-2.2,5-5,5s-5-2.2-5-5C495.9,293.4,498.2,291.1,500.9,291.1z M519.5,291.1
				l1.4,1.4l-7.1,7.1l-3.9-3.9l1.4-1.4l2.5,2.5L519.5,291.1z M500.9,293.1c-1.7,0-3,1.3-3,3s1.3,3,3,3s3-1.3,3-3
				S502.6,293.1,500.9,293.1z"/>
		</g>
	</g>
	<rect x="489.1" y="342.7" class="st3" width="94.5" height="15.5"/>
	<text transform="matrix(1 0 0 1 492.1895 353.0736)" class="st11 st6 st12">관리자</text>
</g>
<g>
	<circle id="Oval-Copy-3_13_" class="st13" cx="832.9" cy="77.6" r="24"/>
	<path class="st1" d="M827.9,80.6c2.8,0,5,2.2,5,5v6h-2v-6c0-1.7-1.3-3-3-3h-4c-1.7,0-3,1.3-3,3v6h-2v-6c0-2.8,2.2-5,5-5H827.9z"/>
	<g>
		<g>
			<path class="st1" d="M825.9,68.6c-2.8,0-5,2.2-5,5c0,2.8,2.2,5,5,5s5-2.2,5-5C830.9,70.8,828.7,68.6,825.9,68.6z M825.9,76.6
				c-1.7,0-3-1.3-3-3c0-1.7,1.3-3,3-3s3,1.3,3,3C828.9,75.3,827.6,76.6,825.9,76.6z"/>
		</g>
	</g>
	<rect x="835.9" y="66.6" class="st14" width="4" height="4"/>
	<rect x="843.9" y="66.6" class="st14" width="4" height="4"/>
	<rect x="835.9" y="74.6" class="st14" width="4" height="4"/>
	<rect x="843.9" y="74.6" class="st14" width="4" height="4"/>
</g>
<rect id="Rectangle-Copy-18_4_" x="300.9" y="13.1" class="st15" width="120" height="96"/>
<rect x="316.9" y="29.1" class="st3" width="45" height="15.6"/>
<text transform="matrix(1 0 0 1 316.8871 40.9574)" class="st5 st6 st7">앱</text>
<rect id="Rectangle-Copy-10_4_" x="316.9" y="61.1" class="st16" width="88" height="32"/>
<rect x="340.9" y="72.1" class="st3" width="46" height="16"/>
<text transform="matrix(1 0 0 1 340.8871 82.4773)" class="st11 st6 st12">시크릿</text>
<rect x="324.9" y="69.1" class="st1" width="8" height="16"/>
<rect id="Rectangle-Copy-18_5_" x="300.9" y="125.1" class="st15" width="120" height="96"/>
<rect x="316.9" y="141.1" class="st3" width="73" height="15.6"/>
<text transform="matrix(1 0 0 1 316.8871 152.9574)" class="st5 st6 st7">서비스</text>
<rect id="Rectangle-Copy-10_5_" x="316.9" y="173.1" class="st16" width="88" height="32"/>
<rect x="340.9" y="184.1" class="st3" width="46" height="16"/>
<text transform="matrix(1 0 0 1 340.8871 194.4773)" class="st11 st6 st12">시크릿</text>
<rect x="324.9" y="181.1" class="st1" width="8" height="16"/>
<rect id="Rectangle-Copy-18_6_" x="754.9" y="335.1" class="st15" width="120" height="96"/>
<rect x="770.9" y="351.1" class="st3" width="73" height="15.6"/>
<text transform="matrix(1 0 0 1 770.8871 362.9574)" class="st5 st6 st7">서비스</text>
<rect id="Rectangle-Copy-10_8_" x="770.9" y="383.1" class="st16" width="88" height="32"/>
<rect x="794.9" y="394.1" class="st3" width="46" height="16"/>
<text transform="matrix(1 0 0 1 794.8872 404.4773)" class="st11 st6 st12">시크릿</text>
<rect x="778.9" y="391.1" class="st17" width="8" height="16"/>
<rect id="Rectangle-Copy-18_3_" x="130.9" y="285.1" class="st18" width="245" height="104"/>
<rect x="146.9" y="301.1" class="st3" width="75" height="15.6"/>
<text transform="matrix(1 0 0 1 146.8871 312.9574)" class="st5 st6 st7">정책</text>
<rect id="Rectangle-Copy-10_6_" x="140.9" y="333.1" class="st16" width="86" height="32"/>
<rect x="164.9" y="344.1" class="st3" width="46" height="16"/>
<text transform="matrix(1 0 0 1 164.8872 354.4773)" class="st11 st6 st12">시크릿</text>
<rect x="148.9" y="341.1" class="st1" width="8" height="16"/>
<rect id="Rectangle-Copy-10_7_" x="273.9" y="333.1" class="st16" width="86" height="32"/>
<rect x="297.9" y="344.1" class="st3" width="46" height="16"/>
<text transform="matrix(1 0 0 1 297.8871 354.4773)" class="st11 st6 st12">시크릿</text>
<rect x="281.9" y="341.1" class="st17" width="8" height="16"/>
<path id="Path-4_7_" class="st19" d="M240.9,349.1h19v-6l14,7l-14,7v-6h-19V349.1z"/>
<path id="Path-4_6_" class="st19" d="M259.9,349.1h-19v-6l-14,7l14,7v-6h19V349.1z"/>
<rect x="666.9" y="58.1" class="st3" width="115" height="16"/>
<text transform="matrix(1 0 0 1 671.148 68.5044)" class="st4"><tspan x="0" y="0" class="st11 st20 st12">5. </tspan><tspan x="15.5" y="0" class="st11 st6 st12">시크릿</tspan><tspan x="57.5" y="0" class="st11 st20 st12"> </tspan><tspan x="60.8" y="0" class="st11 st6 st12">작성</tspan></text>
<rect x="156.9" y="30.1" class="st3" width="127" height="16"/>
<text transform="matrix(1 0 0 1 156.9028 40.5044)" class="st4"><tspan x="0" y="0" class="st11 st20 st12">1. </tspan><tspan x="15.5" y="0" class="st11 st6 st12">앱</tspan><tspan x="29.5" y="0" class="st11 st20 st12"> </tspan><tspan x="32.8" y="0" class="st11 st6 st12">개발</tspan><tspan x="60.8" y="0" class="st11 st20 st12">/</tspan><tspan x="66.2" y="0" class="st11 st6 st12">테스트</tspan></text>
<rect x="156.9" y="71.1" class="st3" width="127" height="16"/>
<text transform="matrix(1 0 0 1 156.9028 81.5044)" class="st4"><tspan x="0" y="0" class="st11 st20 st12">2. </tspan><tspan x="15.5" y="0" class="st11 st6 st12">시크릿</tspan><tspan x="57.5" y="0" class="st11 st20 st12"> </tspan><tspan x="60.8" y="0" class="st11 st6 st12">정의</tspan></text>
<rect x="156.9" y="126.1" class="st3" width="127" height="16"/>
<text transform="matrix(1 0 0 1 156.9028 136.5044)" class="st4"><tspan x="0" y="0" class="st11 st20 st12">3. </tspan><tspan x="15.5" y="0" class="st11 st6 st12">앱</tspan><tspan x="29.5" y="0" class="st11 st20 st12"> </tspan><tspan x="32.8" y="0" class="st11 st6 st12">패키징</tspan></text>
<rect x="430.9" y="143.1" class="st3" width="132" height="16"/>
<text transform="matrix(1 0 0 1 430.9027 153.5044)" class="st4"><tspan x="0" y="0" class="st11 st20 st12">4. </tspan><tspan x="15.5" y="0" class="st11 st6 st12">서비스</tspan><tspan x="57.5" y="0" class="st11 st20 st12"> </tspan><tspan x="60.8" y="0" class="st11 st6 st12">공개</tspan></text>
<rect x="491.9" y="377.1" class="st3" width="203" height="16"/>
<text transform="matrix(1 0 0 1 491.9027 387.5044)" class="st4"><tspan x="0" y="0" class="st11 st20 st12">6. </tspan><tspan x="15.5" y="0" class="st11 st6 st12">배치</tspan><tspan x="43.5" y="0" class="st11 st20 st12"> </tspan><tspan x="46.8" y="0" class="st11 st6 st12">정책</tspan><tspan x="74.8" y="0" class="st11 st20 st12"> </tspan><tspan x="78.1" y="0" class="st11 st6 st12">작성</tspan></text>
<rect x="491.9" y="401.1" class="st3" width="203" height="16"/>
<text transform="matrix(1 0 0 1 491.9027 411.5044)" class="st4"><tspan x="0" y="0" class="st11 st20 st12">7. </tspan><tspan x="15.5" y="0" class="st11 st6 st12">시크릿</tspan><tspan x="57.5" y="0" class="st11 st20 st12"> </tspan><tspan x="60.8" y="0" class="st11 st6 st12">바인드</tspan></text>
<rect x="491.9" y="425.1" class="st3" width="203" height="16"/>
<text transform="matrix(1 0 0 1 491.9027 435.5044)" class="st4"><tspan x="0" y="0" class="st11 st20 st12">8. </tspan><tspan x="15.5" y="0" class="st11 st6 st12">배치</tspan><tspan x="43.5" y="0" class="st11 st20 st12"> </tspan><tspan x="46.8" y="0" class="st11 st6 st12">정책</tspan><tspan x="74.8" y="0" class="st11 st20 st12"> </tspan><tspan x="78.1" y="0" class="st11 st6 st12">공개</tspan></text>
<rect x="684.9" y="193.1" class="st3" width="135" height="33"/>
<text transform="matrix(1 0 0 1 684.9028 203.5044)" class="st4"><tspan x="0" y="0" class="st11 st20 st12">9. </tspan><tspan x="15.5" y="0" class="st11 st6 st12">서비스가</tspan><tspan x="71.5" y="0" class="st11 st20 st12"> </tspan></text>
<text transform="matrix(1 0 0 1 684.9028 220.3044)" class="st4"><tspan x="0" y="0" class="st11 st6 st12">시크릿과</tspan><tspan x="56" y="0" class="st11 st20 st12"> </tspan><tspan x="59.3" y="0" class="st11 st6 st12">함께</tspan><tspan x="87.3" y="0" class="st11 st20 st12"> </tspan><tspan x="90.6" y="0" class="st11 st6 st12">배치됨</tspan></text>
<g>
	<g>
		<polyline class="st21" points="420.9,162.1 572.9,162.1 572.9,186.1 		"/>
		<g>
			<polygon class="st19" points="565.9,184 572.9,196.1 579.9,184 			"/>
		</g>
	</g>
</g>
<g>
	<g>
		<polyline class="st21" points="92.9,35.1 143.9,35.1 143.9,51.1 290.9,51.1 		"/>
		<g>
			<polygon class="st19" points="288.8,58.1 300.9,51.1 288.8,44.1 			"/>
		</g>
	</g>
</g>
<g>
	<g>
		<polyline class="st21" points="92.9,53.1 125.9,53.1 125.9,91.1 290.9,91.1 		"/>
		<g>
			<polygon class="st19" points="288.8,98.1 300.9,91.1 288.8,84.1 			"/>
		</g>
	</g>
</g>
<g>
	<g>
		<polyline class="st21" points="92.9,71.1 107.9,71.1 107.9,147.1 290.9,147.1 		"/>
		<g>
			<polygon class="st19" points="288.8,154.1 300.9,147.1 288.8,140.1 			"/>
		</g>
	</g>
</g>
<g>
	<g>
		<line class="st21" x1="353.9" y1="285.1" x2="353.9" y2="232.2"/>
		<g>
			<polygon class="st19" points="360.9,234.2 353.9,222.1 346.9,234.2 			"/>
		</g>
	</g>
</g>
<g>
	<g>
		<polyline class="st21" points="478.9,279.2 478.9,450.1 249.9,450.1 249.9,389.1 		"/>
		<g>
			<polygon class="st19" points="471.9,281.2 478.9,269.1 485.9,281.2 			"/>
		</g>
	</g>
</g>
<g>
	<g>
		<polyline class="st21" points="667.9,230.1 828.9,230.1 828.9,243.1 		"/>
		<g>
			<polygon class="st19" points="821.9,241 828.9,253.1 835.9,241 			"/>
		</g>
	</g>
</g>
<g>
	<g id="Rectangle-Copy-10_9_">
		<rect x="555.4" y="60.6" class="st16" width="87" height="33"/>
		<path class="st11" d="M641.9,61.1v32h-86v-32H641.9 M642.9,60.1h-1h-86h-1v1v32v1h1h86h1v-1v-32V60.1L642.9,60.1z"/>
	</g>
	<rect x="579.9" y="72.1" class="st3" width="46" height="16"/>
	<text transform="matrix(1 0 0 1 579.8872 82.4773)" class="st11 st6 st12">시크릿</text>
	<rect x="563.9" y="69.1" class="st17" width="8" height="16"/>
</g>
<g>
	<g>
		<line class="st21" x1="795.9" y1="77.1" x2="653" y2="77.1"/>
		<g>
			<polygon class="st19" points="655,70.1 642.9,77.1 655,84.1 			"/>
		</g>
	</g>
</g>
<g>
	<g>
		<line class="st21" x1="598.9" y1="94.1" x2="598.9" y2="186.1"/>
		<g>
			<polygon class="st19" points="591.9,184 598.9,196.1 605.9,184 			"/>
		</g>
	</g>
</g>
<rect x="16.9" y="64.4" class="st3" width="69" height="30.6"/>
<text transform="matrix(1 0 0 1 23.3871 74.5754)"><tspan x="0" y="0" class="st11 st6 st12">소프트웨</tspan><tspan x="-1.7" y="17" class="st11 st6 st12">어</tspan><tspan x="12.3" y="17" class="st11 st20 st12"> </tspan><tspan x="15.7" y="17" class="st11 st6 st12">개발자</tspan></text>
<text transform="matrix(1 0 0 1 795.8871 122.2576)"><tspan x="0" y="0" class="st11 st6 st12">조직</tspan><tspan x="28" y="0" class="st11 st20 st12"> </tspan><tspan x="31.3" y="0" class="st11 st6 st12">관리자</tspan></text>
</svg>
