<svg xmlns="http://www.w3.org/2000/svg" xmlns:xlink="http://www.w3.org/1999/xlink" id="Layer_1" x="0" y="0" version="1.1" viewBox="0 0 912 817" xml:space="preserve" style="enable-background:new 0 0 912 817"><style type="text/css">.st0{fill:#408bfc}.st0,.st1,.st2{fill-rule:evenodd;clip-rule:evenodd}.st1{fill:#fff}.st2{fill:#8a3ffc}.st3{fill:none;stroke:#00bab6;stroke-width:2;stroke-dasharray:7}.st4{fill:#e3f6ff}.st4,.st5,.st6{fill-rule:evenodd;clip-rule:evenodd}.st5{fill:#0f62fe}.st6{fill:#009c98}.st7{fill:#bebebe}.st8{fill-rule:evenodd;clip-rule:evenodd;fill:#051b75}.st10{font-family:&apos;IBMPlexSans&apos;}.st11{font-size:14px}.st12{fill-rule:evenodd;clip-rule:evenodd;fill:none}.st13{fill:#161616}.st14{fill:#f4f4f4}.st15{font-family:&apos;IBMPlexSans-Medium&apos;}.st16{font-size:16px}.st17{fill:none}</style><rect id="Rectangle-Copy-14" width="370" height="180" x="480" y="637" class="st0"/><rect id="Rectangle-Copy-9" width="80" height="81" x="496" y="720" class="st1"/><rect id="Rectangle-Copy-18_1_" width="85" height="106" x="749" y="695" class="st2"/><path id="Rectangle-Copy-17" d="M505,32h357c22.1,0,40,17.9,40,40v222c0,22.1-17.9,40-40,40H505c-22.1,0-40-17.9-40-40	V72C465,49.9,482.9,32,505,32z" class="st3"/><path id="Rectangle-Copy-22" d="M41,120h237c22.1,0,40,17.9,40,40v94c0,22.1-17.9,40-40,40H41c-22.1,0-40-17.9-40-40	v-94C1,137.9,18.9,120,41,120z" class="st3"/><circle id="Oval-Copy-3" cx="58" cy="180" r="24" class="st4"/><path id="Shape" d="M53,183c2.8,0,5,2.2,5,5v6h-2v-6c0-1.7-1.3-3-3-3h-4c-1.7,0-3,1.3-3,3v6h-2v-6c0-2.8,2.2-5,5-5H53z M51,171c2.8,0,5,2.2,5,5s-2.2,5-5,5s-5-2.2-5-5S48.2,171,51,171z M72,172v8h-2v-8H72z M67,169v11h-2v-11H67z M62,174v6h-2v-6H62z M51,173c-1.7,0-3,1.3-3,3c0,1.7,1.3,3,3,3s3-1.3,3-3S52.7,173,51,173z" class="st5"/><circle id="Oval-Copy-3_1_" cx="529" cy="88" r="24" class="st4"/><path id="Shape_1_" d="M524,91c2.8,0,5,2.2,5,5v6h-2v-6c0-1.7-1.3-3-3-3h-4c-1.7,0-3,1.3-3,3v6h-2v-6c0-2.8,2.2-5,5-5	H524z M522,79c2.8,0,5,2.2,5,5s-2.2,5-5,5s-5-2.2-5-5S519.2,79,522,79z M537.1,77.9l1.8,0.4l-2.4,10.4l-1.8-0.4L537.1,77.9z M531.9,79.6l1.4,1.2l-2.1,2.6l2.1,2.6l-1.4,1.2l-3.1-3.7L531.9,79.6z M541.7,79.6l3.1,3.7l-3.1,3.7l-1.4-1.2l2.1-2.6l-2.1-2.6	L541.7,79.6z M522,81c-1.7,0-3,1.3-3,3c0,1.7,1.3,3,3,3s3-1.3,3-3S523.7,81,522,81z" class="st5"/><rect id="Rectangle-Copy-14_1_" width="260" height="155" x="540" y="422" class="st6"/><path id="Line-2-Copy-37" d="M828.5,302v77.3l-357,0V455H415v6l-14-7l14-7v6h54.5v-75.7l357,0V302H828.5z" class="st7"/><path id="Line-5-Copy-3" d="M828.3,498.5l0,1L827.8,623l6,0l-7.1,14l-6.9-14l6,0l0.4-122.5H800v-2H828.3z" class="st7"/><path id="Line-5-Copy-4" d="M526,447l14,7l-14,7v-6h-55.5v-2H526V447z" class="st7"/><rect id="Rectangle-Copy-18_2_" width="400" height="155" x="1" y="422" class="st8"/><rect id="Rectangle-Copy-16" width="80" height="81" x="305" y="479" class="st1"/><rect id="Rectangle-Copy-18_3_" width="104" height="81" x="673" y="64" class="st2"/><rect id="Rectangle-Copy-18_4_" width="85" height="106" x="785" y="196" class="st2"/><rect id="Rectangle-Copy-18_5_" width="85" height="106" x="497" y="196" class="st2"/><path id="Line-2-Copy-20" d="M659,97.1l14,6.9l-14,7.1l0-6l-92,0.4l-1,0l0-2l1,0l92-0.4L659,97.1z" class="st7"/><path id="Line-2-Copy-25" d="M187.5,177l14,7l-14,7v-6H94v-2h93.5V177z" class="st7"/><path id="Line-2-Copy-27" d="M483,201l14,7l-14,7v-6H286v-2h197V201z" class="st7"/><path id="Line-2-Copy-29" d="M771,242l14,7l-14,7v-6H582v-2h189V242z" class="st7"/><rect width="64.9" height="34.7" x="25" y="214.6" class="st12"/><text transform="matrix(1 0 0 1 42.5615 224.9954)"><tspan x="0" y="0" class="st13 st10 st11">Data </tspan><tspan x="-12.3" y="20" class="st13 st10 st11">scientist</tspan></text><rect width="93.5" height="16.3" x="94" y="162.8" class="st12"/><text class="st13 st10 st11" transform="matrix(1 0 0 1 108.0956 173.1962)">1. Creates</text><rect width="125.2" height="64.4" x="328.8" y="143.6" class="st12"/><text transform="matrix(1 0 0 1 349.1719 154.0051)"><tspan x="0" y="0" class="st13 st10 st11">2. Shares the </tspan><tspan x="-9" y="20" class="st13 st10 st11">application with </tspan><tspan x="-2.1" y="40" class="st13 st10 st11">the developer</tspan></text><rect width="188.3" height="37.3" x="582.2" y="204.6" class="st12"/><text transform="matrix(1 0 0 1 625.7371 214.9965)"><tspan x="0" y="0" class="st13 st10 st11">3. Packages the</tspan><tspan x="-29.3" y="20" class="st13 st10 st11">application into a service</tspan></text><rect width="74.1" height="34.8" x="491.3" y="122.6" class="st12"/><text transform="matrix(1 0 0 1 499.6205 132.9903)"><tspan x="0" y="0" class="st13 st10 st11">Software </tspan><tspan x="-3.3" y="20" class="st13 st10 st11">developer</tspan></text><rect width="74.1" height="14.9" x="575.9" y="79.6" class="st12"/><text class="st13 st10 st11" transform="matrix(1 0 0 1 588.7766 89.9882)">Installs</text><rect width="170.9" height="14.9" x="630.4" y="354.7" class="st12"/><text class="st13 st10 st11" transform="matrix(1 0 0 1 648.5811 365.0254)">4. Publishes services</text><rect width="73" height="39.2" x="839" y="545.6" class="st12"/><text transform="matrix(1 0 0 1 838.9998 555.9907)"><tspan x="0" y="0" class="st13 st10 st11">5. Pulls </tspan><tspan x="0" y="20" class="st13 st10 st11">containers</tspan></text><rect width="80" height="14.9" x="305" y="512.7" class="st12"/><text class="st13 st10 st11" transform="matrix(1 0 0 1 329.4114 523.0237)">MMS</text><rect width="65.8" height="37.9" x="502" y="744.6" class="st12"/><text transform="matrix(1 0 0 1 518.9951 754.9815)"><tspan x="0" y="0" class="st13 st10 st11">Edge </tspan><tspan x="-2.1" y="20" class="st13 st10 st11">agent</tspan></text><rect width="84.8" height="16.4" x="749" y="736.6" class="st12"/><text class="st14 st10 st11" transform="matrix(1 0 0 1 759.3896 746.9415)">AI service</text><rect width="104" height="14.9" x="673" y="96.6" class="st12"/><text class="st14 st10 st11" transform="matrix(1 0 0 1 702.3762 107.0062)">Docker</text><rect width="85" height="14.9" x="784.9" y="237.6" class="st12"/><text class="st14 st10 st11" transform="matrix(1 0 0 1 795.3751 247.9524)">AI service</text><rect width="85.2" height="34.7" x="496.8" y="230.1" class="st12"/><text transform="matrix(1 0 0 1 519.9266 240.4189)"><tspan x="0" y="0" class="st14 st10 st11">AI/ML </tspan><tspan x="-16.2" y="20" class="st14 st10 st11">application</tspan></text><rect width="236.1" height="15.6" x="17" y="442.1" class="st12"/><text class="st14 st15 st16" transform="matrix(1 0 0 1 17.0002 453.9669)">Management hub</text><rect width="236.1" height="15.6" x="496" y="657.2" class="st12"/><text class="st14 st15 st16" transform="matrix(1 0 0 1 496.0002 668.9938)">Edge node</text><rect width="236.1" height="15.6" x="34" y="92.2" class="st12"/><text class="st13 st15 st16" transform="matrix(1 0 0 1 33.9919 104.0068)">Data scientist environment</text><rect width="236.1" height="15.6" x="497" y="4.2" class="st12"/><text class="st13 st15 st16" transform="matrix(1 0 0 1 497.0002 15.9909)">Developer environment</text><rect id="Rectangle-Copy-18_6_" width="85" height="120" x="201" y="154" class="st2"/><rect width="80.6" height="74.6" x="203.1" y="176.7" class="st12"/><text transform="matrix(1 0 0 1 223.9288 187.0765)"><tspan x="0" y="0" class="st14 st10 st11">AI/ML </tspan><tspan x="-16.2" y="20" class="st14 st10 st11">application </tspan><tspan x="-3.9" y="40" class="st14 st10 st11">with its </tspan><tspan x="-.7" y="60" class="st14 st10 st11">model</tspan></text><rect width="162.3" height="15.6" x="576" y="443.1" class="st12"/><text class="st14 st15 st16" transform="matrix(1 0 0 1 575.9996 454.9651)">Container registry</text><g><path d="M568,442.7h-8c-0.6,0-1,0.4-1,1v11c0,0.6,0.4,1,1,1h8c0.6,0,1-0.4,1-1v-11C569,443.1,568.6,442.7,568,442.7z M568,443.7v3h-8v-3H568z M560,450.7v-3h8v3H560z M560,454.7v-3h8v3H560z" class="st14"/><circle cx="561.5" cy="445.2" r=".5" class="st14"/><circle cx="561.5" cy="449.2" r=".5" class="st14"/><circle cx="561.5" cy="453.2" r=".5" class="st14"/><rect id="_x3C_Transparent_Rectangle_x3E__616_" width="16" height="16" x="556" y="441.2" class="st17"/></g></svg>