<svg xmlns="http://www.w3.org/2000/svg" xmlns:xlink="http://www.w3.org/1999/xlink" id="Layer_1" x="0" y="0" version="1.1" viewBox="0 0 1183 926" xml:space="preserve" style="enable-background:new 0 0 1183 926"><style type="text/css">.st0{fill:#6e32c9}.st0,.st1,.st2{fill-rule:evenodd;clip-rule:evenodd}.st1{fill:#4f2196}.st2{stroke:#e0e0e0}.st2,.st3{fill:#fff}.st3,.st4,.st5,.st6{fill-rule:evenodd;clip-rule:evenodd}.st4{fill:#c9deff}.st5{fill:#408bfc}.st6{fill:#054ada}.st7{stroke-linecap:square}.st7,.st8{fill:none;stroke:#054ada}.st9{fill:#bebebe}.st10,.st11{fill-rule:evenodd;clip-rule:evenodd;fill:#24a148}.st11{fill:none}.st12{fill:#f4f4f4}.st13{font-family:&apos;IBMPlexSans-Medium&apos;}.st14{font-size:16px}.st15{fill:#161616}.st16{font-family:&apos;IBMPlexSans&apos;}.st17{font-family:&apos;IBMPlexSans-Bold&apos;}.st18{font-size:14px}</style><rect id="Rectangle-Copy-14" width="281" height="663" x="21" y="263" class="st0"/><rect id="Rectangle-Copy-14_1_" width="667" height="663" x="495" y="263" class="st1"/><rect id="Rectangle" width="144" height="37" x=".5" y=".5" class="st2"/><rect id="Rectangle-Copy-28" width="144" height="76" x=".5" y="37.5" class="st2"/><rect id="Rectangle-Copy-31" width="144" height="79" x=".5" y="114.5" class="st2"/><rect id="Rectangle-Copy-29" width="260" height="76" x="143.5" y="37.5" class="st2"/><rect id="Rectangle-Copy-33" width="260" height="76" x="403.5" y="37.5" class="st2"/><rect id="Rectangle-Copy-36" width="260" height="76" x="663.5" y="37.5" class="st2"/><rect id="Rectangle-Copy-39" width="260" height="76" x="922.5" y="37.5" class="st2"/><rect id="Rectangle-Copy-32" width="260" height="79" x="143.5" y="114.5" class="st2"/><rect id="Rectangle-Copy-34" width="260" height="79" x="403.5" y="114.5" class="st2"/><rect id="Rectangle-Copy-37" width="260" height="79" x="663.5" y="114.5" class="st2"/><rect id="Rectangle-Copy-40" width="260" height="79" x="922.5" y="114.5" class="st2"/><rect id="Rectangle-Copy-26" width="260" height="37" x="143.5" y=".5" class="st2"/><rect id="Rectangle-Copy-35" width="260" height="37" x="403.5" y=".5" class="st2"/><rect id="Rectangle-Copy-38" width="260" height="37" x="663.5" y=".5" class="st2"/><rect id="Rectangle-Copy-41" width="260" height="37" x="922.5" y=".5" class="st2"/><rect id="Rectangle-Copy-30" width="217" height="264" x="53" y="334" class="st3"/><path id="Default-Copy-4" d="M85,398h129c8.8,0,16,7.2,16,16l0,0c0,8.8-7.2,16-16,16H85c-8.8,0-16-7.2-16-16l0,0	C69,405.2,76.2,398,85,398z" class="st4"/><rect id="Rectangle-Copy-45" width="217" height="264" x="53" y="630" class="st3"/><rect id="Rectangle-Copy-46" width="603" height="264" x="527" y="334" class="st3"/><rect id="Rectangle_1_" width="286" height="184" x="543" y="398" class="st5"/><rect id="Rectangle-Copy-43" width="286" height="184" x="829" y="398" class="st6"/><rect id="Default" width="100" height="32" x="558" y="462" class="st4"/><rect id="Default-Copy" width="100" height="32" x="558" y="534" class="st4"/><rect id="Default_1_" width="85" height="32" x="662" y="462" class="st4"/><rect id="Default-Copy-2" width="85" height="32" x="662" y="534" class="st4"/><rect id="Default_2_" width="39" height="32" x="751" y="462" class="st4"/><rect id="Default-Copy-3" width="62" height="32" x="751" y="534" class="st4"/><line id="Line-3" x1="616" x2="813.5" y1="514.5" y2="514.5" class="st7"/><line id="Line-3-Copy" x1="558" x2="566" y1="514" y2="514" class="st8"/><rect id="Field-color" width="42" height="24" x="570" y="502" class="st4"/><rect id="Rectangle-Copy-47" width="603" height="264" x="527" y="630" class="st3"/><rect id="Rectangle_2_" width="286" height="184" x="543" y="694" class="st5"/><rect id="Rectangle-Copy-43_1_" width="286" height="184" x="829" y="694" class="st6"/><path id="Line-9" d="M527,459c3.9,0,7,3.1,7,7s-3.1,7-7,7c-3.5,0-6.4-2.6-6.9-6l-235.6,0v6l-14-7l14-7v6h235.6	c0.5-3.3,3.3-5.9,6.7-6L527,459z" class="st9"/><path id="Line-9-Copy" d="M513,755l14,7l-14,7v-6l-235.6,0c-0.5,3.3-3.3,5.9-6.7,6l-0.2,0c-3.9,0-7-3.1-7-7s3.1-7,7-7	c3.5,0,6.4,2.6,6.9,6H513V755z" class="st9"/><circle id="Oval" cx="399" cy="466" r="20" class="st3"/><path id="path-1_1_" d="M406,462.4l-1.4-1.4l-7.6,7.6l-3.6-3.6l-1.4,1.4l5,5L406,462.4z M399,452c-7.7,0-14,6.3-14,14	s6.3,14,14,14s14-6.3,14-14S406.7,452,399,452z M399,478c-6.6,0-12-5.4-12-12s5.4-12,12-12s12,5.4,12,12S405.6,478,399,478z" class="st10"/><circle id="Oval_1_" cx="399" cy="762" r="20" class="st3"/><path id="path-3_1_" d="M406,758.4l-1.4-1.4l-7.6,7.6l-3.6-3.6l-1.4,1.4l5,5L406,758.4z M399,748c-7.7,0-14,6.3-14,14	s6.3,14,14,14s14-6.3,14-14S406.7,748,399,748z M399,774c-6.6,0-12-5.4-12-12s5.4-12,12-12s12,5.4,12,12S405.6,774,399,774z" class="st10"/><rect width="236.1" height="15.6" x="511" y="283.2" class="st11"/><text class="st12 st13 st14" transform="matrix(1 0 0 1 511.0002 295.0103)">Deployment policy</text><rect width="236.1" height="15.6" x="542.9" y="354.2" class="st11"/><text class="st15 st16 st14" transform="matrix(1 0 0 1 542.886 366.0135)">Constraints</text><rect width="236.1" height="15.6" x="542.9" y="650.1" class="st11"/><text class="st15 st16 st14" transform="matrix(1 0 0 1 542.886 661.9528)">Properties</text><rect width="179.7" height="15.6" x="69" y="354.2" class="st11"/><text class="st15 st16 st14" transform="matrix(1 0 0 1 69.0002 366.0135)">Node properties</text><rect width="179.7" height="15.6" x="69" y="650.2" class="st11"/><text class="st15 st16 st14" transform="matrix(1 0 0 1 69.0002 662.0065)">Node constraints</text><rect width="236.1" height="15.6" x="37" y="283.2" class="st11"/><text class="st12 st13 st14" transform="matrix(1 0 0 1 37.0001 295.0103)">Node policy</text><rect width="237.4" height="19.1" x="150" y="13.1" class="st11"/><text class="st15 st17 st14" transform="matrix(1 0 0 1 150 24.9895)">Node policy</text><rect width="129.5" height="19.1" x="5" y="50.2" class="st11"/><text class="st15 st17 st14" transform="matrix(1 0 0 1 5 62.0046)">Role</text><rect width="129.5" height="19.1" x="5" y="127.1" class="st11"/><text class="st15 st17 st14" transform="matrix(1 0 0 1 5 138.9763)">Purpose</text><rect width="250.5" height="59.6" x="150" y="50.2" class="st11"/><text transform="matrix(1 0 0 1 150 62.0051)"><tspan x="0" y="0" class="st15 st16 st14">Node owner provides when </tspan><tspan x="0" y="20" class="st15 st16 st14">registering the node</tspan></text><rect width="250.5" height="59.6" x="150" y="127.1" class="st11"/><text transform="matrix(1 0 0 1 150 138.9767)"><tspan x="0" y="0" class="st15 st16 st14">Define the features the node has </tspan><tspan x="0" y="20" class="st15 st16 st14">and the intended purpose of the </tspan><tspan x="0" y="40" class="st15 st16 st14">node</tspan></text><rect width="186.2" height="29.8" x="69" y="711.6" class="st11"/><text class="st15 st16 st18" transform="matrix(1 0 0 1 69.0152 722.0035)">(Optional)</text><rect width="236.1" height="15.6" x="559" y="714.2" class="st11"/><text class="st12 st16 st14" transform="matrix(1 0 0 1 559.0001 725.9962)">Deployment properties</text><rect width="186.2" height="29.8" x="559" y="758.6" class="st11"/><text class="st12 st16 st18" transform="matrix(1 0 0 1 559 768.9775)">(Optional)</text><rect width="236.1" height="15.6" x="845" y="714.2" class="st11"/><text class="st12 st16 st14" transform="matrix(1 0 0 1 845.0001 725.9962)">Service properties</text><rect width="186.2" height="29.8" x="845" y="758.6" class="st11"/><text class="st12 st16 st18" transform="matrix(1 0 0 1 845 768.9775)">(Optional)</text><rect width="236.1" height="15.6" x="559" y="418.2" class="st11"/><text class="st12 st16 st14" transform="matrix(1 0 0 1 559.0001 430.0558)">Deployment constraints</text><rect width="236.1" height="15.6" x="845" y="418.2" class="st11"/><text class="st12 st16 st14" transform="matrix(1 0 0 1 845.0001 430.0558)">Service constraints</text><rect width="186.2" height="29.8" x="845" y="462.7" class="st11"/><text class="st12 st16 st18" transform="matrix(1 0 0 1 845 473.0371)">(Optional)</text><rect width="142.2" height="17.6" x="81" y="408.7" class="st11"/><text class="st15 st16 st18" transform="matrix(1 0 0 1 81 419.0175)">camera-type=motion</text><rect width="237.4" height="19.1" x="409" y="13.1" class="st11"/><text class="st15 st17 st14" transform="matrix(1 0 0 1 409 24.9895)">Service policy</text><rect width="250.5" height="59.6" x="409" y="50.2" class="st11"/><text transform="matrix(1 0 0 1 409 62.0051)"><tspan x="0" y="0" class="st15 st16 st14">Service developer provides when </tspan><tspan x="0" y="20" class="st15 st16 st14">publishing the service</tspan></text><rect width="250.5" height="59.6" x="409" y="127.1" class="st11"/><text transform="matrix(1 0 0 1 409 138.9767)"><tspan x="0" y="0" class="st15 st16 st14">Define what the service needs on </tspan><tspan x="0" y="20" class="st15 st16 st14">an edge node to run properly and </tspan><tspan x="0" y="40" class="st15 st16 st14">its intent</tspan></text><rect width="237.4" height="19.1" x="669" y="13.1" class="st11"/><text class="st15 st17 st14" transform="matrix(1 0 0 1 669.0275 24.9895)">Deployment policy</text><rect width="250.5" height="59.6" x="669" y="50.2" class="st11"/><text transform="matrix(1 0 0 1 669.0275 62.0051)"><tspan x="0" y="0" class="st15 st16 st14">Policy administrator provides </tspan><tspan x="0" y="20" class="st15 st16 st14">when deploying the service</tspan></text><rect width="250.5" height="59.6" x="669" y="127.1" class="st11"/><text transform="matrix(1 0 0 1 669.0275 138.9767)"><tspan x="0" y="0" class="st15 st16 st14">Define where the service should </tspan><tspan x="0" y="20" class="st15 st16 st14">run</tspan></text><rect width="237.4" height="19.1" x="929" y="13.1" class="st11"/><text class="st15 st17 st14" transform="matrix(1 0 0 1 929 24.9895)">Model policy</text><rect width="239.4" height="59.6" x="929" y="50.2" class="st11"/><text transform="matrix(1 0 0 1 929 62.0046)"><tspan x="0" y="0" class="st15 st16 st14">Model creator or data scientist </tspan><tspan x="0" y="20" class="st15 st16 st14">provides when creating the </tspan><tspan x="0" y="40" class="st15 st16 st14">model</tspan></text><rect width="250.5" height="59.6" x="929" y="127.1" class="st11"/><text transform="matrix(1 0 0 1 929 138.9767)"><tspan x="0" y="0" class="st15 st16 st14">Further limit the edge node that </tspan><tspan x="0" y="20" class="st15 st16 st14">this model is deployed to</tspan></text><rect width="100.1" height="17.6" x="557.9" y="472.6" class="st11"/><text class="st15 st16 st18" transform="matrix(1 0 0 1 567.0018 482.9886)">camera-type</text><rect width="85" height="17.6" x="662" y="472.6" class="st11"/><text class="st15 st16 st18" transform="matrix(1 0 0 1 671.3695 482.9886)">is equal to</text><rect width="39.4" height="17.6" x="751" y="472.6" class="st11"/><text class="st15 st16 st18" transform="matrix(1 0 0 1 758.9452 482.9886)">still</text><rect width="100.1" height="17.6" x="557.9" y="544.8" class="st11"/><text class="st15 st16 st18" transform="matrix(1 0 0 1 567.0018 555.1802)">camera-type</text><rect width="36.5" height="13.9" x="572.7" y="508.7" class="st11"/><text class="st15 st16 st18" transform="matrix(1 0 0 1 581.4539 519.0385)">OR</text><rect width="85" height="17.6" x="662" y="544.8" class="st11"/><text class="st15 st16 st18" transform="matrix(1 0 0 1 671.3695 555.1802)">is equal to</text><rect width="62" height="17.6" x="751" y="544.8" class="st11"/><text class="st15 st16 st18" transform="matrix(1 0 0 1 759.4813 555.1802)">motion</text></svg>