<svg xmlns="http://www.w3.org/2000/svg" id="Layer_1" data-name="Layer 1" viewBox="0 0 939.95 618.71"><defs><style>.cls-1,.cls-15,.cls-18,.cls-38,.cls-6,.cls-9{fill:none}.cls-1{stroke:#4067b1}.cls-1,.cls-15,.cls-18,.cls-20,.cls-38,.cls-6,.cls-68,.cls-9,.cls-95{stroke-miterlimit:10}.cls-1,.cls-18,.cls-20,.cls-6,.cls-68,.cls-9,.cls-95{stroke-width:2px}.cls-11,.cls-2,.cls-79{font-size:14px}.cls-2{fill:#343434}.cls-11,.cls-2,.cls-31,.cls-43,.cls-79{font-family:IBMPlexSans-Medium,IBM Plex Sans}.cls-3,.cls-4{letter-spacing:-.01em}.cls-5{fill:#983895}.cls-20,.cls-6{stroke:#038571}.cls-7{fill:#038571}.cls-13,.cls-8{font-size:11px}.cls-11,.cls-31,.cls-43,.cls-8,.cls-94{fill:#231f20}.cls-13,.cls-23,.cls-39,.cls-51,.cls-8,.cls-82,.cls-83,.cls-84,.cls-85,.cls-86,.cls-87{font-family:IBMPlexSans,IBM Plex Sans}.cls-68,.cls-9{stroke:#bc9a30}.cls-10{fill:#bc9a30}.cls-12,.cls-14{letter-spacing:-.01em}.cls-15{stroke:#7aa0d4;stroke-width:5px}.cls-16{fill:#7aa0d4}.cls-17{fill:#f2f6fc}.cls-18{stroke:#4272b8}.cls-19{fill:#4272b8}.cls-20{fill:#e2e8e6}.cls-21,.cls-22{letter-spacing:-.01em}.cls-23{font-size:9px}.cls-24,.cls-25{letter-spacing:-.01em}.cls-26{letter-spacing:0}.cls-27{letter-spacing:.01em}.cls-28,.cls-29{letter-spacing:-.01em}.cls-30{letter-spacing:0}.cls-31{font-size:13px}.cls-32{letter-spacing:-.01em}.cls-33{letter-spacing:0}.cls-34{letter-spacing:-.01em}.cls-35{letter-spacing:.01em}.cls-36{letter-spacing:-.02em}.cls-37{letter-spacing:0}.cls-38{stroke:#a4a4a5;stroke-width:2.11px}.cls-39,.cls-82,.cls-83,.cls-84,.cls-85,.cls-86,.cls-87{font-size:10.82px}.cls-39,.cls-79{fill:#010101}.cls-40{letter-spacing:-.01em}.cls-41{letter-spacing:0}.cls-42{letter-spacing:-.01em}.cls-43,.cls-51{font-size:12px}.cls-44,.cls-45{letter-spacing:0}.cls-46,.cls-47{letter-spacing:-.01em}.cls-48{letter-spacing:-.02em}.cls-49,.cls-50,.cls-52{letter-spacing:-.01em}.cls-53,.cls-54{letter-spacing:0}.cls-55{letter-spacing:-.01em}.cls-56{letter-spacing:-.02em}.cls-57{letter-spacing:-.01em}.cls-58{letter-spacing:.01em}.cls-59,.cls-60,.cls-61{letter-spacing:-.01em}.cls-62{letter-spacing:0}.cls-63{letter-spacing:.01em}.cls-64{letter-spacing:0}.cls-65,.cls-66{letter-spacing:-.01em}.cls-67{letter-spacing:0}.cls-68{fill:#f4dd9d}.cls-69,.cls-70{letter-spacing:-.01em}.cls-71,.cls-72,.cls-83{letter-spacing:0}.cls-73,.cls-74,.cls-86,.cls-87{letter-spacing:-.01em}.cls-75{letter-spacing:0}.cls-76{letter-spacing:-.01em}.cls-77{letter-spacing:0}.cls-78{letter-spacing:-.03em}.cls-80,.cls-81,.cls-84,.cls-89{letter-spacing:0}.cls-85{letter-spacing:.01em}.cls-88,.cls-90,.cls-91,.cls-92,.cls-93{letter-spacing:-.01em}.cls-94{font-size:21px;font-family:MyriadPro-Regular,Myriad Pro}.cls-95{fill:#b7e2e7;stroke:#94d5d8}</style></defs><title>components</title><polygon points="255.82 435.74 122.98 435.74 123.01 408.74 255.82 408.74 255.82 435.74" class="cls-1"/><polygon points="255.82 506.93 122.66 506.93 122.69 479.93 255.82 479.93 255.82 506.93" class="cls-1"/><polygon points="255.82 364.39 123.3 364.39 123.33 337.39 255.82 337.39 255.82 364.39" class="cls-1"/><text class="cls-2" transform="translate(355.39 102.81) scale(1.04 1)">D<tspan x="9.56" y="0" class="cls-3">e</tspan><tspan x="17.22" y="0" class="cls-4">v</tspan><tspan x="24.28" y="0">eloper</tspan></text><path d="M389.27,28.76c9.82,0,17.8,7.7,17.8,17.17s-8,17.17-17.8,17.17-17.8-7.7-17.8-17.17,8-17.17,17.8-17.17m0-3c-11.54,0-20.89,9-20.89,20.16s9.35,20.16,20.89,20.16,20.9-9,20.9-20.16-9.36-20.16-20.9-20.16Z" class="cls-5"/><path d="M371.83,70.57h34.89a5,5,0,0,1,5,5V85.5a0,0,0,0,1,0,0H366.83a0,0,0,0,1,0,0V75.57A5,5,0,0,1,371.83,70.57Z" class="cls-5"/><line x1="358.12" x2="272.23" y1="59.22" y2="59.22" class="cls-6"/><polygon points="273.54 54.73 265.77 59.22 273.54 63.71 273.54 54.73" class="cls-7"/><text class="cls-8" transform="translate(288.17 54.07)">Code for edge</text><line x1="420.12" x2="506.01" y1="59.22" y2="59.22" class="cls-9"/><polygon points="504.7 63.71 512.47 59.22 504.7 54.73 504.7 63.71" class="cls-10"/><text class="cls-8" transform="translate(421.66 54.07)">Code for cloud</text><text class="cls-11" transform="translate(33.7 405.59)">A<tspan x="9.27" y="0" class="cls-12">g</tspan><tspan x="16.7" y="0">ents</tspan><tspan x="44.63" y="0" class="cls-13" xml:space="preserve"> run </tspan><tspan class="cls-13"><tspan x="-.87" y="13.2">on each ed</tspan><tspan x="52.85" y="13.2" class="cls-14">g</tspan><tspan x="58.59" y="13.2">e </tspan><tspan x="19.47" y="26.4">node</tspan></tspan></text><line x1="715.2" x2="715.2" y1="298.57" y2="518.75" class="cls-15"/><polygon points="703.99 301.86 715.21 282.43 726.42 301.86 703.99 301.86" class="cls-16"/><polygon points="703.99 515.47 715.21 534.9 726.42 515.47 703.99 515.47" class="cls-16"/><line x1="586.08" x2="586.08" y1="168.17" y2="332.61" class="cls-9"/><polygon points="581.6 331.3 586.08 339.07 590.57 331.3 581.6 331.3" class="cls-10"/><line x1="256.56" x2="297.6" y1="495.05" y2="495.05" class="cls-6"/><polygon points="296.29 499.54 304.06 495.05 296.29 490.57 296.29 499.54" class="cls-7"/><line x1="256.19" x2="297.23" y1="422.94" y2="422.94" class="cls-6"/><polygon points="295.92 427.42 303.69 422.94 295.92 418.45 295.92 427.42" class="cls-7"/><line x1="256.19" x2="297.23" y1="350.89" y2="350.89" class="cls-6"/><polygon points="295.92 355.38 303.69 350.89 295.92 346.41 295.92 355.38" class="cls-7"/><line x1="669.19" x2="452.96" y1="245.48" y2="244.51" class="cls-17"/><line x1="669.19" x2="459.41" y1="245.48" y2="244.54" class="cls-18"/><polygon points="460.75 240.05 452.95 244.51 460.71 249.03 460.75 240.05" class="cls-19"/><line x1="356.77" x2="357.42" y1="320.4" y2="274.27" class="cls-17"/><line x1="356.77" x2="357.33" y1="320.4" y2="280.73" class="cls-18"/><polygon points="361.8 282.11 357.42 274.27 352.82 281.98 361.8 282.11" class="cls-19"/><line x1="237.87" x2="302.69" y1="145.08" y2="212.91" class="cls-6"/><polygon points="298.54 215.07 307.16 217.58 305.03 208.87 298.54 215.07" class="cls-7"/><line x1="182.93" x2="182.93" y1="168.77" y2="211.13" class="cls-6"/><polygon points="178.44 209.81 182.93 217.58 187.42 209.81 178.44 209.81" class="cls-7"/><line x1="182.93" x2="182.93" y1="266.06" y2="315.4" class="cls-6"/><polygon points="178.44 314.08 182.93 321.86 187.42 314.08 178.44 314.08" class="cls-7"/><rect width="116.32" height="27" x="317.79" y="337.32" class="cls-20"/><path d="M285.44,222.25H423.64a19.55,19.55,0,0,1,19.55,19.55v7.51a19.54,19.54,0,0,1-19.54,19.54H285.44a19.55,19.55,0,0,1-19.55-19.55V241.8a19.55,19.55,0,0,1,19.55-19.55Z" class="cls-17"/><path d="M423.64,223.25a18.56,18.56,0,0,1,18.54,18.54v7.52a18.56,18.56,0,0,1-18.54,18.54H285.44a18.56,18.56,0,0,1-18.54-18.54v-7.52a18.56,18.56,0,0,1,18.54-18.54h138.2m0-2H285.44a20.55,20.55,0,0,0-20.54,20.54v7.52a20.54,20.54,0,0,0,20.54,20.54h138.2a20.54,20.54,0,0,0,20.54-20.54v-7.52a20.55,20.55,0,0,0-20.54-20.54Z" class="cls-19"/><text class="cls-11" transform="translate(319.74 242.35) scale(1.05 1)">E<tspan x="8.3" y="0" class="cls-21">x</tspan><tspan x="15.53" y="0">chan</tspan><tspan x="46.59" y="0" class="cls-22">g</tspan><tspan x="54.03" y="0">e</tspan><tspan class="cls-23"><tspan x="-24.47" y="12.96">(Dis</tspan><tspan x="-8.78" y="12.96" class="cls-24">c</tspan><tspan x="-4.31" y="12.96" class="cls-25">ov</tspan><tspan x="5.02" y="12.96" class="cls-26">e</tspan><tspan x="9.96" y="12.96" class="cls-27">r</tspan><tspan x="13.35" y="12.96">y &amp; </tspan><tspan x="28.34" y="12.96" class="cls-28">P</tspan><tspan x="33.7" y="12.96" class="cls-26">a</tspan><tspan x="38.5" y="12.96" class="cls-29">t</tspan><tspan x="41.58" y="12.96" class="cls-30">t</tspan><tspan x="44.71" y="12.96" class="cls-26">ern Mgmt)</tspan></tspan></text><rect width="137.64" height="46.6" x="103.58" y="222.25" class="cls-17" rx="19.54" ry="19.54"/><path d="M221.67,223.25a18.57,18.57,0,0,1,18.55,18.54v7.52a18.56,18.56,0,0,1-18.55,18.54H123.13a18.56,18.56,0,0,1-18.55-18.54v-7.52a18.57,18.57,0,0,1,18.55-18.54h98.54m0-2H123.13a20.55,20.55,0,0,0-20.55,20.54v7.52a20.54,20.54,0,0,0,20.55,20.54h98.54a20.54,20.54,0,0,0,20.55-20.54v-7.52a20.55,20.55,0,0,0-20.55-20.54Z" class="cls-19"/><text class="cls-31" transform="translate(147.56 242.35) scale(1.05 1)"><tspan class="cls-32">R</tspan><tspan x="8.32" y="0" class="cls-33">egi</tspan><tspan x="25.97" y="0" class="cls-34">s</tspan><tspan x="32.3" y="0">t</tspan><tspan x="37.05" y="0" class="cls-35">r</tspan><tspan x="42.15" y="0">y </tspan><tspan class="cls-23"><tspan x="-21.06" y="12.96">(Doc</tspan><tspan x="-2.44" y="12.96" class="cls-36">k</tspan><tspan x="2.15" y="12.96">er Hub or </tspan><tspan x="41.81" y="12.96" class="cls-28">P</tspan><tspan x="47.17" y="12.96">ri</tspan><tspan x="52.72" y="12.96" class="cls-29">v</tspan><tspan x="57.07" y="12.96">a</tspan><tspan x="61.88" y="12.96" class="cls-37">t</tspan><tspan x="65" y="12.96">e)</tspan></tspan></text><path d="M367.54,591.12a24,24,0,0,1,0-48H469.68a24,24,0,0,1,0,48Z" class="cls-17"/><path d="M469.68,544.12a23,23,0,0,1,0,46H367.54a23,23,0,0,1,0-46H469.68m0-2H367.54a25,25,0,0,0-25,25h0a25,25,0,0,0,25,25H469.68a25,25,0,0,0,25-25h0a25,25,0,0,0-25-25Z" class="cls-19"/><rect width="341.85" height="44.84" x="114.43" y="328.39" class="cls-38"/><text class="cls-39" transform="translate(174.84 353.51)">A<tspan x="6.93" y="0" class="cls-40">g</tspan><tspan x="12.58" y="0" class="cls-41">ent</tspan></text><text class="cls-39" transform="translate(116.71 321.86)"><tspan class="cls-42">E</tspan><tspan x="6.2" y="0" class="cls-41">d</tspan><tspan x="12.47" y="0" class="cls-40">g</tspan><tspan x="18.12" y="0">e node</tspan></text><text class="cls-43" transform="translate(382.09 562.42) scale(1.05 1)">Swi<tspan x="19.94" y="0" class="cls-44">t</tspan><tspan x="24.28" y="0">chboa</tspan><tspan x="57.82" y="0" class="cls-45">r</tspan><tspan x="62.35" y="0">d</tspan><tspan class="cls-23"><tspan x="-9.77" y="12.96">(P2P Me</tspan><tspan x="23.92" y="12.96" class="cls-24">s</tspan><tspan x="28.25" y="12.96">sa</tspan><tspan x="37.44" y="12.96" class="cls-46">g</tspan><tspan x="42.14" y="12.96">e B</tspan><tspan x="55.08" y="12.96" class="cls-47">r</tspan><tspan x="58.34" y="12.96">o</tspan><tspan x="63.38" y="12.96" class="cls-48">k</tspan><tspan x="67.97" y="12.96" class="cls-26">er)</tspan></tspan></text><path d="M124.93,48.17V152.45c33.75,70.4,58,0,116,0V48.17Z" class="cls-20"/><text class="cls-11" transform="translate(138.25 64.75)">D<tspan x="9.56" y="0" class="cls-49">e</tspan><tspan x="17.22" y="0" class="cls-50">v</tspan><tspan x="24.28" y="0">eloper </tspan><tspan x="0" y="16.8">ed</tspan><tspan x="16.07" y="16.8" class="cls-12">g</tspan><tspan x="23.51" y="16.8">e </tspan><tspan x="34.59" y="16.8" class="cls-12">c</tspan><tspan x="41.65" y="16.8">ode</tspan><tspan class="cls-51"><tspan x="0" y="45.6">(A</tspan><tspan x="11.71" y="45.6" class="cls-52">n</tspan><tspan x="18.43" y="45.6" class="cls-53">y lan</tspan><tspan x="43.74" y="45.6" class="cls-54">g</tspan><tspan x="50.03" y="45.6">ua</tspan><tspan x="63.25" y="45.6" class="cls-55">g</tspan><tspan x="69.52" y="45.6" class="cls-56">e</tspan><tspan x="75.86" y="45.6">, </tspan><tspan x="0" y="60" class="cls-55">c</tspan><tspan x="5.96" y="60">ontaineri</tspan><tspan x="53.93" y="60" class="cls-57">z</tspan><tspan x="59.38" y="60">ed, </tspan><tspan x="0" y="74.4">c</tspan><tspan x="6.04" y="74.4" class="cls-58">r</tspan><tspan x="10.56" y="74.4">y</tspan><tspan x="16.55" y="74.4" class="cls-59">p</tspan><tspan x="23.44" y="74.4" class="cls-54">t</tspan><tspan x="27.6" y="74.4">og</tspan><tspan x="40.66" y="74.4" class="cls-54">r</tspan><tspan x="45.01" y="74.4">aphica</tspan><tspan x="80.64" y="74.4" class="cls-60">l</tspan><tspan x="83.84" y="74.4" class="cls-61">l</tspan><tspan x="86.99" y="74.4" class="cls-62">y </tspan><tspan x="0" y="88.8">self-signed)</tspan></tspan></text><text class="cls-8" transform="translate(187.25 186.39)">Push <tspan x="0" y="13.2" class="cls-14">c</tspan><tspan x="5.47" y="13.2">ontainers</tspan></text><text class="cls-8" transform="translate(278.77 151.09)">Sign and publish <tspan x="0" y="13.2">se</tspan><tspan x="11.4" y="13.2" class="cls-63">r</tspan><tspan x="15.54" y="13.2">vi</tspan><tspan x="23.71" y="13.2" class="cls-14">c</tspan><tspan x="29.17" y="13.2">e</tspan><tspan x="35.21" y="13.2" class="cls-64">s</tspan><tspan x="40.51" y="13.2">, depl</tspan><tspan x="67.89" y="13.2" class="cls-65">o</tspan><tspan x="74" y="13.2">yment </tspan><tspan x="0" y="26.4">pa</tspan><tspan x="12.25" y="26.4" class="cls-66">t</tspan><tspan x="16.02" y="26.4" class="cls-67">t</tspan><tspan x="19.83" y="26.4">erns</tspan></text><text class="cls-8" transform="translate(160.06 283.99)">Pu<tspan x="12.91" y="0" class="cls-64">l</tspan><tspan x="15.85" y="0">l </tspan><tspan x="-33.2" y="13.2" class="cls-14">c</tspan><tspan x="-27.73" y="13.2">ontainers</tspan></text><path d="M537.31,47.28V151.57c33.75,70.4,58,0,116,0V47.28Z" class="cls-68"/><text class="cls-11" transform="translate(546.3 65.88)">D<tspan x="9.56" y="0" class="cls-49">e</tspan><tspan x="17.22" y="0" class="cls-50">v</tspan><tspan x="24.28" y="0">eloper </tspan><tspan x="0" y="16.8">cloud </tspan><tspan x="38.74" y="16.8" class="cls-12">c</tspan><tspan x="45.79" y="16.8">ode</tspan><tspan class="cls-51"><tspan x="0" y="45.6">(Cloud machines </tspan><tspan x="0" y="60">can also be Hori</tspan><tspan x="86.15" y="60">-</tspan><tspan x="0" y="74.4" class="cls-57">z</tspan><tspan x="5.45" y="74.4">on ed</tspan><tspan x="35.36" y="74.4" class="cls-55">g</tspan><tspan x="41.63" y="74.4">e nodes)</tspan></tspan></text><text class="cls-8" transform="translate(593.55 189.12)">In<tspan x="10.65" y="0" class="cls-69">s</tspan><tspan x="15.93" y="0">ta</tspan><tspan x="25.66" y="0" class="cls-65">l</tspan><tspan x="28.6" y="0">l cloud </tspan><tspan x="0" y="13.2">s</tspan><tspan x="5.36" y="13.2" class="cls-14">o</tspan><tspan x="11.45" y="13.2">ft</tspan><tspan x="18.88" y="13.2" class="cls-70">w</tspan><tspan x="27.22" y="13.2">a</tspan><tspan x="33.1" y="13.2" class="cls-64">r</tspan><tspan x="37.08" y="13.2">e</tspan></text><rect width="116.32" height="27" x="317.41" y="408.66" class="cls-20"/><rect width="342.22" height="44.84" x="114.06" y="399.74" class="cls-38"/><text class="cls-39" transform="translate(178.91 424.86)">A<tspan x="6.93" y="0" class="cls-40">g</tspan><tspan x="12.58" y="0" class="cls-41">ent</tspan></text><text class="cls-39" transform="translate(116.4 393.2)"><tspan class="cls-42">E</tspan><tspan x="6.2" y="0" class="cls-41">d</tspan><tspan x="12.47" y="0" class="cls-40">g</tspan><tspan x="18.12" y="0">e node</tspan></text><rect width="116.32" height="27" x="317.04" y="479.85" class="cls-20"/><rect width="342.6" height="44.84" x="113.69" y="470.93" class="cls-38"/><text class="cls-39" transform="translate(175.3 496.05)">A<tspan x="6.93" y="0" class="cls-40">g</tspan><tspan x="12.58" y="0" class="cls-41">ent</tspan></text><text class="cls-39" transform="translate(116.08 464.39)"><tspan class="cls-42">E</tspan><tspan x="6.2" y="0" class="cls-41">d</tspan><tspan x="12.47" y="0" class="cls-40">g</tspan><tspan x="18.12" y="0">e node</tspan></text><text class="cls-39" transform="translate(153.03 558.09)">A<tspan x="6.93" y="0" class="cls-40">g</tspan><tspan x="12.58" y="0" class="cls-41">ents po</tspan><tspan x="48.62" y="0" class="cls-71">l</tspan><tspan x="51.51" y="0">l </tspan><tspan x="57" y="0" class="cls-72">f</tspan><tspan x="60.47" y="0">or </tspan><tspan x="-14.98" y="12.98">ag</tspan><tspan x="-3.49" y="12.98" class="cls-71">r</tspan><tspan x=".43" y="12.98">eement p</tspan><tspan x="46.46" y="12.98" class="cls-73">r</tspan><tspan x="50.38" y="12.98">oposals</tspan><tspan x="-17.43" y="25.97">and send a</tspan><tspan x="35.27" y="25.97" class="cls-74">cc</tspan><tspan x="46.03" y="25.97" class="cls-41">e</tspan><tspan x="51.97" y="25.97" class="cls-74">p</tspan><tspan x="58.18" y="25.97" class="cls-75">tan</tspan><tspan x="73.9" y="25.97" class="cls-74">c</tspan><tspan x="79.28" y="25.97">es</tspan></text><line x1="189.39" x2="189.72" y1="364.39" y2="408.66" class="cls-15"/><line x1="189.08" x2="189.4" y1="435.66" y2="479.93" class="cls-15"/><line x1="189.24" x2="189.24" y1="506.93" y2="532.03" class="cls-15"/><polygon points="178.02 528.75 189.24 548.18 200.46 528.75 178.02 528.75" class="cls-16"/><line x1="596.46" x2="502.65" y1="568.83" y2="568.83" class="cls-17"/><line x1="596.46" x2="509.11" y1="568.83" y2="568.83" class="cls-18"/><polygon points="510.42 564.34 502.65 568.83 510.42 573.32 510.42 564.34" class="cls-19"/><line x1="242.45" x2="329.8" y1="568.83" y2="568.83" class="cls-18"/><polygon points="328.49 573.32 336.26 568.83 328.49 564.34 328.49 573.32" class="cls-19"/><text class="cls-8" transform="translate(368.9 297.79)">A<tspan x="7.05" y="0" class="cls-14">g</tspan><tspan x="12.79" y="0">ents </tspan><tspan x="36.89" y="0" class="cls-65">r</tspan><tspan x="40.88" y="0">egi</tspan><tspan x="55.47" y="0" class="cls-76">s</tspan><tspan x="60.75" y="0" class="cls-77">t</tspan><tspan x="64.57" y="0">er </tspan><tspan x="77.24" y="0" class="cls-77">f</tspan><tspan x="80.76" y="0">or a </tspan><tspan x=".77" y="13.2">depl</tspan><tspan x="22.56" y="13.2" class="cls-64">o</tspan><tspan x="28.67" y="13.2">yment pa</tspan><tspan x="74.76" y="13.2" class="cls-70">t</tspan><tspan x="78.52" y="13.2" class="cls-77">t</tspan><tspan x="82.33" y="13.2">ern</tspan></text><line x1="274.19" x2="229.42" y1="266.06" y2="318.43" class="cls-6"/><polygon points="226.87 314.52 225.23 323.34 233.69 320.35 226.87 314.52" class="cls-7"/><text class="cls-8" transform="translate(217.51 283.99)"><tspan class="cls-78">V</tspan><tspan x="6.37" y="0">eri</tspan><tspan x="19.19" y="0" class="cls-63">f</tspan><tspan x="22.87" y="0">y </tspan><tspan x="-23.17" y="13.2">signatu</tspan><tspan x="12.98" y="13.2" class="cls-64">r</tspan><tspan x="16.96" y="13.2">es</tspan></text><text class="cls-39" transform="translate(269.07 346.89)">Run</text><text class="cls-39" transform="translate(349.27 353.51)"><tspan class="cls-42">E</tspan><tspan x="6.2" y="0" class="cls-41">d</tspan><tspan x="12.47" y="0" class="cls-40">g</tspan><tspan x="18.12" y="0">e </tspan><tspan x="26.61" y="0" class="cls-74">c</tspan><tspan x="31.99" y="0">ode</tspan></text><text class="cls-39" transform="translate(349.27 424.86)"><tspan class="cls-42">E</tspan><tspan x="6.2" y="0" class="cls-41">d</tspan><tspan x="12.47" y="0" class="cls-40">g</tspan><tspan x="18.12" y="0">e </tspan><tspan x="26.61" y="0" class="cls-74">c</tspan><tspan x="31.99" y="0">ode</tspan></text><text class="cls-39" transform="translate(347.64 496.05)"><tspan class="cls-42">E</tspan><tspan x="6.2" y="0" class="cls-41">d</tspan><tspan x="12.47" y="0" class="cls-40">g</tspan><tspan x="18.12" y="0">e </tspan><tspan x="26.61" y="0" class="cls-74">c</tspan><tspan x="31.99" y="0">ode</tspan></text><text class="cls-39" transform="translate(269.07 418.93)">Run</text><text class="cls-39" transform="translate(269.07 491.47)">Run</text><text class="cls-79" transform="translate(771.82 381.51)">AgB<tspan x="26.01" y="0" class="cls-80">o</tspan><tspan x="33.87" y="0" class="cls-81">ts</tspan><tspan x="45.89" y="0" class="cls-82" xml:space="preserve"> a</tspan><tspan x="54.22" y="0" class="cls-83">r</tspan><tspan x="58.14" y="0" class="cls-82">e au</tspan><tspan x="78.55" y="0" class="cls-84">t</tspan><tspan x="82.31" y="0" class="cls-85">o-</tspan><tspan x="92.9" y="0" class="cls-86">c</tspan><tspan x="98.28" y="0" class="cls-82">onfi</tspan><tspan x="116.61" y="0" class="cls-84">g</tspan><tspan x="122.28" y="0" class="cls-82">u</tspan><tspan x="128.43" y="0" class="cls-87">r</tspan><tspan x="132.34" y="0" class="cls-82">ed</tspan><tspan class="cls-82"><tspan x="1.72" y="12.98" class="cls-72">f</tspan><tspan x="5.18" y="12.98">or each depl</tspan><tspan x="65.05" y="12.98" class="cls-71">o</tspan><tspan x="71.06" y="12.98">yment pa</tspan><tspan x="116.39" y="12.98" class="cls-88">t</tspan><tspan x="120.09" y="12.98" class="cls-89">t</tspan><tspan x="123.84" y="12.98">ern,</tspan><tspan x="-.14" y="25.97">and typica</tspan><tspan x="50.01" y="25.97" class="cls-71">l</tspan><tspan x="52.9" y="25.97" class="cls-42">l</tspan><tspan x="55.73" y="25.97">y run in the cloud, </tspan><tspan x="5.65" y="38.95">but can run a</tspan><tspan x="68.93" y="38.95" class="cls-90">n</tspan><tspan x="74.98" y="38.95">ywhe</tspan><tspan x="100.78" y="38.95" class="cls-71">r</tspan><tspan x="104.69" y="38.95">e </tspan><tspan x="113.19" y="38.95" class="cls-91">ev</tspan><tspan x="124.28" y="38.95">en </tspan><tspan x="36.88" y="51.93">on ed</tspan><tspan x="63.85" y="51.93" class="cls-40">g</tspan><tspan x="69.5" y="51.93">e nodes</tspan></tspan></text><text class="cls-39" transform="translate(679.75 245.59)">AgBots sea<tspan x="54.38" y="0" class="cls-73">r</tspan><tspan x="58.29" y="0" class="cls-41">ch </tspan><tspan x="72.43" y="0" class="cls-72">f</tspan><tspan x="75.89" y="0">or</tspan><tspan x="0" y="12.98">ed</tspan><tspan x="12.21" y="12.98" class="cls-40">g</tspan><tspan x="17.86" y="12.98">e nodes </tspan><tspan x="58.59" y="12.98" class="cls-71">r</tspan><tspan x="62.51" y="12.98">egi</tspan><tspan x="76.87" y="12.98" class="cls-92">s</tspan><tspan x="82.06" y="12.98" class="cls-89">t</tspan><tspan x="85.82" y="12.98">e</tspan><tspan x="91.75" y="12.98" class="cls-71">r</tspan><tspan x="95.67" y="12.98">ed </tspan><tspan x="110.44" y="12.98" class="cls-72">f</tspan><tspan x="113.9" y="12.98">or </tspan><tspan x="0" y="25.97">their depl</tspan><tspan x="46.54" y="25.97" class="cls-71">o</tspan><tspan x="52.55" y="25.97">yment pa</tspan><tspan x="97.88" y="25.97" class="cls-88">t</tspan><tspan x="101.58" y="25.97" class="cls-89">t</tspan><tspan x="105.33" y="25.97">ern</tspan></text><text class="cls-39" transform="translate(629.09 558.09)">AgBots send<tspan x="-20.99" y="12.98">ag</tspan><tspan x="-9.5" y="12.98" class="cls-71">r</tspan><tspan x="-5.59" y="12.98">eement p</tspan><tspan x="40.45" y="12.98" class="cls-73">r</tspan><tspan x="44.36" y="12.98">oposals</tspan><tspan x="-28.74" y="25.97">and po</tspan><tspan x="4.34" y="25.97" class="cls-71">l</tspan><tspan x="7.23" y="25.97">l </tspan><tspan x="12.73" y="25.97" class="cls-72">f</tspan><tspan x="16.19" y="25.97">or a</tspan><tspan x="34.55" y="25.97" class="cls-74">cc</tspan><tspan x="45.3" y="25.97">e</tspan><tspan x="51.24" y="25.97" class="cls-74">p</tspan><tspan x="57.45" y="25.97">tan</tspan><tspan x="73.17" y="25.97" class="cls-74">c</tspan><tspan x="78.55" y="25.97">es</tspan></text><rect width="116.32" height="27" x="531.25" y="352.65" class="cls-68"/><text class="cls-39" transform="translate(560.42 368.85)">Cloud <tspan x="30.69" y="0" class="cls-93">c</tspan><tspan x="36.07" y="0">ode</tspan></text><rect width="116.32" height="27" x="531.25" y="398.88" class="cls-68"/><text class="cls-39" transform="translate(561.78 415.08)">Cloud <tspan x="30.69" y="0" class="cls-93">c</tspan><tspan x="36.07" y="0">ode</tspan></text><rect width="116.32" height="27" x="531.25" y="470.07" class="cls-68"/><text class="cls-39" transform="translate(561.78 486.27)">Cloud <tspan x="30.69" y="0" class="cls-93">c</tspan><tspan x="36.07" y="0">ode</tspan></text><text class="cls-94" transform="translate(708.43 457.72)">...</text><text class="cls-94" transform="translate(580.55 448.52)">...</text><text class="cls-94" transform="translate(263.55 458.34)">...</text><text class="cls-39" transform="translate(471.25 435.74)"><tspan class="cls-42">P</tspan><tspan x="6.45" y="0">aths</tspan></text><text class="cls-39" transform="translate(471.25 412.38)">Data</text><line x1="446.05" x2="516.49" y1="408.19" y2="375.93" class="cls-6"/><polygon points="449.12 411.72 440.18 410.88 445.38 403.56 449.12 411.72" class="cls-7"/><polygon points="517.16 380.55 522.36 373.24 513.43 372.39 517.16 380.55" class="cls-7"/><line x1="445.97" x2="515.29" y1="438.53" y2="472.92" class="cls-6"/><polygon points="445.15 443.14 440.18 435.66 449.14 435.1 445.15 443.14" class="cls-7"/><polygon points="512.12 476.35 521.08 475.79 516.11 468.31 512.12 476.35" class="cls-7"/><line x1="445.18" x2="514.66" y1="495.6" y2="487.34" class="cls-6"/><polygon points="447.01 499.9 438.76 496.36 445.95 490.99 447.01 499.9" class="cls-7"/><polygon points="513.89 491.95 521.08 486.58 512.83 483.04 513.89 491.95" class="cls-7"/><line x1="446.59" x2="516.08" y1="424.1" y2="415.84" class="cls-6"/><polygon points="448.43 428.4 440.18 424.86 447.37 419.49 448.43 428.4" class="cls-7"/><polygon points="515.31 420.45 522.49 415.08 514.25 411.54 515.31 420.45" class="cls-7"/><line x1="446.55" x2="516.12" y1="351.86" y2="363.27" class="cls-6"/><polygon points="447.12 356.5 440.18 350.82 448.57 347.64 447.12 356.5" class="cls-7"/><polygon points="514.1 367.49 522.5 364.32 515.55 358.63 514.1 367.49" class="cls-7"/><rect width="70.9" height="27" x="679.75" y="322.17" class="cls-95"/><rect width="70.9" height="27" x="679.75" y="408.17" class="cls-95"/><text class="cls-39" transform="translate(698.06 423.86)">AgBot</text><rect width="70.9" height="27" x="682.17" y="475.33" class="cls-95"/><text class="cls-39" transform="translate(701.08 492.14)">AgBot</text><rect width="70.9" height="27" x="679.75" y="368.01" class="cls-95"/><text class="cls-39" transform="translate(698.06 384.21)">AgBot</text><text class="cls-39" transform="translate(698.06 339.67)">AgBot</text></svg>