<svg xmlns="http://www.w3.org/2000/svg" id="Layer_1" data-name="Layer 1" viewBox="0 0 658.43 502.91"><defs><style>.cls-1,.cls-48,.cls-51{fill:none}.cls-2,.cls-21,.cls-6{font-size:14px}.cls-2{fill:#343434}.cls-2,.cls-21,.cls-28,.cls-47,.cls-6{font-family:IBMPlexSans-Medium,IBM Plex Sans}.cls-3,.cls-4{letter-spacing:-.01em}.cls-5{fill:#973995}.cls-28,.cls-49,.cls-54,.cls-6{fill:#4272b8}.cls-7,.cls-8{letter-spacing:-.01em}.cls-9{font-size:11px;fill:#231f20;font-family:IBMPlexSans,IBM Plex Sans}.cls-10,.cls-11,.cls-12,.cls-13{letter-spacing:-.01em}.cls-14{letter-spacing:-.02em}.cls-15,.cls-16{letter-spacing:0}.cls-17{letter-spacing:-.02em}.cls-18{letter-spacing:0}.cls-19,.cls-20{letter-spacing:-.01em}.cls-21{fill:#bb9930}.cls-21,.cls-50{opacity:.5}.cls-22,.cls-23{letter-spacing:0}.cls-24{letter-spacing:-.02em}.cls-25{letter-spacing:-.01em}.cls-26{letter-spacing:.01em}.cls-27{letter-spacing:-.01em}.cls-28{font-size:13.66px}.cls-29,.cls-30,.cls-31,.cls-32{letter-spacing:-.01em}.cls-33{letter-spacing:0}.cls-34{letter-spacing:-.01em}.cls-35{letter-spacing:0}.cls-36{letter-spacing:-.02em}.cls-37{letter-spacing:-.06em}.cls-38{letter-spacing:-.01em}.cls-39{letter-spacing:0}.cls-40,.cls-41{letter-spacing:-.01em}.cls-42{letter-spacing:.01em}.cls-43{letter-spacing:-.01em}.cls-44{letter-spacing:-.02em}.cls-45{letter-spacing:0}.cls-46{letter-spacing:-.02em}.cls-48,.cls-51{stroke:#4272b8;stroke-miterlimit:10;stroke-width:2px}.cls-51{stroke:#bc9a30}.cls-52{fill:#bc9a30}.cls-53{fill:#f2f6fc}.cls-54{font-size:32px;font-family:IBMPlexSans-Bold,IBM Plex Sans;font-weight:700}</style></defs><title>devcycle</title><line x1="363.4" x2="588.4" y1="113.66" y2="127.78" class="cls-1"/><text class="cls-2" transform="translate(182.76 259.74) scale(1.04 1)">D<tspan x="9.56" y="0" class="cls-3">e</tspan><tspan x="17.22" y="0" class="cls-4">v</tspan><tspan x="24.28" y="0">eloper</tspan></text><path d="M216.65,185.55c9.81,0,17.8,7.7,17.8,17.17s-8,17.17-17.8,17.17-17.8-7.7-17.8-17.17,8-17.17,17.8-17.17m0-3c-11.54,0-20.9,9-20.9,20.16s9.36,20.16,20.9,20.16,20.89-9,20.89-20.16-9.35-20.16-20.89-20.16Z" class="cls-5"/><path d="M199.2,227.36h34.89a5,5,0,0,1,5,5v9.93a0,0,0,0,1,0,0H194.2a0,0,0,0,1,0,0v-9.93A5,5,0,0,1,199.2,227.36Z" class="cls-5"/><text class="cls-6" transform="translate(22.94 393.56)"><tspan class="cls-7">E</tspan><tspan x="8.16" y="0">d</tspan><tspan x="16.45" y="0" class="cls-8">g</tspan><tspan x="23.88" y="0">e node</tspan><tspan class="cls-9"><tspan x="0" y="13.2" xml:space="preserve">- In</tspan><tspan x="20.23" y="13.2" class="cls-10">s</tspan><tspan x="25.51" y="13.2">ta</tspan><tspan x="35.24" y="13.2" class="cls-11">l</tspan><tspan x="38.18" y="13.2">l Hori</tspan><tspan x="64.49" y="13.2" class="cls-12">z</tspan><tspan x="69.49" y="13.2">on on ed</tspan><tspan x="111.91" y="13.2" class="cls-13">g</tspan><tspan x="117.65" y="13.2">e nodes </tspan><tspan x="0" y="26.4" xml:space="preserve">- </tspan><tspan x="9.58" y="26.4" class="cls-14">R</tspan><tspan x="16.46" y="26.4">egi</tspan><tspan x="31.05" y="26.4" class="cls-10">s</tspan><tspan x="36.33" y="26.4" class="cls-15">t</tspan><tspan x="40.15" y="26.4">er ed</tspan><tspan x="65.24" y="26.4" class="cls-13">g</tspan><tspan x="70.98" y="26.4">e node</tspan><tspan x="0" y="39.6" xml:space="preserve">- Confi</tspan><tspan x="35.06" y="39.6" class="cls-15">g</tspan><tspan x="40.82" y="39.6">u</tspan><tspan x="47.07" y="39.6" class="cls-16">r</tspan><tspan x="51.05" y="39.6">e o</tspan><tspan x="65.85" y="39.6" class="cls-17">r</tspan><tspan x="69.63" y="39.6" class="cls-18">g</tspan><tspan x="75.4" y="39.6">anization ID</tspan><tspan x="0" y="52.8" xml:space="preserve">- Set up IBM E</tspan><tspan x="73.21" y="52.8" class="cls-19">v</tspan><tspan x="78.54" y="52.8">ent St</tspan><tspan x="107.53" y="52.8" class="cls-11">r</tspan><tspan x="111.52" y="52.8">eams</tspan><tspan x="0" y="66" xml:space="preserve">- Set unique ed</tspan><tspan x="77.39" y="66" class="cls-13">g</tspan><tspan x="83.14" y="66">e node identifier</tspan><tspan x="0" y="79.2" xml:space="preserve">- Set del</tspan><tspan x="43.88" y="79.2" class="cls-16">o</tspan><tspan x="49.98" y="79.2">yment pa</tspan><tspan x="96.07" y="79.2" class="cls-20">t</tspan><tspan x="99.83" y="79.2" class="cls-15">t</tspan><tspan x="103.65" y="79.2">ern</tspan></tspan></text><text class="cls-21" transform="translate(488.04 218.19)">Code upd<tspan x="60.84" y="0" class="cls-22">a</tspan><tspan x="68.49" y="0" class="cls-23">t</tspan><tspan x="73.54" y="0">es</tspan><tspan class="cls-9"><tspan x="0" y="13.2">Updating </tspan><tspan x="47.35" y="13.2" class="cls-16">y</tspan><tspan x="52.79" y="13.2">our </tspan><tspan x="71.83" y="13.2" class="cls-13">c</tspan><tspan x="77.3" y="13.2">ode is simple:</tspan><tspan x="0" y="26.4">1. Ma</tspan><tspan x="26.99" y="26.4" class="cls-24">k</tspan><tspan x="32.6" y="26.4">e </tspan><tspan x="41.24" y="26.4" class="cls-13">c</tspan><tspan x="46.71" y="26.4">ode chan</tspan><tspan x="91.78" y="26.4" class="cls-13">g</tspan><tspan x="97.52" y="26.4">es</tspan><tspan x="0" y="39.6">2. push</tspan><tspan x="0" y="52.8">3. sign</tspan><tspan x="0" y="66">4. publish</tspan></tspan></text><text class="cls-6" transform="translate(328.8 395.44)">Sign and publish<tspan class="cls-9"><tspan x="0" y="13.2" xml:space="preserve">- Push, sign, and publish </tspan><tspan x="125.48" y="13.2" class="cls-13">c</tspan><tspan x="130.95" y="13.2">ontainers </tspan><tspan x="0" y="26.4" xml:space="preserve">- Add the </tspan><tspan x="50.73" y="26.4" class="cls-13">c</tspan><tspan x="56.2" y="26.4">ontainers </tspan><tspan x="105.37" y="26.4" class="cls-15">t</tspan><tspan x="109.18" y="26.4">o depl</tspan><tspan x="139.73" y="26.4" class="cls-11">o</tspan><tspan x="145.83" y="26.4">yment pa</tspan><tspan x="191.92" y="26.4" class="cls-25">t</tspan><tspan x="195.69" y="26.4" class="cls-15">t</tspan><tspan x="199.5" y="26.4">erns </tspan><tspan x="0" y="39.6" xml:space="preserve">- AgBots au</tspan><tspan x="59.72" y="39.6" class="cls-15">t</tspan><tspan x="63.53" y="39.6" class="cls-26">o-</tspan><tspan x="74.3" y="39.6" class="cls-13">c</tspan><tspan x="79.77" y="39.6">onfi</tspan><tspan x="98.42" y="39.6" class="cls-15">g</tspan><tspan x="104.18" y="39.6">u</tspan><tspan x="110.43" y="39.6" class="cls-16">r</tspan><tspan x="114.41" y="39.6">e </tspan><tspan x="123.04" y="39.6" class="cls-15">t</tspan><tspan x="126.86" y="39.6">o mana</tspan><tspan x="163.22" y="39.6" class="cls-13">g</tspan><tspan x="168.96" y="39.6">e ed</tspan><tspan x="190.01" y="39.6" class="cls-27">g</tspan><tspan x="195.75" y="39.6">e </tspan><tspan x="0" y="52.8" xml:space="preserve"> node s</tspan><tspan x="43.16" y="52.8" class="cls-13">o</tspan><tspan x="49.26" y="52.8">ft</tspan><tspan x="56.68" y="52.8" class="cls-20">w</tspan><tspan x="65.03" y="52.8">a</tspan><tspan x="70.9" y="52.8" class="cls-16">r</tspan><tspan x="74.89" y="52.8">e</tspan></tspan></text><text class="cls-28" transform="translate(324.59 206.82) scale(1.02 1)">D<tspan x="9.33" y="0" class="cls-29">e</tspan><tspan x="16.8" y="0" class="cls-30">v</tspan><tspan x="23.69" y="0">elop </tspan><tspan x="54.19" y="0" class="cls-31">c</tspan><tspan x="61.08" y="0">ode</tspan><tspan class="cls-9"><tspan x="0" y="13.2" xml:space="preserve">- </tspan><tspan x="9.58" y="13.2" class="cls-32">W</tspan><tspan x="19.27" y="13.2">ri</tspan><tspan x="26.06" y="13.2" class="cls-33">t</tspan><tspan x="29.88" y="13.2">e </tspan><tspan x="38.51" y="13.2" class="cls-34">c</tspan><tspan x="43.98" y="13.2">ode </tspan><tspan x="65.15" y="13.2" class="cls-35">f</tspan><tspan x="68.67" y="13.2">or ed</tspan><tspan x="93.88" y="13.2" class="cls-34">g</tspan><tspan x="99.63" y="13.2">e node</tspan><tspan x="0" y="26.4" xml:space="preserve">- Include </tspan><tspan x="50.02" y="26.4" class="cls-34">c</tspan><tspan x="55.48" y="26.4">ode within </tspan><tspan x="0" y="39.6">Doc</tspan><tspan x="19.07" y="39.6" class="cls-36">k</tspan><tspan x="24.69" y="39.6">er </tspan><tspan x="37.36" y="39.6" class="cls-34">c</tspan><tspan x="42.83" y="39.6">ontainers</tspan><tspan x="0" y="52.8" xml:space="preserve">- </tspan><tspan x="9.58" y="52.8" class="cls-37">T</tspan><tspan x="15.16" y="52.8">e</tspan><tspan x="21.2" y="52.8" class="cls-38">s</tspan><tspan x="26.48" y="52.8">t loca</tspan><tspan x="53.49" y="52.8" class="cls-39">l</tspan><tspan x="56.43" y="52.8" class="cls-40">l</tspan><tspan x="59.31" y="52.8">y</tspan><tspan x="0" y="66" xml:space="preserve">- Simula</tspan><tspan x="43.44" y="66" class="cls-35">t</tspan><tspan x="47.25" y="66">e p</tspan><tspan x="62.27" y="66" class="cls-41">r</tspan><tspan x="66.25" y="66">oduction </tspan><tspan x="0" y="79.2">depl</tspan><tspan x="21.79" y="79.2" class="cls-41">o</tspan><tspan x="27.9" y="79.2">yment</tspan></tspan></text><text class="cls-6" transform="translate(147.93 92.79)">Set up cloud se<tspan x="97.72" y="0" class="cls-42">r</tspan><tspan x="103.21" y="0">vi</tspan><tspan x="114.08" y="0" class="cls-43">c</tspan><tspan x="121.14" y="0">es</tspan><tspan class="cls-9"><tspan x="0" y="13.2" class="cls-44">F</tspan><tspan x="5.93" y="13.2" class="cls-11">r</tspan><tspan x="9.91" y="13.2">om the IBM Cloud </tspan><tspan x="101.33" y="13.2" class="cls-16">w</tspan><tspan x="109.72" y="13.2">eb in</tspan><tspan x="133.74" y="13.2" class="cls-15">t</tspan><tspan x="137.55" y="13.2">e</tspan><tspan x="143.59" y="13.2" class="cls-45">r</tspan><tspan x="147.67" y="13.2">fa</tspan><tspan x="157.11" y="13.2" class="cls-13">c</tspan><tspan x="162.58" y="13.2" class="cls-46">e</tspan><tspan x="168.4" y="13.2">, </tspan><tspan x="0" y="26.4" xml:space="preserve">- C</tspan><tspan x="16.41" y="26.4" class="cls-16">r</tspan><tspan x="20.39" y="26.4">ea</tspan><tspan x="32.31" y="26.4" class="cls-15">t</tspan><tspan x="36.12" y="26.4">e user a</tspan><tspan x="74.91" y="26.4" class="cls-27">cc</tspan><tspan x="85.84" y="26.4">ount</tspan><tspan x="0" y="39.6" xml:space="preserve">- C</tspan><tspan x="16.41" y="39.6" class="cls-16">r</tspan><tspan x="20.39" y="39.6">ea</tspan><tspan x="32.31" y="39.6" class="cls-15">t</tspan><tspan x="36.12" y="39.6">e o</tspan><tspan x="50.92" y="39.6" class="cls-17">r</tspan><tspan x="54.7" y="39.6" class="cls-18">g</tspan><tspan x="60.48" y="39.6">anization ID</tspan><tspan x="0" y="52.8" xml:space="preserve">- Set up IBM E</tspan><tspan x="73.21" y="52.8" class="cls-19">v</tspan><tspan x="78.54" y="52.8">ent St</tspan><tspan x="107.53" y="52.8" class="cls-11">r</tspan><tspan x="111.52" y="52.8">eams</tspan></tspan></text><text class="cls-6" transform="translate(44.55 178.17)">IBM Cloud<tspan class="cls-9"><tspan x="0" y="13.2">O</tspan><tspan x="7.79" y="13.2" class="cls-13">p</tspan><tspan x="14.1" y="13.2">tiona</tspan><tspan x="39" y="13.2" class="cls-11">l</tspan><tspan x="41.93" y="13.2" class="cls-12">l</tspan><tspan x="44.81" y="13.2">y </tspan><tspan x="52.9" y="13.2" class="cls-13">c</tspan><tspan x="58.36" y="13.2">onnect </tspan><tspan x="0" y="26.4" class="cls-25">v</tspan><tspan x="5.31" y="26.4">arious IBM and </tspan><tspan x="0" y="39.6">thi</tspan><tspan x="12.86" y="39.6" class="cls-13">r</tspan><tspan x="16.83" y="39.6">d pa</tspan><tspan x="38.06" y="39.6" class="cls-45">r</tspan><tspan x="42.14" y="39.6">ty cloud </tspan><tspan x="0" y="52.8">and data se</tspan><tspan x="57.08" y="52.8" class="cls-26">r</tspan><tspan x="61.23" y="52.8">vi</tspan><tspan x="69.39" y="52.8" class="cls-13">c</tspan><tspan x="74.85" y="52.8">e</tspan><tspan x="80.89" y="52.8" class="cls-16">s</tspan><tspan x="86.2" y="52.8">, </tspan><tspan x="0" y="66">ana</tspan><tspan x="18" y="66" class="cls-12">l</tspan><tspan x="20.88" y="66">ytic</tspan><tspan x="38.51" y="66" class="cls-11">s</tspan><tspan x="43.81" y="66">, and</tspan><tspan x="0" y="79.2" class="cls-13">c</tspan><tspan x="5.47" y="79.2">ogniti</tspan><tspan x="33.04" y="79.2" class="cls-19">v</tspan><tspan x="38.37" y="79.2">e solution</tspan><tspan x="86.78" y="79.2" class="cls-47">s</tspan></tspan></text><path d="M51.9,272.87c-5.88,16.81,0,35.13,14.78,43" class="cls-48"/><polygon points="47.33 272.36 54.5 266.96 55.59 275.87 47.33 272.36" class="cls-49"/><path d="M403.47,312.15c6.5-6,8.9-18.28,5.3-31" class="cls-48"/><polygon points="406.82 315.06 397.85 315.32 402.11 307.42 406.82 315.06" class="cls-49"/><g class="cls-50"><path d="M431.44,342.74c68-47.35,68.44-129.48-.38-186.27" class="cls-51"/><polygon points="435.01 345.7 426.06 346.31 430 338.25 435.01 345.7" class="cls-52"/></g><g class="cls-50"><path d="M339,156.26c-76.57,41.41-85.4,125-18.72,189.5" class="cls-51"/><polygon points="335.8 152.93 344.76 153.3 339.96 160.88 335.8 152.93" class="cls-52"/></g><path d="M129.33,365.37c67,54.44,159.47,53.06,209.26-4.15" class="cls-48"/><polygon points="127.49 369.64 124.38 361.21 133.23 362.74 127.49 369.64" class="cls-49"/><path d="M386.38,116.35c-4.75-41.57-55.07-74.22-116.56-74.22" class="cls-48"/><polygon points="390.69 114.73 386.75 122.79 381.74 115.35 390.69 114.73" class="cls-49"/><path d="M377.23,378.11c-18.49,0-33.54-12.94-33.54-28.85s15.05-28.85,33.54-28.85,33.53,12.95,33.53,28.85S395.72,378.11,377.23,378.11Z" class="cls-53"/><path d="M377.23,321.41c17.94,0,32.53,12.5,32.53,27.85s-14.59,27.85-32.53,27.85-32.54-12.49-32.54-27.85,14.6-27.85,32.54-27.85m0-2c-19.07,0-34.54,13.37-34.54,29.85s15.47,29.85,34.54,29.85,34.53-13.36,34.53-29.85-15.46-29.85-34.53-29.85Z" class="cls-49"/><text class="cls-54" transform="translate(367.63 358.66)">3</text><path d="M389.5,191.1C371,191.1,356,178.15,356,162.25s15-28.85,33.53-28.85S423,146.34,423,162.25,408,191.1,389.5,191.1Z" class="cls-53"/><path d="M389.5,134.4c17.94,0,32.53,12.49,32.53,27.85S407.44,190.1,389.5,190.1,357,177.6,357,162.25s14.59-27.85,32.53-27.85m0-2c-19.07,0-34.53,13.36-34.53,29.85s15.46,29.85,34.53,29.85S424,178.73,424,162.25,408.57,132.4,389.5,132.4Z" class="cls-49"/><text class="cls-54" transform="translate(379.9 171.64)">2</text><path d="M79.08,161.25c-18.49,0-33.53-12.95-33.53-28.85s15-28.85,33.53-28.85,33.54,12.94,33.54,28.85S97.57,161.25,79.08,161.25Z" class="cls-53"/><path d="M79.08,104.55c17.94,0,32.54,12.49,32.54,27.85S97,160.25,79.08,160.25s-32.53-12.5-32.53-27.85,14.6-27.85,32.53-27.85m0-2c-19.07,0-34.53,13.36-34.53,29.85S60,162.25,79.08,162.25s34.54-13.37,34.54-29.85-15.46-29.85-34.54-29.85Z" class="cls-49"/><text class="cls-54" transform="translate(69.48 141.79)">5</text><path d="M83,374.61c-18.49,0-33.54-12.94-33.54-28.85S64.54,316.91,83,316.91s33.53,12.94,33.53,28.85S101.52,374.61,83,374.61Z" class="cls-53"/><path d="M83,317.91c17.93,0,32.53,12.49,32.53,27.85S101,373.61,83,373.61s-32.54-12.49-32.54-27.85S65.09,317.91,83,317.91m0-2c-19.08,0-34.54,13.37-34.54,29.85S64,375.61,83,375.61s34.53-13.36,34.53-29.85S102.1,315.91,83,315.91Z" class="cls-49"/><text class="cls-54" transform="translate(73.43 355.15)">4</text><path d="M219.74,75.42c-18.49,0-33.53-12.94-33.53-28.85s15-28.85,33.53-28.85,33.54,12.94,33.54,28.85S238.23,75.42,219.74,75.42Z" class="cls-53"/><path d="M219.74,18.72c17.94,0,32.54,12.5,32.54,27.85s-14.6,27.85-32.54,27.85-32.53-12.49-32.53-27.85,14.59-27.85,32.53-27.85m0-2c-19.07,0-34.53,13.37-34.53,29.85s15.46,29.85,34.53,29.85,34.54-13.36,34.54-29.85-15.46-29.85-34.54-29.85Z" class="cls-49"/><text class="cls-54" transform="translate(210.14 55.97)">1</text></svg>