<svg xmlns="http://www.w3.org/2000/svg" id="Layer_1" data-name="Layer 1" viewBox="0 0 972.57 558.01"><defs><style>.cls-1{fill:#f9f0f6}.cls-2{fill:#8d3493}.cls-3,.cls-41,.cls-9{font-size:14px}.cls-12,.cls-3,.cls-37,.cls-41,.cls-55{fill:#343434}.cls-12,.cls-3,.cls-37,.cls-55,.cls-9{font-family:IBMPlexSans,IBM Plex Sans}.cls-4{fill:#983895}.cls-5{fill:#4272b8}.cls-6,.cls-7{fill:none}.cls-6{stroke:#343434;stroke-dasharray:5 3}.cls-40,.cls-6,.cls-7{stroke-miterlimit:10;stroke-width:2px}.cls-7{stroke:#4167b0}.cls-8{fill:#4167b0}.cls-9{fill:#fff}.cls-10{letter-spacing:-.01em}.cls-11{letter-spacing:0}.cls-12{font-size:11px}.cls-13{letter-spacing:-.02em}.cls-14{letter-spacing:-.01em}.cls-15{letter-spacing:0}.cls-16{letter-spacing:-.01em}.cls-17{letter-spacing:0}.cls-18{letter-spacing:-.01em}.cls-19,.cls-20{letter-spacing:0}.cls-21{letter-spacing:.01em}.cls-22,.cls-23,.cls-24{letter-spacing:0}.cls-25{letter-spacing:-.01em}.cls-26{letter-spacing:0}.cls-27{letter-spacing:-.01em}.cls-28{letter-spacing:0}.cls-29{letter-spacing:-.01em}.cls-30{letter-spacing:0}.cls-31,.cls-32,.cls-33{letter-spacing:-.01em}.cls-34,.cls-35,.cls-36{letter-spacing:0}.cls-37{font-size:16px}.cls-38,.cls-39{letter-spacing:-.01em}.cls-40{fill:#f4dd9d;stroke:#bc9a30}.cls-41{font-family:IBMPlexSans-Bold,IBM Plex Sans;font-weight:700}.cls-42{letter-spacing:-.03em}.cls-43,.cls-44{letter-spacing:-.01em}.cls-45,.cls-46,.cls-47{letter-spacing:0}.cls-48{letter-spacing:-.01em}.cls-49{letter-spacing:-.06em}.cls-50{letter-spacing:-.02em}.cls-51,.cls-52,.cls-53{letter-spacing:-.01em}.cls-54{fill:#f2f6fc}.cls-55{font-size:12px}.cls-56{fill:#faf8ed}.cls-57{fill:#bc9b2f}.cls-58{letter-spacing:-.02em}.cls-59,.cls-60{letter-spacing:0}.cls-61,.cls-62{letter-spacing:-.01em}.cls-63,.cls-64{letter-spacing:0}.cls-65{letter-spacing:-.01em}.cls-66{letter-spacing:-.02em}.cls-67{letter-spacing:-.01em}.cls-68{letter-spacing:0}.cls-69,.cls-70{letter-spacing:-.02em}.cls-71{letter-spacing:.01em}.cls-72{letter-spacing:-.01em}.cls-73{letter-spacing:.01em}.cls-74{letter-spacing:-.01em}.cls-75{letter-spacing:-.05em}.cls-76{letter-spacing:0}</style></defs><title>sdrarch</title><rect width="169.5" height="31.58" x="152.06" y="505.5" class="cls-1"/><path d="M320.56,506.5v29.59H153.06V506.5h167.5m2-2H151.06v33.59h171.5V504.5Z" class="cls-2"/><rect width="169.5" height="31.58" x="152.05" y="441.25" class="cls-1"/><path d="M320.56,442.25v29.59H153.06V442.25h167.5m2-2H151.06v33.59h171.5V440.25Z" class="cls-2"/><text class="cls-3" transform="translate(460.94 73.01)">User</text><path d="M476,20a11.5,11.5,0,1,1-11.5,11.5A11.51,11.51,0,0,1,476,20m0-2a13.5,13.5,0,1,0,13.5,13.5A13.49,13.49,0,0,0,476,18Z" class="cls-4"/><path d="M466.51,48h19a5,5,0,0,1,5,5v5a0,0,0,0,1,0,0h-29a0,0,0,0,1,0,0V53A5,5,0,0,1,466.51,48Z" class="cls-4"/><text class="cls-3" transform="translate(40.14 160.01)">Cloud</text><path d="M64.05,107.63A11.2,11.2,0,0,1,75,118l.14,1.72,1.59.57A11.33,11.33,0,0,1,84.09,131a11.19,11.19,0,0,1-11,11.35H48.52a11.35,11.35,0,0,1,0-22.69,9.66,9.66,0,0,1,1.68.15l2.62.41.34-2.71a11.14,11.14,0,0,1,10.89-9.87m0-2.67a13.74,13.74,0,0,0-13.46,12.2,12.75,12.75,0,0,0-2.07-.18,14,14,0,0,0,0,28H73.1a13.81,13.81,0,0,0,13.58-14,14,14,0,0,0-9.11-13.22A13.76,13.76,0,0,0,64.05,105Z" class="cls-5"/><line id="_Path_" x1="7.31" x2="960.77" y1="89.24" y2="89.24" class="cls-6" data-name="&lt;Path&gt;"/><line x1="445.91" x2="321.76" y1="40.12" y2="41.03" class="cls-7"/><polygon points="444.57 35.64 452.37 40.08 444.63 44.62 444.57 35.64" class="cls-8"/><polygon points="323.04 36.53 315.31 41.07 323.11 45.5 323.04 36.53" class="cls-8"/><text class="cls-9" transform="translate(495.83 357.54)">IBM E<tspan x="37.58" y="0" class="cls-10">v</tspan><tspan x="44.35" y="0">ents St</tspan><tspan x="88.07" y="0" class="cls-11">r</tspan><tspan x="93.14" y="0">eams</tspan></text><text class="cls-12" transform="translate(239.38 485.7)"><tspan class="cls-13">R</tspan><tspan x="6.88" y="0">etri</tspan><tspan x="23.56" y="0" class="cls-14">ev</tspan><tspan x="34.84" y="0" class="cls-15">e audio clips </tspan><tspan x="0" y="13.2">f</tspan><tspan x="3.56" y="13.2" class="cls-16">r</tspan><tspan x="7.55" y="13.2">om </tspan><tspan x="25.9" y="13.2" class="cls-17">r</tspan><tspan x="29.9" y="13.2">adio </tspan><tspan x="53.66" y="13.2" class="cls-18">s</tspan><tspan x="58.94" y="13.2">tations</tspan></text><text class="cls-12" transform="translate(239.38 422.33)">Use machine learning <tspan x="108.93" y="0" class="cls-19">t</tspan><tspan x="112.75" y="0">o select be</tspan><tspan x="166.34" y="0" class="cls-18">s</tspan><tspan x="171.62" y="0">t talking </tspan><tspan x="214" y="0" class="cls-18">s</tspan><tspan x="219.28" y="0">tation</tspan><tspan x="248.04" y="0" class="cls-16">s</tspan><tspan x="253.34" y="0" class="cls-20">, </tspan><tspan x="0" y="13.2">sends audio </tspan><tspan x="61.98" y="13.2" class="cls-19">t</tspan><tspan x="65.8" y="13.2">o cloud</tspan></text><text class="cls-12" transform="translate(125.4 103.96)">Se<tspan x="12.43" y="0" class="cls-21">r</tspan><tspan x="16.58" y="0" class="cls-14">v</tspan><tspan x="21.9" y="0">es the UI, </tspan><tspan x="-26.91" y="13.2">t</tspan><tspan x="-23.04" y="13.2" class="cls-19">r</tspan><tspan x="-19.05" y="13.2">anspo</tspan><tspan x="10.97" y="13.2" class="cls-22">r</tspan><tspan x="15.05" y="13.2">t data </tspan><tspan x="46.09" y="13.2" class="cls-19">t</tspan><tspan x="49.91" y="13.2">o b</tspan><tspan x="65.04" y="13.2" class="cls-16">ro</tspan><tspan x="75.13" y="13.2" class="cls-23">w</tspan><tspan x="83.56" y="13.2">ser</tspan></text><text class="cls-12" transform="translate(114.1 186.9)">S<tspan x="6.39" y="0" class="cls-19">t</tspan><tspan x="10.21" y="0" class="cls-15">o</tspan><tspan x="16.37" y="0" class="cls-24">r</tspan><tspan x="20.35" y="0" class="cls-15">es on</tspan><tspan x="46.75" y="0" class="cls-25">l</tspan><tspan x="49.63" y="0">y insights </tspan><tspan x="-12.42" y="13.2">(sentiments) </tspan><tspan x="52.9" y="13.2" class="cls-26">t</tspan><tspan x="56.72" y="13.2" class="cls-15">o database</tspan></text><text class="cls-12" transform="translate(330.34 35.59)"><tspan class="cls-27">P</tspan><tspan x="6.56" y="0" class="cls-16">r</tspan><tspan x="10.54" y="0" class="cls-14">o</tspan><tspan x="16.61" y="0">vide data vi</tspan><tspan x="72.53" y="0" class="cls-16">e</tspan><tspan x="78.52" y="0" class="cls-28">w</tspan><tspan x="86.94" y="0" class="cls-20">s</tspan></text><text class="cls-12" transform="translate(505.58 275.42)">Me<tspan x="14.97" y="0" class="cls-29">s</tspan><tspan x="20.26" y="0" class="cls-20">sa</tspan><tspan x="31.49" y="0" class="cls-29">g</tspan><tspan x="37.23" y="0">e tri</tspan><tspan x="56.52" y="0" class="cls-30">g</tspan><tspan x="62.35" y="0" class="cls-29">g</tspan><tspan x="68.09" y="0" class="cls-15">ers s</tspan><tspan x="91.48" y="0" class="cls-31">o</tspan><tspan x="97.57" y="0">ft</tspan><tspan x="104.99" y="0" class="cls-32">w</tspan><tspan x="113.34" y="0">a</tspan><tspan x="119.22" y="0" class="cls-16">r</tspan><tspan x="123.2" y="0" class="cls-21">e-</tspan><tspan x="133.85" y="0">defined </tspan><tspan x="173.77" y="0" class="cls-19">r</tspan><tspan x="177.76" y="0">adio action</tspan></text><text class="cls-3" transform="translate(20.21 74.42)"><tspan class="cls-33">W</tspan><tspan x="12.26" y="0">eb b</tspan><tspan x="39.49" y="0" class="cls-34">ro</tspan><tspan x="52.33" y="0" class="cls-35">w</tspan><tspan x="63.06" y="0" class="cls-36">ser</tspan></text><path d="M60.56,18.38a20,20,0,1,0,20,20A20,20,0,0,0,60.56,18.38ZM56,21a18.27,18.27,0,0,0-4.31,8.35,17.28,17.28,0,0,1-5.13-2.23A18.08,18.08,0,0,1,56,21Zm-10.6,7.75a19.17,19.17,0,0,0,5.85,2.56,37.14,37.14,0,0,0-.65,6.08h-8A17.77,17.77,0,0,1,45.38,28.74Zm0,19.28a17.81,17.81,0,0,1-2.77-8.64h8a37.26,37.26,0,0,0,.65,6.08A18.93,18.93,0,0,0,45.38,48Zm1.16,1.63a16.78,16.78,0,0,1,5.13-2.23A18.32,18.32,0,0,0,56,55.77,18.08,18.08,0,0,1,46.54,49.65Zm13,6.07C57.05,55,54.87,51.63,53.63,47a36.83,36.83,0,0,1,5.93-.57Zm0-11.32a38.77,38.77,0,0,0-6.38.62,35.7,35.7,0,0,1-.6-5.64h7Zm0-7h-7a35.83,35.83,0,0,1,.6-5.65,38.77,38.77,0,0,0,6.38.62Zm0-7a36.88,36.88,0,0,1-5.93-.56c1.24-4.66,3.42-8,5.93-8.75Zm16.17-1.61a17.89,17.89,0,0,1,2.78,8.64h-8a36.1,36.1,0,0,0-.64-6.08A19.21,19.21,0,0,0,75.73,28.74Zm-1.16-1.63a17.1,17.1,0,0,1-5.12,2.23A18.27,18.27,0,0,0,65.14,21,18,18,0,0,1,74.57,27.11ZM61.56,21c2.51.72,4.69,4.09,5.92,8.75a36.64,36.64,0,0,1-5.92.56Zm0,11.31a38.76,38.76,0,0,0,6.37-.62,33.62,33.62,0,0,1,.6,5.65h-7Zm0,7h7a33.5,33.5,0,0,1-.6,5.64,38.76,38.76,0,0,0-6.37-.62Zm0,16.34V46.4a36.59,36.59,0,0,1,5.92.57C66.25,51.63,64.07,55,61.56,55.72Zm3.58.05a18.32,18.32,0,0,0,4.31-8.35,16.61,16.61,0,0,1,5.12,2.23A18,18,0,0,1,65.14,55.77ZM75.73,48a19,19,0,0,0-5.84-2.56,36.21,36.21,0,0,0,.64-6.08h8A17.92,17.92,0,0,1,75.73,48Z" class="cls-5"/><line x1="232.98" x2="232.98" y1="70.54" y2="116.62" class="cls-7"/><polygon points="228.49 71.85 232.98 64.08 237.47 71.85 228.49 71.85" class="cls-8"/><polygon points="228.49 115.31 232.98 123.08 237.47 115.31 228.49 115.31" class="cls-8"/><line x1="232.98" x2="232.98" y1="168.12" y2="220.66" class="cls-7"/><polygon points="228.49 169.43 232.98 161.66 237.47 169.43 228.49 169.43" class="cls-8"/><line x1="232.98" x2="232.98" y1="416.05" y2="433.8" class="cls-7"/><polygon points="228.49 417.36 232.98 409.59 237.47 417.36 228.49 417.36" class="cls-8"/><polygon points="228.49 432.48 232.98 440.25 237.47 432.48 228.49 432.48" class="cls-8"/><text class="cls-37" transform="translate(25.45 436.8)"><tspan class="cls-38">E</tspan><tspan x="9.17" y="0">d</tspan><tspan x="18.45" y="0" class="cls-39">g</tspan><tspan x="26.8" y="0">e node</tspan></text><path d="M77.12,378.32V420H43.38V378.32H77.12M79.94,376H40.57v46.33H79.94V376Z" class="cls-5"/><rect width="25.31" height="3.47" x="47.6" y="381.79" class="cls-5"/><rect width="25.31" height="3.47" x="47.6" y="387.58" class="cls-5"/><rect width="25.31" height="3.47" x="47.6" y="393.38" class="cls-5"/><ellipse cx="69.39" cy="413.64" class="cls-5" rx="3.51" ry="2.9"/><rect width="178.75" height="48.34" x="413.09" y="288.23" class="cls-40" rx="20.55" ry="20.55"/><text class="cls-41" transform="translate(442.6 316.04)">IBM E<tspan x="38.65" y="0" class="cls-10">v</tspan><tspan x="46.07" y="0">ent </tspan><tspan x="70.95" y="0" class="cls-11">S</tspan><tspan x="79.62" y="0">t</tspan><tspan x="84.98" y="0" class="cls-11">r</tspan><tspan x="90.56" y="0">eams</tspan></text><rect width="259" height="48.34" x="675.79" y="202.26" class="cls-40" rx="20.55" ry="20.55"/><text class="cls-41" transform="translate(763.69 222.35)">IBM <tspan x="30.16" y="0" class="cls-42">W</tspan><tspan x="43.36" y="0" class="cls-43">a</tspan><tspan x="51.24" y="0">tson </tspan><tspan x="-66.69" y="16">N</tspan><tspan x="-56.55" y="16" class="cls-43">a</tspan><tspan x="-48.67" y="16" class="cls-36">tu</tspan><tspan x="-34.96" y="16" class="cls-44">r</tspan><tspan x="-29.5" y="16">al </tspan><tspan x="-13.99" y="16" class="cls-45">L</tspan><tspan x="-6.52" y="16">an</tspan><tspan x="9.79" y="16" class="cls-46">g</tspan><tspan x="17.47" y="16">ua</tspan><tspan x="33.77" y="16" class="cls-43">g</tspan><tspan x="41.42" y="16" class="cls-47">e Under</tspan><tspan x="92.69" y="16" class="cls-48">s</tspan><tspan x="99.63" y="16" class="cls-36">tanding</tspan></text><rect width="259" height="48.34" x="675.79" y="126.61" class="cls-40" rx="20.55" ry="20.55"/><text class="cls-41" transform="translate(763.69 146.7)">IBM <tspan x="30.16" y="0" class="cls-42">W</tspan><tspan x="43.36" y="0" class="cls-43">a</tspan><tspan x="51.24" y="0">tson </tspan><tspan x="-6.64" y="16">Speech </tspan><tspan x="45.23" y="16" class="cls-46">t</tspan><tspan x="50.53" y="16">o </tspan><tspan x="61.73" y="16" class="cls-49">T</tspan><tspan x="69" y="16" class="cls-50">e</tspan><tspan x="76.64" y="16">xt</tspan></text><text class="cls-12" transform="translate(709.45 114.73)">Co<tspan x="12.99" y="0" class="cls-51">nv</tspan><tspan x="24.48" y="0">e</tspan><tspan x="30.51" y="0" class="cls-22">r</tspan><tspan x="34.6" y="0">t audio </tspan><tspan x="71.06" y="0" class="cls-19">t</tspan><tspan x="74.88" y="0" class="cls-52">e</tspan><tspan x="80.79" y="0">xt, ana</tspan><tspan x="113.81" y="0" class="cls-53">l</tspan><tspan x="116.69" y="0">y</tspan><tspan x="122.18" y="0" class="cls-25">z</tspan><tspan x="127.17" y="0">e sentiments</tspan></text><rect width="168.04" height="33.35" x="387.27" y="442.69" class="cls-54"/><path d="M554.31,443.69V475h-166V443.69h166m2-2h-170V477h170V441.69Z" class="cls-5"/><text class="cls-55" transform="translate(438.01 462.66)">Hori<tspan x="22.61" y="0" class="cls-38">z</tspan><tspan x="28.06" y="0">on A</tspan><tspan x="52.12" y="0" class="cls-39">g</tspan><tspan x="58.38" y="0">ent</tspan></text><rect width="169" height="36.01" x="152.31" y="124.08" class="cls-56"/><path d="M320.31,125.08v34h-167v-34h167m2-2h-171v38h171v-38Z" class="cls-57"/><rect width="169" height="31.58" x="152.31" y="218.66" class="cls-56"/><path d="M320.31,219.66v29.59h-167V219.66h167m2-2h-171v33.59h171V217.66Z" class="cls-57"/><text class="cls-55" transform="translate(163.72 147.04)">Nod<tspan x="22.16" y="0" class="cls-58">e</tspan><tspan x="28.51" y="0">.j</tspan><tspan x="34.78" y="0" class="cls-59">s</tspan><tspan x="40.56" y="0" class="cls-60">, Exp</tspan><tspan x="66.7" y="0" class="cls-61">r</tspan><tspan x="71.04" y="0">e</tspan><tspan x="77.63" y="0" class="cls-62">s</tspan><tspan x="83.4" y="0" class="cls-59">s</tspan><tspan x="89.18" y="0" class="cls-60">, G</tspan><tspan x="103.62" y="0" class="cls-63">r</tspan><tspan x="107.97" y="0" class="cls-60">aphQL</tspan></text><text class="cls-55" transform="translate(158.39 237.41)">Compose <tspan x="53.59" y="0" class="cls-58">P</tspan><tspan x="60.62" y="0" class="cls-64">o</tspan><tspan x="67.34" y="0" class="cls-65">s</tspan><tspan x="73.1" y="0">t</tspan><tspan x="77.32" y="0" class="cls-66">r</tspan><tspan x="81.44" y="0">g</tspan><tspan x="87.78" y="0" class="cls-59">r</tspan><tspan x="92.12" y="0">es database</tspan></text><rect width="142.65" height="47.65" x="171.65" y="16.73" class="cls-54"/><path d="M313.31,17.73V63.38H172.65V17.73H313.31m2-2H170.65V65.38H315.31V15.73Z" class="cls-5"/><text class="cls-55" transform="translate(189.49 35.59)"><tspan class="cls-38">P</tspan><tspan x="7.15" y="0" class="cls-59">r</tspan><tspan x="11.5" y="0" class="cls-67">o</tspan><tspan x="18.12" y="0">vides data vi</tspan><tspan x="84.97" y="0" class="cls-61">e</tspan><tspan x="91.5" y="0" class="cls-68">w</tspan><tspan x="100.69" y="0">s </tspan><tspan x="8.55" y="16">(</tspan><tspan x="12.57" y="16" class="cls-69">R</tspan><tspan x="20.07" y="16">eact, G</tspan><tspan x="57.75" y="16" class="cls-63">r</tspan><tspan x="62.11" y="16" class="cls-60">aphQL)</tspan></text><rect width="196.91" height="71.51" x="404.4" y="125.33" class="cls-54"/><path d="M600.31,126.33v69.51H405.4V126.33H600.31m2-2H403.4v73.51H602.31V124.33Z" class="cls-5"/><text class="cls-3" transform="translate(457.08 141.08)">IBM <tspan x="29.41" y="0" class="cls-70">F</tspan><tspan x="36.89" y="0" class="cls-36">unctions</tspan></text><text class="cls-55" transform="translate(206.93 523.45)">sdr sensor</text><text class="cls-55" transform="translate(205.83 459.36)">sdr se<tspan x="32.47" y="0" class="cls-71">r</tspan><tspan x="37" y="0" class="cls-60">vi</tspan><tspan x="45.9" y="0" class="cls-62">c</tspan><tspan x="51.86" y="0">e</tspan></text><rect width="169.5" height="31.58" x="152.23" y="377" class="cls-1"/><path d="M320.73,378v29.59H153.23V378h167.5m2-2H151.23v33.59h171.5V376Z" class="cls-2"/><text class="cls-55" transform="translate(184.99 395.09)">sdr2m<tspan x="34.88" y="0" class="cls-72">s</tspan><tspan x="40.61" y="0">ghub se</tspan><tspan x="82.8" y="0" class="cls-73">r</tspan><tspan x="87.32" y="0">vi</tspan><tspan x="96.23" y="0" class="cls-62">c</tspan><tspan x="102.19" y="0" class="cls-60">e</tspan></text><rect width="176.86" height="32.05" x="416.02" y="146.99" class="cls-1"/><path d="M591.87,148v30H417V148H591.87m2-2H415v34H593.87V146Z" class="cls-2"/><text class="cls-55" transform="translate(425.48 168.03)">S<tspan x="6.97" y="0" class="cls-39">o</tspan><tspan x="13.62" y="0">ft</tspan><tspan x="21.72" y="0" class="cls-74">w</tspan><tspan x="30.83" y="0">a</tspan><tspan x="37.24" y="0" class="cls-61">r</tspan><tspan x="41.58" y="0" class="cls-73">e-</tspan><tspan x="53.2" y="0">defined </tspan><tspan x="96.74" y="0" class="cls-63">r</tspan><tspan x="101.1" y="0" class="cls-64">adio action</tspan></text><rect width="180.83" height="31.58" x="412.05" y="218.66" class="cls-1"/><path d="M591.87,219.66v29.59H413.05V219.66H591.87m2-2H411.05v33.59H593.87V217.66Z" class="cls-2"/><text class="cls-55" transform="translate(480.65 237.41)"><tspan class="cls-75">T</tspan><tspan x="6.32" y="0">ri</tspan><tspan x="13.73" y="0" class="cls-76">g</tspan><tspan x="20.09" y="0" class="cls-62">g</tspan><tspan x="26.35" y="0" class="cls-60">er</tspan></text><line x1="327.48" x2="415.02" y1="228.54" y2="163.02" class="cls-7"/><polygon points="331.22 231.35 322.31 232.41 325.84 224.16 331.22 231.35" class="cls-8"/><line x1="504.44" x2="504.44" y1="186.5" y2="217.66" class="cls-7"/><polygon points="499.96 187.81 504.44 180.04 508.93 187.81 499.96 187.81" class="cls-8"/><line x1="502.85" x2="502.85" y1="257.07" y2="288.23" class="cls-7"/><polygon points="498.36 258.38 502.85 250.61 507.34 258.38 498.36 258.38" class="cls-8"/><line x1="599.27" x2="670.39" y1="176.14" y2="222.89" class="cls-7"/><polygon points="597.9 180.61 593.87 172.59 602.83 173.11 597.9 180.61" class="cls-8"/><polygon points="666.83 225.92 675.79 226.44 671.76 218.42 666.83 225.92" class="cls-8"/><line x1="600.21" x2="669.45" y1="161.79" y2="148.38" class="cls-7"/><polygon points="602.36 165.95 593.87 163.02 600.65 157.13 602.36 165.95" class="cls-8"/><polygon points="669.01 153.04 675.79 147.16 667.3 144.23 669.01 153.04" class="cls-8"/><line id="_Path_2" x1="7.31" x2="960.77" y1="364.59" y2="364.59" class="cls-6" data-name="&lt;Path&gt;"/><line x1="322.73" x2="423.26" y1="395.09" y2="339.16" class="cls-7"/><polygon points="424.3 343.72 428.91 336.02 419.94 335.88 424.3 343.72" class="cls-8"/><line x1="232.98" x2="232.98" y1="480.19" y2="497.94" class="cls-7"/><polygon points="228.49 481.5 232.98 473.73 237.47 481.5 228.49 481.5" class="cls-8"/><polygon points="228.49 496.63 232.98 504.4 237.47 496.63 228.49 496.63" class="cls-8"/></svg>