<?xml version="1.0" encoding="utf-8"?>
<!-- Generator: Adobe Illustrator 21.1.0, SVG Export Plug-In . SVG Version: 6.00 Build 0)  -->
<svg version="1.1" id="Layer_1" xmlns="http://www.w3.org/2000/svg" xmlns:xlink="http://www.w3.org/1999/xlink" x="0px" y="0px"
	 viewBox="0 0 960.8 575.2" style="enable-background:new 0 0 960.8 575.2;" xml:space="preserve">
<style type="text/css">
	.st0{fill:#E3F6FF;}
	.st1{fill:#0F62FE;}
	.st2{fill:#408BFC;}
	.st3{fill:#FFFFFF;}
	.st4{fill:#009C98;}
	.st5{fill:#051B75;}
	.st6{fill:none;stroke:#BEBEBE;stroke-width:2;stroke-linecap:square;}
	.st7{fill:#BEBEBE;}
	.st8{fill:#F4F4F4;}
	.st9{fill:none;}
	.st10{enable-background:new    ;}
	.st11{fill:#161616;}
	.st12{font-family:'IBMPlexSans';}
	.st13{font-size:14px;}
	.st14{font-family:'IBMPlexSans-Medium';}
	.st15{font-size:16px;}
	.st16{font-size:12px;}
</style>
<g id="Group-2" transform="translate(21.000000, 0.000000)">
	<circle id="Oval-Copy-3" class="st0" cx="45.9" cy="235.6" r="24"/>
	<g id="icon_x2F_policy-admin" transform="translate(8.000000, 8.000000)">
		<path id="Shape" class="st1" d="M32.9,230.6c2.8,0,5,2.2,5,5v6h-2v-6c0-1.7-1.3-3-3-3h-4c-1.7,0-3,1.3-3,3v6h-2v-6
			c0-2.8,2.2-5,5-5H32.9z M30.9,218.6c2.8,0,5,2.2,5,5s-2.2,5-5,5s-5-2.2-5-5S28.1,218.6,30.9,218.6z M49.5,218.6l1.4,1.4l-7.1,7.1
			l-3.9-3.9l1.4-1.4l2.5,2.5L49.5,218.6z M30.9,220.6c-1.7,0-3,1.3-3,3s1.3,3,3,3c1.7,0,3-1.3,3-3S32.6,220.6,30.9,220.6z"/>
	</g>
</g>
<g id="Group-2_1_" transform="translate(21.000000, 0.000000)">
	<circle id="Oval-Copy-3_1_" class="st0" cx="352.9" cy="493.6" r="24"/>
	<g id="icon_x2F_node-owner" transform="translate(8.000000, 8.000000)">
		<g id="Group-23" transform="translate(2.000000, 4.000000)">
			<path id="Shape_1_" class="st1" d="M337.9,484.6c2.8,0,5,2.2,5,5v6h-2v-6c0-1.7-1.3-3-3-3h-4c-1.7,0-3,1.3-3,3v6h-2v-6
				c0-2.8,2.2-5,5-5H337.9z M335.9,472.6c2.8,0,5,2.2,5,5s-2.2,5-5,5s-5-2.2-5-5S333.1,472.6,335.9,472.6z M348.9,480.6v2h-2v-2
				H348.9z M353.9,480.6v2h-2v-2H353.9z M335.9,474.6c-1.7,0-3,1.3-3,3s1.3,3,3,3s3-1.3,3-3S337.6,474.6,335.9,474.6z M356.9,477.6
				v2h-2v-2H356.9z M345.9,477.6v2h-2v-2H345.9z M353.9,472.6v7h-7v-7H353.9z M351.9,474.6h-3v3h3V474.6z M356.9,472.6v2h-2v-2
				H356.9z M345.9,472.6v2h-2v-2H345.9z M348.9,469.6v2h-2v-2H348.9z M353.9,469.6v2h-2v-2H353.9z"/>
		</g>
	</g>
</g>
<g id="Group-2_2_" transform="translate(27.000000, 0.000000)">
	<circle id="Oval-Copy-3_2_" class="st0" cx="247.9" cy="78.6" r="24"/>
	<g id="icon_x2F_cloud-installer" transform="translate(8.000000, 8.000000)">
		<path id="Shape_2_" class="st1" d="M234.9,73.6c2.8,0,5,2.2,5,5v6h-2v-6c0-1.7-1.3-3-3-3h-4c-1.7,0-3,1.3-3,3v6h-2v-6
			c0-2.8,2.2-5,5-5H234.9z M232.9,61.6c2.8,0,5,2.2,5,5c0,2.8-2.2,5-5,5s-5-2.2-5-5C227.9,63.8,230.1,61.6,232.9,61.6z M247.9,59.5
			c2.1,0,3.9,1.4,4.5,3.4l0.1,0.2v0.1l0,0c1.3,0.5,2.2,1.7,2.3,3.1v0.2v0.2c0,2.1-1.6,3.7-3.7,3.9h-0.2h-6.3c-2.1,0-3.9-1.7-3.9-3.9
			c0-1.5,0.9-2.8,2.2-3.5l0.2-0.1V63c0.5-1.9,2.1-3.4,4.1-3.6h0.2L247.9,59.5z M232.9,63.6c-1.7,0-3,1.3-3,3c0,1.7,1.3,3,3,3
			s3-1.3,3-3C235.9,64.9,234.6,63.6,232.9,63.6z M247.9,61.5c-1.4,0-2.5,1-2.7,2.4v0.2v0.8l-0.8,0.2c-0.9,0.2-1.5,0.9-1.5,1.8
			c0,1,0.8,1.8,1.7,1.9h0.1h6.3c1,0,1.9-0.8,1.9-1.9c0-0.8-0.6-1.6-1.3-1.8h-0.1l-0.8-0.2v-0.8C250.5,62.6,249.3,61.5,247.9,61.5z"
			/>
	</g>
</g>
<g id="Group-2_3_" transform="translate(47.000000, 0.000000)">
	<circle id="Oval-Copy-3_3_" class="st0" cx="506.9" cy="78.6" r="24"/>
	<g id="icon_x2F_developer" transform="translate(8.000000, 8.000000)">
		<path id="Shape_3_" class="st1" d="M493.9,73.6c2.8,0,5,2.2,5,5v6h-2v-6c0-1.7-1.3-3-3-3h-4c-1.7,0-3,1.3-3,3v6h-2v-6
			c0-2.8,2.2-5,5-5H493.9z M491.9,61.6c2.8,0,5,2.2,5,5c0,2.8-2.2,5-5,5s-5-2.2-5-5C486.9,63.8,489.1,61.6,491.9,61.6z M507,60.5
			l1.8,0.4l-2.4,10.4l-1.8-0.4L507,60.5z M501.8,62.2l1.4,1.2l-2.1,2.6l2.1,2.6l-1.4,1.2l-3.1-3.7L501.8,62.2z M511.6,62.2l3.1,3.7
			l-3.1,3.7l-1.4-1.2l2.1-2.6l-2.1-2.6L511.6,62.2z M491.9,63.6c-1.7,0-3,1.3-3,3c0,1.7,1.3,3,3,3s3-1.3,3-3
			C494.9,64.9,493.6,63.6,491.9,63.6z"/>
	</g>
</g>
<rect id="Rectangle-Copy" x="474.9" y="353.6" class="st2" width="304" height="157"/>
<rect id="Rectangle-Copy-9" x="490.9" y="413.6" class="st3" width="80" height="81"/>
<rect id="Rectangle-Copy-10" x="682.9" y="413.6" class="st3" width="80" height="81"/>
<rect id="Rectangle-Copy-11" x="730.9" y="157.6" class="st4" width="208" height="155"/>
<rect id="Rectangle-Copy-12" x="252.1" y="157.6" class="st5" width="439.2" height="155"/>
<path id="Line-3-Copy" class="st6" d="M409.2,495.1c0,0,22.9,0,65.7,0C432.1,495.1,409.2,495.1,409.2,495.1z"/>
<g id="Group-4-Copy" transform="translate(680.000000, 87.500000) scale(1, -1) translate(-680.000000, -87.500000) translate(565.000000, 48.000000)">
	<path id="Path-2-Copy-5" class="st7" d="M251.9-30.1l7,14h-6v65.5h-232v-2h230v-63.5h-6L251.9-30.1z"/>
</g>
<path id="Line-7" class="st7" d="M647.9,79.1v64h6l-7,14l-7-14h6v-64H647.9z"/>
<path id="Path-2-Copy-11" class="st7" d="M668.9,447.6l14,7l-14,7v-6h-98v-2h98V447.6z"/>
<g id="icon_x2F_device_x2F_16" transform="translate(685.000000, 339.000000)">
	<path id="Shape_4_" class="st8" d="M19.9,31.6c0.6,0,1,0.4,1,1c0,0.5-0.4,0.9-0.8,1l-0.5,1h3.3c1.1,0,2,0.9,2,2v5c0,1.1-0.9,2-2,2
		h-8c-1.1,0-2-0.9-2-2v-5c0-1.1,0.9-2,2-2h3.7l0.6-1.4c-0.2-0.1-0.3-0.3-0.3-0.5v-0.1C18.9,32,19.3,31.6,19.9,31.6z M22.9,35.6h-8
		c-0.5,0-0.9,0.4-1,0.9v0.1v5c0,0.5,0.4,0.9,0.9,1h0.1h8c0.5,0,0.9-0.4,1-0.9v-0.1v-5c0-0.5-0.4-0.9-0.9-1H22.9z M21.4,40.6
		c0.3,0,0.5,0.2,0.5,0.5c0,0.3-0.2,0.5-0.5,0.5h-5c-0.3,0-0.5-0.2-0.5-0.5c0-0.3,0.2-0.5,0.5-0.5H21.4z M16.4,36.6
		c0.8,0,1.5,0.7,1.5,1.5c0,0.8-0.7,1.5-1.5,1.5c-0.8,0-1.5-0.7-1.5-1.5C14.9,37.3,15.6,36.6,16.4,36.6z M21.4,36.6
		c0.8,0,1.5,0.7,1.5,1.5c0,0.8-0.7,1.5-1.5,1.5c-0.8,0-1.5-0.7-1.5-1.5C19.9,37.3,20.6,36.6,21.4,36.6z M16.4,37.6
		c-0.3,0-0.5,0.2-0.5,0.5c0,0.3,0.2,0.5,0.5,0.5c0.3,0,0.5-0.2,0.5-0.5C16.9,37.8,16.7,37.6,16.4,37.6z M21.4,37.6
		c-0.3,0-0.5,0.2-0.5,0.5c0,0.3,0.2,0.5,0.5,0.5c0.3,0,0.5-0.2,0.5-0.5C21.9,37.8,21.7,37.6,21.4,37.6z"/>
</g>
<g id="icon_x2F_cluster_x2F_16" transform="translate(606.000000, 339.000000)">
	<path id="Shape_5_" class="st8" d="M18.9,34.1c0.8,0,1.5-0.7,1.5-1.5c0-0.8-0.7-1.5-1.5-1.5c-0.8,0-1.5,0.7-1.5,1.5
		C17.4,33.4,18.1,34.1,18.9,34.1z M18.9,32.1c0.3,0,0.5,0.2,0.5,0.5c0,0.3-0.2,0.5-0.5,0.5c-0.3,0-0.5-0.2-0.5-0.5
		C18.4,32.3,18.6,32.1,18.9,32.1z M23.7,36.5c0.8,0,1.5-0.7,1.5-1.5s-0.7-1.5-1.5-1.5c-0.8,0-1.5,0.7-1.5,1.5S22.9,36.5,23.7,36.5z
		 M23.7,34.5c0.3,0,0.5,0.2,0.5,0.5s-0.2,0.5-0.5,0.5c-0.3,0-0.5-0.2-0.5-0.5S23.4,34.5,23.7,34.5L23.7,34.5z M13.1,38.7
		c-0.8,0-1.5,0.7-1.5,1.5s0.7,1.5,1.5,1.5c0.8,0,1.5-0.7,1.5-1.5S14,38.7,13.1,38.7z M13.1,40.7c-0.3,0-0.5-0.2-0.5-0.5
		s0.2-0.5,0.5-0.5c0.3,0,0.5,0.2,0.5,0.5S13.4,40.7,13.1,40.7z M14.1,36.5c0.8,0,1.5-0.7,1.5-1.5s-0.7-1.5-1.5-1.5
		c-0.8,0-1.5,0.7-1.5,1.5C12.6,35.8,13.3,36.5,14.1,36.5L14.1,36.5z M14.1,34.5c0.3,0,0.5,0.2,0.5,0.5s-0.2,0.5-0.5,0.5
		c-0.2,0-0.5-0.2-0.5-0.5S13.8,34.5,14.1,34.5L14.1,34.5z M24.7,38.7c-0.8,0-1.5,0.7-1.5,1.5s0.7,1.5,1.5,1.5c0.8,0,1.5-0.7,1.5-1.5
		S25.5,38.7,24.7,38.7z M24.7,40.7c-0.3,0-0.5-0.2-0.5-0.5s0.2-0.5,0.5-0.5c0.3,0,0.5,0.2,0.5,0.5S24.9,40.7,24.7,40.7z M21.3,42.6
		c-0.8,0-1.5,0.7-1.5,1.5c0,0.8,0.7,1.5,1.5,1.5c0.8,0,1.5-0.7,1.5-1.5C22.8,43.3,22.2,42.6,21.3,42.6L21.3,42.6z M21.3,44.6
		c-0.3,0-0.5-0.2-0.5-0.5c0-0.3,0.2-0.5,0.5-0.5c0.3,0,0.5,0.2,0.5,0.5c0,0.1-0.1,0.3-0.1,0.4C21.6,44.5,21.5,44.6,21.3,44.6z
		 M16.5,42.6c-0.8,0-1.5,0.7-1.5,1.5c0,0.8,0.7,1.5,1.5,1.5c0.8,0,1.5-0.7,1.5-1.5C18,43.3,17.3,42.6,16.5,42.6L16.5,42.6z
		 M16.5,44.6c-0.3,0-0.5-0.2-0.5-0.5c0-0.3,0.2-0.5,0.5-0.5c0.3,0,0.5,0.2,0.5,0.5C17,44.4,16.7,44.6,16.5,44.6z M21.9,38.6
		c0-1.7-1.3-3-3-3c-1.7,0-3,1.3-3,3c0,1.7,1.3,3,3,3C20.6,41.6,21.9,40.3,21.9,38.6z M18.9,40.6c-1.1,0-2-0.9-2-2c0-1.1,0.9-2,2-2
		s2,0.9,2,2c0,0.5-0.2,1-0.6,1.4C19.9,40.4,19.4,40.6,18.9,40.6z"/>
</g>
<path id="Line-Copy" class="st7" d="M237.7,230.1l14,7l-14,7v-6l-132.8,0.5h-1v-2h1l132.8-0.5V230.1z"/>
<path id="Path-4" class="st7" d="M431.1,312.6v141h45.8v-6l14,7l-14,7v-6h-47.8v-143H431.1z"/>
<path id="Path-5" class="st7" d="M298.9,312.6l7,14h-6v167.5h37.5v2h-39.5V326.6h-6L298.9,312.6z"/>
<path id="Line-6" class="st7" d="M462.9,77.6v66h6l-7,14l-7-14h6v-64H311.4v-2H462.9z"/>
<path id="Path-3" class="st7" d="M817.9,312.6v143h-41v6l-14-7l14-7v6h39v-141H817.9z"/>
<rect x="481.4" y="113.2" class="st9" width="143.7" height="15.6"/>
<rect x="491.2" y="108.4" class="st9" width="125" height="32.1"/>
<text transform="matrix(1 0 0 1 501.3365 120.2595)" class="st10"><tspan x="0" y="0" class="st11 st12 st13">Desarrollador de </tspan><tspan x="24.8" y="16.8" class="st11 st12 st13">software</tspan></text>
<rect x="202.4" y="113.2" class="st9" width="143.7" height="15.6"/>
<text transform="matrix(1 0 0 1 215.6816 123.5488)" class="st11 st12 st13">Instalador de Cloud</text>
<rect x="585.7" y="54.3" class="st9" width="232" height="15.6"/>
<text transform="matrix(1 0 0 1 602.8558 69.2917)" class="st11 st12 st13">Desarrolla y publica el servicio</text>
<rect x="766.9" y="175.5" class="st9" width="162.3" height="15.6"/>
<text transform="matrix(0.974 0 0 1 766.8856 187.3932)" class="st8 st14 st15">Registro de contenedor</text>
<rect x="267.7" y="177.7" class="st9" width="236.1" height="15.6"/>
<text transform="matrix(1 0 0 1 267.7028 189.5869)" class="st8 st14 st15">Centro de gestión</text>
<rect x="490.9" y="373.8" class="st9" width="95" height="15.6"/>
<rect x="490.9" y="372.1" class="st9" width="93" height="36.9"/>
<text transform="matrix(1 0 0 1 490.8858 385.6687)" class="st10"><tspan x="0" y="0" class="st8 st14 st15">Nodo </tspan><tspan x="0" y="19.2" class="st8 st14 st15">periférico</tspan></text>
<rect x="498.9" y="438.2" class="st9" width="64" height="43.6"/>
<rect x="690.9" y="438.2" class="st9" width="64" height="43.6"/>
<rect x="570.9" y="430.2" class="st9" width="98" height="14.7"/>
<text transform="matrix(1 0 0 1 583.147 447.9069)" class="st8 st12 st13">Ejecuciones</text>
<rect x="646.9" y="372.8" class="st9" width="58.9" height="14.7"/>
<text transform="matrix(1 0 0 1 635.8854 381.6472)" class="st8 st12 st16">Clúster o</text>
<rect x="724.9" y="372.8" class="st9" width="44.5" height="14.7"/>
<text transform="matrix(1 0 0 1 713.8854 381.6472)" class="st8 st12 st16">Dispositivo</text>
<rect x="328" y="528.2" class="st9" width="90.6" height="15.5"/>
<text transform="matrix(1 0 0 1 313.1558 538.6116)" class="st11 st12 st13">Propietario de nodo</text>
<rect x="19.1" y="270.2" class="st9" width="94.5" height="15.5"/>
<text transform="matrix(1 0 0 1 22.1723 277.0437)" class="st11 st12 st13">Administrador</text>
<g>
	<path class="st8" d="M758.9,175.1h-8c-0.6,0-1,0.4-1,1v11c0,0.6,0.4,1,1,1h8c0.6,0,1-0.4,1-1v-11
		C759.9,175.6,759.5,175.1,758.9,175.1z M758.9,176.1v3h-8v-3H758.9z M750.9,183.1v-3h8v3H750.9z M750.9,187.1v-3h8v3H750.9z"/>
	<circle class="st8" cx="752.4" cy="177.6" r="0.5"/>
	<circle class="st8" cx="752.4" cy="181.6" r="0.5"/>
	<circle class="st8" cx="752.4" cy="185.6" r="0.5"/>
	<rect id="_x3C_Transparent_Rectangle_x3E__616_" x="746.9" y="173.6" class="st9" width="16" height="16"/>
</g>
<g id="Layer_2">
</g>
<rect x="112.9" y="203.9" class="st9" width="128" height="30.6"/>
<text transform="matrix(1 0 0 1 112.8856 214.255)"><tspan x="0" y="0" class="st11 st12 st13">Gestiona el </tspan><tspan x="0" y="16.8" class="st11 st12 st13">despliegue</tspan></text>
<rect x="312.4" y="42.1" class="st9" width="108.5" height="30.6"/>
<text transform="matrix(1 0 0 1 312.3856 52.4217)"><tspan x="0" y="0" class="st11 st12 st13">Instala el centro </tspan><tspan x="0" y="16.8" class="st11 st12 st13">de gestión</tspan></text>
<rect x="212.4" y="368.9" class="st9" width="75.5" height="64.2"/>
<text transform="matrix(1 0 0 1 212.3856 379.2545)"><tspan x="0" y="0" class="st11 st12 st13">Registra el </tspan><tspan x="0" y="16.8" class="st11 st12 st13">nodo con el </tspan><tspan x="0" y="33.6" class="st11 st12 st13">centro de </tspan><tspan x="0" y="50.4" class="st11 st12 st13">gestión</tspan></text>
<rect x="318.9" y="354.4" class="st9" width="108" height="64.2"/>
<text transform="matrix(1 0 0 1 318.8856 364.7545)"><tspan x="0" y="0" class="st11 st12 st13">Obtiene las </tspan><tspan x="0" y="16.8" class="st11 st12 st13">instrucciones de </tspan><tspan x="0" y="33.6" class="st11 st12 st13">despliegue del </tspan><tspan x="0" y="50.4" class="st11 st12 st13">servicio</tspan></text>
<rect x="498.4" y="438.9" class="st9" width="63.2" height="30.6"/>
<text transform="matrix(1 0 0 1 507.6668 449.2545)"><tspan x="0" y="0" class="st11 st12 st13">Agente </tspan><tspan x="-7.8" y="16.8" class="st11 st12 st13">periférico</tspan></text>
<rect x="688.4" y="440.4" class="st9" width="70.5" height="30.6"/>
<text transform="matrix(1 0 0 1 698.7723 450.7545)"><tspan x="0" y="0" class="st11 st12 st13">Servicio </tspan><tspan x="-5.2" y="16.8" class="st11 st12 st13">periférico</tspan></text>
<rect x="825.4" y="361.6" class="st9" width="87.5" height="30.6"/>
<text transform="matrix(1 0 0 1 825.3856 371.9212)"><tspan x="0" y="0" class="st11 st12 st13">Extrae </tspan><tspan x="0" y="16.8" class="st11 st12 st13">contenedores</tspan></text>
</svg>
