<?xml version="1.0" encoding="utf-8"?>
<!-- Generator: Adobe Illustrator 21.1.0, SVG Export Plug-In . SVG Version: 6.00 Build 0)  -->
<svg version="1.1" id="Layer_1" xmlns="http://www.w3.org/2000/svg" xmlns:xlink="http://www.w3.org/1999/xlink" x="0px" y="0px"
	 viewBox="0 0 940.8 863.2" style="enable-background:new 0 0 940.8 863.2;" xml:space="preserve">
<style type="text/css">
	.st0{fill:#408BFC;}
	.st1{fill:#FFFFFF;}
	.st2{fill:#8A3FFC;}
	.st3{fill:none;stroke:#00BAB6;stroke-width:2;stroke-dasharray:7;}
	.st4{fill:#E3F6FF;}
	.st5{fill:#0F62FE;}
	.st6{fill:#009C98;}
	.st7{fill:#BEBEBE;}
	.st8{fill:#051B75;}
	.st9{fill:none;}
	.st10{fill:#161616;}
	.st11{font-family:'IBMPlexSans';}
	.st12{font-size:14px;}
	.st13{enable-background:new    ;}
	.st14{fill:#F4F4F4;}
	.st15{font-family:'IBMPlexSans-Medium';}
	.st16{font-size:16px;}
</style>
<rect id="Rectangle-Copy-14" x="494.4" y="660.1" class="st0" width="370" height="180"/>
<rect id="Rectangle-Copy-9" x="510.4" y="743.1" class="st1" width="80" height="81"/>
<rect id="Rectangle-Copy-18_1_" x="763.4" y="718.1" class="st2" width="85" height="106"/>
<path id="Rectangle-Copy-17" class="st3" d="M519.4,55.1h357c22.1,0,40,17.9,40,40v222c0,22.1-17.9,40-40,40h-357
	c-22.1,0-40-17.9-40-40v-222C479.4,73,497.3,55.1,519.4,55.1z"/>
<path id="Rectangle-Copy-22" class="st3" d="M55.4,143.1h237c22.1,0,40,17.9,40,40v94c0,22.1-17.9,40-40,40h-237
	c-22.1,0-40-17.9-40-40v-94C15.4,161,33.3,143.1,55.4,143.1z"/>
<circle id="Oval-Copy-3" class="st4" cx="72.4" cy="203.1" r="24"/>
<path id="Shape" class="st5" d="M67.4,206.1c2.8,0,5,2.2,5,5v6h-2v-6c0-1.7-1.3-3-3-3h-4c-1.7,0-3,1.3-3,3v6h-2v-6c0-2.8,2.2-5,5-5
	H67.4z M65.4,194.1c2.8,0,5,2.2,5,5s-2.2,5-5,5c-2.8,0-5-2.2-5-5S62.6,194.1,65.4,194.1z M86.4,195.1v8h-2v-8H86.4z M81.4,192.1v11
	h-2v-11H81.4z M76.4,197.1v6h-2v-6H76.4z M65.4,196.1c-1.7,0-3,1.3-3,3s1.3,3,3,3c1.7,0,3-1.3,3-3S67.1,196.1,65.4,196.1z"/>
<circle id="Oval-Copy-3_1_" class="st4" cx="543.4" cy="111.1" r="24"/>
<path id="Shape_1_" class="st5" d="M538.4,114.1c2.8,0,5,2.2,5,5v6h-2v-6c0-1.7-1.3-3-3-3h-4c-1.7,0-3,1.3-3,3v6h-2v-6
	c0-2.8,2.2-5,5-5H538.4z M536.4,102.1c2.8,0,5,2.2,5,5s-2.2,5-5,5s-5-2.2-5-5S533.6,102.1,536.4,102.1z M551.5,101l1.8,0.4
	l-2.4,10.4l-1.8-0.4L551.5,101z M546.3,102.7l1.4,1.2l-2.1,2.6l2.1,2.6l-1.4,1.2l-3.1-3.7L546.3,102.7z M556.1,102.7l3.1,3.7
	l-3.1,3.7l-1.4-1.2l2.1-2.6l-2.1-2.6L556.1,102.7z M536.4,104.1c-1.7,0-3,1.3-3,3s1.3,3,3,3s3-1.3,3-3S538.1,104.1,536.4,104.1z"/>
<rect id="Rectangle-Copy-14_1_" x="554.4" y="445.1" class="st6" width="260" height="155"/>
<path id="Line-2-Copy-37" class="st7" d="M842.9,325.1v77.3h-357v75.7h-56.5v6l-14-7l14-7v6h54.5v-75.7h357v-75.3H842.9z"/>
<path id="Line-5-Copy-3" class="st7" d="M842.7,521.6v1l-0.5,123.5h6l-7.1,14l-6.9-14h6l0.4-122.5h-26.2v-2H842.7z"/>
<path id="Line-5-Copy-4" class="st7" d="M540.4,470.1l14,7l-14,7v-6h-55.5v-2h55.5V470.1z"/>
<rect id="Rectangle-Copy-18_2_" x="15.4" y="445.1" class="st8" width="400" height="155"/>
<rect id="Rectangle-Copy-16" x="319.4" y="502.1" class="st1" width="80" height="81"/>
<rect id="Rectangle-Copy-18_3_" x="687.4" y="87.1" class="st2" width="104" height="81"/>
<rect id="Rectangle-Copy-18_4_" x="799.4" y="219.1" class="st2" width="85" height="106"/>
<rect id="Rectangle-Copy-18_5_" x="511.4" y="219.1" class="st2" width="85" height="106"/>
<path id="Line-2-Copy-20" class="st7" d="M673.4,120.2l14,6.9l-14,7.1v-6l-92,0.4h-1v-2h1l92-0.4V120.2z"/>
<path id="Line-2-Copy-25" class="st7" d="M201.9,200.1l14,7l-14,7v-6h-93.5v-2h93.5V200.1z"/>
<path id="Line-2-Copy-27" class="st7" d="M497.4,224.1l14,7l-14,7v-6h-197v-2h197V224.1z"/>
<path id="Line-2-Copy-29" class="st7" d="M785.4,265.1l14,7l-14,7v-6h-189v-2h189V265.1z"/>
<rect x="108.4" y="185.9" class="st9" width="93.5" height="16.3"/>
<text transform="matrix(1 0 0 1 129.1483 200.3042)" class="st10 st11 st12">1. Crea</text>
<rect x="590.3" y="102.7" class="st9" width="74.1" height="14.9"/>
<text transform="matrix(1 0 0 1 603.1627 119.7628)" class="st10 st11 st12">Instala</text>
<rect x="644.8" y="377.8" class="st9" width="170.9" height="14.9"/>
<text transform="matrix(1 0 0 1 620.3005 392.1334)" class="st10 st11 st12">4. Publica servicios</text>
<rect x="319.4" y="535.8" class="st9" width="80" height="14.9"/>
<text transform="matrix(1 0 0 1 343.7975 546.1317)" class="st10 st11 st12">MMS</text>
<rect x="516.4" y="767.7" class="st9" width="65.8" height="37.9"/>
<rect x="763.4" y="759.7" class="st9" width="84.8" height="16.4"/>
<rect x="773.8" y="758.2" class="st9" width="61.3" height="32.1"/>
<text transform="matrix(1 0 0 1 779.5506 770.0495)" class="st13"><tspan x="0" y="0" class="st14 st11 st12">Servicio </tspan><tspan x="8" y="16.8" class="st14 st11 st12">de IA</tspan></text>
<rect x="687.4" y="119.7" class="st9" width="104" height="14.9"/>
<text transform="matrix(1 0 0 1 716.7623 130.1142)" class="st14 st11 st12">Docker</text>
<rect x="799.3" y="260.7" class="st9" width="85" height="14.9"/>
<rect x="813.8" y="256.2" class="st9" width="59.3" height="32.1"/>
<text transform="matrix(1 0 0 1 818.5435 268.0604)" class="st13"><tspan x="0" y="0" class="st14 st11 st12">Servicio </tspan><tspan x="8" y="16.8" class="st14 st11 st12">de IA</tspan></text>
<rect x="511.2" y="253.2" class="st9" width="85.2" height="34.7"/>
<rect x="31.4" y="465.2" class="st9" width="236.1" height="15.6"/>
<text transform="matrix(1 0 0 1 31.3863 477.0749)" class="st14 st15 st16">Centro de gestión</text>
<rect x="510.4" y="680.3" class="st9" width="236.1" height="15.6"/>
<text transform="matrix(1 0 0 1 510.3863 692.1018)" class="st14 st15 st16">Nodo periférico</text>
<rect x="48.4" y="115.3" class="st9" width="236.1" height="15.6"/>
<text transform="matrix(1 0 0 1 48.378 127.1148)" class="st10 st15 st16">Entorno de expertos en datos</text>
<rect x="511.4" y="27.3" class="st9" width="236.1" height="15.6"/>
<text transform="matrix(1 0 0 1 511.3863 39.0989)" class="st10 st15 st16">Entorno de desarrollador</text>
<rect id="Rectangle-Copy-18_6_" x="215.4" y="177.1" class="st2" width="85" height="120"/>
<rect x="217.5" y="199.8" class="st9" width="80.6" height="74.6"/>
<rect x="590.4" y="466.2" class="st9" width="162.3" height="15.6"/>
<text transform="matrix(1 0 0 1 590.3857 478.0731)" class="st14 st15 st16">Registro de contenedor</text>
<g>
	<path class="st14" d="M582.4,465.8h-8c-0.6,0-1,0.4-1,1v11c0,0.6,0.4,1,1,1h8c0.6,0,1-0.4,1-1v-11
		C583.4,466.2,583,465.8,582.4,465.8z M582.4,466.8v3h-8v-3H582.4z M574.4,473.8v-3h8v3H574.4z M574.4,477.8v-3h8v3H574.4z"/>
	<circle class="st14" cx="575.9" cy="468.3" r="0.5"/>
	<circle class="st14" cx="575.9" cy="472.3" r="0.5"/>
	<circle class="st14" cx="575.9" cy="476.3" r="0.5"/>
	<rect id="_x3C_Transparent_Rectangle_x3E__616_" x="570.4" y="464.3" class="st9" width="16" height="16"/>
</g>
<rect x="26.1" y="234.4" class="st9" width="91.3" height="30.6"/>
<text transform="matrix(1 0 0 1 37.7702 244.7479)"><tspan x="0" y="0" class="st10 st11 st12">Experto en </tspan><tspan x="16.4" y="16.8" class="st10 st11 st12">datos</tspan></text>
<rect x="221.7" y="198.4" class="st9" width="71.3" height="64.2"/>
<text transform="matrix(1 0 0 1 224.7596 208.7479)"><tspan x="0" y="0" class="st14 st11 st12">Aplicación </tspan><tspan x="3.9" y="16.8" class="st14 st11 st12">de IA/ML </tspan><tspan x="12.2" y="33.6" class="st14 st11 st12">con su </tspan><tspan x="8.9" y="50.4" class="st14 st11 st12">modelo</tspan></text>
<rect x="349.7" y="177.4" class="st9" width="122.3" height="47.4"/>
<text transform="matrix(1 0 0 1 349.7196 187.7494)"><tspan x="0" y="0" class="st10 st11 st12">2. Comparte la </tspan><tspan x="0" y="16.8" class="st10 st11 st12">aplicación con el </tspan><tspan x="0" y="33.6" class="st10 st11 st12">desarrollador</tspan></text>
<rect x="499.1" y="141.4" class="st9" width="85.7" height="47.4"/>
<text transform="matrix(1 0 0 1 506.8028 151.7479)"><tspan x="0" y="0" class="st10 st11 st12">Desarrolla</tspan><tspan x="64.6" y="0" class="st10 st11 st12">-</tspan><tspan x="0.9" y="16.8" class="st10 st11 st12">dor de sof</tspan><tspan x="63.6" y="16.8" class="st10 st11 st12">-</tspan><tspan x="17.1" y="33.6" class="st10 st11 st12">tware</tspan></text>
<rect x="521.1" y="256.7" class="st9" width="67" height="30.6"/>
<text transform="matrix(1 0 0 1 521.9258 267.0814)"><tspan x="0" y="0" class="st14 st11 st12">Aplicación </tspan><tspan x="3.9" y="16.8" class="st14 st11 st12">de IA/ML</tspan></text>
<rect x="604.1" y="236.4" class="st9" width="171.7" height="30.6"/>
<text transform="matrix(1 0 0 1 604.0527 246.7459)"><tspan x="0" y="0" class="st10 st11 st12">3. Empaqueta la aplicación </tspan><tspan x="0" y="16.8" class="st10 st11 st12">en un servicio</tspan></text>
<rect x="846.4" y="563.8" class="st9" width="87.3" height="30.6"/>
<text transform="matrix(1 0 0 1 846.3857 574.1732)"><tspan x="0" y="0" class="st10 st11 st12">5. Extrae </tspan><tspan x="0" y="16.8" class="st10 st11 st12">contenedores</tspan></text>
<rect x="517.7" y="766" class="st9" width="64.6" height="30.6"/>
<text transform="matrix(1 0 0 1 527.6403 776.3125)"><tspan x="0" y="0" class="st10 st11 st12">Agente </tspan><tspan x="-7.8" y="16.8" class="st10 st11 st12">periférico</tspan></text>
</svg>
