<?xml version="1.0" encoding="utf-8"?>
<!-- Generator: Adobe Illustrator 21.1.0, SVG Export Plug-In . SVG Version: 6.00 Build 0)  -->
<svg version="1.1" id="Layer_1" xmlns="http://www.w3.org/2000/svg" xmlns:xlink="http://www.w3.org/1999/xlink" x="0px" y="0px"
	 viewBox="0 0 941.1 834.5" style="enable-background:new 0 0 941.1 834.5;" xml:space="preserve">
<style type="text/css">
	.st0{fill:none;stroke:#00BAB6;stroke-width:2;stroke-dasharray:7;}
	.st1{fill:#E3F6FF;}
	.st2{fill:#0F62FE;}
	.st3{fill:#009C98;}
	.st4{fill:#DCDCDC;}
	.st5{fill:#408BFC;}
	.st6{fill:#FFFFFF;}
	.st7{fill:#051B75;}
	.st8{fill:#8A3FFC;}
	.st9{fill:#EE538B;}
	.st10{fill:none;}
	.st11{fill:#161616;}
	.st12{font-family:'IBMPlexSans';}
	.st13{font-size:14px;}
	.st14{enable-background:new    ;}
	.st15{fill:#F4F4F4;}
	.st16{font-family:'IBMPlexSans-Medium';}
	.st17{font-size:16px;}
</style>
<path id="Rectangle-Copy-19" class="st0" d="M524,40.7h357c22.1,0,40,17.9,40,40v222c0,22.1-17.9,40-40,40H524
	c-22.1,0-40-17.9-40-40v-222C484,58.6,501.9,40.7,524,40.7z"/>
<path id="Rectangle-Copy-23" class="st0" d="M60,128.7h237c22.1,0,40,17.9,40,40v94c0,22.1-17.9,40-40,40H60c-22.1,0-40-17.9-40-40
	v-94C20,146.6,37.9,128.7,60,128.7z"/>
<circle id="Oval-Copy-3" class="st1" cx="77" cy="188.7" r="24"/>
<path id="Shape" class="st2" d="M72,191.7c2.8,0,5,2.2,5,5v6h-2v-6c0-1.7-1.3-3-3-3h-4c-1.7,0-3,1.3-3,3v6h-2v-6c0-2.8,2.2-5,5-5H72
	z M70,179.7c2.8,0,5,2.2,5,5s-2.2,5-5,5c-2.8,0-5-2.2-5-5S67.2,179.7,70,179.7z M91,180.7v8h-2v-8H91z M86,177.7v11h-2v-11H86z
	 M81,182.7v6h-2v-6H81z M70,181.7c-1.7,0-3,1.3-3,3s1.3,3,3,3c1.7,0,3-1.3,3-3S71.7,181.7,70,181.7z"/>
<circle id="Oval-Copy-3_1_" class="st1" cx="548" cy="96.7" r="24"/>
<path id="Shape_1_" class="st2" d="M543,99.7c2.8,0,5,2.2,5,5v6h-2v-6c0-1.7-1.3-3-3-3h-4c-1.7,0-3,1.3-3,3v6h-2v-6c0-2.8,2.2-5,5-5
	H543z M541,87.7c2.8,0,5,2.2,5,5s-2.2,5-5,5s-5-2.2-5-5S538.2,87.7,541,87.7z M556.1,86.6l1.8,0.4l-2.4,10.4l-1.8-0.4L556.1,86.6z
	 M550.9,88.3l1.4,1.2l-2.1,2.6l2.1,2.6l-1.4,1.2l-3.1-3.7L550.9,88.3z M560.7,88.3l3.1,3.7l-3.1,3.7l-1.4-1.2l2.1-2.6l-2.1-2.6
	L560.7,88.3z M541,89.7c-1.7,0-3,1.3-3,3s1.3,3,3,3s3-1.3,3-3S542.7,89.7,541,89.7z"/>
<rect id="Rectangle-Copy-14" x="559" y="430.7" class="st3" width="260" height="155"/>
<path id="Line-5-Copy-5" class="st4" d="M847.3,507.2v1l-0.5,123.5h6l-7.1,14l-6.9-14h6l0.4-122.5H819v-2H847.3z"/>
<rect id="Rectangle-Copy-14_1_" x="499" y="645.7" class="st5" width="370" height="180"/>
<rect id="Rectangle-Copy-9" x="515" y="728.7" class="st6" width="80" height="81"/>
<rect id="Rectangle-Copy-24" x="20" y="430.7" class="st7" width="400" height="155"/>
<rect id="Rectangle-Copy-16" x="324" y="487.7" class="st6" width="80" height="81"/>
<rect id="Rectangle-Copy-18" x="692" y="72.7" class="st8" width="104" height="81"/>
<rect id="Rectangle-Copy-18_1_" x="804" y="204.7" class="st8" width="85" height="106"/>
<rect id="Rectangle-Copy-18_2_" x="768" y="703.7" class="st8" width="85" height="106"/>
<rect id="Rectangle-Copy-18_4_" x="516" y="204.7" class="st8" width="85" height="106"/>
<path id="Line-2-Copy-21" class="st4" d="M678,105.8l14,6.9l-14,7.1v-6l-92,0.4h-1v-2h1l92-0.4V105.8z"/>
<path id="Line-2-Copy-30" class="st9" d="M754,762.7l14,7l-14,7v-6H595v-2h159V762.7z"/>
<path id="Line-2-Copy-31" class="st4" d="M206.5,185.7l14,7l-14,7v-6H113v-2h93.5V185.7z"/>
<path id="Line-2-Copy-32" class="st9" d="M206.5,244.7l14,7l-14,7v-6H113v-2h93.5V244.7z"/>
<path id="Line-2-Copy-33" class="st4" d="M502,209.7l14,7l-14,7v-6H305v-2h197V209.7z"/>
<path id="Line-2-Copy-34" class="st4" d="M847.5,310.7V388h-357v75.7H434v6l-14-7l14-7v6h54.5v-75.6h357v-75.4H847.5z"/>
<path id="Line-2-Copy-35" class="st4" d="M790,250.7l14,7l-14,7v-6H601v-2h189V250.7z"/>
<path id="Line-4-Copy-3" class="st9" d="M365,250.7v223h6l-7,14l-7-14h6v-221h-58v-2H365z"/>
<path id="Path-3-Copy" class="st9" d="M365,568.7v200h135v-6l14,7l-14,7v-6H363v-202H365z"/>
<path id="Line-5" class="st4" d="M545,455.7l14,7l-14,7v-6h-55.5v-2H545V455.7z"/>
<rect x="616.3" y="725.3" class="st10" width="114.1" height="39.6"/>
<rect x="324" y="521.5" class="st10" width="80" height="14.9"/>
<text transform="matrix(1 0 0 1 348.4483 531.888)" class="st11 st12 st13">MMS</text>
<rect x="521" y="753.4" class="st10" width="65.8" height="37.9"/>
<rect x="768" y="745.4" class="st10" width="84.8" height="16.4"/>
<rect x="782.4" y="742.6" class="st10" width="54.6" height="32.1"/>
<text transform="matrix(1 0 0 1 784.8679 754.4562)" class="st14"><tspan x="0" y="0" class="st15 st12 st13">Servicio </tspan><tspan x="8" y="16.8" class="st15 st12 st13">de IA</tspan></text>
<rect x="692" y="105.5" class="st10" width="104" height="14.9"/>
<text transform="matrix(1 0 0 1 721.4131 115.8705)" class="st15 st12 st13">Docker</text>
<rect x="803.9" y="246.4" class="st10" width="85" height="14.9"/>
<rect x="817.4" y="241.7" class="st10" width="59.6" height="32.1"/>
<text transform="matrix(1 0 0 1 822.3608 253.6175)" class="st14"><tspan x="0" y="0" class="st15 st12 st13">Servicio </tspan><tspan x="8" y="16.8" class="st15 st12 st13">de IA</tspan></text>
<rect x="515.8" y="238.9" class="st10" width="85.2" height="34.7"/>
<rect x="36" y="451" class="st10" width="236.1" height="15.6"/>
<text transform="matrix(1 0 0 1 36.0371 462.8313)" class="st15 st16 st17">Centro de gestión</text>
<rect x="515" y="666" class="st10" width="236.1" height="15.6"/>
<text transform="matrix(1 0 0 1 515.0371 677.8581)" class="st15 st16 st17">Nodo periférico</text>
<rect x="53" y="101" class="st10" width="236.1" height="15.6"/>
<text transform="matrix(1 0 0 1 53.0288 112.8711)" class="st11 st16 st17">Entorno de expertos en datos</text>
<rect x="516" y="13" class="st10" width="236.1" height="15.6"/>
<text transform="matrix(1 0 0 1 516.0371 24.8552)" class="st11 st16 st17">Entorno de desarrollador</text>
<rect id="Rectangle-Copy-18_6_" x="220" y="162.7" class="st8" width="85" height="120"/>
<rect x="222.1" y="185.4" class="st10" width="80.6" height="74.6"/>
<rect x="594.7" y="448.9" class="st10" width="162.3" height="15.6"/>
<text transform="matrix(1 0 0 1 594.7437 460.7567)" class="st15 st16 st17">Registro de contenedor</text>
<g>
	<path class="st15" d="M586.7,448.5h-8c-0.6,0-1,0.4-1,1v11c0,0.6,0.4,1,1,1h8c0.6,0,1-0.4,1-1v-11
		C587.7,448.9,587.3,448.5,586.7,448.5z M586.7,449.5v3h-8v-3H586.7z M578.7,456.5v-3h8v3H578.7z M578.7,460.5v-3h8v3H578.7z"/>
	<circle class="st15" cx="580.2" cy="450.9" r="0.5"/>
	<circle class="st15" cx="580.2" cy="454.9" r="0.5"/>
	<circle class="st15" cx="580.2" cy="458.9" r="0.5"/>
	<rect id="_x3C_Transparent_Rectangle_x3E__616_" x="574.7" y="446.9" class="st10" width="16" height="16"/>
</g>
<rect x="43" y="220.5" class="st10" width="65" height="30.6"/>
<text transform="matrix(1 0 0 1 51.0584 230.8789)"><tspan x="0" y="0" class="st11 st12 st13">Experto </tspan><tspan x="-2.6" y="16.8" class="st11 st12 st13">en datos</tspan></text>
<rect x="114.5" y="203.5" class="st10" width="99.5" height="30.6"/>
<text transform="matrix(1 0 0 1 114.5369 213.8789)"><tspan x="0" y="0" class="st11 st12 st13">6. Realiza </tspan><tspan x="0" y="16.8" class="st11 st12 st13">actualizaciones</tspan></text>
<rect x="227.5" y="191.5" class="st10" width="69" height="64.2"/>
<text transform="matrix(1 0 0 1 229.4104 201.8789)"><tspan x="0" y="0" class="st15 st12 st13">Aplicación </tspan><tspan x="3.9" y="16.8" class="st15 st12 st13">de IA/ML </tspan><tspan x="12.2" y="33.6" class="st15 st12 st13">con su </tspan><tspan x="8.9" y="50.4" class="st15 st12 st13">modelo</tspan></text>
<rect x="371.5" y="325" class="st10" width="100.5" height="64.2"/>
<text transform="matrix(1 0 0 1 371.5369 335.3789)"><tspan x="0" y="0" class="st11 st12 st13">7. Envía </tspan><tspan x="0" y="16.8" class="st11 st12 st13">actualizaciones </tspan><tspan x="0" y="33.6" class="st11 st12 st13">de modelos </tspan><tspan x="0" y="50.4" class="st11 st12 st13">utilizando MMS</tspan></text>
<rect x="502" y="126" class="st10" width="93" height="49.5"/>
<text transform="matrix(1 0 0 1 505.698 136.3789)"><tspan x="0" y="0" class="st11 st12 st13">Desarrollador </tspan><tspan x="5.7" y="16.8" class="st11 st12 st13">de software</tspan></text>
<rect x="522.5" y="242.5" class="st10" width="73.5" height="30.6"/>
<text transform="matrix(1 0 0 1 526.66 252.8789)"><tspan x="0" y="0" class="st15 st12 st13">Aplicación </tspan><tspan x="3.9" y="16.8" class="st15 st12 st13">de IA/ML</tspan></text>
<rect x="370.7" y="658" class="st10" width="101" height="47.4"/>
<text transform="matrix(1 0 0 1 370.7034 668.3784)"><tspan x="0" y="0" class="st11 st12 st13">8. Extrae </tspan><tspan x="0" y="16.8" class="st11 st12 st13">actualizaciones </tspan><tspan x="0" y="33.6" class="st11 st12 st13">de modelos</tspan></text>
<rect x="608" y="733.7" class="st10" width="138.7" height="30.6"/>
<text transform="matrix(1 0 0 1 608.0369 744.0464)"><tspan x="0" y="0" class="st15 st12 st13">9. Envía modelo utili</tspan><tspan x="127.3" y="0" class="st15 st12 st13">-</tspan><tspan x="0" y="16.8" class="st15 st12 st13">zando la API de ESS</tspan></text>
<rect x="518.7" y="755" class="st10" width="70.7" height="30.6"/>
<text transform="matrix(1 0 0 1 531.7352 765.3784)"><tspan x="0" y="0" class="st11 st12 st13">Agente </tspan><tspan x="-7.8" y="16.8" class="st11 st12 st13">periférico</tspan></text>
</svg>
