<?xml version="1.0" encoding="utf-8"?>
<!-- Generator: Adobe Illustrator 21.1.0, SVG Export Plug-In . SVG Version: 6.00 Build 0)  -->
<svg version="1.1" id="Layer_1" xmlns="http://www.w3.org/2000/svg" xmlns:xlink="http://www.w3.org/1999/xlink" x="0px" y="0px"
	 viewBox="0 0 952.8 644.2" style="enable-background:new 0 0 952.8 644.2;" xml:space="preserve">
<style type="text/css">
	.st0{fill:#4589FF;}
	.st1{fill:#F4F4F4;}
	.st2{fill:#BEBEBE;}
	.st3{fill:#E3F6FF;}
	.st4{fill:#0F62FE;}
	.st5{fill:#009D9A;}
	.st6{fill:#FFFFFF;}
	.st7{fill:#DCDCDC;}
	.st8{fill:none;stroke:#BEBEBE;stroke-width:2;}
	.st9{fill:#001D6C;}
	.st10{fill:none;}
	.st11{fill:#161616;}
	.st12{font-family:'IBMPlexSans';}
	.st13{font-size:14px;}
	.st14{font-family:'IBMPlexSans-Medium';}
	.st15{font-size:16px;}
	.st16{fill:none;stroke:#BEBEBE;stroke-width:2;stroke-miterlimit:10;}
	.st17{font-size:12px;}
</style>
<rect id="Rectangle-Copy-52" x="609.4" y="358.6" class="st0" width="318" height="269"/>
<path id="Shape" class="st1" d="M633.4,382.1c0.8,0,1.5-0.7,1.5-1.5s-0.7-1.5-1.5-1.5s-1.5,0.7-1.5,1.5S632.6,382.1,633.4,382.1z
	 M633.4,380.1c0.3,0,0.5,0.2,0.5,0.5s-0.2,0.5-0.5,0.5s-0.5-0.2-0.5-0.5S633.1,380.1,633.4,380.1z M638.2,384.5
	c0.8,0,1.5-0.7,1.5-1.5s-0.7-1.5-1.5-1.5s-1.5,0.7-1.5,1.5S637.4,384.5,638.2,384.5z M638.2,382.5c0.3,0,0.5,0.2,0.5,0.5
	s-0.2,0.5-0.5,0.5s-0.5-0.2-0.5-0.5S637.9,382.5,638.2,382.5L638.2,382.5z M627.6,386.7c-0.8,0-1.5,0.7-1.5,1.5s0.7,1.5,1.5,1.5
	s1.5-0.7,1.5-1.5S628.5,386.7,627.6,386.7z M627.6,388.7c-0.3,0-0.5-0.2-0.5-0.5s0.2-0.5,0.5-0.5s0.5,0.2,0.5,0.5
	S627.9,388.7,627.6,388.7z M628.6,384.5c0.8,0,1.5-0.7,1.5-1.5s-0.7-1.5-1.5-1.5s-1.5,0.7-1.5,1.5
	C627.1,383.8,627.8,384.5,628.6,384.5L628.6,384.5z M628.6,382.5c0.3,0,0.5,0.2,0.5,0.5s-0.2,0.5-0.5,0.5s-0.5-0.2-0.5-0.5
	S628.3,382.5,628.6,382.5L628.6,382.5z M639.2,386.7c-0.8,0-1.5,0.7-1.5,1.5s0.7,1.5,1.5,1.5s1.5-0.7,1.5-1.5S640,386.7,639.2,386.7
	z M639.2,388.7c-0.3,0-0.5-0.2-0.5-0.5s0.2-0.5,0.5-0.5s0.5,0.2,0.5,0.5S639.4,388.7,639.2,388.7z M635.8,390.6
	c-0.8,0-1.5,0.7-1.5,1.5s0.7,1.5,1.5,1.5s1.5-0.7,1.5-1.5S636.7,390.6,635.8,390.6L635.8,390.6z M635.8,392.6
	c-0.3,0-0.5-0.2-0.5-0.5s0.2-0.5,0.5-0.5s0.5,0.2,0.5,0.5c0,0.1-0.1,0.3-0.1,0.4C636.1,392.5,636,392.6,635.8,392.6z M631,390.6
	c-0.8,0-1.5,0.7-1.5,1.5s0.7,1.5,1.5,1.5s1.5-0.7,1.5-1.5S631.8,390.6,631,390.6L631,390.6z M631,392.6c-0.3,0-0.5-0.2-0.5-0.5
	s0.2-0.5,0.5-0.5s0.5,0.2,0.5,0.5S631.2,392.6,631,392.6z M636.4,386.6c0-1.7-1.3-3-3-3s-3,1.3-3,3s1.3,3,3,3
	S636.4,388.3,636.4,386.6z M633.4,388.6c-1.1,0-2-0.9-2-2s0.9-2,2-2s2,0.9,2,2c0,0.5-0.2,1-0.6,1.4
	C634.4,388.4,633.9,388.6,633.4,388.6z"/>
<path id="Line-4" class="st2" d="M50.9,76.4v256.2h362.5v-147h-6l7-14l7,14h-6v149H48.9V76.4H50.9z"/>
<circle id="Oval-Copy-3" class="st3" cx="685.4" cy="41.6" r="24"/>
<path id="Shape_1_" class="st4" d="M680.4,44.6c2.8,0,5,2.2,5,5v6h-2v-6c0-1.7-1.3-3-3-3h-4c-1.7,0-3,1.3-3,3v6h-2v-6
	c0-2.8,2.2-5,5-5H680.4z M678.4,32.6c2.8,0,5,2.2,5,5s-2.2,5-5,5s-5-2.2-5-5S675.6,32.6,678.4,32.6z M697,32.6l1.4,1.4l-7.1,7.1
	l-3.9-3.9l1.4-1.4l2.5,2.5L697,32.6z M678.4,34.6c-1.7,0-3,1.3-3,3s1.3,3,3,3s3-1.3,3-3S680.1,34.6,678.4,34.6z"/>
<circle id="Oval-Copy-3_1_" class="st3" cx="49.4" cy="41.6" r="24"/>
<path id="Shape_2_" class="st4" d="M44.4,44.6c2.8,0,5,2.2,5,5v6h-2v-6c0-1.7-1.3-3-3-3h-4c-1.7,0-3,1.3-3,3v6h-2v-6
	c0-2.8,2.2-5,5-5H44.4z M42.4,32.6c2.8,0,5,2.2,5,5s-2.2,5-5,5s-5-2.2-5-5S39.6,32.6,42.4,32.6z M57.5,31.5l1.8,0.4l-2.4,10.4
	l-1.8-0.4L57.5,31.5z M52.3,33.2l1.4,1.2L51.6,37l2.1,2.6l-1.4,1l-3.1-3.7L52.3,33.2z M62.1,33.2l3.1,3.7l-3.1,3.7l-1.4-1.2l2.1-2.6
	l-2.1-2.6L62.1,33.2z M42.4,34.6c-1.7,0-3,1.3-3,3s1.3,3,3,3s3-1.3,3-3S44.1,34.6,42.4,34.6z"/>
<rect id="Rectangle-Copy-14" x="176.4" y="358.6" class="st5" width="250" height="172"/>
<rect id="Rectangle-Copy-16" x="625.4" y="417.6" class="st6" width="80" height="81"/>
<rect id="Rectangle-Copy-16_1_" x="831.4" y="417.6" class="st6" width="80" height="121"/>
<rect id="Rectangle-Copy-16_2_" x="625.4" y="530.6" class="st6" width="80" height="81"/>
<path id="Line-2-Copy-24" class="st2" d="M817.4,450.6l14,7l-14,7v-6h-112v-2h112V450.6z"/>
<path id="Line-2-Copy-26" class="st2" d="M872.4,538.6v35.6h-153v6l-14-7l14-7v6h151v-33.6H872.4z"/>
<circle id="Oval-Copy-3_2_" class="st7" cx="49.4" cy="98.6" r="13"/>
<circle id="Oval-Copy-3_3_" class="st7" cx="49.4" cy="171.6" r="13"/>
<circle id="Oval-Copy-3_4_" class="st7" cx="49.4" cy="262.6" r="13"/>
<circle id="Oval-Copy-3_5_" class="st3" cx="762.4" cy="248.6" r="24"/>
<path id="Shape_3_" class="st4" d="M757.4,251.6c2.8,0,5,2.2,5,5v6h-2v-6c0-1.7-1.3-3-3-3h-4c-1.7,0-3,1.3-3,3v6h-2v-6
	c0-2.8,2.2-5,5-5H757.4z M755.4,239.6c2.8,0,5,2.2,5,5s-2.2,5-5,5s-5-2.2-5-5S752.6,239.6,755.4,239.6z M768.4,247.6v2h-2v-2H768.4z
	 M773.4,247.6v2h-2v-2H773.4z M755.4,241.6c-1.7,0-3,1.3-3,3s1.3,3,3,3s3-1.3,3-3S757.1,241.6,755.4,241.6z M776.4,244.6v2h-2v-2
	H776.4z M765.4,244.6v2h-2v-2H765.4z M773.4,239.6v7h-7v-7H773.4z M771.4,241.6h-3v3h3V241.6z M776.4,239.6v2h-2v-2H776.4z
	 M765.4,239.6v2h-2v-2H765.4z M768.4,236.6v2h-2v-2H768.4z M773.4,236.6v2h-2v-2H773.4z"/>
<path id="Line-8" class="st2" d="M50.9,332.1v104h111.5v-6l14,7l-14,7v-6H48.9v-106H50.9z"/>
<path id="Path-8" class="st2" d="M591.4,488.4v25.2h226v-6l14,7l-14,7v-6h-228v-25.2h-163v-2H591.4z"/>
<path id="Path-7" class="st2" d="M591.4,171.6v270.5h20v-6l14,7l-14,7v-6h-22V171.6H591.4z"/>
<line id="Path-9-Copy" class="st8" x1="761.7" y1="358.6" x2="761.7" y2="282.6"/>
<rect id="Rectangle-Copy-50" x="399.4" y="16.6" class="st9" width="210" height="155"/>
<rect id="Rectangle-Copy-16_4_" x="511.4" y="73.6" class="st6" width="80" height="81"/>
<rect id="Rectangle-Copy-16_5_" x="415.4" y="73.6" class="st6" width="80" height="81"/>
<rect x="39.3" y="92.3" class="st10" width="20" height="12.2"/>
<text transform="matrix(1 0 0 1 44.8152 102.6254)" class="st11 st12 st13">A</text>
<rect x="39.3" y="165.3" class="st10" width="20" height="13.4"/>
<text transform="matrix(1 0 0 1 44.7313 175.6634)" class="st11 st12 st13">B</text>
<rect x="40.6" y="256.3" class="st10" width="17.5" height="13.4"/>
<text transform="matrix(1 0 0 1 44.9554 266.6814)" class="st11 st12 st13">C</text>
<rect x="426.8" y="465.2" class="st10" width="163" height="14.6"/>
<text transform="matrix(1 0 0 1 435.5242 480.9424)" class="st11 st12 st13">6. Extrae contenedores</text>
<rect x="798.4" y="242.3" class="st10" width="100" height="15.4"/>
<text transform="matrix(1 0 0 1 794.4026 254.6527)" class="st11 st12 st13">Propietario de nodo</text>
<rect x="717.4" y="35.3" class="st10" width="100" height="15.4"/>
<text transform="matrix(1 0 0 1 717.4097 45.6646)" class="st11 st12 st13">Administrador</text>
<rect x="415.4" y="36.8" class="st10" width="187" height="15.6"/>
<text transform="matrix(1 0 0 1 415.3799 48.6994)" class="st1 st14 st15">Centro de gestión</text>
<rect x="647.4" y="378.8" class="st10" width="236.1" height="15.6"/>
<text transform="matrix(1 0 0 1 647.3799 390.6289)" class="st1 st14 st15">Nodo periférico</text>
<rect x="831.3" y="451.2" class="st10" width="80" height="56.3"/>
<rect x="634.8" y="445.3" class="st10" width="61.1" height="35.7"/>
<rect x="634.8" y="558.4" class="st10" width="61.1" height="35.7"/>
<rect x="704.7" y="433.2" class="st10" width="111.2" height="13.7"/>
<text transform="matrix(1 0 0 1 714.8865 451.6184)" class="st1 st12 st13">7. Ejecuciones</text>
<rect x="719.9" y="549.2" class="st10" width="150.7" height="13.7"/>
<text transform="matrix(1 0 0 1 758.8838 563.6172)" class="st1 st12 st13">8. Empieza</text>
<rect x="511.3" y="107.3" class="st10" width="80" height="14.9"/>
<text transform="matrix(1 0 0 1 520.3704 117.6418)" class="st11 st12 st13">Exchange</text>
<rect x="415.3" y="107.3" class="st10" width="80" height="14.9"/>
<text transform="matrix(1 0 0 1 436.3611 117.6418)" class="st11 st12 st13">Agbot</text>
<rect x="70.4" y="93.2" class="st10" width="280.6" height="15.7"/>
<text transform="matrix(1 0 0 1 70.3798 103.6136)" class="st11 st12 st13">Crea credenciales de desarrollador</text>
<rect x="88.4" y="35.3" class="st10" width="172.6" height="15.7"/>
<text transform="matrix(1 0 0 1 88.3886 45.6524)" class="st11 st12 st13">Desarrollador de software</text>
<rect x="70.4" y="165.1" class="st10" width="283.4" height="15.7"/>
<text transform="matrix(1 0 0 1 70.3798 175.5208)" class="st11 st12 st13">Desarrolla el operador de servicios periféricos</text>
<rect x="70.4" y="256.3" class="st10" width="293.1" height="15.7"/>
<text transform="matrix(1 0 0 1 70.3798 266.6697)" class="st11 st12 st13">Firma y publica en el centro de gestión</text>
<g>
	<rect x="212.4" y="376.5" class="st10" width="162.3" height="15.6"/>
	<text transform="matrix(1 0 0 1 212.3855 388.3453)" class="st1 st14 st15">Registro de contenedor</text>
	<g>
		<path class="st1" d="M204.4,376.1h-8c-0.6,0-1,0.4-1,1v11c0,0.6,0.4,1,1,1h8c0.6,0,1-0.4,1-1v-11
			C205.4,376.5,205,376.1,204.4,376.1z M204.4,377.1v3h-8v-3H204.4z M196.4,384.1v-3h8v3H196.4z M196.4,388.1v-3h8v3H196.4z"/>
		<circle class="st1" cx="197.9" cy="378.6" r="0.5"/>
		<circle class="st1" cx="197.9" cy="382.6" r="0.5"/>
		<circle class="st1" cx="197.9" cy="386.6" r="0.5"/>
		<rect id="_x3C_Transparent_Rectangle_x3E__616_" x="192.4" y="374.6" class="st10" width="16" height="16"/>
	</g>
</g>
<g>
	<g>
		<polyline class="st16" points="761.4,213.6 761.4,157.6 619.4,157.6 		"/>
		<g>
			<polygon class="st2" points="621.5,150.6 609.4,157.6 621.5,164.6 			"/>
		</g>
	</g>
</g>
<g>
	<g>
		<polyline class="st16" points="685.4,76.7 685.4,133.6 619.4,133.6 		"/>
		<g>
			<polygon class="st2" points="621.5,126.6 609.4,133.6 621.5,140.6 			"/>
		</g>
	</g>
</g>
<rect x="73.9" y="112.4" class="st10" width="291.2" height="26.2"/>
<text transform="matrix(1 0 0 1 73.8858 121.2734)"><tspan x="0" y="0" class="st11 st12 st17">• Crea cuenta de usuario</tspan><tspan x="0" y="14.4" class="st11 st12 st17">• Crea par de claves de firma (se utiliza en el paso C)</tspan></text>
<rect x="72.9" y="193.4" class="st10" width="306.2" height="40.6"/>
<text transform="matrix(1 0 0 1 72.8858 202.2734)"><tspan x="0" y="0" class="st11 st12 st17">• Crea un archivo que contiene los archivos de definición </tspan><tspan x="0" y="14.4" class="st11 st12 st17">yaml del servicio</tspan><tspan x="0" y="28.8" class="st11 st12 st17">• Crea archivos de metadatos de Open Horizon</tspan></text>
<rect x="76.4" y="284.4" class="st10" width="242.5" height="26.2"/>
<text transform="matrix(1 0 0 1 76.3858 293.2734)"><tspan x="0" y="0" class="st11 st12 st17">• Envía, firma y publica contenedores</tspan><tspan x="0" y="14.4" class="st11 st12 st17">• Añade restricciones de política de servicio</tspan></text>
<rect x="61.4" y="362.4" class="st10" width="107.5" height="30.6"/>
<text transform="matrix(1 0 0 1 61.3858 372.7529)"><tspan x="0" y="0" class="st11 st12 st13">1. Envía </tspan><tspan x="0" y="16.8" class="st11 st12 st13">contenedores</tspan></text>
<rect x="426.5" y="232.2" class="st10" width="142.5" height="47.4"/>
<text transform="matrix(1 0 0 1 426.4691 242.5585)"><tspan x="0" y="0" class="st11 st12 st13">2. Publica metadatos </tspan><tspan x="0" y="16.8" class="st11 st12 st13">de servicio en el </tspan><tspan x="0" y="33.6" class="st11 st12 st13">centro de gestión</tspan></text>
<rect x="699.4" y="75.4" class="st10" width="198.5" height="53"/>
<text transform="matrix(1 0 0 1 699.3858 85.7534)"><tspan x="0" y="0" class="st11 st12 st13">3. Crea el patrón o el servicio </tspan><tspan x="0" y="16.8" class="st11 st12 st13">para desplegar el servicio para </tspan><tspan x="0" y="33.6" class="st11 st12 st13">corregir nodos periféricos.</tspan></text>
<rect x="604.9" y="267.9" class="st10" width="118" height="30.6"/>
<text transform="matrix(1 0 0 1 604.8858 278.2534)"><tspan x="0" y="0" class="st11 st12 st13">5. Despliega el </tspan><tspan x="0" y="16.8" class="st11 st12 st13">servicio</tspan></text>
<rect x="770.9" y="302.4" class="st10" width="152.5" height="30.6"/>
<text transform="matrix(1 0 0 1 770.8858 312.7534)"><tspan x="0" y="0" class="st11 st12 st13">4. Se registra con una </tspan><tspan x="0" y="16.8" class="st11 st12 st13">política de nodo patrón.</tspan></text>
<rect x="630.6" y="443.2" class="st10" width="68" height="30.6"/>
<text transform="matrix(1 0 0 1 642.2507 453.5862)"><tspan x="0" y="0" class="st11 st12 st13">Agente </tspan><tspan x="-7.8" y="16.8" class="st11 st12 st13">periférico</tspan></text>
<rect x="629.9" y="557.9" class="st10" width="67" height="30.6"/>
<text transform="matrix(1 0 0 1 638.5225 568.2529)"><tspan x="0" y="0" class="st11 st12 st13">Servicio </tspan><tspan x="-5.2" y="16.8" class="st11 st12 st13">periférico</tspan></text>
<rect x="837.9" y="445.7" class="st10" width="65.5" height="64.2"/>
<text transform="matrix(1 0 0 1 840.921 456.0862)"><tspan x="0" y="0" class="st11 st12 st13">Operador </tspan><tspan x="21.8" y="16.8" class="st11 st12 st13">de </tspan><tspan x="5.5" y="33.6" class="st11 st12 st13">servicio </tspan><tspan x="-0.4" y="50.4" class="st11 st12 st13">periférico</tspan></text>
</svg>
