<?xml version="1.0" encoding="utf-8"?>
<!-- Generator: Adobe Illustrator 21.1.0, SVG Export Plug-In . SVG Version: 6.00 Build 0)  -->
<svg version="1.1" id="Layer_1" xmlns="http://www.w3.org/2000/svg" xmlns:xlink="http://www.w3.org/1999/xlink" x="0px" y="0px"
	 viewBox="0 0 1255 983.4" style="enable-background:new 0 0 1255 983.4;" xml:space="preserve">
<style type="text/css">
	.st0{fill:#6E32C9;}
	.st1{fill:#4F2196;}
	.st2{fill:#FFFFFF;stroke:#E0E0E0;}
	.st3{fill:#FFFFFF;}
	.st4{fill:#C9DEFF;}
	.st5{fill:#408BFC;}
	.st6{fill:#054ADA;}
	.st7{fill:none;stroke:#054ADA;stroke-linecap:square;}
	.st8{fill:none;stroke:#054ADA;}
	.st9{fill:#BEBEBE;}
	.st10{fill:#24A148;}
	.st11{fill:none;}
	.st12{fill:#F4F4F4;}
	.st13{font-family:'IBMPlexSans-Medium';}
	.st14{font-size:16px;}
	.st15{fill:#161616;}
	.st16{font-family:'IBMPlexSans';}
	.st17{font-family:'IBMPlexSans-Bold';}
	.st18{font-size:14px;}
</style>
<rect id="Rectangle-Copy-14" x="57" y="291.7" class="st0" width="281" height="663"/>
<rect id="Rectangle-Copy-14_1_" x="531" y="291.7" class="st1" width="667" height="663"/>
<rect id="Rectangle" x="36.5" y="29.2" class="st2" width="144" height="37"/>
<rect id="Rectangle-Copy-28" x="36.5" y="66.2" class="st2" width="144" height="76"/>
<rect id="Rectangle-Copy-31" x="36.5" y="143.2" class="st2" width="144" height="79"/>
<rect id="Rectangle-Copy-29" x="179.5" y="66.2" class="st2" width="260" height="76"/>
<rect id="Rectangle-Copy-33" x="439.5" y="66.2" class="st2" width="260" height="76"/>
<rect id="Rectangle-Copy-36" x="699.5" y="66.2" class="st2" width="260" height="76"/>
<rect id="Rectangle-Copy-39" x="958.5" y="66.2" class="st2" width="260" height="76"/>
<rect id="Rectangle-Copy-32" x="179.5" y="143.2" class="st2" width="260" height="79"/>
<rect id="Rectangle-Copy-34" x="439.5" y="143.2" class="st2" width="260" height="79"/>
<rect id="Rectangle-Copy-37" x="699.5" y="143.2" class="st2" width="260" height="79"/>
<rect id="Rectangle-Copy-40" x="958.5" y="143.2" class="st2" width="260" height="79"/>
<rect id="Rectangle-Copy-26" x="179.5" y="29.2" class="st2" width="260" height="37"/>
<rect id="Rectangle-Copy-35" x="439.5" y="29.2" class="st2" width="260" height="37"/>
<rect id="Rectangle-Copy-38" x="699.5" y="29.2" class="st2" width="260" height="37"/>
<rect id="Rectangle-Copy-41" x="958.5" y="29.2" class="st2" width="260" height="37"/>
<rect id="Rectangle-Copy-30" x="89" y="362.7" class="st3" width="217" height="264"/>
<path id="Default-Copy-4" class="st4" d="M121,426.7h129c8.8,0,16,7.2,16,16l0,0c0,8.8-7.2,16-16,16H121c-8.8,0-16-7.2-16-16l0,0
	C105,433.9,112.2,426.7,121,426.7z"/>
<rect id="Rectangle-Copy-45" x="89" y="658.7" class="st3" width="217" height="264"/>
<rect id="Rectangle-Copy-46" x="563" y="362.7" class="st3" width="603" height="264"/>
<rect id="Rectangle_1_" x="579" y="426.7" class="st5" width="286" height="184"/>
<rect id="Rectangle-Copy-43" x="865" y="426.7" class="st6" width="286" height="184"/>
<rect id="Default" x="594" y="490.7" class="st4" width="100" height="32"/>
<rect id="Default-Copy" x="594" y="562.7" class="st4" width="100" height="32"/>
<rect id="Default_1_" x="698" y="490.7" class="st4" width="85" height="32"/>
<rect id="Default-Copy-2" x="698" y="562.7" class="st4" width="85" height="32"/>
<rect id="Default_2_" x="787" y="490.7" class="st4" width="39" height="32"/>
<rect id="Default-Copy-3" x="787" y="562.7" class="st4" width="62" height="32"/>
<line id="Line-3" class="st7" x1="652" y1="543.2" x2="849.5" y2="543.2"/>
<line id="Line-3-Copy" class="st8" x1="594" y1="542.7" x2="602" y2="542.7"/>
<rect id="Field-color" x="606" y="530.7" class="st4" width="42" height="24"/>
<rect id="Rectangle-Copy-47" x="563" y="658.7" class="st3" width="603" height="264"/>
<rect id="Rectangle_2_" x="579" y="722.7" class="st5" width="286" height="184"/>
<rect id="Rectangle-Copy-43_1_" x="865" y="722.7" class="st6" width="286" height="184"/>
<path id="Line-9" class="st9" d="M563,487.7c3.9,0,7,3.1,7,7s-3.1,7-7,7c-3.5,0-6.4-2.6-6.9-6H320.5v6l-14-7l14-7v6h235.6
	c0.5-3.3,3.3-5.9,6.7-6H563z"/>
<path id="Line-9-Copy" class="st9" d="M549,783.7l14,7l-14,7v-6H313.4c-0.5,3.3-3.3,5.9-6.7,6h-0.2c-3.9,0-7-3.1-7-7s3.1-7,7-7
	c3.5,0,6.4,2.6,6.9,6H549V783.7z"/>
<circle id="Oval" class="st3" cx="435" cy="494.7" r="20"/>
<path id="path-1_1_" class="st10" d="M442,491.1l-1.4-1.4l-7.6,7.6l-3.6-3.6l-1.4,1.4l5,5L442,491.1z M435,480.7
	c-7.7,0-14,6.3-14,14s6.3,14,14,14s14-6.3,14-14S442.7,480.7,435,480.7z M435,506.7c-6.6,0-12-5.4-12-12s5.4-12,12-12s12,5.4,12,12
	S441.6,506.7,435,506.7z"/>
<circle id="Oval_1_" class="st3" cx="435" cy="790.7" r="20"/>
<path id="path-3_1_" class="st10" d="M442,787.1l-1.4-1.4l-7.6,7.6l-3.6-3.6l-1.4,1.4l5,5L442,787.1z M435,776.7
	c-7.7,0-14,6.3-14,14s6.3,14,14,14s14-6.3,14-14S442.7,776.7,435,776.7z M435,802.7c-6.6,0-12-5.4-12-12s5.4-12,12-12s12,5.4,12,12
	S441.6,802.7,435,802.7z"/>
<rect x="547" y="311.9" class="st11" width="236.1" height="15.6"/>
<text transform="matrix(1 0 0 1 547.0002 323.7303)" class="st12 st13 st14">Política de despliegue</text>
<rect x="578.9" y="382.9" class="st11" width="236.1" height="15.6"/>
<text transform="matrix(1 0 0 1 578.886 394.7335)" class="st15 st16 st14">Restricciones</text>
<rect x="578.9" y="678.8" class="st11" width="236.1" height="15.6"/>
<text transform="matrix(1 0 0 1 578.886 690.6728)" class="st15 st16 st14">Propiedades</text>
<rect x="105" y="382.9" class="st11" width="179.7" height="15.6"/>
<text transform="matrix(1 0 0 1 105.0002 394.7335)" class="st15 st16 st14">Propiedades del nodo</text>
<rect x="105" y="678.9" class="st11" width="179.7" height="15.6"/>
<text transform="matrix(1 0 0 1 105.0002 690.7264)" class="st15 st16 st14">Restricciones del nodo</text>
<rect x="73" y="311.9" class="st11" width="236.1" height="15.6"/>
<text transform="matrix(1 0 0 1 73.0001 323.7303)" class="st12 st13 st14">Política de nodo</text>
<rect x="186" y="41.8" class="st11" width="237.4" height="19.1"/>
<text transform="matrix(1 0 0 1 186 53.7095)" class="st15 st17 st14">Política de nodo</text>
<rect x="41" y="78.9" class="st11" width="129.5" height="19.1"/>
<text transform="matrix(1 0 0 1 41 90.7245)" class="st15 st17 st14">Rol</text>
<rect x="41" y="155.8" class="st11" width="129.5" height="19.1"/>
<text transform="matrix(1 0 0 1 41 160.9173)" class="st15 st17 st14">Finalidad</text>
<rect x="186" y="78.9" class="st11" width="250.5" height="59.6"/>
<rect x="186" y="155.8" class="st11" width="250.5" height="59.6"/>
<rect x="105" y="740.3" class="st11" width="186.2" height="29.8"/>
<text transform="matrix(1 0 0 1 105.0152 750.7234)" class="st15 st16 st18">(Opcional)</text>
<rect x="595" y="742.9" class="st11" width="236.1" height="15.6"/>
<text transform="matrix(1 0 0 1 595.0001 754.7162)" class="st12 st16 st14">Propiedades del despliegue</text>
<rect x="595" y="787.3" class="st11" width="186.2" height="29.8"/>
<text transform="matrix(1 0 0 1 595 797.6974)" class="st12 st16 st18">(Opcional)</text>
<rect x="881" y="742.9" class="st11" width="236.1" height="15.6"/>
<text transform="matrix(1 0 0 1 881.0001 754.7162)" class="st12 st16 st14">Propiedades del servicio</text>
<rect x="881" y="787.3" class="st11" width="186.2" height="29.8"/>
<text transform="matrix(1 0 0 1 881 797.6974)" class="st12 st16 st18">(Opcional)</text>
<rect x="595" y="446.9" class="st11" width="236.1" height="15.6"/>
<text transform="matrix(1 0 0 1 595.0001 458.7758)" class="st12 st16 st14">Restricciones del despliegue</text>
<rect x="881" y="446.9" class="st11" width="236.1" height="15.6"/>
<text transform="matrix(1 0 0 1 881.0001 458.7758)" class="st12 st16 st14">Restricciones del servicio</text>
<rect x="881" y="491.4" class="st11" width="186.2" height="29.8"/>
<text transform="matrix(1 0 0 1 881 501.7571)" class="st12 st16 st18">(Opcional)</text>
<rect x="117" y="437.4" class="st11" width="142.2" height="17.6"/>
<text transform="matrix(0.8823 0 0 1 114 447.7373)" class="st15 st16 st18">tipo-cámara=movimiento</text>
<rect x="445" y="41.8" class="st11" width="237.4" height="19.1"/>
<text transform="matrix(1 0 0 1 445 53.7095)" class="st15 st17 st14">Política de servicio</text>
<rect x="445" y="78.9" class="st11" width="250.5" height="59.6"/>
<rect x="445" y="155.8" class="st11" width="250.5" height="59.6"/>
<rect x="705" y="41.8" class="st11" width="237.4" height="19.1"/>
<text transform="matrix(1 0 0 1 705.0275 53.7095)" class="st15 st17 st14">Política de despliegue</text>
<rect x="705" y="78.9" class="st11" width="250.5" height="59.6"/>
<rect x="705" y="155.8" class="st11" width="250.5" height="59.6"/>
<rect x="965" y="41.8" class="st11" width="237.4" height="19.1"/>
<text transform="matrix(1 0 0 1 965 53.7095)" class="st15 st17 st14">Política de modelo</text>
<rect x="965" y="78.9" class="st11" width="239.4" height="59.6"/>
<rect x="965" y="155.8" class="st11" width="250.5" height="59.6"/>
<rect x="593.9" y="501.3" class="st11" width="100.1" height="17.6"/>
<text transform="matrix(1 0 0 1 603.0018 511.7086)" class="st15 st16 st18">tipo-cámara</text>
<rect x="698" y="501.3" class="st11" width="85" height="17.6"/>
<text transform="matrix(1 0 0 1 707.3695 511.7086)" class="st15 st16 st18">es igual a</text>
<rect x="787" y="501.3" class="st11" width="39.4" height="17.6"/>
<text transform="matrix(0.7542 0 0 1 788.9449 511.709)" class="st15 st16 st18">inmóvil</text>
<rect x="593.9" y="573.5" class="st11" width="100.1" height="17.6"/>
<text transform="matrix(1 0 0 1 603.0018 583.9001)" class="st15 st16 st18">tipo-cámara</text>
<rect x="608.7" y="537.4" class="st11" width="36.5" height="13.9"/>
<text transform="matrix(1 0 0 1 617.4539 547.7585)" class="st15 st16 st18">O</text>
<rect x="698" y="573.5" class="st11" width="85" height="17.6"/>
<text transform="matrix(1 0 0 1 707.3695 583.9001)" class="st15 st16 st18">es igual a</text>
<rect x="787" y="573.5" class="st11" width="62" height="17.6"/>
<text transform="matrix(0.7597 0 0 1 789.4814 583.9004)" class="st15 st16 st18">movimiento</text>
<rect x="185.3" y="75.3" class="st11" width="221.3" height="43.3"/>
<text transform="matrix(1 0 0 1 185.3333 87.1732)"><tspan x="0" y="0" class="st15 st16 st14">Lo proporciona el propietario </tspan><tspan x="0" y="19.2" class="st15 st16 st14">del nodo al registrarlo.</tspan></text>
<rect x="188" y="147.3" class="st11" width="236" height="51.3"/>
<text transform="matrix(1 0 0 1 188 159.1732)"><tspan x="0" y="0" class="st15 st16 st14">Define las características que </tspan><tspan x="0" y="19.2" class="st15 st16 st14">tiene el nodo y su finalidad </tspan><tspan x="0" y="38.4" class="st15 st16 st14">prevista</tspan></text>
<rect x="453.3" y="76" class="st11" width="228" height="56"/>
<text transform="matrix(1 0 0 1 453.3335 87.8398)"><tspan x="0" y="0" class="st15 st16 st14">Lo proporciona el desarrollador </tspan><tspan x="0" y="19.2" class="st15 st16 st14">del servicio al publicarlo.</tspan></text>
<rect x="449.3" y="147.3" class="st11" width="237.3" height="70.2"/>
<text transform="matrix(1 0 0 1 449.3335 159.1733)"><tspan x="0" y="0" class="st15 st16 st14">Definir lo que el servicio necesita </tspan><tspan x="0" y="19.2" class="st15 st16 st14">en un nodo periférico para </tspan><tspan x="0" y="38.4" class="st15 st16 st14">funcionar correctamente y su </tspan><tspan x="0" y="57.6" class="st15 st16 st14">intención</tspan></text>
<rect x="706" y="74" class="st11" width="238" height="55.3"/>
<text transform="matrix(1 0 0 1 706 85.8398)"><tspan x="0" y="0" class="st15 st16 st14">Los proporciona el administrador </tspan><tspan x="0" y="19.2" class="st15 st16 st14">de políticas al desplegar el </tspan><tspan x="0" y="38.4" class="st15 st16 st14">servicio</tspan></text>
<rect x="706" y="147.3" class="st11" width="240.7" height="69.3"/>
<text transform="matrix(1 0 0 1 706 159.1733)"><tspan x="0" y="0" class="st15 st16 st14">Definir dónde debe ejecutarse el </tspan><tspan x="0" y="19.2" class="st15 st16 st14">servicio</tspan></text>
<rect x="964.7" y="74" class="st11" width="240" height="62"/>
<text transform="matrix(1 0 0 1 964.667 85.8398)"><tspan x="0" y="0" class="st15 st16 st14">Lo proporciona el creador del </tspan><tspan x="0" y="19.2" class="st15 st16 st14">modelo o el experto en datos al </tspan><tspan x="0" y="38.4" class="st15 st16 st14">crear el modelo</tspan></text>
<rect x="967.3" y="147.3" class="st11" width="233.3" height="66"/>
<text transform="matrix(1 0 0 1 967.333 159.1733)"><tspan x="0" y="0" class="st15 st16 st14">Limitar aún más el nodo </tspan><tspan x="0" y="19.2" class="st15 st16 st14">periférico en el que se despliega </tspan><tspan x="0" y="38.4" class="st15 st16 st14">este modelo</tspan></text>
</svg>
