<?xml version="1.0" encoding="utf-8"?>
<!-- Generator: Adobe Illustrator 21.1.0, SVG Export Plug-In . SVG Version: 6.00 Build 0)  -->
<svg version="1.1" id="Layer_1" xmlns="http://www.w3.org/2000/svg" xmlns:xlink="http://www.w3.org/1999/xlink" x="0px" y="0px"
	 viewBox="0 0 644 500.4" style="enable-background:new 0 0 644 500.4;" xml:space="preserve">
<style type="text/css">
	.st0{fill:#408BFC;}
	.st1{fill:none;stroke:#00BAB6;stroke-width:2;stroke-dasharray:7;}
	.st2{fill:#4F2196;}
	.st3{fill:#FFFFFF;}
	.st4{fill:#BEBEBE;}
	.st5{fill:#E3F6FF;}
	.st6{fill:#0062FF;}
	.st7{fill:none;}
	.st8{fill:#161616;}
	.st9{font-family:'IBMPlexSans';}
	.st10{font-size:14px;}
	.st11{enable-background:new    ;}
	.st12{fill:#F4F4F4;}
	.st13{font-family:'IBMPlexSans-Medium';}
	.st14{font-size:16px;}
</style>
<g>
	<rect id="Rectangle-Copy-14_1_" x="175" y="403.7" class="st0" width="141.2" height="56"/>
	<rect id="Rectangle-Copy-54" x="40" y="403.7" class="st0" width="120.4" height="56"/>
	<rect id="Rectangle-Copy-14_2_" x="330.8" y="403.7" class="st0" width="141.2" height="56"/>
</g>
<path id="Rectangle" class="st1" d="M56,16.7h400c22.1,0,40,17.9,40,40v387c0,22.1-17.9,40-40,40H56c-22.1,0-40-17.9-40-40v-387
	C16,34.6,33.9,16.7,56,16.7z"/>
<rect id="Rectangle-Copy-14" x="40" y="80.7" class="st2" width="432" height="267"/>
<rect id="Rectangle-Copy-16" x="264" y="147.2" class="st3" width="192" height="56"/>
<rect id="Rectangle-Copy-53" x="56" y="275.7" class="st3" width="192" height="56"/>
<rect id="Rectangle-Copy-44" x="264" y="275.2" class="st3" width="192" height="56"/>
<path id="Line-11-Copy-7" class="st4" d="M253,347.7l6.9,14h-6l-0.3,28h6l-7.1,14l-6.9-14h6l0.3-28h-6L253,347.7z"/>
<path id="Line-11-Copy-8" class="st4" d="M98,347.7l6.9,14h-6l-0.3,28h6l-7.1,14l-6.9-14h6l0.3-28h-6L98,347.7z"/>
<path id="Line-11-Copy-6" class="st4" d="M250,168.7l14,7l-14,7v-6h-92.5l-0.4,85h6l-7.1,14l-6.9-14h6l0.4-86v-1H250V168.7z"/>
<path id="Line-11-Copy-9" class="st4" d="M521,168.7l14,7l-14,7v-6h-51v6l-14-7l14-7v6h51V168.7z"/>
<circle id="Oval" class="st5" cx="575.5" cy="173.2" r="32.5"/>
<path id="Shape" class="st6" d="M584.5,182.7h-17c-4.1,0-7.5-3.4-7.5-7.5c0-3.6,2.6-6.7,6.1-7.4c0,0,0.1,0,0.1-0.1
	c1-4.7,5.1-8,9.8-8c0.6,0,1.3,0.1,1.9,0.2c4,0.8,7.1,3.9,7.9,7.9c0,0,0,0.1,0.1,0.1c4,0.8,6.7,4.7,6,8.7
	C591.2,180.1,588.1,182.7,584.5,182.7z M567.5,180.7h17c2.7,0,4.9-1.9,5.4-4.5c0.3-1.8-0.2-3.6-1.5-4.9c-0.8-0.8-1.8-1.3-2.8-1.5
	l-0.3-0.1l-1.1-0.2c0,0-0.1,0-0.1-0.1l0,0l-0.2-1c-0.6-3.2-3-5.8-6.1-6.5c-0.9-0.2-1.9-0.3-2.8-0.1c-3.4,0.5-6,3.1-6.8,6.5l-0.1,0.3
	l-0.2,0.9c0,0,0,0.1-0.1,0.1l0,0l-1,0.2c-2.4,0.4-4.4,2.3-4.7,4.7C561.6,177.8,564.2,180.7,567.5,180.7z"/>
<rect x="265.5" y="370.3" class="st7" width="142.9" height="13.9"/>
<text transform="matrix(1 0 0 1 265.4992 380.6632)" class="st8 st9 st10">Acceso a hardware</text>
<rect x="110.3" y="370.3" class="st7" width="77.2" height="13.9"/>
<rect x="110.3" y="360.8" class="st7" width="126" height="30.2"/>
<text transform="matrix(1 0 0 1 110.3404 372.6627)" class="st11"><tspan x="0" y="0" class="st8 st9 st10">Acceso al sistema </tspan><tspan x="0" y="16.8" class="st8 st9 st10">operativo</tspan></text>
<rect x="263.9" y="156.3" class="st7" width="192" height="39.6"/>
<rect x="263.9" y="284.3" class="st7" width="192" height="39.6"/>
<rect x="55.9" y="284.3" class="st7" width="192" height="39.6"/>
<rect x="187.5" y="424.9" class="st7" width="128.7" height="15.6"/>
<rect x="178.8" y="416.4" class="st7" width="134.2" height="31.6"/>
<text transform="matrix(1 0 0 1 206.6621 428.2584)" class="st11"><tspan x="0" y="0" class="st12 st13 st10">Sensores de </tspan><tspan x="8.5" y="16.8" class="st12 st13 st10">hardware</tspan></text>
<rect x="342.6" y="424.9" class="st7" width="111" height="15.6"/>
<rect x="336.6" y="407.6" class="st7" width="127.1" height="49.1"/>
<text transform="matrix(1 0 0 1 366.3883 419.5326)" class="st11"><tspan x="0" y="0" class="st12 st13 st10">Tiempo de </tspan><tspan x="-6.6" y="16.8" class="st12 st13 st10">ejecución de </tspan><tspan x="11" y="33.6" class="st12 st13 st10">Docker</tspan></text>
<rect x="54" y="424.9" class="st7" width="91.7" height="15.6"/>
<rect x="44.3" y="409" class="st7" width="107" height="46.3"/>
<text transform="matrix(1 0 0 1 59.1111 420.925)" class="st11"><tspan x="0" y="0" class="st12 st13 st10">Servicios de </tspan><tspan x="13.5" y="16.8" class="st12 st13 st10">sistema </tspan><tspan x="8.3" y="33.6" class="st12 st13 st10">operativo</tspan></text>
<rect x="56" y="101" class="st7" width="236.1" height="15.6"/>
<text transform="matrix(1 0 0 1 56.0002 112.8407)" class="st12 st13 st14">Patrón de despliegue</text>
<rect x="40" y="44.9" class="st7" width="236.1" height="15.6"/>
<text transform="matrix(1 0 0 1 40.0038 56.7181)" class="st8 st13 st14">Nodo periférico</text>
<rect x="80" y="288.2" class="st7" width="145.5" height="30.6"/>
<text transform="matrix(1 0 0 1 141.1934 298.526)"><tspan x="0" y="0" class="st8 st9 st10">cpu</tspan><tspan x="-49.1" y="16.8" class="st8 st9 st10">(servicio periférico)</tspan></text>
<rect x="295.6" y="288.2" class="st7" width="129.5" height="30.6"/>
<text transform="matrix(1 0 0 1 349.21 298.526)"><tspan x="0" y="0" class="st8 st9 st10">gps</tspan><tspan x="-49.5" y="16.8" class="st8 st9 st10">(servicio periférico)</tspan></text>
<rect x="325.5" y="219.5" class="st7" width="123" height="30.6"/>
<text transform="matrix(1 0 0 1 325.5 229.8599)"><tspan x="0" y="0" class="st12 st9 st10">Redes privadas </tspan><tspan x="0" y="16.8" class="st12 st9 st10">virtuales de Docker</tspan></text>
<rect x="284.4" y="159.5" class="st7" width="152" height="30.6"/>
<text transform="matrix(1 0 0 1 319.3906 169.8599)"><tspan x="0" y="0" class="st8 st9 st10">cpu2msghub</tspan><tspan x="-19.7" y="16.8" class="st8 st9 st10">(servicio periférico)</tspan></text>
<rect x="518.5" y="210.5" class="st7" width="113" height="30.6"/>
<text transform="matrix(1 0 0 1 531.9717 220.8599)"><tspan x="0" y="0" class="st8 st9 st10">Servidores de </tspan><tspan x="-8.3" y="16.8" class="st8 st9 st10">Cloud (opcional)</tspan></text>
</svg>
