<?xml version="1.0" encoding="utf-8"?>
<!-- Generator: Adobe Illustrator 21.1.0, SVG Export Plug-In . SVG Version: 6.00 Build 0)  -->
<svg version="1.1" id="Layer_1" xmlns="http://www.w3.org/2000/svg" xmlns:xlink="http://www.w3.org/1999/xlink" x="0px" y="0px"
	 viewBox="0 0 1268 859.4" style="enable-background:new 0 0 1268 859.4;" xml:space="preserve">
<style type="text/css">
	.st0{fill:#E3F6FF;}
	.st1{fill:#0062FF;}
	.st2{fill:#8A3FFC;}
	.st3{fill:#92EEEE;}
	.st4{fill:#408BFC;}
	.st5{fill:#009C98;}
	.st6{fill:#BEBEBE;}
	.st7{fill:none;stroke:#00BAB6;stroke-width:2;stroke-dasharray:7;}
	.st8{fill:none;}
	.st9{fill:#F4F4F4;}
	.st10{font-family:'IBMPlexSans';}
	.st11{font-size:14px;}
	.st12{enable-background:new    ;}
	.st13{fill:#161616;}
	.st14{font-family:'IBMPlexSans-Medium';}
	.st15{font-size:16px;}
</style>
<circle id="Oval-Copy-8" class="st0" cx="78.5" cy="218.2" r="32.5"/>
<path id="Shape" class="st1" d="M87.5,227.7h-17c-4.1,0-7.5-3.4-7.5-7.5c0-3.6,2.6-6.7,6.1-7.4c0,0,0.1,0,0.1-0.1c1-4.7,5.1-8,9.8-8
	c0.6,0,1.3,0.1,1.9,0.2c4,0.8,7.1,3.9,7.9,7.9c0,0,0,0.1,0.1,0.1c4,0.8,6.7,4.7,6,8.7C94.2,225.1,91.1,227.7,87.5,227.7z
	 M70.5,225.7h17c2.7,0,4.9-1.9,5.4-4.5c0.3-1.8-0.2-3.6-1.5-4.9c-0.8-0.8-1.8-1.3-2.8-1.5l-0.3-0.1l-1.1-0.2c0,0-0.1,0-0.1-0.1l0,0
	l-0.2-1c-0.6-3.2-3-5.8-6.1-6.5c-0.9-0.2-1.9-0.3-2.8-0.1c-3.4,0.5-6,3.1-6.8,6.5l-0.1,0.3l-0.2,0.9c0,0,0,0.1-0.1,0.1l0,0l-1,0.2
	c-2.4,0.4-4.4,2.3-4.7,4.7C64.6,222.8,67.2,225.7,70.5,225.7z"/>
<circle id="Oval-Copy-9" class="st0" cx="79.5" cy="611.7" r="32.5"/>
<path id="Fill-1-Copy-2" class="st1" d="M87,605.2h1v-1h-1V605.2z M88.8,602.2h-2.5c-0.7,0-1.2,0.6-1.2,1.2v2.5
	c0,0.7,0.6,1.2,1.2,1.2h2.5c0.7,0,1.2-0.6,1.2-1.2v-2.5C90,602.8,89.4,602.2,88.8,602.2L88.8,602.2z M74,618.2v-8h8v8H74z M82,608.2
	h-1v-2h-2v2h-2v-2h-2v2h-1c-1.1,0-2,0.9-2,2v1h-2v2h2v2h-2v2h2v1c0,1.1,0.9,2,2,2h8c1.1,0,2-0.9,2-2v-8
	C84,609.1,83.1,608.2,82,608.2L82,608.2z M84,617.2h2v-2h-2V617.2z M84,613.2h2v-2h-2V613.2z M79,622.2h2v-2h-2V622.2z M75,622.2h2
	v-2h-2V622.2z M89,612.2c-0.6,0-1,0.4-1,1s0.4,1,1,1s1-0.4,1-1S89.6,612.2,89,612.2L89,612.2z M89,616.2c-0.6,0-1,0.4-1,1s0.4,1,1,1
	s1-0.4,1-1S89.6,616.2,89,616.2L89,616.2z M71,604.2c0.6,0,1-0.4,1-1s-0.4-1-1-1s-1,0.4-1,1S70.4,604.2,71,604.2L71,604.2z
	 M89,620.2c-0.6,0-1,0.4-1,1s0.4,1,1,1s1-0.4,1-1S89.6,620.2,89,620.2L89,620.2z M92,624c0,0.1-0.1,0.2-0.2,0.2H68.2
	c-0.1,0-0.2-0.1-0.2-0.2v-23.6c0-0.1,0.1-0.2,0.2-0.2h23.6c0.1,0,0.2,0.1,0.2,0.2V624z M91.8,598.2H68.2c-1.2,0-2.2,1-2.2,2.2V624
	c0,1.2,1,2.2,2.2,2.2h23.6c1.2,0,2.2-1,2.2-2.2v-23.6C94,599.2,93,598.2,91.8,598.2L91.8,598.2z"/>
<circle id="Oval-Copy-2" class="st0" cx="77.5" cy="65.2" r="32.5"/>
<path id="Fill-1" class="st1" d="M66,70.7h24v-16H66V70.7z M76,76.7h4v-4h-4V76.7z M90,52.7H66c-1.1,0-2,0.9-2,2v16c0,1.1,0.9,2,2,2
	h8v4h-4v2h16v-2h-4v-4h8c1.1,0,2-0.9,2-2v-16C92,53.6,91.1,52.7,90,52.7L90,52.7z"/>
<circle id="Oval-Copy-10" class="st0" cx="707.5" cy="80.2" r="32.5"/>
<path id="Fill-1_1_" class="st1" d="M708,65.7c-3.9,0-7,3.1-7,7s3.1,7,7,7s7-3.1,7-7S711.9,65.7,708,65.7 M708,67.7c2.8,0,5,2.2,5,5
	s-2.2,5-5,5s-5-2.2-5-5S705.2,67.7,708,67.7"/>
<path id="Fill-3" class="st1" d="M718,93.7h-2v-5c0-2.8-2.2-5-5-5h-6c-2.8,0-5,2.2-5,5v5h-2v-5c0-3.9,3.1-7,7-7h6c3.9,0,7,3.1,7,7
	V93.7z"/>
<rect id="Rectangle-Copy-18" x="240" y="574.2" class="st2" width="209" height="48"/>
<rect id="Rectangle-Copy-18_1_" x="240" y="207.7" class="st3" width="209" height="48"/>
<rect id="Rectangle-Copy-18_2_" x="240" y="47.7" class="st4" width="209" height="66"/>
<rect id="Rectangle-Copy-18_3_" x="240" y="309.7" class="st3" width="209" height="48"/>
<rect id="Rectangle-Copy-18_4_" x="240" y="676.2" class="st2" width="209" height="48"/>
<rect id="Rectangle-Copy-14" x="612" y="672.2" class="st4" width="192" height="56"/>
<rect id="Rectangle-Copy-14_1_" x="564" y="202.7" class="st4" width="288" height="117"/>
<rect id="Rectangle-Copy-18_5_" x="240" y="778.2" class="st2" width="209" height="48"/>
<path id="Rectangle-Copy-66" class="st5" d="M618,459.7h180c7.7,0,14,6.3,14,14v28c0,7.7-6.3,14-14,14H618c-7.7,0-14-6.3-14-14v-28
	C604,466,610.3,459.7,618,459.7z"/>
<path id="Rectangle-Copy-72" class="st5" d="M942,202.7h260c7.7,0,14,6.3,14,14v48c0,7.7-6.3,14-14,14H942c-7.7,0-14-6.3-14-14v-48
	C928,209,934.3,202.7,942,202.7z"/>
<path id="Rectangle-Copy-73" class="st5" d="M942,294.7h260c7.7,0,14,6.3,14,14v48c0,7.7-6.3,14-14,14H942c-7.7,0-14-6.3-14-14v-48
	C928,301,934.3,294.7,942,294.7z"/>
<path id="Path-2-Copy-16" class="st6" d="M654.9,73.7l14,7l-14,7v-6H463v6l-14-7l14-7v6h191.9V73.7z"/>
<path id="Path-2-Copy-12" class="st6" d="M345,724.2l7,14h-6v26h6l-7,14l-7-14h6v-26h-6L345,724.2z"/>
<path id="Path-2-Copy-17" class="st6" d="M708,405.7l7,14h-6v40h-2v-40h-6L708,405.7z"/>
<path id="Path-2-Copy-13" class="st6" d="M345,622.2l7,14h-6v26h6l-7,14l-7-14h6v-26h-6L345,622.2z"/>
<path id="Path-2-Copy-22" class="st6" d="M708,515.7l7,14h-6v72H449v-2h258v-70h-6L708,515.7z"/>
<path id="Path-2-Copy-14" class="st6" d="M345,255.7l7,14h-6v40h-2v-40h-6L345,255.7z"/>
<path id="Path-2-Copy-15" class="st6" d="M345,113.7l7,14h-6v66h6l-7,14l-7-14h6v-66h-6L345,113.7z"/>
<line id="Line-12" class="st7" x1="35.8" y1="154.2" x2="1235.2" y2="154.2"/>
<line id="Line-12-Copy" class="st7" x1="35.8" y1="547.2" x2="1235.2" y2="547.2"/>
<rect id="Rectangle-Copy-18_6_" x="580" y="255.7" class="st2" width="256" height="48"/>
<rect id="Rectangle-Copy-18_7_" x="580" y="357.7" class="st2" width="256" height="48"/>
<path id="Path-2-Copy-18" class="st6" d="M708,303.7l7,14h-6v40h-2v-40h-6L708,303.7z"/>
<path id="Path-2-Copy-19" class="st6" d="M580,277.7v2h-35v55h-80.5v6l-14-7l14-7v6H543v-55H580z"/>
<path id="Path-2-Copy-20" class="st6" d="M914,233.7l14,7l-14,7v-6h-39.1v27H850v6l-14-7l14-7v6h22.9v-27H914V233.7z"/>
<path id="Path-2-Copy-21" class="st6" d="M850,297.7l-14-7l14-7v6h25.2v42H914v-6l14,7l-14,7v-6h-40.8v-42H850V297.7z"/>
<rect x="239.9" y="591.3" class="st8" width="209" height="17.2"/>
<text transform="matrix(1 0 0 1 279.5586 601.7209)" class="st9 st10 st11">Servicio sdr2msghub</text>
<rect x="239.9" y="64.3" class="st8" width="209" height="38.4"/>
<rect x="580" y="374.3" class="st8" width="256" height="17.2"/>
<text transform="matrix(1 0 0 1 654.7444 384.7035)" class="st9 st10 st11">Desencadenante</text>
<rect x="579.8" y="272.3" class="st8" width="256" height="17.2"/>
<text transform="matrix(0.9699 0 0 1 588.2769 282.7153)" class="st9 st10 st11">Acción de radio definido por el software</text>
<rect x="239.9" y="693.3" class="st8" width="209" height="17.2"/>
<text transform="matrix(1 0 0 1 309.5463 703.7242)" class="st9 st10 st11">Servicio sdr</text>
<rect x="239.9" y="795.3" class="st8" width="209" height="17.2"/>
<text transform="matrix(1 0 0 1 310.8764 805.7137)" class="st9 st10 st11">sensor sdr</text>
<rect x="947.3" y="178.3" class="st8" width="288" height="15"/>
<rect x="936.6" y="168.2" class="st8" width="182.7" height="29.2"/>
<text transform="matrix(1 0 0 1 936.6398 180.0544)" class="st12"><tspan x="0" y="0" class="st13 st10 st11">Convertir texto de audio, </tspan><tspan x="0" y="16.8" class="st13 st10 st11">analizar sentimientos</tspan></text>
<rect x="464.2" y="56.3" class="st8" width="189.3" height="17"/>
<text transform="matrix(1 0 0 1 467.9252 71.3859)" class="st13 st10 st11">Proporcionar vistas de datos</text>
<rect x="675.4" y="120.3" class="st8" width="65" height="17"/>
<text transform="matrix(1 0 0 1 682.4458 130.7137)" class="st13 st10 st11">Usuario</text>
<rect x="240" y="326.9" class="st8" width="209" height="16.5"/>
<rect x="285.8" y="318.1" class="st8" width="120.8" height="32.6"/>
<text transform="matrix(1 0 0 1 285.8174 329.9741)" class="st12"><tspan x="0" y="0" class="st13 st10 st11">Componer base de </tspan><tspan x="0" y="16.8" class="st13 st10 st11">datos Potsgres</tspan></text>
<rect x="240" y="224.9" class="st8" width="209" height="16.5"/>
<text transform="matrix(1 0 0 1 259.115 235.2374)" class="st13 st10 st11">Node.js, Express, GraphQL</text>
<rect x="42.5" y="258.4" class="st8" width="70.9" height="16.5"/>
<text transform="matrix(1 0 0 1 61.38 268.7375)" class="st13 st10 st11">Nube</text>
<rect x="44.1" y="651.7" class="st8" width="70.9" height="16.5"/>
<text transform="matrix(1 0 0 1 29.7294 662.0739)" class="st13 st10 st11">Nodo periférico</text>
<rect x="33.9" y="105.3" class="st8" width="88.1" height="16.5"/>
<text transform="matrix(1 0 0 1 26.9122 115.72)" class="st13 st10 st11">Explorador web</text>
<rect x="580" y="222.8" class="st8" width="158.1" height="15.6"/>
<text transform="matrix(1 0 0 1 579.9996 234.7081)" class="st9 st14 st15">Funciones de IBM</text>
<rect x="603.1" y="479.9" class="st8" width="207.9" height="15.6"/>
<text transform="matrix(1 0 0 1 636.6774 491.7165)" class="st9 st14 st15">IBM Event Streams</text>
<rect x="612" y="692.4" class="st8" width="192" height="15.6"/>
<text transform="matrix(1 0 0 1 620.5288 705.2736)" class="st9 st14 st15">Agente de Open Horizon</text>
<rect x="929" y="314.9" class="st8" width="288" height="41"/>
<rect x="928" y="222.9" class="st8" width="288" height="41"/>
<rect x="59.3" y="375.7" class="st8" width="99.4" height="15.6"/>
<text transform="matrix(1 0 0 1 59.3008 387.5601)" class="st13 st14 st15">Nodo periférico</text>
<rect x="260" y="65.3" class="st8" width="149.3" height="30.6"/>
<text transform="matrix(1 0 0 1 260.0002 75.6932)"><tspan x="0" y="0" class="st9 st10 st11">Proporciona vista de </tspan><tspan x="0" y="16.8" class="st9 st10 st11">datos(React, GraphQL)</tspan></text>
<rect x="363.3" y="158" class="st8" width="170" height="47.3"/>
<text transform="matrix(1 0 0 1 363.3332 168.3599)"><tspan x="0" y="0" class="st13 st10 st11">Da servicio a la interfaz de </tspan><tspan x="0" y="16.8" class="st13 st10 st11">usuario, transporta datos </tspan><tspan x="0" y="33.6" class="st13 st10 st11">al navegador</tspan></text>
<rect x="356" y="259.3" class="st8" width="186.7" height="46"/>
<text transform="matrix(1 0 0 1 356.0002 269.6934)"><tspan x="0" y="0" class="st13 st10 st11">Almacena en la base de </tspan><tspan x="0" y="16.8" class="st13 st10 st11">datos solo los conocimientos </tspan><tspan x="0" y="33.6" class="st13 st10 st11">(sentimientos)</tspan></text>
<rect x="361.3" y="627.3" class="st8" width="237.7" height="48"/>
<text transform="matrix(1 0 0 1 361.3333 637.6934)"><tspan x="0" y="0" class="st13 st10 st11">Utilizar aprendizaje de máquina para </tspan><tspan x="0" y="16.8" class="st13 st10 st11">seleccionar las mejores estaciones </tspan><tspan x="0" y="33.6" class="st13 st10 st11">de habla, envía audio a la nube</tspan></text>
<rect x="365.3" y="736.3" class="st8" width="152.7" height="30.6"/>
<text transform="matrix(1 0 0 1 365.3335 746.6829)"><tspan x="0" y="0" class="st13 st10 st11">Recuperar clips de radio </tspan><tspan x="0" y="16.8" class="st13 st10 st11">de las emisoras de radio</tspan></text>
<rect x="726.7" y="410.7" class="st8" width="168" height="45.3"/>
<text transform="matrix(1 0 0 1 726.667 421.0264)"><tspan x="0" y="0" class="st13 st10 st11">El mensaje desencadena </tspan><tspan x="0" y="16.8" class="st13 st10 st11">la acción de radio definido </tspan><tspan x="0" y="33.6" class="st13 st10 st11">por software</tspan></text>
<text transform="matrix(1 0 0 1 968.0003 243.8397)" class="st9 st14 st15">IBM Watson Speech to Text</text>
<rect x="974" y="315.3" class="st8" width="206.7" height="35.2"/>
<text transform="matrix(1 0 0 1 1003.222 327.1732)"><tspan x="0" y="0" class="st9 st14 st15">IBM Watson Natural </tspan><tspan x="-17.1" y="19.2" class="st9 st14 st15">Language Understanding</tspan></text>
</svg>
