<?xml version="1.0" encoding="utf-8"?>
<!-- Generator: Adobe Illustrator 21.1.0, SVG Export Plug-In . SVG Version: 6.00 Build 0)  -->
<svg version="1.1" id="Layer_1" xmlns="http://www.w3.org/2000/svg" xmlns:xlink="http://www.w3.org/1999/xlink" x="0px" y="0px"
	 viewBox="0 0 913.8 476.2" style="enable-background:new 0 0 913.8 476.2;" xml:space="preserve">
<style type="text/css">
	.st0{fill:#EDF5FF;}
	.st1{fill:#0F62FE;}
	.st2{fill:#001D6C;}
	.st3{fill:none;}
	.st4{fill:#F4F4F4;}
	.st5{font-family:'IBMPlexSans-Medium';}
	.st6{font-size:16px;}
	.st7{fill:#4589FF;}
	.st8{fill:#E3F6FF;}
	.st9{fill:#161616;}
	.st10{font-family:'IBMPlexSans';}
	.st11{font-size:14px;}
	.st12{fill:#E5F6FF;}
	.st13{fill:none;stroke:#0F62FE;stroke-width:2;stroke-miterlimit:10;}
	.st14{fill:#8A3FFC;}
	.st15{fill:#FFFFFF;}
	.st16{fill:#24A148;}
	.st17{fill:#491D8B;}
	.st18{fill:#BEBEBE;}
	.st19{enable-background:new    ;}
	.st20{fill:none;stroke:#BEBEBE;stroke-width:2;stroke-miterlimit:10;}
</style>
<g id="Group-2_13_" transform="translate(47.000000, 0.000000)">
	<circle id="Oval-Copy-3_15_" class="st0" cx="11.9" cy="37.1" r="24"/>
	<g id="icon_x2F_developer_3_" transform="translate(8.000000, 8.000000)">
		<path id="Shape_16_" class="st1" d="M-1.1,32.1c2.8,0,5,2.2,5,5v6h-2v-6c0-1.7-1.3-3-3-3h-4c-1.7,0-3,1.3-3,3v6h-2v-6
			c0-2.8,2.2-5,5-5H-1.1z M-3.1,20.1c2.8,0,5,2.2,5,5s-2.2,5-5,5s-5-2.2-5-5S-5.8,20.1-3.1,20.1z M12,19l1.9,0.4l-2.4,10.4l-1.8-0.4
			L12,19z M6.8,20.7l1.4,1.2l-2.1,2.6l2.1,2.6l-1.4,1.2l-3.1-3.7L6.8,20.7z M16.7,20.7l3.1,3.7l-3.1,3.7l-1.4-1.2l2.1-2.6l-2.1-2.6
			L16.7,20.7z M-3.1,22.1c-1.7,0-3,1.3-3,3c0,1.7,1.3,3,3,3s3-1.3,3-3C-0.1,23.4-1.4,22.1-3.1,22.1z"/>
	</g>
</g>
<rect id="Rectangle-Copy-12_2_" x="457.9" y="197.6" class="st2" width="216" height="73"/>
<rect x="473.9" y="213.6" class="st3" width="176" height="15.6"/>
<text transform="matrix(1 0 0 1 473.8867 225.4574)" class="st4 st5 st6">Centro de gestión</text>
<rect id="Rectangle-Copy_2_" x="744.9" y="254.6" class="st7" width="152" height="194"/>
<rect x="760.9" y="270.8" class="st3" width="95" height="15.6"/>
<text transform="matrix(1 0 0 1 760.9025 282.6987)" class="st4 st5 st6">Nodo periférico</text>
<g>
	<g id="Group-2_14_" transform="translate(21.000000, 0.000000)">
		<circle id="Oval-Copy-3_16_" class="st8" cx="521.9" cy="309.6" r="24"/>
		<g id="icon_x2F_policy-admin_3_" transform="translate(8.000000, 8.000000)">
			<path id="Shape_17_" class="st1" d="M508.9,304.6c2.8,0,5,2.2,5,5v6h-2v-6c0-1.7-1.3-3-3-3h-4c-1.7,0-3,1.3-3,3v6h-2v-6
				c0-2.8,2.2-5,5-5H508.9z M506.9,292.6c2.8,0,5,2.2,5,5s-2.2,5-5,5s-5-2.2-5-5C501.9,294.9,504.2,292.6,506.9,292.6z M525.5,292.6
				l1.4,1.4l-7.1,7.1l-3.9-3.9l1.4-1.4l2.5,2.5L525.5,292.6z M506.9,294.6c-1.7,0-3,1.3-3,3s1.3,3,3,3s3-1.3,3-3
				S508.6,294.6,506.9,294.6z"/>
		</g>
	</g>
	<rect x="495.1" y="344.2" class="st3" width="94.5" height="15.5"/>
	<text transform="matrix(1 0 0 1 498.1892 354.5735)" class="st9 st10 st11">Administrador</text>
</g>
<g>
	<circle id="Oval-Copy-3_13_" class="st12" cx="838.9" cy="79.1" r="24"/>
	<path class="st1" d="M833.9,82.1c2.8,0,5,2.2,5,5v6h-2v-6c0-1.7-1.3-3-3-3h-4c-1.7,0-3,1.3-3,3v6h-2v-6c0-2.8,2.2-5,5-5H833.9z"/>
	<g>
		<g>
			<path class="st1" d="M831.9,70.1c-2.8,0-5,2.2-5,5c0,2.8,2.2,5,5,5s5-2.2,5-5C836.9,72.3,834.7,70.1,831.9,70.1z M831.9,78.1
				c-1.7,0-3-1.3-3-3c0-1.7,1.3-3,3-3s3,1.3,3,3C834.9,76.8,833.6,78.1,831.9,78.1z"/>
		</g>
	</g>
	<rect x="841.9" y="68.1" class="st13" width="4" height="4"/>
	<rect x="849.9" y="68.1" class="st13" width="4" height="4"/>
	<rect x="841.9" y="76.1" class="st13" width="4" height="4"/>
	<rect x="849.9" y="76.1" class="st13" width="4" height="4"/>
</g>
<rect id="Rectangle-Copy-18_4_" x="306.9" y="14.6" class="st14" width="120" height="96"/>
<rect x="322.9" y="30.6" class="st3" width="45" height="15.6"/>
<text transform="matrix(1 0 0 1 322.8867 42.4573)" class="st4 st5 st6">App</text>
<rect id="Rectangle-Copy-10_4_" x="322.9" y="62.6" class="st15" width="88" height="32"/>
<rect x="346.9" y="73.6" class="st3" width="46" height="16"/>
<text transform="matrix(1 0 0 1 346.8868 83.9772)" class="st9 st10 st11">Secreto</text>
<rect x="330.9" y="70.6" class="st1" width="8" height="16"/>
<rect id="Rectangle-Copy-18_5_" x="306.9" y="126.6" class="st14" width="120" height="96"/>
<rect x="322.9" y="142.6" class="st3" width="73" height="15.6"/>
<text transform="matrix(1 0 0 1 322.8867 154.4573)" class="st4 st5 st6">Servicio</text>
<rect id="Rectangle-Copy-10_5_" x="322.9" y="174.6" class="st15" width="88" height="32"/>
<rect x="346.9" y="185.6" class="st3" width="46" height="16"/>
<text transform="matrix(1 0 0 1 346.8868 195.9772)" class="st9 st10 st11">Secreto</text>
<rect x="330.9" y="182.6" class="st1" width="8" height="16"/>
<rect id="Rectangle-Copy-18_6_" x="760.9" y="336.6" class="st14" width="120" height="96"/>
<rect x="776.9" y="352.6" class="st3" width="73" height="15.6"/>
<text transform="matrix(1 0 0 1 776.8868 364.4573)" class="st4 st5 st6">Servicio</text>
<rect id="Rectangle-Copy-10_8_" x="776.9" y="384.6" class="st15" width="88" height="32"/>
<rect x="800.9" y="395.6" class="st3" width="46" height="16"/>
<text transform="matrix(1 0 0 1 800.8869 405.9772)" class="st9 st10 st11">Secreto</text>
<rect x="784.9" y="392.6" class="st16" width="8" height="16"/>
<rect id="Rectangle-Copy-18_3_" x="136.9" y="286.6" class="st17" width="245" height="104"/>
<rect x="152.9" y="302.6" class="st3" width="75" height="15.6"/>
<text transform="matrix(1 0 0 1 152.8867 314.4573)" class="st4 st5 st6">Política</text>
<rect id="Rectangle-Copy-10_6_" x="146.9" y="334.6" class="st15" width="86" height="32"/>
<rect x="170.9" y="345.6" class="st3" width="46" height="16"/>
<text transform="matrix(1 0 0 1 170.8869 355.9772)" class="st9 st10 st11">Secreto</text>
<rect x="154.9" y="342.6" class="st1" width="8" height="16"/>
<rect id="Rectangle-Copy-10_7_" x="279.9" y="334.6" class="st15" width="86" height="32"/>
<rect x="303.9" y="345.6" class="st3" width="46" height="16"/>
<text transform="matrix(1 0 0 1 303.8868 355.9772)" class="st9 st10 st11">Secreto</text>
<rect x="287.9" y="342.6" class="st16" width="8" height="16"/>
<path id="Path-4_7_" class="st18" d="M246.9,350.6h19v-6l14,7l-14,7v-6h-19V350.6z"/>
<path id="Path-4_6_" class="st18" d="M265.9,350.6h-19v-6l-14,7l14,7v-6h19V350.6z"/>
<rect x="672.9" y="59.6" class="st3" width="115" height="16"/>
<text transform="matrix(1 0 0 1 677.1477 70.0043)" class="st9 st10 st11">5. Crea secreto</text>
<rect x="162.9" y="31.6" class="st3" width="127" height="16"/>
<rect x="157.9" y="15.5" class="st3" width="125" height="32.1"/>
<text transform="matrix(1 0 0 1 157.9024 27.3374)" class="st19"><tspan x="0" y="0" class="st9 st10 st11">1. Desarrollar/ </tspan><tspan x="0" y="16.8" class="st9 st10 st11">probar app</tspan></text>
<rect x="162.9" y="72.6" class="st3" width="127" height="16"/>
<text transform="matrix(1 0 0 1 156.4025 83.0043)" class="st9 st10 st11">2. Define secreto</text>
<rect x="162.9" y="127.6" class="st3" width="127" height="16"/>
<text transform="matrix(1 0 0 1 150.9025 138.0043)" class="st9 st10 st11">3. Empaqueta app</text>
<rect x="436.9" y="144.6" class="st3" width="132" height="16"/>
<text transform="matrix(1 0 0 1 446.4024 155.0043)" class="st9 st10 st11">4. Publica servicio</text>
<rect x="497.9" y="378.6" class="st3" width="203" height="16"/>
<text transform="matrix(1 0 0 1 497.9024 389.0043)" class="st9 st10 st11">6. Crea una política de despliegue</text>
<rect x="497.9" y="402.6" class="st3" width="203" height="16"/>
<text transform="matrix(1 0 0 1 497.9024 413.0043)" class="st9 st10 st11">7. Vincula secretos</text>
<rect x="497.9" y="426.6" class="st3" width="203" height="16"/>
<text transform="matrix(1 0 0 1 497.9024 437.0043)" class="st9 st10 st11">8. Publica política de despliegue</text>
<g>
	<g>
		<polyline class="st20" points="426.9,163.6 578.9,163.6 578.9,187.6 		"/>
		<g>
			<polygon class="st18" points="571.9,185.5 578.9,197.6 585.9,185.5 			"/>
		</g>
	</g>
</g>
<g>
	<g>
		<polyline class="st20" points="98.9,36.6 149.9,36.6 149.9,52.6 296.9,52.6 		"/>
		<g>
			<polygon class="st18" points="294.8,59.6 306.9,52.6 294.8,45.6 			"/>
		</g>
	</g>
</g>
<g>
	<g>
		<polyline class="st20" points="98.9,54.6 131.9,54.6 131.9,92.6 296.9,92.6 		"/>
		<g>
			<polygon class="st18" points="294.8,99.6 306.9,92.6 294.8,85.6 			"/>
		</g>
	</g>
</g>
<g>
	<g>
		<polyline class="st20" points="98.9,72.6 113.9,72.6 113.9,148.6 296.9,148.6 		"/>
		<g>
			<polygon class="st18" points="294.8,155.6 306.9,148.6 294.8,141.6 			"/>
		</g>
	</g>
</g>
<g>
	<g>
		<line class="st20" x1="359.9" y1="286.6" x2="359.9" y2="233.7"/>
		<g>
			<polygon class="st18" points="366.9,235.7 359.9,223.6 352.9,235.7 			"/>
		</g>
	</g>
</g>
<g>
	<g>
		<polyline class="st20" points="484.9,280.7 484.9,451.6 255.9,451.6 255.9,390.6 		"/>
		<g>
			<polygon class="st18" points="477.9,282.7 484.9,270.6 491.9,282.7 			"/>
		</g>
	</g>
</g>
<g>
	<g>
		<polyline class="st20" points="673.9,231.6 834.9,231.6 834.9,244.6 		"/>
		<g>
			<polygon class="st18" points="827.9,242.5 834.9,254.6 841.9,242.5 			"/>
		</g>
	</g>
</g>
<g>
	<g id="Rectangle-Copy-10_9_">
		<rect x="561.4" y="62.1" class="st15" width="87" height="33"/>
		<path class="st9" d="M647.9,62.6v32h-86v-32H647.9 M648.9,61.6h-1h-86h-1v1v32v1h1h86h1v-1v-32V61.6L648.9,61.6z"/>
	</g>
	<rect x="585.9" y="73.6" class="st3" width="46" height="16"/>
	<text transform="matrix(1 0 0 1 585.8869 83.9772)" class="st9 st10 st11">Secreto</text>
	<rect x="569.9" y="70.6" class="st16" width="8" height="16"/>
</g>
<g>
	<g>
		<line class="st20" x1="801.9" y1="78.6" x2="659" y2="78.6"/>
		<g>
			<polygon class="st18" points="661,71.6 648.9,78.6 661,85.6 			"/>
		</g>
	</g>
</g>
<g>
	<g>
		<line class="st20" x1="604.9" y1="95.6" x2="604.9" y2="187.6"/>
		<g>
			<polygon class="st18" points="597.9,185.5 604.9,197.6 611.9,185.5 			"/>
		</g>
	</g>
</g>
<rect x="9.4" y="66.4" class="st3" width="86.5" height="30.6"/>
<text transform="matrix(1 0 0 1 9.3868 76.7575)"><tspan x="0" y="0" class="st9 st10 st11">Desarrollador </tspan><tspan x="0" y="16.8" class="st9 st10 st11">de software</tspan></text>
<rect x="782.4" y="107.9" class="st3" width="114.5" height="30.6"/>
<text transform="matrix(1 0 0 1 785.2266 118.2575)"><tspan x="0" y="0" class="st9 st10 st11">Administrador de </tspan><tspan x="14.6" y="16.8" class="st9 st10 st11">organización</tspan></text>
<rect x="679.4" y="196.4" class="st3" width="164.5" height="30.6"/>
<text transform="matrix(1 0 0 1 679.3868 206.7575)"><tspan x="0" y="0" class="st9 st10 st11">9. Servicio es se </tspan><tspan x="0" y="16.8" class="st9 st10 st11">despliega con el secreto</tspan></text>
</svg>
