<?xml version="1.0" encoding="utf-8"?>
<!-- Generator: Adobe Illustrator 21.1.0, SVG Export Plug-In . SVG Version: 6.00 Build 0)  -->
<svg version="1.1" id="Layer_1" xmlns="http://www.w3.org/2000/svg" xmlns:xlink="http://www.w3.org/1999/xlink" x="0px" y="0px"
	 viewBox="0 0 1256 815.4" style="enable-background:new 0 0 1256 815.4;" xml:space="preserve">
<style type="text/css">
	.st0{fill:#E3F6FF;}
	.st1{fill:#0062FF;}
	.st2{fill:#8A3FFC;}
	.st3{fill:#92EEEE;}
	.st4{fill:#408BFC;}
	.st5{fill:#009C98;}
	.st6{fill:#BEBEBE;}
	.st7{fill:none;stroke:#00BAB6;stroke-width:2;stroke-dasharray:7;}
	.st8{fill:none;}
	.st9{fill:#F4F4F4;}
	.st10{font-family:'IBMPlexSans';}
	.st11{font-size:14px;}
	.st12{fill:#161616;}
	.st13{font-family:'IBMPlexSans-Medium';}
	.st14{font-size:16px;}
</style>
<circle id="Oval-Copy-8" class="st0" cx="72.5" cy="196.2" r="32.5"/>
<path id="Shape" class="st1" d="M81.5,205.7h-17c-4.1,0-7.5-3.4-7.5-7.5c0-3.6,2.6-6.7,6.1-7.4c0,0,0.1,0,0.1-0.1c1-4.7,5.1-8,9.8-8
	c0.6,0,1.3,0.1,1.9,0.2c4,0.8,7.1,3.9,7.9,7.9c0,0,0,0.1,0.1,0.1c4,0.8,6.7,4.7,6,8.7C88.2,203.1,85.1,205.7,81.5,205.7z
	 M64.5,203.7h17c2.7,0,4.9-1.9,5.4-4.5c0.3-1.8-0.2-3.6-1.5-4.9c-0.8-0.8-1.8-1.3-2.8-1.5l-0.3-0.1l-1.1-0.2c0,0-0.1,0-0.1-0.1l0,0
	l-0.2-1c-0.6-3.2-3-5.8-6.1-6.5c-0.9-0.2-1.9-0.3-2.8-0.1c-3.4,0.5-6,3.1-6.8,6.5l-0.1,0.3l-0.2,0.9c0,0,0,0.1-0.1,0.1l0,0l-1,0.2
	c-2.4,0.4-4.4,2.3-4.7,4.7C58.6,200.8,61.2,203.7,64.5,203.7z"/>
<circle id="Oval-Copy-9" class="st0" cx="73.5" cy="589.7" r="32.5"/>
<path id="Fill-1-Copy-2" class="st1" d="M81,583.2h1v-1h-1V583.2z M82.8,580.2h-2.5c-0.7,0-1.2,0.6-1.2,1.2v2.5
	c0,0.7,0.6,1.2,1.2,1.2h2.5c0.7,0,1.2-0.6,1.2-1.2v-2.5C84,580.8,83.4,580.2,82.8,580.2L82.8,580.2z M68,596.2v-8h8v8H68z M76,586.2
	h-1v-2h-2v2h-2v-2h-2v2h-1c-1.1,0-2,0.9-2,2v1h-2v2h2v2h-2v2h2v1c0,1.1,0.9,2,2,2h8c1.1,0,2-0.9,2-2v-8
	C78,587.1,77.1,586.2,76,586.2L76,586.2z M78,595.2h2v-2h-2V595.2z M78,591.2h2v-2h-2V591.2z M73,600.2h2v-2h-2V600.2z M69,600.2h2
	v-2h-2V600.2z M83,590.2c-0.6,0-1,0.4-1,1s0.4,1,1,1s1-0.4,1-1S83.6,590.2,83,590.2L83,590.2z M83,594.2c-0.6,0-1,0.4-1,1s0.4,1,1,1
	s1-0.4,1-1S83.6,594.2,83,594.2L83,594.2z M65,582.2c0.6,0,1-0.4,1-1s-0.4-1-1-1s-1,0.4-1,1S64.4,582.2,65,582.2L65,582.2z
	 M83,598.2c-0.6,0-1,0.4-1,1s0.4,1,1,1s1-0.4,1-1S83.6,598.2,83,598.2L83,598.2z M86,602c0,0.1-0.1,0.2-0.2,0.2H62.2
	c-0.1,0-0.2-0.1-0.2-0.2v-23.6c0-0.1,0.1-0.2,0.2-0.2h23.6c0.1,0,0.2,0.1,0.2,0.2V602z M85.8,576.2H62.2c-1.2,0-2.2,1-2.2,2.2V602
	c0,1.2,1,2.2,2.2,2.2h23.6c1.2,0,2.2-1,2.2-2.2v-23.6C88,577.2,87,576.2,85.8,576.2L85.8,576.2z"/>
<circle id="Oval-Copy-2" class="st0" cx="71.5" cy="43.2" r="32.5"/>
<path id="Fill-1" class="st1" d="M60,48.7h24v-16H60V48.7z M70,54.7h4v-4h-4V54.7z M84,30.7H60c-1.1,0-2,0.9-2,2v16c0,1.1,0.9,2,2,2
	h8v4h-4v2h16v-2h-4v-4h8c1.1,0,2-0.9,2-2v-16C86,31.6,85.1,30.7,84,30.7L84,30.7z"/>
<circle id="Oval-Copy-10" class="st0" cx="701.5" cy="58.2" r="32.5"/>
<path id="Fill-1_1_" class="st1" d="M702,43.7c-3.9,0-7,3.1-7,7s3.1,7,7,7s7-3.1,7-7S705.9,43.7,702,43.7 M702,45.7c2.8,0,5,2.2,5,5
	s-2.2,5-5,5s-5-2.2-5-5S699.2,45.7,702,45.7"/>
<path id="Fill-3" class="st1" d="M712,71.7h-2v-5c0-2.8-2.2-5-5-5h-6c-2.8,0-5,2.2-5,5v5h-2v-5c0-3.9,3.1-7,7-7h6c3.9,0,7,3.1,7,7
	V71.7z"/>
<rect id="Rectangle-Copy-18" x="234" y="552.2" class="st2" width="209" height="48"/>
<rect id="Rectangle-Copy-18_1_" x="234" y="185.7" class="st3" width="209" height="48"/>
<rect id="Rectangle-Copy-18_2_" x="234" y="25.7" class="st4" width="209" height="66"/>
<rect id="Rectangle-Copy-18_3_" x="234" y="287.7" class="st3" width="209" height="48"/>
<rect id="Rectangle-Copy-18_4_" x="234" y="654.2" class="st2" width="209" height="48"/>
<rect id="Rectangle-Copy-14" x="606" y="650.2" class="st4" width="192" height="56"/>
<rect id="Rectangle-Copy-14_1_" x="558" y="180.7" class="st4" width="288" height="117"/>
<rect id="Rectangle-Copy-18_5_" x="234" y="756.2" class="st2" width="209" height="48"/>
<path id="Rectangle-Copy-66" class="st5" d="M612,437.7h180c7.7,0,14,6.3,14,14v28c0,7.7-6.3,14-14,14H612c-7.7,0-14-6.3-14-14v-28
	C598,444,604.3,437.7,612,437.7z"/>
<path id="Rectangle-Copy-72" class="st5" d="M936,180.7h260c7.7,0,14,6.3,14,14v48c0,7.7-6.3,14-14,14H936c-7.7,0-14-6.3-14-14v-48
	C922,187,928.3,180.7,936,180.7z"/>
<path id="Rectangle-Copy-73" class="st5" d="M936,272.7h260c7.7,0,14,6.3,14,14v48c0,7.7-6.3,14-14,14H936c-7.7,0-14-6.3-14-14v-48
	C922,279,928.3,272.7,936,272.7z"/>
<path id="Path-2-Copy-16" class="st6" d="M648.9,51.7l14,7l-14,7v-6H457v6l-14-7l14-7v6h191.9V51.7z"/>
<path id="Path-2-Copy-12" class="st6" d="M339,702.2l7,14h-6v26h6l-7,14l-7-14h6v-26h-6L339,702.2z"/>
<path id="Path-2-Copy-17" class="st6" d="M702,383.7l7,14h-6v40h-2v-40h-6L702,383.7z"/>
<path id="Path-2-Copy-13" class="st6" d="M339,600.2l7,14h-6v26h6l-7,14l-7-14h6v-26h-6L339,600.2z"/>
<path id="Path-2-Copy-22" class="st6" d="M702,493.7l7,14h-6v72H443v-2h258v-70h-6L702,493.7z"/>
<path id="Path-2-Copy-14" class="st6" d="M339,233.7l7,14h-6v40h-2v-40h-6L339,233.7z"/>
<path id="Path-2-Copy-15" class="st6" d="M339,91.7l7,14h-6v66h6l-7,14l-7-14h6v-66h-6L339,91.7z"/>
<line id="Line-12" class="st7" x1="29.8" y1="132.2" x2="1229.2" y2="132.2"/>
<line id="Line-12-Copy" class="st7" x1="29.8" y1="525.2" x2="1229.2" y2="525.2"/>
<rect id="Rectangle-Copy-18_6_" x="574" y="233.7" class="st2" width="256" height="48"/>
<rect id="Rectangle-Copy-18_7_" x="574" y="335.7" class="st2" width="256" height="48"/>
<path id="Path-2-Copy-18" class="st6" d="M702,281.7l7,14h-6v40h-2v-40h-6L702,281.7z"/>
<path id="Path-2-Copy-19" class="st6" d="M574,255.7v2h-35v55h-80.5v6l-14-7l14-7v6H537v-55H574z"/>
<path id="Path-2-Copy-20" class="st6" d="M908,211.7l14,7l-14,7v-6h-39.1v27H844v6l-14-7l14-7v6h22.9v-27H908V211.7z"/>
<path id="Path-2-Copy-21" class="st6" d="M844,275.7l-14-7l14-7v6h25.2v42H908v-6l14,7l-14,7v-6h-40.8v-42H844V275.7z"/>
<rect x="233.9" y="569.3" class="st8" width="209" height="17.2"/>
<text transform="matrix(1 0 0 1 273.5586 579.7209)" class="st9 st10 st11">Serviço sdr2msghub</text>
<rect x="233.9" y="42.3" class="st8" width="209" height="38.4"/>
<rect x="574" y="352.3" class="st8" width="256" height="17.2"/>
<text transform="matrix(1 0 0 1 670.4111 362.7035)" class="st9 st10 st11">Acionador</text>
<rect x="573.8" y="250.3" class="st8" width="256" height="17.2"/>
<text transform="matrix(1 0 0 1 591.2769 261.7154)" class="st9 st10 st11">Ação de rádio definida por software</text>
<rect x="233.9" y="671.3" class="st8" width="209" height="17.2"/>
<text transform="matrix(1 0 0 1 303.5463 681.7242)" class="st9 st10 st11">Serviço sdr</text>
<rect x="233.9" y="773.3" class="st8" width="209" height="17.2"/>
<text transform="matrix(1 0 0 1 304.8764 783.7137)" class="st9 st10 st11">Sensor sdr</text>
<rect x="941.3" y="156.3" class="st8" width="288" height="15"/>
<text transform="matrix(0.9755 0 0 1 923.3066 166.7212)" class="st12 st10 st11">Converter texto de áudio, analisar sentimentos</text>
<rect x="458.2" y="34.3" class="st8" width="189.3" height="17"/>
<text transform="matrix(0.9429 0 0 1 460.5918 44.7192)" class="st12 st10 st11">Fornece visualizações de dados</text>
<rect x="669.4" y="98.3" class="st8" width="65" height="17"/>
<text transform="matrix(1 0 0 1 676.4458 108.7137)" class="st12 st10 st11">Usuário</text>
<rect x="234" y="304.9" class="st8" width="209" height="16.5"/>
<text transform="matrix(1 0 0 1 243.1507 315.3075)" class="st12 st10 st11">Edita banco de dados Postgres</text>
<rect x="234" y="202.9" class="st8" width="209" height="16.5"/>
<text transform="matrix(1 0 0 1 253.115 213.2374)" class="st12 st10 st11">Node.js, Express, GraphQL</text>
<rect x="36.5" y="236.4" class="st8" width="70.9" height="16.5"/>
<text transform="matrix(1 0 0 1 48.0467 246.7375)" class="st12 st10 st11">Nuvem</text>
<rect x="38.1" y="629.7" class="st8" width="70.9" height="16.5"/>
<text transform="matrix(1 0 0 1 33.7535 640.0739)" class="st12 st10 st11">Nó de borda</text>
<rect x="27.9" y="83.3" class="st8" width="88.1" height="16.5"/>
<text transform="matrix(1 0 0 1 6.2456 93.72)" class="st12 st10 st11">Navegadores da web</text>
<rect x="574" y="200.8" class="st8" width="158.1" height="15.6"/>
<text transform="matrix(1 0 0 1 573.9996 212.7081)" class="st9 st13 st14">Funções da IBM</text>
<rect x="597.1" y="457.9" class="st8" width="207.9" height="15.6"/>
<text transform="matrix(1 0 0 1 630.6774 469.7165)" class="st9 st13 st14">IBM Event Streams</text>
<rect x="606" y="670.4" class="st8" width="192" height="15.6"/>
<text transform="matrix(1 0 0 1 614.553 682.2736)" class="st9 st13 st14">Agente do Open Horizon</text>
<rect x="923" y="292.9" class="st8" width="288" height="41"/>
<rect x="922" y="200.9" class="st8" width="288" height="41"/>
<rect x="53.3" y="353.7" class="st8" width="99.4" height="15.6"/>
<text transform="matrix(1 0 0 1 53.3008 365.5601)" class="st12 st13 st14">Nó de borda</text>
<rect x="254" y="39.3" class="st8" width="181.3" height="34.7"/>
<text transform="matrix(1 0 0 1 254.0002 49.6932)"><tspan x="0" y="0" class="st9 st10 st11">Fornece visualizações de </tspan><tspan x="0" y="16.8" class="st9 st10 st11">dados(React, GraphQL)</tspan></text>
<rect x="360.7" y="140" class="st8" width="170" height="42.7"/>
<text transform="matrix(1 0 0 1 360.6665 150.3599)"><tspan x="0" y="0" class="st12 st10 st11">Serve a IU, transportar </tspan><tspan x="0" y="16.8" class="st12 st10 st11">dados ao navegador</tspan></text>
<rect x="355.3" y="238.3" class="st8" width="168.7" height="46"/>
<text transform="matrix(1 0 0 1 355.3335 248.6934)"><tspan x="0" y="0" class="st12 st10 st11">Armazena somente insi</tspan><tspan x="146.9" y="0" class="st12 st10 st11">-</tspan><tspan x="0" y="16.8" class="st12 st10 st11">ghts (sentimentos) no </tspan><tspan x="0" y="33.6" class="st12 st10 st11">banco de dados</tspan></text>
<text transform="matrix(0.9526 0 0 1 355.3335 615.6934)"><tspan x="0" y="0" class="st12 st10 st11">Utiliza aprendizado de máquina para  </tspan><tspan x="0" y="16.8" class="st12 st10 st11">selecionar as melhores estações de  </tspan><tspan x="0" y="33.6" class="st12 st10 st11">comunicação, envia áudio para a nuvem</tspan></text>
<rect x="359.3" y="715.3" class="st8" width="168.7" height="30.6"/>
<text transform="matrix(1 0 0 1 359.3335 725.694)"><tspan x="0" y="0" class="st12 st10 st11">Recupera clipes de áudio </tspan><tspan x="0" y="16.8" class="st12 st10 st11">de estações de rádio</tspan></text>
<rect x="717.3" y="394" class="st8" width="182" height="30.6"/>
<text transform="matrix(1 0 0 1 717.3337 404.3597)"><tspan x="0" y="0" class="st12 st10 st11">Mensagem aciona ação de </tspan><tspan x="0" y="16.8" class="st12 st10 st11">rádio definida por software</tspan></text>
<text transform="matrix(1 0 0 1 968.4475 221.8397)" class="st9 st13 st14">IBM Watson Speech to Text</text>
<rect x="965.6" y="290.7" class="st8" width="206.7" height="35.2"/>
<text transform="matrix(1 0 0 1 994.7748 302.5065)"><tspan x="0" y="0" class="st9 st13 st14">IBM Watson Natural </tspan><tspan x="-17.1" y="19.2" class="st9 st13 st14">Language Understanding</tspan></text>
</svg>
