<?xml version="1.0" encoding="utf-8"?>
<!-- Generator: Adobe Illustrator 19.2.1, SVG Export Plug-In . SVG Version: 6.00 Build 0)  -->
<svg version="1.1" id="Layer_1" xmlns="http://www.w3.org/2000/svg" xmlns:xlink="http://www.w3.org/1999/xlink" x="0px" y="0px"
	 viewBox="0 0 903 817" style="enable-background:new 0 0 903 817;" xml:space="preserve">
<style type="text/css">
	.st0{fill:none;stroke:#00BAB6;stroke-width:2;stroke-dasharray:7;}
	.st1{fill-rule:evenodd;clip-rule:evenodd;fill:#E3F6FF;}
	.st2{fill-rule:evenodd;clip-rule:evenodd;fill:#0F62FE;}
	.st3{fill-rule:evenodd;clip-rule:evenodd;fill:#009C98;}
	.st4{fill:#DCDCDC;}
	.st5{fill-rule:evenodd;clip-rule:evenodd;fill:#408BFC;}
	.st6{fill-rule:evenodd;clip-rule:evenodd;fill:#FFFFFF;}
	.st7{fill-rule:evenodd;clip-rule:evenodd;fill:#051B75;}
	.st8{fill-rule:evenodd;clip-rule:evenodd;fill:#8A3FFC;}
	.st9{fill:#EE538B;}
	.st10{fill-rule:evenodd;clip-rule:evenodd;fill:none;}
	.st11{fill:#161616;}
	.st12{font-family:'Gulim';}
	.st13{font-size:14px;}
	.st14{font-family:'ArialMT';}
	.st15{fill:#F4F4F4;}
	.st16{font-family:'Arial-BoldMT';}
	.st17{font-size:16px;}
	.st18{fill:#F4F4F4;stroke:#F4F4F4;stroke-width:0.5;stroke-miterlimit:10;}
	.st19{fill:#161616;stroke:#151515;stroke-width:0.5;stroke-miterlimit:10;}
	.st20{fill:none;}
</style>
<path id="Rectangle-Copy-19" class="st0" d="M505,32h357c22.1,0,40,17.9,40,40v222c0,22.1-17.9,40-40,40H505c-22.1,0-40-17.9-40-40
	V72C465,49.9,482.9,32,505,32z"/>
<path id="Rectangle-Copy-23" class="st0" d="M41,120h237c22.1,0,40,17.9,40,40v94c0,22.1-17.9,40-40,40H41c-22.1,0-40-17.9-40-40
	v-94C1,137.9,18.9,120,41,120z"/>
<circle id="Oval-Copy-3" class="st1" cx="58" cy="180" r="24"/>
<path id="Shape" class="st2" d="M53,183c2.8,0,5,2.2,5,5v6h-2v-6c0-1.7-1.3-3-3-3h-4c-1.7,0-3,1.3-3,3v6h-2v-6c0-2.8,2.2-5,5-5H53z
	 M51,171c2.8,0,5,2.2,5,5s-2.2,5-5,5s-5-2.2-5-5S48.2,171,51,171z M72,172v8h-2v-8H72z M67,169v11h-2v-11H67z M62,174v6h-2v-6H62z
	 M51,173c-1.7,0-3,1.3-3,3c0,1.7,1.3,3,3,3s3-1.3,3-3S52.7,173,51,173z"/>
<circle id="Oval-Copy-3_1_" class="st1" cx="529" cy="88" r="24"/>
<path id="Shape_1_" class="st2" d="M524,91c2.8,0,5,2.2,5,5v6h-2v-6c0-1.7-1.3-3-3-3h-4c-1.7,0-3,1.3-3,3v6h-2v-6c0-2.8,2.2-5,5-5
	H524z M522,79c2.8,0,5,2.2,5,5s-2.2,5-5,5s-5-2.2-5-5S519.2,79,522,79z M537.1,77.9l1.8,0.4l-2.4,10.4l-1.8-0.4L537.1,77.9z
	 M531.9,79.6l1.4,1.2l-2.1,2.6l2.1,2.6l-1.4,1.2l-3.1-3.7L531.9,79.6z M541.7,79.6l3.1,3.7l-3.1,3.7l-1.4-1.2l2.1-2.6l-2.1-2.6
	L541.7,79.6z M522,81c-1.7,0-3,1.3-3,3c0,1.7,1.3,3,3,3s3-1.3,3-3S523.7,81,522,81z"/>
<rect id="Rectangle-Copy-14" x="540" y="422" class="st3" width="260" height="155"/>
<path id="Line-5-Copy-5" class="st4" d="M828.3,498.5l0,1L827.8,623l6,0l-7.1,14l-6.9-14l6,0l0.4-122.5H800v-2H828.3z"/>
<rect id="Rectangle-Copy-14_1_" x="480" y="637" class="st5" width="370" height="180"/>
<rect id="Rectangle-Copy-9" x="496" y="720" class="st6" width="80" height="81"/>
<rect id="Rectangle-Copy-24" x="1" y="422" class="st7" width="400" height="155"/>
<rect id="Rectangle-Copy-16" x="305" y="479" class="st6" width="80" height="81"/>
<rect id="Rectangle-Copy-16_1_" x="209" y="479" class="st6" width="80" height="81"/>
<rect id="Rectangle-Copy-16_2_" x="113" y="479" class="st6" width="80" height="81"/>
<rect id="Rectangle-Copy-16_3_" x="17" y="479" class="st6" width="80" height="81"/>
<rect id="Rectangle-Copy-18" x="673" y="64" class="st8" width="104" height="81"/>
<rect id="Rectangle-Copy-18_1_" x="785" y="196" class="st8" width="85" height="106"/>
<rect id="Rectangle-Copy-18_2_" x="749" y="695" class="st8" width="85" height="106"/>
<rect id="Rectangle-Copy-18_4_" x="497" y="196" class="st8" width="85" height="106"/>
<path id="Line-2-Copy-21" class="st4" d="M659,97.1l14,6.9l-14,7.1l0-6l-92,0.4l-1,0l0-2l1,0l92-0.4L659,97.1z"/>
<path id="Line-2-Copy-30" class="st9" d="M735,754l14,7l-14,7v-6H576v-2h159V754z"/>
<path id="Line-2-Copy-31" class="st4" d="M187.5,177l14,7l-14,7v-6H94v-2h93.5V177z"/>
<path id="Line-2-Copy-32" class="st9" d="M187.5,236l14,7l-14,7v-6H94v-2h93.5V236z"/>
<path id="Line-2-Copy-33" class="st4" d="M483,201l14,7l-14,7v-6H286v-2h197V201z"/>
<path id="Line-2-Copy-34" class="st4" d="M828.5,302v77.3l-357,0V455l-56.5,0v6l-14-7l14-7v6h54.5v-75.6l357,0V302H828.5z"/>
<path id="Line-2-Copy-35" class="st4" d="M771,242l14,7l-14,7v-6H582v-2h189V242z"/>
<path id="Line-4-Copy-3" class="st9" d="M346,242v223h6l-7,14l-7-14h6V244h-58v-2H346z"/>
<path id="Path-3-Copy" class="st9" d="M346,560v200h135v-6l14,7l-14,7v-6H344V560H346z"/>
<path id="Line-5" class="st4" d="M526,447l14,7l-14,7v-6h-55.5v-2H526V447z"/>
<rect x="25" y="214.8" class="st10" width="64.9" height="34.7"/>
<text transform="matrix(1 0 0 1 36.2685 225.0089)"><tspan x="0" y="0" class="st11 st12 st13">데이터</tspan><tspan x="42.5" y="0" class="st11 st14 st13"> </tspan><tspan x="0" y="20" class="st11 st12 st13">과학자</tspan></text>
<rect x="81.9" y="196.7" class="st10" width="128.5" height="34.7"/>
<text transform="matrix(1 0 0 1 109.9663 206.9206)"><tspan x="0" y="0" class="st11 st14 st13">6. </tspan><tspan x="16" y="0" class="st11 st12 st13">업데이트</tspan><tspan x="22.2" y="20" class="st11 st12 st13">수행</tspan></text>
<rect x="354" y="311.6" class="st10" width="104.5" height="91.3"/>
<text transform="matrix(1 0 0 1 353.9998 321.8736)"><tspan x="0" y="0" class="st11 st14 st13">7. MMS</tspan><tspan x="49.2" y="0" class="st11 st12 st13">를</tspan><tspan x="63.3" y="0" class="st11 st14 st13"> </tspan><tspan x="0" y="20" class="st11 st12 st13">사용하여</tspan><tspan x="56.6" y="20" class="st11 st14 st13"> </tspan><tspan x="0" y="40" class="st11 st12 st13">모델</tspan><tspan x="28.3" y="40" class="st11 st14 st13"> </tspan><tspan x="32.4" y="40" class="st11 st12 st13">업데이트</tspan><tspan x="89" y="40" class="st11 st14 st13"> </tspan><tspan x="0" y="60" class="st11 st12 st13">가져오기</tspan></text>
<rect x="357" y="658.7" class="st10" width="104.5" height="68.3"/>
<text transform="matrix(1 0 0 1 357 668.9004)"><tspan x="0" y="0" class="st11 st12 st13">8. 모델</tspan><tspan x="46.1" y="0" class="st11 st14 st13"> </tspan><tspan x="0" y="20" class="st11 st12 st13">업데이트</tspan><tspan x="56.6" y="20" class="st11 st14 st13"> </tspan><tspan x="0" y="40" class="st11 st12 st13">가져오기</tspan></text>
<rect x="597.3" y="699.6" class="st10" width="114.1" height="79.1"/>
<text transform="matrix(1 0 0 1 611.5684 709.8702)"><tspan x="0" y="0" class="st15 st14 st13">9. ESS API</tspan><tspan x="71.6" y="0" class="st15 st12 st13">를</tspan><tspan x="85.7" y="0" class="st15 st14 st13"> </tspan><tspan x="-1.6" y="20" class="st15 st12 st13">사용하여</tspan><tspan x="55" y="20" class="st15 st14 st13"> </tspan><tspan x="59" y="20" class="st15 st12 st13">모델</tspan><tspan x="87.3" y="20" class="st15 st14 st13"> </tspan><tspan x="14.6" y="40" class="st15 st12 st13">가져오기</tspan></text>
<rect x="491.3" y="122.8" class="st10" width="74.1" height="34.8"/>
<text transform="matrix(1 0 0 1 493.0892 133.0038)"><tspan x="0" y="0" class="st11 st12 st13">소프트웨어</tspan><tspan x="70.8" y="0" class="st11 st14 st13"> </tspan><tspan x="14.2" y="20" class="st11 st12 st13">개발자</tspan></text>
<rect x="305" y="512.8" class="st10" width="80" height="14.9"/>
<text transform="matrix(1 0 0 1 328.5154 522.813)" class="st11 st14 st13">MMS</text>
<rect x="502" y="744.7" class="st10" width="65.8" height="37.9"/>
<text transform="matrix(1 0 0 1 520.8286 754.995)"><tspan x="0" y="0" class="st11 st12 st13">에지</tspan><tspan x="28.3" y="0" class="st11 st14 st13"> </tspan><tspan x="-14.2" y="20" class="st11 st12 st13">에이전트</tspan></text>
<rect x="749" y="736.7" class="st10" width="84.8" height="16.4"/>
<text transform="matrix(1 0 0 1 761.4565 746.955)"><tspan x="0" y="0" class="st15 st14 st13">AI </tspan><tspan x="17.6" y="0" class="st15 st12 st13">서비스</tspan></text>
<rect x="209" y="512.8" class="st10" width="80" height="14.9"/>
<text transform="matrix(1 0 0 1 241.9231 522.813)" class="st11 st14 st13">UI</text>
<rect x="113" y="512.8" class="st10" width="80" height="14.9"/>
<text transform="matrix(1 0 0 1 121.3269 522.813)" class="st11 st14 st13">Exchange</text>
<rect x="17" y="512.8" class="st10" width="80" height="14.9"/>
<text transform="matrix(1 0 0 1 38.3992 522.813)" class="st11 st14 st13">Agbot</text>
<rect x="673" y="96.8" class="st10" width="104" height="14.9"/>
<text transform="matrix(1 0 0 1 702.4426 106.7956)" class="st15 st14 st13">Docker</text>
<rect x="784.9" y="237.7" class="st10" width="85" height="14.9"/>
<text transform="matrix(1 0 0 1 797.4424 247.9659)"><tspan x="0" y="0" class="st15 st14 st13">AI </tspan><tspan x="17.6" y="0" class="st15 st12 st13">서비스</tspan></text>
<rect x="496.8" y="230.2" class="st10" width="85.2" height="34.7"/>
<text transform="matrix(1 0 0 1 520.8026 240.2083)"><tspan x="0" y="0" class="st15 st14 st13">AI/ML </tspan><tspan x="-23.8" y="20" class="st15 st12 st13">애플리케이션</tspan></text>
<rect x="17" y="442.3" class="st10" width="236.1" height="15.6"/>
<text transform="matrix(1 0 0 1 17.0002 453.9643)"><tspan x="0" y="0" class="st15 st16 st17">IEAM </tspan><tspan x="44.4" y="0" class="st18 st12 st17">관리</tspan><tspan x="76.4" y="0" class="st18 st16 st17"> </tspan><tspan x="80.9" y="0" class="st18 st12 st17">허브</tspan></text>
<rect x="496" y="657.3" class="st10" width="236.1" height="15.6"/>
<text transform="matrix(1 0 0 1 496.0002 668.9912)"><tspan x="0" y="0" class="st18 st12 st17">에지</tspan><tspan x="32" y="0" class="st18 st16 st17"> </tspan><tspan x="36.4" y="0" class="st18 st12 st17">노드</tspan></text>
<rect x="34" y="92.3" class="st10" width="236.1" height="15.6"/>
<text transform="matrix(1 0 0 1 33.9919 104.0042)"><tspan x="0" y="0" class="st19 st12 st17">데이터</tspan><tspan x="48" y="0" class="st19 st16 st17"> </tspan><tspan x="52.4" y="0" class="st19 st12 st17">과학자</tspan><tspan x="100.4" y="0" class="st19 st16 st17"> </tspan><tspan x="104.9" y="0" class="st19 st12 st17">환경</tspan></text>
<rect x="497" y="4.3" class="st10" width="236.1" height="15.6"/>
<text transform="matrix(1 0 0 1 497.0002 15.9883)"><tspan x="0" y="0" class="st19 st12 st17">개발자</tspan><tspan x="48" y="0" class="st19 st16 st17"> </tspan><tspan x="52.4" y="0" class="st19 st12 st17">환경</tspan></text>
<rect id="Rectangle-Copy-18_6_" x="201" y="154" class="st8" width="85" height="120"/>
<rect x="203.1" y="176.7" class="st10" width="80.6" height="74.6"/>
<text transform="matrix(1 0 0 1 224.8047 186.7406)"><tspan x="0" y="0" class="st15 st14 st13">AI/ML </tspan><tspan x="-16.7" y="20" class="st15 st12 st13">애플리케이</tspan><tspan x="-21.1" y="40" class="st15 st12 st13">션</tspan><tspan x="-7" y="40" class="st15 st14 st13">(</tspan><tspan x="-2.2" y="40" class="st15 st12 st13">해당</tspan><tspan x="26.1" y="40" class="st15 st14 st13"> </tspan><tspan x="30.2" y="40" class="st15 st12 st13">모델</tspan><tspan x="58.5" y="40" class="st15 st14 st13"> </tspan><tspan x="2.1" y="60" class="st15 st12 st13">포함</tspan><tspan x="30.4" y="60" class="st15 st14 st13">)</tspan></text>
<rect x="575.7" y="440.2" class="st10" width="162.3" height="15.6"/>
<text transform="matrix(1 0 0 1 575.7068 451.8898)"><tspan x="0" y="0" class="st18 st12 st17">컨테이너</tspan><tspan x="64" y="0" class="st18 st16 st17"> </tspan><tspan x="68.4" y="0" class="st18 st12 st17">레지스트리</tspan></text>
<g>
	<path class="st15" d="M567.7,439.8h-8c-0.6,0-1,0.4-1,1v11c0,0.6,0.4,1,1,1h8c0.6,0,1-0.4,1-1v-11
		C568.7,440.2,568.3,439.8,567.7,439.8z M567.7,440.8v3h-8v-3H567.7z M559.7,447.8v-3h8v3H559.7z M559.7,451.8v-3h8v3H559.7z"/>
	<circle class="st15" cx="561.2" cy="442.3" r="0.5"/>
	<circle class="st15" cx="561.2" cy="446.3" r="0.5"/>
	<circle class="st15" cx="561.2" cy="450.3" r="0.5"/>
	<rect id="_x3C_Transparent_Rectangle_x3E__616_" x="555.7" y="438.3" class="st20" width="16" height="16"/>
</g>
</svg>
