<?xml version="1.0" encoding="utf-8"?>
<!-- Generator: Adobe Illustrator 19.2.1, SVG Export Plug-In . SVG Version: 6.00 Build 0)  -->
<svg version="1.1" id="Layer_1" xmlns="http://www.w3.org/2000/svg" xmlns:xlink="http://www.w3.org/1999/xlink" x="0px" y="0px"
	 viewBox="0 0 1183 926" style="enable-background:new 0 0 1183 926;" xml:space="preserve">
<style type="text/css">
	.st0{fill-rule:evenodd;clip-rule:evenodd;fill:#6E32C9;}
	.st1{fill-rule:evenodd;clip-rule:evenodd;fill:#4F2196;}
	.st2{fill-rule:evenodd;clip-rule:evenodd;fill:#FFFFFF;stroke:#E0E0E0;}
	.st3{fill-rule:evenodd;clip-rule:evenodd;fill:#FFFFFF;}
	.st4{fill-rule:evenodd;clip-rule:evenodd;fill:#C9DEFF;}
	.st5{fill-rule:evenodd;clip-rule:evenodd;fill:#408BFC;}
	.st6{fill-rule:evenodd;clip-rule:evenodd;fill:#054ADA;}
	.st7{fill:none;stroke:#054ADA;stroke-linecap:square;}
	.st8{fill:none;stroke:#054ADA;}
	.st9{fill:#BEBEBE;}
	.st10{fill-rule:evenodd;clip-rule:evenodd;fill:#24A148;}
	.st11{fill-rule:evenodd;clip-rule:evenodd;fill:none;}
	.st12{fill:#F4F4F4;stroke:#F4F4F4;stroke-width:0.5;stroke-miterlimit:10;}
	.st13{font-family:'Gulim';}
	.st14{font-size:16px;}
	.st15{font-family:'Arial-BoldMT';}
	.st16{fill:#161616;}
	.st17{font-family:'ArialMT';}
	.st18{fill:#141414;stroke:#151515;stroke-width:0.75;stroke-miterlimit:10;}
	.st19{font-size:14px;}
	.st20{fill:#F4F4F4;}
</style>
<rect id="Rectangle-Copy-14" x="21" y="263" class="st0" width="281" height="663"/>
<rect id="Rectangle-Copy-14_1_" x="495" y="263" class="st1" width="667" height="663"/>
<rect id="Rectangle" x="0.5" y="0.5" class="st2" width="144" height="37"/>
<rect id="Rectangle-Copy-28" x="0.5" y="37.5" class="st2" width="144" height="76"/>
<rect id="Rectangle-Copy-31" x="0.5" y="114.5" class="st2" width="144" height="79"/>
<rect id="Rectangle-Copy-29" x="143.5" y="37.5" class="st2" width="260" height="76"/>
<rect id="Rectangle-Copy-33" x="403.5" y="37.5" class="st2" width="260" height="76"/>
<rect id="Rectangle-Copy-36" x="663.5" y="37.5" class="st2" width="260" height="76"/>
<rect id="Rectangle-Copy-39" x="922.5" y="37.5" class="st2" width="260" height="76"/>
<rect id="Rectangle-Copy-32" x="143.5" y="114.5" class="st2" width="260" height="79"/>
<rect id="Rectangle-Copy-34" x="403.5" y="114.5" class="st2" width="260" height="79"/>
<rect id="Rectangle-Copy-37" x="663.5" y="114.5" class="st2" width="260" height="79"/>
<rect id="Rectangle-Copy-40" x="922.5" y="114.5" class="st2" width="260" height="79"/>
<rect id="Rectangle-Copy-26" x="143.5" y="0.5" class="st2" width="260" height="37"/>
<rect id="Rectangle-Copy-35" x="403.5" y="0.5" class="st2" width="260" height="37"/>
<rect id="Rectangle-Copy-38" x="663.5" y="0.5" class="st2" width="260" height="37"/>
<rect id="Rectangle-Copy-41" x="922.5" y="0.5" class="st2" width="260" height="37"/>
<rect id="Rectangle-Copy-30" x="53" y="334" class="st3" width="217" height="264"/>
<path id="Default-Copy-4" class="st4" d="M85,398h129c8.8,0,16,7.2,16,16l0,0c0,8.8-7.2,16-16,16H85c-8.8,0-16-7.2-16-16l0,0
	C69,405.2,76.2,398,85,398z"/>
<rect id="Rectangle-Copy-45" x="53" y="630" class="st3" width="217" height="264"/>
<rect id="Rectangle-Copy-46" x="527" y="334" class="st3" width="603" height="264"/>
<rect id="Rectangle_1_" x="543" y="398" class="st5" width="286" height="184"/>
<rect id="Rectangle-Copy-43" x="829" y="398" class="st6" width="286" height="184"/>
<rect id="Default" x="558" y="462" class="st4" width="100" height="32"/>
<rect id="Default-Copy" x="558" y="534" class="st4" width="100" height="32"/>
<rect id="Default_1_" x="662" y="462" class="st4" width="85" height="32"/>
<rect id="Default-Copy-2" x="662" y="534" class="st4" width="85" height="32"/>
<rect id="Default_2_" x="751" y="462" class="st4" width="39" height="32"/>
<rect id="Default-Copy-3" x="751" y="534" class="st4" width="62" height="32"/>
<line id="Line-3" class="st7" x1="616" y1="514.5" x2="813.5" y2="514.5"/>
<line id="Line-3-Copy" class="st8" x1="558" y1="514" x2="566" y2="514"/>
<rect id="Field-color" x="570" y="502" class="st4" width="42" height="24"/>
<rect id="Rectangle-Copy-47" x="527" y="630" class="st3" width="603" height="264"/>
<rect id="Rectangle_2_" x="543" y="694" class="st5" width="286" height="184"/>
<rect id="Rectangle-Copy-43_1_" x="829" y="694" class="st6" width="286" height="184"/>
<path id="Line-9" class="st9" d="M527,459c3.9,0,7,3.1,7,7s-3.1,7-7,7c-3.5,0-6.4-2.6-6.9-6l-235.6,0v6l-14-7l14-7v6h235.6
	c0.5-3.3,3.3-5.9,6.7-6L527,459z"/>
<path id="Line-9-Copy" class="st9" d="M513,755l14,7l-14,7v-6l-235.6,0c-0.5,3.3-3.3,5.9-6.7,6l-0.2,0c-3.9,0-7-3.1-7-7s3.1-7,7-7
	c3.5,0,6.4,2.6,6.9,6H513V755z"/>
<circle id="Oval" class="st3" cx="399" cy="466" r="20"/>
<path id="path-1_1_" class="st10" d="M406,462.4l-1.4-1.4l-7.6,7.6l-3.6-3.6l-1.4,1.4l5,5L406,462.4z M399,452c-7.7,0-14,6.3-14,14
	s6.3,14,14,14s14-6.3,14-14S406.7,452,399,452z M399,478c-6.6,0-12-5.4-12-12s5.4-12,12-12s12,5.4,12,12S405.6,478,399,478z"/>
<circle id="Oval_1_" class="st3" cx="399" cy="762" r="20"/>
<path id="path-3_1_" class="st10" d="M406,758.4l-1.4-1.4l-7.6,7.6l-3.6-3.6l-1.4,1.4l5,5L406,758.4z M399,748c-7.7,0-14,6.3-14,14
	s6.3,14,14,14s14-6.3,14-14S406.7,748,399,748z M399,774c-6.6,0-12-5.4-12-12s5.4-12,12-12s12,5.4,12,12S405.6,774,399,774z"/>
<rect x="511" y="283.2" class="st11" width="236.1" height="15.6"/>
<text transform="matrix(1 0 0 1 511.0002 294.8823)"><tspan x="0" y="0" class="st12 st13 st14">배치</tspan><tspan x="32" y="0" class="st12 st15 st14"> </tspan><tspan x="36.4" y="0" class="st12 st13 st14">정책</tspan></text>
<rect x="542.9" y="354.2" class="st11" width="236.1" height="15.6"/>
<text transform="matrix(1 0 0 1 542.886 365.8856)" class="st16 st13 st14">제한조건</text>
<rect x="542.9" y="650.1" class="st11" width="236.1" height="15.6"/>
<text transform="matrix(1 0 0 1 542.886 661.8249)" class="st16 st13 st14">특성</text>
<rect x="69" y="354.2" class="st11" width="179.7" height="15.6"/>
<text transform="matrix(1 0 0 1 69.0002 365.8856)"><tspan x="0" y="0" class="st16 st13 st14">노드</tspan><tspan x="32" y="0" class="st16 st17 st14"> </tspan><tspan x="36.4" y="0" class="st16 st13 st14">특성</tspan></text>
<rect x="69" y="650.2" class="st11" width="179.7" height="15.6"/>
<text transform="matrix(1 0 0 1 69.0002 661.8786)"><tspan x="0" y="0" class="st16 st13 st14">노드</tspan><tspan x="32" y="0" class="st16 st17 st14"> </tspan><tspan x="36.4" y="0" class="st16 st13 st14">제한조건</tspan></text>
<rect x="37" y="283.2" class="st11" width="236.1" height="15.6"/>
<text transform="matrix(1 0 0 1 37.0001 294.8823)"><tspan x="0" y="0" class="st12 st13 st14">노드</tspan><tspan x="32" y="0" class="st12 st15 st14"> </tspan><tspan x="36.4" y="0" class="st12 st13 st14">정책</tspan></text>
<rect x="150" y="13.1" class="st11" width="237.4" height="19.1"/>
<text transform="matrix(1 0 0 1 150 24.8615)"><tspan x="0" y="0" class="st18 st13 st14">노드</tspan><tspan x="32" y="0" class="st18 st15 st14"> </tspan><tspan x="36.4" y="0" class="st18 st13 st14">정책</tspan></text>
<rect x="5" y="127.1" class="st11" width="129.5" height="19.1"/>
<text transform="matrix(1 0 0 1 5 138.8483)" class="st18 st13 st14">용도</text>
<rect x="150" y="50.2" class="st11" width="250.5" height="59.6"/>
<text transform="matrix(1 0 0 1 150 61.8772)"><tspan x="0" y="0" class="st16 st13 st14">노드를</tspan><tspan x="48" y="0" class="st16 st17 st14"> </tspan><tspan x="52.4" y="0" class="st16 st13 st14">등록할</tspan><tspan x="100.4" y="0" class="st16 st17 st14"> </tspan><tspan x="104.9" y="0" class="st16 st13 st14">때</tspan><tspan x="120.9" y="0" class="st16 st17 st14"> </tspan><tspan x="125.3" y="0" class="st16 st13 st14">노드</tspan><tspan x="157.3" y="0" class="st16 st17 st14"> </tspan><tspan x="161.8" y="0" class="st16 st13 st14">소유자가</tspan><tspan x="225.8" y="0" class="st16 st17 st14"> </tspan><tspan x="0" y="20" class="st16 st13 st14">제공</tspan></text>
<rect x="150" y="127.1" class="st11" width="250.5" height="59.6"/>
<text transform="matrix(1 0 0 1 150 138.8488)"><tspan x="0" y="0" class="st16 st13 st14">노드가</tspan><tspan x="48" y="0" class="st16 st17 st14"> </tspan><tspan x="52.4" y="0" class="st16 st13 st14">가진</tspan><tspan x="84.4" y="0" class="st16 st17 st14"> </tspan><tspan x="88.9" y="0" class="st16 st13 st14">기능과</tspan><tspan x="136.9" y="0" class="st16 st17 st14"> </tspan><tspan x="141.3" y="0" class="st16 st13 st14">노드의</tspan><tspan x="189.3" y="0" class="st16 st17 st14"> </tspan><tspan x="193.8" y="0" class="st16 st13 st14">정해진</tspan><tspan x="241.8" y="0" class="st16 st17 st14"> </tspan><tspan x="0" y="20" class="st16 st13 st14">용도</tspan><tspan x="32" y="20" class="st16 st17 st14"> </tspan><tspan x="36.4" y="20" class="st16 st13 st14">정의</tspan></text>
<rect x="69" y="711.6" class="st11" width="186.2" height="29.8"/>
<text transform="matrix(1 0 0 1 69.0152 721.8917)"><tspan x="0" y="0" class="st16 st17 st19">(</tspan><tspan x="4.8" y="0" class="st16 st13 st19">선택사항</tspan><tspan x="61.4" y="0" class="st16 st17 st19">)</tspan></text>
<rect x="559" y="714.2" class="st11" width="236.1" height="15.6"/>
<text transform="matrix(1 0 0 1 559.0001 725.8683)"><tspan x="0" y="0" class="st20 st13 st14">배치</tspan><tspan x="32" y="0" class="st20 st17 st14"> </tspan><tspan x="36.4" y="0" class="st20 st13 st14">특성</tspan></text>
<rect x="559" y="758.6" class="st11" width="186.2" height="29.8"/>
<text transform="matrix(1 0 0 1 559 768.8657)"><tspan x="0" y="0" class="st20 st17 st19">(</tspan><tspan x="4.8" y="0" class="st20 st13 st19">선택사항</tspan><tspan x="61.4" y="0" class="st20 st17 st19">)</tspan></text>
<rect x="845" y="714.2" class="st11" width="236.1" height="15.6"/>
<text transform="matrix(1 0 0 1 845.0001 725.8683)"><tspan x="0" y="0" class="st20 st13 st14">서비스</tspan><tspan x="48" y="0" class="st20 st17 st14"> </tspan><tspan x="52.4" y="0" class="st20 st13 st14">특성</tspan></text>
<rect x="845" y="758.6" class="st11" width="186.2" height="29.8"/>
<text transform="matrix(1 0 0 1 845 768.8657)"><tspan x="0" y="0" class="st20 st17 st19">(</tspan><tspan x="4.8" y="0" class="st20 st13 st19">선택사항</tspan><tspan x="61.4" y="0" class="st20 st17 st19">)</tspan></text>
<rect x="559" y="418.2" class="st11" width="236.1" height="15.6"/>
<text transform="matrix(1 0 0 1 559.0001 429.9278)"><tspan x="0" y="0" class="st20 st13 st14">배치</tspan><tspan x="32" y="0" class="st20 st17 st14"> </tspan><tspan x="36.4" y="0" class="st20 st13 st14">제한조건</tspan></text>
<rect x="845" y="418.2" class="st11" width="236.1" height="15.6"/>
<text transform="matrix(1 0 0 1 845.0001 429.9278)"><tspan x="0" y="0" class="st20 st13 st14">서비스</tspan><tspan x="48" y="0" class="st20 st17 st14"> </tspan><tspan x="52.4" y="0" class="st20 st13 st14">제한조건</tspan></text>
<rect x="845" y="462.7" class="st11" width="186.2" height="29.8"/>
<text transform="matrix(1 0 0 1 845 472.9253)"><tspan x="0" y="0" class="st20 st17 st19">(</tspan><tspan x="4.8" y="0" class="st20 st13 st19">선택사항</tspan><tspan x="61.4" y="0" class="st20 st17 st19">)</tspan></text>
<rect x="81" y="408.7" class="st11" width="142.2" height="17.6"/>
<text transform="matrix(1 0 0 1 81 418.6816)" class="st16 st17 st19">camera-type=motion</text>
<rect x="409" y="13.1" class="st11" width="237.4" height="19.1"/>
<text transform="matrix(1 0 0 1 409 24.8615)"><tspan x="0" y="0" class="st18 st13 st14">서비스</tspan><tspan x="48" y="0" class="st18 st15 st14"> </tspan><tspan x="52.4" y="0" class="st18 st13 st14">정책</tspan></text>
<rect x="409" y="50.2" class="st11" width="250.5" height="59.6"/>
<text transform="matrix(1 0 0 1 409 61.8772)"><tspan x="0" y="0" class="st16 st13 st14">서비스를</tspan><tspan x="64" y="0" class="st16 st17 st14"> </tspan><tspan x="68.4" y="0" class="st16 st13 st14">공개할</tspan><tspan x="116.4" y="0" class="st16 st17 st14"> </tspan><tspan x="120.9" y="0" class="st16 st13 st14">때</tspan><tspan x="136.9" y="0" class="st16 st17 st14"> </tspan><tspan x="141.3" y="0" class="st16 st13 st14">서비스</tspan><tspan x="189.3" y="0" class="st16 st17 st14"> </tspan><tspan x="0" y="20" class="st16 st13 st14">개발자가</tspan><tspan x="64" y="20" class="st16 st17 st14"> </tspan><tspan x="68.4" y="20" class="st16 st13 st14">제공</tspan></text>
<rect x="409" y="127.1" class="st11" width="250.5" height="59.6"/>
<text transform="matrix(1 0 0 1 409 138.8488)"><tspan x="0" y="0" class="st16 st13 st14">서비스가</tspan><tspan x="64" y="0" class="st16 st17 st14"> </tspan><tspan x="68.4" y="0" class="st16 st13 st14">에지</tspan><tspan x="100.4" y="0" class="st16 st17 st14"> </tspan><tspan x="104.9" y="0" class="st16 st13 st14">노드에서</tspan><tspan x="168.9" y="0" class="st16 st17 st14"> </tspan><tspan x="173.3" y="0" class="st16 st13 st14">제대로</tspan><tspan x="221.3" y="0" class="st16 st17 st14"> </tspan><tspan x="0" y="20" class="st16 st13 st14">실행되기</tspan><tspan x="64" y="20" class="st16 st17 st14"> </tspan><tspan x="68.4" y="20" class="st16 st13 st14">위해</tspan><tspan x="100.4" y="20" class="st16 st17 st14"> </tspan><tspan x="104.9" y="20" class="st16 st13 st14">필요한</tspan><tspan x="152.9" y="20" class="st16 st17 st14"> </tspan><tspan x="157.3" y="20" class="st16 st13 st14">사항과</tspan><tspan x="205.3" y="20" class="st16 st17 st14"> </tspan><tspan x="209.8" y="20" class="st16 st13 st14">의도</tspan><tspan x="241.8" y="20" class="st16 st17 st14"> </tspan><tspan x="0" y="40" class="st16 st13 st14">정의</tspan></text>
<rect x="669" y="13.1" class="st11" width="237.4" height="19.1"/>
<text transform="matrix(1 0 0 1 669.0275 24.8615)"><tspan x="0" y="0" class="st18 st13 st14">배치</tspan><tspan x="32" y="0" class="st18 st15 st14"> </tspan><tspan x="36.4" y="0" class="st18 st13 st14">정책</tspan></text>
<rect x="669" y="50.2" class="st11" width="250.5" height="59.6"/>
<text transform="matrix(1 0 0 1 669.0275 61.8772)"><tspan x="0" y="0" class="st16 st13 st14">서비스를</tspan><tspan x="64" y="0" class="st16 st17 st14"> </tspan><tspan x="68.4" y="0" class="st16 st13 st14">배치할</tspan><tspan x="116.4" y="0" class="st16 st17 st14"> </tspan><tspan x="120.9" y="0" class="st16 st13 st14">때</tspan><tspan x="136.9" y="0" class="st16 st17 st14"> </tspan><tspan x="141.3" y="0" class="st16 st13 st14">정책</tspan><tspan x="173.3" y="0" class="st16 st17 st14"> </tspan><tspan x="177.8" y="0" class="st16 st13 st14">관리자가</tspan><tspan x="241.8" y="0" class="st16 st17 st14"> </tspan><tspan x="0" y="20" class="st16 st13 st14">제공</tspan></text>
<rect x="669" y="127.1" class="st11" width="250.5" height="59.6"/>
<text transform="matrix(1 0 0 1 669.0275 138.8488)"><tspan x="0" y="0" class="st16 st13 st14">서비스를</tspan><tspan x="64" y="0" class="st16 st17 st14"> </tspan><tspan x="68.4" y="0" class="st16 st13 st14">실행해야</tspan><tspan x="132.4" y="0" class="st16 st17 st14"> </tspan><tspan x="136.9" y="0" class="st16 st13 st14">하는</tspan><tspan x="168.9" y="0" class="st16 st17 st14"> </tspan><tspan x="173.3" y="0" class="st16 st13 st14">위치</tspan></text>
<rect x="929" y="13.1" class="st11" width="237.4" height="19.1"/>
<text transform="matrix(1 0 0 1 929 24.8615)"><tspan x="0" y="0" class="st18 st13 st14">모델</tspan><tspan x="32" y="0" class="st18 st15 st14"> </tspan><tspan x="36.4" y="0" class="st18 st13 st14">정책</tspan></text>
<rect x="929" y="50.2" class="st11" width="239.4" height="59.6"/>
<text transform="matrix(1 0 0 1 929 61.8767)"><tspan x="0" y="0" class="st16 st13 st14">모델을</tspan><tspan x="48" y="0" class="st16 st17 st14"> </tspan><tspan x="52.4" y="0" class="st16 st13 st14">작성할</tspan><tspan x="100.4" y="0" class="st16 st17 st14"> </tspan><tspan x="104.9" y="0" class="st16 st13 st14">때</tspan><tspan x="120.9" y="0" class="st16 st17 st14"> </tspan><tspan x="125.3" y="0" class="st16 st13 st14">모델</tspan><tspan x="157.3" y="0" class="st16 st17 st14"> </tspan><tspan x="161.8" y="0" class="st16 st13 st14">작성자</tspan><tspan x="209.8" y="0" class="st16 st17 st14"> </tspan><tspan x="0" y="20" class="st16 st13 st14">또는</tspan><tspan x="32" y="20" class="st16 st17 st14"> </tspan><tspan x="36.4" y="20" class="st16 st13 st14">데이터</tspan><tspan x="84.4" y="20" class="st16 st17 st14"> </tspan><tspan x="88.9" y="20" class="st16 st13 st14">과학자가</tspan><tspan x="152.9" y="20" class="st16 st17 st14"> </tspan><tspan x="157.3" y="20" class="st16 st13 st14">제공</tspan></text>
<rect x="929" y="127.1" class="st11" width="250.5" height="59.6"/>
<text transform="matrix(1 0 0 1 929 138.8488)"><tspan x="0" y="0" class="st16 st13 st14">이</tspan><tspan x="16" y="0" class="st16 st17 st14"> </tspan><tspan x="20.4" y="0" class="st16 st13 st14">모델이</tspan><tspan x="68.4" y="0" class="st16 st17 st14"> </tspan><tspan x="72.9" y="0" class="st16 st13 st14">배치되는</tspan><tspan x="136.9" y="0" class="st16 st17 st14"> </tspan><tspan x="141.3" y="0" class="st16 st13 st14">에지</tspan><tspan x="173.3" y="0" class="st16 st17 st14"> </tspan><tspan x="177.8" y="0" class="st16 st13 st14">노드를</tspan><tspan x="225.8" y="0" class="st16 st17 st14"> </tspan><tspan x="0" y="20" class="st16 st13 st14">추가로</tspan><tspan x="48" y="20" class="st16 st17 st14"> </tspan><tspan x="52.4" y="20" class="st16 st13 st14">제한</tspan></text>
<rect x="557.9" y="472.6" class="st11" width="100.1" height="17.6"/>
<text transform="matrix(1 0 0 1 568.264 482.6526)" class="st16 st17 st19">camera-type</text>
<rect x="662" y="472.6" class="st11" width="85" height="17.6"/>
<text transform="matrix(1 0 0 1 671.8197 482.6526)" class="st16 st17 st19">is equal to</text>
<rect x="751" y="472.6" class="st11" width="39.4" height="17.6"/>
<text transform="matrix(1 0 0 1 760.2587 482.6526)" class="st16 st17 st19">still</text>
<rect x="557.9" y="544.8" class="st11" width="100.1" height="17.6"/>
<text transform="matrix(1 0 0 1 568.264 554.8443)" class="st16 st17 st19">camera-type</text>
<rect x="572.7" y="508.7" class="st11" width="36.5" height="13.9"/>
<text transform="matrix(1 0 0 1 576.89 518.9266)" class="st16 st13 st19">또는</text>
<rect x="662" y="544.8" class="st11" width="85" height="17.6"/>
<text transform="matrix(1 0 0 1 671.8197 554.8443)" class="st16 st17 st19">is equal to</text>
<rect x="751" y="544.8" class="st11" width="62" height="17.6"/>
<text transform="matrix(1 0 0 1 760.6049 554.8443)" class="st16 st17 st19">motion</text>
<rect x="6" y="49.1" class="st11" width="129.5" height="19.1"/>
<text transform="matrix(1 0 0 1 6 60.8421)" class="st18 st13 st14">역할</text>
</svg>
