<?xml version="1.0" encoding="UTF-8" standalone="no"?>
<!-- Generator: Adobe Illustrator 24.2.3, SVG Export Plug-In . SVG Version: 6.00 Build 0)  -->

<svg
   xmlns:dc="http://purl.org/dc/elements/1.1/"
   xmlns:cc="http://creativecommons.org/ns#"
   xmlns:rdf="http://www.w3.org/1999/02/22-rdf-syntax-ns#"
   xmlns:svg="http://www.w3.org/2000/svg"
   xmlns="http://www.w3.org/2000/svg"
   xmlns:sodipodi="http://sodipodi.sourceforge.net/DTD/sodipodi-0.dtd"
   xmlns:inkscape="http://www.inkscape.org/namespaces/inkscape"
   version="1.1"
   x="0px"
   y="0px"
   viewBox="0 0 1085.9 613"
   style="enable-background:new 0 0 1085.9 613;"
   xml:space="preserve"
   id="svg2"
   inkscape:version="0.91 r13725"
   sodipodi:docname="06_IEAM_management_hub_install.svg"><metadata
     id="metadata283"><rdf:RDF><cc:Work
         rdf:about=""><dc:format>image/svg+xml</dc:format><dc:type
           rdf:resource="http://purl.org/dc/dcmitype/StillImage" /></cc:Work></rdf:RDF></metadata><defs
     id="defs281" /><sodipodi:namedview
     pagecolor="#ffffff"
     bordercolor="#666666"
     borderopacity="1"
     objecttolerance="10"
     gridtolerance="10"
     guidetolerance="10"
     inkscape:pageopacity="0"
     inkscape:pageshadow="2"
     inkscape:window-width="1920"
     inkscape:window-height="1015"
     id="namedview279"
     showgrid="false"
     inkscape:zoom="0.85725785"
     inkscape:cx="738.4856"
     inkscape:cy="353.16041"
     inkscape:window-x="-8"
     inkscape:window-y="-8"
     inkscape:window-maximized="1"
     inkscape:current-layer="svg2" /><style
     type="text/css"
     id="style4">
	.st0{fill-rule:evenodd;clip-rule:evenodd;fill:#051B75;}
	.st1{fill:#BEBEBE;}
	.st2{fill-rule:evenodd;clip-rule:evenodd;fill:#E3F6FF;}
	.st3{fill-rule:evenodd;clip-rule:evenodd;fill:#0F62FE;}
	.st4{fill-rule:evenodd;clip-rule:evenodd;fill:#054ADA;}
	.st5{fill-rule:evenodd;clip-rule:evenodd;fill:#8A3FFC;}
	.st6{fill:none;stroke:#BEBEBE;stroke-width:2;}
	.st7{display:none;fill:#BEBEBE;}
	.st8{fill-rule:evenodd;clip-rule:evenodd;fill:none;}
	.st9{fill:#F4F4F4;}
	.st10{font-family:'IBMPlexSans-Medium';}
	.st11{font-size:16px;}
	.st12{fill-rule:evenodd;clip-rule:evenodd;fill:#408BFC;}
	.st13{fill:#161616;}
	.st14{font-family:'IBMPlexSans';}
	.st15{font-size:14px;}
	.st16{fill-rule:evenodd;clip-rule:evenodd;fill:#FFFFFF;}
	.st17{fill-rule:evenodd;clip-rule:evenodd;fill:#92EEEE;}
	.st18{fill:none;stroke:#BEBEBE;stroke-width:2;stroke-miterlimit:10;}
	.st19{fill:none;stroke:#BEBEBE;stroke-width:2.2099;stroke-miterlimit:10;}
</style><rect
     style="clip-rule:evenodd;fill:#051b75;fill-rule:evenodd"
     height="284"
     width="496.39999"
     class="st0"
     y="211"
     x="352"
     id="Rectangle-Copy-51" /><path
     style="fill:#bebebe"
     inkscape:connector-curvature="0"
     d="m 409.2,367 6.8,14.1 -6,-0.1 -0.2,15 6,0.1 -7.2,13.9 -6.8,-14.1 6,0.1 0.2,-15 -6,-0.1 7.2,-13.9 z"
     class="st1"
     id="Line-11-Copy-3" /><path
     style="fill:#bebebe"
     inkscape:connector-curvature="0"
     d="m 505,367 6.8,14.1 -6,-0.1 -0.2,15 6,0.1 -7.2,13.9 -6.8,-14.1 6,0.1 0.2,-15 -6,-0.1 7.2,-13.9 z"
     class="st1"
     id="Line-11-Copy-4" /><path
     style="fill:#bebebe"
     inkscape:connector-curvature="0"
     d="m 791.7,367 6.8,14.1 -6,-0.1 -0.2,15 6,0.1 -7.2,13.9 -6.8,-14.1 6,0.1 0.2,-15 -6,-0.1 7.2,-13.9 z"
     class="st1"
     id="Line-11-Copy-5" /><circle
     style="clip-rule:evenodd;fill:#e3f6ff;fill-rule:evenodd"
     r="24"
     cy="24"
     cx="60.599998"
     class="st2"
     id="Oval-Copy-3" /><path
     style="clip-rule:evenodd;fill:#0f62fe;fill-rule:evenodd"
     inkscape:connector-curvature="0"
     d="m 55.6,27 c 2.8,0 5,2.2 5,5 l 0,6 -2,0 0,-6 c 0,-1.7 -1.3,-3 -3,-3 l -4,0 c -1.7,0 -3,1.3 -3,3 l 0,6 -2,0 0,-6 c 0,-2.8 2.2,-5 5,-5 l 4,0 z m -2,-12 c 2.8,0 5,2.2 5,5 0,2.8 -2.2,5 -5,5 -2.8,0 -5,-2.2 -5,-5 0,-2.8 2.2,-5 5,-5 z m 15,-2.1 c 2.1,0 3.9,1.4 4.5,3.4 l 0.1,0.2 0,0.1 0,0 c 1.3,0.5 2.2,1.7 2.3,3.1 l 0,0.2 0,0.2 c 0,2.1 -1.6,3.7 -3.7,3.9 l -0.2,0 -6.3,0 c -2.1,0 -3.9,-1.7 -3.9,-3.9 0,-1.5 0.9,-2.8 2.2,-3.5 l 0.2,-0.1 0,-0.1 c 0.5,-1.9 2.1,-3.4 4.1,-3.6 l 0.2,0 0.5,0.1 z m -15,4.1 c -1.7,0 -3,1.3 -3,3 0,1.7 1.3,3 3,3 1.7,0 3,-1.3 3,-3 0,-1.7 -1.4,-3 -3,-3 z m 15,-2.1 c -1.4,0 -2.5,1 -2.7,2.4 l 0,0.2 0,0.8 -0.8,0.2 c -0.9,0.2 -1.5,0.9 -1.5,1.8 0,1 0.8,1.8 1.7,1.9 l 0.1,0 6.3,0 c 1,0 1.9,-0.8 1.9,-1.9 0,-0.8 -0.6,-1.6 -1.3,-1.8 l -0.1,0 -0.8,-0.2 0,-0.8 C 71.2,16 70,14.9 68.6,14.9 Z"
     class="st3"
     id="Shape" /><rect
     style="clip-rule:evenodd;fill:#054ada;fill-rule:evenodd"
     height="284"
     width="184.7"
     class="st4"
     y="211"
     x="123.7"
     id="Rectangle-Copy-48" /><rect
     style="clip-rule:evenodd;fill:#8a3ffc;fill-rule:evenodd"
     height="100"
     width="724.70001"
     class="st5"
     y="513"
     x="123.7"
     id="Rectangle-Copy-49" /><polyline
     style="fill:none;stroke:#bebebe;stroke-width:2"
     points="550.5,95 550.5,171 380.1,171  "
     class="st6"
     id="Path-6-Copy-9_4_" /><path
     style="display:none;fill:#bebebe"
     inkscape:connector-curvature="0"
     d="m 669.8,95 0,99 149,0 0,304.5 -266.5,0 0,-19.5 -6,0 7,-14 7,14 -6,0 0,17.5 262.5,0 0,-300.5 -149,0 0,-101 2,0 z"
     class="st7"
     id="Path-6-Copy-8" /><path
     style="fill:#bebebe"
     inkscape:connector-curvature="0"
     d="m 1500.8,507.9 -7,14 -7,-14 14,0 z m -6,-6.9 0,4 -2,0 0,-4 2,0 z m 0,-8 0,4 -2,0 0,-4 2,0 z m 0,-8 0,4 -2,0 0,-4 2,0 z m 0,-8 0,4 -2,0 0,-4 2,0 z m 0,-8 0,4 -2,0 0,-4 2,0 z m 0,-8 0,4 -2,0 0,-4 2,0 z m 0,-8 0,4 -2,0 0,-4 2,0 z m 0,-8 0,4 -2,0 0,-4 2,0 z m 0,-8 0,4 -2,0 0,-4 2,0 z m 0,-8 0,4 -2,0 0,-4 2,0 z m 0,-8 0,4 -2,0 0,-4 2,0 z m 0,-8 0,4 -2,0 0,-4 2,0 z m 0,-8 0,4 -2,0 0,-4 2,0 z m 0,-8 0,4 -2,0 0,-4 2,0 z m 0,-8 0,4 -2,0 0,-4 2,0 z m 0,-8 0,4 -2,0 0,-4 2,0 z m 0,-8 0,4 -2,0 0,-4 2,0 z m 0,-8 0,4 -2,0 0,-4 2,0 z m 0,-8 0,4 -2,0 0,-4 2,0 z m 0,-8 0,4 -2,0 0,-4 2,0 z m 0,-8 0,4 -2,0 0,-4 2,0 z"
     class="st1"
     id="Path-6-Copy-5" /><rect
     style="clip-rule:evenodd;fill:none;fill-rule:evenodd"
     id="rect18"
     height="15.6"
     width="184"
     class="st8"
     y="231.10001"
     x="365.10001" /><text
     style="font-size:16px;font-family:Arial;fill:#f4f4f4;-inkscape-font-specification:Arial;font-weight:normal;font-style:normal;font-stretch:normal;font-variant:normal;"
     id="text20"
     class="st9 st10 st11"
     x="365.10831"
     y="242.98849">IEAM <tspan
   style="-inkscape-font-specification:Gulim;font-family:Gulim;font-weight:normal;font-style:normal;font-stretch:normal;font-variant:normal"
   id="tspan4610">관리 허브</tspan></text>
<rect
     style="clip-rule:evenodd;fill:none;fill-rule:evenodd"
     id="rect22"
     height="15.6"
     width="319.60001"
     class="st8"
     y="533.20001"
     x="139.7" /><text
     style="font-size:16px;font-family:Arial;fill:#f4f4f4;-inkscape-font-specification:Arial;font-weight:normal;font-style:normal;font-stretch:normal;font-variant:normal;"
     id="text24"
     class="st9 st10 st11"
     x="139.7278"
     y="544.99182">Red Hat® OpenShift® Container Platform</text>
<rect
     style="clip-rule:evenodd;fill:#408bfc;fill-rule:evenodd"
     height="100"
     width="117"
     class="st12"
     y="513"
     x="868.79999"
     id="Rectangle-Copy-14" /><rect
     style="clip-rule:evenodd;fill:none;fill-rule:evenodd"
     id="rect27"
     height="15.6"
     width="94.599998"
     class="st8"
     y="533.20001"
     x="884.79999" /><text
     style="font-size:16px;font-family:Arial;fill:#f4f4f4;-inkscape-font-specification:Arial;font-weight:normal;font-style:normal;font-stretch:normal;font-variant:normal;"
     id="text29"
     class="st9 st10 st11"
     x="884.82703"
     y="544.99182"><tspan
       style="-inkscape-font-specification:Gulim;font-family:Gulim;font-weight:normal;font-style:normal;font-stretch:normal;font-variant:normal"
       id="tspan4620">에지 노드</tspan></text>
<rect
     style="clip-rule:evenodd;fill:none;fill-rule:evenodd"
     id="rect31"
     height="57"
     width="148"
     class="st8"
     y="231.10001"
     x="139.7" /><text
     id="text33"
     x="139.7274"
     y="242.98849"
     style="-inkscape-font-specification:Arial;font-family:Arial;font-weight:normal;font-style:normal;font-stretch:normal;font-variant:normal;"><tspan
       style="font-size:16px;font-family:Arial;fill:#f4f4f4;-inkscape-font-specification:Arial;font-weight:normal;font-style:normal;font-stretch:normal;font-variant:normal;"
       id="tspan35"
       class="st9 st10 st11"
       y="242.98849"
       x="139.7274">IBM Cloud Platform </tspan><tspan
       style="font-size:16px;font-family:Arial;fill:#f4f4f4;-inkscape-font-specification:Arial;font-weight:normal;font-style:normal;font-stretch:normal;font-variant:normal;"
       id="tspan37"
       class="st9 st10 st11"
       y="264.98849"
       x="139.7274">Common Services</tspan></text>
<rect
     style="clip-rule:evenodd;fill:none;fill-rule:evenodd"
     id="rect39"
     height="17.9"
     width="99.900002"
     class="st8"
     y="51.599998"
     x="10" /><text
     style="font-style:normal;font-variant:normal;font-weight:normal;font-stretch:normal;font-size:14px;font-family:Arial;-inkscape-font-specification:Arial;fill:#161616"
     id="text41"
     class="st13 st14 st15"
     x="3.4691"
     y="61.969101"><tspan
       id="tspan4411"
       style="font-style:normal;font-variant:normal;font-weight:normal;font-stretch:normal;font-family:Gulim;-inkscape-font-specification:Gulim">클라우드 설치 프로그램</tspan></text>
<rect
     style="clip-rule:evenodd;fill:none;fill-rule:evenodd"
     id="rect43"
     height="56"
     width="99.900002"
     class="st8"
     y="98.599998"
     x="67.599998" /><text
     style="font-size:14px;font-family:Arial;fill:#161616;-inkscape-font-specification:Arial;font-weight:normal;font-style:normal;font-stretch:normal;font-variant:normal;"
     id="text45"
     class="st13 st14 st15"
     x="67.586998"
     y="108.967">1. OCP <tspan
   style="-inkscape-font-specification:Gulim;font-family:Gulim;font-weight:normal;font-style:normal;font-stretch:normal;font-variant:normal"
   id="tspan4566">설정</tspan></text>
<rect
     style="clip-rule:evenodd;fill:none;fill-rule:evenodd"
     id="rect47"
     height="56"
     width="149.10001"
     class="st8"
     y="98.599998"
     x="195.60001" /><text
     id="text49"
     x="195.5871"
     y="108.967"
     style="font-style:normal;font-variant:normal;font-weight:normal;font-stretch:normal;font-size:14px;line-height:125%;font-family:Arial;-inkscape-font-specification:'Arial, Normal';text-align:start;writing-mode:lr-tb;text-anchor:start"
     sodipodi:linespacing="125%"><tspan
       sodipodi:role="line"
       id="tspan4568"
       x="195.5871"
       y="108.967">2. IBM Cloud </tspan><tspan
       sodipodi:role="line"
       id="tspan4570"
       x="195.5871"
       y="126.467">Platform Common </tspan><tspan
       sodipodi:role="line"
       id="tspan4572"
       x="195.5871"
       y="143.96701">Services <tspan
   style="font-style:normal;font-variant:normal;font-weight:normal;font-stretch:normal;font-family:Gulim;-inkscape-font-specification:Gulim"
   id="tspan4574">설치</tspan></tspan></text>
<rect
     style="clip-rule:evenodd;fill:none;fill-rule:evenodd"
     id="rect57"
     height="56"
     width="149.10001"
     class="st8"
     y="98.599998"
     x="385.60001" /><text
     id="text59"
     x="385.5871"
     y="108.967"
     style="font-style:normal;font-variant:normal;font-weight:normal;font-stretch:normal;font-size:14px;line-height:125%;font-family:Arial;-inkscape-font-specification:'Arial, Normal';text-align:start;writing-mode:lr-tb;text-anchor:start"
     sodipodi:linespacing="125%"><tspan
       sodipodi:role="line"
       id="tspan4576"
       style="font-style:normal;font-variant:normal;font-weight:normal;font-stretch:normal;font-family:Gulim;-inkscape-font-specification:Gulim"
       x="385.5871"
       y="108.967"><tspan
   style="-inkscape-font-specification:Arial;font-family:Arial;font-weight:normal;font-style:normal;font-stretch:normal;font-variant:normal"
   id="tspan4580">3.</tspan> 관리 허브에 </tspan><tspan
       sodipodi:role="line"
       id="tspan4578"
       style="font-style:normal;font-variant:normal;font-weight:normal;font-stretch:normal;font-family:Gulim;-inkscape-font-specification:Gulim"
       x="385.5871"
       y="126.467">컴포넌트 설치</tspan></text>
<rect
     style="clip-rule:evenodd;fill:none;fill-rule:evenodd"
     id="rect67"
     height="56"
     width="172"
     class="st8"
     y="98.599998"
     x="562.59998" /><text
     id="text69"
     x="562.5871"
     y="108.9675"
     style="font-style:normal;font-variant:normal;font-weight:normal;font-stretch:normal;font-size:14px;line-height:125%;font-family:Arial;-inkscape-font-specification:'Arial, Normal';text-align:start;writing-mode:lr-tb;text-anchor:start"
     sodipodi:linespacing="125%"><tspan
       sodipodi:role="line"
       id="tspan4582"
       x="562.5871"
       y="108.9675">4. IAM(Identity and </tspan><tspan
       sodipodi:role="line"
       id="tspan4584"
       x="562.5871"
       y="126.4675">Access Manager)<tspan
   style="font-style:normal;font-variant:normal;font-weight:normal;font-stretch:normal;font-family:Gulim;-inkscape-font-specification:Gulim"
   id="tspan4588">에 대한 </tspan></tspan><tspan
       sodipodi:role="line"
       id="tspan4586"
       style="font-style:normal;font-variant:normal;font-weight:normal;font-stretch:normal;font-family:Gulim;-inkscape-font-specification:Gulim"
       x="562.5871"
       y="145.03482">인증 설정</tspan></text>
<rect
     style="clip-rule:evenodd;fill:none;fill-rule:evenodd"
     id="rect77"
     height="56"
     width="135.2"
     class="st8"
     y="98.599998"
     x="755.59998" /><text
     id="text79"
     x="755.58722"
     y="108.9675"
     style="font-style:normal;font-variant:normal;font-weight:normal;font-stretch:normal;font-size:14px;line-height:125%;font-family:Arial;-inkscape-font-specification:'Arial, Normal';text-align:start;writing-mode:lr-tb;text-anchor:start"
     sodipodi:linespacing="125%"><tspan
       sodipodi:role="line"
       id="tspan4590"
       x="755.58722"
       y="108.9675">5. <tspan
   style="font-style:normal;font-variant:normal;font-weight:normal;font-stretch:normal;font-family:Gulim;-inkscape-font-specification:Gulim"
   id="tspan4596">공개</tspan> Horizon </tspan><tspan
       sodipodi:role="line"
       id="tspan4592"
       x="755.58722"
       y="128.23152"><tspan
   style="font-style:normal;font-variant:normal;font-weight:normal;font-stretch:normal;font-family:Gulim;-inkscape-font-specification:Gulim"
   id="tspan4598">예제로</tspan> Exchange </tspan><tspan
       sodipodi:role="line"
       id="tspan4594"
       style="font-style:normal;font-variant:normal;font-weight:normal;font-stretch:normal;font-family:Gulim;-inkscape-font-specification:Gulim"
       x="755.58722"
       y="146.79884">채우기</tspan></text>
<rect
     style="clip-rule:evenodd;fill:none;fill-rule:evenodd"
     id="rect87"
     height="38.400002"
     width="130.3"
     class="st8"
     y="98.599998"
     x="939.40002" /><text
     id="text89"
     x="939.36328"
     y="108.9675"
     style="font-style:normal;font-variant:normal;font-weight:normal;font-stretch:normal;font-size:14px;line-height:125%;font-family:Arial;-inkscape-font-specification:'Arial, Normal';text-align:start;writing-mode:lr-tb;text-anchor:start"
     sodipodi:linespacing="125%"><tspan
       sodipodi:role="line"
       id="tspan4602"
       style="font-style:normal;font-variant:normal;font-weight:normal;font-stretch:normal;font-family:Gulim;-inkscape-font-specification:Gulim"
       x="939.36328"
       y="108.9675"><tspan
   id="tspan4650"
   style="font-family:Arial;-inkscape-font-specification:'Arial, Normal'">6. </tspan>에이전트 설치 </tspan><tspan
       sodipodi:role="line"
       id="tspan4604"
       x="939.36328"
       y="128.23152"><tspan
   id="tspan4655"
   style="font-style:normal;font-variant:normal;font-weight:normal;font-stretch:normal;font-family:Gulim;-inkscape-font-specification:Gulim">파일을 </tspan>MMS<tspan
   style="font-style:normal;font-variant:normal;font-weight:normal;font-stretch:normal;font-family:Gulim;-inkscape-font-specification:Gulim"
   id="tspan4608">에 공개</tspan></tspan></text>
<rect
     style="clip-rule:evenodd;fill:none;fill-rule:evenodd"
     id="rect95"
     height="56.400002"
     width="80.800003"
     class="st8"
     y="392.79999"
     x="939.79999" /><line
     style="fill:none;stroke:#bebebe;stroke-width:2"
     y2="254.39999"
     x2="1352.8"
     y1="102.9"
     x1="1352.8"
     class="st6"
     id="Path-6-Copy-4_3_" /><path
     style="fill:#bebebe"
     inkscape:connector-curvature="0"
     d="m 1360.3,507.9 -7,14 -7,-14 14,0 z m -6,-6.9 0,4 -2,0 0,-4 2,0 z m 0,-8 0,4 -2,0 0,-4 2,0 z m 0,-8 0,4 -2,0 0,-4 2,0 z m 0,-8 0,4 -2,0 0,-4 2,0 z m 0,-8 0,4 -2,0 0,-4 2,0 z m 0,-8 0,4 -2,0 0,-4 2,0 z m 0,-8 0,4 -2,0 0,-4 2,0 z m 0,-8 0,4 -2,0 0,-4 2,0 z m 0,-8 0,4 -2,0 0,-4 2,0 z m 0,-8 0,4 -2,0 0,-4 2,0 z m 0,-8 0,4 -2,0 0,-4 2,0 z m 0,-8 0,4 -2,0 0,-4 2,0 z m 0,-8 0,4 -2,0 0,-4 2,0 z m 0,-8 0,4 -2,0 0,-4 2,0 z m 0,-8 0,4 -2,0 0,-4 2,0 z m 0,-8 0,4 -2,0 0,-4 2,0 z m 0,-8 0,4 -2,0 0,-4 2,0 z m 0,-8 0,4 -2,0 0,-4 2,0 z m 0,-8 0,4 -2,0 0,-4 2,0 z m 0,-8 0,4 -2,0 0,-4 2,0 z m 0,-8 0,4 -2,0 0,-4 2,0 z"
     class="st1"
     id="Path-6-Copy-5_2_" /><circle
     style="clip-rule:evenodd;fill:#e3f6ff;fill-rule:evenodd"
     r="24"
     cy="285.89999"
     cx="1353.3"
     class="st2"
     id="Oval-Copy-3_10_" /><path
     style="clip-rule:evenodd;fill:#0f62fe;fill-rule:evenodd"
     inkscape:connector-curvature="0"
     d="m 1348.3,288.9 c 2.8,0 5,2.2 5,5 l 0,6 -2,0 0,-6 c 0,-1.7 -1.3,-3 -3,-3 l -4,0 c -1.7,0 -3,1.3 -3,3 l 0,6 -2,0 0,-6 c 0,-2.8 2.2,-5 5,-5 l 4,0 z m -2,-12 c 2.8,0 5,2.2 5,5 0,2.8 -2.2,5 -5,5 -2.8,0 -5,-2.2 -5,-5 0,-2.7 2.3,-5 5,-5 z m 13,8 0,2 -2,0 0,-2 2,0 z m 5,0 0,2 -2,0 0,-2 2,0 z m -18,-6 c -1.7,0 -3,1.3 -3,3 0,1.7 1.3,3 3,3 1.7,0 3,-1.3 3,-3 0,-1.6 -1.3,-3 -3,-3 z m 21,3 0,2 -2,0 0,-2 2,0 z m -11,0 0,2 -2,0 0,-2 2,0 z m 8,-5 0,7 -7,0 0,-7 7,0 z m -2,2 -3,0 0,3 3,0 0,-3 z m 5,-2 0,2 -2,0 0,-2 2,0 z m -11,0 0,2 -2,0 0,-2 2,0 z m 3,-3 0,2 -2,0 0,-2 2,0 z m 5,0 0,2 -2,0 0,-2 2,0 z"
     class="st3"
     id="Shape_4_" /><g
     id="g109"
     style=""><circle
       style="clip-rule:evenodd;fill:#ffffff;fill-rule:evenodd"
       r="20"
       cy="209.5"
       cx="1352.8"
       class="st16"
       id="Oval-Copy-3_9_" /><path
       style="clip-rule:evenodd;fill:#408bfc;fill-rule:evenodd"
       inkscape:connector-curvature="0"
       d="m 1350.8,209.5 4,0 0,-5 -4,0 0,5 z m 4,-7 -4,0 c -1.1,0 -2,0.9 -2,2 l 0,12 2,0 0,-5 4,0 0,5 2,0 0,-12 c 0,-1.1 -0.9,-2 -2,-2 l 0,0 z"
       class="st12"
       id="Fill-1_5_" /><path
       style="clip-rule:evenodd;fill:#408bfc;fill-rule:evenodd"
       inkscape:connector-curvature="0"
       d="m 1360.8,208.5 4,0 0,-4 -4,0 0,4 z m 6,0 0,-4 c 0,-1.1 -0.9,-2 -2,-2 l -6,0 0,14 2,0 0,-6 1.5,0 2.3,6 2.1,0 -2.3,-6 0.4,0 c 1.1,0 2,-0.9 2,-2 l 0,0 z"
       class="st12"
       id="Fill-3_5_" /><polygon
       style="clip-rule:evenodd;fill:#408bfc;fill-rule:evenodd"
       points="1341.8,216.5 1343.8,216.5 1343.8,204.5 1346.8,204.5 1346.8,202.5 1338.8,202.5 1338.8,204.5 1341.8,204.5 "
       class="st12"
       id="Fill-4_5_" /></g><circle
     style="clip-rule:evenodd;fill:#ffffff;fill-rule:evenodd"
     r="20"
     cy="388.89999"
     cx="1353.3"
     class="st16"
     id="Oval-Copy-3_8_" /><path
     style="clip-rule:evenodd;fill:#408bfc;fill-rule:evenodd"
     inkscape:connector-curvature="0"
     d="m 1351.3,388.9 4,0 0,-5 -4,0 0,5 z m 4,-7 -4,0 c -1.1,0 -2,0.9 -2,2 l 0,12 2,0 0,-5 4,0 0,5 2,0 0,-12 c 0,-1.1 -0.9,-2 -2,-2 l 0,0 z"
     class="st12"
     id="Fill-1_4_" /><path
     style="clip-rule:evenodd;fill:#408bfc;fill-rule:evenodd"
     inkscape:connector-curvature="0"
     d="m 1361.3,387.9 4,0 0,-4 -4,0 0,4 z m 6,0 0,-4 c 0,-1.1 -0.9,-2 -2,-2 l -6,0 0,14 2,0 0,-6 1.5,0 2.3,6 2.1,0 -2.3,-6 0.4,0 c 1.1,0 2,-0.8 2,-2 l 0,0 z"
     class="st12"
     id="Fill-3_4_" /><polygon
     style="clip-rule:evenodd;fill:#408bfc;fill-rule:evenodd"
     points="1342.3,395.9 1344.3,395.9 1344.3,383.9 1347.3,383.9 1347.3,381.9 1339.3,381.9 1339.3,383.9 1342.3,383.9 "
     class="st12"
     id="Fill-4_4_" /><rect
     style="clip-rule:evenodd;fill:none;fill-rule:evenodd"
     id="rect119"
     height="14.9"
     width="135.2"
     class="st8"
     y="320.39999"
     x="1285.2" /><text
     style="font-size:14px;font-family:Arial;fill:#161616;-inkscape-font-specification:Arial;font-weight:normal;font-style:normal;font-stretch:normal;font-variant:normal;"
     id="text121"
     class="st13 st14 st15"
     x="1314.0431"
     y="330.75562"><tspan
       style="-inkscape-font-specification:Gulim;font-family:Gulim;font-weight:normal;font-style:normal;font-stretch:normal;font-variant:normal"
       id="tspan4622">노드 소유자</tspan></text>
<rect
     style="clip-rule:evenodd;fill:none;fill-rule:evenodd"
     id="rect123"
     height="56.400002"
     width="100.2"
     class="st8"
     y="430.20001"
     x="1365.3" /><text
     id="text125"
     x="1365.3431"
     y="440.60349"
     style="font-style:normal;font-variant:normal;font-weight:normal;font-stretch:normal;font-size:14px;line-height:125%;font-family:Arial;-inkscape-font-specification:'Arial, Normal';text-align:start;writing-mode:lr-tb;text-anchor:start"
     sodipodi:linespacing="125%"><tspan
       sodipodi:role="line"
       id="tspan4632"
       style="font-style:normal;font-variant:normal;font-weight:normal;font-stretch:normal;font-family:Gulim;-inkscape-font-specification:Gulim"
       x="1365.3431"
       y="440.60349">에이전트 설치를 </tspan><tspan
       sodipodi:role="line"
       id="tspan4634"
       style="font-style:normal;font-variant:normal;font-weight:normal;font-stretch:normal;font-family:Gulim;-inkscape-font-specification:Gulim"
       x="1365.3431"
       y="458.8002">위해 나중에 <tspan
   style="font-style:normal;font-variant:normal;font-weight:normal;font-stretch:normal;font-family:Arial;-inkscape-font-specification:Arial"
   id="tspan4638">tar</tspan></tspan><tspan
       sodipodi:role="line"
       id="tspan4636"
       style="font-style:normal;font-variant:normal;font-weight:normal;font-stretch:normal;font-family:Gulim;-inkscape-font-specification:Gulim"
       x="1365.3431"
       y="477.36752">파일이 필요함</tspan></text>
<g
     id="g133"
     style=""><rect
       style="clip-rule:evenodd;fill:#ffffff;fill-rule:evenodd"
       height="81"
       width="80"
       class="st16"
       y="286"
       x="655.90002"
       id="Rectangle-Copy-16" /><rect
       style="clip-rule:evenodd;fill:none;fill-rule:evenodd"
       id="rect136"
       height="14.9"
       width="80"
       class="st8"
       y="319.60001"
       x="655.90002" /><text
       style="font-size:14px;font-family:IBMPlexSans;fill:#161616"
       id="text138"
       class="st13 st14 st15"
       transform="translate(682.0273,329.9869)">SDO</text>
</g><g
     id="g140"
     style=""><rect
       style="clip-rule:evenodd;fill:#ffffff;fill-rule:evenodd"
       height="81"
       width="80"
       class="st16"
       y="286"
       x="751.5"
       id="Rectangle-Copy-16_6_" /><rect
       style="clip-rule:evenodd;fill:none;fill-rule:evenodd"
       id="rect143"
       height="14.9"
       width="80"
       class="st8"
       y="319.60001"
       x="751.5" /><text
       style="font-size:14px;font-family:IBMPlexSans;fill:#161616"
       id="text145"
       class="st13 st14 st15"
       transform="translate(775.883,329.9869)">MMS</text>
</g><g
     id="g147"
     style=""><rect
       style="clip-rule:evenodd;fill:#ffffff;fill-rule:evenodd"
       height="81"
       width="80"
       class="st16"
       y="286"
       x="560.29999"
       id="Rectangle-Copy-16_1_" /><rect
       style="clip-rule:evenodd;fill:none;fill-rule:evenodd"
       id="rect150"
       height="14.9"
       width="80"
       class="st8"
       y="319.60001"
       x="560.29999" /><text
       style="font-size:14px;font-family:IBMPlexSans;fill:#161616"
       id="text152"
       class="st13 st14 st15"
       transform="translate(592.7087,329.9869)">UI</text>
</g><g
     id="g154"
     style=""><rect
       style="clip-rule:evenodd;fill:#ffffff;fill-rule:evenodd"
       height="81"
       width="80"
       class="st16"
       y="286"
       x="464.79999"
       id="Rectangle-Copy-16_2_" /><rect
       style="clip-rule:evenodd;fill:none;fill-rule:evenodd"
       id="rect157"
       height="14.9"
       width="80"
       class="st8"
       y="319.60001"
       x="464.79999" /><text
       style="font-size:14px;font-family:IBMPlexSans;fill:#161616"
       id="text159"
       class="st13 st14 st15"
       transform="translate(473.8431,329.9869)">Exchange</text>
</g><g
     id="g161"
     style=""><rect
       style="clip-rule:evenodd;fill:#ffffff;fill-rule:evenodd"
       height="81"
       width="80"
       class="st16"
       y="286"
       x="369.20001"
       id="Rectangle-Copy-16_3_" /><rect
       style="clip-rule:evenodd;fill:none;fill-rule:evenodd"
       id="rect164"
       height="14.9"
       width="80"
       class="st8"
       y="319.60001"
       x="369.20001" /><text
       style="font-size:14px;font-family:IBMPlexSans;fill:#161616"
       id="text166"
       class="st13 st14 st15"
       transform="translate(390.2636,329.9869)">Agbot</text>
</g><g
     id="g168"
     style=""><rect
       style="clip-rule:evenodd;fill:#ffffff;fill-rule:evenodd"
       height="81"
       width="80"
       class="st16"
       y="397"
       x="139.7"
       id="Rectangle-Copy-16_7_" /><rect
       style="clip-rule:evenodd;fill:none;fill-rule:evenodd"
       id="rect171"
       height="14.9"
       width="80"
       class="st8"
       y="430.70001"
       x="139.60001" /><text
       style="font-size:14px;font-family:IBMPlexSans;fill:#161616"
       id="text173"
       class="st13 st14 st15"
       transform="translate(166.5116,441.0553)">IAM</text>
</g><g
     id="g175"
     style=""><rect
       style="clip-rule:evenodd;fill:#92eeee;fill-rule:evenodd"
       height="68"
       width="80"
       class="st17"
       y="410"
       x="369.20001"
       id="Rectangle-Copy-16_4_" /><rect
       style="clip-rule:evenodd;fill:none;fill-rule:evenodd"
       id="rect178"
       height="39.799999"
       width="80"
       class="st8"
       y="427.70001"
       x="369.20001" /><text
       id="text180"
       transform="translate(381.1071,438.0454)"
       style=""><tspan
         style="font-size:14px;font-family:IBMPlexSans;fill:#161616"
         id="tspan182"
         class="st13 st14 st15"
         y="0"
         x="0">Postgres </tspan><tspan
         style="font-size:14px;font-family:IBMPlexSans;fill:#161616"
         id="tspan184"
         class="st13 st14 st15"
         y="20"
         x="18.700001">DB</tspan></text>
</g><g
     id="g186"
     style=""><rect
       style="clip-rule:evenodd;fill:#92eeee;fill-rule:evenodd"
       height="68"
       width="80"
       class="st17"
       y="410"
       x="464.79999"
       id="Rectangle-Copy-16_5_" /><rect
       style="clip-rule:evenodd;fill:none;fill-rule:evenodd"
       id="rect189"
       height="39.799999"
       width="80"
       class="st8"
       y="427.70001"
       x="464.79999" /><text
       id="text191"
       transform="translate(476.6773,438.0454)"
       style=""><tspan
         style="font-size:14px;font-family:IBMPlexSans;fill:#161616"
         id="tspan193"
         class="st13 st14 st15"
         y="0"
         x="0">Postgres </tspan><tspan
         style="font-size:14px;font-family:IBMPlexSans;fill:#161616"
         id="tspan195"
         class="st13 st14 st15"
         y="20"
         x="18.700001">DB</tspan></text>
</g><g
     id="g197"
     style=""><rect
       style="clip-rule:evenodd;fill:#92eeee;fill-rule:evenodd"
       height="68"
       width="80"
       class="st17"
       y="410"
       x="751.5"
       id="Rectangle-Copy-16_16_" /><rect
       style="clip-rule:evenodd;fill:none;fill-rule:evenodd"
       id="rect200"
       height="39.799999"
       width="80"
       class="st8"
       y="427.70001"
       x="751.5" /><text
       id="text202"
       transform="translate(769.9676,438.0454)"
       style=""><tspan
         style="font-size:14px;font-family:IBMPlexSans;fill:#161616"
         id="tspan204"
         class="st13 st14 st15"
         y="0"
         x="0">Mongo </tspan><tspan
         style="font-size:14px;font-family:IBMPlexSans;fill:#161616"
         id="tspan206"
         class="st13 st14 st15"
         y="20"
         x="12.2">DB</tspan></text>
</g><g
     id="g208"
     style=""><g
       id="g210"
       style=""><polyline
         style="fill:none;stroke:#bebebe;stroke-width:2;stroke-miterlimit:10"
         id="polyline212"
         points="743.6,95 743.6,265 504.8,265 504.8,276    "
         class="st18" /><g
         id="g214"
         style=""><polygon
           style="fill:#bebebe"
           id="polygon216"
           points="511.7,274 497.8,274 504.8,286 "
           class="st1" /></g></g></g><g
     id="g218"
     style=""><g
       id="g220"
       style=""><polyline
         style="fill:none;stroke:#bebebe;stroke-width:2.2098999;stroke-miterlimit:10"
         id="polyline222"
         points="927.3,95 927.3,313 842.6,313    "
         class="st19" /><g
         id="g224"
         style=""><polygon
           style="fill:#bebebe"
           id="polygon226"
           points="844.8,320.8 844.8,305.3 831.5,313 "
           class="st1" /></g></g></g><g
     id="g228"
     style=""><g
       id="g230"
       style=""><polyline
         style="fill:none;stroke:#bebebe;stroke-width:2.2098999;stroke-miterlimit:10"
         id="polyline232"
         points="831.5,339.5 927.3,339.5 927.3,501.9    "
         class="st19" /><g
         id="g234"
         style=""><polygon
           style="fill:#bebebe"
           id="polygon236"
           points="935,499.6 919.6,499.6 927.3,513 "
           class="st1" /></g></g></g><g
     id="g238"
     style=""><g
       id="g240"
       style=""><line
         style="fill:none;stroke:#bebebe;stroke-width:2;stroke-miterlimit:10"
         id="line242"
         y2="201"
         x2="183.39999"
         y1="95"
         x1="183.39999"
         class="st18" /><g
         id="g244"
         style=""><polygon
           style="fill:#bebebe"
           id="polygon246"
           points="190.4,198.9 176.4,198.9 183.4,211 "
           class="st1" /></g></g></g><g
     id="g248"
     style=""><g
       id="g250"
       style=""><polyline
         style="fill:none;stroke:#bebebe;stroke-width:2;stroke-miterlimit:10"
         id="polyline252"
         points="55.5,80.1 55.5,563 113.7,563    "
         class="st18" /><g
         id="g254"
         style=""><polygon
           style="fill:#bebebe"
           id="polygon256"
           points="111.6,556 111.6,570 123.7,563 "
           class="st1" /></g></g></g><g
     id="g258"
     style=""><g
       id="g260"
       style=""><polyline
         style="fill:none;stroke:#bebebe;stroke-width:2;stroke-miterlimit:10"
         id="polyline262"
         points="229.8,434.1 330.2,434.1 330.2,171 365.1,171    "
         class="st18" /><g
         id="g264"
         style=""><polygon
           style="fill:#bebebe"
           id="polygon266"
           points="231.8,427.2 231.8,441.1 219.7,434.1 "
           class="st1" /></g></g></g><g
     id="g268"
     style=""><g
       id="g270"
       style=""><line
         style="fill:none;stroke:#bebebe;stroke-width:2;stroke-miterlimit:10"
         id="line272"
         y2="201"
         x2="373.5"
         y1="95"
         x1="373.5"
         class="st18" /><g
         id="g274"
         style=""><polygon
           style="fill:#bebebe"
           id="polygon276"
           points="380.5,198.9 366.5,198.9 373.5,211 "
           class="st1" /></g></g></g><text
     xml:space="preserve"
     style="font-style:normal;font-variant:normal;font-weight:normal;font-stretch:normal;font-size:7.5px;line-height:125%;font-family:Helvetica;-inkscape-font-specification:'Helvetica, Normal';text-align:center;letter-spacing:0px;word-spacing:0px;writing-mode:lr-tb;text-anchor:middle;fill:#000000;fill-opacity:1;stroke:none;stroke-width:1px;stroke-linecap:butt;stroke-linejoin:miter;stroke-opacity:1"
     x="938.00073"
     y="411.53616"
     id="text4640"
     sodipodi:linespacing="125%"><tspan
       sodipodi:role="line"
       id="tspan4642"
       x="938.00073"
       y="411.53616"
       style="font-style:normal;font-variant:normal;font-weight:normal;font-stretch:normal;font-size:14px;font-family:Gulim;-inkscape-font-specification:Gulim;text-align:start;text-anchor:start">에지 노드가 </tspan><tspan
       sodipodi:role="line"
       x="938.00073"
       y="429.73288"
       id="tspan4644"
       style="font-style:normal;font-variant:normal;font-weight:normal;font-stretch:normal;font-size:14px;font-family:Gulim;-inkscape-font-specification:Gulim;text-align:start;text-anchor:start">파일을 <tspan
   style="font-style:normal;font-variant:normal;font-weight:normal;font-stretch:normal;font-family:Arial;-inkscape-font-specification:Arial"
   id="tspan4648">MMS</tspan>에서 </tspan><tspan
       sodipodi:role="line"
       x="938.00073"
       y="448.3002"
       id="tspan4646"
       style="font-style:normal;font-variant:normal;font-weight:normal;font-stretch:normal;font-size:14px;font-family:Gulim;-inkscape-font-specification:Gulim;text-align:start;text-anchor:start">가져오기</tspan></text>
</svg>
