<?xml version="1.0" encoding="utf-8"?>
<!-- Generator: Adobe Illustrator 23.1.0, SVG Export Plug-In . SVG Version: 6.00 Build 0)  -->
<svg version="1.1" id="Layer_1" xmlns="http://www.w3.org/2000/svg" xmlns:xlink="http://www.w3.org/1999/xlink" x="0px" y="0px"
	 viewBox="0 0 614 469" style="enable-background:new 0 0 614 469;" xml:space="preserve">
<style type="text/css">
	.st0{fill:none;stroke:#00BAB6;stroke-width:2;stroke-dasharray:7;}
	.st1{fill-rule:evenodd;clip-rule:evenodd;fill:#4F2196;}
	.st2{fill-rule:evenodd;clip-rule:evenodd;fill:#FFFFFF;}
	.st3{fill:#BEBEBE;}
	.st4{fill-rule:evenodd;clip-rule:evenodd;fill:#408BFC;}
	.st5{fill-rule:evenodd;clip-rule:evenodd;fill:#E3F6FF;}
	.st6{fill-rule:evenodd;clip-rule:evenodd;fill:#0062FF;}
	.st7{fill-rule:evenodd;clip-rule:evenodd;fill:none;}
	.st8{fill:#161616;}
	.st9{fill:#F4F4F4;}
</style>
<path id="Rectangle" class="st0" d="M41,1h400c22.1,0,40,17.9,40,40v387c0,22.1-17.9,40-40,40H41c-22.1,0-40-17.9-40-40V41
	C1,18.9,18.9,1,41,1z"/>
<rect id="Rectangle-Copy-14" x="25" y="65" class="st1" width="432" height="267"/>
<rect id="Rectangle-Copy-16" x="249" y="131.5" class="st2" width="192" height="56"/>
<rect id="Rectangle-Copy-53" x="41" y="260" class="st2" width="192" height="56"/>
<rect id="Rectangle-Copy-44" x="249" y="259.5" class="st2" width="192" height="56"/>
<path id="Line-11-Copy-7" class="st3" d="M309.8,316l6.9,14l-6,0l-0.3,44l6,0l-7.1,14l-6.9-14l6,0l0.3-44l-6,0L309.8,316z"/>
<path id="Line-11-Copy-8" class="st3" d="M141.8,316l6.9,14l-6,0l-0.3,44l6,0l-7.1,14l-6.9-14l6,0l0.3-44l-6,0L141.8,316z"/>
<path id="Line-11-Copy-6" class="st3" d="M235,153l14,7l-14,7v-6h-92.5l-0.4,85l6,0l-7.1,14l-6.9-14l6,0l0.4-86l0-1H235V153z"/>
<path id="Line-11-Copy-9" class="st3" d="M506,153l14,7l-14,7v-6h-51v6l-14-7l14-7v6h51V153z"/>
<rect id="Rectangle-Copy-14_1_" x="249" y="388" class="st4" width="192" height="56"/>
<rect id="Rectangle-Copy-54" x="41" y="388" class="st4" width="192" height="56"/>
<circle id="Oval" class="st5" cx="560.5" cy="157.5" r="32.5"/>
<path id="Shape" class="st6" d="M569.5,167h-17c-4.1,0-7.5-3.4-7.5-7.5c0-3.6,2.6-6.7,6.1-7.4c0,0,0.1,0,0.1-0.1c1-4.7,5.1-8,9.8-8
	c0.6,0,1.3,0.1,1.9,0.2c4,0.8,7.1,3.9,7.9,7.9c0,0,0,0.1,0.1,0.1c4,0.8,6.7,4.7,6,8.7C576.2,164.4,573.1,167,569.5,167z M552.5,165
	h17c2.7,0,4.9-1.9,5.4-4.5c0.3-1.8-0.2-3.6-1.5-4.9c-0.8-0.8-1.8-1.3-2.8-1.5l-0.3-0.1l-1.1-0.2c0,0-0.1,0-0.1-0.1l0,0l-0.2-1
	c-0.6-3.2-3-5.8-6.1-6.5c-0.9-0.2-1.9-0.3-2.8-0.1c-3.4,0.5-6,3.1-6.8,6.5l-0.1,0.3l-0.2,0.9c0,0,0,0.1-0.1,0.1l0,0l-1,0.2
	c-2.4,0.4-4.4,2.3-4.7,4.7C546.6,162.1,549.2,165,552.5,165z"/>
<g>
	<rect x="508.6" y="197.6" class="st7" width="104.5" height="39.6"/>
	<path class="st8" d="M545.3,202.4c0.1,0.1,0.1,0.1,0.1,0.2c0,0.1,0,0.2-0.1,0.2c-0.1,0.1-0.1,0.1-0.2,0.1h-10.8
		c-0.2,0-0.3-0.1-0.3-0.3c0-0.2,0.2-0.3,0.4-0.3H545C545.1,202.3,545.2,202.3,545.3,202.4z M543,199.8c0.1,0.1,0.1,0.1,0.1,0.2
		c0,0.1,0,0.2,0,0.3c-0.1,0.1-0.2,0.1-0.3,0.2c-0.9,0.1-2,0.2-3.5,0.3c-1.4,0.1-2.7,0.1-4.1,0.1c-0.3,0-0.4-0.1-0.4-0.4
		c0-0.2,0.1-0.3,0.4-0.3c1.4,0,2.7,0,4-0.1c1.5-0.1,2.7-0.2,3.5-0.3C542.8,199.7,542.9,199.7,543,199.8z M543.9,197.8
		c0.2,0.2,0.4,0.5,0.4,0.8v1.4c0,0.5-0.1,1-0.2,1.4c-0.1,0.5-0.3,1-0.6,1.4h-0.8c0.3-0.4,0.5-0.9,0.7-1.4c0.1-0.4,0.1-0.8,0.1-1.4
		v-1.2c0-0.2,0-0.3-0.1-0.4c-0.1-0.1-0.3-0.1-0.5-0.1h-7.5c-0.2,0-0.4-0.1-0.4-0.4c0-0.2,0.1-0.4,0.4-0.4h7.5
		C543.3,197.4,543.7,197.5,543.9,197.8z M543.9,204.4c0.3,0.2,0.4,0.4,0.4,0.7v0.7c0,0.3-0.1,0.5-0.3,0.7c-0.2,0.2-0.4,0.3-0.7,0.3
		h-6.9c-0.2,0-0.3,0-0.4,0.1c-0.1,0.1-0.1,0.2-0.1,0.3v0.3c0,0.1,0,0.2,0.1,0.3c0.1,0.1,0.2,0.1,0.4,0.1h7.7c0.1,0,0.2,0,0.3,0.1
		c0.1,0.1,0.1,0.2,0.1,0.2c0,0.1,0,0.2-0.1,0.2c-0.1,0.1-0.2,0.1-0.3,0.1h-8c-0.3,0-0.6-0.1-0.7-0.3c-0.2-0.2-0.3-0.4-0.3-0.7V207
		c0-0.3,0.1-0.5,0.3-0.7c0.2-0.2,0.4-0.3,0.8-0.3h6.9c0.2,0,0.3,0,0.4-0.1c0.1-0.1,0.1-0.1,0.1-0.3v-0.3c0-0.2,0-0.3-0.1-0.3
		c-0.1-0.1-0.2-0.1-0.4-0.1h-7.5c-0.3,0-0.4-0.1-0.4-0.4c0-0.2,0.2-0.3,0.4-0.3h7.6C543.4,204.2,543.7,204.3,543.9,204.4z"/>
	<path class="st8" d="M553.9,197.9c0.2,0.2,0.4,0.4,0.4,0.8v2.7c0,0.3-0.1,0.6-0.3,0.8c-0.2,0.2-0.5,0.3-1,0.3h-2.9
		c-0.2,0-0.4,0.1-0.5,0.2c-0.1,0.1-0.1,0.3-0.1,0.5v3.1c0,0.3,0.1,0.4,0.2,0.5c0.1,0.1,0.3,0.2,0.6,0.2c1,0,2.1-0.1,3-0.3
		c0.9-0.2,1.8-0.4,2.4-0.7c0.2-0.1,0.4-0.1,0.5,0.2c0.1,0.2,0,0.4-0.2,0.5c-0.8,0.3-1.7,0.6-2.8,0.8c-1,0.2-2.1,0.2-3.1,0.2
		c-0.5,0-0.8-0.1-1-0.4c-0.2-0.2-0.3-0.6-0.3-1V203c0-0.4,0.1-0.7,0.3-0.9c0.2-0.2,0.5-0.4,0.9-0.4h2.9c0.2,0,0.4,0,0.5-0.1
		c0.1-0.1,0.1-0.2,0.1-0.4v-2.3c0-0.2-0.1-0.3-0.2-0.4c-0.1-0.1-0.3-0.1-0.6-0.1h-3.7c-0.3,0-0.4-0.1-0.4-0.3c0-0.2,0.1-0.3,0.4-0.3
		h3.9C553.4,197.6,553.7,197.7,553.9,197.9z M559.3,202.6c0.2,0,0.3,0.1,0.3,0.3c0,0.2-0.1,0.3-0.3,0.3h-1.5v5c0,0.1,0,0.2-0.1,0.3
		c-0.1,0.1-0.2,0.1-0.3,0.1s-0.2,0-0.3-0.1c-0.1-0.1-0.1-0.2-0.1-0.3v-10.7c0-0.1,0-0.2,0.1-0.3c0.1-0.1,0.2-0.1,0.3-0.1
		s0.2,0,0.3,0.1c0.1,0.1,0.1,0.2,0.1,0.3v5H559.3z"/>
	<path class="st8" d="M573.7,204.3c0,0.2-0.1,0.4-0.4,0.4h-5v3.7c0,0.1,0,0.2-0.1,0.3c-0.1,0.1-0.2,0.1-0.3,0.1
		c-0.1,0-0.2,0-0.3-0.1c-0.1-0.1-0.1-0.2-0.1-0.3v-3.7h-5c-0.2,0-0.4-0.1-0.3-0.4c0-0.2,0.1-0.3,0.4-0.3h10.6
		C573.5,203.9,573.7,204,573.7,204.3z M571.6,198.2c0.8,0.4,1.2,1,1.2,1.8c0,0.7-0.4,1.3-1.2,1.8c-0.8,0.5-2.1,0.8-3.6,0.8
		c-1.6,0-2.8-0.3-3.6-0.8c-0.8-0.4-1.1-1-1.1-1.8c0-0.7,0.4-1.3,1.1-1.8c0.8-0.5,2-0.7,3.6-0.7C569.5,197.4,570.7,197.7,571.6,198.2
		z M564.9,198.6c-0.6,0.3-1,0.7-1,1.3c0,0.5,0.3,1,1,1.3c0.7,0.4,1.7,0.5,3,0.5c1.3,0,2.3-0.2,3-0.5c0.6-0.3,1-0.7,1-1.3
		c0-0.5-0.3-1-1-1.3c-0.7-0.3-1.7-0.5-3-0.5C566.7,198.1,565.6,198.3,564.9,198.6z"/>
	<path class="st8" d="M587.7,207.1c0.1,0.1,0.1,0.2,0.1,0.2c0,0.1,0,0.2-0.1,0.2c-0.1,0.1-0.2,0.1-0.3,0.1h-10.6
		c-0.3,0-0.4-0.1-0.4-0.4c0-0.2,0.1-0.3,0.4-0.3h10.6C587.5,207,587.6,207.1,587.7,207.1z M586.6,197.7c0.1,0.1,0.1,0.1,0.1,0.2
		c0,0.1,0,0.2-0.1,0.2c-0.1,0.1-0.1,0.1-0.2,0.1h-7.5c-0.2,0-0.3,0-0.4,0.1c-0.1,0.1-0.1,0.2-0.1,0.4v3.5c0,0.2,0,0.3,0.1,0.4
		c0.1,0.1,0.2,0.1,0.4,0.1h7.7c0.2,0,0.4,0.1,0.4,0.3c0,0.2-0.1,0.3-0.3,0.3h-7.8c-0.4,0-0.7-0.1-1-0.3c-0.2-0.2-0.3-0.5-0.3-0.9
		V199c0-0.4,0.1-0.8,0.3-1c0.2-0.2,0.6-0.4,1-0.4h7.5C586.5,197.6,586.6,197.6,586.6,197.7z"/>
	<path class="st8" d="M518.5,217.6c0.1-0.1,0.2-0.1,0.3-0.1s0.2,0,0.3,0.1c0.1,0.1,0.1,0.2,0.1,0.3c0,0.5-0.1,1.1-0.2,1.8
		c-0.1,0.6-0.2,1.3-0.4,2c0.7,0.9,1.4,1.8,2,2.6c0.6,0.9,1.1,1.7,1.6,2.5c0.1,0.1,0.1,0.3,0,0.4c0,0.1-0.1,0.2-0.2,0.2
		c-0.1,0-0.2,0.1-0.3,0c-0.1,0-0.2-0.1-0.3-0.2c-0.4-0.7-0.8-1.5-1.4-2.4c-0.6-0.9-1.1-1.7-1.7-2.4c-0.3,0.8-0.6,1.5-0.9,2.2
		c-0.5,0.9-1,1.8-1.7,2.7c-0.1,0.1-0.2,0.1-0.3,0.2c-0.1,0-0.2,0-0.3-0.1c-0.1-0.1-0.1-0.1-0.1-0.2c0-0.1,0-0.2,0.2-0.3
		c0.9-1.2,1.7-2.6,2.3-4.4c0.6-1.6,0.8-3.2,0.8-4.6C518.4,217.8,518.4,217.7,518.5,217.6z M524.9,228.6c-0.1,0.1-0.2,0.1-0.3,0.1
		c-0.1,0-0.2,0-0.3-0.1c-0.1-0.1-0.1-0.2-0.1-0.3v-5.5h-3.6c-0.1,0-0.3,0-0.3-0.1c-0.1-0.1-0.1-0.1-0.1-0.2c0-0.1,0-0.2,0.1-0.2
		c0.1-0.1,0.2-0.1,0.3-0.1h3.7v-4.4c0-0.1,0-0.2,0.1-0.3c0.1-0.1,0.2-0.1,0.3-0.1c0.1,0,0.2,0,0.3,0.1c0.1,0.1,0.1,0.2,0.1,0.3v10.6
		C525.1,228.4,525,228.5,524.9,228.6z"/>
	<path class="st8" d="M535.1,217.6c0.3,0,0.4,0.1,0.4,0.4v8.4c0,0.3-0.1,0.6-0.3,0.8c-0.2,0.2-0.5,0.3-0.8,0.3h-3.5
		c-0.3,0-0.6-0.1-0.8-0.3c-0.2-0.2-0.3-0.5-0.3-0.8V218c0-0.1,0-0.3,0.1-0.3c0.1-0.1,0.2-0.1,0.3-0.1s0.2,0,0.3,0.1
		c0.1,0.1,0.1,0.2,0.1,0.3v3.2h4.2V218C534.7,217.7,534.8,217.6,535.1,217.6z M530.5,221.9v4.4c0,0.2,0,0.3,0.1,0.4
		c0.1,0.1,0.2,0.1,0.4,0.1h3c0.2,0,0.4,0,0.5-0.1c0.1-0.1,0.2-0.2,0.2-0.4v-4.4H530.5z M539.1,228.6c-0.1,0.1-0.2,0.1-0.3,0.1
		c-0.1,0-0.2,0-0.3-0.1c-0.1-0.1-0.1-0.2-0.1-0.4v-5.4h-2.3c-0.1,0-0.2,0-0.3-0.1c-0.1-0.1-0.1-0.2-0.1-0.2c0-0.1,0-0.2,0.1-0.2
		c0.1-0.1,0.2-0.1,0.3-0.1h2.3v-4.5c0-0.1,0-0.2,0.1-0.3c0.1-0.1,0.2-0.1,0.3-0.1c0.1,0,0.2,0,0.3,0.1c0.1,0.1,0.1,0.2,0.1,0.3v10.5
		C539.2,228.3,539.2,228.5,539.1,228.6z"/>
	<path class="st8" d="M543.1,223.6c0-0.7,0.1-1.3,0.2-1.9c0.1-0.6,0.3-1.2,0.5-1.7c0.2-0.5,0.5-1,0.8-1.5c0.3-0.4,0.6-0.8,1-1.1h1.1
		c-0.4,0.4-0.7,0.8-1.1,1.2c-0.3,0.4-0.6,0.9-0.8,1.4c-0.2,0.5-0.4,1-0.5,1.5c-0.1,0.5-0.2,1-0.2,1.5v1.2c0,0.5,0.1,1,0.2,1.5
		c0.1,0.5,0.3,1,0.5,1.5c0.2,0.5,0.5,1,0.8,1.4c0.3,0.4,0.7,0.8,1,1.2h-1.1c-0.3-0.3-0.7-0.7-1-1.1c-0.3-0.4-0.6-0.9-0.8-1.5
		c-0.2-0.5-0.4-1.1-0.5-1.8C543.2,225,543.1,224.3,543.1,223.6z"/>
	<path class="st8" d="M551.6,217.6c0.1-0.1,0.2-0.1,0.3-0.1c0.1,0,0.2,0,0.3,0.1c0.1,0.1,0.1,0.2,0.1,0.3c0,0.4,0,0.9-0.1,1.3
		c-0.1,0.4-0.2,0.9-0.3,1.3c0.6,0.4,1.2,0.9,1.8,1.4c0.6,0.5,1.1,1.1,1.7,1.7c0.1,0.1,0.1,0.2,0.1,0.4c0,0.1-0.1,0.2-0.1,0.3
		c-0.1,0.1-0.2,0.1-0.3,0.1c-0.1,0-0.2-0.1-0.3-0.2c-0.5-0.6-1-1.2-1.6-1.7c-0.5-0.5-1-0.9-1.6-1.3c-0.3,0.6-0.6,1.1-1,1.6
		c-0.5,0.7-1.1,1.3-1.7,1.8c-0.1,0.1-0.2,0.1-0.3,0.1c-0.1,0-0.2-0.1-0.2-0.1c-0.1-0.1-0.1-0.2-0.1-0.3c0-0.1,0.1-0.2,0.2-0.3
		c0.9-0.7,1.7-1.6,2.2-2.7c0.6-1.1,0.9-2.2,0.9-3.4C551.4,217.8,551.5,217.7,551.6,217.6z M550.2,227c0,0.2,0,0.4,0.1,0.5
		c0.1,0.1,0.3,0.1,0.5,0.1h7.4c0.2,0,0.3,0.1,0.3,0.3c0,0.2-0.1,0.4-0.3,0.4h-7.5c-0.4,0-0.7-0.1-1-0.3c-0.3-0.2-0.4-0.5-0.4-0.9
		v-1.8c0-0.1,0-0.3,0.1-0.3c0.1-0.1,0.2-0.1,0.3-0.1c0.1,0,0.2,0,0.3,0.1c0.1,0.1,0.1,0.2,0.1,0.3V227z M558.1,225.5
		c-0.1,0.1-0.2,0.1-0.3,0.1c-0.1,0-0.2,0-0.3-0.1c-0.1-0.1-0.1-0.2-0.1-0.3v-4.3h-3.5c-0.1,0-0.2,0-0.3-0.1
		c-0.1-0.1-0.1-0.1-0.1-0.2c0-0.1,0-0.2,0.1-0.2c0.1-0.1,0.2-0.1,0.3-0.1h3.5v-2.5c0-0.1,0-0.2,0.1-0.3c0.1-0.1,0.2-0.1,0.3-0.1
		c0.1,0,0.2,0,0.3,0.1c0.1,0.1,0.1,0.2,0.1,0.3v7.5C558.2,225.3,558.2,225.4,558.1,225.5z"/>
	<path class="st8" d="M567.9,217.8c0.1,0.1,0.1,0.2,0.1,0.2c0,0.1,0,0.2-0.1,0.2c-0.1,0.1-0.2,0.1-0.3,0.1h-3.3
		c-0.2,0-0.4,0.1-0.5,0.2c-0.1,0.1-0.1,0.3-0.1,0.5v1.1h3.5c0.1,0,0.2,0,0.3,0.1c0.1,0.1,0.1,0.2,0.1,0.2c0,0.1,0,0.2-0.1,0.2
		c-0.1,0.1-0.2,0.1-0.3,0.1h-3.5v1.4c0,0.2,0,0.4,0.1,0.4c0.1,0.1,0.2,0.1,0.5,0.1c0.9,0,1.7,0,2.2-0.1c0.7-0.1,1.3-0.2,1.8-0.4
		c0.1-0.1,0.3-0.1,0.4,0c0.1,0,0.2,0.1,0.2,0.2c0,0.1,0,0.2,0,0.3c0,0.1-0.1,0.2-0.2,0.2c-0.5,0.2-1.1,0.4-1.9,0.5
		c-0.6,0.1-1.4,0.1-2.5,0.1c-0.4,0-0.7-0.1-1-0.3c-0.2-0.2-0.4-0.5-0.4-0.9v-3.4c0-0.3,0.1-0.6,0.4-0.8c0.2-0.2,0.6-0.3,1-0.3h3.3
		C567.7,217.7,567.8,217.7,567.9,217.8z M572.4,225.2c0.2,0.2,0.4,0.5,0.4,0.8v2.3c0,0.1,0,0.2-0.1,0.3c-0.1,0.1-0.2,0.1-0.3,0.1
		c-0.1,0-0.2,0-0.3-0.1c-0.1-0.1-0.1-0.2-0.1-0.3v-2.2c0-0.2,0-0.3-0.1-0.3c-0.1-0.1-0.2-0.1-0.4-0.1h-7.8c-0.3,0-0.4-0.1-0.4-0.4
		c0-0.2,0.1-0.4,0.4-0.4h7.8C571.8,224.9,572.1,225,572.4,225.2z M572.3,217.3c0.3,0,0.4,0.1,0.4,0.4v5.4c0,0.1,0,0.3-0.1,0.3
		c-0.1,0.1-0.2,0.1-0.3,0.1c-0.1,0-0.2,0-0.3-0.1c-0.1-0.1-0.1-0.2-0.1-0.3v-1.7h-2v1.7c0,0.1,0,0.3-0.1,0.3
		c-0.1,0.1-0.2,0.1-0.3,0.1s-0.2,0-0.3-0.1c-0.1-0.1-0.1-0.2-0.1-0.3v-5.4c0-0.2,0.1-0.4,0.4-0.4c0.3,0,0.4,0.1,0.4,0.4v3.1h2v-3
		C571.9,217.4,572.1,217.3,572.3,217.3z"/>
	<path class="st8" d="M579.9,217.6c0.1-0.1,0.2-0.1,0.3-0.1s0.2,0,0.3,0.1c0.1,0.1,0.1,0.2,0.1,0.3c0,0.4,0,1-0.1,1.5
		c-0.1,0.5-0.1,1-0.2,1.5c0.7,0.9,1.3,1.9,2,3c0.6,1,1,2,1.4,2.9c0.1,0.1,0.1,0.3,0,0.4c0,0.1-0.1,0.2-0.2,0.2c-0.1,0-0.2,0-0.3,0
		c-0.1-0.1-0.2-0.1-0.2-0.3c-0.4-0.9-0.8-1.8-1.2-2.8c-0.6-1.2-1.1-2.1-1.6-2.7c-0.3,1.1-0.7,2.1-1.1,3c-0.5,0.9-1,1.8-1.7,2.7
		c-0.1,0.1-0.2,0.1-0.3,0.1c-0.1,0-0.2,0-0.3-0.1c-0.1-0.1-0.1-0.2-0.1-0.3c0-0.1,0-0.2,0.2-0.3c1-1.2,1.8-2.6,2.4-4.5
		c0.5-1.5,0.7-3,0.7-4.5C579.8,217.8,579.9,217.7,579.9,217.6z M587.6,222.6c0.2,0,0.3,0.1,0.3,0.3c0,0.2-0.1,0.3-0.3,0.3h-1.5v5
		c0,0.1,0,0.2-0.1,0.3c-0.1,0.1-0.2,0.1-0.3,0.1s-0.2,0-0.3-0.1c-0.1-0.1-0.1-0.2-0.1-0.3v-10.7c0-0.1,0-0.2,0.1-0.3
		c0.1-0.1,0.2-0.1,0.3-0.1s0.2,0,0.3,0.1c0.1,0.1,0.1,0.2,0.1,0.3v5H587.6z"/>
	<path class="st8" d="M597.9,219.1c0.1,0.1,0.1,0.2,0.1,0.2c0,0.1,0,0.2-0.1,0.2c-0.1,0.1-0.2,0.1-0.3,0.1h-6.5
		c-0.3,0-0.4-0.1-0.4-0.4c0-0.2,0.1-0.3,0.4-0.3h6.5C597.7,219,597.8,219,597.9,219.1z M596.8,220.9c0.5,0.3,0.8,0.8,0.8,1.3
		c0,0.5-0.3,0.9-0.8,1.3c-0.6,0.4-1.4,0.6-2.4,0.6c-1,0-1.8-0.2-2.4-0.6c-0.5-0.4-0.8-0.8-0.8-1.3c0-0.5,0.3-0.9,0.8-1.3
		c0.6-0.4,1.4-0.6,2.4-0.6C595.4,220.3,596.2,220.5,596.8,220.9z M599.4,225.3c0.7,0.3,1.1,0.8,1.1,1.4c0,0.6-0.4,1.1-1.1,1.4
		c-0.8,0.4-1.9,0.6-3.4,0.6c-1.5,0-2.6-0.2-3.4-0.6c-0.7-0.4-1.1-0.8-1.1-1.4c0-0.6,0.4-1.1,1.1-1.4c0.8-0.4,1.9-0.6,3.4-0.6
		C597.5,224.7,598.7,224.9,599.4,225.3z M592.6,221.3c-0.4,0.2-0.6,0.5-0.6,0.8c0,0.3,0.2,0.6,0.6,0.8c0.4,0.2,1.1,0.4,1.8,0.4
		c0.8,0,1.4-0.1,1.8-0.4c0.4-0.2,0.6-0.5,0.6-0.8c0-0.3-0.2-0.6-0.6-0.8c-0.4-0.2-1-0.4-1.8-0.4C593.6,221,593,221.1,592.6,221.3z
		 M596.5,217.7c0,0.2-0.1,0.4-0.4,0.4h-3.6c-0.3,0-0.4-0.1-0.4-0.4c0-0.2,0.1-0.3,0.4-0.3h3.6C596.4,217.4,596.5,217.5,596.5,217.7z
		 M593.3,225.7c-0.6,0.2-0.9,0.6-0.9,1c0,0.4,0.3,0.7,0.9,0.9c0.6,0.2,1.5,0.4,2.8,0.4c1.2,0,2.1-0.1,2.7-0.4
		c0.6-0.2,0.9-0.5,0.9-0.9c0-0.4-0.3-0.7-0.9-1c-0.6-0.2-1.5-0.4-2.7-0.4C594.8,225.4,593.9,225.5,593.3,225.7z M601.7,220.5
		c0.1,0,0.2,0,0.3,0.1c0.1,0.1,0.1,0.2,0.1,0.2c0,0.1,0,0.2-0.1,0.2c-0.1,0.1-0.1,0.1-0.2,0.1h-1.5v2.7c0,0.1,0,0.2-0.1,0.3
		c-0.1,0.1-0.2,0.1-0.3,0.1s-0.2,0-0.3-0.1c-0.1-0.1-0.1-0.2-0.1-0.3v-6.3c0-0.2,0.1-0.4,0.4-0.4c0.3,0,0.4,0.1,0.4,0.4v2.9H601.7z"
		/>
	<path class="st8" d="M607,223.6c0,0.7-0.1,1.3-0.2,2c-0.1,0.6-0.3,1.2-0.5,1.8c-0.2,0.5-0.5,1-0.8,1.5c-0.3,0.4-0.6,0.8-1,1.1h-1.1
		c0.4-0.3,0.7-0.7,1-1.2c0.3-0.4,0.6-0.9,0.8-1.4c0.2-0.5,0.4-1,0.5-1.5c0.1-0.5,0.2-1,0.2-1.5V223c0-0.5-0.1-1-0.2-1.5
		c-0.1-0.5-0.3-1-0.5-1.5c-0.2-0.5-0.5-1-0.8-1.4c-0.3-0.4-0.7-0.8-1.1-1.2h1.1c0.4,0.3,0.7,0.7,1,1.1c0.3,0.4,0.6,0.9,0.8,1.5
		c0.2,0.5,0.4,1.1,0.5,1.7C606.9,222.3,607,222.9,607,223.6z"/>
</g>
<g>
	<rect x="322.3" y="354.6" class="st7" width="142.9" height="13.9"/>
	<path class="st8" d="M330.9,356.5c0.1,0.1,0.1,0.1,0.1,0.2c0,0.1,0,0.2-0.1,0.2c-0.1,0.1-0.2,0.1-0.3,0.1h-6.5
		c-0.3,0-0.4-0.1-0.4-0.3s0.1-0.3,0.4-0.3h6.5C330.7,356.4,330.8,356.4,330.9,356.5z M329.8,359.1c0.5,0.6,0.8,1.4,0.8,2.2
		s-0.3,1.6-0.8,2.2c-0.6,0.7-1.4,1-2.4,1c-1,0-1.8-0.3-2.4-1c-0.5-0.6-0.8-1.4-0.8-2.2c0-0.9,0.3-1.6,0.8-2.2c0.6-0.7,1.4-1,2.4-1
		C328.4,358.1,329.2,358.5,329.8,359.1z M325.6,359.6c-0.4,0.5-0.6,1.1-0.6,1.8c0,0.7,0.2,1.3,0.6,1.8c0.4,0.5,1.1,0.8,1.8,0.8
		c0.7,0,1.3-0.3,1.8-0.8c0.4-0.5,0.6-1.1,0.6-1.8c0-0.7-0.2-1.3-0.6-1.8c-0.4-0.5-1-0.8-1.8-0.8C326.6,358.8,326,359.1,325.6,359.6z
		 M329.5,354.8c0,0.2-0.1,0.4-0.4,0.4h-3.6c-0.3,0-0.4-0.1-0.4-0.4c0-0.2,0.1-0.3,0.4-0.3h3.6C329.4,354.5,329.5,354.6,329.5,354.8z
		 M334.8,359.6c0.2,0,0.3,0.1,0.3,0.3c0,0.2-0.1,0.3-0.3,0.3h-1.5v5c0,0.1,0,0.2-0.1,0.3c-0.1,0.1-0.2,0.1-0.3,0.1s-0.2,0-0.3-0.1
		c-0.1-0.1-0.1-0.2-0.1-0.3v-10.7c0-0.1,0-0.2,0.1-0.3c0.1-0.1,0.2-0.1,0.3-0.1s0.2,0,0.3,0.1c0.1,0.1,0.1,0.2,0.1,0.3v5H334.8z"/>
	<path class="st8" d="M349,364.1c0.1,0.1,0.1,0.2,0.1,0.2s0,0.2-0.1,0.2s-0.2,0.1-0.3,0.1h-10.6c-0.3,0-0.4-0.1-0.4-0.4
		c0-0.2,0.1-0.3,0.4-0.3h10.6C348.8,364,348.9,364,349,364.1z M347.9,354.7c0.1,0.1,0.1,0.1,0.1,0.2c0,0.1,0,0.2-0.1,0.2
		c-0.1,0.1-0.1,0.1-0.2,0.1h-7.5c-0.2,0-0.3,0-0.4,0.1c-0.1,0.1-0.1,0.2-0.1,0.4v3.5c0,0.2,0,0.3,0.1,0.4c0.1,0.1,0.2,0.1,0.4,0.1
		h7.7c0.2,0,0.4,0.1,0.4,0.3c0,0.2-0.1,0.3-0.3,0.3h-7.8c-0.4,0-0.7-0.1-1-0.3c-0.2-0.2-0.3-0.5-0.3-0.9v-3.3c0-0.4,0.1-0.8,0.3-1
		c0.2-0.2,0.6-0.4,1-0.4h7.5C347.8,354.6,347.9,354.6,347.9,354.7z"/>
	<path class="st8" d="M353.4,361c-0.4,0-0.9,0-1.3,0c-0.2,0-0.4-0.1-0.4-0.3s0.1-0.3,0.4-0.3c0.7,0,1.7,0,2.8-0.1
		c1.4-0.1,2.5-0.1,3.2-0.2c0.3,0,0.4,0,0.4,0.3c0,0.2-0.1,0.4-0.4,0.4c-0.2,0-0.6,0.1-0.9,0.1c-0.2,0-0.6,0-1.1,0.1l-0.5,0v1.4
		c0,0.5-0.1,1.1-0.2,1.5c-0.1,0.4-0.4,0.8-0.6,1.1c-0.2,0.2-0.4,0.2-0.6,0.1c-0.2-0.1-0.2-0.3-0.1-0.5c0.3-0.3,0.4-0.6,0.6-1
		c0.1-0.3,0.2-0.7,0.2-1.2V361C354.4,361,353.9,361,353.4,361z M357.4,355.2c0.5,0.4,0.7,1,0.7,1.6s-0.2,1.1-0.7,1.6
		c-0.5,0.5-1.3,0.7-2.2,0.7c-0.9,0-1.7-0.2-2.2-0.7c-0.5-0.4-0.7-1-0.7-1.6s0.2-1.1,0.7-1.6c0.5-0.5,1.3-0.7,2.2-0.7
		C356.1,354.5,356.8,354.7,357.4,355.2z M353.6,355.7c-0.4,0.3-0.5,0.7-0.5,1.1c0,0.4,0.2,0.8,0.5,1.1c0.4,0.3,0.9,0.5,1.6,0.5
		c0.7,0,1.2-0.2,1.6-0.5c0.4-0.3,0.5-0.7,0.5-1.1c0-0.4-0.2-0.8-0.5-1.1c-0.4-0.3-0.9-0.5-1.6-0.5
		C354.5,355.2,354,355.4,353.6,355.7z M359.8,365.5c-0.1,0.1-0.2,0.1-0.3,0.1c-0.1,0-0.2,0-0.3-0.1c-0.1-0.1-0.1-0.2-0.1-0.3v-2.7
		h-1.7c-0.3,0-0.4-0.1-0.4-0.3c0-0.2,0.1-0.3,0.4-0.3h1.7v-7.3c0-0.1,0-0.2,0.1-0.3c0.1-0.1,0.2-0.1,0.3-0.1c0.1,0,0.2,0,0.3,0.1
		c0.1,0.1,0.1,0.2,0.1,0.3v10.7C360,365.4,359.9,365.5,359.8,365.5z M362.2,365.5c-0.1,0.1-0.2,0.1-0.3,0.1c-0.1,0-0.2,0-0.3-0.1
		c-0.1-0.1-0.1-0.2-0.1-0.3v-10.6c0-0.1,0-0.2,0.1-0.3c0.1-0.1,0.2-0.1,0.3-0.1c0.1,0,0.2,0,0.3,0.1c0.1,0.1,0.1,0.2,0.1,0.3v10.6
		C362.3,365.3,362.3,365.4,362.2,365.5z"/>
	<path class="st8" d="M371.9,356.1c0.5,0.9,0.8,2.1,0.8,3.5c0,1.4-0.3,2.5-0.8,3.5c-0.6,1-1.3,1.5-2.3,1.5c-1,0-1.8-0.5-2.4-1.5
		c-0.5-0.9-0.8-2.1-0.8-3.5c0-1.4,0.3-2.6,0.8-3.5c0.6-1,1.4-1.5,2.4-1.5C370.6,354.6,371.4,355.1,371.9,356.1z M367.8,356.5
		c-0.4,0.8-0.6,1.8-0.6,3c0,1.2,0.2,2.2,0.6,3c0.4,0.9,1,1.3,1.8,1.3c0.7,0,1.3-0.4,1.7-1.3c0.4-0.8,0.6-1.8,0.6-3
		c0-1.2-0.2-2.2-0.6-3c-0.4-0.9-1-1.3-1.7-1.3C368.8,355.3,368.3,355.7,367.8,356.5z M376,365.5c-0.1,0.1-0.2,0.1-0.3,0.1
		c-0.1,0-0.2,0-0.3-0.1c-0.1-0.1-0.1-0.2-0.1-0.4v-5.4H373c-0.1,0-0.2,0-0.3-0.1c-0.1-0.1-0.1-0.2-0.1-0.2c0-0.1,0-0.2,0.1-0.2
		c0.1-0.1,0.2-0.1,0.3-0.1h2.3v-4.5c0-0.1,0-0.2,0.1-0.3c0.1-0.1,0.2-0.1,0.3-0.1c0.1,0,0.2,0,0.3,0.1c0.1,0.1,0.1,0.2,0.1,0.3v10.5
		C376.1,365.3,376.1,365.4,376,365.5z"/>
	<path class="st8" d="M388.5,355.3c0.4,0.5,0.6,1.2,0.6,2c0,0.8-0.2,1.4-0.6,2c-0.5,0.6-1.1,0.9-1.9,0.9s-1.4-0.3-1.9-0.9
		c-0.4-0.5-0.6-1.2-0.6-2c0-0.8,0.2-1.5,0.6-2c0.5-0.6,1.1-0.9,1.9-0.9S388,354.7,388.5,355.3z M393.7,362.2
		c0.2,0.2,0.4,0.5,0.4,0.8v2.3c0,0.1,0,0.2-0.1,0.3c-0.1,0.1-0.2,0.1-0.3,0.1c-0.1,0-0.2,0-0.3-0.1c-0.1-0.1-0.1-0.2-0.1-0.3V363
		c0-0.2,0-0.3-0.1-0.3c-0.1-0.1-0.2-0.1-0.4-0.1H385c-0.3,0-0.4-0.1-0.4-0.4s0.1-0.4,0.4-0.4h7.8C393.2,361.9,393.5,362,393.7,362.2
		z M385.3,355.8c-0.3,0.4-0.4,0.9-0.4,1.5c0,0.6,0.1,1.1,0.4,1.5c0.3,0.5,0.7,0.7,1.3,0.7s1-0.2,1.3-0.7c0.3-0.4,0.4-0.9,0.4-1.5
		c0-0.6-0.1-1.1-0.4-1.5c-0.3-0.5-0.7-0.7-1.3-0.7S385.6,355.4,385.3,355.8z M393.7,354.2c0.3,0,0.4,0.1,0.4,0.4v5.4
		c0,0.1,0,0.3-0.1,0.3c-0.1,0.1-0.2,0.1-0.3,0.1c-0.1,0-0.2,0-0.3-0.1c-0.1-0.1-0.1-0.2-0.1-0.3v-1.7h-2v1.7c0,0.1,0,0.3-0.1,0.3
		c-0.1,0.1-0.2,0.1-0.3,0.1s-0.2,0-0.3-0.1c-0.1-0.1-0.1-0.2-0.1-0.3v-5.4c0-0.2,0.1-0.4,0.4-0.4c0.3,0,0.4,0.1,0.4,0.4v3.1h2v-3
		C393.3,354.3,393.4,354.2,393.7,354.2z"/>
	<path class="st8" d="M400.7,354.6c0.1-0.1,0.2-0.1,0.3-0.1s0.2,0,0.3,0.1c0.1,0.1,0.1,0.2,0.1,0.3c0,0.5,0,1-0.1,1.6
		c-0.1,0.7-0.2,1.4-0.3,2.3c0.6,0.9,1.1,1.7,1.6,2.5c0.5,0.8,0.9,1.6,1.2,2.5c0.1,0.1,0.1,0.3,0,0.4c0,0.1-0.1,0.2-0.2,0.2
		c-0.1,0-0.2,0-0.3,0c-0.1-0.1-0.2-0.1-0.2-0.3c-0.4-0.8-0.7-1.6-1.1-2.3c-0.4-0.7-0.8-1.4-1.3-2.1c-0.2,0.8-0.5,1.6-0.8,2.3
		c-0.4,0.8-0.8,1.6-1.4,2.3c-0.1,0.1-0.2,0.2-0.3,0.2c-0.1,0-0.2,0-0.3-0.1c-0.1-0.1-0.1-0.1-0.1-0.2c0-0.1,0-0.2,0.1-0.3
		c0.7-0.9,1.3-2.1,1.8-3.6c0.5-1.7,0.8-3.5,0.8-5.4C400.6,354.8,400.6,354.7,400.7,354.6z M405.6,365.5c-0.1,0.1-0.2,0.1-0.3,0.1
		s-0.2,0-0.3-0.1c-0.1-0.1-0.1-0.2-0.1-0.3v-5.7h-2.5c-0.1,0-0.3,0-0.3-0.1c-0.1-0.1-0.1-0.2-0.1-0.2c0-0.1,0-0.2,0.1-0.2
		c0.1-0.1,0.2-0.1,0.3-0.1h2.5v-4.2c0-0.1,0-0.2,0.1-0.3c0.1-0.1,0.2-0.1,0.3-0.1s0.2,0,0.3,0.1c0.1,0.1,0.1,0.2,0.1,0.3v10.6
		C405.7,365.3,405.7,365.4,405.6,365.5z M408.1,365.5c-0.1,0.1-0.2,0.1-0.3,0.1c-0.1,0-0.2,0-0.3-0.1c-0.1-0.1-0.1-0.2-0.1-0.3
		v-10.6c0-0.1,0-0.2,0.1-0.3c0.1-0.1,0.2-0.1,0.3-0.1c0.1,0,0.2,0,0.3,0.1c0.1,0.1,0.1,0.2,0.1,0.3v10.6
		C408.2,365.3,408.2,365.4,408.1,365.5z"/>
	<path class="st8" d="M423.2,364.1c0.1,0.1,0.1,0.2,0.1,0.2s0,0.2-0.1,0.2c-0.1,0.1-0.2,0.1-0.3,0.1h-10.6c-0.3,0-0.4-0.1-0.4-0.4
		c0-0.2,0.1-0.3,0.4-0.3h10.6C423.1,364,423.2,364,423.2,364.1z M417.4,354.5c0.1-0.1,0.2-0.1,0.3-0.1c0.1,0,0.2,0,0.3,0.1
		c0.1,0.1,0.1,0.2,0.1,0.4c0,1.4,0.5,2.6,1.4,3.6c0.8,0.8,1.8,1.4,3,1.6c0.1,0,0.2,0.1,0.3,0.2c0.1,0.1,0.1,0.2,0.1,0.3
		c0,0.1-0.1,0.2-0.2,0.2c-0.1,0.1-0.2,0.1-0.4,0c-1.1-0.2-2-0.7-2.9-1.6c-0.8-0.8-1.4-1.6-1.7-2.5c-0.3,0.9-0.8,1.8-1.7,2.5
		c-0.9,0.8-1.9,1.4-3,1.6c-0.1,0-0.3,0-0.3-0.1c-0.1-0.1-0.1-0.1-0.2-0.2c0-0.1,0-0.2,0.1-0.3c0.1-0.1,0.2-0.2,0.3-0.2
		c1.1-0.2,2.1-0.8,3-1.6c1-1,1.5-2.2,1.5-3.6C417.2,354.6,417.3,354.5,417.4,354.5z"/>
</g>
<g>
	<rect x="322.3" y="207.7" class="st7" width="114.3" height="40.8"/>
	<path class="st9" d="M323.6,208.3h3.3c0.6,0,1.2,0.1,1.7,0.3c0.5,0.2,0.9,0.5,1.3,0.9c0.4,0.4,0.6,0.9,0.8,1.5
		c0.2,0.6,0.3,1.3,0.3,2.1s-0.1,1.5-0.3,2.1c-0.2,0.6-0.5,1.1-0.8,1.5c-0.3,0.4-0.8,0.7-1.3,0.9c-0.5,0.2-1,0.3-1.7,0.3h-3.3V208.3z
		 M326.8,217c0.4,0,0.8-0.1,1.1-0.2s0.6-0.3,0.9-0.6c0.2-0.3,0.4-0.6,0.6-1s0.2-0.8,0.2-1.3v-1.6c0-0.5-0.1-0.9-0.2-1.3
		s-0.3-0.7-0.6-1c-0.2-0.3-0.5-0.5-0.9-0.6c-0.3-0.1-0.7-0.2-1.1-0.2h-2.1v7.7H326.8z"/>
	<path class="st9" d="M335.7,218.2c-0.5,0-0.9-0.1-1.3-0.3s-0.7-0.4-1-0.8c-0.3-0.3-0.5-0.7-0.7-1.2c-0.2-0.5-0.2-1-0.2-1.6
		c0-0.6,0.1-1.1,0.2-1.6c0.2-0.5,0.4-0.9,0.7-1.2c0.3-0.3,0.6-0.6,1-0.8s0.8-0.3,1.3-0.3s0.9,0.1,1.3,0.3s0.7,0.4,1,0.8
		c0.3,0.3,0.5,0.7,0.7,1.2c0.2,0.5,0.2,1,0.2,1.6c0,0.6-0.1,1.1-0.2,1.6c-0.2,0.5-0.4,0.9-0.7,1.2c-0.3,0.3-0.6,0.6-1,0.8
		S336.2,218.2,335.7,218.2z M335.7,217.2c0.6,0,1.1-0.2,1.5-0.6c0.4-0.4,0.6-0.9,0.6-1.7v-1c0-0.8-0.2-1.3-0.6-1.7s-0.9-0.6-1.5-0.6
		s-1.1,0.2-1.5,0.6c-0.4,0.4-0.6,0.9-0.6,1.7v1c0,0.8,0.2,1.3,0.6,1.7C334.6,217,335.1,217.2,335.7,217.2z"/>
	<path class="st9" d="M343.7,218.2c-0.5,0-1-0.1-1.4-0.3s-0.7-0.4-1-0.8s-0.5-0.7-0.6-1.2s-0.2-1-0.2-1.6s0.1-1.1,0.2-1.6
		c0.1-0.5,0.4-0.9,0.6-1.2c0.3-0.3,0.6-0.6,1-0.8s0.9-0.3,1.4-0.3c0.7,0,1.3,0.2,1.7,0.5c0.4,0.3,0.8,0.7,1,1.2l-0.9,0.5
		c-0.1-0.4-0.3-0.7-0.6-0.9c-0.3-0.2-0.7-0.3-1.1-0.3c-0.3,0-0.6,0.1-0.9,0.2s-0.5,0.3-0.6,0.4c-0.2,0.2-0.3,0.4-0.4,0.7
		s-0.1,0.6-0.1,0.9v1.2c0,0.6,0.2,1.2,0.5,1.6c0.3,0.4,0.8,0.6,1.5,0.6c0.9,0,1.6-0.4,2-1.3l0.8,0.5c-0.2,0.5-0.6,0.9-1,1.2
		S344.4,218.2,343.7,218.2z"/>
	<path class="st9" d="M348.2,207.7h1.1v6.6h0.1l1.1-1.2l2-2.2h1.4l-2.7,2.9l2.9,4.4h-1.4l-2.4-3.7l-1.1,1.1v2.6h-1.1V207.7z"/>
	<path class="st9" d="M358.2,218.2c-0.5,0-0.9-0.1-1.3-0.3s-0.7-0.4-1-0.8c-0.3-0.3-0.5-0.7-0.7-1.2c-0.2-0.5-0.2-1-0.2-1.6
		c0-0.6,0.1-1.1,0.2-1.6c0.2-0.5,0.4-0.9,0.7-1.2c0.3-0.3,0.6-0.6,1-0.8s0.8-0.3,1.3-0.3c0.5,0,0.9,0.1,1.3,0.3s0.7,0.4,1,0.7
		c0.3,0.3,0.5,0.7,0.6,1.1c0.1,0.4,0.2,0.9,0.2,1.4v0.5h-5.2v0.3c0,0.3,0,0.6,0.1,0.9c0.1,0.3,0.2,0.5,0.4,0.7
		c0.2,0.2,0.4,0.4,0.7,0.5c0.3,0.1,0.6,0.2,0.9,0.2c0.5,0,0.9-0.1,1.2-0.3s0.6-0.5,0.8-0.9l0.8,0.6c-0.2,0.5-0.6,0.9-1.1,1.2
		C359.5,218.1,358.9,218.2,358.2,218.2z M358.2,211.6c-0.3,0-0.6,0.1-0.8,0.2c-0.3,0.1-0.5,0.3-0.7,0.5c-0.2,0.2-0.3,0.4-0.4,0.7
		c-0.1,0.3-0.2,0.6-0.2,0.9v0.1h4v-0.2c0-0.6-0.2-1.2-0.5-1.5C359.2,211.8,358.8,211.6,358.2,211.6z"/>
	<path class="st9" d="M363.3,218.1v-7.2h1.1v1.3h0.1c0.1-0.3,0.4-0.7,0.7-0.9s0.8-0.4,1.4-0.4h0.4v1.1h-0.7c-0.6,0-1.1,0.1-1.4,0.3
		c-0.3,0.2-0.5,0.5-0.5,0.9v4.9H363.3z"/>
	<path class="st9" d="M378,208.1c0.3,0.2,0.4,0.5,0.4,0.9v1.6c0,2.1-0.6,3.8-1.7,5c-1,1.1-2.4,1.8-4,1.9c-0.3,0-0.4-0.1-0.4-0.3
		c0-0.2,0.1-0.4,0.4-0.4c1.6-0.2,2.8-0.7,3.6-1.7c0.9-1.1,1.4-2.5,1.4-4.5V209c0-0.2-0.1-0.3-0.2-0.4c-0.1-0.1-0.3-0.2-0.5-0.2h-4.1
		c-0.3,0-0.4-0.1-0.4-0.4c0-0.2,0.1-0.3,0.4-0.3h4C377.4,207.7,377.8,207.8,378,208.1z M383.4,212.7c0.2,0,0.3,0.1,0.3,0.3
		c0,0.2-0.1,0.3-0.3,0.3h-1.5v5c0,0.1,0,0.2-0.1,0.3c-0.1,0.1-0.2,0.1-0.3,0.1s-0.2,0-0.3-0.1c-0.1-0.1-0.1-0.2-0.1-0.3v-10.7
		c0-0.1,0-0.2,0.1-0.3c0.1-0.1,0.2-0.1,0.3-0.1s0.2,0,0.3,0.1c0.1,0.1,0.1,0.2,0.1,0.3v5H383.4z"/>
	<path class="st9" d="M389.7,207.6c0.1-0.1,0.2-0.1,0.3-0.1s0.2,0,0.3,0.1c0.1,0.1,0.1,0.2,0.1,0.3c0,0.3,0,0.6-0.1,0.9
		c0,0.2-0.1,0.5-0.2,0.8c0.8,0.6,1.5,1.1,2,1.6c0.5,0.5,1,1,1.5,1.7c0.1,0.1,0.1,0.2,0.1,0.4c0,0.1-0.1,0.2-0.2,0.2
		c-0.1,0.1-0.2,0.1-0.3,0.1c-0.1,0-0.2-0.1-0.3-0.2c-0.4-0.6-0.9-1.1-1.4-1.6c-0.5-0.5-1-0.9-1.7-1.4c-0.4,0.7-0.7,1.3-1.1,1.8
		c-0.4,0.5-1,1.1-1.7,1.6c-0.1,0.1-0.2,0.1-0.3,0.1c-0.1,0-0.2-0.1-0.2-0.2c-0.1-0.1-0.1-0.2-0.1-0.3s0.1-0.2,0.2-0.3
		c1-0.7,1.7-1.5,2.3-2.7c0.5-0.9,0.7-1.8,0.7-2.5C389.6,207.8,389.6,207.7,389.7,207.6z M395.2,215.2c0.7,0.4,1.1,0.9,1.1,1.5
		c0,0.6-0.4,1.1-1.1,1.4c-0.8,0.4-1.9,0.6-3.4,0.6c-1.5,0-2.6-0.2-3.4-0.6c-0.7-0.4-1.1-0.8-1.1-1.4c0-0.6,0.4-1.1,1.1-1.5
		c0.8-0.4,1.9-0.6,3.4-0.6C393.3,214.6,394.4,214.8,395.2,215.2z M389,215.7c-0.6,0.2-0.9,0.6-0.9,1c0,0.4,0.3,0.7,0.9,1
		c0.6,0.3,1.6,0.4,2.8,0.4c1.2,0,2.1-0.1,2.7-0.4c0.6-0.2,0.9-0.6,0.9-1c0-0.4-0.3-0.8-0.9-1c-0.6-0.3-1.5-0.4-2.7-0.4
		C390.6,215.3,389.7,215.4,389,215.7z M397.5,210.6c0.1,0,0.2,0,0.3,0.1c0.1,0.1,0.1,0.2,0.1,0.2c0,0.1,0,0.2-0.1,0.2
		c-0.1,0.1-0.1,0.1-0.2,0.1H396v2.7c0,0.1,0,0.2-0.1,0.3c-0.1,0.1-0.2,0.1-0.3,0.1s-0.2,0-0.3-0.1c-0.1-0.1-0.1-0.2-0.1-0.3v-6.3
		c0-0.2,0.1-0.4,0.4-0.4c0.3,0,0.4,0.1,0.4,0.4v2.9H397.5z"/>
	<path class="st9" d="M327.1,227.7c0.1-0.1,0.2-0.1,0.3-0.1s0.2,0,0.3,0.1c0.1,0.1,0.1,0.2,0.1,0.3c0,0.4,0,1-0.1,1.5
		c-0.1,0.5-0.1,1-0.2,1.5c0.7,0.9,1.3,1.9,2,3c0.6,1,1,2,1.4,2.9c0.1,0.1,0.1,0.3,0,0.4c0,0.1-0.1,0.2-0.2,0.2c-0.1,0-0.2,0-0.3,0
		s-0.2-0.1-0.2-0.3c-0.4-0.9-0.8-1.8-1.2-2.8c-0.6-1.2-1.1-2.1-1.6-2.7c-0.3,1.1-0.7,2.1-1.1,3c-0.5,0.9-1,1.8-1.7,2.7
		c-0.1,0.1-0.2,0.1-0.3,0.1c-0.1,0-0.2,0-0.3-0.1c-0.1-0.1-0.1-0.2-0.1-0.3c0-0.1,0-0.2,0.2-0.3c1-1.2,1.8-2.6,2.4-4.5
		c0.5-1.5,0.7-3,0.7-4.5C327,227.9,327,227.8,327.1,227.7z M334.8,232.7c0.2,0,0.3,0.1,0.3,0.3c0,0.2-0.1,0.3-0.3,0.3h-1.5v5
		c0,0.1,0,0.2-0.1,0.3c-0.1,0.1-0.2,0.1-0.3,0.1s-0.2,0-0.3-0.1c-0.1-0.1-0.1-0.2-0.1-0.3v-10.7c0-0.1,0-0.2,0.1-0.3
		c0.1-0.1,0.2-0.1,0.3-0.1s0.2,0,0.3,0.1c0.1,0.1,0.1,0.2,0.1,0.3v5H334.8z"/>
	<path class="st9" d="M341.1,227.6c0.1-0.1,0.2-0.1,0.3-0.1c0.1,0,0.2,0,0.3,0.1c0.1,0.1,0.1,0.2,0.1,0.3c0,0.3,0,0.6-0.1,0.9
		c-0.1,0.3-0.2,0.6-0.3,1c0.7,0.4,1.3,0.8,1.9,1.3c0.5,0.4,1,0.9,1.7,1.6c0.1,0.1,0.1,0.2,0.1,0.3c0,0.1,0,0.2-0.1,0.3
		c-0.1,0.1-0.2,0.1-0.3,0.1c-0.1,0-0.2-0.1-0.3-0.2c-0.5-0.6-1-1.2-1.6-1.6c-0.4-0.4-1-0.7-1.6-1.1c-0.3,0.5-0.6,1-1,1.5
		c-0.4,0.5-1,1-1.6,1.5c-0.1,0.1-0.2,0.1-0.3,0.1c-0.1,0-0.2,0-0.2-0.1c-0.1-0.1-0.1-0.2-0.1-0.3c0-0.1,0.1-0.2,0.2-0.3
		c1-0.8,1.8-1.6,2.4-2.7c0.5-0.8,0.7-1.6,0.7-2.3C340.9,227.8,341,227.7,341.1,227.6z M347.5,234.3c0.2,0.2,0.3,0.4,0.3,0.8v0.6
		c0,0.3-0.1,0.5-0.3,0.7c-0.2,0.2-0.5,0.3-0.8,0.3h-6.5c-0.2,0-0.3,0-0.4,0.1c-0.1,0.1-0.1,0.2-0.1,0.3v0.5c0,0.1,0,0.2,0.1,0.3
		c0.1,0.1,0.2,0.1,0.4,0.1h7.5c0.1,0,0.2,0,0.3,0.1c0.1,0.1,0.1,0.2,0.1,0.2c0,0.1,0,0.2-0.1,0.2c-0.1,0.1-0.2,0.1-0.3,0.1H340
		c-0.3,0-0.6-0.1-0.8-0.3c-0.2-0.2-0.3-0.4-0.3-0.7v-0.8c0-0.3,0.1-0.5,0.3-0.7c0.2-0.2,0.4-0.3,0.7-0.3h6.5c0.2,0,0.3,0,0.4-0.1
		c0.1-0.1,0.2-0.1,0.2-0.3v-0.4c0-0.2,0-0.3-0.1-0.3c-0.1-0.1-0.2-0.1-0.4-0.1h-7.2c-0.3,0-0.4-0.1-0.4-0.4c0-0.2,0.1-0.3,0.4-0.3
		h7.3C347,234,347.3,234.1,347.5,234.3z M347.7,233.2c-0.1,0.1-0.2,0.1-0.3,0.1c-0.1,0-0.2,0-0.3-0.1c-0.1-0.1-0.1-0.2-0.1-0.3v-2.4
		h-3.5c-0.1,0-0.2,0-0.3-0.1c-0.1-0.1-0.1-0.2-0.1-0.2c0-0.1,0-0.2,0.1-0.2c0.1-0.1,0.2-0.1,0.3-0.1h3.5v-2.1c0-0.1,0-0.2,0.1-0.3
		c0.1-0.1,0.2-0.1,0.3-0.1c0.1,0,0.2,0,0.3,0.1c0.1,0.1,0.1,0.2,0.1,0.3v5.2C347.8,233,347.8,233.1,347.7,233.2z"/>
	<path class="st9" d="M357.9,227.9c0.2,0.2,0.3,0.5,0.3,0.8v3.4c0,0.3-0.1,0.6-0.4,0.8c-0.2,0.2-0.5,0.3-0.9,0.3h-3.3
		c-0.4,0-0.6-0.1-0.8-0.3c-0.2-0.2-0.3-0.5-0.3-0.8v-3.3c0-0.3,0.1-0.6,0.3-0.8c0.2-0.2,0.5-0.4,0.9-0.4h3.3
		C357.4,227.6,357.7,227.7,357.9,227.9z M360.7,235.2c0.7,0.4,1.1,0.9,1.1,1.5c0,0.6-0.4,1.1-1.1,1.4c-0.8,0.4-1.9,0.6-3.4,0.6
		c-1.5,0-2.6-0.2-3.4-0.6c-0.7-0.4-1.1-0.8-1.1-1.4c0-0.6,0.4-1.1,1.1-1.5c0.8-0.4,1.9-0.6,3.4-0.6
		C358.8,234.6,359.9,234.8,360.7,235.2z M357.3,228.5c-0.1-0.1-0.3-0.2-0.5-0.2h-2.9c-0.2,0-0.4,0.1-0.5,0.2
		c-0.1,0.1-0.1,0.3-0.1,0.5v3c0,0.2,0,0.3,0.1,0.4c0.1,0.1,0.2,0.1,0.5,0.1h2.9c0.2,0,0.4,0,0.5-0.1c0.1-0.1,0.2-0.2,0.2-0.4v-3.1
		C357.4,228.7,357.4,228.6,357.3,228.5z M354.6,235.7c-0.6,0.2-0.9,0.6-0.9,1c0,0.4,0.3,0.7,0.9,1c0.6,0.3,1.6,0.4,2.8,0.4
		c1.2,0,2.1-0.1,2.7-0.4c0.6-0.2,0.9-0.6,0.9-1c0-0.4-0.3-0.8-0.9-1c-0.6-0.3-1.5-0.4-2.7-0.4C356.1,235.3,355.2,235.4,354.6,235.7z
		 M363,230.6c0.1,0,0.2,0,0.3,0.1c0.1,0.1,0.1,0.2,0.1,0.2c0,0.1,0,0.2-0.1,0.2c-0.1,0.1-0.1,0.1-0.2,0.1h-1.5v2.7
		c0,0.1,0,0.2-0.1,0.3c-0.1,0.1-0.2,0.1-0.3,0.1s-0.2,0-0.3-0.1c-0.1-0.1-0.1-0.2-0.1-0.3v-6.3c0-0.2,0.1-0.4,0.4-0.4
		c0.3,0,0.4,0.1,0.4,0.4v2.9H363z"/>
	<path class="st9" d="M365.9,233.7c0-0.7,0.1-1.3,0.2-1.9c0.1-0.6,0.3-1.2,0.5-1.7c0.2-0.5,0.5-1,0.8-1.5c0.3-0.4,0.6-0.8,1-1.1h1.1
		c-0.4,0.4-0.7,0.8-1.1,1.2c-0.3,0.4-0.6,0.9-0.8,1.4c-0.2,0.5-0.4,1-0.5,1.5c-0.1,0.5-0.2,1-0.2,1.5v1.2c0,0.5,0.1,1,0.2,1.5
		c0.1,0.5,0.3,1,0.5,1.5c0.2,0.5,0.5,1,0.8,1.4c0.3,0.4,0.7,0.8,1,1.2h-1.1c-0.3-0.3-0.7-0.7-1-1.1c-0.3-0.4-0.6-0.9-0.8-1.5
		s-0.4-1.1-0.5-1.8C365.9,235,365.9,234.4,365.9,233.7z"/>
	<path class="st9" d="M373.4,238.1l-3.2-9.8h1.3l1.6,4.9l1.1,3.7h0.1l1.1-3.7l1.6-4.9h1.2l-3.3,9.8H373.4z"/>
	<path class="st9" d="M379.8,238.1v-9.8h3.9c0.9,0,1.6,0.3,2,0.7c0.5,0.5,0.7,1.2,0.7,2.1c0,0.9-0.2,1.6-0.7,2.1
		c-0.5,0.5-1.1,0.7-2,0.7H381v4.2H379.8z M381,232.8h2.7c0.5,0,0.8-0.1,1.1-0.4s0.4-0.6,0.4-1v-0.7c0-0.4-0.1-0.8-0.4-1
		s-0.6-0.4-1.1-0.4H381V232.8z"/>
	<path class="st9" d="M390.8,232.1l-1.2-2.2h0v8.1h-1.1v-9.8h1.4l3.6,6l1.2,2.2h0v-8.1h1.1v9.8h-1.4L390.8,232.1z"/>
	<path class="st9" d="M400.7,233.7c0,0.7-0.1,1.3-0.2,2c-0.1,0.6-0.3,1.2-0.5,1.8c-0.2,0.5-0.5,1-0.8,1.5c-0.3,0.4-0.6,0.8-1,1.1
		h-1.1c0.4-0.3,0.7-0.7,1-1.2c0.3-0.4,0.6-0.9,0.8-1.4s0.4-1,0.5-1.5s0.2-1,0.2-1.5v-1.2c0-0.5-0.1-1-0.2-1.5
		c-0.1-0.5-0.3-1-0.5-1.5c-0.2-0.5-0.5-1-0.8-1.4c-0.3-0.4-0.7-0.8-1.1-1.2h1.1c0.4,0.3,0.7,0.7,1,1.1c0.3,0.4,0.6,0.9,0.8,1.5
		c0.2,0.5,0.4,1.1,0.5,1.7C400.7,232.4,400.7,233,400.7,233.7z"/>
</g>
<g>
	<rect x="154.1" y="354.6" class="st7" width="142.9" height="13.9"/>
	<path class="st8" d="M159,365.1c-0.6,0-1.2-0.1-1.7-0.3c-0.5-0.2-0.9-0.5-1.3-1s-0.6-1-0.8-1.6c-0.2-0.6-0.3-1.4-0.3-2.2
		c0-0.8,0.1-1.5,0.3-2.2c0.2-0.6,0.5-1.2,0.8-1.6c0.4-0.4,0.8-0.8,1.3-1c0.5-0.2,1.1-0.3,1.7-0.3c0.6,0,1.2,0.1,1.7,0.3
		c0.5,0.2,0.9,0.5,1.3,1c0.4,0.4,0.6,1,0.8,1.6c0.2,0.6,0.3,1.3,0.3,2.2c0,0.8-0.1,1.5-0.3,2.2s-0.5,1.2-0.8,1.6s-0.8,0.7-1.3,1
		C160.2,365,159.7,365.1,159,365.1z M159,364.1c0.4,0,0.8-0.1,1.2-0.2c0.4-0.2,0.7-0.4,0.9-0.6c0.3-0.3,0.5-0.6,0.6-1
		s0.2-0.8,0.2-1.3v-1.6c0-0.5-0.1-0.9-0.2-1.3s-0.3-0.7-0.6-1c-0.3-0.3-0.6-0.5-0.9-0.6c-0.4-0.1-0.7-0.2-1.2-0.2s-0.8,0.1-1.2,0.2
		c-0.4,0.2-0.7,0.4-0.9,0.6s-0.5,0.6-0.6,1c-0.1,0.4-0.2,0.8-0.2,1.3v1.6c0,0.5,0.1,0.9,0.2,1.3c0.1,0.4,0.3,0.7,0.6,1
		s0.6,0.5,0.9,0.6C158.2,364,158.6,364.1,159,364.1z"/>
	<path class="st8" d="M168.2,365.1c-0.8,0-1.5-0.2-2-0.5c-0.6-0.3-1-0.7-1.4-1.3l0.9-0.7c0.3,0.5,0.7,0.8,1.1,1
		c0.4,0.2,0.9,0.4,1.5,0.4c0.7,0,1.2-0.2,1.6-0.5c0.4-0.3,0.6-0.8,0.6-1.3c0-0.5-0.1-0.8-0.4-1.1s-0.7-0.5-1.4-0.6l-0.8-0.2
		c-0.9-0.2-1.6-0.5-2.1-0.9c-0.5-0.4-0.7-1-0.7-1.8c0-0.4,0.1-0.8,0.2-1.1c0.2-0.3,0.4-0.6,0.7-0.8c0.3-0.2,0.6-0.4,1-0.5
		c0.4-0.1,0.8-0.2,1.3-0.2c0.7,0,1.4,0.1,1.9,0.4c0.5,0.3,1,0.7,1.3,1.2l-0.9,0.6c-0.3-0.4-0.6-0.7-1-0.9s-0.9-0.3-1.4-0.3
		c-0.6,0-1.1,0.1-1.5,0.4c-0.4,0.3-0.5,0.7-0.5,1.2c0,0.5,0.2,0.8,0.5,1.1c0.3,0.2,0.8,0.4,1.4,0.6l0.8,0.2c1,0.2,1.7,0.5,2.1,1
		c0.4,0.4,0.6,1,0.6,1.8c0,0.4-0.1,0.9-0.2,1.2c-0.2,0.4-0.4,0.7-0.7,0.9c-0.3,0.3-0.6,0.4-1.1,0.6
		C169.2,365,168.7,365.1,168.2,365.1z"/>
	<path class="st8" d="M182,355.3c0.4,0.5,0.6,1.2,0.6,2c0,0.8-0.2,1.4-0.6,2c-0.5,0.6-1.1,0.9-1.9,0.9s-1.4-0.3-1.9-0.9
		c-0.4-0.5-0.6-1.2-0.6-2c0-0.8,0.2-1.5,0.6-2c0.5-0.6,1.1-0.9,1.9-0.9S181.6,354.7,182,355.3z M187.3,362.2
		c0.2,0.2,0.4,0.5,0.4,0.8v2.3c0,0.1,0,0.2-0.1,0.3c-0.1,0.1-0.2,0.1-0.3,0.1c-0.1,0-0.2,0-0.3-0.1c-0.1-0.1-0.1-0.2-0.1-0.3V363
		c0-0.2,0-0.3-0.1-0.3c-0.1-0.1-0.2-0.1-0.4-0.1h-7.8c-0.3,0-0.4-0.1-0.4-0.4s0.1-0.4,0.4-0.4h7.8C186.7,361.9,187,362,187.3,362.2z
		 M178.8,355.8c-0.3,0.4-0.4,0.9-0.4,1.5c0,0.6,0.1,1.1,0.4,1.5c0.3,0.5,0.7,0.7,1.3,0.7c0.5,0,1-0.2,1.3-0.7
		c0.3-0.4,0.4-0.9,0.4-1.5c0-0.6-0.1-1.1-0.4-1.5c-0.3-0.5-0.7-0.7-1.3-0.7C179.6,355.2,179.2,355.4,178.8,355.8z M187.2,354.2
		c0.3,0,0.4,0.1,0.4,0.4v5.4c0,0.1,0,0.3-0.1,0.3c-0.1,0.1-0.2,0.1-0.3,0.1c-0.1,0-0.2,0-0.3-0.1c-0.1-0.1-0.1-0.2-0.1-0.3v-1.7h-2
		v1.7c0,0.1,0,0.3-0.1,0.3c-0.1,0.1-0.2,0.1-0.3,0.1s-0.2,0-0.3-0.1c-0.1-0.1-0.1-0.2-0.1-0.3v-5.4c0-0.2,0.1-0.4,0.4-0.4
		c0.3,0,0.4,0.1,0.4,0.4v3.1h2v-3C186.8,354.3,187,354.2,187.2,354.2z"/>
	<path class="st8" d="M194.3,354.6c0.1-0.1,0.2-0.1,0.3-0.1s0.2,0,0.3,0.1c0.1,0.1,0.1,0.2,0.1,0.3c0,0.5,0,1-0.1,1.6
		c-0.1,0.7-0.2,1.4-0.3,2.3c0.6,0.9,1.1,1.7,1.6,2.5c0.5,0.8,0.9,1.6,1.2,2.5c0.1,0.1,0.1,0.3,0,0.4c0,0.1-0.1,0.2-0.2,0.2
		s-0.2,0-0.3,0c-0.1-0.1-0.2-0.1-0.2-0.3c-0.4-0.8-0.7-1.6-1.1-2.3c-0.4-0.7-0.8-1.4-1.3-2.1c-0.2,0.8-0.5,1.6-0.8,2.3
		c-0.4,0.8-0.8,1.6-1.4,2.3c-0.1,0.1-0.2,0.2-0.3,0.2c-0.1,0-0.2,0-0.3-0.1c-0.1-0.1-0.1-0.1-0.1-0.2c0-0.1,0-0.2,0.1-0.3
		c0.7-0.9,1.3-2.1,1.8-3.6c0.5-1.7,0.8-3.5,0.8-5.4C194.1,354.8,194.2,354.7,194.3,354.6z M199.1,365.5c-0.1,0.1-0.2,0.1-0.3,0.1
		s-0.2,0-0.3-0.1c-0.1-0.1-0.1-0.2-0.1-0.3v-5.7H196c-0.1,0-0.3,0-0.3-0.1c-0.1-0.1-0.1-0.2-0.1-0.2c0-0.1,0-0.2,0.1-0.2
		c0.1-0.1,0.2-0.1,0.3-0.1h2.5v-4.2c0-0.1,0-0.2,0.1-0.3c0.1-0.1,0.2-0.1,0.3-0.1s0.2,0,0.3,0.1c0.1,0.1,0.1,0.2,0.1,0.3v10.6
		C199.3,365.3,199.2,365.4,199.1,365.5z M201.7,365.5c-0.1,0.1-0.2,0.1-0.3,0.1c-0.1,0-0.2,0-0.3-0.1c-0.1-0.1-0.1-0.2-0.1-0.3
		v-10.6c0-0.1,0-0.2,0.1-0.3c0.1-0.1,0.2-0.1,0.3-0.1c0.1,0,0.2,0,0.3,0.1c0.1,0.1,0.1,0.2,0.1,0.3v10.6
		C201.8,365.3,201.7,365.4,201.7,365.5z"/>
	<path class="st8" d="M216.8,364.1c0.1,0.1,0.1,0.2,0.1,0.2s0,0.2-0.1,0.2s-0.2,0.1-0.3,0.1h-10.6c-0.3,0-0.4-0.1-0.4-0.4
		c0-0.2,0.1-0.3,0.4-0.3h10.6C216.6,364,216.7,364,216.8,364.1z M210.9,354.5c0.1-0.1,0.2-0.1,0.3-0.1c0.1,0,0.2,0,0.3,0.1
		c0.1,0.1,0.1,0.2,0.1,0.4c0,1.4,0.5,2.6,1.4,3.6c0.8,0.8,1.8,1.4,3,1.6c0.1,0,0.2,0.1,0.3,0.2c0.1,0.1,0.1,0.2,0.1,0.3
		c0,0.1-0.1,0.2-0.2,0.2c-0.1,0.1-0.2,0.1-0.4,0c-1.1-0.2-2-0.7-2.9-1.6c-0.8-0.8-1.4-1.6-1.7-2.5c-0.3,0.9-0.8,1.8-1.7,2.5
		c-0.9,0.8-1.9,1.4-3,1.6c-0.1,0-0.3,0-0.3-0.1c-0.1-0.1-0.1-0.1-0.2-0.2c0-0.1,0-0.2,0.1-0.3c0.1-0.1,0.2-0.2,0.3-0.2
		c1.1-0.2,2.1-0.8,3-1.6c1-1,1.5-2.2,1.5-3.6C210.8,354.6,210.8,354.5,210.9,354.5z"/>
</g>
<g>
	<rect x="248.9" y="140.6" class="st7" width="192" height="39.6"/>
	<path class="st8" d="M307.1,151.2c-0.5,0-1-0.1-1.4-0.3s-0.7-0.4-1-0.8s-0.5-0.7-0.6-1.2c-0.1-0.5-0.2-1-0.2-1.6s0.1-1.1,0.2-1.6
		c0.1-0.5,0.4-0.9,0.6-1.2c0.3-0.3,0.6-0.6,1-0.8s0.9-0.3,1.4-0.3c0.7,0,1.3,0.2,1.7,0.5c0.4,0.3,0.8,0.7,1,1.2l-0.9,0.5
		c-0.1-0.4-0.3-0.7-0.6-0.9c-0.3-0.2-0.7-0.3-1.1-0.3c-0.3,0-0.6,0.1-0.9,0.2s-0.5,0.3-0.6,0.4c-0.2,0.2-0.3,0.4-0.4,0.7
		s-0.1,0.6-0.1,0.9v1.2c0,0.6,0.2,1.2,0.5,1.6c0.3,0.4,0.8,0.6,1.5,0.6c0.9,0,1.6-0.4,2-1.3l0.8,0.5c-0.2,0.5-0.6,0.9-1,1.2
		S307.8,151.2,307.1,151.2z"/>
	<path class="st8" d="M311.7,143.8h1.1v1.2h0.1c0.2-0.5,0.5-0.8,0.8-1c0.4-0.2,0.8-0.3,1.3-0.3c0.4,0,0.9,0.1,1.2,0.3
		s0.7,0.4,0.9,0.8c0.3,0.3,0.5,0.7,0.6,1.2c0.1,0.5,0.2,1,0.2,1.6s-0.1,1.1-0.2,1.6c-0.1,0.5-0.3,0.9-0.6,1.2s-0.6,0.6-0.9,0.8
		s-0.8,0.3-1.2,0.3c-1,0-1.7-0.4-2.1-1.3h-0.1v4h-1.1V143.8z M314.6,150.2c0.6,0,1.1-0.2,1.5-0.6c0.4-0.4,0.5-0.9,0.5-1.6v-1.2
		c0-0.6-0.2-1.2-0.5-1.6c-0.4-0.4-0.9-0.6-1.5-0.6c-0.3,0-0.5,0-0.7,0.1c-0.2,0.1-0.4,0.2-0.6,0.3s-0.3,0.3-0.4,0.4
		c-0.1,0.2-0.1,0.4-0.1,0.6v2.7c0,0.2,0,0.4,0.1,0.6c0.1,0.2,0.2,0.3,0.4,0.5s0.4,0.2,0.6,0.3C314.1,150.1,314.4,150.2,314.6,150.2z
		"/>
	<path class="st8" d="M324.4,149.8L324.4,149.8c-0.1,0.2-0.2,0.3-0.3,0.5s-0.2,0.3-0.4,0.4c-0.2,0.1-0.4,0.2-0.6,0.3
		s-0.5,0.1-0.8,0.1c-0.7,0-1.3-0.2-1.8-0.7c-0.4-0.5-0.7-1.2-0.7-2v-4.6h1.1v4.4c0,1.3,0.5,2,1.7,2c0.2,0,0.4,0,0.7-0.1
		s0.4-0.1,0.6-0.3s0.3-0.3,0.4-0.4c0.1-0.2,0.1-0.4,0.1-0.6v-5h1.1v7.2h-1.1V149.8z"/>
	<path class="st8" d="M334.3,151h-6.4v-1.2l3.2-2.9c0.5-0.4,0.8-0.9,1.1-1.3c0.3-0.5,0.5-0.9,0.5-1.4v-0.2c0-0.5-0.1-1-0.4-1.3
		s-0.8-0.5-1.4-0.5c-0.3,0-0.6,0-0.8,0.1c-0.2,0.1-0.4,0.2-0.6,0.3c-0.2,0.1-0.3,0.3-0.4,0.5s-0.2,0.4-0.3,0.7l-1.1-0.4
		c0.1-0.3,0.2-0.6,0.4-0.8c0.2-0.3,0.4-0.5,0.6-0.7c0.2-0.2,0.5-0.4,0.9-0.5s0.8-0.2,1.2-0.2c0.5,0,0.9,0.1,1.3,0.2
		c0.4,0.1,0.7,0.3,0.9,0.6s0.4,0.6,0.6,0.9c0.1,0.3,0.2,0.7,0.2,1.1c0,0.4-0.1,0.7-0.2,1.1c-0.1,0.3-0.3,0.6-0.4,0.9
		c-0.2,0.3-0.4,0.6-0.7,0.9c-0.3,0.3-0.6,0.6-0.9,0.8l-2.6,2.4h5.1V151z"/>
	<path class="st8" d="M336.6,151v-7.2h1.1v1.2h0.1c0.1-0.2,0.2-0.4,0.3-0.5s0.2-0.3,0.4-0.4s0.3-0.2,0.5-0.3
		c0.2-0.1,0.4-0.1,0.7-0.1c0.5,0,0.9,0.1,1.3,0.3c0.4,0.2,0.7,0.6,0.9,1.1h0c0.1-0.4,0.4-0.7,0.7-1c0.4-0.3,0.8-0.4,1.5-0.4
		c0.7,0,1.3,0.2,1.7,0.7s0.6,1.2,0.6,2v4.6h-1.1v-4.4c0-0.6-0.1-1.1-0.4-1.5c-0.3-0.3-0.7-0.5-1.2-0.5c-0.2,0-0.4,0-0.6,0.1
		c-0.2,0.1-0.4,0.1-0.5,0.3c-0.2,0.1-0.3,0.3-0.4,0.4c-0.1,0.2-0.1,0.4-0.1,0.6v5H341v-4.4c0-0.6-0.1-1.1-0.4-1.5
		c-0.3-0.3-0.6-0.5-1.2-0.5c-0.2,0-0.4,0-0.6,0.1c-0.2,0.1-0.4,0.1-0.5,0.3c-0.2,0.1-0.3,0.3-0.4,0.4c-0.1,0.2-0.1,0.4-0.1,0.6v5
		H336.6z"/>
	<path class="st8" d="M351.1,151.2c-0.7,0-1.2-0.1-1.7-0.4c-0.5-0.3-0.8-0.6-1.2-1l0.8-0.6c0.3,0.4,0.6,0.6,0.9,0.8
		c0.3,0.2,0.7,0.3,1.2,0.3c0.5,0,0.8-0.1,1.1-0.3c0.3-0.2,0.4-0.5,0.4-0.9c0-0.3-0.1-0.5-0.3-0.7c-0.2-0.2-0.5-0.3-1-0.4l-0.6-0.1
		c-0.3,0-0.6-0.1-0.9-0.2s-0.5-0.2-0.7-0.4c-0.2-0.2-0.4-0.4-0.5-0.6c-0.1-0.2-0.2-0.5-0.2-0.9c0-0.4,0.1-0.7,0.2-0.9
		c0.1-0.3,0.3-0.5,0.5-0.7s0.5-0.3,0.8-0.4c0.3-0.1,0.7-0.1,1-0.1c0.6,0,1.1,0.1,1.5,0.3c0.4,0.2,0.7,0.5,1,0.9l-0.7,0.7
		c-0.2-0.2-0.4-0.4-0.7-0.6s-0.7-0.3-1.2-0.3s-0.8,0.1-1.1,0.3c-0.2,0.2-0.4,0.5-0.4,0.8c0,0.4,0.1,0.6,0.4,0.8s0.6,0.3,1,0.3
		l0.6,0.1c0.8,0.1,1.4,0.4,1.7,0.7s0.5,0.8,0.5,1.3c0,0.7-0.2,1.3-0.7,1.7C352.6,151,352,151.2,351.1,151.2z"/>
	<path class="st8" d="M361.9,151.8c0,0.7-0.3,1.3-0.9,1.6c-0.6,0.3-1.5,0.5-2.6,0.5c-1.1,0-1.9-0.2-2.4-0.5
		c-0.5-0.3-0.7-0.7-0.7-1.3c0-0.4,0.1-0.7,0.3-0.9c0.2-0.2,0.5-0.4,0.8-0.5v-0.2c-0.4-0.2-0.6-0.5-0.6-1c0-0.4,0.1-0.6,0.4-0.8
		c0.2-0.2,0.5-0.3,0.9-0.4v-0.1c-0.4-0.2-0.8-0.5-1-0.9s-0.4-0.8-0.4-1.3c0-0.4,0.1-0.7,0.2-1c0.1-0.3,0.3-0.6,0.6-0.8
		c0.2-0.2,0.5-0.4,0.9-0.5s0.7-0.2,1.1-0.2c0.5,0,1,0.1,1.4,0.3v-0.1c0-0.3,0.1-0.5,0.2-0.7c0.1-0.2,0.3-0.3,0.6-0.3h1.1v1h-1.4v0.5
		c0.3,0.2,0.5,0.5,0.6,0.8c0.1,0.3,0.2,0.7,0.2,1.1c0,0.4-0.1,0.7-0.2,1c-0.1,0.3-0.3,0.6-0.6,0.8c-0.2,0.2-0.5,0.4-0.9,0.5
		c-0.3,0.1-0.7,0.2-1.1,0.2c-0.2,0-0.5,0-0.7-0.1c-0.2,0.1-0.5,0.2-0.7,0.3c-0.2,0.1-0.3,0.3-0.3,0.5c0,0.2,0.1,0.4,0.3,0.4
		s0.5,0.1,0.8,0.1h1.5c0.9,0,1.5,0.2,2,0.5S361.9,151.2,361.9,151.8z M360.8,151.9c0-0.3-0.1-0.5-0.3-0.7c-0.2-0.2-0.6-0.3-1.2-0.3
		h-2.4c-0.4,0.2-0.7,0.5-0.7,1c0,0.3,0.1,0.6,0.4,0.8c0.2,0.2,0.6,0.3,1.2,0.3h1c0.6,0,1.1-0.1,1.5-0.3
		C360.7,152.6,360.8,152.3,360.8,151.9z M358.3,147.7c0.5,0,0.9-0.1,1.1-0.3c0.3-0.2,0.4-0.6,0.4-1.1v-0.4c0-0.5-0.1-0.8-0.4-1.1
		c-0.3-0.2-0.7-0.3-1.1-0.3c-0.5,0-0.9,0.1-1.1,0.3c-0.3,0.2-0.4,0.6-0.4,1.1v0.4c0,0.5,0.1,0.8,0.4,1.1
		C357.5,147.6,357.9,147.7,358.3,147.7z"/>
	<path class="st8" d="M363.3,140.6h1.1v4.3h0.1c0.2-0.4,0.4-0.7,0.7-1c0.3-0.2,0.8-0.4,1.3-0.4c0.7,0,1.3,0.2,1.8,0.7
		c0.4,0.5,0.7,1.2,0.7,2v4.6h-1.1v-4.4c0-1.3-0.5-2-1.6-2c-0.2,0-0.4,0-0.7,0.1c-0.2,0.1-0.4,0.1-0.6,0.3s-0.3,0.3-0.4,0.4
		c-0.1,0.2-0.1,0.4-0.1,0.6v5h-1.1V140.6z"/>
	<path class="st8" d="M375.9,149.8L375.9,149.8c-0.1,0.2-0.2,0.3-0.3,0.5s-0.2,0.3-0.4,0.4c-0.2,0.1-0.3,0.2-0.6,0.3
		c-0.2,0.1-0.5,0.1-0.8,0.1c-0.7,0-1.3-0.2-1.8-0.7c-0.4-0.5-0.7-1.2-0.7-2v-4.6h1.1v4.4c0,1.3,0.6,2,1.7,2c0.2,0,0.4,0,0.7-0.1
		s0.4-0.1,0.6-0.3c0.2-0.1,0.3-0.3,0.4-0.4c0.1-0.2,0.1-0.4,0.1-0.6v-5h1.1v7.2h-1.1V149.8z"/>
	<path class="st8" d="M379.6,140.6h1.1v4.3h0.1c0.2-0.5,0.5-0.8,0.8-1c0.4-0.2,0.8-0.3,1.3-0.3c0.4,0,0.9,0.1,1.2,0.3
		c0.4,0.2,0.7,0.4,0.9,0.8c0.3,0.3,0.5,0.7,0.6,1.2c0.1,0.5,0.2,1,0.2,1.6s-0.1,1.1-0.2,1.6c-0.1,0.5-0.3,0.9-0.6,1.2
		s-0.6,0.6-0.9,0.8c-0.4,0.2-0.8,0.3-1.2,0.3c-1,0-1.7-0.4-2.1-1.3h-0.1v1.2h-1.1V140.6z M382.5,150.2c0.6,0,1.1-0.2,1.5-0.6
		s0.5-0.9,0.5-1.6v-1.2c0-0.6-0.2-1.2-0.5-1.6c-0.4-0.4-0.9-0.6-1.5-0.6c-0.3,0-0.5,0-0.7,0.1c-0.2,0.1-0.4,0.2-0.6,0.3
		s-0.3,0.3-0.4,0.4c-0.1,0.2-0.1,0.4-0.1,0.6v2.7c0,0.2,0,0.4,0.1,0.6c0.1,0.2,0.2,0.3,0.4,0.5s0.4,0.2,0.6,0.3
		C382,150.1,382.3,150.2,382.5,150.2z"/>
	<path class="st8" d="M304.2,166.6c0-0.7,0.1-1.3,0.2-1.9c0.1-0.6,0.3-1.2,0.5-1.7c0.2-0.5,0.5-1,0.8-1.5c0.3-0.4,0.6-0.8,1-1.1h1.1
		c-0.4,0.4-0.7,0.8-1.1,1.2c-0.3,0.4-0.6,0.9-0.8,1.4c-0.2,0.5-0.4,1-0.5,1.5c-0.1,0.5-0.2,1-0.2,1.5v1.2c0,0.5,0.1,1,0.2,1.5
		c0.1,0.5,0.3,1,0.5,1.5s0.5,1,0.8,1.4c0.3,0.4,0.7,0.8,1,1.2h-1.1c-0.3-0.3-0.7-0.7-1-1.1c-0.3-0.4-0.6-0.9-0.8-1.5
		c-0.2-0.5-0.4-1.1-0.5-1.8C304.2,168,304.2,167.3,304.2,166.6z"/>
	<path class="st8" d="M314,162.1c0.4,0.9,0.6,2.1,0.6,3.5c0,1.4-0.2,2.6-0.6,3.5c-0.4,1-1.1,1.5-1.9,1.5s-1.5-0.5-1.9-1.5
		c-0.4-0.9-0.6-2-0.6-3.5c0-1.4,0.2-2.6,0.6-3.5c0.4-1,1.1-1.5,1.9-1.5S313.6,161.1,314,162.1z M310.8,162.6c-0.3,0.8-0.4,1.8-0.4,3
		c0,1.2,0.1,2.2,0.4,3c0.3,0.9,0.7,1.3,1.3,1.3c0.6,0,1-0.4,1.3-1.3c0.3-0.8,0.4-1.8,0.4-3c0-1.3-0.1-2.3-0.4-3
		c-0.3-0.9-0.7-1.3-1.3-1.3C311.5,161.3,311.1,161.7,310.8,162.6z M316.3,160.4c0.1-0.1,0.2-0.1,0.3-0.1c0.1,0,0.2,0,0.3,0.1
		c0.1,0.1,0.1,0.2,0.1,0.3v10.7c0,0.1,0,0.2-0.1,0.3c-0.1,0.1-0.2,0.1-0.3,0.1c-0.1,0-0.2,0-0.3-0.1c-0.1-0.1-0.1-0.2-0.1-0.3v-5.6
		h-1.8c-0.1,0-0.2,0-0.3-0.1c-0.1-0.1-0.1-0.1-0.1-0.2c0-0.1,0-0.2,0.1-0.2c0.1-0.1,0.2-0.1,0.3-0.1h1.9v-4.3
		C316.2,160.5,316.2,160.4,316.3,160.4z M319.5,171.6c-0.1,0.1-0.2,0.1-0.3,0.1c-0.1,0-0.2,0-0.3-0.1c-0.1-0.1-0.1-0.2-0.1-0.3
		v-10.6c0-0.1,0-0.2,0.1-0.3c0.1-0.1,0.2-0.1,0.3-0.1c0.1,0,0.2,0,0.3,0.1c0.1,0.1,0.1,0.2,0.1,0.3v10.6
		C319.6,171.4,319.5,171.5,319.5,171.6z"/>
	<path class="st8" d="M330.8,161c0,0.2-0.1,0.4-0.3,0.4h-2.7v2.2c0,1.4,0.3,2.7,0.9,3.9c0.6,1.1,1.4,2,2.3,2.5
		c0.1,0.1,0.2,0.2,0.2,0.3s0,0.2,0,0.3c-0.1,0.1-0.1,0.2-0.2,0.2c-0.1,0-0.2,0-0.4-0.1c-0.7-0.4-1.4-1-2-1.9c-0.6-0.9-1-1.8-1.2-2.8
		c-0.2,1-0.6,1.9-1.2,2.8c-0.6,0.9-1.3,1.5-2.1,1.9c-0.1,0.1-0.2,0.1-0.3,0c-0.1,0-0.2-0.1-0.2-0.2c-0.1-0.1-0.1-0.2,0-0.3
		c0-0.1,0.1-0.2,0.2-0.2c0.9-0.5,1.7-1.3,2.3-2.4c0.6-1.2,0.9-2.5,0.9-3.9v-2.2h-2.7c-0.3,0-0.4-0.1-0.4-0.4c0-0.2,0.1-0.3,0.4-0.3
		h6.2C330.7,160.7,330.8,160.8,330.8,161z M333.3,171.6c-0.1,0.1-0.2,0.1-0.3,0.1c-0.1,0-0.2,0-0.3-0.1c-0.1-0.1-0.1-0.2-0.1-0.3
		v-10.6c0-0.1,0-0.2,0.1-0.3c0.1-0.1,0.2-0.1,0.3-0.1c0.1,0,0.2,0,0.3,0.1c0.1,0.1,0.1,0.2,0.1,0.3v10.6
		C333.4,171.4,333.3,171.5,333.3,171.6z"/>
	<path class="st8" d="M344.5,160.7c0.1-0.1,0.2-0.1,0.3-0.1s0.2,0,0.3,0.1c0.1,0.1,0.1,0.2,0.1,0.3c0,0.5-0.1,1.1-0.2,1.8
		c-0.1,0.6-0.2,1.3-0.4,2c0.7,0.9,1.4,1.8,2,2.6c0.6,0.9,1.1,1.7,1.6,2.5c0.1,0.1,0.1,0.3,0,0.4c0,0.1-0.1,0.2-0.2,0.2
		c-0.1,0-0.2,0.1-0.3,0c-0.1,0-0.2-0.1-0.3-0.2c-0.4-0.7-0.8-1.5-1.4-2.4c-0.6-0.9-1.1-1.7-1.7-2.4c-0.3,0.8-0.6,1.5-0.9,2.2
		c-0.5,0.9-1,1.8-1.7,2.7c-0.1,0.1-0.2,0.1-0.3,0.2c-0.1,0-0.2,0-0.3-0.1c-0.1-0.1-0.1-0.1-0.1-0.2c0-0.1,0-0.2,0.2-0.3
		c0.9-1.2,1.7-2.6,2.3-4.4c0.6-1.6,0.8-3.2,0.8-4.6C344.3,160.8,344.4,160.7,344.5,160.7z M350.9,171.6c-0.1,0.1-0.2,0.1-0.3,0.1
		c-0.1,0-0.2,0-0.3-0.1c-0.1-0.1-0.1-0.2-0.1-0.3v-5.5h-3.6c-0.1,0-0.3,0-0.3-0.1c-0.1-0.1-0.1-0.1-0.1-0.2c0-0.1,0-0.2,0.1-0.2
		c0.1-0.1,0.2-0.1,0.3-0.1h3.7v-4.4c0-0.1,0-0.2,0.1-0.3c0.1-0.1,0.2-0.1,0.3-0.1c0.1,0,0.2,0,0.3,0.1c0.1,0.1,0.1,0.2,0.1,0.3v10.6
		C351,171.4,351,171.5,350.9,171.6z"/>
	<path class="st8" d="M361,160.6c0.3,0,0.4,0.1,0.4,0.4v8.4c0,0.3-0.1,0.6-0.3,0.8c-0.2,0.2-0.5,0.3-0.8,0.3h-3.5
		c-0.3,0-0.6-0.1-0.8-0.3c-0.2-0.2-0.3-0.5-0.3-0.8v-8.4c0-0.1,0-0.3,0.1-0.3c0.1-0.1,0.2-0.1,0.3-0.1s0.2,0,0.3,0.1
		c0.1,0.1,0.1,0.2,0.1,0.3v3.2h4.2V161C360.7,160.7,360.8,160.6,361,160.6z M356.5,164.9v4.4c0,0.2,0,0.3,0.1,0.4
		c0.1,0.1,0.2,0.1,0.4,0.1h3c0.2,0,0.4,0,0.5-0.1c0.1-0.1,0.2-0.2,0.2-0.4v-4.4H356.5z M365,171.6c-0.1,0.1-0.2,0.1-0.3,0.1
		c-0.1,0-0.2,0-0.3-0.1c-0.1-0.1-0.1-0.2-0.1-0.3v-10.6c0-0.1,0-0.2,0.1-0.3c0.1-0.1,0.2-0.1,0.3-0.1c0.1,0,0.2,0,0.3,0.1
		c0.1,0.1,0.1,0.2,0.1,0.3v10.6C365.2,171.4,365.1,171.5,365,171.6z"/>
	<path class="st8" d="M380.5,170.1c0.1,0.1,0.1,0.2,0.1,0.2c0,0.1,0,0.2-0.1,0.2c-0.1,0.1-0.2,0.1-0.3,0.1h-10.6
		c-0.3,0-0.4-0.1-0.4-0.4c0-0.2,0.1-0.3,0.4-0.3h10.6C380.3,170.1,380.4,170.1,380.5,170.1z M374.6,160.5c0.1-0.1,0.2-0.1,0.3-0.1
		c0.1,0,0.2,0,0.3,0.1c0.1,0.1,0.1,0.2,0.1,0.4c0,1.4,0.5,2.6,1.4,3.6c0.8,0.8,1.8,1.4,3,1.6c0.1,0,0.2,0.1,0.3,0.2
		c0.1,0.1,0.1,0.2,0.1,0.3c0,0.1-0.1,0.2-0.2,0.2c-0.1,0.1-0.2,0.1-0.4,0c-1.1-0.2-2-0.7-2.9-1.6c-0.8-0.8-1.4-1.6-1.7-2.5
		c-0.3,0.9-0.8,1.8-1.7,2.5c-0.9,0.8-1.9,1.4-3,1.6c-0.1,0-0.3,0-0.3-0.1c-0.1-0.1-0.1-0.1-0.2-0.2c0-0.1,0-0.2,0.1-0.3
		c0.1-0.1,0.2-0.2,0.3-0.2c1.1-0.2,2.1-0.8,3-1.6c1-1,1.5-2.2,1.5-3.6C374.5,160.7,374.6,160.6,374.6,160.5z"/>
	<path class="st8" d="M385.6,166.6c0,0.7-0.1,1.3-0.2,2c-0.1,0.6-0.3,1.2-0.5,1.8c-0.2,0.5-0.5,1-0.8,1.5c-0.3,0.4-0.6,0.8-1,1.1
		H382c0.4-0.3,0.7-0.7,1-1.2c0.3-0.4,0.6-0.9,0.8-1.4c0.2-0.5,0.4-1,0.5-1.5c0.1-0.5,0.2-1,0.2-1.5V166c0-0.5-0.1-1-0.2-1.5
		c-0.1-0.5-0.3-1-0.5-1.5c-0.2-0.5-0.5-1-0.8-1.4c-0.3-0.4-0.7-0.8-1.1-1.2h1.1c0.4,0.3,0.7,0.7,1,1.1c0.3,0.4,0.6,0.9,0.8,1.5
		c0.2,0.5,0.4,1.1,0.5,1.7C385.5,165.3,385.6,166,385.6,166.6z"/>
</g>
<g>
	<rect x="248.9" y="268.6" class="st7" width="192" height="39.6"/>
	<path class="st8" d="M340.8,279.8c0,0.7-0.3,1.3-0.9,1.6c-0.6,0.3-1.5,0.5-2.6,0.5c-1.1,0-1.9-0.2-2.4-0.5
		c-0.5-0.3-0.7-0.7-0.7-1.3c0-0.4,0.1-0.7,0.3-0.9c0.2-0.2,0.5-0.4,0.8-0.5v-0.2c-0.4-0.2-0.6-0.5-0.6-1c0-0.4,0.1-0.6,0.4-0.8
		c0.2-0.2,0.5-0.3,0.9-0.4v-0.1c-0.4-0.2-0.8-0.5-1-0.9s-0.4-0.8-0.4-1.3c0-0.4,0.1-0.7,0.2-1c0.1-0.3,0.3-0.6,0.6-0.8
		c0.2-0.2,0.5-0.4,0.9-0.5c0.3-0.1,0.7-0.2,1.1-0.2c0.5,0,1,0.1,1.4,0.3v-0.1c0-0.3,0.1-0.5,0.2-0.7s0.3-0.3,0.6-0.3h1.1v1h-1.4v0.5
		c0.3,0.2,0.5,0.5,0.6,0.8c0.1,0.3,0.2,0.7,0.2,1.1c0,0.4-0.1,0.7-0.2,1s-0.3,0.6-0.6,0.8c-0.2,0.2-0.5,0.4-0.9,0.5
		c-0.3,0.1-0.7,0.2-1.1,0.2c-0.2,0-0.5,0-0.7-0.1c-0.2,0.1-0.5,0.2-0.7,0.3c-0.2,0.1-0.3,0.3-0.3,0.5c0,0.2,0.1,0.4,0.3,0.4
		c0.2,0.1,0.5,0.1,0.8,0.1h1.5c0.9,0,1.5,0.2,2,0.5C340.6,278.7,340.8,279.2,340.8,279.8z M339.8,279.9c0-0.3-0.1-0.5-0.3-0.7
		c-0.2-0.2-0.6-0.3-1.2-0.3h-2.4c-0.4,0.2-0.7,0.5-0.7,1c0,0.3,0.1,0.6,0.4,0.8s0.6,0.3,1.2,0.3h1c0.6,0,1.1-0.1,1.5-0.3
		C339.6,280.6,339.8,280.3,339.8,279.9z M337.3,275.7c0.5,0,0.9-0.1,1.1-0.3c0.3-0.2,0.4-0.6,0.4-1.1v-0.4c0-0.5-0.1-0.8-0.4-1.1
		c-0.3-0.2-0.7-0.3-1.1-0.3c-0.5,0-0.9,0.1-1.1,0.3c-0.3,0.2-0.4,0.6-0.4,1.1v0.4c0,0.5,0.1,0.8,0.4,1.1S336.8,275.7,337.3,275.7z"
		/>
	<path class="st8" d="M342.3,271.8h1.1v1.2h0.1c0.2-0.5,0.5-0.8,0.8-1s0.8-0.3,1.3-0.3c0.4,0,0.9,0.1,1.2,0.3
		c0.4,0.2,0.7,0.4,0.9,0.8s0.5,0.7,0.6,1.2c0.1,0.5,0.2,1,0.2,1.6c0,0.6-0.1,1.1-0.2,1.6c-0.1,0.5-0.3,0.9-0.6,1.2
		c-0.3,0.3-0.6,0.6-0.9,0.8c-0.4,0.2-0.8,0.3-1.2,0.3c-1,0-1.7-0.4-2.1-1.3h-0.1v4h-1.1V271.8z M345.3,278.2c0.6,0,1.1-0.2,1.5-0.6
		s0.5-0.9,0.5-1.6v-1.2c0-0.6-0.2-1.2-0.5-1.6c-0.4-0.4-0.9-0.6-1.5-0.6c-0.3,0-0.5,0-0.7,0.1c-0.2,0.1-0.4,0.2-0.6,0.3
		s-0.3,0.3-0.4,0.4c-0.1,0.2-0.1,0.4-0.1,0.6v2.7c0,0.2,0,0.4,0.1,0.6c0.1,0.2,0.2,0.3,0.4,0.5c0.2,0.1,0.4,0.2,0.6,0.3
		C344.8,278.1,345,278.2,345.3,278.2z"/>
	<path class="st8" d="M352.7,279.2c-0.7,0-1.2-0.1-1.7-0.4c-0.5-0.3-0.8-0.6-1.2-1l0.8-0.6c0.3,0.4,0.6,0.6,0.9,0.8
		c0.3,0.2,0.7,0.3,1.2,0.3c0.5,0,0.8-0.1,1.1-0.3c0.3-0.2,0.4-0.5,0.4-0.9c0-0.3-0.1-0.5-0.3-0.7c-0.2-0.2-0.5-0.3-1-0.4l-0.6-0.1
		c-0.3,0-0.6-0.1-0.9-0.2c-0.3-0.1-0.5-0.2-0.7-0.4s-0.4-0.4-0.5-0.6c-0.1-0.2-0.2-0.5-0.2-0.9c0-0.4,0.1-0.7,0.2-0.9
		s0.3-0.5,0.5-0.7c0.2-0.2,0.5-0.3,0.8-0.4c0.3-0.1,0.7-0.1,1-0.1c0.6,0,1.1,0.1,1.5,0.3c0.4,0.2,0.7,0.5,1,0.9l-0.7,0.7
		c-0.2-0.2-0.4-0.4-0.7-0.6c-0.3-0.2-0.7-0.3-1.2-0.3s-0.8,0.1-1.1,0.3c-0.2,0.2-0.4,0.5-0.4,0.8c0,0.4,0.1,0.6,0.4,0.8
		c0.2,0.2,0.6,0.3,1,0.3l0.6,0.1c0.8,0.1,1.4,0.4,1.7,0.7s0.5,0.8,0.5,1.3c0,0.7-0.2,1.3-0.7,1.7C354.2,279,353.6,279.2,352.7,279.2
		z"/>
	<path class="st8" d="M304.2,294.6c0-0.7,0.1-1.3,0.2-1.9c0.1-0.6,0.3-1.2,0.5-1.7c0.2-0.5,0.5-1,0.8-1.5c0.3-0.4,0.6-0.8,1-1.1h1.1
		c-0.4,0.4-0.7,0.8-1.1,1.2c-0.3,0.4-0.6,0.9-0.8,1.4c-0.2,0.5-0.4,1-0.5,1.5c-0.1,0.5-0.2,1-0.2,1.5v1.2c0,0.5,0.1,1,0.2,1.5
		c0.1,0.5,0.3,1,0.5,1.5s0.5,1,0.8,1.4c0.3,0.4,0.7,0.8,1,1.2h-1.1c-0.3-0.3-0.7-0.7-1-1.1c-0.3-0.4-0.6-0.9-0.8-1.5
		c-0.2-0.5-0.4-1.1-0.5-1.8C304.2,296,304.2,295.3,304.2,294.6z"/>
	<path class="st8" d="M314,290.1c0.4,0.9,0.6,2.1,0.6,3.5c0,1.4-0.2,2.6-0.6,3.5c-0.4,1-1.1,1.5-1.9,1.5c-0.8,0-1.5-0.5-1.9-1.5
		c-0.4-0.9-0.6-2-0.6-3.5c0-1.4,0.2-2.6,0.6-3.5c0.4-1,1.1-1.5,1.9-1.5C312.9,288.6,313.6,289.1,314,290.1z M310.8,290.6
		c-0.3,0.8-0.4,1.8-0.4,3c0,1.2,0.1,2.2,0.4,3c0.3,0.9,0.7,1.3,1.3,1.3c0.6,0,1-0.4,1.3-1.3c0.3-0.8,0.4-1.8,0.4-3
		c0-1.3-0.1-2.3-0.4-3c-0.3-0.9-0.7-1.3-1.3-1.3C311.5,289.3,311.1,289.7,310.8,290.6z M316.3,288.4c0.1-0.1,0.2-0.1,0.3-0.1
		c0.1,0,0.2,0,0.3,0.1c0.1,0.1,0.1,0.2,0.1,0.3v10.7c0,0.1,0,0.2-0.1,0.3c-0.1,0.1-0.2,0.1-0.3,0.1c-0.1,0-0.2,0-0.3-0.1
		c-0.1-0.1-0.1-0.2-0.1-0.3v-5.6h-1.8c-0.1,0-0.2,0-0.3-0.1c-0.1-0.1-0.1-0.1-0.1-0.2c0-0.1,0-0.2,0.1-0.2c0.1-0.1,0.2-0.1,0.3-0.1
		h1.9v-4.3C316.2,288.5,316.3,288.4,316.3,288.4z M319.5,299.6c-0.1,0.1-0.2,0.1-0.3,0.1c-0.1,0-0.2,0-0.3-0.1
		c-0.1-0.1-0.1-0.2-0.1-0.3v-10.6c0-0.1,0-0.2,0.1-0.3c0.1-0.1,0.2-0.1,0.3-0.1c0.1,0,0.2,0,0.3,0.1c0.1,0.1,0.1,0.2,0.1,0.3v10.6
		C319.6,299.4,319.6,299.5,319.5,299.6z"/>
	<path class="st8" d="M330.8,289c0,0.2-0.1,0.4-0.3,0.4h-2.7v2.2c0,1.4,0.3,2.7,0.9,3.9c0.6,1.1,1.4,2,2.3,2.5
		c0.1,0.1,0.2,0.2,0.2,0.3s0,0.2,0,0.3c-0.1,0.1-0.1,0.2-0.2,0.2c-0.1,0-0.2,0-0.4-0.1c-0.7-0.4-1.4-1-2-1.9c-0.6-0.9-1-1.8-1.2-2.8
		c-0.2,1-0.6,1.9-1.2,2.8c-0.6,0.9-1.3,1.5-2.1,1.9c-0.1,0.1-0.2,0.1-0.3,0c-0.1,0-0.2-0.1-0.2-0.2c-0.1-0.1-0.1-0.2,0-0.3
		c0-0.1,0.1-0.2,0.2-0.2c0.9-0.5,1.7-1.3,2.3-2.4c0.6-1.2,0.9-2.5,0.9-3.9v-2.2h-2.7c-0.3,0-0.4-0.1-0.4-0.4c0-0.2,0.1-0.3,0.4-0.3
		h6.2C330.7,288.7,330.8,288.8,330.8,289z M333.3,299.6c-0.1,0.1-0.2,0.1-0.3,0.1c-0.1,0-0.2,0-0.3-0.1c-0.1-0.1-0.1-0.2-0.1-0.3
		v-10.6c0-0.1,0-0.2,0.1-0.3c0.1-0.1,0.2-0.1,0.3-0.1c0.1,0,0.2,0,0.3,0.1c0.1,0.1,0.1,0.2,0.1,0.3v10.6
		C333.4,299.4,333.4,299.5,333.3,299.6z"/>
	<path class="st8" d="M344.5,288.7c0.1-0.1,0.2-0.1,0.3-0.1s0.2,0,0.3,0.1c0.1,0.1,0.1,0.2,0.1,0.3c0,0.5-0.1,1.1-0.2,1.8
		c-0.1,0.6-0.2,1.3-0.4,2c0.7,0.9,1.4,1.8,2,2.6c0.6,0.9,1.1,1.7,1.6,2.5c0.1,0.1,0.1,0.3,0,0.4c0,0.1-0.1,0.2-0.2,0.2
		c-0.1,0-0.2,0.1-0.3,0c-0.1,0-0.2-0.1-0.3-0.2c-0.4-0.7-0.8-1.5-1.4-2.4c-0.6-0.9-1.1-1.7-1.7-2.4c-0.3,0.8-0.6,1.5-0.9,2.2
		c-0.5,0.9-1,1.8-1.7,2.7c-0.1,0.1-0.2,0.1-0.3,0.2c-0.1,0-0.2,0-0.3-0.1c-0.1-0.1-0.1-0.1-0.1-0.2c0-0.1,0-0.2,0.2-0.3
		c0.9-1.2,1.7-2.6,2.3-4.4c0.6-1.6,0.8-3.2,0.8-4.6C344.3,288.8,344.4,288.7,344.5,288.7z M350.9,299.6c-0.1,0.1-0.2,0.1-0.3,0.1
		c-0.1,0-0.2,0-0.3-0.1c-0.1-0.1-0.1-0.2-0.1-0.3v-5.5h-3.6c-0.1,0-0.3,0-0.3-0.1c-0.1-0.1-0.1-0.1-0.1-0.2c0-0.1,0-0.2,0.1-0.2
		c0.1-0.1,0.2-0.1,0.3-0.1h3.7v-4.4c0-0.1,0-0.2,0.1-0.3c0.1-0.1,0.2-0.1,0.3-0.1c0.1,0,0.2,0,0.3,0.1c0.1,0.1,0.1,0.2,0.1,0.3v10.6
		C351,299.4,351,299.5,350.9,299.6z"/>
	<path class="st8" d="M361.1,288.6c0.3,0,0.4,0.1,0.4,0.4v8.4c0,0.3-0.1,0.6-0.3,0.8c-0.2,0.2-0.5,0.3-0.8,0.3h-3.5
		c-0.3,0-0.6-0.1-0.8-0.3c-0.2-0.2-0.3-0.5-0.3-0.8v-8.4c0-0.1,0-0.3,0.1-0.3c0.1-0.1,0.2-0.1,0.3-0.1s0.2,0,0.3,0.1
		c0.1,0.1,0.1,0.2,0.1,0.3v3.2h4.2V289C360.7,288.7,360.8,288.6,361.1,288.6z M356.5,292.9v4.4c0,0.2,0,0.3,0.1,0.4
		c0.1,0.1,0.2,0.1,0.4,0.1h3c0.2,0,0.4,0,0.5-0.1c0.1-0.1,0.2-0.2,0.2-0.4v-4.4H356.5z M365,299.6c-0.1,0.1-0.2,0.1-0.3,0.1
		c-0.1,0-0.2,0-0.3-0.1c-0.1-0.1-0.1-0.2-0.1-0.3v-10.6c0-0.1,0-0.2,0.1-0.3c0.1-0.1,0.2-0.1,0.3-0.1c0.1,0,0.2,0,0.3,0.1
		c0.1,0.1,0.1,0.2,0.1,0.3v10.6C365.2,299.4,365.1,299.5,365,299.6z"/>
	<path class="st8" d="M380.5,298.2c0.1,0.1,0.1,0.2,0.1,0.2s0,0.2-0.1,0.2c-0.1,0.1-0.2,0.1-0.3,0.1h-10.6c-0.3,0-0.4-0.1-0.4-0.4
		c0-0.2,0.1-0.3,0.4-0.3h10.6C380.4,298.1,380.5,298.1,380.5,298.2z M374.6,288.5c0.1-0.1,0.2-0.1,0.3-0.1c0.1,0,0.2,0,0.3,0.1
		c0.1,0.1,0.1,0.2,0.1,0.4c0,1.4,0.5,2.6,1.4,3.6c0.8,0.8,1.8,1.4,3,1.6c0.1,0,0.2,0.1,0.3,0.2c0.1,0.1,0.1,0.2,0.1,0.3
		c0,0.1-0.1,0.2-0.2,0.2c-0.1,0.1-0.2,0.1-0.4,0c-1.1-0.2-2-0.7-2.9-1.6c-0.8-0.8-1.4-1.6-1.7-2.5c-0.3,0.9-0.8,1.8-1.7,2.5
		c-0.9,0.8-1.9,1.4-3,1.6c-0.1,0-0.3,0-0.3-0.1c-0.1-0.1-0.1-0.1-0.2-0.2c0-0.1,0-0.2,0.1-0.3c0.1-0.1,0.2-0.2,0.3-0.2
		c1.1-0.2,2.1-0.8,3-1.6c1-1,1.5-2.2,1.5-3.6C374.5,288.7,374.6,288.6,374.6,288.5z"/>
	<path class="st8" d="M385.6,294.6c0,0.7-0.1,1.3-0.2,2c-0.1,0.6-0.3,1.2-0.5,1.8c-0.2,0.5-0.5,1-0.8,1.5c-0.3,0.4-0.6,0.8-1,1.1
		H382c0.4-0.3,0.7-0.7,1-1.2c0.3-0.4,0.6-0.9,0.8-1.4c0.2-0.5,0.4-1,0.5-1.5c0.1-0.5,0.2-1,0.2-1.5V294c0-0.5-0.1-1-0.2-1.5
		c-0.1-0.5-0.3-1-0.5-1.5c-0.2-0.5-0.5-1-0.8-1.4c-0.3-0.4-0.7-0.8-1.1-1.2h1.1c0.4,0.3,0.7,0.7,1,1.1c0.3,0.4,0.6,0.9,0.8,1.5
		c0.2,0.5,0.4,1.1,0.5,1.7C385.5,293.3,385.6,294,385.6,294.6z"/>
</g>
<g>
	<rect x="40.9" y="268.6" class="st7" width="192" height="39.6"/>
	<path class="st8" d="M129.1,279.2c-0.5,0-1-0.1-1.4-0.3c-0.4-0.2-0.7-0.4-1-0.8c-0.3-0.3-0.5-0.7-0.6-1.2c-0.1-0.5-0.2-1-0.2-1.6
		c0-0.6,0.1-1.1,0.2-1.6c0.1-0.5,0.4-0.9,0.6-1.2s0.6-0.6,1-0.8c0.4-0.2,0.9-0.3,1.4-0.3c0.7,0,1.3,0.2,1.7,0.5s0.8,0.7,1,1.2
		l-0.9,0.5c-0.1-0.4-0.3-0.7-0.6-0.9c-0.3-0.2-0.7-0.3-1.1-0.3c-0.3,0-0.6,0.1-0.9,0.2s-0.5,0.3-0.6,0.4s-0.3,0.4-0.4,0.7
		c-0.1,0.3-0.1,0.6-0.1,0.9v1.2c0,0.6,0.2,1.2,0.5,1.6c0.3,0.4,0.8,0.6,1.5,0.6c0.9,0,1.6-0.4,2-1.3l0.8,0.5c-0.2,0.5-0.6,0.9-1,1.2
		C130.3,279,129.7,279.2,129.1,279.2z"/>
	<path class="st8" d="M133.6,271.8h1.1v1.2h0.1c0.2-0.5,0.5-0.8,0.8-1c0.4-0.2,0.8-0.3,1.3-0.3c0.4,0,0.9,0.1,1.2,0.3
		c0.4,0.2,0.7,0.4,0.9,0.8s0.5,0.7,0.6,1.2c0.1,0.5,0.2,1,0.2,1.6c0,0.6-0.1,1.1-0.2,1.6s-0.3,0.9-0.6,1.2c-0.3,0.3-0.6,0.6-0.9,0.8
		c-0.4,0.2-0.8,0.3-1.2,0.3c-1,0-1.7-0.4-2.1-1.3h-0.1v4h-1.1V271.8z M136.5,278.2c0.6,0,1.1-0.2,1.5-0.6c0.4-0.4,0.5-0.9,0.5-1.6
		v-1.2c0-0.6-0.2-1.2-0.5-1.6c-0.4-0.4-0.9-0.6-1.5-0.6c-0.3,0-0.5,0-0.7,0.1c-0.2,0.1-0.4,0.2-0.6,0.3s-0.3,0.3-0.4,0.4
		c-0.1,0.2-0.1,0.4-0.1,0.6v2.7c0,0.2,0,0.4,0.1,0.6c0.1,0.2,0.2,0.3,0.4,0.5c0.2,0.1,0.4,0.2,0.6,0.3
		C136.1,278.1,136.3,278.2,136.5,278.2z"/>
	<path class="st8" d="M146.3,277.8L146.3,277.8c-0.1,0.2-0.2,0.3-0.3,0.5c-0.1,0.2-0.2,0.3-0.4,0.4s-0.4,0.2-0.6,0.3
		c-0.2,0.1-0.5,0.1-0.8,0.1c-0.7,0-1.3-0.2-1.8-0.7c-0.4-0.5-0.7-1.2-0.7-2v-4.6h1.1v4.4c0,1.3,0.6,2,1.7,2c0.2,0,0.4,0,0.7-0.1
		c0.2-0.1,0.4-0.1,0.6-0.3c0.2-0.1,0.3-0.3,0.4-0.4c0.1-0.2,0.1-0.4,0.1-0.6v-5h1.1v7.2h-1.1V277.8z"/>
	<path class="st8" d="M96.2,294.6c0-0.7,0.1-1.3,0.2-1.9c0.1-0.6,0.3-1.2,0.5-1.7c0.2-0.5,0.5-1,0.8-1.5c0.3-0.4,0.6-0.8,1-1.1h1.1
		c-0.4,0.4-0.7,0.8-1.1,1.2c-0.3,0.4-0.6,0.9-0.8,1.4c-0.2,0.5-0.4,1-0.5,1.5c-0.1,0.5-0.2,1-0.2,1.5v1.2c0,0.5,0.1,1,0.2,1.5
		c0.1,0.5,0.3,1,0.5,1.5s0.5,1,0.8,1.4c0.3,0.4,0.7,0.8,1,1.2h-1.1c-0.3-0.3-0.7-0.7-1-1.1c-0.3-0.4-0.6-0.9-0.8-1.5
		c-0.2-0.5-0.4-1.1-0.5-1.8C96.2,296,96.2,295.3,96.2,294.6z"/>
	<path class="st8" d="M106,290.1c0.4,0.9,0.6,2.1,0.6,3.5c0,1.4-0.2,2.6-0.6,3.5c-0.4,1-1.1,1.5-1.9,1.5c-0.8,0-1.5-0.5-1.9-1.5
		c-0.4-0.9-0.6-2-0.6-3.5c0-1.4,0.2-2.6,0.6-3.5c0.4-1,1.1-1.5,1.9-1.5C104.9,288.6,105.6,289.1,106,290.1z M102.8,290.6
		c-0.3,0.8-0.4,1.8-0.4,3c0,1.2,0.1,2.2,0.4,3c0.3,0.9,0.7,1.3,1.3,1.3c0.6,0,1-0.4,1.3-1.3c0.3-0.8,0.4-1.8,0.4-3
		c0-1.3-0.1-2.3-0.4-3c-0.3-0.9-0.7-1.3-1.3-1.3C103.5,289.3,103.1,289.7,102.8,290.6z M108.3,288.4c0.1-0.1,0.2-0.1,0.3-0.1
		c0.1,0,0.2,0,0.3,0.1c0.1,0.1,0.1,0.2,0.1,0.3v10.7c0,0.1,0,0.2-0.1,0.3c-0.1,0.1-0.2,0.1-0.3,0.1c-0.1,0-0.2,0-0.3-0.1
		c-0.1-0.1-0.1-0.2-0.1-0.3v-5.6h-1.8c-0.1,0-0.2,0-0.3-0.1c-0.1-0.1-0.1-0.1-0.1-0.2c0-0.1,0-0.2,0.1-0.2c0.1-0.1,0.2-0.1,0.3-0.1
		h1.9v-4.3C108.2,288.5,108.3,288.4,108.3,288.4z M111.5,299.6c-0.1,0.1-0.2,0.1-0.3,0.1c-0.1,0-0.2,0-0.3-0.1
		c-0.1-0.1-0.1-0.2-0.1-0.3v-10.6c0-0.1,0-0.2,0.1-0.3c0.1-0.1,0.2-0.1,0.3-0.1c0.1,0,0.2,0,0.3,0.1c0.1,0.1,0.1,0.2,0.1,0.3v10.6
		C111.6,299.4,111.6,299.5,111.5,299.6z"/>
	<path class="st8" d="M122.8,289c0,0.2-0.1,0.4-0.3,0.4h-2.7v2.2c0,1.4,0.3,2.7,0.9,3.9c0.6,1.1,1.4,2,2.3,2.5
		c0.1,0.1,0.2,0.2,0.2,0.3s0,0.2,0,0.3c-0.1,0.1-0.1,0.2-0.2,0.2c-0.1,0-0.2,0-0.4-0.1c-0.7-0.4-1.4-1-2-1.9c-0.6-0.9-1-1.8-1.2-2.8
		c-0.2,1-0.6,1.9-1.2,2.8c-0.6,0.9-1.3,1.5-2.1,1.9c-0.1,0.1-0.2,0.1-0.3,0c-0.1,0-0.2-0.1-0.2-0.2c-0.1-0.1-0.1-0.2,0-0.3
		c0-0.1,0.1-0.2,0.2-0.2c0.9-0.5,1.7-1.3,2.3-2.4c0.6-1.2,0.9-2.5,0.9-3.9v-2.2h-2.7c-0.3,0-0.4-0.1-0.4-0.4c0-0.2,0.1-0.3,0.4-0.3
		h6.2C122.7,288.7,122.8,288.8,122.8,289z M125.3,299.6c-0.1,0.1-0.2,0.1-0.3,0.1c-0.1,0-0.2,0-0.3-0.1c-0.1-0.1-0.1-0.2-0.1-0.3
		v-10.6c0-0.1,0-0.2,0.1-0.3c0.1-0.1,0.2-0.1,0.3-0.1c0.1,0,0.2,0,0.3,0.1c0.1,0.1,0.1,0.2,0.1,0.3v10.6
		C125.4,299.4,125.4,299.5,125.3,299.6z"/>
	<path class="st8" d="M136.5,288.7c0.1-0.1,0.2-0.1,0.3-0.1s0.2,0,0.3,0.1c0.1,0.1,0.1,0.2,0.1,0.3c0,0.5-0.1,1.1-0.2,1.8
		c-0.1,0.6-0.2,1.3-0.4,2c0.7,0.9,1.4,1.8,2,2.6c0.6,0.9,1.1,1.7,1.6,2.5c0.1,0.1,0.1,0.3,0,0.4c0,0.1-0.1,0.2-0.2,0.2
		c-0.1,0-0.2,0.1-0.3,0c-0.1,0-0.2-0.1-0.3-0.2c-0.4-0.7-0.8-1.5-1.4-2.4c-0.6-0.9-1.1-1.7-1.7-2.4c-0.3,0.8-0.6,1.5-0.9,2.2
		c-0.5,0.9-1,1.8-1.7,2.7c-0.1,0.1-0.2,0.1-0.3,0.2c-0.1,0-0.2,0-0.3-0.1c-0.1-0.1-0.1-0.1-0.1-0.2c0-0.1,0-0.2,0.2-0.3
		c0.9-1.2,1.7-2.6,2.3-4.4c0.6-1.6,0.8-3.2,0.8-4.6C136.3,288.8,136.4,288.7,136.5,288.7z M142.9,299.6c-0.1,0.1-0.2,0.1-0.3,0.1
		c-0.1,0-0.2,0-0.3-0.1c-0.1-0.1-0.1-0.2-0.1-0.3v-5.5h-3.6c-0.1,0-0.3,0-0.3-0.1c-0.1-0.1-0.1-0.1-0.1-0.2c0-0.1,0-0.2,0.1-0.2
		c0.1-0.1,0.2-0.1,0.3-0.1h3.7v-4.4c0-0.1,0-0.2,0.1-0.3c0.1-0.1,0.2-0.1,0.3-0.1c0.1,0,0.2,0,0.3,0.1c0.1,0.1,0.1,0.2,0.1,0.3v10.6
		C143,299.4,143,299.5,142.9,299.6z"/>
	<path class="st8" d="M153.1,288.6c0.3,0,0.4,0.1,0.4,0.4v8.4c0,0.3-0.1,0.6-0.3,0.8c-0.2,0.2-0.5,0.3-0.8,0.3h-3.5
		c-0.3,0-0.6-0.1-0.8-0.3c-0.2-0.2-0.3-0.5-0.3-0.8v-8.4c0-0.1,0-0.3,0.1-0.3c0.1-0.1,0.2-0.1,0.3-0.1s0.2,0,0.3,0.1
		c0.1,0.1,0.1,0.2,0.1,0.3v3.2h4.2V289C152.7,288.7,152.8,288.6,153.1,288.6z M148.5,292.9v4.4c0,0.2,0,0.3,0.1,0.4
		c0.1,0.1,0.2,0.1,0.4,0.1h3c0.2,0,0.4,0,0.5-0.1c0.1-0.1,0.2-0.2,0.2-0.4v-4.4H148.5z M157,299.6c-0.1,0.1-0.2,0.1-0.3,0.1
		c-0.1,0-0.2,0-0.3-0.1c-0.1-0.1-0.1-0.2-0.1-0.3v-10.6c0-0.1,0-0.2,0.1-0.3c0.1-0.1,0.2-0.1,0.3-0.1c0.1,0,0.2,0,0.3,0.1
		c0.1,0.1,0.1,0.2,0.1,0.3v10.6C157.2,299.4,157.1,299.5,157,299.6z"/>
	<path class="st8" d="M172.5,298.2c0.1,0.1,0.1,0.2,0.1,0.2s0,0.2-0.1,0.2c-0.1,0.1-0.2,0.1-0.3,0.1h-10.6c-0.3,0-0.4-0.1-0.4-0.4
		c0-0.2,0.1-0.3,0.4-0.3h10.6C172.4,298.1,172.5,298.1,172.5,298.2z M166.7,288.5c0.1-0.1,0.2-0.1,0.3-0.1c0.1,0,0.2,0,0.3,0.1
		c0.1,0.1,0.1,0.2,0.1,0.4c0,1.4,0.5,2.6,1.4,3.6c0.8,0.8,1.8,1.4,3,1.6c0.1,0,0.2,0.1,0.3,0.2c0.1,0.1,0.1,0.2,0.1,0.3
		c0,0.1-0.1,0.2-0.2,0.2c-0.1,0.1-0.2,0.1-0.4,0c-1.1-0.2-2-0.7-2.9-1.6c-0.8-0.8-1.4-1.6-1.7-2.5c-0.3,0.9-0.8,1.8-1.7,2.5
		c-0.9,0.8-1.9,1.4-3,1.6c-0.1,0-0.3,0-0.3-0.1c-0.1-0.1-0.1-0.1-0.2-0.2c0-0.1,0-0.2,0.1-0.3c0.1-0.1,0.2-0.2,0.3-0.2
		c1.1-0.2,2.1-0.8,3-1.6c1-1,1.5-2.2,1.5-3.6C166.5,288.7,166.6,288.6,166.7,288.5z"/>
	<path class="st8" d="M177.6,294.6c0,0.7-0.1,1.3-0.2,2c-0.1,0.6-0.3,1.2-0.5,1.8c-0.2,0.5-0.5,1-0.8,1.5c-0.3,0.4-0.6,0.8-1,1.1
		H174c0.4-0.3,0.7-0.7,1-1.2c0.3-0.4,0.6-0.9,0.8-1.4c0.2-0.5,0.4-1,0.5-1.5c0.1-0.5,0.2-1,0.2-1.5V294c0-0.5-0.1-1-0.2-1.5
		c-0.1-0.5-0.3-1-0.5-1.5c-0.2-0.5-0.5-1-0.8-1.4c-0.3-0.4-0.7-0.8-1.1-1.2h1.1c0.4,0.3,0.7,0.7,1,1.1c0.3,0.4,0.6,0.9,0.8,1.5
		c0.2,0.5,0.4,1.1,0.5,1.7C177.5,293.3,177.6,294,177.6,294.6z"/>
</g>
<g>
	<rect x="265" y="408.2" class="st7" width="161" height="15.6"/>
	<path class="st9" d="M305.5,410.3c0.1,0.1,0.1,0.2,0.1,0.3c0,0.1,0,0.2-0.1,0.3c-0.1,0.1-0.2,0.1-0.3,0.1h-7.5
		c-0.3,0-0.4-0.1-0.4-0.4s0.1-0.4,0.4-0.4h7.4C305.3,410.2,305.4,410.3,305.5,410.3z M304.2,413.4c0.6,0.7,0.9,1.6,0.9,2.6
		s-0.3,1.9-0.9,2.6c-0.7,0.8-1.6,1.2-2.7,1.2c-1.2,0-2.1-0.4-2.8-1.2c-0.6-0.7-0.9-1.6-0.9-2.6c0-1,0.3-1.9,0.9-2.6
		c0.7-0.8,1.6-1.2,2.8-1.2C302.6,412.2,303.5,412.6,304.2,413.4z M299.4,413.9c-0.5,0.5-0.7,1.2-0.7,2c0,0.8,0.2,1.5,0.7,2
		c0.5,0.6,1.2,0.9,2.1,0.9c0.9,0,1.5-0.3,2-0.9c0.5-0.5,0.7-1.2,0.7-2c0-0.8-0.2-1.5-0.7-2c-0.5-0.6-1.2-0.9-2-0.9
		C300.6,413,299.9,413.3,299.4,413.9z M303.9,408.4c0,0.3-0.1,0.4-0.4,0.4h-4.1c-0.3,0-0.4-0.1-0.4-0.4c0-0.3,0.1-0.4,0.4-0.4h4.1
		C303.8,408,303.9,408.1,303.9,408.4z M309.9,413.9c0.3,0,0.4,0.1,0.4,0.4c0,0.3-0.1,0.4-0.4,0.4h-1.7v5.7c0,0.1-0.1,0.2-0.2,0.3
		c-0.1,0.1-0.2,0.1-0.3,0.1s-0.2,0-0.3-0.1c-0.1-0.1-0.1-0.2-0.1-0.3v-12.2c0-0.1,0-0.2,0.1-0.3c0.1-0.1,0.2-0.1,0.3-0.1
		s0.2,0,0.3,0.1c0.1,0.1,0.2,0.2,0.2,0.3v5.7H309.9z"/>
	<path class="st9" d="M326,419c0.1,0.1,0.1,0.2,0.1,0.3s0,0.2-0.1,0.3c-0.1,0.1-0.2,0.1-0.3,0.1h-12.1c-0.3,0-0.5-0.1-0.5-0.4
		c0-0.3,0.2-0.4,0.5-0.4h12.1C325.8,418.9,325.9,419,326,419z M324.8,408.3c0.1,0.1,0.1,0.2,0.1,0.3c0,0.1,0,0.2-0.1,0.3
		c-0.1,0.1-0.2,0.1-0.3,0.1h-8.6c-0.2,0-0.4,0-0.5,0.1c-0.1,0.1-0.2,0.2-0.2,0.4v4c0,0.2,0,0.3,0.1,0.4c0.1,0.1,0.3,0.1,0.5,0.1h8.8
		c0.3,0,0.4,0.1,0.4,0.4c0,0.3-0.1,0.4-0.4,0.4h-8.9c-0.5,0-0.8-0.1-1.1-0.4c-0.3-0.3-0.4-0.6-0.4-1v-3.7c0-0.5,0.1-0.9,0.4-1.1
		c0.3-0.3,0.7-0.4,1.2-0.4h8.5C324.6,408.1,324.7,408.2,324.8,408.3z"/>
	<path class="st9" d="M330.9,415.5c-0.5,0-1,0-1.5,0c-0.3,0-0.4-0.1-0.4-0.4s0.1-0.4,0.4-0.4c0.8,0,1.9,0,3.2-0.1
		c1.6-0.1,2.8-0.1,3.7-0.2c0.3-0.1,0.5,0.1,0.5,0.3c0,0.3-0.1,0.4-0.5,0.5c-0.3,0-0.6,0.1-1.1,0.1c-0.3,0-0.7,0.1-1.3,0.1l-0.6,0
		v1.6c0,0.6-0.1,1.2-0.3,1.8c-0.2,0.5-0.4,0.9-0.7,1.3c-0.2,0.2-0.4,0.3-0.7,0.1c-0.2-0.2-0.3-0.4-0.1-0.6c0.3-0.4,0.5-0.7,0.6-1.1
		c0.1-0.4,0.2-0.8,0.2-1.3v-1.6C332,415.5,331.5,415.5,330.9,415.5z M335.4,408.9c0.6,0.5,0.8,1.1,0.8,1.8s-0.3,1.3-0.8,1.8
		c-0.6,0.6-1.5,0.8-2.5,0.8c-1.1,0-1.9-0.3-2.5-0.8c-0.6-0.5-0.8-1.1-0.8-1.8s0.3-1.3,0.8-1.8c0.6-0.5,1.5-0.8,2.5-0.8
		C333.9,408.1,334.8,408.3,335.4,408.9z M331.1,409.4c-0.4,0.3-0.6,0.8-0.6,1.3c0,0.5,0.2,0.9,0.6,1.2c0.4,0.4,1.1,0.6,1.8,0.6
		c0.8,0,1.4-0.2,1.8-0.6c0.4-0.3,0.6-0.7,0.6-1.2c0-0.5-0.2-0.9-0.6-1.3c-0.5-0.4-1.1-0.6-1.8-0.6
		C332.1,408.9,331.5,409,331.1,409.4z M338.2,420.7c-0.1,0.1-0.2,0.1-0.3,0.1c-0.1,0-0.2,0-0.3-0.1c-0.1-0.1-0.1-0.2-0.1-0.4v-3
		h-1.9c-0.3,0-0.5-0.1-0.5-0.4c0-0.3,0.1-0.4,0.5-0.4h1.9v-8.3c0-0.1,0-0.2,0.1-0.3c0.1-0.1,0.2-0.1,0.3-0.1c0.1,0,0.2,0,0.3,0.1
		c0.1,0.1,0.2,0.2,0.2,0.3v12.2C338.3,420.5,338.3,420.6,338.2,420.7z M340.9,420.7c-0.1,0.1-0.2,0.1-0.3,0.1c-0.1,0-0.2,0-0.3-0.1
		c-0.1-0.1-0.1-0.2-0.1-0.4v-12.1c0-0.1,0-0.2,0.1-0.3c0.1-0.1,0.2-0.1,0.3-0.1c0.1,0,0.2,0,0.3,0.1c0.1,0.1,0.2,0.2,0.2,0.3v12.2
		C341.1,420.5,341,420.6,340.9,420.7z"/>
	<path class="st9" d="M351.8,409.9c0.6,1.1,0.9,2.4,0.9,4c0,1.6-0.3,2.9-0.9,4c-0.6,1.2-1.5,1.8-2.7,1.8c-1.1,0-2-0.6-2.7-1.8
		c-0.6-1.1-0.9-2.4-0.9-4c0-1.6,0.3-2.9,0.9-4c0.7-1.2,1.6-1.7,2.7-1.7C350.3,408.1,351.2,408.7,351.8,409.9z M347.2,410.4
		c-0.4,0.9-0.7,2.1-0.7,3.5c0,1.4,0.2,2.5,0.7,3.4c0.5,1,1.1,1.5,2,1.5c0.8,0,1.5-0.5,2-1.5c0.4-0.9,0.7-2.1,0.7-3.4
		c0-1.4-0.2-2.5-0.7-3.5c-0.5-1-1.1-1.5-2-1.5C348.3,408.9,347.7,409.4,347.2,410.4z M356.5,420.7c-0.1,0.1-0.2,0.1-0.3,0.1
		c-0.1,0-0.2,0-0.3-0.1c-0.1-0.1-0.1-0.2-0.1-0.4v-6.1h-2.6c-0.2,0-0.3,0-0.4-0.1c-0.1-0.1-0.1-0.2-0.1-0.3c0-0.1,0-0.2,0.1-0.3
		c0.1-0.1,0.2-0.1,0.3-0.1h2.7v-5.1c0-0.2,0-0.3,0.1-0.4c0.1-0.1,0.2-0.1,0.3-0.1c0.1,0,0.2,0,0.3,0.1c0.1,0.1,0.2,0.2,0.2,0.4v12
		C356.6,420.4,356.6,420.5,356.5,420.7z"/>
	<path class="st9" d="M368.1,408.2c0.1-0.1,0.2-0.1,0.3-0.1s0.2,0,0.3,0.1c0.1,0.1,0.2,0.2,0.2,0.3c0,0.5-0.1,1-0.2,1.6
		c-0.1,0.6-0.3,1.2-0.5,1.7c0.7,0.5,1.4,1,1.9,1.5c0.6,0.6,1.1,1.1,1.5,1.8c0.1,0.1,0.1,0.3,0.1,0.4c0,0.1-0.1,0.2-0.2,0.3
		c-0.1,0.1-0.2,0.1-0.3,0.1s-0.2-0.1-0.3-0.2c-0.4-0.6-0.8-1.1-1.3-1.6c-0.5-0.5-1-1-1.6-1.4c-0.3,0.6-0.6,1.2-1,1.7
		c-0.4,0.6-0.8,1.1-1.3,1.6c-0.1,0.1-0.2,0.1-0.3,0.1c-0.1,0-0.2,0-0.3-0.1c-0.1-0.1-0.1-0.2-0.1-0.3c0-0.1,0.1-0.3,0.2-0.4
		c0.9-0.9,1.7-2.1,2.2-3.4c0.5-1.2,0.7-2.3,0.7-3.4C368,408.4,368,408.2,368.1,408.2z M367.3,418.9c0,0.3,0.1,0.5,0.2,0.6
		c0.1,0.1,0.3,0.1,0.6,0.1h8.7c0.3,0,0.4,0.1,0.4,0.4c0,0.3-0.1,0.4-0.4,0.4h-9c-0.4,0-0.8-0.1-1-0.4c-0.3-0.3-0.4-0.6-0.4-1v-2
		c0-0.2,0-0.3,0.1-0.4c0.1-0.1,0.2-0.1,0.3-0.1c0.1,0,0.2,0,0.3,0.1c0.1,0.1,0.2,0.2,0.2,0.4V418.9z M373.8,417.1
		c-0.1,0.1-0.2,0.1-0.3,0.1s-0.2,0-0.3-0.1c-0.1-0.1-0.1-0.2-0.1-0.4v-4.8h-2.7c-0.2,0-0.3,0-0.4-0.1c-0.1-0.1-0.1-0.2-0.1-0.3
		c0-0.1,0-0.2,0.1-0.3c0.1-0.1,0.2-0.1,0.4-0.1h2.7v-2.9c0-0.1,0-0.2,0.1-0.3c0.1-0.1,0.2-0.1,0.3-0.1s0.2,0,0.3,0.1
		c0.1,0.1,0.2,0.2,0.2,0.3v8.5C374,416.8,373.9,417,373.8,417.1z M376.7,417.3c-0.1,0.1-0.2,0.1-0.3,0.1c-0.1,0-0.2,0-0.3-0.1
		c-0.1-0.1-0.1-0.2-0.1-0.4v-8.8c0-0.1,0-0.2,0.1-0.3c0.1-0.1,0.2-0.1,0.3-0.1c0.1,0,0.2,0,0.3,0.1c0.1,0.1,0.2,0.2,0.2,0.3v8.8
		C376.8,417.1,376.8,417.2,376.7,417.3z"/>
	<path class="st9" d="M384.9,408.2c0.1-0.1,0.2-0.1,0.3-0.1s0.2,0,0.3,0.1c0.1,0.1,0.2,0.2,0.2,0.3c0,0.6-0.1,1.3-0.2,2
		c-0.1,0.7-0.3,1.5-0.5,2.3c0.8,1,1.6,2,2.2,3c0.7,1,1.3,2,1.8,2.9c0.1,0.1,0.1,0.3,0,0.4c0,0.1-0.1,0.2-0.2,0.3
		c-0.1,0.1-0.2,0.1-0.4,0c-0.1,0-0.2-0.1-0.3-0.3c-0.4-0.8-0.9-1.7-1.6-2.7c-0.7-1-1.3-1.9-1.9-2.7c-0.3,0.9-0.6,1.7-1.1,2.6
		c-0.5,1.1-1.2,2.1-1.9,3c-0.1,0.1-0.2,0.2-0.3,0.2c-0.1,0-0.2,0-0.3-0.1c-0.1-0.1-0.1-0.2-0.1-0.3c0-0.1,0.1-0.3,0.2-0.4
		c1.1-1.4,2-3,2.6-5c0.6-1.9,1-3.6,1-5.3C384.8,408.4,384.8,408.3,384.9,408.2z M392.3,420.7c-0.1,0.1-0.2,0.1-0.3,0.1
		c-0.1,0-0.2,0-0.3-0.1c-0.1-0.1-0.1-0.2-0.1-0.4V414h-4.2c-0.2,0-0.3,0-0.4-0.1c-0.1-0.1-0.1-0.2-0.1-0.3c0-0.1,0-0.2,0.1-0.3
		c0.1-0.1,0.2-0.1,0.4-0.1h4.2v-5c0-0.2,0-0.3,0.1-0.4c0.1-0.1,0.2-0.1,0.3-0.1c0.1,0,0.2,0,0.3,0.1c0.1,0.1,0.2,0.2,0.2,0.4v12.1
		C392.4,420.4,392.4,420.6,392.3,420.7z"/>
</g>
<g>
	<rect x="57" y="408.2" class="st7" width="161" height="15.6"/>
	<path class="st9" d="M106.8,420.2c-0.7,0-1.4-0.1-2-0.4c-0.6-0.3-1.1-0.6-1.5-1.1c-0.4-0.5-0.7-1.1-1-1.8c-0.2-0.7-0.3-1.5-0.3-2.5
		s0.1-1.8,0.3-2.5c0.2-0.7,0.6-1.3,1-1.8c0.4-0.5,0.9-0.9,1.5-1.1c0.6-0.3,1.3-0.4,2-0.4c0.7,0,1.4,0.1,2,0.4
		c0.6,0.3,1.1,0.6,1.5,1.1s0.7,1.1,1,1.8s0.3,1.5,0.3,2.5s-0.1,1.8-0.3,2.5c-0.2,0.7-0.6,1.3-1,1.8s-0.9,0.9-1.5,1.1
		C108.2,420.1,107.6,420.2,106.8,420.2z M106.8,418.6c0.4,0,0.8-0.1,1.2-0.2c0.4-0.2,0.7-0.4,0.9-0.7c0.3-0.3,0.4-0.6,0.6-1
		c0.1-0.4,0.2-0.9,0.2-1.4v-1.8c0-0.5-0.1-1-0.2-1.4c-0.1-0.4-0.3-0.8-0.6-1c-0.3-0.3-0.6-0.5-0.9-0.7s-0.7-0.2-1.2-0.2
		c-0.4,0-0.8,0.1-1.2,0.2c-0.4,0.2-0.7,0.4-0.9,0.7s-0.4,0.6-0.6,1s-0.2,0.9-0.2,1.4v1.8c0,0.5,0.1,1,0.2,1.4s0.3,0.8,0.6,1
		c0.3,0.3,0.6,0.5,0.9,0.7C106,418.5,106.4,418.6,106.8,418.6z"/>
	<path class="st9" d="M117.2,420.2c-0.9,0-1.7-0.2-2.4-0.5c-0.7-0.3-1.2-0.8-1.7-1.4l1.2-1.2c0.4,0.5,0.8,0.8,1.3,1.1
		c0.5,0.2,1,0.4,1.6,0.4c0.7,0,1.3-0.2,1.6-0.5c0.4-0.3,0.5-0.8,0.5-1.3c0-0.4-0.1-0.8-0.4-1c-0.3-0.3-0.7-0.4-1.4-0.6l-1-0.2
		c-1.1-0.2-1.9-0.6-2.4-1.1c-0.5-0.5-0.8-1.2-0.8-2.1c0-0.5,0.1-0.9,0.3-1.3c0.2-0.4,0.4-0.7,0.8-1c0.3-0.3,0.7-0.5,1.2-0.6
		c0.5-0.1,1-0.2,1.6-0.2c0.8,0,1.6,0.1,2.2,0.4c0.6,0.3,1.1,0.7,1.6,1.3l-1.3,1.1c-0.3-0.4-0.6-0.7-1.1-0.9
		c-0.4-0.2-0.9-0.3-1.6-0.3c-0.6,0-1.1,0.1-1.5,0.4s-0.5,0.6-0.5,1.1c0,0.5,0.1,0.8,0.4,1c0.3,0.2,0.7,0.4,1.3,0.5l1,0.2
		c1.1,0.2,1.9,0.6,2.5,1.1c0.5,0.5,0.8,1.2,0.8,2.1c0,0.5-0.1,1-0.3,1.4c-0.2,0.4-0.4,0.8-0.8,1.1c-0.3,0.3-0.8,0.5-1.3,0.7
		C118.4,420.1,117.9,420.2,117.2,420.2z"/>
	<path class="st9" d="M131.4,408.2c0.1-0.1,0.2-0.1,0.3-0.1s0.2,0,0.3,0.1c0.1,0.1,0.2,0.2,0.2,0.3c0,0.6-0.1,1.3-0.2,2
		c-0.1,0.7-0.3,1.5-0.5,2.3c0.8,1,1.6,2,2.2,3c0.7,1,1.3,2,1.8,2.9c0.1,0.1,0.1,0.3,0,0.4c0,0.1-0.1,0.2-0.2,0.3
		c-0.1,0.1-0.2,0.1-0.4,0c-0.1,0-0.2-0.1-0.3-0.3c-0.4-0.8-0.9-1.7-1.6-2.7c-0.7-1-1.3-1.9-1.9-2.7c-0.3,0.9-0.6,1.7-1.1,2.6
		c-0.5,1.1-1.2,2.1-1.9,3c-0.1,0.1-0.2,0.2-0.3,0.2c-0.1,0-0.2,0-0.3-0.1c-0.1-0.1-0.1-0.2-0.1-0.3c0-0.1,0.1-0.3,0.2-0.4
		c1.1-1.4,2-3,2.6-5c0.6-1.9,1-3.6,1-5.3C131.3,408.4,131.3,408.3,131.4,408.2z M138.7,420.7c-0.1,0.1-0.2,0.1-0.3,0.1
		c-0.1,0-0.2,0-0.3-0.1c-0.1-0.1-0.1-0.2-0.1-0.4V414h-4.2c-0.2,0-0.3,0-0.4-0.1c-0.1-0.1-0.1-0.2-0.1-0.3c0-0.1,0-0.2,0.1-0.3
		c0.1-0.1,0.2-0.1,0.4-0.1h4.2v-5c0-0.2,0-0.3,0.1-0.4c0.1-0.1,0.2-0.1,0.3-0.1c0.1,0,0.2,0,0.3,0.1c0.1,0.1,0.2,0.2,0.2,0.4v12.1
		C138.9,420.4,138.8,420.6,138.7,420.7z"/>
	<path class="st9" d="M150.2,408.1c0.3,0,0.5,0.2,0.5,0.5v9.7c0,0.4-0.1,0.7-0.3,0.9c-0.2,0.2-0.6,0.4-0.9,0.4h-4
		c-0.4,0-0.7-0.1-0.9-0.4c-0.2-0.2-0.3-0.5-0.3-0.9v-9.6c0-0.2,0-0.3,0.1-0.4c0.1-0.1,0.2-0.1,0.3-0.1s0.2,0,0.3,0.1
		c0.1,0.1,0.2,0.2,0.2,0.4v3.6h4.8v-3.7C149.7,408.3,149.9,408.1,150.2,408.1z M144.9,413.1v5c0,0.2,0.1,0.4,0.2,0.5
		c0.1,0.1,0.3,0.1,0.5,0.1h3.4c0.2,0,0.4-0.1,0.5-0.2c0.1-0.1,0.2-0.3,0.2-0.5v-5H144.9z M154.7,420.7c-0.1,0.1-0.2,0.1-0.3,0.1
		c-0.1,0-0.2,0-0.3-0.1c-0.1-0.1-0.1-0.2-0.1-0.4v-12.2c0-0.1,0-0.2,0.1-0.3c0.1-0.1,0.2-0.1,0.3-0.1c0.1,0,0.2,0,0.3,0.1
		c0.1,0.1,0.2,0.2,0.2,0.3v12.2C154.9,420.5,154.8,420.6,154.7,420.7z"/>
	<path class="st9" d="M172.3,419c0.1,0.1,0.1,0.2,0.1,0.3s0,0.2-0.1,0.3c-0.1,0.1-0.2,0.1-0.3,0.1h-12.1c-0.3,0-0.5-0.1-0.5-0.4
		c0-0.3,0.2-0.4,0.5-0.4h12.1C172.1,418.9,172.2,419,172.3,419z M165.5,408c0.1-0.1,0.2-0.1,0.3-0.1c0.1,0,0.2,0,0.3,0.1
		c0.1,0.1,0.2,0.2,0.2,0.4c0,1.6,0.5,3,1.6,4.1c0.9,1,2.1,1.6,3.5,1.9c0.2,0,0.3,0.1,0.4,0.2c0.1,0.1,0.1,0.2,0.1,0.3
		c0,0.1-0.1,0.2-0.2,0.3c-0.1,0.1-0.3,0.1-0.5,0c-1.2-0.3-2.3-0.8-3.3-1.8c-1-0.9-1.6-1.9-2-2.9c-0.3,1.1-1,2-2,2.9
		c-1,0.9-2.2,1.5-3.4,1.8c-0.2,0-0.3,0-0.4-0.1c-0.1-0.1-0.2-0.1-0.2-0.3c0-0.1,0-0.2,0.1-0.3c0.1-0.1,0.2-0.2,0.4-0.2
		c1.3-0.3,2.4-0.9,3.4-1.9c1.1-1.1,1.7-2.5,1.7-4.1C165.4,408.2,165.4,408.1,165.5,408z"/>
</g>
<g>
	<rect x="41" y="85.3" class="st7" width="236.1" height="15.6"/>
	<path class="st9" d="M47.6,85.3c0.1-0.1,0.2-0.1,0.3-0.1s0.2,0,0.3,0.1c0.1,0.1,0.2,0.2,0.2,0.3v9.6c0,0.4-0.1,0.7-0.4,0.9
		c-0.3,0.2-0.6,0.4-1,0.4h-2.5c-0.4,0-0.7-0.1-1-0.3c-0.3-0.2-0.4-0.6-0.4-0.9v-9.6c0-0.2,0-0.3,0.1-0.4c0.1-0.1,0.2-0.1,0.3-0.1
		s0.2,0,0.3,0.1c0.1,0.1,0.2,0.2,0.2,0.4v3.6h3.4v-3.7C47.5,85.5,47.5,85.4,47.6,85.3z M44.1,90.2v5c0,0.2,0.1,0.4,0.2,0.5
		c0.1,0.1,0.3,0.1,0.5,0.1h2c0.2,0,0.4-0.1,0.5-0.2c0.1-0.1,0.2-0.3,0.2-0.5v-5H44.1z M54,84.9c0.3,0,0.5,0.1,0.5,0.4v12.2
		c0,0.1-0.1,0.2-0.2,0.3c-0.1,0.1-0.2,0.1-0.3,0.1c-0.1,0-0.2,0-0.3-0.1c-0.1-0.1-0.1-0.2-0.1-0.3v-5.7h-2.2v5.6
		c0,0.1-0.1,0.3-0.2,0.4c-0.1,0.1-0.2,0.1-0.3,0.1s-0.2,0-0.3-0.1c-0.1-0.1-0.1-0.2-0.1-0.4V85.3c0-0.3,0.2-0.4,0.5-0.4
		c0.3,0,0.5,0.1,0.5,0.4v5.8h2.2v-5.8C53.5,85,53.7,84.9,54,84.9z"/>
	<path class="st9" d="M67.1,87.8c0,0.3-0.1,0.4-0.4,0.4h-3.1v1.6c0,1.4,0.4,2.7,1.1,3.8c0.7,1,1.5,1.8,2.6,2.2
		c0.1,0.1,0.2,0.1,0.3,0.3c0,0.1,0,0.2,0,0.3c-0.1,0.1-0.1,0.2-0.3,0.2c-0.1,0-0.3,0-0.4,0c-1-0.5-1.8-1.1-2.4-1.9
		c-0.6-0.7-1-1.5-1.2-2.4c-0.3,0.8-0.7,1.7-1.4,2.4c-0.7,0.8-1.5,1.4-2.3,1.8c-0.1,0.1-0.3,0.1-0.4,0c-0.1,0-0.2-0.1-0.3-0.2
		c-0.1-0.1-0.1-0.2,0-0.3c0-0.1,0.1-0.2,0.3-0.3c1.1-0.5,1.9-1.3,2.6-2.3c0.7-1.1,1.1-2.4,1.1-3.8v-1.6h-3.1c-0.3,0-0.4-0.1-0.4-0.4
		c0-0.3,0.1-0.4,0.4-0.4h7.1C67,87.4,67.1,87.6,67.1,87.8z M65.6,85.6c0,0.3-0.1,0.4-0.4,0.4h-4.1c-0.3,0-0.5-0.1-0.5-0.4
		c0-0.3,0.2-0.4,0.5-0.4h4C65.4,85.2,65.6,85.4,65.6,85.6z M69.9,97.8c-0.1,0.1-0.2,0.1-0.3,0.1c-0.1,0-0.2,0-0.3-0.1
		c-0.1-0.1-0.1-0.2-0.1-0.4V85.3c0-0.1,0-0.2,0.1-0.3c0.1-0.1,0.2-0.1,0.3-0.1c0.1,0,0.2,0,0.3,0.1C70,85,70,85.1,70,85.3v12.2
		C70,97.6,70,97.7,69.9,97.8z"/>
	<path class="st9" d="M79.8,87.1C79.9,87,80,87,80.2,87c0.1,0,0.2,0,0.3,0.1c0.1,0.1,0.2,0.2,0.2,0.3c0,1.2,0,2.6,0.1,4.2
		c0.1,1.7,0.2,3.1,0.3,4.2c0.2,0,0.4,0,0.7,0c0.2,0,0.5,0,0.8-0.1c0.1-1,0.3-2.3,0.3-4c0.1-1.3,0.1-2.8,0.1-4.3
		c0-0.3,0.2-0.4,0.5-0.4s0.5,0.1,0.5,0.4c0,1.4,0,2.8-0.1,4.2c-0.1,1.6-0.2,2.9-0.3,3.9c0.4-0.1,0.7-0.1,0.9-0.2
		c0.3-0.1,0.5-0.1,0.8-0.2c0.1,0,0.3,0,0.4,0c0.1,0.1,0.2,0.1,0.2,0.3c0,0.1,0,0.2-0.1,0.3c-0.1,0.1-0.2,0.2-0.3,0.2
		c-0.8,0.3-1.8,0.5-3,0.6c-1.1,0.1-2.3,0.2-3.7,0.2c-0.3,0-0.4-0.1-0.5-0.4c0-0.3,0.2-0.4,0.5-0.4l1.5,0c-0.1-1.1-0.2-2.5-0.3-4.2
		c-0.1-1.7-0.1-3.1-0.1-4.2C79.7,87.3,79.7,87.2,79.8,87.1z M85.2,85.7c0,0.3-0.1,0.4-0.4,0.4h-5.7c-0.3,0-0.4-0.1-0.4-0.4
		c0-0.3,0.1-0.4,0.4-0.4h5.7C85.1,85.3,85.2,85.5,85.2,85.7z M89.8,84.9c0.3,0,0.5,0.1,0.5,0.4v12.2c0,0.1-0.1,0.2-0.2,0.3
		c-0.1,0.1-0.2,0.1-0.3,0.1c-0.1,0-0.2,0-0.3-0.1c-0.1-0.1-0.1-0.2-0.1-0.3v-5.7h-2.2v5.6c0,0.1-0.1,0.3-0.2,0.4
		c-0.1,0.1-0.2,0.1-0.3,0.1s-0.2,0-0.3-0.1c-0.1-0.1-0.1-0.2-0.1-0.4V85.3c0-0.3,0.2-0.4,0.5-0.4c0.3,0,0.5,0.1,0.5,0.4v5.8h2.2
		v-5.8C89.3,85,89.5,84.9,89.8,84.9z"/>
	<path class="st9" d="M101.6,85.4c0.1,0.1,0.1,0.2,0.1,0.3c0,0.1,0,0.2-0.1,0.3c-0.1,0.1-0.2,0.1-0.4,0.1h-4.7
		c-0.2,0-0.4,0.1-0.5,0.2c-0.1,0.1-0.1,0.3-0.1,0.5v1.8h4.8c0.3,0,0.5,0.1,0.5,0.4c0,0.3-0.2,0.4-0.5,0.4h-4.8v2.2
		c0,0.2,0,0.4,0.1,0.5c0.1,0.1,0.3,0.2,0.6,0.2c1.2,0,2.3,0,3.1-0.1c1.1-0.1,2-0.3,2.7-0.6c0.3-0.1,0.5-0.1,0.6,0.2
		c0.1,0.3,0,0.4-0.3,0.6c-0.7,0.3-1.6,0.5-2.9,0.6c-1,0.1-2.1,0.2-3.3,0.2c-0.5,0-0.9-0.1-1.2-0.4c-0.3-0.3-0.4-0.7-0.4-1.2v-4.7
		c0-0.5,0.1-0.8,0.4-1.1c0.3-0.3,0.7-0.4,1.1-0.4h4.7C101.4,85.3,101.5,85.4,101.6,85.4z M96.7,96c0,0.3,0.1,0.5,0.2,0.6
		c0.1,0.1,0.3,0.1,0.6,0.1h8.4c0.3,0,0.4,0.1,0.4,0.4c0,0.3-0.1,0.4-0.4,0.4h-8.6c-0.5,0-0.8-0.1-1.1-0.3c-0.3-0.2-0.4-0.6-0.4-1
		v-2.1c0-0.2,0-0.3,0.1-0.4c0.1-0.1,0.2-0.1,0.3-0.1c0.1,0,0.2,0,0.3,0.1c0.1,0.1,0.2,0.2,0.2,0.4V96z M105.7,94.3
		c-0.1,0.1-0.2,0.1-0.3,0.1c-0.1,0-0.2,0-0.3-0.1c-0.1-0.1-0.1-0.2-0.1-0.4v-4.5h-2.6c-0.2,0-0.3,0-0.4-0.1
		c-0.1-0.1-0.1-0.2-0.1-0.3c0-0.1,0-0.2,0.1-0.3c0.1-0.1,0.2-0.1,0.3-0.1h2.7v-3.3c0-0.1,0-0.2,0.1-0.3c0.1-0.1,0.2-0.1,0.3-0.1
		c0.1,0,0.2,0,0.3,0.1c0.1,0.1,0.2,0.2,0.2,0.3v8.6C105.8,94,105.8,94.2,105.7,94.3z"/>
</g>
<g>
	<rect x="25" y="29.2" class="st7" width="236.1" height="15.6"/>
	<path class="st8" d="M32.1,30.9c0.5,1,0.7,2.4,0.7,4c0,1.6-0.2,2.9-0.7,4c-0.5,1.2-1.2,1.8-2.2,1.8c-1,0-1.7-0.6-2.2-1.8
		c-0.4-1-0.7-2.3-0.7-4c0-1.6,0.2-3,0.7-4c0.5-1.2,1.2-1.7,2.2-1.7C30.8,29.1,31.6,29.7,32.1,30.9z M28.4,31.4
		c-0.3,0.9-0.4,2-0.4,3.5c0,1.4,0.1,2.5,0.4,3.4c0.3,1,0.8,1.5,1.5,1.5c0.7,0,1.2-0.5,1.5-1.5c0.3-0.9,0.5-2,0.5-3.4
		c0-1.4-0.2-2.6-0.5-3.5c-0.3-1-0.8-1.5-1.5-1.5C29.2,29.9,28.7,30.4,28.4,31.4z M34.7,28.8c0.1-0.1,0.2-0.1,0.3-0.1
		c0.1,0,0.2,0,0.3,0.1c0.1,0.1,0.2,0.2,0.2,0.3v12.2c0,0.1-0.1,0.3-0.2,0.4c-0.1,0.1-0.2,0.1-0.3,0.1c-0.1,0-0.2,0-0.3-0.1
		c-0.1-0.1-0.1-0.2-0.1-0.4V35h-2.1c-0.2,0-0.3,0-0.4-0.1C32,34.7,32,34.6,32,34.5c0-0.1,0-0.2,0.1-0.3c0.1-0.1,0.2-0.1,0.3-0.1h2.1
		v-5C34.6,29,34.6,28.9,34.7,28.8z M38.3,41.7c-0.1,0.1-0.2,0.1-0.3,0.1c-0.1,0-0.2,0-0.3-0.1c-0.1-0.1-0.1-0.2-0.1-0.4V29.2
		c0-0.1,0-0.2,0.1-0.3c0.1-0.1,0.2-0.1,0.3-0.1c0.1,0,0.2,0,0.3,0.1c0.1,0.1,0.2,0.2,0.2,0.3v12.2C38.4,41.5,38.4,41.6,38.3,41.7z"
		/>
	<path class="st8" d="M51.1,29.6c0,0.3-0.1,0.4-0.4,0.4h-3.1v2.5c0,1.6,0.3,3.1,1,4.4c0.7,1.3,1.5,2.2,2.6,2.8
		c0.1,0.1,0.2,0.2,0.3,0.3s0,0.2,0,0.3c-0.1,0.1-0.2,0.2-0.3,0.2c-0.1,0-0.3,0-0.4-0.1c-0.8-0.4-1.6-1.2-2.3-2.2
		c-0.7-1-1.2-2.1-1.3-3.2c-0.2,1.1-0.7,2.1-1.3,3.2c-0.7,1-1.5,1.8-2.4,2.2c-0.1,0.1-0.2,0.1-0.4,0c-0.1,0-0.2-0.1-0.2-0.2
		c-0.1-0.1-0.1-0.2,0-0.3c0-0.1,0.1-0.2,0.3-0.3c1.1-0.5,1.9-1.5,2.6-2.8c0.7-1.3,1-2.8,1-4.5V30h-3.1c-0.3,0-0.4-0.1-0.4-0.4
		c0-0.3,0.1-0.4,0.4-0.4h7.1C51,29.2,51.1,29.3,51.1,29.6z M53.9,41.7c-0.1,0.1-0.2,0.1-0.3,0.1c-0.1,0-0.2,0-0.3-0.1
		c-0.1-0.1-0.1-0.2-0.1-0.4V29.2c0-0.1,0-0.2,0.1-0.3c0.1-0.1,0.2-0.1,0.3-0.1c0.1,0,0.2,0,0.3,0.1C54,28.9,54,29,54,29.2v12.2
		C54,41.5,54,41.6,53.9,41.7z"/>
	<path class="st8" d="M68.5,36.4c0.1-0.1,0.2-0.1,0.3-0.1c0.1,0,0.2,0,0.3,0.1c0.1,0.1,0.2,0.2,0.2,0.3v3.2h5.6c0.1,0,0.3,0,0.3,0.1
		c0.1,0.1,0.1,0.2,0.1,0.3c0,0.1,0,0.2-0.1,0.3c-0.1,0.1-0.2,0.1-0.3,0.1H62.6c-0.1,0-0.2,0-0.3-0.1c-0.1-0.1-0.1-0.2-0.1-0.3
		c0-0.1,0.1-0.2,0.1-0.3c0.1-0.1,0.2-0.1,0.3-0.1h5.6v-3.2C68.3,36.6,68.4,36.4,68.5,36.4z M64.7,34.1c0,0.3,0.1,0.5,0.2,0.6
		c0.1,0.1,0.3,0.2,0.6,0.2h8c0.1,0,0.3,0,0.3,0.1c0.1,0.1,0.1,0.2,0.1,0.3c0,0.1,0,0.2-0.1,0.3c-0.1,0.1-0.2,0.1-0.3,0.1h-8.2
		c-0.5,0-0.9-0.1-1.2-0.4c-0.3-0.3-0.4-0.6-0.4-1v-4.8c0-0.2,0-0.3,0.1-0.4c0.1-0.1,0.2-0.1,0.3-0.1c0.1,0,0.2,0,0.3,0.1
		c0.1,0.1,0.2,0.2,0.2,0.3v0.1V34.1z"/>
	<path class="st8" d="M91.2,40c0.1,0.1,0.1,0.2,0.1,0.3c0,0.1,0,0.2-0.1,0.3c-0.1,0.1-0.2,0.1-0.3,0.1H78.7c-0.3,0-0.5-0.1-0.5-0.4
		c0-0.3,0.2-0.4,0.5-0.4h12.1C91,39.9,91.1,40,91.2,40z M89.9,29.3c0.1,0.1,0.1,0.2,0.1,0.3c0,0.1,0,0.2-0.1,0.3
		c-0.1,0.1-0.2,0.1-0.3,0.1h-8.6c-0.2,0-0.4,0-0.5,0.1c-0.1,0.1-0.2,0.2-0.2,0.4v4c0,0.2,0,0.3,0.1,0.4c0.1,0.1,0.3,0.1,0.5,0.1h8.8
		c0.3,0,0.4,0.1,0.4,0.4c0,0.3-0.1,0.4-0.4,0.4H81c-0.5,0-0.8-0.1-1.1-0.4c-0.3-0.3-0.4-0.6-0.4-1v-3.7c0-0.5,0.1-0.9,0.4-1.1
		c0.3-0.3,0.7-0.4,1.2-0.4h8.5C89.8,29.1,89.9,29.2,89.9,29.3z"/>
</g>
</svg>
