<?xml version="1.0" encoding="utf-8"?>
<!-- Generator: Adobe Illustrator 19.2.1, SVG Export Plug-In . SVG Version: 6.00 Build 0)  -->
<svg version="1.1" id="Layer_1" xmlns="http://www.w3.org/2000/svg" xmlns:xlink="http://www.w3.org/1999/xlink" x="0px" y="0px"
	 viewBox="0 0 1204 794" style="enable-background:new 0 0 1204 794;" xml:space="preserve">
<style type="text/css">
	.st0{fill-rule:evenodd;clip-rule:evenodd;fill:#E3F6FF;}
	.st1{fill-rule:evenodd;clip-rule:evenodd;fill:#0062FF;}
	.st2{fill-rule:evenodd;clip-rule:evenodd;fill:#8A3FFC;}
	.st3{fill-rule:evenodd;clip-rule:evenodd;fill:#92EEEE;}
	.st4{fill-rule:evenodd;clip-rule:evenodd;fill:#408BFC;}
	.st5{fill-rule:evenodd;clip-rule:evenodd;fill:#009C98;}
	.st6{fill:#BEBEBE;}
	.st7{fill:none;stroke:#00BAB6;stroke-width:2;stroke-dasharray:7;}
	.st8{fill-rule:evenodd;clip-rule:evenodd;fill:none;}
	.st9{fill:#F4F4F4;}
	.st10{font-family:'IBMPlexSans';}
	.st11{font-size:14px;}
	.st12{font-family:'Gulim';}
	.st13{fill:#161616;}
	.st14{font-family:'IBMPlexSans-Medium';}
	.st15{font-size:16px;}
</style>
<circle id="Oval-Copy-8" class="st0" cx="46.5" cy="185.5" r="32.5"/>
<path id="Shape" class="st1" d="M55.5,195h-17c-4.1,0-7.5-3.4-7.5-7.5c0-3.6,2.6-6.7,6.1-7.4c0,0,0.1,0,0.1-0.1c1-4.7,5.1-8,9.8-8
	c0.6,0,1.3,0.1,1.9,0.2c4,0.8,7.1,3.9,7.9,7.9c0,0,0,0.1,0.1,0.1c4,0.8,6.7,4.7,6,8.7C62.2,192.4,59.1,195,55.5,195z M38.5,193h17
	c2.7,0,4.9-1.9,5.4-4.5c0.3-1.8-0.2-3.6-1.5-4.9c-0.8-0.8-1.8-1.3-2.8-1.5l-0.3-0.1l-1.1-0.2c0,0-0.1,0-0.1-0.1l0,0l-0.2-1
	c-0.6-3.2-3-5.8-6.1-6.5c-0.9-0.2-1.9-0.3-2.8-0.1c-3.4,0.5-6,3.1-6.8,6.5l-0.1,0.3l-0.2,0.9c0,0,0,0.1-0.1,0.1l0,0l-1,0.2
	c-2.4,0.4-4.4,2.3-4.7,4.7C32.6,190.1,35.2,193,38.5,193z"/>
<circle id="Oval-Copy-9" class="st0" cx="47.5" cy="579" r="32.5"/>
<path id="Fill-1-Copy-2" class="st1" d="M55,572.5h1v-1h-1V572.5z M56.8,569.5h-2.5c-0.7,0-1.2,0.6-1.2,1.2v2.5
	c0,0.7,0.6,1.2,1.2,1.2h2.5c0.7,0,1.2-0.6,1.2-1.2v-2.5C58,570.1,57.4,569.5,56.8,569.5L56.8,569.5z M42,585.5v-8h8l0,8H42z
	 M50,575.5h-1v-2h-2v2h-2v-2h-2v2h-1c-1.1,0-2,0.9-2,2v1h-2v2h2v2h-2v2h2v1c0,1.1,0.9,2,2,2h8c1.1,0,2-0.9,2-2v-8
	C52,576.4,51.1,575.5,50,575.5L50,575.5z M52,584.5h2v-2h-2V584.5z M52,580.5h2v-2h-2V580.5z M47,589.5h2v-2h-2V589.5z M43,589.5h2
	v-2h-2V589.5z M57,579.5c-0.6,0-1,0.4-1,1s0.4,1,1,1s1-0.4,1-1S57.6,579.5,57,579.5L57,579.5z M57,583.5c-0.6,0-1,0.4-1,1s0.4,1,1,1
	s1-0.4,1-1S57.6,583.5,57,583.5L57,583.5z M39,571.5c0.6,0,1-0.4,1-1s-0.4-1-1-1s-1,0.4-1,1S38.4,571.5,39,571.5L39,571.5z
	 M57,587.5c-0.6,0-1,0.4-1,1s0.4,1,1,1s1-0.4,1-1S57.6,587.5,57,587.5L57,587.5z M60,591.3c0,0.1-0.1,0.2-0.2,0.2H36.2
	c-0.1,0-0.2-0.1-0.2-0.2v-23.6c0-0.1,0.1-0.2,0.2-0.2h23.6c0.1,0,0.2,0.1,0.2,0.2V591.3z M59.8,565.5H36.2c-1.2,0-2.2,1-2.2,2.2
	v23.6c0,1.2,1,2.2,2.2,2.2h23.6c1.2,0,2.2-1,2.2-2.2v-23.6C62,566.5,61,565.5,59.8,565.5L59.8,565.5z"/>
<circle id="Oval-Copy-2" class="st0" cx="45.5" cy="32.5" r="32.5"/>
<path id="Fill-1" class="st1" d="M34,38h24V22H34V38z M44,44h4v-4h-4V44z M58,20H34c-1.1,0-2,0.9-2,2v16c0,1.1,0.9,2,2,2h8v4h-4v2
	h16v-2h-4v-4h8c1.1,0,2-0.9,2-2V22C60,20.9,59.1,20,58,20L58,20z"/>
<circle id="Oval-Copy-10" class="st0" cx="675.5" cy="47.5" r="32.5"/>
<path id="Fill-1_1_" class="st1" d="M676,33c-3.9,0-7,3.1-7,7s3.1,7,7,7s7-3.1,7-7S679.9,33,676,33 M676,35c2.8,0,5,2.2,5,5
	s-2.2,5-5,5c-2.8,0-5-2.2-5-5C671,37.2,673.2,35,676,35"/>
<path id="Fill-3" class="st1" d="M686,61h-2v-5c0-2.8-2.2-5-5-5h-6c-2.8,0-5,2.2-5,5v5h-2v-5c0-3.9,3.1-7,7-7h6c3.9,0,7,3.1,7,7V61z
	"/>
<rect id="Rectangle-Copy-18" x="208" y="541.5" class="st2" width="209" height="48"/>
<rect id="Rectangle-Copy-18_1_" x="208" y="175" class="st3" width="209" height="48"/>
<rect id="Rectangle-Copy-18_2_" x="208" y="15" class="st4" width="209" height="66"/>
<rect id="Rectangle-Copy-18_3_" x="208" y="277" class="st3" width="209" height="48"/>
<rect id="Rectangle-Copy-18_4_" x="208" y="643.5" class="st2" width="209" height="48"/>
<rect id="Rectangle-Copy-14" x="580" y="639.5" class="st4" width="192" height="56"/>
<rect id="Rectangle-Copy-14_1_" x="532" y="170" class="st4" width="288" height="117"/>
<rect id="Rectangle-Copy-18_5_" x="208" y="745.5" class="st2" width="209" height="48"/>
<path id="Rectangle-Copy-66" class="st5" d="M586,427h180c7.7,0,14,6.3,14,14v28c0,7.7-6.3,14-14,14H586c-7.7,0-14-6.3-14-14v-28
	C572,433.3,578.3,427,586,427z"/>
<path id="Rectangle-Copy-72" class="st5" d="M910,170h260c7.7,0,14,6.3,14,14v48c0,7.7-6.3,14-14,14H910c-7.7,0-14-6.3-14-14v-48
	C896,176.3,902.3,170,910,170z"/>
<path id="Rectangle-Copy-73" class="st5" d="M910,262h260c7.7,0,14,6.3,14,14v48c0,7.7-6.3,14-14,14H910c-7.7,0-14-6.3-14-14v-48
	C896,268.3,902.3,262,910,262z"/>
<path id="Path-2-Copy-16" class="st6" d="M622.9,41l14,7l-14,7l0-6H431v6l-14-7l14-7v6h191.9L622.9,41z"/>
<path id="Path-2-Copy-12" class="st6" d="M313,691.5l7,14h-6v26h6l-7,14l-7-14h6v-26h-6L313,691.5z"/>
<path id="Path-2-Copy-17" class="st6" d="M676,373l7,14h-6v40h-2v-40h-6L676,373z"/>
<path id="Path-2-Copy-13" class="st6" d="M313,589.5l7,14h-6v26h6l-7,14l-7-14h6v-26h-6L313,589.5z"/>
<path id="Path-2-Copy-22" class="st6" d="M676,483l7,14l-6,0v72H417v-2l258,0v-70l-6,0L676,483z"/>
<path id="Path-2-Copy-14" class="st6" d="M313,223l7,14h-6v40h-2v-40h-6L313,223z"/>
<path id="Path-2-Copy-15" class="st6" d="M313,81l7,14h-6v66h6l-7,14l-7-14h6V95h-6L313,81z"/>
<line id="Line-12" class="st7" x1="3.8" y1="121.5" x2="1203.2" y2="121.5"/>
<line id="Line-12-Copy" class="st7" x1="3.8" y1="514.5" x2="1203.2" y2="514.5"/>
<rect id="Rectangle-Copy-18_6_" x="548" y="223" class="st2" width="256" height="48"/>
<rect id="Rectangle-Copy-18_7_" x="548" y="325" class="st2" width="256" height="48"/>
<path id="Path-2-Copy-18" class="st6" d="M676,271l7,14h-6v40h-2v-40h-6L676,271z"/>
<path id="Path-2-Copy-19" class="st6" d="M548,245v2h-35v55h-80.5v6l-14-7l14-7v6H511v-55H548z"/>
<path id="Path-2-Copy-20" class="st6" d="M882,201l14,7l-14,7v-6h-39.1l0,27l-24.9,0v6l-14-7l14-7v6h22.9l0-27l41.1,0V201z"/>
<path id="Path-2-Copy-21" class="st6" d="M818,265l-14-7l14-7v6h25.2v42H882v-6l14,7l-14,7v-6h-40.8v-42H818V265z"/>
<rect x="207.9" y="558.6" class="st8" width="209" height="17.2"/>
<text transform="matrix(1 0 0 1 249.2451 569.001)"><tspan x="0" y="0" class="st9 st10 st11">sdr2msghub </tspan><tspan x="83.9" y="0" class="st9 st12 st11">서비스</tspan></text>
<rect x="207.9" y="31.6" class="st8" width="209" height="38.4"/>
<text transform="matrix(1 0 0 1 259.4438 41.9794)"><tspan x="0" y="0" class="st9 st12 st11">데이터</tspan><tspan x="42.5" y="0" class="st9 st10 st11"> </tspan><tspan x="45.9" y="0" class="st9 st12 st11">보기</tspan><tspan x="74.2" y="0" class="st9 st10 st11"> </tspan><tspan x="77.7" y="0" class="st9 st12 st11">제공</tspan><tspan x="-2.2" y="20" class="st9 st10 st11">(React, GraphQL)</tspan></text>
<rect x="548" y="341.6" class="st8" width="256" height="17.2"/>
<text transform="matrix(1 0 0 1 654.8457 351.8716)" class="st9 st12 st11">트리거</text>
<rect x="547.8" y="239.6" class="st8" width="256" height="17.2"/>
<text transform="matrix(1 0 0 1 585.8057 249.9954)"><tspan x="0" y="0" class="st9 st12 st11">소프트웨어</tspan><tspan x="70.8" y="0" class="st9 st10 st11"> </tspan><tspan x="74.2" y="0" class="st9 st12 st11">정의</tspan><tspan x="102.5" y="0" class="st9 st10 st11"> </tspan><tspan x="106" y="0" class="st9 st12 st11">라디오</tspan><tspan x="148.5" y="0" class="st9 st10 st11"> </tspan><tspan x="151.9" y="0" class="st9 st12 st11">조치</tspan></text>
<rect x="207.9" y="660.6" class="st8" width="209" height="17.2"/>
<text transform="matrix(1 0 0 1 279.2333 671.0043)"><tspan x="0" y="0" class="st9 st10 st11">sdr </tspan><tspan x="24" y="0" class="st9 st12 st11">서비스</tspan></text>
<rect x="207.9" y="762.6" class="st8" width="209" height="17.2"/>
<text transform="matrix(1 0 0 1 286.31 772.9937)"><tspan x="0" y="0" class="st9 st10 st11">sdr </tspan><tspan x="24" y="0" class="st9 st12 st11">센서</tspan></text>
<rect x="325" y="700.1" class="st8" width="145.8" height="37.4"/>
<text transform="matrix(1 0 0 1 324.9995 710.4987)"><tspan x="0" y="0" class="st13 st12 st11">라디오</tspan><tspan x="42.5" y="0" class="st13 st10 st11"> </tspan><tspan x="45.9" y="0" class="st13 st12 st11">스테이션에서</tspan><tspan x="130.8" y="0" class="st13 st10 st11"> </tspan><tspan x="0" y="20" class="st13 st12 st11">오디오</tspan><tspan x="42.5" y="20" class="st13 st10 st11"> </tspan><tspan x="45.9" y="20" class="st13 st12 st11">클립</tspan><tspan x="74.2" y="20" class="st13 st10 st11"> </tspan><tspan x="77.7" y="20" class="st13 st12 st11">검색</tspan></text>
<rect x="325" y="600.1" class="st8" width="302" height="59.6"/>
<text transform="matrix(1 0 0 1 325 610.4944)"><tspan x="0" y="0" class="st13 st12 st11">기계</tspan><tspan x="28.3" y="0" class="st13 st10 st11"> </tspan><tspan x="31.8" y="0" class="st13 st12 st11">학습을</tspan><tspan x="74.2" y="0" class="st13 st10 st11"> </tspan><tspan x="77.7" y="0" class="st13 st12 st11">사용하여</tspan><tspan x="134.3" y="0" class="st13 st10 st11"> </tspan><tspan x="137.8" y="0" class="st13 st12 st11">최적의</tspan><tspan x="180.2" y="0" class="st13 st10 st11"> </tspan><tspan x="183.7" y="0" class="st13 st12 st11">토킹</tspan><tspan x="212" y="0" class="st13 st10 st11"> </tspan><tspan x="215.4" y="0" class="st13 st12 st11">스테이션을</tspan><tspan x="286.2" y="0" class="st13 st10 st11"> </tspan><tspan x="0" y="20" class="st13 st12 st11">선택하고</tspan><tspan x="56.6" y="20" class="st13 st10 st11"> </tspan><tspan x="60.1" y="20" class="st13 st12 st11">오디오를</tspan><tspan x="116.7" y="20" class="st13 st10 st11"> </tspan><tspan x="120.1" y="20" class="st13 st12 st11">클라우드로</tspan><tspan x="190.9" y="20" class="st13 st10 st11"> </tspan><tspan x="194.4" y="20" class="st13 st12 st11">전송</tspan></text>
<rect x="915.3" y="145.6" class="st8" width="288" height="15"/>
<text transform="matrix(1 0 0 1 915.307 156.0011)"><tspan x="0" y="0" class="st13 st12 st11">오디오</tspan><tspan x="42.5" y="0" class="st13 st10 st11"> </tspan><tspan x="45.9" y="0" class="st13 st12 st11">텍스트</tspan><tspan x="88.4" y="0" class="st13 st10 st11"> </tspan><tspan x="91.8" y="0" class="st13 st12 st11">변환</tspan><tspan x="120.1" y="0" class="st13 st10 st11">, </tspan><tspan x="127.6" y="0" class="st13 st12 st11">감성</tspan><tspan x="155.9" y="0" class="st13 st10 st11"> </tspan><tspan x="159.3" y="0" class="st13 st12 st11">분석</tspan></text>
<rect x="325" y="133.6" class="st8" width="178.3" height="39.6"/>
<text transform="matrix(1 0 0 1 325.0011 144.001)"><tspan x="0" y="0" class="st13 st10 st11">UI </tspan><tspan x="18.9" y="0" class="st13 st12 st11">서비스</tspan><tspan x="61.3" y="0" class="st13 st10 st11">, </tspan><tspan x="68.7" y="0" class="st13 st12 st11">브라우저에</tspan><tspan x="139.5" y="0" class="st13 st10 st11"> </tspan><tspan x="0" y="20" class="st13 st12 st11">데이터</tspan><tspan x="42.5" y="20" class="st13 st10 st11"> </tspan><tspan x="45.9" y="20" class="st13 st12 st11">전송</tspan></text>
<rect x="432.2" y="23.6" class="st8" width="189.3" height="17"/>
<text transform="matrix(1 0 0 1 473.9274 33.9992)"><tspan x="0" y="0" class="st13 st12 st11">데이터</tspan><tspan x="42.5" y="0" class="st13 st10 st11"> </tspan><tspan x="45.9" y="0" class="st13 st12 st11">보기</tspan><tspan x="74.2" y="0" class="st13 st10 st11"> </tspan><tspan x="77.7" y="0" class="st13 st12 st11">제공</tspan></text>
<rect x="643.4" y="87.6" class="st8" width="65" height="17"/>
<text transform="matrix(1 0 0 1 654.7565 97.8819)" class="st13 st12 st11">사용자</text>
<rect x="208" y="294.2" class="st8" width="209" height="16.5"/>
<text transform="matrix(1 0 0 1 224.3421 304.5875)"><tspan x="0" y="0" class="st13 st10 st11">Postgres </tspan><tspan x="59.8" y="0" class="st13 st12 st11">데이터베이스</tspan><tspan x="144.7" y="0" class="st13 st10 st11"> </tspan><tspan x="148.2" y="0" class="st13 st12 st11">작성</tspan></text>
<rect x="208" y="192.2" class="st8" width="209" height="16.5"/>
<text transform="matrix(1 0 0 1 227.115 202.5174)" class="st13 st10 st11">Node.js, Express, GraphQL</text>
<rect x="10.5" y="225.7" class="st8" width="70.9" height="16.5"/>
<text transform="matrix(1 0 0 1 17.6637 235.9057)" class="st13 st12 st11">클라우드</text>
<rect x="12.1" y="619" class="st8" width="70.9" height="16.5"/>
<text transform="matrix(1 0 0 1 17.5401 629.3539)"><tspan x="0" y="0" class="st13 st12 st11">에지</tspan><tspan x="28.3" y="0" class="st13 st10 st11"> </tspan><tspan x="31.8" y="0" class="st13 st12 st11">노드</tspan></text>
<rect x="1.9" y="72.6" class="st8" width="88.1" height="16.5"/>
<text transform="matrix(1 0 0 1 8.8494 83)"><tspan x="0" y="0" class="st13 st12 st11">웹</tspan><tspan x="14.2" y="0" class="st13 st10 st11"> </tspan><tspan x="17.6" y="0" class="st13 st12 st11">브라우저</tspan></text>
<rect x="325" y="233.6" class="st8" width="178.3" height="39.6"/>
<text transform="matrix(1 0 0 1 325.0011 243.9987)"><tspan x="0" y="0" class="st13 st12 st11">데이터베이스에</tspan><tspan x="99.1" y="0" class="st13 st10 st11"> </tspan><tspan x="0" y="20" class="st13 st12 st11">인사이트</tspan><tspan x="56.6" y="20" class="st13 st10 st11">(</tspan><tspan x="61.5" y="20" class="st13 st12 st11">감성</tspan><tspan x="89.8" y="20" class="st13 st10 st11">)</tspan><tspan x="94.6" y="20" class="st13 st12 st11">만</tspan><tspan x="108.8" y="20" class="st13 st10 st11"> </tspan><tspan x="112.2" y="20" class="st13 st12 st11">저장</tspan></text>
<rect x="688" y="383.7" class="st8" width="194.8" height="39.6"/>
<text transform="matrix(1 0 0 1 688.0004 394.0139)"><tspan x="0" y="0" class="st13 st12 st11">메시지가</tspan><tspan x="56.6" y="0" class="st13 st10 st11"> </tspan><tspan x="60.1" y="0" class="st13 st12 st11">소프트웨어</tspan><tspan x="130.8" y="0" class="st13 st10 st11"> </tspan><tspan x="134.3" y="0" class="st13 st12 st11">정의</tspan><tspan x="162.6" y="0" class="st13 st10 st11"> </tspan><tspan x="0" y="20" class="st13 st12 st11">라디오</tspan><tspan x="42.5" y="20" class="st13 st10 st11"> </tspan><tspan x="45.9" y="20" class="st13 st12 st11">조치</tspan><tspan x="74.2" y="20" class="st13 st10 st11"> </tspan><tspan x="77.7" y="20" class="st13 st12 st11">트리거</tspan></text>
<rect x="548" y="190.1" class="st8" width="158.1" height="15.6"/>
<text transform="matrix(1 0 0 1 547.9996 201.9881)" class="st9 st14 st15">IBM Functions</text>
<rect x="571.1" y="447.2" class="st8" width="207.9" height="15.6"/>
<text transform="matrix(1 0 0 1 604.6774 458.9965)" class="st9 st14 st15">IBM Event Streams</text>
<rect x="580" y="659.7" class="st8" width="192" height="15.6"/>
<text transform="matrix(1 0 0 1 592.2483 671.5536)"><tspan x="0" y="0" class="st9 st14 st15">Open Horizon </tspan><tspan x="103.5" y="0" class="st9 st12 st15">에이전트</tspan></text>
<rect x="897" y="282.2" class="st8" width="288" height="41"/>
<text transform="matrix(1 0 0 1 996.1816 293.9906)"><tspan x="0" y="0" class="st9 st14 st15">IBM Watson</tspan><tspan x="-75.6" y="22" class="st9 st14 st15">Natural Language Understanding</tspan></text>
<rect x="896" y="190.2" class="st8" width="288" height="41"/>
<text transform="matrix(1 0 0 1 995.1767 202.0145)"><tspan x="0" y="0" class="st9 st14 st15">IBM Watson</tspan><tspan x="-9.7" y="22" class="st9 st14 st15">Speech to Text</tspan></text>
<rect x="27.3" y="343" class="st8" width="99.4" height="15.6"/>
<text transform="matrix(1 0 0 1 27.3008 354.8401)"><tspan x="0" y="0" class="st13 st12 st15">에지</tspan><tspan x="32" y="0" class="st13 st14 st15"> </tspan><tspan x="35.8" y="0" class="st13 st12 st15">노드</tspan></text>
</svg>
