<?xml version="1.0" encoding="UTF-8" standalone="no"?>
<!-- Generator: Adobe Illustrator 24.2.3, SVG Export Plug-In . SVG Version: 6.00 Build 0)  -->

<svg
   xmlns:dc="http://purl.org/dc/elements/1.1/"
   xmlns:cc="http://creativecommons.org/ns#"
   xmlns:rdf="http://www.w3.org/1999/02/22-rdf-syntax-ns#"
   xmlns:svg="http://www.w3.org/2000/svg"
   xmlns="http://www.w3.org/2000/svg"
   xmlns:sodipodi="http://sodipodi.sourceforge.net/DTD/sodipodi-0.dtd"
   xmlns:inkscape="http://www.inkscape.org/namespaces/inkscape"
   version="1.1"
   id="Layer_1"
   x="0px"
   y="0px"
   viewBox="0 0 1000 611.1"
   style="enable-background:new 0 0 1000 611.1;"
   xml:space="preserve"
   inkscape:version="0.91 r13725"
   sodipodi:docname="09_SDO_device_provisioning.svg"><metadata
     id="metadata422"><rdf:RDF><cc:Work
         rdf:about=""><dc:format>image/svg+xml</dc:format><dc:type
           rdf:resource="http://purl.org/dc/dcmitype/StillImage" /></cc:Work></rdf:RDF></metadata><defs
     id="defs420" /><sodipodi:namedview
     pagecolor="#ffffff"
     bordercolor="#666666"
     borderopacity="1"
     objecttolerance="10"
     gridtolerance="10"
     guidetolerance="10"
     inkscape:pageopacity="0"
     inkscape:pageshadow="2"
     inkscape:window-width="1920"
     inkscape:window-height="1015"
     id="namedview418"
     showgrid="false"
     inkscape:zoom="1.2508348"
     inkscape:cx="545.55884"
     inkscape:cy="309.49997"
     inkscape:window-x="-8"
     inkscape:window-y="-8"
     inkscape:window-maximized="1"
     inkscape:current-layer="Layer_1" /><style
     type="text/css"
     id="style3">
	.st0{fill-rule:evenodd;clip-rule:evenodd;fill:#051B75;}
	.st1{fill-rule:evenodd;clip-rule:evenodd;fill:#FFFFFF;}
	.st2{fill-rule:evenodd;clip-rule:evenodd;fill:none;}
	.st3{fill:#161616;}
	.st4{font-family:'IBMPlexSans';}
	.st5{font-size:14px;}
	.st6{fill:#F4F4F4;}
	.st7{font-family:'IBMPlexSans-Medium';}
	.st8{font-size:16px;}
	.st9{fill-rule:evenodd;clip-rule:evenodd;fill:#009C98;}
	.st10{fill-rule:evenodd;clip-rule:evenodd;fill:#BEBEBE;}
	.st11{fill:#FFFFFF;}
	.st12{fill-rule:evenodd;clip-rule:evenodd;fill:#E3F6FF;}
	.st13{fill-rule:evenodd;clip-rule:evenodd;fill:#0F62FE;}
	.st14{display:none;}
	.st15{display:inline;fill-rule:evenodd;clip-rule:evenodd;fill:#0F62FE;}
	.st16{display:inline;fill:#0F62FE;}
	.st17{fill:none;stroke:#0F62FE;stroke-width:2;stroke-miterlimit:10;}
	.st18{display:none;fill:none;stroke:#0F62FE;stroke-width:2;stroke-miterlimit:10;}
	.st19{fill-rule:evenodd;clip-rule:evenodd;fill:none;stroke:#0F62FE;stroke-width:2;stroke-miterlimit:10;}
	.st20{fill:none;stroke:#BEBEBE;stroke-width:2;}
	.st21{fill:#BEBEBE;}
	.st22{fill:none;stroke:#BEBEBE;stroke-width:2;stroke-dasharray:7,7;}
	.st23{fill:#E3F6FF;}
	.st24{fill:#0F62FE;}
	.st25{fill-rule:evenodd;clip-rule:evenodd;fill:#408BFC;}
	.st26{fill-rule:evenodd;clip-rule:evenodd;fill:#F4F4F4;}
	.st27{fill:none;stroke:#00BAB6;stroke-width:2;stroke-dasharray:7;}
</style><rect
     id="Rectangle-Copy-12"
     x="206.1"
     y="15.7"
     class="st0"
     width="439.2"
     height="231.6"
     style="" /><g
     id="g6"
     style=""><rect
       id="Rectangle-Copy-16_2_"
       x="429.5"
       y="73.7"
       class="st1"
       width="70.5"
       height="81"
       style="" /><rect
       x="429.6"
       y="107"
       class="st2"
       width="70.4"
       height="15.6"
       id="rect9"
       style="" /><text
       transform="matrix(1 0 0 1 433.87 117.3675)"
       class="st3 st4 st5"
       id="text11"
       style=""><tspan
         style="-inkscape-font-specification:Arial;font-family:Arial;font-weight:normal;font-style:normal;font-stretch:normal;font-variant:normal"
         id="tspan4568">Exchange</tspan></text>
</g><g
     id="g13"
     style=""><rect
       id="Rectangle-Copy-16_1_"
       x="223.2"
       y="149.9"
       class="st1"
       width="70.5"
       height="81"
       style="" /><rect
       x="223.2"
       y="183.2"
       class="st2"
       width="70.5"
       height="15.6"
       id="rect16"
       style="" /><text
       transform="matrix(1 0 0 1 250.8789 193.5708)"
       class="st3 st4 st5"
       id="text18"
       style=""><tspan
         style="-inkscape-font-specification:Arial;font-family:Arial;font-weight:normal;font-style:normal;font-stretch:normal;font-variant:normal"
         id="tspan4570">UI</tspan></text>
</g><g
     id="g20"
     style=""><rect
       id="Rectangle-Copy-16_4_"
       x="559.5"
       y="149.4"
       class="st1"
       width="70.5"
       height="81"
       style="" /><rect
       x="559.4"
       y="173.8"
       class="st2"
       width="70.6"
       height="33.5"
       id="rect23"
       style="" /><text
       id="text25"
       style="line-height:125%"
       sodipodi:linespacing="125%"
       x="594.13354"
       y="184.1176"><tspan
         sodipodi:role="line"
         id="tspan4575"
         x="594.13354"
         y="184.1176"
         style="font-style:normal;font-variant:normal;font-weight:normal;font-stretch:normal;font-size:14px;font-family:Arial;-inkscape-font-specification:Arial;text-align:center;text-anchor:middle">SDO</tspan><tspan
         sodipodi:role="line"
         id="tspan4577"
         x="594.13354"
         y="200.92088"
         style="font-style:normal;font-variant:normal;font-weight:normal;font-stretch:normal;font-size:14px;font-family:Gulim;-inkscape-font-specification:Gulim;text-align:center;text-anchor:middle">서비스</tspan></text>
</g><rect
     x="221.7"
     y="35.8"
     class="st2"
     width="236.1"
     height="15.6"
     id="rect31"
     style="" /><text
     transform="matrix(1 0 0 1 221.7151 47.6527)"
     class="st6 st7 st8"
     id="text33"
     style="-inkscape-font-specification:Gulim;font-family:Gulim;font-weight:normal;font-style:normal;font-stretch:normal;font-variant:normal;"><tspan
   style="-inkscape-font-specification:Arial;font-family:Arial;font-weight:normal;font-style:normal;font-stretch:normal;font-variant:normal"
   id="tspan4562">IEAM</tspan> 관리 허브</text>
<g
     id="g35"
     style=""><rect
       id="Rectangle-Copy-14_1_"
       x="825.7"
       y="15.7"
       class="st9"
       width="174"
       height="99.3"
       style="" /><rect
       x="841.7"
       y="35.8"
       class="st2"
       width="150.2"
       height="59.4"
       id="rect38"
       style="" /><text
       id="text40"
       style="font-style:normal;font-variant:normal;font-weight:normal;font-stretch:normal;font-size:16px;line-height:125%;font-family:Arial;-inkscape-font-specification:'Arial, Normal';text-align:start;writing-mode:lr-tb;text-anchor:start"
       sodipodi:linespacing="125%"
       x="841.68329"
       y="47.652599"><tspan
         sodipodi:role="line"
         id="tspan4617"
         style="fill:#ffffff;fill-opacity:1"
         x="841.68329"
         y="47.652599">Intel Corp.</tspan><tspan
         sodipodi:role="line"
         id="tspan4619"
         style="fill:#ffffff;fill-opacity:1"
         x="841.68329"
         y="67.652603">Rendezvous Server</tspan></text>
</g><g
     id="g46"
     style=""><rect
       id="Rectangle-Copy-16_3_"
       x="231.7"
       y="328.7"
       class="st10"
       width="146.7"
       height="81"
       style="" /><rect
       x="247.7"
       y="347.2"
       class="st2"
       width="112.9"
       height="29.7"
       id="rect49"
       style="" /><text
       class="st11 st7 st8"
       id="text51"
       style="font-size:16px;font-family:IBMPlexSans-Medium;fill:#ffffff"
       x="269.70038"
       y="359.04739"><tspan
         style="font-style:normal;font-variant:normal;font-weight:normal;font-stretch:normal;font-family:Gulim;-inkscape-font-specification:Gulim"
         id="tspan4599">로딩 도크</tspan></text>
</g><g
     id="g53"
     style=""><rect
       x="325.2"
       y="476.1"
       class="st2"
       width="118.7"
       height="15.5"
       id="rect55"
       style="" /><text
       class="st3 st4 st5"
       id="text57"
       style="font-size:14px;font-family:IBMPlexSans;fill:#161616"
       x="346.58029"
       y="486.43719"><tspan
         style="font-style:normal;font-variant:normal;font-weight:normal;font-stretch:normal;font-family:Gulim;-inkscape-font-specification:Gulim"
         id="tspan4552">노드 기술자</tspan></text>
<g
       id="Group-2_3_"
       transform="translate(21.000000, 0.000000)"
       style=""><circle
         id="Oval-Copy-3_3_"
         class="st12"
         cx="363.6"
         cy="441.4"
         r="24"
         style="" /><path
         class="st13"
         d="M358.6,444.4c2.8,0,5,2.2,5,5v6h-2v-6c0-1.7-1.3-3-3-3h-4c-1.7,0-3,1.3-3,3v6h-2v-6c0-2.8,2.2-5,5-5H358.6z"
         id="path61"
         style="" /><g
         id="g63"
         style=""><g
           id="g65"
           style=""><path
             class="st13"
             d="M356.6,432.4c-2.8,0-5,2.2-5,5s2.2,5,5,5c2.8,0,5-2.2,5-5S359.4,432.4,356.6,432.4z M356.6,440.4      c-1.7,0-3-1.3-3-3c0-1.7,1.3-3,3-3c1.7,0,3,1.3,3,3C359.6,439.1,358.2,440.4,356.6,440.4z"
             id="path67"
             style="" /></g></g><g
         class="st14"
         id="g69"
         style=""><rect
           x="385.6"
           y="440.4"
           class="st15"
           width="2"
           height="2"
           id="rect71"
           style="" /><rect
           x="390.6"
           y="440.4"
           class="st15"
           width="2"
           height="2"
           id="rect73"
           style="" /><rect
           x="393.6"
           y="437.4"
           class="st15"
           width="2"
           height="2"
           id="rect75"
           style="" /><rect
           x="382.6"
           y="437.4"
           class="st15"
           width="2"
           height="2"
           id="rect77"
           style="" /><rect
           x="385.6"
           y="432.4"
           class="st15"
           width="7"
           height="7"
           id="rect79"
           style="" /><rect
           x="387.6"
           y="434.4"
           class="st15"
           width="3"
           height="3"
           id="rect81"
           style="" /><rect
           x="393.6"
           y="432.4"
           class="st15"
           width="2"
           height="2"
           id="rect83"
           style="" /><rect
           x="382.6"
           y="432.4"
           class="st15"
           width="2"
           height="2"
           id="rect85"
           style="" /><rect
           x="385.6"
           y="429.4"
           class="st15"
           width="2"
           height="2"
           id="rect87"
           style="" /><rect
           x="390.6"
           y="429.4"
           class="st15"
           width="2"
           height="2"
           id="rect89"
           style="" /></g><g
         class="st14"
         id="g91"
         style=""><path
           class="st16"
           d="M384.6,438.4c-1.1,0-2,0.9-2,2c0,1.1,0.9,2,2,2c1.1,0,2-0.9,2-2C386.6,439.3,385.7,438.4,384.6,438.4     L384.6,438.4z"
           id="path93"
           style="" /></g><g
         id="g95"
         style=""><line
           class="st17"
           x1="376"
           y1="445.7"
           x2="376"
           y2="431.1"
           id="line97"
           style="" /><line
           class="st18"
           x1="390.1"
           y1="435.1"
           x2="390.1"
           y2="431.1"
           id="line99"
           style="" /><line
           class="st17"
           x1="380"
           y1="433.1"
           x2="372"
           y2="433.1"
           id="line101"
           style="" /></g><g
         id="g103"
         style=""><path
           class="st19"
           d="M368.9,431.4c0.8,0.8,0.8,2,0,2.8c-0.8,0.8-2,0.8-2.8,0c-0.8-0.8-0.8-2,0-2.8"
           id="path105"
           style="" /><line
           class="st17"
           x1="367.4"
           y1="445.7"
           x2="367.4"
           y2="435"
           id="line107"
           style="" /></g></g></g><g
     class="st14"
     id="g109"><rect
       x="117.2"
       y="425.7"
       class="st15"
       width="2"
       height="2"
       id="rect111" /><rect
       x="122.2"
       y="425.7"
       class="st15"
       width="2"
       height="2"
       id="rect113" /><rect
       x="125.2"
       y="422.7"
       class="st15"
       width="2"
       height="2"
       id="rect115" /><rect
       x="114.2"
       y="422.7"
       class="st15"
       width="2"
       height="2"
       id="rect117" /><rect
       x="117.2"
       y="417.7"
       class="st15"
       width="7"
       height="7"
       id="rect119" /><rect
       x="119.2"
       y="419.7"
       class="st15"
       width="3"
       height="3"
       id="rect121" /><rect
       x="125.2"
       y="417.7"
       class="st15"
       width="2"
       height="2"
       id="rect123" /><rect
       x="114.2"
       y="417.7"
       class="st15"
       width="2"
       height="2"
       id="rect125" /><rect
       x="117.2"
       y="414.7"
       class="st15"
       width="2"
       height="2"
       id="rect127" /><rect
       x="122.2"
       y="414.7"
       class="st15"
       width="2"
       height="2"
       id="rect129" /></g><g
     class="st14"
     id="g131"><path
       class="st16"
       d="M116.2,423.7c-1.1,0-2,0.9-2,2c0,1.1,0.9,2,2,2s2-0.9,2-2C118.2,424.6,117.3,423.7,116.2,423.7L116.2,423.7z"
       id="path133" /></g><g
     id="g135"
     style=""><g
       id="g137"
       style=""><polyline
         class="st20"
         points="583,240.5 583,271.7 187.1,271.7 35.7,271.7 35.7,15.7   "
         id="polyline139"
         style="" /><g
         id="g141"
         style=""><polygon
           class="st21"
           points="576,242.5 583,230.4 589.9,242.5    "
           id="polygon143"
           style="" /></g></g></g><g
     id="g145"
     style=""><g
       id="g147"
       style=""><line
         class="st20"
         x1="105.2"
         y1="331.5"
         x2="105.2"
         y2="482.8"
         id="line149"
         style="" /><g
         id="g151"
         style=""><polygon
           class="st21"
           points="98.2,333.6 105.2,321.5 112.2,333.6    "
           id="polygon153"
           style="" /></g><g
         id="g155"
         style=""><polygon
           class="st21"
           points="98.2,480.7 105.2,492.8 112.2,480.7    "
           id="polygon157"
           style="" /></g></g></g><g
     id="g159"
     style=""><g
       id="g161"
       style=""><polyline
         class="st20"
         points="124.8,521.9 288.9,521.9 288.9,419.7   "
         id="polyline163"
         style="" /><g
         id="g165"
         style=""><polygon
           class="st21"
           points="295.9,421.7 288.9,409.7 281.9,421.7    "
           id="polygon167"
           style="" /></g></g></g><polyline
     class="st20"
     points="360.6,442.5 321.6,442.5 321.6,409.7 "
     id="polyline169"
     style="" /><g
     id="g171"
     style=""><g
       id="g173"
       style=""><line
         class="st20"
         x1="768.3"
         y1="442.5"
         x2="408.6"
         y2="442.5"
         id="line175"
         style="" /><g
         id="g177"
         style=""><polygon
           class="st21"
           points="766.2,435.5 778.3,442.5 766.2,449.5    "
           id="polygon179"
           style="" /></g></g></g><g
     id="g181"
     style=""><g
       id="g183"
       style=""><polyline
         class="st22"
         points="258.5,149.9 258.5,114.2 419.4,114.2   "
         id="polyline185"
         style="" /><g
         id="g187"
         style=""><polygon
           class="st21"
           points="417.4,121.2 429.5,114.2 417.4,107.2    "
           id="polygon189"
           style="" /></g></g></g><g
     id="g191"
     style=""><g
       id="g193"
       style=""><polyline
         class="st22"
         points="640,207.3 678.4,207.3 678.4,417.4 768.3,417.4   "
         id="polyline195"
         style="" /><g
         id="g197"
         style=""><polygon
           class="st21"
           points="642.1,214.3 630,207.3 642.1,200.3    "
           id="polygon199"
           style="" /></g><g
         id="g201"
         style=""><polygon
           class="st21"
           points="766.2,424.4 778.3,417.4 766.2,410.5    "
           id="polygon203"
           style="" /></g></g></g><g
     id="g205"
     style=""><g
       id="g207"
       style=""><polyline
         class="st22"
         points="931.6,359.1 931.6,276 848.2,276 848.2,125   "
         id="polyline209"
         style="" /><g
         id="g211"
         style=""><polygon
           class="st21"
           points="938.5,357.1 931.6,369.2 924.6,357.1    "
           id="polygon213"
           style="" /></g><g
         id="g215"
         style=""><polygon
           class="st21"
           points="855.1,127 848.2,114.9 841.2,127    "
           id="polygon217"
           style="" /></g></g></g><g
     id="g219"
     style=""><g
       id="g221"
       style=""><line
         class="st22"
         x1="549.4"
         y1="189.9"
         x2="295.6"
         y2="189.9"
         id="line223"
         style="" /><g
         id="g225"
         style=""><polygon
           class="st21"
           points="547.4,182.9 559.4,189.9 547.4,196.9    "
           id="polygon227"
           style="" /></g></g></g><g
     id="g229"
     style=""><g
       id="g231"
       style=""><polyline
         class="st22"
         points="630,189.9 666,189.9 666,62.3 815.6,62.3   "
         id="polyline233"
         style="" /><g
         id="g235"
         style=""><polygon
           class="st21"
           points="813.6,69.3 825.7,62.3 813.6,55.3    "
           id="polygon237"
           style="" /></g></g></g><g
     id="g239"
     style=""><rect
       x="47.9"
       y="554.2"
       class="st2"
       width="106"
       height="33.3"
       id="rect241"
       style="" /><text
       id="text243"
       x="39.445297"
       y="564.5863"><tspan
         x="39.445297"
         y="564.5863"
         class="st3 st4 st5"
         id="tspan245"
         style="font-style:normal;font-variant:normal;font-weight:normal;font-stretch:normal;font-size:14px;font-family:Gulim;-inkscape-font-specification:Gulim;fill:#161616">디바이스 제조업체</tspan></text>
<g
       id="g249"
       style=""><rect
         x="77.1"
         y="498"
         class="st23"
         width="47.8"
         height="47.8"
         id="rect251"
         style="" /><path
         class="st24"
         d="M114.5,513c-0.3-0.2-0.7-0.2-1,0l-8.5,4.2v-3.4c0-0.6-0.5-1-1-1c-0.2,0-0.3,0-0.4,0.1l-8.6,4.3v-7.4    c0-0.6-0.4-1-1-1h-6c-0.6,0-1,0.4-1,1v25h28v-21C114.9,513.5,114.8,513.2,114.5,513z M106.9,532.9h-4v-7h4V532.9z M112.9,532.9h-4    v-8c0-0.6-0.4-1-1-1h-6c-0.6,0-1,0.4-1,1v8h-12v-22h4v9.6l10-5v5l10-5V532.9z"
         id="path253"
         style="" /></g></g><g
     id="g255"
     style=""><g
       id="g257"
       style=""><rect
         id="Rectangle-Copy-14"
         x="805.7"
         y="393.7"
         class="st25"
         width="30.8"
         height="29.2"
         style="" /><g
         id="icon_x2F_device_x2F_16"
         transform="translate(685.000000, 339.000000)"
         style=""><path
           id="Shape_4_"
           class="st26"
           d="M137.1,61.8c0.6,0,1,0.4,1,1c0,0.5-0.4,0.9-0.8,1l-0.4,1h3.3c1.1,0,2,0.9,2,2v5     c0,1.1-0.9,2-2,2h-8c-1.1,0-2-0.9-2-2v-5c0-1.1,0.9-2,2-2h3.7l0.6-1.4c-0.1-0.1-0.2-0.3-0.2-0.5l0-0.1     C136.1,62.2,136.5,61.8,137.1,61.8z M140.1,65.8h-8c-0.5,0-0.9,0.4-1,0.9l0,0.1v5c0,0.5,0.4,0.9,0.9,1l0.1,0h8     c0.5,0,0.9-0.4,1-0.9l0-0.1v-5c0-0.5-0.4-0.9-0.9-1L140.1,65.8z M138.6,70.8c0.3,0,0.5,0.2,0.5,0.5s-0.2,0.5-0.5,0.5h-5     c-0.3,0-0.5-0.2-0.5-0.5s0.2-0.5,0.5-0.5H138.6z M133.6,66.8c0.8,0,1.5,0.7,1.5,1.5c0,0.8-0.7,1.5-1.5,1.5     c-0.8,0-1.5-0.7-1.5-1.5C132.1,67.4,132.8,66.8,133.6,66.8z M138.6,66.8c0.8,0,1.5,0.7,1.5,1.5c0,0.8-0.7,1.5-1.5,1.5     c-0.8,0-1.5-0.7-1.5-1.5C137.1,67.4,137.8,66.8,138.6,66.8z M133.6,67.8c-0.3,0-0.5,0.2-0.5,0.5s0.2,0.5,0.5,0.5     c0.3,0,0.5-0.2,0.5-0.5S133.9,67.8,133.6,67.8z M138.6,67.8c-0.3,0-0.5,0.2-0.5,0.5s0.2,0.5,0.5,0.5c0.3,0,0.5-0.2,0.5-0.5     S138.9,67.8,138.6,67.8z"
           style="" /></g></g><g
       id="g262"
       style=""><rect
         id="Rectangle-Copy-14_2_"
         x="851.8"
         y="393.7"
         class="st25"
         width="30.8"
         height="29.2"
         style="" /><g
         id="icon_x2F_device_x2F_16_1_"
         transform="translate(685.000000, 339.000000)"
         style=""><path
           id="Shape_2_"
           class="st26"
           d="M183.2,61.8c0.6,0,1,0.4,1,1c0,0.5-0.4,0.9-0.8,1l-0.4,1h3.3c1.1,0,2,0.9,2,2v5     c0,1.1-0.9,2-2,2h-8c-1.1,0-2-0.9-2-2v-5c0-1.1,0.9-2,2-2h3.7l0.6-1.4c-0.1-0.1-0.2-0.3-0.2-0.5l0-0.1     C182.2,62.2,182.6,61.8,183.2,61.8z M186.2,65.8h-8c-0.5,0-0.9,0.4-1,0.9l0,0.1v5c0,0.5,0.4,0.9,0.9,1l0.1,0h8     c0.5,0,0.9-0.4,1-0.9l0-0.1v-5c0-0.5-0.4-0.9-0.9-1L186.2,65.8z M184.7,70.8c0.3,0,0.5,0.2,0.5,0.5s-0.2,0.5-0.5,0.5h-5     c-0.3,0-0.5-0.2-0.5-0.5s0.2-0.5,0.5-0.5H184.7z M179.7,66.8c0.8,0,1.5,0.7,1.5,1.5c0,0.8-0.7,1.5-1.5,1.5     c-0.8,0-1.5-0.7-1.5-1.5C178.2,67.4,178.8,66.8,179.7,66.8z M184.7,66.8c0.8,0,1.5,0.7,1.5,1.5c0,0.8-0.7,1.5-1.5,1.5     c-0.8,0-1.5-0.7-1.5-1.5C183.2,67.4,183.8,66.8,184.7,66.8z M179.7,67.8c-0.3,0-0.5,0.2-0.5,0.5s0.2,0.5,0.5,0.5     c0.3,0,0.5-0.2,0.5-0.5S179.9,67.8,179.7,67.8z M184.7,67.8c-0.3,0-0.5,0.2-0.5,0.5s0.2,0.5,0.5,0.5c0.3,0,0.5-0.2,0.5-0.5     S184.9,67.8,184.7,67.8z"
           style="" /></g></g><g
       id="g267"
       style=""><rect
         id="Rectangle-Copy-14_3_"
         x="897.6"
         y="393.7"
         class="st25"
         width="30.8"
         height="29.2"
         style="" /><g
         id="icon_x2F_device_x2F_16_2_"
         transform="translate(685.000000, 339.000000)"
         style=""><path
           id="Shape_3_"
           class="st26"
           d="M229,61.8c0.6,0,1,0.4,1,1c0,0.5-0.4,0.9-0.8,1l-0.4,1h3.3c1.1,0,2,0.9,2,2v5     c0,1.1-0.9,2-2,2h-8c-1.1,0-2-0.9-2-2v-5c0-1.1,0.9-2,2-2h3.7l0.6-1.4c-0.1-0.1-0.2-0.3-0.2-0.5l0-0.1     C228,62.2,228.4,61.8,229,61.8z M232,65.8h-8c-0.5,0-0.9,0.4-1,0.9l0,0.1v5c0,0.5,0.4,0.9,0.9,1l0.1,0h8c0.5,0,0.9-0.4,1-0.9     l0-0.1v-5c0-0.5-0.4-0.9-0.9-1L232,65.8z M230.5,70.8c0.3,0,0.5,0.2,0.5,0.5s-0.2,0.5-0.5,0.5h-5c-0.3,0-0.5-0.2-0.5-0.5     s0.2-0.5,0.5-0.5H230.5z M225.5,66.8c0.8,0,1.5,0.7,1.5,1.5c0,0.8-0.7,1.5-1.5,1.5c-0.8,0-1.5-0.7-1.5-1.5     C224,67.4,224.6,66.8,225.5,66.8z M230.5,66.8c0.8,0,1.5,0.7,1.5,1.5c0,0.8-0.7,1.5-1.5,1.5c-0.8,0-1.5-0.7-1.5-1.5     C229,67.4,229.6,66.8,230.5,66.8z M225.5,67.8c-0.3,0-0.5,0.2-0.5,0.5s0.2,0.5,0.5,0.5c0.3,0,0.5-0.2,0.5-0.5     S225.7,67.8,225.5,67.8z M230.5,67.8c-0.3,0-0.5,0.2-0.5,0.5s0.2,0.5,0.5,0.5c0.3,0,0.5-0.2,0.5-0.5S230.7,67.8,230.5,67.8z"
           style="" /></g></g><g
       id="g272"
       style=""><rect
         id="Rectangle-Copy-14_6_"
         x="805.7"
         y="436.2"
         class="st25"
         width="30.8"
         height="29.2"
         style="" /><g
         id="icon_x2F_device_x2F_16_5_"
         transform="translate(685.000000, 339.000000)"
         style=""><path
           id="Shape_7_"
           class="st26"
           d="M137.1,104.3c0.6,0,1,0.4,1,1c0,0.5-0.4,0.9-0.8,1l-0.4,1h3.3c1.1,0,2,0.9,2,2v5     c0,1.1-0.9,2-2,2h-8c-1.1,0-2-0.9-2-2v-5c0-1.1,0.9-2,2-2h3.7l0.6-1.4c-0.1-0.1-0.2-0.3-0.2-0.5l0-0.1     C136.1,104.8,136.5,104.3,137.1,104.3z M140.1,108.3h-8c-0.5,0-0.9,0.4-1,0.9l0,0.1v5c0,0.5,0.4,0.9,0.9,1l0.1,0h8     c0.5,0,0.9-0.4,1-0.9l0-0.1v-5c0-0.5-0.4-0.9-0.9-1L140.1,108.3z M138.6,113.3c0.3,0,0.5,0.2,0.5,0.5c0,0.3-0.2,0.5-0.5,0.5h-5     c-0.3,0-0.5-0.2-0.5-0.5c0-0.3,0.2-0.5,0.5-0.5H138.6z M133.6,109.3c0.8,0,1.5,0.7,1.5,1.5c0,0.8-0.7,1.5-1.5,1.5     c-0.8,0-1.5-0.7-1.5-1.5C132.1,110,132.8,109.3,133.6,109.3z M138.6,109.3c0.8,0,1.5,0.7,1.5,1.5c0,0.8-0.7,1.5-1.5,1.5     c-0.8,0-1.5-0.7-1.5-1.5C137.1,110,137.8,109.3,138.6,109.3z M133.6,110.3c-0.3,0-0.5,0.2-0.5,0.5c0,0.3,0.2,0.5,0.5,0.5     c0.3,0,0.5-0.2,0.5-0.5C134.1,110.5,133.9,110.3,133.6,110.3z M138.6,110.3c-0.3,0-0.5,0.2-0.5,0.5c0,0.3,0.2,0.5,0.5,0.5     c0.3,0,0.5-0.2,0.5-0.5C139.1,110.5,138.9,110.3,138.6,110.3z"
           style="" /></g></g><g
       id="g277"
       style=""><rect
         id="Rectangle-Copy-14_5_"
         x="851.8"
         y="436.2"
         class="st25"
         width="30.8"
         height="29.2"
         style="" /><g
         id="icon_x2F_device_x2F_16_4_"
         transform="translate(685.000000, 339.000000)"
         style=""><path
           id="Shape_6_"
           class="st26"
           d="M183.2,104.3c0.6,0,1,0.4,1,1c0,0.5-0.4,0.9-0.8,1l-0.4,1h3.3c1.1,0,2,0.9,2,2v5     c0,1.1-0.9,2-2,2h-8c-1.1,0-2-0.9-2-2v-5c0-1.1,0.9-2,2-2h3.7l0.6-1.4c-0.1-0.1-0.2-0.3-0.2-0.5l0-0.1     C182.2,104.8,182.6,104.3,183.2,104.3z M186.2,108.3h-8c-0.5,0-0.9,0.4-1,0.9l0,0.1v5c0,0.5,0.4,0.9,0.9,1l0.1,0h8     c0.5,0,0.9-0.4,1-0.9l0-0.1v-5c0-0.5-0.4-0.9-0.9-1L186.2,108.3z M184.7,113.3c0.3,0,0.5,0.2,0.5,0.5c0,0.3-0.2,0.5-0.5,0.5h-5     c-0.3,0-0.5-0.2-0.5-0.5c0-0.3,0.2-0.5,0.5-0.5H184.7z M179.7,109.3c0.8,0,1.5,0.7,1.5,1.5c0,0.8-0.7,1.5-1.5,1.5     c-0.8,0-1.5-0.7-1.5-1.5C178.2,110,178.8,109.3,179.7,109.3z M184.7,109.3c0.8,0,1.5,0.7,1.5,1.5c0,0.8-0.7,1.5-1.5,1.5     c-0.8,0-1.5-0.7-1.5-1.5C183.2,110,183.8,109.3,184.7,109.3z M179.7,110.3c-0.3,0-0.5,0.2-0.5,0.5c0,0.3,0.2,0.5,0.5,0.5     c0.3,0,0.5-0.2,0.5-0.5C180.2,110.5,179.9,110.3,179.7,110.3z M184.7,110.3c-0.3,0-0.5,0.2-0.5,0.5c0,0.3,0.2,0.5,0.5,0.5     c0.3,0,0.5-0.2,0.5-0.5C185.2,110.5,184.9,110.3,184.7,110.3z"
           style="" /></g></g><g
       id="g282"
       style=""><rect
         id="Rectangle-Copy-14_4_"
         x="897.6"
         y="436.2"
         class="st25"
         width="30.8"
         height="29.2"
         style="" /><g
         id="icon_x2F_device_x2F_16_3_"
         transform="translate(685.000000, 339.000000)"
         style=""><path
           id="Shape_5_"
           class="st26"
           d="M229,104.3c0.6,0,1,0.4,1,1c0,0.5-0.4,0.9-0.8,1l-0.4,1h3.3c1.1,0,2,0.9,2,2v5     c0,1.1-0.9,2-2,2h-8c-1.1,0-2-0.9-2-2v-5c0-1.1,0.9-2,2-2h3.7l0.6-1.4c-0.1-0.1-0.2-0.3-0.2-0.5l0-0.1     C228,104.8,228.4,104.3,229,104.3z M232,108.3h-8c-0.5,0-0.9,0.4-1,0.9l0,0.1v5c0,0.5,0.4,0.9,0.9,1l0.1,0h8c0.5,0,0.9-0.4,1-0.9     l0-0.1v-5c0-0.5-0.4-0.9-0.9-1L232,108.3z M230.5,113.3c0.3,0,0.5,0.2,0.5,0.5c0,0.3-0.2,0.5-0.5,0.5h-5c-0.3,0-0.5-0.2-0.5-0.5     c0-0.3,0.2-0.5,0.5-0.5H230.5z M225.5,109.3c0.8,0,1.5,0.7,1.5,1.5c0,0.8-0.7,1.5-1.5,1.5c-0.8,0-1.5-0.7-1.5-1.5     C224,110,224.6,109.3,225.5,109.3z M230.5,109.3c0.8,0,1.5,0.7,1.5,1.5c0,0.8-0.7,1.5-1.5,1.5c-0.8,0-1.5-0.7-1.5-1.5     C229,110,229.6,109.3,230.5,109.3z M225.5,110.3c-0.3,0-0.5,0.2-0.5,0.5c0,0.3,0.2,0.5,0.5,0.5c0.3,0,0.5-0.2,0.5-0.5     C226,110.5,225.7,110.3,225.5,110.3z M230.5,110.3c-0.3,0-0.5,0.2-0.5,0.5c0,0.3,0.2,0.5,0.5,0.5c0.3,0,0.5-0.2,0.5-0.5     C231,110.5,230.7,110.3,230.5,110.3z"
           style="" /></g></g><g
       id="g287"
       style=""><rect
         id="Rectangle-Copy-14_8_"
         x="941.5"
         y="393.7"
         class="st25"
         width="30.8"
         height="29.2"
         style="" /><g
         id="icon_x2F_device_x2F_16_7_"
         transform="translate(685.000000, 339.000000)"
         style=""><path
           id="Shape_9_"
           class="st26"
           d="M272.9,61.8c0.6,0,1,0.4,1,1c0,0.5-0.4,0.9-0.8,1l-0.4,1h3.3c1.1,0,2,0.9,2,2v5     c0,1.1-0.9,2-2,2h-8c-1.1,0-2-0.9-2-2v-5c0-1.1,0.9-2,2-2h3.7l0.6-1.4c-0.1-0.1-0.2-0.3-0.2-0.5l0-0.1     C271.9,62.2,272.4,61.8,272.9,61.8z M275.9,65.8h-8c-0.5,0-0.9,0.4-1,0.9l0,0.1v5c0,0.5,0.4,0.9,0.9,1l0.1,0h8     c0.5,0,0.9-0.4,1-0.9l0-0.1v-5c0-0.5-0.4-0.9-0.9-1L275.9,65.8z M274.4,70.8c0.3,0,0.5,0.2,0.5,0.5s-0.2,0.5-0.5,0.5h-5     c-0.3,0-0.5-0.2-0.5-0.5s0.2-0.5,0.5-0.5H274.4z M269.4,66.8c0.8,0,1.5,0.7,1.5,1.5c0,0.8-0.7,1.5-1.5,1.5     c-0.8,0-1.5-0.7-1.5-1.5C267.9,67.4,268.6,66.8,269.4,66.8z M274.4,66.8c0.8,0,1.5,0.7,1.5,1.5c0,0.8-0.7,1.5-1.5,1.5     c-0.8,0-1.5-0.7-1.5-1.5C272.9,67.4,273.6,66.8,274.4,66.8z M269.4,67.8c-0.3,0-0.5,0.2-0.5,0.5s0.2,0.5,0.5,0.5     c0.3,0,0.5-0.2,0.5-0.5S269.7,67.8,269.4,67.8z M274.4,67.8c-0.3,0-0.5,0.2-0.5,0.5s0.2,0.5,0.5,0.5c0.3,0,0.5-0.2,0.5-0.5     S274.7,67.8,274.4,67.8z"
           style="" /></g></g><g
       id="g292"
       style=""><rect
         id="Rectangle-Copy-14_7_"
         x="941.5"
         y="436.2"
         class="st25"
         width="30.8"
         height="29.2"
         style="" /><g
         id="icon_x2F_device_x2F_16_6_"
         transform="translate(685.000000, 339.000000)"
         style=""><path
           id="Shape_8_"
           class="st26"
           d="M272.9,104.3c0.6,0,1,0.4,1,1c0,0.5-0.4,0.9-0.8,1l-0.4,1h3.3c1.1,0,2,0.9,2,2v5     c0,1.1-0.9,2-2,2h-8c-1.1,0-2-0.9-2-2v-5c0-1.1,0.9-2,2-2h3.7l0.6-1.4c-0.1-0.1-0.2-0.3-0.2-0.5l0-0.1     C271.9,104.8,272.4,104.3,272.9,104.3z M275.9,108.3h-8c-0.5,0-0.9,0.4-1,0.9l0,0.1v5c0,0.5,0.4,0.9,0.9,1l0.1,0h8     c0.5,0,0.9-0.4,1-0.9l0-0.1v-5c0-0.5-0.4-0.9-0.9-1L275.9,108.3z M274.4,113.3c0.3,0,0.5,0.2,0.5,0.5c0,0.3-0.2,0.5-0.5,0.5h-5     c-0.3,0-0.5-0.2-0.5-0.5c0-0.3,0.2-0.5,0.5-0.5H274.4z M269.4,109.3c0.8,0,1.5,0.7,1.5,1.5c0,0.8-0.7,1.5-1.5,1.5     c-0.8,0-1.5-0.7-1.5-1.5C267.9,110,268.6,109.3,269.4,109.3z M274.4,109.3c0.8,0,1.5,0.7,1.5,1.5c0,0.8-0.7,1.5-1.5,1.5     c-0.8,0-1.5-0.7-1.5-1.5C272.9,110,273.6,109.3,274.4,109.3z M269.4,110.3c-0.3,0-0.5,0.2-0.5,0.5c0,0.3,0.2,0.5,0.5,0.5     c0.3,0,0.5-0.2,0.5-0.5C269.9,110.5,269.7,110.3,269.4,110.3z M274.4,110.3c-0.3,0-0.5,0.2-0.5,0.5c0,0.3,0.2,0.5,0.5,0.5     c0.3,0,0.5-0.2,0.5-0.5C274.9,110.5,274.7,110.3,274.4,110.3z"
           style="" /></g></g><path
       id="Rectangle-Copy-17"
       class="st27"
       d="M818.3,369.2h140.4c22.1,0,40,17.9,40,40v43.1c0,22.1-17.9,40-40,40H818.3   c-22.1,0-40-17.9-40-40v-43.1C778.3,387.1,796.2,369.2,818.3,369.2z"
       style="" /><rect
       x="810.3"
       y="341.3"
       class="st2"
       width="147.7"
       height="15.6"
       id="rect298"
       style="" /><text
       transform="matrix(1 0 0 1 810.3135 353.1496)"
       class="st3 st7 st8"
       id="text300"
       style=""><tspan
         style="-inkscape-font-specification:Gulim;font-family:Gulim;font-weight:normal;font-style:normal;font-stretch:normal;font-variant:normal"
         id="tspan4550">에지 노드</tspan></text>
</g><rect
     x="46.2"
     y="365.5"
     class="st11"
     width="148.6"
     height="85.6"
     id="rect302"
     style="" /><rect
     x="53.1"
     y="15.7"
     class="st2"
     width="115.4"
     height="81.4"
     id="rect304"
     style="" /><text
     id="text306"
     style="font-style:normal;font-variant:normal;font-weight:normal;font-stretch:normal;font-size:14px;line-height:125%;font-family:Gulim;-inkscape-font-specification:'Gulim, Normal';text-align:start;writing-mode:lr-tb;text-anchor:start"
     sodipodi:linespacing="125%"
     x="53.138199"
     y="26.041"><tspan
       sodipodi:role="line"
       id="tspan4554"
       x="53.138199"
       y="26.041"><tspan
   style="font-style:normal;font-variant:normal;font-weight:normal;font-stretch:normal;font-family:Arial;-inkscape-font-specification:Arial"
   id="tspan4560">1. SDO</tspan> 소유권 키를 </tspan><tspan
       sodipodi:role="line"
       id="tspan4556"
       x="53.138199"
       y="44.608315">생성하여 가져옵니다</tspan><tspan
       sodipodi:role="line"
       id="tspan4558"
       x="53.138199"
       y="62.108315">(처음만).</tspan></text>
<rect
     x="53.1"
     y="373.5"
     class="st2"
     width="144.4"
     height="79.2"
     id="rect316"
     style="" /><text
     id="text318"
     style="font-style:normal;font-variant:normal;font-weight:normal;font-stretch:normal;line-height:125%;font-family:Gulim;-inkscape-font-specification:Gulim"
     sodipodi:linespacing="125%"
     x="53.138199"
     y="383.83539"><tspan
       sodipodi:role="line"
       id="tspan4585"
       style="font-size:14px"
       x="53.138199"
       y="383.83539"><tspan
   style="font-style:normal;font-variant:normal;font-weight:normal;font-stretch:normal;font-family:Arial;-inkscape-font-specification:Arial"
   id="tspan4595">2. SDO</tspan> 소유자 공개 키를 </tspan><tspan
       sodipodi:role="line"
       id="tspan4587"
       style="font-size:14px"
       x="53.138199"
       y="402.40271">제공하는 디바이스를 </tspan><tspan
       sodipodi:role="line"
       id="tspan4589"
       style="font-size:14px"
       x="53.138199"
       y="419.90271">주문합니다. 그러면 소유권</tspan><tspan
       sodipodi:role="line"
       id="tspan4591"
       style="font-size:14px"
       x="53.138199"
       y="437.40271">바우처를 수신합니다.</tspan></text>
<rect
     x="150.6"
     y="501.7"
     class="st2"
     width="112.5"
     height="18.3"
     id="rect328"
     style="" /><text
     class="st3 st4 st5"
     id="text330"
     style="font-style:normal;font-variant:normal;font-weight:normal;font-stretch:normal;font-size:12.5px;font-family:Gulim;-inkscape-font-specification:Gulim;fill:#161616"
     x="136.6095"
     y="512.07709"><tspan
   style="font-style:normal;font-variant:normal;font-weight:normal;font-stretch:normal;font-family:Arial;-inkscape-font-specification:Arial"
   id="tspan4601">4.</tspan> 디바이스를 배포합니다.</text>
<rect
     x="438.5"
     y="403.8"
     class="st2"
     width="240"
     height="35.4"
     id="rect332"
     style="" /><text
     id="text334"
     style="font-style:normal;font-variant:normal;font-weight:normal;font-stretch:normal;font-size:14px;line-height:125%;font-family:Gulim;-inkscape-font-specification:'Gulim, Normal';text-align:start;writing-mode:lr-tb;text-anchor:start"
     sodipodi:linespacing="125%"
     x="438.4693"
     y="414.1839"><tspan
       sodipodi:role="line"
       id="tspan4603"
       x="438.4693"
       y="414.1839"><tspan
   style="font-style:normal;font-variant:normal;font-weight:normal;font-stretch:normal;font-family:Arial;-inkscape-font-specification:Arial"
   id="tspan4607">5.</tspan> 필드에 배치하고 네트워크와 </tspan><tspan
       sodipodi:role="line"
       id="tspan4605"
       x="438.4693"
       y="432.75122">전원을 연결한 다음 전원을 켭니다.</tspan></text>
<rect
     x="863.1"
     y="149.4"
     class="st2"
     width="130.7"
     height="35.4"
     id="rect340"
     style="" /><text
     id="text342"
     style="font-style:normal;font-variant:normal;font-weight:normal;font-stretch:normal;font-size:14px;line-height:125%;font-family:Gulim;-inkscape-font-specification:'Gulim, Normal';text-align:start;writing-mode:lr-tb;text-anchor:start"
     sodipodi:linespacing="125%"
     x="863.11267"
     y="159.7205"><tspan
       sodipodi:role="line"
       id="tspan4621"
       style="font-style:normal;font-variant:normal;font-weight:normal;font-stretch:normal;font-family:Arial;-inkscape-font-specification:Arial"
       x="863.11267"
       y="159.7205">6. rendezvous</tspan><tspan
       sodipodi:role="line"
       id="tspan4623"
       x="863.11267"
       y="176.52379">서버에 접속합니다.</tspan></text>
<rect
     x="863.1"
     y="204.8"
     class="st2"
     width="136.9"
     height="60.4"
     id="rect348"
     style="" /><text
     id="text350"
     style="font-style:normal;font-variant:normal;font-weight:normal;font-stretch:normal;font-size:12.00000095px;line-height:125%;font-family:Gulim;-inkscape-font-specification:'Gulim, Normal';text-align:start;writing-mode:lr-tb;text-anchor:start"
     x="861.11218"
     y="215.1472"
     sodipodi:linespacing="125%"><tspan
       sodipodi:role="line"
       id="tspan4649"
       x="861.11218"
       y="215.1472"
       style="font-size:13.75px"><tspan
   style="font-style:normal;font-variant:normal;font-weight:normal;font-stretch:normal;font-family:Arial;-inkscape-font-specification:Arial;font-size:13.75px"
   id="tspan4657">7.</tspan> 에지 노드의 경로를</tspan><tspan
       sodipodi:role="line"
       id="tspan4651"
       x="861.11218"
       y="231.65923"
       style="font-size:13.75px"><tspan
   style="font-style:normal;font-variant:normal;font-weight:normal;font-stretch:normal;font-family:Arial;-inkscape-font-specification:Arial;font-size:13.75px"
   id="tspan4655">IEAM</tspan> 관리 허브로 </tspan><tspan
       sodipodi:role="line"
       id="tspan4653"
       x="861.11218"
       y="247.57407"
       style="font-size:13.75px">재지정합니다.</tspan></text>
<rect
     x="694"
     y="209.3"
     class="st2"
     width="106.7"
     height="43.1"
     id="rect358"
     style="" /><text
     transform="matrix(1 0 0 1 694.0245 219.634)"
     id="text360"
     style="-inkscape-font-specification:Gulim;font-family:Gulim;font-weight:normal;font-style:normal;font-stretch:normal;font-variant:normal;"><tspan
       x="0"
       y="0"
       class="st3 st4 st5"
       id="tspan362"
       style="-inkscape-font-specification:Gulim;font-family:Gulim;font-weight:normal;font-style:normal;font-stretch:normal;font-variant:normal;"><tspan
   style="-inkscape-font-specification:Arial;font-family:Arial;font-weight:normal;font-style:normal;font-stretch:normal;font-variant:normal"
   id="tspan4639">8.</tspan> 구성을 </tspan><tspan
       x="0"
       y="20"
       class="st3 st4 st5"
       id="tspan364"
       style="-inkscape-font-specification:Gulim;font-family:Gulim;font-weight:normal;font-style:normal;font-stretch:normal;font-variant:normal;">요청합니다.</tspan></text>
<rect
     x="694"
     y="271.7"
     class="st2"
     width="147.3"
     height="57.9"
     id="rect366"
     style="" /><text
     id="text368"
     style="font-style:normal;font-variant:normal;font-weight:normal;font-stretch:normal;font-size:14px;line-height:125%;font-family:Arial;-inkscape-font-specification:'Arial, Normal';text-align:start;writing-mode:lr-tb;text-anchor:start"
     sodipodi:linespacing="125%"
     x="694.02448"
     y="282.10199"><tspan
       sodipodi:role="line"
       id="tspan4641"
       x="694.02448"
       y="282.10199">9. IEAM <tspan
   style="font-style:normal;font-variant:normal;font-weight:normal;font-stretch:normal;font-family:Gulim;-inkscape-font-specification:Gulim"
   id="tspan4647">에이전트를 </tspan></tspan><tspan
       sodipodi:role="line"
       id="tspan4643"
       style="font-style:normal;font-variant:normal;font-weight:normal;font-stretch:normal;font-family:Gulim;-inkscape-font-specification:Gulim"
       x="694.02448"
       y="300.66931">설치하고 등록한 다음 </tspan><tspan
       sodipodi:role="line"
       id="tspan4645"
       style="font-style:normal;font-variant:normal;font-weight:normal;font-stretch:normal;font-family:Gulim;-inkscape-font-specification:Gulim"
       x="694.02448"
       y="318.16931">에지 서비스를 배치합니다.</tspan></text>
<rect
     x="107.3"
     y="149"
     class="st2"
     width="80.2"
     height="40.3"
     id="rect376"
     style="" /><text
     transform="matrix(1 0 0 1 107.306 159.3489)"
     id="text378"
     style="-inkscape-font-specification:Gulim;font-family:Gulim;font-weight:normal;font-style:normal;font-stretch:normal;font-variant:normal;"><tspan
       x="0"
       y="0"
       class="st3 st4 st5"
       id="tspan380"
       style="-inkscape-font-specification:Gulim;font-family:Gulim;font-weight:normal;font-style:normal;font-stretch:normal;font-variant:normal;"><tspan
   style="-inkscape-font-specification:Arial;font-family:Arial;font-weight:normal;font-style:normal;font-stretch:normal;font-variant:normal"
   id="tspan4579">3.</tspan> 바우처를 </tspan><tspan
       x="0"
       y="20"
       class="st3 st4 st5"
       id="tspan382"
       style="-inkscape-font-specification:Gulim;font-family:Gulim;font-weight:normal;font-style:normal;font-stretch:normal;font-variant:normal;">가져옵니다.</tspan></text>
<rect
     x="661.9"
     y="43.6"
     class="st2"
     width="153"
     height="18.1"
     id="rect384"
     style="" /><text
     class="st3 st4 st5"
     id="text386"
     style="font-style:normal;font-variant:normal;font-weight:normal;font-stretch:normal;font-size:14px;font-family:Gulim;-inkscape-font-specification:Gulim;fill:#161616"
     x="667.85083"
     y="53.958698"><tspan
       style="font-size:13.125px"
       id="tspan4609"><tspan
   style="font-style:normal;font-variant:normal;font-weight:normal;font-stretch:normal;font-family:Arial;-inkscape-font-specification:Arial"
   id="tspan4611">3c.</tspan> 바우처를 등록합니다.</tspan></text>
<rect
     x="268.7"
     y="93.9"
     class="st2"
     width="142.1"
     height="16.5"
     id="rect388"
     style="" /><text
     class="st6 st4 st5"
     id="text390"
     style="font-style:normal;font-variant:normal;font-weight:normal;font-stretch:normal;font-size:14px;font-family:Gulim;-inkscape-font-specification:Gulim;fill:#f4f4f4"
     x="264.70529"
     y="104.2905"><tspan
       style="font-style:normal;font-variant:normal;font-weight:normal;font-stretch:normal;font-size:12.5px;font-family:Arial;-inkscape-font-specification:Arial"
       id="tspan4564">3a.</tspan><tspan
       style="font-size:12.5px"
       id="tspan4566"> 에지 노드를 추가합니다.</tspan></text>
<rect
     x="355.3"
     y="170.5"
     class="st2"
     width="144.4"
     height="16.9"
     id="rect392"
     style="" /><text
     class="st6 st4 st5"
     id="text394"
     style="font-style:normal;font-variant:normal;font-weight:normal;font-stretch:normal;font-size:14px;font-family:Gulim;-inkscape-font-specification:Gulim;fill:#f4f4f4"
     x="353.31149"
     y="180.867">3b. 바우처를 가져옵니다.</text>
<g
     id="g396"
     style=""><g
       id="Group-2"
       transform="translate(21.000000, 0.000000)"
       style=""><circle
         id="Oval-Copy-3"
         class="st12"
         cx="86.2"
         cy="271.1"
         r="24"
         style="" /><g
         id="icon_x2F_policy-admin"
         transform="translate(8.000000, 8.000000)"
         style=""><path
           id="Shape"
           class="st13"
           d="M73.2,266.1c2.8,0,5,2.2,5,5v6h-2v-6c0-1.7-1.3-3-3-3h-4c-1.7,0-3,1.3-3,3v6h-2v-6     c0-2.8,2.2-5,5-5H73.2z M71.2,254.1c2.8,0,5,2.2,5,5c0,2.8-2.2,5-5,5s-5-2.2-5-5C66.2,256.4,68.5,254.1,71.2,254.1z M89.8,254.1     l1.4,1.4l-7.1,7.1l-3.9-3.9l1.4-1.4l2.5,2.5L89.8,254.1z M71.2,256.1c-1.7,0-3,1.3-3,3c0,1.7,1.3,3,3,3c1.7,0,3-1.3,3-3     C74.2,257.5,72.9,256.1,71.2,256.1z"
           style="" /></g></g><rect
       x="59.4"
       y="305.7"
       class="st2"
       width="94.5"
       height="15.5"
       id="rect402"
       style="" /><text
       class="st3 st4 st5"
       id="text404"
       style="font-size:14px;font-family:IBMPlexSans;fill:#161616"
       x="82.507599"
       y="316.0647"><tspan
         style="font-style:normal;font-variant:normal;font-weight:normal;font-stretch:normal;font-family:Gulim;-inkscape-font-specification:Gulim"
         id="tspan4581">관리자</tspan></text>
</g><rect
     x="252.4"
     y="286.3"
     class="st11"
     width="12.3"
     height="12.3"
     id="rect406"
     style="" /><g
     id="g408"
     style=""><g
       id="g410"
       style=""><polyline
         class="st20"
         points="213.2,190.5 105.2,190.5 105.2,247.1   "
         id="polyline412"
         style="" /><g
         id="g414"
         style=""><polygon
           class="st21"
           points="211.1,183.5 223.2,190.5 211.1,197.5    "
           id="polygon416"
           style="" /></g></g></g></svg>
