<?xml version="1.0" encoding="UTF-8" standalone="no"?>
<svg
   xmlns:dc="http://purl.org/dc/elements/1.1/"
   xmlns:cc="http://creativecommons.org/ns#"
   xmlns:rdf="http://www.w3.org/1999/02/22-rdf-syntax-ns#"
   xmlns:svg="http://www.w3.org/2000/svg"
   xmlns="http://www.w3.org/2000/svg"
   xmlns:sodipodi="http://sodipodi.sourceforge.net/DTD/sodipodi-0.dtd"
   xmlns:inkscape="http://www.inkscape.org/namespaces/inkscape"
   id="Layer_1"
   data-name="Layer 1"
   viewBox="0 0 658.43 502.91"
   version="1.1"
   inkscape:version="0.91 r13725"
   sodipodi:docname="devcycle.svg"
   inkscape:export-filename="Q:\PUB\ABD001\ART\WORK\ship3\devcycle.png"
   inkscape:export-xdpi="92"
   inkscape:export-ydpi="92">
  <metadata
     id="metadata515">
    <rdf:RDF>
      <cc:Work
         rdf:about="">
        <dc:format>image/svg+xml</dc:format>
        <dc:type
           rdf:resource="http://purl.org/dc/dcmitype/StillImage" />
      </cc:Work>
    </rdf:RDF>
  </metadata>
  <sodipodi:namedview
     pagecolor="#ffffff"
     bordercolor="#666666"
     borderopacity="1"
     objecttolerance="10"
     gridtolerance="10"
     guidetolerance="10"
     inkscape:pageopacity="0"
     inkscape:pageshadow="2"
     inkscape:window-width="1920"
     inkscape:window-height="1015"
     id="namedview513"
     showgrid="false"
     inkscape:zoom="1.8922084"
     inkscape:cx="209.94236"
     inkscape:cy="257.88534"
     inkscape:window-x="-8"
     inkscape:window-y="-8"
     inkscape:window-maximized="1"
     inkscape:current-layer="Layer_1" />
  <defs
     id="defs3">
    <style
       id="style5">.cls-1,.cls-48,.cls-51{fill:none;}.cls-2,.cls-21,.cls-6{font-size:14px;}.cls-2{fill:#343434;}.cls-2,.cls-21,.cls-28,.cls-47,.cls-6{font-family:IBMPlexSans-Medium, IBM Plex Sans;}.cls-3{letter-spacing:-0.01em;}.cls-4{letter-spacing:-0.01em;}.cls-5{fill:#973995;}.cls-28,.cls-49,.cls-54,.cls-6{fill:#4272b8;}.cls-7{letter-spacing:-0.01em;}.cls-8{letter-spacing:-0.01em;}.cls-9{font-size:11px;fill:#231f20;font-family:IBMPlexSans, IBM Plex Sans;}.cls-10{letter-spacing:-0.01em;}.cls-11{letter-spacing:-0.01em;}.cls-12{letter-spacing:-0.01em;}.cls-13{letter-spacing:-0.01em;}.cls-14{letter-spacing:-0.02em;}.cls-15{letter-spacing:0em;}.cls-16{letter-spacing:0em;}.cls-17{letter-spacing:-0.02em;}.cls-18{letter-spacing:0em;}.cls-19{letter-spacing:-0.01em;}.cls-20{letter-spacing:-0.01em;}.cls-21{fill:#bb9930;}.cls-21,.cls-50{opacity:0.5;}.cls-22{letter-spacing:0em;}.cls-23{letter-spacing:0em;}.cls-24{letter-spacing:-0.02em;}.cls-25{letter-spacing:-0.01em;}.cls-26{letter-spacing:0.01em;}.cls-27{letter-spacing:-0.01em;}.cls-28{font-size:13.66px;}.cls-29{letter-spacing:-0.01em;}.cls-30{letter-spacing:-0.01em;}.cls-31{letter-spacing:-0.01em;}.cls-32{letter-spacing:-0.01em;}.cls-33{letter-spacing:0em;}.cls-34{letter-spacing:-0.01em;}.cls-35{letter-spacing:0em;}.cls-36{letter-spacing:-0.02em;}.cls-37{letter-spacing:-0.06em;}.cls-38{letter-spacing:-0.01em;}.cls-39{letter-spacing:0em;}.cls-40{letter-spacing:-0.01em;}.cls-41{letter-spacing:-0.01em;}.cls-42{letter-spacing:0.01em;}.cls-43{letter-spacing:-0.01em;}.cls-44{letter-spacing:-0.02em;}.cls-45{letter-spacing:0em;}.cls-46{letter-spacing:-0.02em;}.cls-48{stroke:#4272b8;}.cls-48,.cls-51{stroke-miterlimit:10;stroke-width:2px;}.cls-51{stroke:#bc9a30;}.cls-52{fill:#bc9a30;}.cls-53{fill:#f2f6fc;}.cls-54{font-size:32px;font-family:IBMPlexSans-Bold, IBM Plex Sans;font-weight:700;}</style>
  </defs>
  <title
     id="title7">devcycle</title>
  <line
     class="cls-1"
     x1="363.4"
     y1="113.66"
     x2="588.4"
     y2="127.78"
     id="line9"
     style="" />
  <text
     class="cls-2"
     transform="scale(1.0198039,0.98058068)"
     id="text11"
     style="font-style:normal;font-variant:normal;font-weight:normal;font-stretch:normal;font-size:14.27725506px;font-family:Gulim;-inkscape-font-specification:Gulim;fill:#343434"
     x="189.99731"
     y="264.88388">개발자<tspan
   class="cls-3"
   x="199.74664"
   y="264.88388"
   id="tspan13"
   style="font-style:normal;font-variant:normal;font-weight:normal;font-stretch:normal;font-family:Gulim;-inkscape-font-specification:Gulim;letter-spacing:-0.01em" />
<tspan
   class="cls-4"
   x="207.55833"
   y="264.88388"
   id="tspan15"
   style="font-style:normal;font-variant:normal;font-weight:normal;font-stretch:normal;font-family:Gulim;-inkscape-font-specification:Gulim;letter-spacing:-0.01em" />
<tspan
   x="214.75816"
   y="264.88388"
   id="tspan17"
   style="font-style:normal;font-variant:normal;font-weight:normal;font-stretch:normal;font-family:Gulim;-inkscape-font-specification:Gulim" />
</text>
  <path
     class="cls-5"
     d="M216.65,185.55c9.81,0,17.8,7.7,17.8,17.17s-8,17.17-17.8,17.17-17.8-7.7-17.8-17.17,8-17.17,17.8-17.17m0-3c-11.54,0-20.9,9-20.9,20.16s9.36,20.16,20.9,20.16,20.89-9,20.89-20.16-9.35-20.16-20.89-20.16Z"
     id="path19"
     style="" />
  <path
     class="cls-5"
     d="M199.2,227.36h34.89a5,5,0,0,1,5,5v9.93a0,0,0,0,1,0,0H194.2a0,0,0,0,1,0,0v-9.93A5,5,0,0,1,199.2,227.36Z"
     id="path21" />
  <text
     class="cls-6"
     id="text23"
     style="font-style:normal;font-variant:normal;font-weight:normal;font-stretch:normal;font-size:11px;line-height:125%;font-family:Gulim;-inkscape-font-specification:'Gulim, Normal';text-align:start;writing-mode:lr-tb;text-anchor:start;fill:#4272b8"
     sodipodi:linespacing="125%"
     x="22.940001"
     y="393.56">
    <tspan
       sodipodi:role="line"
       id="tspan4768"
       style="font-style:normal;font-variant:normal;font-weight:normal;font-stretch:normal;font-size:14px;font-family:Gulim;-inkscape-font-specification:Gulim"
       x="22.940001"
       y="393.56">에지 노드</tspan>
    <tspan
       sodipodi:role="line"
       id="tspan4770"
       style="fill:#343434;fill-opacity:0.98039216"
       x="22.940001"
       y="408.80447">- 에지 노드에 <tspan
   style="font-style:normal;font-variant:normal;font-weight:normal;font-stretch:normal;font-family:Arial;-inkscape-font-specification:Arial;fill:#343434;fill-opacity:0.98039216"
   id="tspan4782">Horizon</tspan>
 설치</tspan>
    <tspan
       sodipodi:role="line"
       id="tspan4772"
       style="fill:#343434;fill-opacity:0.98039216"
       x="22.940001"
       y="423.3931">- 에지 노드 등록</tspan>
    <tspan
       sodipodi:role="line"
       id="tspan4774"
       style="fill:#343434;fill-opacity:0.98039216"
       x="22.940001"
       y="437.69049">- 조직 <tspan
   style="font-style:normal;font-variant:normal;font-weight:normal;font-stretch:normal;font-family:Arial;-inkscape-font-specification:Arial;fill:#343434;fill-opacity:0.98039216"
   id="tspan4784">ID</tspan>
 구성</tspan>
    <tspan
       sodipodi:role="line"
       id="tspan4776"
       style="fill:#343434;fill-opacity:0.98039216"
       x="22.940001"
       y="452.82654">- <tspan
   style="font-style:normal;font-variant:normal;font-weight:normal;font-stretch:normal;font-family:Arial;-inkscape-font-specification:Arial;fill:#343434;fill-opacity:0.98039216"
   id="tspan4786">IBM Event Streams</tspan>
 설정</tspan>
    <tspan
       sodipodi:role="line"
       id="tspan4778"
       style="fill:#343434;fill-opacity:0.98039216"
       x="22.940001"
       y="467.41513">- 고유 에지 노드 ID 설정</tspan>
    <tspan
       sodipodi:role="line"
       id="tspan4780"
       style="fill:#343434;fill-opacity:0.98039216"
       x="22.940001"
       y="481.16513">- 배치 패턴 설정</tspan>
  </text>
  <text
     class="cls-21"
     id="text113"
     style="font-style:normal;font-variant:normal;font-weight:normal;font-stretch:normal;font-size:11px;line-height:125%;font-family:Gulim;-inkscape-font-specification:'Gulim, Normal';text-align:start;writing-mode:lr-tb;text-anchor:start;opacity:0.5;fill:#bb9930"
     sodipodi:linespacing="125%"
     x="488.04001"
     y="218.19">
    <tspan
       sodipodi:role="line"
       id="tspan4674"
       style="font-size:14px"
       x="488.04001"
       y="218.19">코드 업데이트</tspan>
    <tspan
       sodipodi:role="line"
       id="tspan4676"
       style="font-size:10px;fill:#231f20;fill-opacity:1"
       x="488.04001"
       y="231.95276">다음과 같이 간단하게 코드 업데이트:</tspan>
    <tspan
       sodipodi:role="line"
       id="tspan4678"
       style="fill:#231f20;fill-opacity:1"
       x="488.04001"
       y="245.38707">1. 코드 변경</tspan>
    <tspan
       sodipodi:role="line"
       id="tspan4680"
       style="fill:#231f20;fill-opacity:1"
       x="488.04001"
       y="259.13705">2. 푸시</tspan>
    <tspan
       sodipodi:role="line"
       id="tspan4682"
       style="fill:#231f20;fill-opacity:1"
       x="488.04001"
       y="272.88705">3. 서명</tspan>
    <tspan
       sodipodi:role="line"
       id="tspan4684"
       style="fill:#231f20;fill-opacity:1"
       x="488.04001"
       y="286.63705">4. 공개</tspan>
  </text>
  <text
     class="cls-6"
     id="text153"
     style="font-style:normal;font-variant:normal;font-weight:normal;font-stretch:normal;font-size:11px;line-height:125%;font-family:Gulim;-inkscape-font-specification:'Gulim, Normal';text-align:start;writing-mode:lr-tb;text-anchor:start;fill:#4272b8"
     sodipodi:linespacing="125%"
     x="328.79999"
     y="395.44">
    <tspan
       sodipodi:role="line"
       id="tspan4788"
       style="font-size:14px"
       x="328.79999"
       y="395.44">서명 및 공개</tspan>
    <tspan
       sodipodi:role="line"
       id="tspan4790"
       style="fill:#343434;fill-opacity:1"
       x="328.79999"
       y="410.13705">- 컨테이너 푸시, 서명 및 공개</tspan>
    <tspan
       sodipodi:role="line"
       id="tspan4792"
       style="fill:#343434;fill-opacity:1"
       x="328.79999"
       y="423.88705">- 배치 패턴에 컨테이너 추가</tspan>
    <tspan
       sodipodi:role="line"
       id="tspan4794"
       style="fill:#343434;fill-opacity:1"
       x="328.79999"
       y="438.18448">- <tspan
   style="font-style:normal;font-variant:normal;font-weight:normal;font-stretch:normal;font-family:Arial;-inkscape-font-specification:Arial"
   id="tspan4798">AgBot</tspan>
에서 에지 노드 소프트웨어를</tspan>
    <tspan
       sodipodi:role="line"
       id="tspan4796"
       style="fill:#343434;fill-opacity:1"
       x="328.79999"
       y="452.7731">관리하기 위해 자동 구성</tspan>
  </text>
  <text
     class="cls-28"
     transform="scale(1.0099505,0.99014754)"
     id="text227"
     style="font-style:normal;font-variant:normal;font-weight:normal;font-stretch:normal;font-size:11.10949993px;line-height:125%;font-family:Gulim;-inkscape-font-specification:'Gulim, Normal';text-align:start;writing-mode:lr-tb;text-anchor:start;fill:#4272b8"
     sodipodi:linespacing="125%"
     x="321.39197"
     y="208.87796">
    <tspan
       sodipodi:role="line"
       id="tspan4752"
       style="font-size:14px"
       x="321.39197"
       y="208.87796">코드 개발</tspan>
    <tspan
       sodipodi:role="line"
       id="tspan4754"
       x="321.39197"
       y="223.67734"
       style="fill:#343434;fill-opacity:0.98039216">-에지 노드의 코드 작성</tspan>
    <tspan
       sodipodi:role="line"
       id="tspan4756"
       x="321.39197"
       y="238.11708"
       style="fill:#343434;fill-opacity:0.98039216">- <tspan
   style="font-style:normal;font-variant:normal;font-weight:normal;font-stretch:normal;font-family:Arial;-inkscape-font-specification:Arial"
   id="tspan4766">Docker</tspan>
 컨테이너에</tspan>
    <tspan
       sodipodi:role="line"
       id="tspan4764"
       x="321.39197"
       y="252.85091"
       style="fill:#343434;fill-opacity:0.98039216">코드 포함</tspan>
    <tspan
       sodipodi:role="line"
       id="tspan4758"
       x="321.39197"
       y="266.73776"
       style="fill:#343434;fill-opacity:0.98039216">- 로컬에서 테스트</tspan>
    <tspan
       sodipodi:role="line"
       id="tspan4760"
       x="321.39197"
       y="280.62466"
       style="fill:#343434;fill-opacity:0.98039216">- 프로덕션 배치 시뮬레이션</tspan>
  </text>
  <text
     class="cls-6"
     id="text311"
     style="font-style:normal;font-variant:normal;font-weight:normal;font-stretch:normal;font-size:14px;line-height:125%;font-family:Gulim;-inkscape-font-specification:Gulim;fill:#231f21;fill-opacity:0.70588235"
     sodipodi:linespacing="125%"
     x="147.92999"
     y="92.790001">
    <tspan
       sodipodi:role="line"
       id="tspan4720"
       style="fill:#4272b8;fill-opacity:1"
       x="147.92999"
       y="92.790001">클라우드 서비스 설정</tspan>
    <tspan
       sodipodi:role="line"
       id="tspan4722"
       style="font-size:11px;fill:#343434;fill-opacity:1"
       x="147.92999"
       y="108.03448"><tspan
   style="font-style:normal;font-variant:normal;font-weight:normal;font-stretch:normal;font-family:Arial;-inkscape-font-specification:Arial;fill:#343434;fill-opacity:1"
   id="tspan4730">IBM Cloud</tspan>
 웹 서비스에서,</tspan>
    <tspan
       sodipodi:role="line"
       id="tspan4724"
       style="font-size:11px;fill:#343434;fill-opacity:1"
       x="147.92999"
       y="122.62309">- 사용자 계정 작성</tspan>
    <tspan
       sodipodi:role="line"
       id="tspan4726"
       style="font-size:11px;fill:#343434;fill-opacity:1"
       x="147.92999"
       y="136.9205">- 조직 <tspan
   style="font-style:normal;font-variant:normal;font-weight:normal;font-stretch:normal;font-family:Arial;-inkscape-font-specification:Arial;fill:#343434;fill-opacity:1"
   id="tspan4732">ID</tspan>
 작성</tspan>
    <tspan
       sodipodi:role="line"
       id="tspan4728"
       style="font-size:11px;fill:#343434;fill-opacity:1"
       x="147.92999"
       y="152.05653">- <tspan
   style="font-style:normal;font-variant:normal;font-weight:normal;font-stretch:normal;font-family:Arial;-inkscape-font-specification:Arial;fill:#343434;fill-opacity:1"
   id="tspan4734">IBM Event Streams</tspan>
 설정</tspan>
  </text>
  <text
     class="cls-6"
     id="text387"
     style="font-style:normal;font-variant:normal;font-weight:normal;font-stretch:normal;font-size:11px;line-height:125%;font-family:Gulim;-inkscape-font-specification:'Gulim, Normal';text-align:start;writing-mode:lr-tb;text-anchor:start;fill:#343434;fill-opacity:0.97647059"
     sodipodi:linespacing="125%"
     x="44.549999"
     y="178.17">
    <tspan
       sodipodi:role="line"
       id="tspan4736"
       style="font-style:normal;font-variant:normal;font-weight:normal;font-stretch:normal;font-size:14px;font-family:Arial;-inkscape-font-specification:Arial;fill:#4272b8;fill-opacity:0.98039216"
       x="44.549999"
       y="178.17">IBM Cloud</tspan>
    <tspan
       sodipodi:role="line"
       id="tspan4738"
       style="fill:#343434;fill-opacity:0.98039216"
       x="44.549999"
       y="192.17035">선택적으로</tspan>
    <tspan
       sodipodi:role="line"
       id="tspan4740"
       style="fill:#343434;fill-opacity:0.98039216"
       x="44.549999"
       y="206.46777">다양한 <tspan
   style="font-style:normal;font-variant:normal;font-weight:normal;font-stretch:normal;font-family:Arial;-inkscape-font-specification:Arial"
   id="tspan4750">IBM</tspan>
과</tspan>
    <tspan
       sodipodi:role="line"
       id="tspan4742"
       style="fill:#343434;fill-opacity:0.98039216"
       x="44.549999"
       y="221.05637">서드파티 클라우드</tspan>
    <tspan
       sodipodi:role="line"
       id="tspan4744"
       style="fill:#343434;fill-opacity:0.98039216"
       x="44.549999"
       y="234.80637">및 데이터 서비스,</tspan>
    <tspan
       sodipodi:role="line"
       id="tspan4746"
       style="fill:#343434;fill-opacity:0.98039216"
       x="44.549999"
       y="248.55637">분석 및 코그너티브</tspan>
    <tspan
       sodipodi:role="line"
       id="tspan4748"
       style="fill:#343434;fill-opacity:0.98039216"
       x="44.549999"
       y="262.30637">솔루션 연결</tspan>
  </text>
  <path
     class="cls-48"
     d="M51.9,272.87c-5.88,16.81,0,35.13,14.78,43"
     id="path455"
     style="" />
  <polygon
     class="cls-49"
     points="47.33 272.36 54.5 266.96 55.59 275.87 47.33 272.36"
     id="polygon457"
     style="" />
  <path
     class="cls-48"
     d="M403.47,312.15c6.5-6,8.9-18.28,5.3-31"
     id="path459"
     style="" />
  <polygon
     class="cls-49"
     points="406.82 315.06 397.85 315.32 402.11 307.42 406.82 315.06"
     id="polygon461"
     style="" />
  <g
     class="cls-50"
     id="g463"
     style="">
    <path
       class="cls-51"
       d="M431.44,342.74c68-47.35,68.44-129.48-.38-186.27"
       id="path465"
       style="" />
    <polygon
       class="cls-52"
       points="435.01 345.7 426.06 346.31 430 338.25 435.01 345.7"
       id="polygon467"
       style="" />
  </g>
  <g
     class="cls-50"
     id="g469"
     style="">
    <path
       class="cls-51"
       d="M339,156.26c-76.57,41.41-85.4,125-18.72,189.5"
       id="path471"
       style="" />
    <polygon
       class="cls-52"
       points="335.8 152.93 344.76 153.3 339.96 160.88 335.8 152.93"
       id="polygon473"
       style="" />
  </g>
  <path
     class="cls-48"
     d="M129.33,365.37c67,54.44,159.47,53.06,209.26-4.15"
     id="path475"
     style="" />
  <polygon
     class="cls-49"
     points="127.49 369.64 124.38 361.21 133.23 362.74 127.49 369.64"
     id="polygon477"
     style="" />
  <path
     class="cls-48"
     d="M386.38,116.35c-4.75-41.57-55.07-74.22-116.56-74.22"
     id="path479"
     style="" />
  <polygon
     class="cls-49"
     points="390.69 114.73 386.75 122.79 381.74 115.35 390.69 114.73"
     id="polygon481"
     style="" />
  <path
     class="cls-53"
     d="M377.23,378.11c-18.49,0-33.54-12.94-33.54-28.85s15.05-28.85,33.54-28.85,33.53,12.95,33.53,28.85S395.72,378.11,377.23,378.11Z"
     id="path483"
     style="" />
  <path
     class="cls-49"
     d="M377.23,321.41c17.94,0,32.53,12.5,32.53,27.85s-14.59,27.85-32.53,27.85-32.54-12.49-32.54-27.85,14.6-27.85,32.54-27.85m0-2c-19.07,0-34.54,13.37-34.54,29.85s15.47,29.85,34.54,29.85,34.53-13.36,34.53-29.85-15.46-29.85-34.53-29.85Z"
     id="path485" />
  <text
     class="cls-54"
     transform="translate(367.63 358.66)"
     id="text487">3</text>
  <path
     class="cls-53"
     d="M389.5,191.1C371,191.1,356,178.15,356,162.25s15-28.85,33.53-28.85S423,146.34,423,162.25,408,191.1,389.5,191.1Z"
     id="path489"
     style="" />
  <path
     class="cls-49"
     d="M389.5,134.4c17.94,0,32.53,12.49,32.53,27.85S407.44,190.1,389.5,190.1,357,177.6,357,162.25s14.59-27.85,32.53-27.85m0-2c-19.07,0-34.53,13.36-34.53,29.85s15.46,29.85,34.53,29.85S424,178.73,424,162.25,408.57,132.4,389.5,132.4Z"
     id="path491" />
  <text
     class="cls-54"
     transform="translate(379.9 171.64)"
     id="text493">2</text>
  <path
     class="cls-53"
     d="M79.08,161.25c-18.49,0-33.53-12.95-33.53-28.85s15-28.85,33.53-28.85,33.54,12.94,33.54,28.85S97.57,161.25,79.08,161.25Z"
     id="path495"
     style="" />
  <path
     class="cls-49"
     d="M79.08,104.55c17.94,0,32.54,12.49,32.54,27.85S97,160.25,79.08,160.25s-32.53-12.5-32.53-27.85,14.6-27.85,32.53-27.85m0-2c-19.07,0-34.53,13.36-34.53,29.85S60,162.25,79.08,162.25s34.54-13.37,34.54-29.85-15.46-29.85-34.54-29.85Z"
     id="path497" />
  <text
     class="cls-54"
     transform="translate(69.48 141.79)"
     id="text499">5</text>
  <path
     class="cls-53"
     d="M83,374.61c-18.49,0-33.54-12.94-33.54-28.85S64.54,316.91,83,316.91s33.53,12.94,33.53,28.85S101.52,374.61,83,374.61Z"
     id="path501"
     style="" />
  <path
     class="cls-49"
     d="M83,317.91c17.93,0,32.53,12.49,32.53,27.85S101,373.61,83,373.61s-32.54-12.49-32.54-27.85S65.09,317.91,83,317.91m0-2c-19.08,0-34.54,13.37-34.54,29.85S64,375.61,83,375.61s34.53-13.36,34.53-29.85S102.1,315.91,83,315.91Z"
     id="path503" />
  <text
     class="cls-54"
     transform="translate(73.43 355.15)"
     id="text505">4</text>
  <path
     class="cls-53"
     d="M219.74,75.42c-18.49,0-33.53-12.94-33.53-28.85s15-28.85,33.53-28.85,33.54,12.94,33.54,28.85S238.23,75.42,219.74,75.42Z"
     id="path507"
     style="" />
  <path
     class="cls-49"
     d="M219.74,18.72c17.94,0,32.54,12.5,32.54,27.85s-14.6,27.85-32.54,27.85-32.53-12.49-32.53-27.85,14.59-27.85,32.53-27.85m0-2c-19.07,0-34.53,13.37-34.53,29.85s15.46,29.85,34.53,29.85,34.54-13.36,34.54-29.85-15.46-29.85-34.54-29.85Z"
     id="path509" />
  <text
     class="cls-54"
     transform="translate(210.14 55.97)"
     id="text511">1</text>
</svg>
