<?xml version="1.0" encoding="UTF-8" standalone="no"?>
<svg
   xmlns:dc="http://purl.org/dc/elements/1.1/"
   xmlns:cc="http://creativecommons.org/ns#"
   xmlns:rdf="http://www.w3.org/1999/02/22-rdf-syntax-ns#"
   xmlns:svg="http://www.w3.org/2000/svg"
   xmlns="http://www.w3.org/2000/svg"
   xmlns:sodipodi="http://sodipodi.sourceforge.net/DTD/sodipodi-0.dtd"
   xmlns:inkscape="http://www.inkscape.org/namespaces/inkscape"
   id="Layer_1"
   data-name="Layer 1"
   viewBox="0 0 972.57 558.01"
   version="1.1"
   inkscape:version="0.91 r13725"
   sodipodi:docname="sdrarch.svg"
   inkscape:export-filename="T:\PUB\ABD001\ART\WORK\ship4\sdrarch.png"
   inkscape:export-xdpi="99.931076"
   inkscape:export-ydpi="99.931076">
  <metadata
     id="metadata549">
    <rdf:RDF>
      <cc:Work
         rdf:about="">
        <dc:format>image/svg+xml</dc:format>
        <dc:type
           rdf:resource="http://purl.org/dc/dcmitype/StillImage" />
      </cc:Work>
    </rdf:RDF>
  </metadata>
  <sodipodi:namedview
     pagecolor="#ffffff"
     bordercolor="#666666"
     borderopacity="1"
     objecttolerance="10"
     gridtolerance="10"
     guidetolerance="10"
     inkscape:pageopacity="0"
     inkscape:pageshadow="2"
     inkscape:window-width="1920"
     inkscape:window-height="1017"
     id="namedview547"
     showgrid="false"
     inkscape:zoom="1.3676504"
     inkscape:cx="481.37413"
     inkscape:cy="281.10001"
     inkscape:window-x="-8"
     inkscape:window-y="-8"
     inkscape:window-maximized="1"
     inkscape:current-layer="Layer_1" />
  <defs
     id="defs3">
    <style
       id="style5">.cls-1{fill:#f9f0f6;}.cls-2{fill:#8d3493;}.cls-3,.cls-41,.cls-9{font-size:14px;}.cls-12,.cls-3,.cls-37,.cls-41,.cls-55{fill:#343434;}.cls-12,.cls-3,.cls-37,.cls-55,.cls-9{font-family:IBMPlexSans, IBM Plex Sans;}.cls-4{fill:#983895;}.cls-5{fill:#4272b8;}.cls-6,.cls-7{fill:none;}.cls-6{stroke:#343434;stroke-dasharray:5 3;}.cls-40,.cls-6,.cls-7{stroke-miterlimit:10;stroke-width:2px;}.cls-7{stroke:#4167b0;}.cls-8{fill:#4167b0;}.cls-9{fill:#fff;}.cls-10{letter-spacing:-0.01em;}.cls-11{letter-spacing:0em;}.cls-12{font-size:11px;}.cls-13{letter-spacing:-0.02em;}.cls-14{letter-spacing:-0.01em;}.cls-15{letter-spacing:0em;}.cls-16{letter-spacing:-0.01em;}.cls-17{letter-spacing:0em;}.cls-18{letter-spacing:-0.01em;}.cls-19{letter-spacing:0em;}.cls-20{letter-spacing:0em;}.cls-21{letter-spacing:0.01em;}.cls-22{letter-spacing:0em;}.cls-23{letter-spacing:0em;}.cls-24{letter-spacing:0em;}.cls-25{letter-spacing:-0.01em;}.cls-26{letter-spacing:0em;}.cls-27{letter-spacing:-0.01em;}.cls-28{letter-spacing:0em;}.cls-29{letter-spacing:-0.01em;}.cls-30{letter-spacing:0em;}.cls-31{letter-spacing:-0.01em;}.cls-32{letter-spacing:-0.01em;}.cls-33{letter-spacing:-0.01em;}.cls-34{letter-spacing:0em;}.cls-35{letter-spacing:0em;}.cls-36{letter-spacing:0em;}.cls-37{font-size:16px;}.cls-38{letter-spacing:-0.01em;}.cls-39{letter-spacing:-0.01em;}.cls-40{fill:#f4dd9d;stroke:#bc9a30;}.cls-41{font-family:IBMPlexSans-Bold, IBM Plex Sans;font-weight:700;}.cls-42{letter-spacing:-0.03em;}.cls-43{letter-spacing:-0.01em;}.cls-44{letter-spacing:-0.01em;}.cls-45{letter-spacing:0em;}.cls-46{letter-spacing:0em;}.cls-47{letter-spacing:0em;}.cls-48{letter-spacing:-0.01em;}.cls-49{letter-spacing:-0.06em;}.cls-50{letter-spacing:-0.02em;}.cls-51{letter-spacing:-0.01em;}.cls-52{letter-spacing:-0.01em;}.cls-53{letter-spacing:-0.01em;}.cls-54{fill:#f2f6fc;}.cls-55{font-size:12px;}.cls-56{fill:#faf8ed;}.cls-57{fill:#bc9b2f;}.cls-58{letter-spacing:-0.02em;}.cls-59{letter-spacing:0em;}.cls-60{letter-spacing:0em;}.cls-61{letter-spacing:-0.01em;}.cls-62{letter-spacing:-0.01em;}.cls-63{letter-spacing:0em;}.cls-64{letter-spacing:0em;}.cls-65{letter-spacing:-0.01em;}.cls-66{letter-spacing:-0.02em;}.cls-67{letter-spacing:-0.01em;}.cls-68{letter-spacing:0em;}.cls-69{letter-spacing:-0.02em;}.cls-70{letter-spacing:-0.02em;}.cls-71{letter-spacing:0.01em;}.cls-72{letter-spacing:-0.01em;}.cls-73{letter-spacing:0.01em;}.cls-74{letter-spacing:-0.01em;}.cls-75{letter-spacing:-0.05em;}.cls-76{letter-spacing:0em;}</style>
  </defs>
  <title
     id="title7">sdrarch</title>
  <rect
     class="cls-1"
     x="152.06"
     y="505.5"
     width="169.5"
     height="31.58"
     id="rect9" />
  <path
     class="cls-2"
     d="M320.56,506.5v29.59H153.06V506.5h167.5m2-2H151.06v33.59h171.5V504.5Z"
     id="path11" />
  <rect
     class="cls-1"
     x="152.05"
     y="441.25"
     width="169.5"
     height="31.58"
     id="rect13" />
  <path
     class="cls-2"
     d="M320.56,442.25v29.59H153.06V442.25h167.5m2-2H151.06v33.59h171.5V440.25Z"
     id="path15" />
  <text
     class="cls-3"
     id="text17"
     x="454.94"
     y="73.010002"
     style="font-size:14px;font-family:IBMPlexSans, 'IBM Plex Sans';fill:#343434">
    <tspan
       style="font-style:normal;font-variant:normal;font-weight:normal;font-stretch:normal;font-family:Gulim;-inkscape-font-specification:Gulim"
       id="tspan4705">사용자</tspan>
  </text>
  <path
     class="cls-4"
     d="M476,20a11.5,11.5,0,1,1-11.5,11.5A11.51,11.51,0,0,1,476,20m0-2a13.5,13.5,0,1,0,13.5,13.5A13.49,13.49,0,0,0,476,18Z"
     id="path19" />
  <path
     class="cls-4"
     d="M466.51,48h19a5,5,0,0,1,5,5v5a0,0,0,0,1,0,0h-29a0,0,0,0,1,0,0V53A5,5,0,0,1,466.51,48Z"
     id="path21" />
  <text
     class="cls-3"
     transform="translate(40.14 160.01)"
     id="text23">
    <tspan
       style="-inkscape-font-specification:Gulim;font-family:Gulim;font-weight:normal;font-style:normal;font-stretch:normal;font-variant:normal"
       id="tspan4695">클라우드</tspan>
  </text>
  <path
     class="cls-5"
     d="M64.05,107.63A11.2,11.2,0,0,1,75,118l.14,1.72,1.59.57A11.33,11.33,0,0,1,84.09,131a11.19,11.19,0,0,1-11,11.35H48.52a11.35,11.35,0,0,1,0-22.69,9.66,9.66,0,0,1,1.68.15l2.62.41.34-2.71a11.14,11.14,0,0,1,10.89-9.87m0-2.67a13.74,13.74,0,0,0-13.46,12.2,12.75,12.75,0,0,0-2.07-.18,14,14,0,0,0,0,28H73.1a13.81,13.81,0,0,0,13.58-14,14,14,0,0,0-9.11-13.22A13.76,13.76,0,0,0,64.05,105Z"
     id="path25" />
  <line
     id="_Path_"
     data-name="&lt;Path&gt;"
     class="cls-6"
     x1="7.31"
     y1="89.24"
     x2="960.77"
     y2="89.24" />
  <line
     class="cls-7"
     x1="445.91"
     y1="40.12"
     x2="321.76"
     y2="41.03"
     id="line28" />
  <polygon
     class="cls-8"
     points="444.57 35.64 452.37 40.08 444.63 44.62 444.57 35.64"
     id="polygon30" />
  <polygon
     class="cls-8"
     points="323.04 36.53 315.31 41.07 323.11 45.5 323.04 36.53"
     id="polygon32" />
  <text
     class="cls-9"
     transform="translate(495.83 357.54)"
     id="text34">IBM E<tspan
   class="cls-10"
   x="37.58"
   y="0"
   id="tspan36">v</tspan>
<tspan
   x="44.35"
   y="0"
   id="tspan38">ents St</tspan>
<tspan
   class="cls-11"
   x="88.07"
   y="0"
   id="tspan40">r</tspan>
<tspan
   x="93.14"
   y="0"
   id="tspan42">eams</tspan>
</text>
  <text
     class="cls-12"
     transform="translate(125.4,103.96)"
     id="text92"
     style="font-size:11px;font-family:IBMPlexSans, 'IBM Plex Sans';fill:#343434">
    <tspan
       style="font-style:normal;font-variant:normal;font-weight:normal;font-stretch:normal;font-family:Gulim;-inkscape-font-specification:Gulim"
       id="tspan4683" />
  </text>
  <text
     class="cls-12"
     transform="translate(330.34 35.59)"
     id="text140">
    <tspan
       class="cls-27"
       id="tspan142"
       style="-inkscape-font-specification:Gulim;font-family:Gulim;font-weight:normal;font-style:normal;font-stretch:normal;font-variant:normal">데이터 보기 제공</tspan>
  </text>
  <text
     class="cls-12"
     transform="translate(505.58 275.42)"
     id="text156">
    <tspan
       style="-inkscape-font-specification:Gulim;font-family:Gulim;font-weight:normal;font-style:normal;font-stretch:normal;font-variant:normal"
       id="tspan4711">메시지가 소프트웨어 정의 라디오 조치를 트리거 </tspan>
  </text>
  <text
     class="cls-3"
     id="text190"
     x="24.209999"
     y="74.419998"
     style="font-size:14px;font-family:IBMPlexSans, 'IBM Plex Sans';fill:#343434">
    <tspan
       class="cls-33"
       id="tspan192"
       style="font-style:normal;font-variant:normal;font-weight:normal;font-stretch:normal;font-family:Gulim;-inkscape-font-specification:Gulim;letter-spacing:-0.01em">웹 브라우저</tspan>
  </text>
  <path
     class="cls-5"
     d="M60.56,18.38a20,20,0,1,0,20,20A20,20,0,0,0,60.56,18.38ZM56,21a18.27,18.27,0,0,0-4.31,8.35,17.28,17.28,0,0,1-5.13-2.23A18.08,18.08,0,0,1,56,21Zm-10.6,7.75a19.17,19.17,0,0,0,5.85,2.56,37.14,37.14,0,0,0-.65,6.08h-8A17.77,17.77,0,0,1,45.38,28.74Zm0,19.28a17.81,17.81,0,0,1-2.77-8.64h8a37.26,37.26,0,0,0,.65,6.08A18.93,18.93,0,0,0,45.38,48Zm1.16,1.63a16.78,16.78,0,0,1,5.13-2.23A18.32,18.32,0,0,0,56,55.77,18.08,18.08,0,0,1,46.54,49.65Zm13,6.07C57.05,55,54.87,51.63,53.63,47a36.83,36.83,0,0,1,5.93-.57Zm0-11.32a38.77,38.77,0,0,0-6.38.62,35.7,35.7,0,0,1-.6-5.64h7Zm0-7h-7a35.83,35.83,0,0,1,.6-5.65,38.77,38.77,0,0,0,6.38.62Zm0-7a36.88,36.88,0,0,1-5.93-.56c1.24-4.66,3.42-8,5.93-8.75Zm16.17-1.61a17.89,17.89,0,0,1,2.78,8.64h-8a36.1,36.1,0,0,0-.64-6.08A19.21,19.21,0,0,0,75.73,28.74Zm-1.16-1.63a17.1,17.1,0,0,1-5.12,2.23A18.27,18.27,0,0,0,65.14,21,18,18,0,0,1,74.57,27.11ZM61.56,21c2.51.72,4.69,4.09,5.92,8.75a36.64,36.64,0,0,1-5.92.56Zm0,11.31a38.76,38.76,0,0,0,6.37-.62,33.62,33.62,0,0,1,.6,5.65h-7Zm0,7h7a33.5,33.5,0,0,1-.6,5.64,38.76,38.76,0,0,0-6.37-.62Zm0,16.34V46.4a36.59,36.59,0,0,1,5.92.57C66.25,51.63,64.07,55,61.56,55.72Zm3.58.05a18.32,18.32,0,0,0,4.31-8.35,16.61,16.61,0,0,1,5.12,2.23A18,18,0,0,1,65.14,55.77ZM75.73,48a19,19,0,0,0-5.84-2.56,36.21,36.21,0,0,0,.64-6.08h8A17.92,17.92,0,0,1,75.73,48Z"
     id="path202" />
  <line
     class="cls-7"
     x1="232.98"
     y1="70.54"
     x2="232.98"
     y2="116.62"
     id="line204" />
  <polygon
     class="cls-8"
     points="228.49 71.85 232.98 64.08 237.47 71.85 228.49 71.85"
     id="polygon206" />
  <polygon
     class="cls-8"
     points="228.49 115.31 232.98 123.08 237.47 115.31 228.49 115.31"
     id="polygon208" />
  <line
     class="cls-7"
     x1="232.98"
     y1="168.12"
     x2="232.98"
     y2="220.66"
     id="line210" />
  <polygon
     class="cls-8"
     points="228.49 169.43 232.98 161.66 237.47 169.43 228.49 169.43"
     id="polygon212" />
  <line
     class="cls-7"
     x1="232.98"
     y1="416.05"
     x2="232.98"
     y2="433.8"
     id="line214" />
  <polygon
     class="cls-8"
     points="228.49 417.36 232.98 409.59 237.47 417.36 228.49 417.36"
     id="polygon216" />
  <polygon
     class="cls-8"
     points="228.49 432.48 232.98 440.25 237.47 432.48 228.49 432.48"
     id="polygon218" />
  <text
     class="cls-37"
     transform="translate(25.45 436.8)"
     id="text220">
    <tspan
       class="cls-38"
       id="tspan222"
       style="-inkscape-font-specification:Gulim;font-family:Gulim;font-weight:normal;font-style:normal;font-stretch:normal;font-variant:normal">에지 노드</tspan>
  </text>
  <path
     class="cls-5"
     d="M77.12,378.32V420H43.38V378.32H77.12M79.94,376H40.57v46.33H79.94V376Z"
     id="path230" />
  <rect
     class="cls-5"
     x="47.6"
     y="381.79"
     width="25.31"
     height="3.47"
     id="rect232" />
  <rect
     class="cls-5"
     x="47.6"
     y="387.58"
     width="25.31"
     height="3.47"
     id="rect234" />
  <rect
     class="cls-5"
     x="47.6"
     y="393.38"
     width="25.31"
     height="3.47"
     id="rect236" />
  <ellipse
     class="cls-5"
     cx="69.39"
     cy="413.64"
     rx="3.51"
     ry="2.9"
     id="ellipse238" />
  <rect
     class="cls-40"
     x="413.09"
     y="288.23"
     width="178.75"
     height="48.34"
     rx="20.55"
     ry="20.55"
     id="rect240" />
  <text
     class="cls-41"
     transform="translate(442.6 316.04)"
     id="text242">IBM E<tspan
   class="cls-10"
   x="38.65"
   y="0"
   id="tspan244">v</tspan>
<tspan
   x="46.07"
   y="0"
   id="tspan246">ent </tspan>
<tspan
   class="cls-11"
   x="70.95"
   y="0"
   id="tspan248">S</tspan>
<tspan
   x="79.62"
   y="0"
   id="tspan250">t</tspan>
<tspan
   class="cls-11"
   x="84.98"
   y="0"
   id="tspan252">r</tspan>
<tspan
   x="90.56"
   y="0"
   id="tspan254">eams</tspan>
</text>
  <rect
     class="cls-40"
     x="675.79"
     y="202.26"
     width="259"
     height="48.34"
     rx="20.55"
     ry="20.55"
     id="rect256" />
  <text
     class="cls-41"
     transform="translate(763.69 222.35)"
     id="text258">IBM <tspan
   class="cls-42"
   x="30.16"
   y="0"
   id="tspan260">W</tspan>
<tspan
   class="cls-43"
   x="43.36"
   y="0"
   id="tspan262">a</tspan>
<tspan
   x="51.24"
   y="0"
   id="tspan264">tson </tspan>
<tspan
   x="-66.69"
   y="16"
   id="tspan266">N</tspan>
<tspan
   class="cls-43"
   x="-56.55"
   y="16"
   id="tspan268">a</tspan>
<tspan
   class="cls-36"
   x="-48.67"
   y="16"
   id="tspan270">tu</tspan>
<tspan
   class="cls-44"
   x="-34.96"
   y="16"
   id="tspan272">r</tspan>
<tspan
   x="-29.5"
   y="16"
   id="tspan274">al </tspan>
<tspan
   class="cls-45"
   x="-13.99"
   y="16"
   id="tspan276">L</tspan>
<tspan
   x="-6.52"
   y="16"
   id="tspan278">an</tspan>
<tspan
   class="cls-46"
   x="9.79"
   y="16"
   id="tspan280">g</tspan>
<tspan
   x="17.47"
   y="16"
   id="tspan282">ua</tspan>
<tspan
   class="cls-43"
   x="33.77"
   y="16"
   id="tspan284">g</tspan>
<tspan
   class="cls-47"
   x="41.42"
   y="16"
   id="tspan286">e Under</tspan>
<tspan
   class="cls-48"
   x="92.69"
   y="16"
   id="tspan288">s</tspan>
<tspan
   class="cls-36"
   x="99.63"
   y="16"
   id="tspan290">tanding</tspan>
</text>
  <rect
     class="cls-40"
     x="675.79"
     y="126.61"
     width="259"
     height="48.34"
     rx="20.55"
     ry="20.55"
     id="rect292" />
  <text
     class="cls-41"
     transform="translate(763.69 146.7)"
     id="text294">IBM <tspan
   class="cls-42"
   x="30.16"
   y="0"
   id="tspan296">W</tspan>
<tspan
   class="cls-43"
   x="43.36"
   y="0"
   id="tspan298">a</tspan>
<tspan
   x="51.24"
   y="0"
   id="tspan300">tson </tspan>
<tspan
   x="-6.64"
   y="16"
   id="tspan302">Speech </tspan>
<tspan
   class="cls-46"
   x="45.23"
   y="16"
   id="tspan304">t</tspan>
<tspan
   x="50.53"
   y="16"
   id="tspan306">o </tspan>
<tspan
   class="cls-49"
   x="61.73"
   y="16"
   id="tspan308">T</tspan>
<tspan
   class="cls-50"
   x="69"
   y="16"
   id="tspan310">e</tspan>
<tspan
   x="76.64"
   y="16"
   id="tspan312">xt</tspan>
</text>
  <text
     class="cls-12"
     id="text314"
     x="725.45001"
     y="114.73"
     style="font-size:11px;font-family:IBMPlexSans, 'IBM Plex Sans';fill:#343434">
    <tspan
       style="font-style:normal;font-variant:normal;font-weight:normal;font-stretch:normal;font-family:Gulim;-inkscape-font-specification:Gulim"
       id="tspan4707">오디오 텍스트 변환, 감성 분석</tspan>
  </text>
  <rect
     class="cls-54"
     x="387.27"
     y="442.69"
     width="168.04"
     height="33.35"
     id="rect338" />
  <path
     class="cls-5"
     d="M554.31,443.69V475h-166V443.69h166m2-2h-170V477h170V441.69Z"
     id="path340" />
  <text
     class="cls-55"
     transform="translate(438.01 462.66)"
     id="text342">Hori<tspan
   class="cls-38"
   x="22.61"
   y="0"
   id="tspan344">z</tspan>
<tspan
   x="28.06"
   y="0"
   id="tspan346">on 에이전트</tspan>
<tspan
   class="cls-39"
   x="52.12"
   y="0"
   id="tspan348" />
<tspan
   x="58.38"
   y="0"
   id="tspan350" />
</text>
  <rect
     class="cls-56"
     x="152.31"
     y="124.08"
     width="169"
     height="36.01"
     id="rect352" />
  <path
     class="cls-57"
     d="M320.31,125.08v34h-167v-34h167m2-2h-171v38h171v-38Z"
     id="path354" />
  <rect
     class="cls-56"
     x="152.31"
     y="218.66"
     width="169"
     height="31.58"
     id="rect356" />
  <path
     class="cls-57"
     d="M320.31,219.66v29.59h-167V219.66h167m2-2h-171v33.59h171V217.66Z"
     id="path358" />
  <text
     class="cls-55"
     transform="translate(163.72 147.04)"
     id="text360">Nod<tspan
   class="cls-58"
   x="22.16"
   y="0"
   id="tspan362">e</tspan>
<tspan
   x="28.51"
   y="0"
   id="tspan364">.j</tspan>
<tspan
   class="cls-59"
   x="34.78"
   y="0"
   id="tspan366">s</tspan>
<tspan
   class="cls-60"
   x="40.56"
   y="0"
   id="tspan368">, Exp</tspan>
<tspan
   class="cls-61"
   x="66.7"
   y="0"
   id="tspan370">r</tspan>
<tspan
   x="71.04"
   y="0"
   id="tspan372">e</tspan>
<tspan
   class="cls-62"
   x="77.63"
   y="0"
   id="tspan374">s</tspan>
<tspan
   class="cls-59"
   x="83.4"
   y="0"
   id="tspan376">s</tspan>
<tspan
   class="cls-60"
   x="89.18"
   y="0"
   id="tspan378">, G</tspan>
<tspan
   class="cls-63"
   x="103.62"
   y="0"
   id="tspan380">r</tspan>
<tspan
   class="cls-60"
   x="107.97"
   y="0"
   id="tspan382">aphQL</tspan>
</text>
  <text
     class="cls-55"
     transform="translate(158.39 237.41)"
     id="text384">
    <tspan
       style="-inkscape-font-specification:Gulim;font-family:Gulim;font-weight:normal;font-style:normal;font-stretch:normal;font-variant:normal"
       id="tspan4703">Postrgres 데이터베이스 작성 </tspan>
  </text>
  <rect
     class="cls-54"
     x="171.65"
     y="16.73"
     width="142.65"
     height="47.65"
     id="rect402" />
  <path
     class="cls-5"
     d="M313.31,17.73V63.38H172.65V17.73H313.31m2-2H170.65V65.38H315.31V15.73Z"
     id="path404" />
  <rect
     class="cls-54"
     x="404.4"
     y="125.33"
     width="196.91"
     height="71.51"
     id="rect432" />
  <path
     class="cls-5"
     d="M600.31,126.33v69.51H405.4V126.33H600.31m2-2H403.4v73.51H602.31V124.33Z"
     id="path434" />
  <text
     class="cls-3"
     transform="translate(457.08 141.08)"
     id="text436">IBM <tspan
   class="cls-70"
   x="29.41"
   y="0"
   id="tspan438">F</tspan>
<tspan
   class="cls-36"
   x="36.89"
   y="0"
   id="tspan440">unctions</tspan>
</text>
  <text
     class="cls-55"
     transform="translate(206.93 523.45)"
     id="text442">
    <tspan
       style="-inkscape-font-specification:Gulim;font-family:Gulim;font-weight:normal;font-style:normal;font-stretch:normal;font-variant:normal"
       id="tspan4717">sdr 센서</tspan>
  </text>
  <text
     class="cls-55"
     transform="translate(205.83 459.36)"
     id="text444">
    <tspan
       style="-inkscape-font-specification:Gulim;font-family:Gulim;font-weight:normal;font-style:normal;font-stretch:normal;font-variant:normal"
       id="tspan4715">sdr 서비스</tspan>
  </text>
  <rect
     class="cls-1"
     x="152.23"
     y="377"
     width="169.5"
     height="31.58"
     id="rect454" />
  <path
     class="cls-2"
     d="M320.73,378v29.59H153.23V378h167.5m2-2H151.23v33.59h171.5V376Z"
     id="path456" />
  <text
     class="cls-55"
     transform="translate(184.99 395.09)"
     id="text458">
    <tspan
       style="-inkscape-font-specification:Gulim;font-family:Gulim;font-weight:normal;font-style:normal;font-stretch:normal;font-variant:normal"
       id="tspan4713">sdr2msghub 서비스</tspan>
  </text>
  <rect
     class="cls-1"
     x="416.02"
     y="146.99"
     width="176.86"
     height="32.05"
     id="rect472" />
  <path
     class="cls-2"
     d="M591.87,148v30H417V148H591.87m2-2H415v34H593.87V146Z"
     id="path474" />
  <text
     class="cls-55"
     transform="translate(425.48 168.03)"
     id="text476">
    <tspan
       style="-inkscape-font-specification:Gulim;font-family:Gulim;font-weight:normal;font-style:normal;font-stretch:normal;font-variant:normal"
       id="tspan4709">소프트웨어 정의 라디오 조치</tspan>
  </text>
  <rect
     class="cls-1"
     x="412.05"
     y="218.66"
     width="180.83"
     height="31.58"
     id="rect496" />
  <path
     class="cls-2"
     d="M591.87,219.66v29.59H413.05V219.66H591.87m2-2H411.05v33.59H593.87V217.66Z"
     id="path498" />
  <text
     class="cls-55"
     transform="translate(480.65 237.41)"
     id="text500">
    <tspan
       class="cls-75"
       id="tspan502"
       style="-inkscape-font-specification:Gulim;font-family:Gulim;font-weight:normal;font-style:normal;font-stretch:normal;font-variant:normal">트리거</tspan>
  </text>
  <line
     class="cls-7"
     x1="327.48"
     y1="228.54"
     x2="415.02"
     y2="163.02"
     id="line512" />
  <polygon
     class="cls-8"
     points="331.22 231.35 322.31 232.41 325.84 224.16 331.22 231.35"
     id="polygon514" />
  <line
     class="cls-7"
     x1="504.44"
     y1="186.5"
     x2="504.44"
     y2="217.66"
     id="line516" />
  <polygon
     class="cls-8"
     points="499.96 187.81 504.44 180.04 508.93 187.81 499.96 187.81"
     id="polygon518" />
  <line
     class="cls-7"
     x1="502.85"
     y1="257.07"
     x2="502.85"
     y2="288.23"
     id="line520" />
  <polygon
     class="cls-8"
     points="498.36 258.38 502.85 250.61 507.34 258.38 498.36 258.38"
     id="polygon522" />
  <line
     class="cls-7"
     x1="599.27"
     y1="176.14"
     x2="670.39"
     y2="222.89"
     id="line524" />
  <polygon
     class="cls-8"
     points="597.9 180.61 593.87 172.59 602.83 173.11 597.9 180.61"
     id="polygon526" />
  <polygon
     class="cls-8"
     points="666.83 225.92 675.79 226.44 671.76 218.42 666.83 225.92"
     id="polygon528" />
  <line
     class="cls-7"
     x1="600.21"
     y1="161.79"
     x2="669.45"
     y2="148.38"
     id="line530" />
  <polygon
     class="cls-8"
     points="602.36 165.95 593.87 163.02 600.65 157.13 602.36 165.95"
     id="polygon532" />
  <polygon
     class="cls-8"
     points="669.01 153.04 675.79 147.16 667.3 144.23 669.01 153.04"
     id="polygon534" />
  <line
     id="_Path_2"
     data-name="&lt;Path&gt;"
     class="cls-6"
     x1="7.31"
     y1="364.59"
     x2="960.77"
     y2="364.59" />
  <line
     class="cls-7"
     x1="322.73"
     y1="395.09"
     x2="423.26"
     y2="339.16"
     id="line537" />
  <polygon
     class="cls-8"
     points="424.3 343.72 428.91 336.02 419.94 335.88 424.3 343.72"
     id="polygon539" />
  <line
     class="cls-7"
     x1="232.98"
     y1="480.19"
     x2="232.98"
     y2="497.94"
     id="line541" />
  <polygon
     class="cls-8"
     points="228.49 481.5 232.98 473.73 237.47 481.5 228.49 481.5"
     id="polygon543" />
  <polygon
     class="cls-8"
     points="228.49 496.63 232.98 504.4 237.47 496.63 228.49 496.63"
     id="polygon545" />
  <text
     xml:space="preserve"
     style="font-style:normal;font-weight:normal;font-size:12px;line-height:125%;font-family:sans-serif;letter-spacing:0px;word-spacing:0px;fill:#000000;fill-opacity:1;stroke:none;stroke-width:1px;stroke-linecap:butt;stroke-linejoin:miter;stroke-opacity:1"
     x="244.41014"
     y="35.215595"
     id="text4677"
     sodipodi:linespacing="125%"><tspan
       sodipodi:role="line"
       id="tspan4679"
       x="244.41014"
       y="35.215595"
       style="font-style:normal;font-variant:normal;font-weight:normal;font-stretch:normal;font-family:Gulim;-inkscape-font-specification:Gulim;text-align:center;text-anchor:middle">데이터 보기 제공</tspan><tspan
       sodipodi:role="line"
       x="244.41014"
       y="50.215595"
       id="tspan4681"
       style="font-style:normal;font-variant:normal;font-weight:normal;font-stretch:normal;font-family:Gulim;-inkscape-font-specification:Gulim;text-align:center;text-anchor:middle">(React, GraphQL)</tspan></text>
  <text
     xml:space="preserve"
     style="font-style:normal;font-weight:normal;font-size:12px;line-height:125%;font-family:sans-serif;letter-spacing:0px;word-spacing:0px;fill:#000000;fill-opacity:1;stroke:none;stroke-width:1px;stroke-linecap:butt;stroke-linejoin:miter;stroke-opacity:1"
     x="142.58029"
     y="-17.429436"
     id="text4685"
     sodipodi:linespacing="125%"><tspan
       sodipodi:role="line"
       id="tspan4687"
       x="142.58029"
       y="-17.429436"></tspan></text>
  <text
     xml:space="preserve"
     style="font-style:normal;font-weight:normal;font-size:12px;line-height:125%;font-family:sans-serif;letter-spacing:0px;word-spacing:0px;fill:#000000;fill-opacity:1;stroke:none;stroke-width:1px;stroke-linecap:butt;stroke-linejoin:miter;stroke-opacity:1"
     x="166.9238"
     y="103.94661"
     id="text4689"
     sodipodi:linespacing="125%"><tspan
       sodipodi:role="line"
       id="tspan4691"
       x="166.9238"
       y="103.94661"
       style="font-style:normal;font-variant:normal;font-weight:normal;font-stretch:normal;font-size:11px;font-family:Gulim;-inkscape-font-specification:Gulim;text-align:center;text-anchor:middle">UI 제공,</tspan><tspan
       sodipodi:role="line"
       x="166.9238"
       y="117.69661"
       style="font-style:normal;font-variant:normal;font-weight:normal;font-stretch:normal;font-size:11px;font-family:Gulim;-inkscape-font-specification:Gulim;text-align:center;text-anchor:middle"
       id="tspan4693">브라우저로 데이터 전송</tspan></text>
  <text
     xml:space="preserve"
     style="font-style:normal;font-weight:normal;font-size:12px;line-height:125%;font-family:sans-serif;letter-spacing:0px;word-spacing:0px;fill:#000000;fill-opacity:1;stroke:none;stroke-width:1px;stroke-linecap:butt;stroke-linejoin:miter;stroke-opacity:1"
     x="168.65495"
     y="186.57007"
     id="text4697"
     sodipodi:linespacing="125%"><tspan
       sodipodi:role="line"
       id="tspan4699"
       x="168.65495"
       y="186.57007"
       style="font-style:normal;font-variant:normal;font-weight:normal;font-stretch:normal;font-size:11px;font-family:Gulim;-inkscape-font-specification:Gulim;text-align:center;text-anchor:middle">인사이트(감성)만</tspan><tspan
       sodipodi:role="line"
       x="168.65495"
       y="200.32007"
       style="font-style:normal;font-variant:normal;font-weight:normal;font-stretch:normal;font-size:11px;font-family:Gulim;-inkscape-font-specification:Gulim;text-align:center;text-anchor:middle"
       id="tspan4701">데이터베이스에 저장</tspan></text>
  <text
     xml:space="preserve"
     style="font-style:normal;font-variant:normal;font-weight:normal;font-stretch:normal;font-size:11px;line-height:125%;font-family:Gulim;-inkscape-font-specification:Gulim;letter-spacing:0px;word-spacing:0px;fill:#000000;fill-opacity:1;stroke:none;stroke-width:1px;stroke-linecap:butt;stroke-linejoin:miter;stroke-opacity:1"
     x="243.48329"
     y="422.01035"
     id="text4719"
     sodipodi:linespacing="125%"><tspan
       sodipodi:role="line"
       id="tspan4721"
       x="243.48329"
       y="422.01035"
       style="font-style:normal;font-variant:normal;font-weight:normal;font-stretch:normal;font-size:11px;font-family:Gulim;-inkscape-font-specification:Gulim">기계 학습을 사용하여 최고의 대화 스테이션을 선택하고</tspan><tspan
       sodipodi:role="line"
       x="243.48329"
       y="435.76035"
       style="font-style:normal;font-variant:normal;font-weight:normal;font-stretch:normal;font-size:11px;font-family:Gulim;-inkscape-font-specification:Gulim"
       id="tspan4723">클라우드로 오디오 전송</tspan></text>
  <text
     xml:space="preserve"
     style="font-style:normal;font-weight:normal;font-size:12px;line-height:125%;font-family:sans-serif;letter-spacing:0px;word-spacing:0px;fill:#000000;fill-opacity:1;stroke:none;stroke-width:1px;stroke-linecap:butt;stroke-linejoin:miter;stroke-opacity:1"
     x="241.28972"
     y="486.35425"
     id="text4725"
     sodipodi:linespacing="125%"><tspan
       sodipodi:role="line"
       id="tspan4727"
       x="241.28972"
       y="486.35425"
       style="font-style:normal;font-variant:normal;font-weight:normal;font-stretch:normal;font-size:11px;font-family:Gulim;-inkscape-font-specification:Gulim">라디오 스테이션에서</tspan><tspan
       sodipodi:role="line"
       x="241.28972"
       y="500.10425"
       style="font-style:normal;font-variant:normal;font-weight:normal;font-stretch:normal;font-size:11px;font-family:Gulim;-inkscape-font-specification:Gulim"
       id="tspan4729">오디오 클립 검색</tspan></text>
</svg>
