<?xml version="1.0" encoding="utf-8"?>
<!-- Generator: Adobe Illustrator 21.1.0, SVG Export Plug-In . SVG Version: 6.00 Build 0)  -->
<svg version="1.1" id="Layer_1" xmlns="http://www.w3.org/2000/svg" xmlns:xlink="http://www.w3.org/1999/xlink" x="0px" y="0px"
	 viewBox="0 0 954.8 542.2" style="enable-background:new 0 0 954.8 542.2;" xml:space="preserve">
<style type="text/css">
	.st0{fill:#E3F6FF;}
	.st1{fill:#0F62FE;}
	.st2{fill:#408BFC;}
	.st3{fill:#FFFFFF;}
	.st4{fill:#009C98;}
	.st5{fill:#051B75;}
	.st6{fill:none;stroke:#BEBEBE;stroke-width:2;stroke-linecap:square;}
	.st7{fill:#BEBEBE;}
	.st8{fill:#F4F4F4;}
	.st9{fill:none;}
	.st10{fill:#161616;}
	.st11{font-family:'IBMPlexSans';}
	.st12{font-size:14px;}
	.st13{font-family:'IBMPlexSans-Medium';}
	.st14{font-size:16px;}
	.st15{enable-background:new    ;}
	.st16{font-size:12px;}
</style>
<g id="Group-2" transform="translate(21.000000, 0.000000)">
	<circle id="Oval-Copy-3" class="st0" cx="42.9" cy="219.1" r="24"/>
	<g id="icon_x2F_policy-admin" transform="translate(8.000000, 8.000000)">
		<path id="Shape" class="st1" d="M29.9,214.1c2.8,0,5,2.2,5,5v6h-2v-6c0-1.7-1.3-3-3-3h-4c-1.7,0-3,1.3-3,3v6h-2v-6
			c0-2.8,2.2-5,5-5H29.9z M27.9,202.1c2.8,0,5,2.2,5,5s-2.2,5-5,5s-5-2.2-5-5S25.1,202.1,27.9,202.1z M46.5,202.1l1.4,1.4l-7.1,7.1
			l-3.9-3.9l1.4-1.4l2.5,2.5L46.5,202.1z M27.9,204.1c-1.7,0-3,1.3-3,3s1.3,3,3,3c1.7,0,3-1.3,3-3S29.6,204.1,27.9,204.1z"/>
	</g>
</g>
<g id="Group-2_1_" transform="translate(21.000000, 0.000000)">
	<circle id="Oval-Copy-3_1_" class="st0" cx="349.9" cy="477.1" r="24"/>
	<g id="icon_x2F_node-owner" transform="translate(8.000000, 8.000000)">
		<g id="Group-23" transform="translate(2.000000, 4.000000)">
			<path id="Shape_1_" class="st1" d="M334.9,468.1c2.8,0,5,2.2,5,5v6h-2v-6c0-1.7-1.3-3-3-3h-4c-1.7,0-3,1.3-3,3v6h-2v-6
				c0-2.8,2.2-5,5-5H334.9z M332.9,456.1c2.8,0,5,2.2,5,5s-2.2,5-5,5s-5-2.2-5-5S330.1,456.1,332.9,456.1z M345.9,464.1v2h-2v-2
				H345.9z M350.9,464.1v2h-2v-2H350.9z M332.9,458.1c-1.7,0-3,1.3-3,3s1.3,3,3,3s3-1.3,3-3S334.6,458.1,332.9,458.1z M353.9,461.1
				v2h-2v-2H353.9z M342.9,461.1v2h-2v-2H342.9z M350.9,456.1v7h-7v-7H350.9z M348.9,458.1h-3v3h3V458.1z M353.9,456.1v2h-2v-2
				H353.9z M342.9,456.1v2h-2v-2H342.9z M345.9,453.1v2h-2v-2H345.9z M350.9,453.1v2h-2v-2H350.9z"/>
		</g>
	</g>
</g>
<g id="Group-2_2_" transform="translate(27.000000, 0.000000)">
	<circle id="Oval-Copy-3_2_" class="st0" cx="244.9" cy="62.1" r="24"/>
	<g id="icon_x2F_cloud-installer" transform="translate(8.000000, 8.000000)">
		<path id="Shape_2_" class="st1" d="M231.9,57.1c2.8,0,5,2.2,5,5v6h-2v-6c0-1.7-1.3-3-3-3h-4c-1.7,0-3,1.3-3,3v6h-2v-6
			c0-2.8,2.2-5,5-5H231.9z M229.9,45.1c2.8,0,5,2.2,5,5s-2.2,5-5,5s-5-2.2-5-5S227.1,45.1,229.9,45.1z M244.9,43
			c2.1,0,3.9,1.4,4.5,3.4l0.1,0.2v0.1l0,0c1.3,0.5,2.2,1.7,2.3,3.1V50v0.2c0,2.1-1.6,3.7-3.7,3.9h-0.2h-6.3c-2.1,0-3.9-1.7-3.9-3.9
			c0-1.5,0.9-2.8,2.2-3.5l0.2-0.1v-0.1c0.5-1.9,2.1-3.4,4.1-3.6h0.2L244.9,43z M229.9,47.1c-1.7,0-3,1.3-3,3s1.3,3,3,3s3-1.3,3-3
			S231.6,47.1,229.9,47.1z M244.9,45c-1.4,0-2.5,1-2.7,2.4v0.2v0.8l-0.8,0.2c-0.9,0.2-1.5,0.9-1.5,1.8c0,1,0.8,1.8,1.7,1.9h0.1h6.3
			c1,0,1.9-0.8,1.9-1.9c0-0.8-0.6-1.6-1.3-1.8h-0.1l-0.8-0.2v-0.8C247.5,46.1,246.3,45,244.9,45z"/>
	</g>
</g>
<g id="Group-2_3_" transform="translate(47.000000, 0.000000)">
	<circle id="Oval-Copy-3_3_" class="st0" cx="503.9" cy="62.1" r="24"/>
	<g id="icon_x2F_developer" transform="translate(8.000000, 8.000000)">
		<path id="Shape_3_" class="st1" d="M490.9,57.1c2.8,0,5,2.2,5,5v6h-2v-6c0-1.7-1.3-3-3-3h-4c-1.7,0-3,1.3-3,3v6h-2v-6
			c0-2.8,2.2-5,5-5H490.9z M488.9,45.1c2.8,0,5,2.2,5,5s-2.2,5-5,5s-5-2.2-5-5S486.1,45.1,488.9,45.1z M504,44l1.8,0.4l-2.4,10.4
			l-1.8-0.4L504,44z M498.8,45.7l1.4,1.2l-2.1,2.6l2.1,2.6l-1.4,1.2l-3.1-3.7L498.8,45.7z M508.6,45.7l3.1,3.7l-3.1,3.7l-1.4-1.2
			l2.1-2.6l-2.1-2.6L508.6,45.7z M488.9,47.1c-1.7,0-3,1.3-3,3s1.3,3,3,3s3-1.3,3-3S490.6,47.1,488.9,47.1z"/>
	</g>
</g>
<rect id="Rectangle-Copy" x="471.9" y="337.1" class="st2" width="304" height="157"/>
<rect id="Rectangle-Copy-9" x="487.9" y="397.1" class="st3" width="80" height="81"/>
<rect id="Rectangle-Copy-10" x="679.9" y="397.1" class="st3" width="80" height="81"/>
<rect id="Rectangle-Copy-11" x="727.9" y="141.1" class="st4" width="208" height="155"/>
<rect id="Rectangle-Copy-12" x="249.1" y="141.1" class="st5" width="439.2" height="155"/>
<path id="Line-3-Copy" class="st6" d="M406.2,478.6c0,0,22.9,0,65.7,0C429.1,478.6,406.2,478.6,406.2,478.6z"/>
<g id="Group-4-Copy" transform="translate(680.000000, 87.500000) scale(1, -1) translate(-680.000000, -87.500000) translate(565.000000, 48.000000)">
	<path id="Path-2-Copy-5" class="st7" d="M248.9-13.6l7,14h-6v65.5h-232v-2h230V0.4h-6L248.9-13.6z"/>
</g>
<path id="Line-7" class="st7" d="M644.9,62.6v64h6l-7,14l-7-14h6v-64H644.9z"/>
<path id="Path-2-Copy-11" class="st7" d="M665.9,431.1l14,7l-14,7v-6h-98v-2h98V431.1z"/>
<g id="icon_x2F_device_x2F_16" transform="translate(685.000000, 339.000000)">
	<path id="Shape_4_" class="st8" d="M27.9,15.1c0.6,0,1,0.4,1,1c0,0.5-0.4,0.9-0.8,1l-0.5,1h3.3c1.1,0,2,0.9,2,2v5c0,1.1-0.9,2-2,2
		h-8c-1.1,0-2-0.9-2-2v-5c0-1.1,0.9-2,2-2h3.7l0.6-1.4c-0.2-0.1-0.3-0.3-0.3-0.5v-0.1C26.9,15.5,27.3,15.1,27.9,15.1z M30.9,19.1h-8
		c-0.5,0-0.9,0.4-1,0.9v0.1v5c0,0.5,0.4,0.9,0.9,1h0.1h8c0.5,0,0.9-0.4,1-0.9v-0.1v-5c0-0.5-0.4-0.9-0.9-1H30.9z M29.4,24.1
		c0.3,0,0.5,0.2,0.5,0.5c0,0.3-0.2,0.5-0.5,0.5h-5c-0.3,0-0.5-0.2-0.5-0.5c0-0.3,0.2-0.5,0.5-0.5H29.4z M24.4,20.1
		c0.8,0,1.5,0.7,1.5,1.5c0,0.8-0.7,1.5-1.5,1.5c-0.8,0-1.5-0.7-1.5-1.5C22.9,20.8,23.6,20.1,24.4,20.1z M29.4,20.1
		c0.8,0,1.5,0.7,1.5,1.5c0,0.8-0.7,1.5-1.5,1.5c-0.8,0-1.5-0.7-1.5-1.5C27.9,20.8,28.6,20.1,29.4,20.1z M24.4,21.1
		c-0.3,0-0.5,0.2-0.5,0.5c0,0.3,0.2,0.5,0.5,0.5c0.3,0,0.5-0.2,0.5-0.5C24.9,21.3,24.7,21.1,24.4,21.1z M29.4,21.1
		c-0.3,0-0.5,0.2-0.5,0.5c0,0.3,0.2,0.5,0.5,0.5c0.3,0,0.5-0.2,0.5-0.5C29.9,21.3,29.7,21.1,29.4,21.1z"/>
</g>
<g id="icon_x2F_cluster_x2F_16" transform="translate(606.000000, 339.000000)">
	<path id="Shape_5_" class="st8" d="M26.9,17.6c0.8,0,1.5-0.7,1.5-1.5c0-0.8-0.7-1.5-1.5-1.5c-0.8,0-1.5,0.7-1.5,1.5
		C25.4,16.9,26.1,17.6,26.9,17.6z M26.9,15.6c0.3,0,0.5,0.2,0.5,0.5c0,0.3-0.2,0.5-0.5,0.5c-0.3,0-0.5-0.2-0.5-0.5
		C26.4,15.8,26.6,15.6,26.9,15.6z M31.7,20c0.8,0,1.5-0.7,1.5-1.5S32.5,17,31.7,17c-0.8,0-1.5,0.7-1.5,1.5S30.9,20,31.7,20z
		 M31.7,18c0.3,0,0.5,0.2,0.5,0.5c0,0.3-0.2,0.5-0.5,0.5c-0.3,0-0.5-0.2-0.5-0.5C31.2,18.2,31.4,18,31.7,18L31.7,18z M21.1,22.2
		c-0.8,0-1.5,0.7-1.5,1.5c0,0.8,0.7,1.5,1.5,1.5c0.8,0,1.5-0.7,1.5-1.5C22.6,22.9,22,22.2,21.1,22.2z M21.1,24.2
		c-0.3,0-0.5-0.2-0.5-0.5c0-0.3,0.2-0.5,0.5-0.5c0.3,0,0.5,0.2,0.5,0.5C21.6,24,21.4,24.2,21.1,24.2z M22.1,20
		c0.8,0,1.5-0.7,1.5-1.5S22.9,17,22.1,17c-0.8,0-1.5,0.7-1.5,1.5C20.6,19.3,21.3,20,22.1,20L22.1,20z M22.1,18
		c0.3,0,0.5,0.2,0.5,0.5c0,0.3-0.2,0.5-0.5,0.5c-0.2,0-0.5-0.2-0.5-0.5C21.6,18.2,21.8,18,22.1,18L22.1,18z M32.7,22.2
		c-0.8,0-1.5,0.7-1.5,1.5c0,0.8,0.7,1.5,1.5,1.5c0.8,0,1.5-0.7,1.5-1.5C34.2,22.9,33.5,22.2,32.7,22.2z M32.7,24.2
		c-0.3,0-0.5-0.2-0.5-0.5c0-0.3,0.2-0.5,0.5-0.5c0.3,0,0.5,0.2,0.5,0.5C33.2,24,32.9,24.2,32.7,24.2z M29.3,26.1
		c-0.8,0-1.5,0.7-1.5,1.5c0,0.8,0.7,1.5,1.5,1.5c0.8,0,1.5-0.7,1.5-1.5C30.8,26.8,30.2,26.1,29.3,26.1L29.3,26.1z M29.3,28.1
		c-0.3,0-0.5-0.2-0.5-0.5c0-0.3,0.2-0.5,0.5-0.5c0.3,0,0.5,0.2,0.5,0.5c0,0.1-0.1,0.3-0.1,0.4C29.6,28,29.5,28.1,29.3,28.1z
		 M24.5,26.1c-0.8,0-1.5,0.7-1.5,1.5c0,0.8,0.7,1.5,1.5,1.5c0.8,0,1.5-0.7,1.5-1.5C26,26.8,25.3,26.1,24.5,26.1L24.5,26.1z
		 M24.5,28.1c-0.3,0-0.5-0.2-0.5-0.5c0-0.3,0.2-0.5,0.5-0.5c0.3,0,0.5,0.2,0.5,0.5C25,27.9,24.7,28.1,24.5,28.1z M29.9,22.1
		c0-1.7-1.3-3-3-3c-1.7,0-3,1.3-3,3c0,1.7,1.3,3,3,3C28.6,25.1,29.9,23.8,29.9,22.1z M26.9,24.1c-1.1,0-2-0.9-2-2s0.9-2,2-2
		s2,0.9,2,2c0,0.5-0.2,1-0.6,1.4S27.4,24.1,26.9,24.1z"/>
</g>
<path id="Line-Copy" class="st7" d="M234.7,213.6l14,7l-14,7v-6l-132.8,0.5h-1v-2h1l132.8-0.5V213.6z"/>
<path id="Path-4" class="st7" d="M428.1,296.1v141h45.8v-6l14,7l-14,7v-6h-47.8v-143H428.1z"/>
<path id="Path-5" class="st7" d="M295.9,296.1l7,14h-6v167.5h37.5v2h-39.5V310.1h-6L295.9,296.1z"/>
<path id="Line-6" class="st7" d="M459.9,61.1v66h6l-7,14l-7-14h6v-64H308.4v-2H459.9z"/>
<path id="Path-3" class="st7" d="M814.9,296.1v143h-41v6l-14-7l14-7v6h39v-141H814.9z"/>
<rect x="478.4" y="96.7" class="st9" width="143.7" height="15.6"/>
<text transform="matrix(1 0 0 1 472.9086 107.0936)" class="st10 st11 st12">Développeur de logiciels</text>
<rect x="199.4" y="96.7" class="st9" width="143.7" height="15.6"/>
<text transform="matrix(1 0 0 1 208.015 107.0497)" class="st10 st11 st12">Installateur de cloud</text>
<rect x="582.7" y="37.8" class="st9" width="232" height="15.6"/>
<text transform="matrix(1 0 0 1 610.5225 51.4592)" class="st10 st11 st12">Développe et publie le service</text>
<rect x="763.9" y="159" class="st9" width="162.3" height="15.6"/>
<text transform="matrix(1 0 0 1 763.8853 170.8941)" class="st8 st13 st14">Registre de conteneur</text>
<rect x="264.7" y="161.2" class="st9" width="236.1" height="15.6"/>
<text transform="matrix(1 0 0 1 264.7029 173.0878)" class="st8 st13 st14">Concentrateur de gestion</text>
<rect x="487.9" y="357.3" class="st9" width="95" height="15.6"/>
<rect x="487.9" y="349.6" class="st9" width="82" height="38.8"/>
<text transform="matrix(1 0 0 1 487.8859 363.1695)" class="st15"><tspan x="0" y="0" class="st8 st13 st14">Noeud de </tspan><tspan x="0" y="19.2" class="st8 st13 st14">périphérie</tspan></text>
<rect x="495.9" y="421.7" class="st9" width="64" height="43.6"/>
<rect x="687.9" y="421.7" class="st9" width="64" height="43.6"/>
<rect x="567.9" y="413.7" class="st9" width="98" height="14.7"/>
<text transform="matrix(1 0 0 1 582.4805 428.0743)" class="st8 st11 st12">Exécutions</text>
<rect x="643.9" y="356.3" class="st9" width="58.9" height="14.7"/>
<text transform="matrix(1 0 0 1 643.8856 365.148)" class="st8 st11 st16">Cluster ou</text>
<rect x="721.9" y="356.3" class="st9" width="44.5" height="14.7"/>
<text transform="matrix(1 0 0 1 721.8856 365.148)" class="st8 st11 st16">Dispositif</text>
<rect x="325" y="511.7" class="st9" width="90.6" height="15.5"/>
<text transform="matrix(1 0 0 1 302.8226 522.1124)" class="st10 st11 st12">Propriétaire du nœud</text>
<rect x="16.1" y="253.7" class="st9" width="94.5" height="15.5"/>
<text transform="matrix(1 0 0 1 16.1724 264.0445)" class="st10 st11 st12">Administrateur</text>
<g>
	<path class="st8" d="M755.9,158.6h-8c-0.6,0-1,0.4-1,1v11c0,0.6,0.4,1,1,1h8c0.6,0,1-0.4,1-1v-11
		C756.9,159.1,756.5,158.6,755.9,158.6z M755.9,159.6v3h-8v-3H755.9z M747.9,166.6v-3h8v3H747.9z M747.9,170.6v-3h8v3H747.9z"/>
	<circle class="st8" cx="749.4" cy="161.1" r="0.5"/>
	<circle class="st8" cx="749.4" cy="165.1" r="0.5"/>
	<circle class="st8" cx="749.4" cy="169.1" r="0.5"/>
	<rect id="_x3C_Transparent_Rectangle_x3E__616_" x="743.9" y="157.1" class="st9" width="16" height="16"/>
</g>
<text transform="matrix(1 0 0 1 143.2153 193.7558)"><tspan x="0" y="0" class="st10 st11 st12">Gère le  </tspan><tspan x="-15.6" y="16.8" class="st10 st11 st12">déploiement</tspan></text>
<rect x="306.7" y="22.9" class="st9" width="158.5" height="36"/>
<text transform="matrix(1 0 0 1 308.5222 33.2558)"><tspan x="0" y="0" class="st10 st11 st12">Installe le concentrateur </tspan><tspan x="44.8" y="16.8" class="st10 st11 st12">de gestion</tspan></text>
<rect x="192.6" y="350.1" class="st9" width="93" height="64.2"/>
<text transform="matrix(1 0 0 1 192.5524 360.422)"><tspan x="0" y="0" class="st10 st11 st12">Enregistre le </tspan><tspan x="0" y="16.8" class="st10 st11 st12">nœud avec le </tspan><tspan x="0" y="33.6" class="st10 st11 st12">concentrateur </tspan><tspan x="0" y="50.4" class="st10 st11 st12">de gestion</tspan></text>
<rect x="322.9" y="331.6" class="st9" width="93.7" height="64.2"/>
<text transform="matrix(1 0 0 1 322.8857 341.922)"><tspan x="0" y="0" class="st10 st11 st12">Obtient les </tspan><tspan x="0" y="16.8" class="st10 st11 st12">instructions de </tspan><tspan x="0" y="33.6" class="st10 st11 st12">déploiement </tspan><tspan x="0" y="50.4" class="st10 st11 st12">du service</tspan></text>
<rect x="496.1" y="422.4" class="st9" width="65.2" height="30.6"/>
<text transform="matrix(1 0 0 1 496.0524 432.7553)"><tspan x="0" y="0" class="st10 st11 st12">Agent de </tspan><tspan x="0" y="16.8" class="st10 st11 st12">périphérie</tspan></text>
<rect x="685.4" y="423.9" class="st9" width="70.5" height="30.6"/>
<text transform="matrix(1 0 0 1 685.3857 434.2553)"><tspan x="0" y="0" class="st10 st11 st12">Service de </tspan><tspan x="0" y="16.8" class="st10 st11 st12">périphérie</tspan></text>
<rect x="822.4" y="349.1" class="st9" width="87.5" height="30.6"/>
<text transform="matrix(1 0 0 1 822.3857 359.422)"><tspan x="0" y="0" class="st10 st11 st12">Tire les </tspan><tspan x="0" y="16.8" class="st10 st11 st12">conteneurs</tspan></text>
</svg>
