<?xml version="1.0" encoding="utf-8"?>
<!-- Generator: Adobe Illustrator 21.1.0, SVG Export Plug-In . SVG Version: 6.00 Build 0)  -->
<svg version="1.1" id="Layer_1" xmlns="http://www.w3.org/2000/svg" xmlns:xlink="http://www.w3.org/1999/xlink" x="0px" y="0px"
	 viewBox="0 0 943.8 824.2" style="enable-background:new 0 0 943.8 824.2;" xml:space="preserve">
<style type="text/css">
	.st0{fill:#408BFC;}
	.st1{fill:#FFFFFF;}
	.st2{fill:#8A3FFC;}
	.st3{fill:none;stroke:#00BAB6;stroke-width:2;stroke-dasharray:7;}
	.st4{fill:#E3F6FF;}
	.st5{fill:#0F62FE;}
	.st6{fill:#009C98;}
	.st7{fill:#BEBEBE;}
	.st8{fill:#051B75;}
	.st9{fill:none;}
	.st10{fill:#161616;}
	.st11{font-family:'IBMPlexSans';}
	.st12{font-size:14px;}
	.st13{fill:#F4F4F4;}
	.st14{font-family:'IBMPlexSans-Medium';}
	.st15{font-size:16px;}
	.st16{enable-background:new    ;}
</style>
<rect id="Rectangle-Copy-14" x="495.9" y="640.6" class="st0" width="370" height="180"/>
<rect id="Rectangle-Copy-9" x="511.9" y="723.6" class="st1" width="80" height="81"/>
<rect id="Rectangle-Copy-18_1_" x="764.9" y="698.6" class="st2" width="85" height="106"/>
<path id="Rectangle-Copy-17" class="st3" d="M520.9,35.6h357c22.1,0,40,17.9,40,40v222c0,22.1-17.9,40-40,40h-357
	c-22.1,0-40-17.9-40-40v-222C480.9,53.5,498.8,35.6,520.9,35.6z"/>
<path id="Rectangle-Copy-22" class="st3" d="M56.9,123.6h237c22.1,0,40,17.9,40,40v94c0,22.1-17.9,40-40,40h-237
	c-22.1,0-40-17.9-40-40v-94C16.9,141.5,34.8,123.6,56.9,123.6z"/>
<circle id="Oval-Copy-3" class="st4" cx="73.9" cy="183.6" r="24"/>
<path id="Shape" class="st5" d="M68.9,186.6c2.8,0,5,2.2,5,5v6h-2v-6c0-1.7-1.3-3-3-3h-4c-1.7,0-3,1.3-3,3v6h-2v-6c0-2.8,2.2-5,5-5
	H68.9z M66.9,174.6c2.8,0,5,2.2,5,5s-2.2,5-5,5c-2.8,0-5-2.2-5-5S64.1,174.6,66.9,174.6z M87.9,175.6v8h-2v-8H87.9z M82.9,172.6v11
	h-2v-11H82.9z M77.9,177.6v6h-2v-6H77.9z M66.9,176.6c-1.7,0-3,1.3-3,3s1.3,3,3,3c1.7,0,3-1.3,3-3S68.6,176.6,66.9,176.6z"/>
<circle id="Oval-Copy-3_1_" class="st4" cx="544.9" cy="91.6" r="24"/>
<path id="Shape_1_" class="st5" d="M539.9,94.6c2.8,0,5,2.2,5,5v6h-2v-6c0-1.7-1.3-3-3-3h-4c-1.7,0-3,1.3-3,3v6h-2v-6
	c0-2.8,2.2-5,5-5H539.9z M537.9,82.6c2.8,0,5,2.2,5,5s-2.2,5-5,5s-5-2.2-5-5S535.1,82.6,537.9,82.6z M553,81.5l1.8,0.4l-2.4,10.4
	l-1.8-0.4L553,81.5z M547.8,83.2l1.4,1.2l-2.1,2.6l2.1,2.6l-1.4,1.2l-3.1-3.7L547.8,83.2z M557.6,83.2l3.1,3.7l-3.1,3.7l-1.4-1.2
	l2.1-2.6l-2.1-2.6L557.6,83.2z M537.9,84.6c-1.7,0-3,1.3-3,3s1.3,3,3,3s3-1.3,3-3S539.6,84.6,537.9,84.6z"/>
<rect id="Rectangle-Copy-14_1_" x="555.9" y="425.6" class="st6" width="260" height="155"/>
<path id="Line-2-Copy-37" class="st7" d="M844.4,305.6v77.3h-357v75.7h-56.5v6l-14-7l14-7v6h54.5v-75.7h357v-75.3H844.4z"/>
<path id="Line-5-Copy-3" class="st7" d="M844.2,502.1v1l-0.5,123.5h6l-7.1,14l-6.9-14h6l0.4-122.5h-26.2v-2H844.2z"/>
<path id="Line-5-Copy-4" class="st7" d="M541.9,450.6l14,7l-14,7v-6h-55.5v-2h55.5V450.6z"/>
<rect id="Rectangle-Copy-18_2_" x="16.9" y="425.6" class="st8" width="400" height="155"/>
<rect id="Rectangle-Copy-16" x="320.9" y="482.6" class="st1" width="80" height="81"/>
<rect id="Rectangle-Copy-18_3_" x="688.9" y="67.6" class="st2" width="104" height="81"/>
<rect id="Rectangle-Copy-18_4_" x="800.9" y="199.6" class="st2" width="85" height="106"/>
<rect id="Rectangle-Copy-18_5_" x="512.9" y="199.6" class="st2" width="85" height="106"/>
<path id="Line-2-Copy-20" class="st7" d="M674.9,100.7l14,6.9l-14,7.1v-6l-92,0.4h-1v-2h1l92-0.4V100.7z"/>
<path id="Line-2-Copy-25" class="st7" d="M203.4,180.6l14,7l-14,7v-6h-93.5v-2h93.5V180.6z"/>
<path id="Line-2-Copy-27" class="st7" d="M498.9,204.6l14,7l-14,7v-6h-197v-2h197V204.6z"/>
<path id="Line-2-Copy-29" class="st7" d="M786.9,245.6l14,7l-14,7v-6h-189v-2h189V245.6z"/>
<rect x="109.9" y="166.4" class="st9" width="93.5" height="16.3"/>
<text transform="matrix(1 0 0 1 129.9816 178.1385)" class="st10 st11 st12">1. Crée</text>
<rect x="591.8" y="83.2" class="st9" width="74.1" height="14.9"/>
<text transform="matrix(1 0 0 1 602.6626 98.9305)" class="st10 st11 st12">Installe</text>
<rect x="646.3" y="358.3" class="st9" width="170.9" height="14.9"/>
<text transform="matrix(1 0 0 1 684.4671 369.301)" class="st10 st11 st12">4. Publie des services</text>
<rect x="320.9" y="516.3" class="st9" width="80" height="14.9"/>
<text transform="matrix(1 0 0 1 345.2974 526.6326)" class="st10 st11 st12">MMS</text>
<rect x="517.9" y="748.2" class="st9" width="65.8" height="37.9"/>
<rect x="764.9" y="740.2" class="st9" width="84.8" height="16.4"/>
<text transform="matrix(1 0 0 1 770.6089 754.8839)" class="st13 st11 st12">Service d&apos;IA</text>
<rect x="688.9" y="100.2" class="st9" width="104" height="14.9"/>
<text transform="matrix(1 0 0 1 718.2622 110.6152)" class="st13 st11 st12">Docker</text>
<rect x="800.8" y="241.2" class="st9" width="85" height="14.9"/>
<text transform="matrix(1 0 0 1 806.2611 251.5614)" class="st13 st11 st12">Service d&apos;IA</text>
<rect x="512.7" y="233.7" class="st9" width="85.2" height="34.7"/>
<rect x="32.9" y="445.7" class="st9" width="236.1" height="15.6"/>
<text transform="matrix(1 0 0 1 32.8862 457.5759)" class="st13 st14 st15">Concentrateur de gestion</text>
<rect x="511.9" y="660.8" class="st9" width="236.1" height="15.6"/>
<text transform="matrix(1 0 0 1 511.8862 672.6028)" class="st13 st14 st15">Noeud de périphérie</text>
<rect x="49.9" y="95.8" class="st9" width="236.1" height="15.6"/>
<rect x="35.2" y="81.4" class="st9" width="228.7" height="36.9"/>
<text transform="matrix(1 0 0 1 35.2112 94.9492)" class="st16"><tspan x="0" y="0" class="st10 st14 st15">Environnement de recherche </tspan><tspan x="0" y="19.2" class="st10 st14 st15">sur les données</tspan></text>
<rect x="512.9" y="7.8" class="st9" width="236.1" height="15.6"/>
<text transform="matrix(1 0 0 1 512.8862 21.5999)" class="st10 st14 st15">Environnement du développeur</text>
<rect id="Rectangle-Copy-18_6_" x="216.9" y="157.6" class="st2" width="85" height="120"/>
<rect x="219" y="180.3" class="st9" width="80.6" height="74.6"/>
<rect x="591.9" y="446.7" class="st9" width="162.3" height="15.6"/>
<text transform="matrix(1 0 0 1 591.8856 458.5741)" class="st13 st14 st15">Registre de conteneur</text>
<g>
	<path class="st13" d="M583.9,446.3h-8c-0.6,0-1,0.4-1,1v11c0,0.6,0.4,1,1,1h8c0.6,0,1-0.4,1-1v-11
		C584.9,446.7,584.5,446.3,583.9,446.3z M583.9,447.3v3h-8v-3H583.9z M575.9,454.3v-3h8v3H575.9z M575.9,458.3v-3h8v3H575.9z"/>
	<circle class="st13" cx="577.4" cy="448.8" r="0.5"/>
	<circle class="st13" cx="577.4" cy="452.8" r="0.5"/>
	<circle class="st13" cx="577.4" cy="456.8" r="0.5"/>
	<rect id="_x3C_Transparent_Rectangle_x3E__616_" x="571.9" y="444.8" class="st9" width="16" height="16"/>
</g>
<rect x="29.2" y="215.9" class="st9" width="91.3" height="30.6"/>
<text transform="matrix(1 0 0 1 37.6746 226.2489)"><tspan x="0" y="0" class="st10 st11 st12">Scientifique </tspan><tspan x="-2.8" y="16.8" class="st10 st11 st12">des données</tspan></text>
<rect x="223.6" y="177.9" class="st9" width="71.3" height="64.2"/>
<text transform="matrix(1 0 0 1 223.5968 188.2489)"><tspan x="0" y="0" class="st13 st11 st12">Application </tspan><tspan x="0.3" y="16.8" class="st13 st11 st12">IA/ML avec </tspan><tspan x="24.3" y="33.6" class="st13 st11 st12">son </tspan><tspan x="11.9" y="50.4" class="st13 st11 st12">modèle</tspan></text>
<text transform="matrix(1 0 0 1 374.1957 168.9155)"><tspan x="0" y="0" class="st10 st11 st12">2. Partage  </tspan><tspan x="-22.6" y="16.8" class="st10 st11 st12">l&apos;application avec  </tspan><tspan x="-13.2" y="33.6" class="st10 st11 st12">le développeur</tspan></text>
<text transform="matrix(1 0 0 1 503.4088 136.2489)"><tspan x="0" y="0" class="st10 st11 st12">Développeur  </tspan><tspan x="6.6" y="16.8" class="st10 st11 st12">de logiciels</tspan></text>
<rect x="518.6" y="231.9" class="st9" width="74.7" height="30.6"/>
<text transform="matrix(1 0 0 1 520.2636 242.249)"><tspan x="0" y="0" class="st13 st11 st12">Application </tspan><tspan x="16.5" y="16.8" class="st13 st11 st12">IA/ML</tspan></text>
<rect x="606.9" y="215.6" class="st9" width="171.7" height="30.6"/>
<text transform="matrix(1 0 0 1 606.886 225.9155)"><tspan x="0" y="0" class="st10 st11 st12">3. Transforme l&apos;application </tspan><tspan x="0" y="16.8" class="st10 st11 st12">en un service</tspan></text>
<rect x="849.2" y="552.3" class="st9" width="76.7" height="30.6"/>
<text transform="matrix(1 0 0 1 849.219 562.6741)"><tspan x="0" y="0" class="st10 st11 st12">5. Tire les </tspan><tspan x="0" y="16.8" class="st10 st11 st12">conteneurs</tspan></text>
<rect x="518.5" y="746.5" class="st9" width="64.6" height="30.6"/>
<text transform="matrix(1 0 0 1 522.7617 756.8135)"><tspan x="0" y="0" class="st10 st11 st12">Agent de </tspan><tspan x="-4.2" y="16.8" class="st10 st11 st12">périphérie</tspan></text>
</svg>
