<?xml version="1.0" encoding="utf-8"?>
<!-- Generator: Adobe Illustrator 21.1.0, SVG Export Plug-In . SVG Version: 6.00 Build 0)  -->
<svg version="1.1" id="Layer_1" xmlns="http://www.w3.org/2000/svg" xmlns:xlink="http://www.w3.org/1999/xlink" x="0px" y="0px"
	 viewBox="0 0 951 856.4" style="enable-background:new 0 0 951 856.4;" xml:space="preserve">
<style type="text/css">
	.st0{fill:none;stroke:#00BAB6;stroke-width:2;stroke-dasharray:7;}
	.st1{fill:#E3F6FF;}
	.st2{fill:#0F62FE;}
	.st3{fill:#009C98;}
	.st4{fill:#DCDCDC;}
	.st5{fill:#408BFC;}
	.st6{fill:#FFFFFF;}
	.st7{fill:#051B75;}
	.st8{fill:#8A3FFC;}
	.st9{fill:#EE538B;}
	.st10{fill:none;}
	.st11{fill:#161616;}
	.st12{font-family:'IBMPlexSans';}
	.st13{font-size:14px;}
	.st14{fill:#F4F4F4;}
	.st15{enable-background:new    ;}
	.st16{font-family:'IBMPlexSans-Medium';}
	.st17{font-size:16px;}
</style>
<path id="Rectangle-Copy-19" class="st0" d="M529,51.7h357c22.1,0,40,17.9,40,40v222c0,22.1-17.9,40-40,40H529
	c-22.1,0-40-17.9-40-40v-222C489,69.6,506.9,51.7,529,51.7z"/>
<path id="Rectangle-Copy-23" class="st0" d="M65,139.7h237c22.1,0,40,17.9,40,40v94c0,22.1-17.9,40-40,40H65c-22.1,0-40-17.9-40-40
	v-94C25,157.6,42.9,139.7,65,139.7z"/>
<circle id="Oval-Copy-3" class="st1" cx="82" cy="199.7" r="24"/>
<path id="Shape" class="st2" d="M77,202.7c2.8,0,5,2.2,5,5v6h-2v-6c0-1.7-1.3-3-3-3h-4c-1.7,0-3,1.3-3,3v6h-2v-6c0-2.8,2.2-5,5-5H77
	z M75,190.7c2.8,0,5,2.2,5,5s-2.2,5-5,5s-5-2.2-5-5S72.2,190.7,75,190.7z M96,191.7v8h-2v-8H96z M91,188.7v11h-2v-11H91z M86,193.7
	v6h-2v-6H86z M75,192.7c-1.7,0-3,1.3-3,3s1.3,3,3,3s3-1.3,3-3S76.7,192.7,75,192.7z"/>
<circle id="Oval-Copy-3_1_" class="st1" cx="553" cy="107.7" r="24"/>
<path id="Shape_1_" class="st2" d="M548,110.7c2.8,0,5,2.2,5,5v6h-2v-6c0-1.7-1.3-3-3-3h-4c-1.7,0-3,1.3-3,3v6h-2v-6
	c0-2.8,2.2-5,5-5H548z M546,98.7c2.8,0,5,2.2,5,5s-2.2,5-5,5s-5-2.2-5-5S543.2,98.7,546,98.7z M561.1,97.6l1.8,0.4l-2.4,10.4
	l-1.8-0.4L561.1,97.6z M555.9,99.3l1.4,1.2l-2.1,2.6l2.1,2.6l-1.4,1.2l-3.1-3.7L555.9,99.3z M565.7,99.3l3.1,3.7l-3.1,3.7l-1.4-1.2
	l2.1-2.6l-2.1-2.6L565.7,99.3z M546,100.7c-1.7,0-3,1.3-3,3s1.3,3,3,3s3-1.3,3-3S547.7,100.7,546,100.7z"/>
<rect id="Rectangle-Copy-14" x="564" y="441.7" class="st3" width="260" height="155"/>
<path id="Line-5-Copy-5" class="st4" d="M852.3,518.2v1l-0.5,123.5h6l-7.1,14l-6.9-14h6l0.4-122.5H824v-2H852.3z"/>
<rect id="Rectangle-Copy-14_1_" x="504" y="656.7" class="st5" width="370" height="180"/>
<rect id="Rectangle-Copy-9" x="520" y="739.7" class="st6" width="80" height="81"/>
<rect id="Rectangle-Copy-24" x="25" y="441.7" class="st7" width="400" height="155"/>
<rect id="Rectangle-Copy-16" x="329" y="498.7" class="st6" width="80" height="81"/>
<rect id="Rectangle-Copy-18" x="697" y="83.7" class="st8" width="104" height="81"/>
<rect id="Rectangle-Copy-18_1_" x="809" y="215.7" class="st8" width="85" height="106"/>
<rect id="Rectangle-Copy-18_2_" x="773" y="714.7" class="st8" width="85" height="106"/>
<rect id="Rectangle-Copy-18_4_" x="521" y="215.7" class="st8" width="85" height="106"/>
<path id="Line-2-Copy-21" class="st4" d="M683,116.8l14,6.9l-14,7.1v-6l-92,0.4h-1v-2h1l92-0.4V116.8z"/>
<path id="Line-2-Copy-30" class="st9" d="M759,773.7l14,7l-14,7v-6H600v-2h159V773.7z"/>
<path id="Line-2-Copy-31" class="st4" d="M211.5,196.7l14,7l-14,7v-6H118v-2h93.5V196.7z"/>
<path id="Line-2-Copy-32" class="st9" d="M211.5,255.7l14,7l-14,7v-6H118v-2h93.5V255.7z"/>
<path id="Line-2-Copy-33" class="st4" d="M507,220.7l14,7l-14,7v-6H310v-2h197V220.7z"/>
<path id="Line-2-Copy-34" class="st4" d="M852.5,321.7V399h-357v75.7H439v6l-14-7l14-7v6h54.5v-75.6h357v-75.4H852.5z"/>
<path id="Line-2-Copy-35" class="st4" d="M795,261.7l14,7l-14,7v-6H606v-2h189V261.7z"/>
<path id="Line-4-Copy-3" class="st9" d="M370,261.7v223h6l-7,14l-7-14h6v-221h-58v-2H370z"/>
<path id="Path-3-Copy" class="st9" d="M370,579.7v200h135v-6l14,7l-14,7v-6H368v-202H370z"/>
<path id="Line-5" class="st4" d="M550,466.7l14,7l-14,7v-6h-55.5v-2H550V466.7z"/>
<rect x="621.3" y="736.3" class="st10" width="114.1" height="39.6"/>
<rect x="329" y="532.5" class="st10" width="80" height="14.9"/>
<text transform="matrix(1 0 0 1 353.4114 542.869)" class="st11 st12 st13">MMS</text>
<rect x="526" y="764.4" class="st10" width="65.8" height="37.9"/>
<rect x="773" y="756.4" class="st10" width="84.8" height="16.4"/>
<text transform="matrix(1 0 0 1 776.0562 774.1201)" class="st14 st12 st13">Service d&apos;IA</text>
<rect x="697" y="116.5" class="st10" width="104" height="14.9"/>
<text transform="matrix(1 0 0 1 726.3762 126.8514)" class="st14 st12 st13">Docker</text>
<rect x="808.9" y="257.4" class="st10" width="85" height="14.9"/>
<rect x="828.4" y="253.9" class="st10" width="50.6" height="32.1"/>
<text transform="matrix(1 0 0 1 830.651 265.7977)" class="st15"><tspan x="0" y="0" class="st14 st12 st13">Service </tspan><tspan x="10" y="16.8" class="st14 st12 st13">d&apos;IA</tspan></text>
<rect x="520.8" y="249.9" class="st10" width="85.2" height="34.7"/>
<rect x="41" y="462" class="st10" width="236.1" height="15.6"/>
<text transform="matrix(1 0 0 1 41.0002 473.8123)" class="st14 st16 st17">Concentrateur de gestion</text>
<rect x="520" y="677" class="st10" width="236.1" height="15.6"/>
<text transform="matrix(1 0 0 1 520.0002 688.8391)" class="st14 st16 st17">Noeud de périphérie</text>
<rect x="58" y="112" class="st10" width="236.1" height="15.6"/>
<rect x="84" y="95.3" class="st10" width="192" height="36.9"/>
<text transform="matrix(1 0 0 1 84.1174 108.8521)" class="st15"><tspan x="0" y="0" class="st11 st16 st17">Environnement de recher</tspan><tspan x="185.3" y="0" class="st11 st16 st17">-</tspan><tspan x="23.3" y="19.2" class="st11 st16 st17">che sur les données</tspan></text>
<rect x="521" y="24" class="st10" width="236.1" height="15.6"/>
<text transform="matrix(1 0 0 1 521.0002 35.8362)" class="st11 st16 st17">Environnement du développeur</text>
<rect id="Rectangle-Copy-18_6_" x="225" y="173.7" class="st8" width="85" height="120"/>
<rect x="227.1" y="196.4" class="st10" width="80.6" height="74.6"/>
<rect x="599.7" y="459.9" class="st10" width="162.3" height="15.6"/>
<text transform="matrix(1 0 0 1 599.7068 471.7377)" class="st14 st16 st17">Registre de conteneur</text>
<g>
	<path class="st14" d="M591.7,459.5h-8c-0.6,0-1,0.4-1,1v11c0,0.6,0.4,1,1,1h8c0.6,0,1-0.4,1-1v-11
		C592.7,459.9,592.3,459.5,591.7,459.5z M591.7,460.5v3h-8v-3H591.7z M583.7,467.5v-3h8v3H583.7z M583.7,471.5v-3h8v3H583.7z"/>
	<circle class="st14" cx="585.2" cy="461.9" r="0.5"/>
	<circle class="st14" cx="585.2" cy="465.9" r="0.5"/>
	<circle class="st14" cx="585.2" cy="469.9" r="0.5"/>
	<rect id="_x3C_Transparent_Rectangle_x3E__616_" x="579.7" y="457.9" class="st10" width="16" height="16"/>
</g>
<rect x="32" y="233.5" class="st10" width="82" height="30.6"/>
<text transform="matrix(1 0 0 1 35.7886 243.8599)"><tspan x="0" y="0" class="st11 st12 st13">Scientifique </tspan><tspan x="-2.8" y="16.8" class="st11 st12 st13">des données</tspan></text>
<rect x="120.2" y="209.8" class="st10" width="88" height="46.2"/>
<text transform="matrix(1 0 0 1 130.1545 220.1932)"><tspan x="0" y="0" class="st11 st12 st13">6. Effectue </tspan><tspan x="-2.9" y="16.8" class="st11 st12 st13">des mises à </tspan><tspan x="21.8" y="33.6" class="st11 st12 st13">jour</tspan></text>
<rect x="235.5" y="202.5" class="st10" width="69" height="64.2"/>
<text transform="matrix(1 0 0 1 235.5 212.8599)"><tspan x="0" y="0" class="st14 st12 st13">Applica</tspan><tspan x="47" y="0" class="st14 st12 st13">-</tspan><tspan x="0" y="16.8" class="st14 st12 st13">tion IA/ML </tspan><tspan x="0" y="33.6" class="st14 st12 st13">avec son </tspan><tspan x="0" y="50.4" class="st14 st12 st13">modèle</tspan></text>
<rect x="376.5" y="336" class="st10" width="100.5" height="64.2"/>
<text transform="matrix(1 0 0 1 376.5 346.3599)"><tspan x="0" y="0" class="st11 st12 st13">7. Envoi des </tspan><tspan x="0" y="16.8" class="st11 st12 st13">mises à jour du </tspan><tspan x="0" y="33.6" class="st11 st12 st13">modèle par </tspan><tspan x="0" y="50.4" class="st11 st12 st13">MMS</tspan></text>
<rect x="506" y="137" class="st10" width="93" height="30.6"/>
<text transform="matrix(1 0 0 1 512.3418 147.3599)"><tspan x="0" y="0" class="st11 st12 st13">Développeur </tspan><tspan x="4.9" y="16.8" class="st11 st12 st13">de logiciels</tspan></text>
<rect x="525.8" y="253.2" class="st10" width="73.5" height="30.6"/>
<text transform="matrix(1 0 0 1 526.9612 263.5265)"><tspan x="0" y="0" class="st14 st12 st13">Application </tspan><tspan x="16.5" y="16.8" class="st14 st12 st13">IA/ML</tspan></text>
<rect x="375.7" y="669" class="st10" width="102.3" height="30.6"/>
<text transform="matrix(1 0 0 1 375.6665 679.3594)"><tspan x="0" y="0" class="st11 st12 st13">8. Mise à jour </tspan><tspan x="0" y="16.8" class="st11 st12 st13">des modèles</tspan></text>
<rect x="612" y="746.7" class="st10" width="152.7" height="30.6"/>
<text transform="matrix(1 0 0 1 612 757.0273)"><tspan x="0" y="0" class="st14 st12 st13">9. Extraction du modèle </tspan><tspan x="0" y="16.8" class="st14 st12 st13">à l&apos;aide de l&apos;API ESS</tspan></text>
<rect x="524.3" y="764.7" class="st10" width="70.7" height="30.6"/>
<text transform="matrix(1 0 0 1 524.3337 775.0261)"><tspan x="0" y="0" class="st11 st12 st13">Agent de </tspan><tspan x="0" y="16.8" class="st11 st12 st13">périphérie</tspan></text>
</svg>
