<?xml version="1.0" encoding="utf-8"?>
<!-- Generator: Adobe Illustrator 21.1.0, SVG Export Plug-In . SVG Version: 6.00 Build 0)  -->
<svg version="1.1" id="Layer_1" xmlns="http://www.w3.org/2000/svg" xmlns:xlink="http://www.w3.org/1999/xlink" x="0px" y="0px"
	 viewBox="0 0 1051.8 551.2" style="enable-background:new 0 0 1051.8 551.2;" xml:space="preserve">
<style type="text/css">
	.st0{fill:#BEBEBE;}
	.st1{fill:#E3F6FF;}
	.st2{fill:#0F62FE;}
	.st3{fill:#009C98;}
	.st4{fill:#408BFC;}
	.st5{fill:#F4F4F4;}
	.st6{fill:#FFFFFF;}
	.st7{fill:#DCDCDC;}
	.st8{fill:none;stroke:#BEBEBE;stroke-width:2;}
	.st9{fill:#051B75;}
	.st10{fill:none;}
	.st11{fill:#161616;}
	.st12{font-family:'IBMPlexSans';}
	.st13{font-size:14px;}
	.st14{font-family:'IBMPlexSans-Medium';}
	.st15{font-size:16px;}
	.st16{enable-background:new    ;}
	.st17{font-size:12px;}
</style>
<path id="Line-4" class="st0" d="M41.4,78.4v256.2h362.5v-147h-6l7-14l7,14h-6v149H39.4V78.4H41.4z"/>
<path id="Line-4-Copy-2" class="st0" d="M847.4,78.4v59.8h-44.5v6l-14-7l14-7v6h42.5V78.4H847.4z"/>
<circle id="Oval-Copy-3" class="st1" cx="846.9" cy="43.6" r="24"/>
<path id="Shape" class="st2" d="M841.9,46.6c2.8,0,5,2.2,5,5v6h-2v-6c0-1.7-1.3-3-3-3h-4c-1.7,0-3,1.3-3,3v6h-2v-6c0-2.8,2.2-5,5-5
	H841.9z M839.9,34.6c2.8,0,5,2.2,5,5s-2.2,5-5,5s-5-2.2-5-5S837.1,34.6,839.9,34.6z M858.5,34.6l1.4,1.4l-7.1,7.1l-3.9-3.9l1.4-1.4
	l2.5,2.5L858.5,34.6z M839.9,36.6c-1.7,0-3,1.3-3,3s1.3,3,3,3s3-1.3,3-3S841.6,36.6,839.9,36.6z"/>
<circle id="Oval-Copy-3_1_" class="st1" cx="39.9" cy="43.6" r="24"/>
<path id="Shape_1_" class="st2" d="M34.9,46.6c2.8,0,5,2.2,5,5v6h-2v-6c0-1.7-1.3-3-3-3h-4c-1.7,0-3,1.3-3,3v6h-2v-6
	c0-2.8,2.2-5,5-5H34.9z M32.9,34.6c2.8,0,5,2.2,5,5s-2.2,5-5,5s-5-2.2-5-5S30.1,34.6,32.9,34.6z M48,33.5l1.8,0.4l-2.4,10.4
	l-1.8-0.4L48,33.5z M42.8,35.2l1.4,1.2L42.1,39l2.1,2.6l-1.4,1l-3.1-3.7L42.8,35.2z M52.6,35.2l3.1,3.7l-3.1,3.7l-1.4-1.2l2.1-2.6
	l-2.1-2.6L52.6,35.2z M32.9,36.6c-1.7,0-3,1.3-3,3s1.3,3,3,3c1.7,0,3-1.3,3-3S34.6,36.6,32.9,36.6z"/>
<rect id="Rectangle-Copy-14" x="166.9" y="360.6" class="st3" width="250" height="172"/>
<rect id="Rectangle-Copy-14_1_" x="599.9" y="360.6" class="st4" width="318" height="156"/>
<path id="Shape_2_" class="st5" d="M624.9,381.6c0.6,0,1,0.4,1,1c0,0.5-0.4,0.9-0.8,1l-0.4,1h3.3c1.1,0,2,0.9,2,2v5c0,1.1-0.9,2-2,2
	h-8c-1.1,0-2-0.9-2-2v-5c0-1.1,0.9-2,2-2h3.7l0.6-1.4c-0.1-0.1-0.2-0.3-0.2-0.5v-0.1C623.9,382,624.3,381.6,624.9,381.6z
	 M627.9,385.6h-8c-0.5,0-0.9,0.4-1,0.9v0.1v5c0,0.5,0.4,0.9,0.9,1h0.1h8c0.5,0,0.9-0.4,1-0.9v-0.1v-5
	C628.9,386.1,628.5,385.7,627.9,385.6L627.9,385.6z M626.4,390.6c0.3,0,0.5,0.2,0.5,0.5s-0.2,0.5-0.5,0.5h-5c-0.3,0-0.5-0.2-0.5-0.5
	s0.2-0.5,0.5-0.5H626.4z M621.4,386.6c0.8,0,1.5,0.7,1.5,1.5s-0.7,1.5-1.5,1.5s-1.5-0.7-1.5-1.5S620.6,386.6,621.4,386.6z
	 M626.4,386.6c0.8,0,1.5,0.7,1.5,1.5s-0.7,1.5-1.5,1.5s-1.5-0.7-1.5-1.5S625.6,386.6,626.4,386.6z M621.4,387.6
	c-0.3,0-0.5,0.2-0.5,0.5s0.2,0.5,0.5,0.5s0.5-0.2,0.5-0.5S621.7,387.6,621.4,387.6z M626.4,387.6c-0.3,0-0.5,0.2-0.5,0.5
	s0.2,0.5,0.5,0.5s0.5-0.2,0.5-0.5S626.7,387.6,626.4,387.6z"/>
<rect id="Rectangle-Copy-16" x="615.9" y="419.6" class="st6" width="80" height="81"/>
<rect id="Rectangle-Copy-16_1_" x="821.9" y="419.6" class="st6" width="80" height="81"/>
<path id="Line-2-Copy-24" class="st0" d="M807.9,452.6l14,7l-14,7v-6h-112v-2h112V452.6z"/>
<circle id="Oval-Copy-3_2_" class="st7" cx="39.9" cy="104.6" r="13"/>
<circle id="Oval-Copy-3_3_" class="st7" cx="39.9" cy="176.6" r="13"/>
<circle id="Oval-Copy-3_4_" class="st7" cx="39.9" cy="264.6" r="13"/>
<circle id="Oval-Copy-3_5_" class="st1" cx="752.9" cy="250.6" r="24"/>
<path id="Shape_3_" class="st2" d="M747.9,253.6c2.8,0,5,2.2,5,5v6h-2v-6c0-1.7-1.3-3-3-3h-4c-1.7,0-3,1.3-3,3v6h-2v-6
	c0-2.8,2.2-5,5-5H747.9z M745.9,241.6c2.8,0,5,2.2,5,5s-2.2,5-5,5s-5-2.2-5-5S743.1,241.6,745.9,241.6z M758.9,249.6v2h-2v-2H758.9z
	 M763.9,249.6v2h-2v-2H763.9z M745.9,243.6c-1.7,0-3,1.3-3,3s1.3,3,3,3s3-1.3,3-3S747.6,243.6,745.9,243.6z M766.9,246.6v2h-2v-2
	H766.9z M755.9,246.6v2h-2v-2H755.9z M763.9,241.6v7h-7v-7H763.9z M761.9,243.6h-3v3h3V243.6z M766.9,241.6v2h-2v-2H766.9z
	 M755.9,241.6v2h-2v-2H755.9z M758.9,238.6v2h-2v-2H758.9z M763.9,238.6v2h-2v-2H763.9z"/>
<path id="Line-8" class="st0" d="M41.4,334.1v104h111.5v-6l14,7l-14,7v-6H39.4v-106H41.4z"/>
<path id="Path-8" class="st0" d="M601.9,466.6l14,7l-14,7v-6h-185v-2h185V466.6z"/>
<path id="Path-7" class="st0" d="M581.9,173.6v270.5h20v-6l14,7l-14,7v-6h-22V173.6H581.9z"/>
<path id="Path-9" class="st0" d="M751.9,173.6l7.1,14h-6l0.2,28.4h-2l-0.2-28.4h-6L751.9,173.6z"/>
<line id="Path-9-Copy" class="st8" x1="752.2" y1="360.6" x2="752.2" y2="284.6"/>
<rect id="Rectangle-Copy-50" x="389.9" y="18.6" class="st9" width="400" height="155"/>
<rect id="Rectangle-Copy-16_2_" x="693.9" y="75.6" class="st6" width="80" height="81"/>
<rect id="Rectangle-Copy-16_3_" x="597.9" y="75.6" class="st6" width="80" height="81"/>
<rect id="Rectangle-Copy-16_4_" x="501.9" y="75.6" class="st6" width="80" height="81"/>
<rect id="Rectangle-Copy-16_5_" x="405.9" y="75.6" class="st6" width="80" height="81"/>
<rect x="29.8" y="98.2" class="st10" width="20" height="12.2"/>
<text transform="matrix(1 0 0 1 35.3188 108.617)" class="st11 st12 st13">A</text>
<rect x="29.8" y="170.2" class="st10" width="20" height="13.4"/>
<text transform="matrix(1 0 0 1 35.2348 180.6218)" class="st11 st12 st13">B</text>
<rect x="31.1" y="258.3" class="st10" width="17.5" height="13.4"/>
<text transform="matrix(1 0 0 1 35.4589 268.6311)" class="st11 st12 st13">C</text>
<rect x="417.3" y="449.2" class="st10" width="163" height="21"/>
<text transform="matrix(1 0 0 1 436.0273 462.9464)" class="st11 st12 st13">6. Tire les conteneurs</text>
<rect x="788.9" y="244.2" class="st10" width="100" height="15.4"/>
<text transform="matrix(1 0 0 1 788.9061 254.6024)" class="st11 st12 st13">Propriétaire du nœud</text>
<rect x="878.9" y="37.2" class="st10" width="100" height="15.4"/>
<text transform="matrix(1 0 0 1 878.9132 47.6143)" class="st11 st12 st13">Administrateur</text>
<rect x="405.9" y="38.8" class="st10" width="236.1" height="15.6"/>
<text transform="matrix(1 0 0 1 405.8835 50.6487)" class="st5 st14 st15">Concentrateur de gestion</text>
<rect x="637.9" y="380.8" class="st10" width="236.1" height="15.6"/>
<text transform="matrix(1 0 0 1 637.8834 392.6693)" class="st5 st14 st15">Noeud de périphérie</text>
<rect x="693.8" y="109.2" class="st10" width="80" height="14.9"/>
<text transform="matrix(1 0 0 1 718.2035 119.5915)" class="st11 st12 st13">MMS</text>
<rect x="821.9" y="444.3" class="st10" width="80" height="35.7"/>
<rect x="696.2" y="435.2" class="st10" width="111.2" height="13.7"/>
<text transform="matrix(1 0 0 1 712.3929 452.2864)" class="st5 st12 st13">7. Exécutions</text>
<rect x="597.8" y="99.5" class="st10" width="80" height="36.4"/>
<rect x="501.8" y="109.2" class="st10" width="80" height="14.9"/>
<text transform="matrix(1 0 0 1 513.8739 119.5915)" class="st11 st12 st13">Échange</text>
<rect x="405.8" y="109.2" class="st10" width="80" height="14.9"/>
<text transform="matrix(1 0 0 1 426.8647 119.5915)" class="st11 st12 st13">Agbot</text>
<rect x="60.9" y="98.2" class="st10" width="203" height="15.7"/>
<rect x="60.9" y="96.7" class="st10" width="261.7" height="32.1"/>
<text transform="matrix(1 0 0 1 60.8833 108.6175)" class="st16"><tspan x="0" y="0" class="st11 st12 st13">Crée des informations d&apos;identification </tspan><tspan x="0" y="16.8" class="st11 st12 st13">pour les développeurs</tspan></text>
<rect x="78.9" y="37.2" class="st10" width="172.6" height="15.7"/>
<text transform="matrix(1 0 0 1 78.8922 49.6022)" class="st11 st12 st13">Développeur de logiciels</text>
<rect x="60.9" y="170.2" class="st10" width="203" height="15.7"/>
<text transform="matrix(1 0 0 1 60.8833 180.5966)" class="st11 st12 st13">Développe votre service de périphérie</text>
<rect x="60.9" y="258.2" class="st10" width="293.1" height="15.7"/>
<text transform="matrix(1 0 0 1 60.8833 268.6194)" class="st11 st12 st13">Signe et publie sur le concentrateur de gestion</text>
<rect x="202.9" y="378.5" class="st10" width="162.3" height="15.6"/>
<text transform="matrix(1 0 0 1 202.883 390.3475)" class="st5 st14 st15">Registre de conteneur</text>
<g>
	<path class="st5" d="M194.9,378.1h-8c-0.6,0-1,0.4-1,1v11c0,0.6,0.4,1,1,1h8c0.6,0,1-0.4,1-1v-11
		C195.9,378.5,195.5,378.1,194.9,378.1z M194.9,379.1v3h-8v-3H194.9z M186.9,386.1v-3h8v3H186.9z M186.9,390.1v-3h8v3H186.9z"/>
	<circle class="st5" cx="188.4" cy="380.6" r="0.5"/>
	<circle class="st5" cx="188.4" cy="384.6" r="0.5"/>
	<circle class="st5" cx="188.4" cy="388.6" r="0.5"/>
	<rect id="_x3C_Transparent_Rectangle_x3E__616_" x="182.9" y="376.6" class="st10" width="16" height="16"/>
</g>
<rect x="64.4" y="133.4" class="st10" width="322.8" height="26.2"/>
<text transform="matrix(1 0 0 1 64.3833 142.2756)"><tspan x="0" y="0" class="st11 st12 st17">- Crée un compte utilisateur</tspan><tspan x="0" y="14.4" class="st11 st12 st17">- Crée des paires de clés de signature (utilisées à l&apos;étape C)</tspan></text>
<rect x="64.4" y="189.4" class="st10" width="302.2" height="40.6"/>
<text transform="matrix(1 0 0 1 64.3833 198.2756)"><tspan x="0" y="0" class="st11 st12 st17">- Dockerise l&apos;application</tspan><tspan x="0" y="14.4" class="st11 st12 st17">- Teste et simule l&apos;environnement de production</tspan><tspan x="0" y="28.8" class="st11 st12 st17">- Crée des fichiers de métadonnées Open Horizon</tspan></text>
<rect x="65.4" y="277.9" class="st10" width="255" height="26.2"/>
<text transform="matrix(1 0 0 1 65.3833 286.7756)"><tspan x="0" y="0" class="st11 st12 st17">- Pousse, signe et publie les conteneurs</tspan><tspan x="0" y="14.4" class="st11 st12 st17">- Ajoute des contraintes de stratégie de service</tspan></text>
<rect x="48.4" y="363.4" class="st10" width="103.5" height="58.5"/>
<text transform="matrix(1 0 0 1 48.3833 373.7551)"><tspan x="0" y="0" class="st11 st12 st13">1. Pousse les </tspan><tspan x="0" y="16.8" class="st11 st12 st13">conteneurs</tspan></text>
<rect x="417.9" y="217.7" class="st10" width="111.3" height="83.8"/>
<text transform="matrix(1 0 0 1 417.8833 228.089)"><tspan x="0" y="0" class="st11 st12 st13">2. Publie les </tspan><tspan x="0" y="16.8" class="st11 st12 st13">métadonnées du </tspan><tspan x="0" y="33.6" class="st11 st12 st13">service sur le </tspan><tspan x="0" y="50.4" class="st11 st12 st13">concentrateur de </tspan><tspan x="0" y="67.2" class="st11 st12 st13">gestion.</tspan></text>
<text transform="matrix(0.8761 0 0 1 600.884 111.4223)"><tspan x="0" y="0" class="st11 st12 st13">Gestionnaire  </tspan><tspan x="0" y="16.8" class="st11 st12 st13">des secrets</tspan></text>
<rect x="598.4" y="235.9" class="st10" width="104.5" height="57.5"/>
<text transform="matrix(1 0 0 1 598.3833 246.2556)"><tspan x="0" y="0" class="st11 st12 st13">5. Déploie le </tspan><tspan x="0" y="16.8" class="st11 st12 st13">service</tspan></text>
<rect x="870.4" y="63.4" class="st10" width="167.5" height="81"/>
<text transform="matrix(1 0 0 1 870.3833 73.7556)"><tspan x="0" y="0" class="st11 st12 st13">3. Création d&apos;un modèle </tspan><tspan x="0" y="16.8" class="st11 st12 st13">ou d&apos;une politique pour </tspan><tspan x="0" y="33.6" class="st11 st12 st13">déployer le service vers </tspan><tspan x="0" y="50.4" class="st11 st12 st13">les nœuds de périphérie </tspan><tspan x="0" y="67.2" class="st11 st12 st13">corrects</tspan></text>
<rect x="767.4" y="290.4" class="st10" width="160" height="54"/>
<text transform="matrix(1 0 0 1 767.3833 300.7551)"><tspan x="0" y="0" class="st11 st12 st13">4. S&apos;enregistre avec un </tspan><tspan x="0" y="16.8" class="st11 st12 st13">modèle ou une politique </tspan><tspan x="0" y="33.6" class="st11 st12 st13">de nœuds</tspan></text>
<rect x="623.9" y="444.6" class="st10" width="65" height="30.6"/>
<text transform="matrix(1 0 0 1 623.8833 454.9218)"><tspan x="0" y="0" class="st11 st12 st13">Agent de </tspan><tspan x="0" y="16.8" class="st11 st12 st13">périphérie</tspan></text>
<rect x="828.4" y="444.6" class="st10" width="67" height="30.6"/>
<text transform="matrix(1 0 0 1 828.3833 454.9218)"><tspan x="0" y="0" class="st11 st12 st13">Service de </tspan><tspan x="0" y="16.8" class="st11 st12 st13">périphérie</tspan></text>
</svg>
