<?xml version="1.0" encoding="utf-8"?>
<!-- Generator: Adobe Illustrator 21.1.0, SVG Export Plug-In . SVG Version: 6.00 Build 0)  -->
<svg version="1.1" id="Layer_1" xmlns="http://www.w3.org/2000/svg" xmlns:xlink="http://www.w3.org/1999/xlink" x="0px" y="0px"
	 viewBox="0 0 922.8 632.2" style="enable-background:new 0 0 922.8 632.2;" xml:space="preserve">
<style type="text/css">
	.st0{fill:#4589FF;}
	.st1{fill:#F4F4F4;}
	.st2{fill:#BEBEBE;}
	.st3{fill:#E3F6FF;}
	.st4{fill:#0F62FE;}
	.st5{fill:#009D9A;}
	.st6{fill:#FFFFFF;}
	.st7{fill:#DCDCDC;}
	.st8{fill:none;stroke:#BEBEBE;stroke-width:2;}
	.st9{fill:#001D6C;}
	.st10{fill:none;}
	.st11{fill:#161616;}
	.st12{font-family:'IBMPlexSans';}
	.st13{font-size:14px;}
	.st14{enable-background:new    ;}
	.st15{font-family:'IBMPlexSans-Medium';}
	.st16{font-size:16px;}
	.st17{fill:none;stroke:#BEBEBE;stroke-width:2;stroke-miterlimit:10;}
	.st18{font-size:12px;}
</style>
<rect id="Rectangle-Copy-52" x="594.4" y="352.6" class="st0" width="318" height="269"/>
<path id="Shape" class="st1" d="M618.4,376.1c0.8,0,1.5-0.7,1.5-1.5s-0.7-1.5-1.5-1.5s-1.5,0.7-1.5,1.5S617.6,376.1,618.4,376.1z
	 M618.4,374.1c0.3,0,0.5,0.2,0.5,0.5s-0.2,0.5-0.5,0.5s-0.5-0.2-0.5-0.5S618.1,374.1,618.4,374.1z M623.2,378.5
	c0.8,0,1.5-0.7,1.5-1.5s-0.7-1.5-1.5-1.5s-1.5,0.7-1.5,1.5S622.4,378.5,623.2,378.5z M623.2,376.5c0.3,0,0.5,0.2,0.5,0.5
	s-0.2,0.5-0.5,0.5s-0.5-0.2-0.5-0.5S622.9,376.5,623.2,376.5L623.2,376.5z M612.6,380.7c-0.8,0-1.5,0.7-1.5,1.5s0.7,1.5,1.5,1.5
	s1.5-0.7,1.5-1.5S613.5,380.7,612.6,380.7z M612.6,382.7c-0.3,0-0.5-0.2-0.5-0.5s0.2-0.5,0.5-0.5s0.5,0.2,0.5,0.5
	S612.9,382.7,612.6,382.7z M613.6,378.5c0.8,0,1.5-0.7,1.5-1.5s-0.7-1.5-1.5-1.5s-1.5,0.7-1.5,1.5
	C612.1,377.8,612.8,378.5,613.6,378.5L613.6,378.5z M613.6,376.5c0.3,0,0.5,0.2,0.5,0.5s-0.2,0.5-0.5,0.5s-0.5-0.2-0.5-0.5
	S613.3,376.5,613.6,376.5L613.6,376.5z M624.2,380.7c-0.8,0-1.5,0.7-1.5,1.5s0.7,1.5,1.5,1.5s1.5-0.7,1.5-1.5S625,380.7,624.2,380.7
	z M624.2,382.7c-0.3,0-0.5-0.2-0.5-0.5s0.2-0.5,0.5-0.5s0.5,0.2,0.5,0.5S624.4,382.7,624.2,382.7z M620.8,384.6
	c-0.8,0-1.5,0.7-1.5,1.5s0.7,1.5,1.5,1.5s1.5-0.7,1.5-1.5S621.7,384.6,620.8,384.6L620.8,384.6z M620.8,386.6
	c-0.3,0-0.5-0.2-0.5-0.5s0.2-0.5,0.5-0.5s0.5,0.2,0.5,0.5c0,0.1-0.1,0.3-0.1,0.4C621.1,386.5,621,386.6,620.8,386.6z M616,384.6
	c-0.8,0-1.5,0.7-1.5,1.5s0.7,1.5,1.5,1.5s1.5-0.7,1.5-1.5S616.8,384.6,616,384.6L616,384.6z M616,386.6c-0.3,0-0.5-0.2-0.5-0.5
	s0.2-0.5,0.5-0.5s0.5,0.2,0.5,0.5S616.2,386.6,616,386.6z M621.4,380.6c0-1.7-1.3-3-3-3s-3,1.3-3,3s1.3,3,3,3
	S621.4,382.3,621.4,380.6z M618.4,382.6c-1.1,0-2-0.9-2-2s0.9-2,2-2s2,0.9,2,2c0,0.5-0.2,1-0.6,1.4
	C619.4,382.4,618.9,382.6,618.4,382.6z"/>
<path id="Line-4" class="st2" d="M35.9,70.4v256.2h362.5v-147h-6l7-14l7,14h-6v149H33.9V70.4H35.9z"/>
<circle id="Oval-Copy-3" class="st3" cx="670.4" cy="35.6" r="24"/>
<path id="Shape_1_" class="st4" d="M665.4,38.6c2.8,0,5,2.2,5,5v6h-2v-6c0-1.7-1.3-3-3-3h-4c-1.7,0-3,1.3-3,3v6h-2v-6
	c0-2.8,2.2-5,5-5H665.4z M663.4,26.6c2.8,0,5,2.2,5,5s-2.2,5-5,5s-5-2.2-5-5S660.6,26.6,663.4,26.6z M682,26.6l1.4,1.4l-7.1,7.1
	l-3.9-3.9l1.4-1.4l2.5,2.5L682,26.6z M663.4,28.6c-1.7,0-3,1.3-3,3c0,1.7,1.3,3,3,3s3-1.3,3-3C666.4,29.9,665.1,28.6,663.4,28.6z"/>
<circle id="Oval-Copy-3_1_" class="st3" cx="34.4" cy="35.6" r="24"/>
<path id="Shape_2_" class="st4" d="M29.4,38.6c2.8,0,5,2.2,5,5v6h-2v-6c0-1.7-1.3-3-3-3h-4c-1.7,0-3,1.3-3,3v6h-2v-6
	c0-2.8,2.2-5,5-5H29.4z M27.4,26.6c2.8,0,5,2.2,5,5s-2.2,5-5,5s-5-2.2-5-5S24.6,26.6,27.4,26.6z M42.5,25.5l1.8,0.4l-2.4,10.4
	l-1.8-0.4L42.5,25.5z M37.3,27.2l1.4,1.2L36.6,31l2.1,2.6l-1.4,1l-3.1-3.7L37.3,27.2z M47.1,27.2l3.1,3.7l-3.1,3.7l-1.4-1.2l2.1-2.6
	l-2.1-2.6L47.1,27.2z M27.4,28.6c-1.7,0-3,1.3-3,3c0,1.7,1.3,3,3,3c1.7,0,3-1.3,3-3C30.4,29.9,29.1,28.6,27.4,28.6z"/>
<rect id="Rectangle-Copy-14" x="161.4" y="352.6" class="st5" width="250" height="172"/>
<rect id="Rectangle-Copy-16" x="610.4" y="411.6" class="st6" width="80" height="81"/>
<rect id="Rectangle-Copy-16_1_" x="816.4" y="411.6" class="st6" width="80" height="121"/>
<rect id="Rectangle-Copy-16_2_" x="610.4" y="524.6" class="st6" width="80" height="81"/>
<path id="Line-2-Copy-24" class="st2" d="M802.4,444.6l14,7l-14,7v-6h-112v-2h112V444.6z"/>
<path id="Line-2-Copy-26" class="st2" d="M857.4,532.6v35.6h-153v6l-14-7l14-7v6h151v-33.6H857.4z"/>
<circle id="Oval-Copy-3_2_" class="st7" cx="34.4" cy="92.6" r="13"/>
<circle id="Oval-Copy-3_3_" class="st7" cx="34.4" cy="165.6" r="13"/>
<circle id="Oval-Copy-3_4_" class="st7" cx="34.4" cy="256.6" r="13"/>
<circle id="Oval-Copy-3_5_" class="st3" cx="747.4" cy="242.6" r="24"/>
<path id="Shape_3_" class="st4" d="M742.4,245.6c2.8,0,5,2.2,5,5v6h-2v-6c0-1.7-1.3-3-3-3h-4c-1.7,0-3,1.3-3,3v6h-2v-6
	c0-2.8,2.2-5,5-5H742.4z M740.4,233.6c2.8,0,5,2.2,5,5s-2.2,5-5,5s-5-2.2-5-5S737.6,233.6,740.4,233.6z M753.4,241.6v2h-2v-2H753.4z
	 M758.4,241.6v2h-2v-2H758.4z M740.4,235.6c-1.7,0-3,1.3-3,3s1.3,3,3,3s3-1.3,3-3S742.1,235.6,740.4,235.6z M761.4,238.6v2h-2v-2
	H761.4z M750.4,238.6v2h-2v-2H750.4z M758.4,233.6v7h-7v-7H758.4z M756.4,235.6h-3v3h3V235.6z M761.4,233.6v2h-2v-2H761.4z
	 M750.4,233.6v2h-2v-2H750.4z M753.4,230.6v2h-2v-2H753.4z M758.4,230.6v2h-2v-2H758.4z"/>
<path id="Line-8" class="st2" d="M35.9,326.1v104h111.5v-6l14,7l-14,7v-6H33.9v-106H35.9z"/>
<path id="Path-8" class="st2" d="M576.4,482.4v25.2h226v-6l14,7l-14,7v-6h-228v-25.2h-163v-2H576.4z"/>
<path id="Path-7" class="st2" d="M576.4,165.6v270.5h20v-6l14,7l-14,7v-6h-22V165.6H576.4z"/>
<line id="Path-9-Copy" class="st8" x1="746.7" y1="352.6" x2="746.7" y2="276.6"/>
<rect id="Rectangle-Copy-50" x="384.4" y="10.6" class="st9" width="210" height="155"/>
<rect id="Rectangle-Copy-16_4_" x="496.4" y="67.6" class="st6" width="80" height="81"/>
<rect id="Rectangle-Copy-16_5_" x="400.4" y="67.6" class="st6" width="80" height="81"/>
<rect x="24.3" y="86.3" class="st10" width="20" height="12.2"/>
<text transform="matrix(1 0 0 1 29.8159 96.6257)" class="st11 st12 st13">A</text>
<rect x="24.3" y="159.3" class="st10" width="20" height="13.4"/>
<text transform="matrix(1 0 0 1 29.732 169.6637)" class="st11 st12 st13">B</text>
<rect x="25.6" y="250.3" class="st10" width="17.5" height="13.4"/>
<text transform="matrix(1 0 0 1 29.9561 260.6817)" class="st11 st12 st13">C</text>
<rect x="411.8" y="459.2" class="st10" width="163" height="14.6"/>
<text transform="matrix(1 0 0 1 422.8583 469.6094)" class="st11 st12 st13">6. Tire les conteneurs</text>
<rect x="783.4" y="236.3" class="st10" width="100" height="15.4"/>
<rect x="783.4" y="228.2" class="st10" width="90" height="32.1"/>
<text transform="matrix(1 0 0 1 783.4033 240.0699)" class="st14"><tspan x="0" y="0" class="st11 st12 st13">Propriétaire </tspan><tspan x="0" y="16.8" class="st11 st12 st13">du nœud</tspan></text>
<rect x="702.4" y="29.3" class="st10" width="100" height="15.4"/>
<text transform="matrix(1 0 0 1 702.4105 39.6649)" class="st11 st12 st13">Administrateur</text>
<rect x="400.4" y="30.8" class="st10" width="187" height="15.6"/>
<text transform="matrix(0.9685 0 0 1 400.3807 42.6995)" class="st1 st15 st16">Concentrateur de gestion</text>
<rect x="632.4" y="372.8" class="st10" width="236.1" height="15.6"/>
<text transform="matrix(1 0 0 1 632.3806 384.6292)" class="st1 st15 st16">Noeud de périphérie</text>
<rect x="816.3" y="445.2" class="st10" width="80" height="56.3"/>
<rect x="619.8" y="439.3" class="st10" width="61.1" height="35.7"/>
<rect x="619.8" y="552.4" class="st10" width="61.1" height="35.7"/>
<rect x="689.7" y="427.2" class="st10" width="111.2" height="13.7"/>
<text transform="matrix(1 0 0 1 704.5538 437.6187)" class="st1 st12 st13">7. Exécutions</text>
<rect x="704.9" y="543.2" class="st10" width="150.7" height="13.7"/>
<text transform="matrix(1 0 0 1 742.5511 553.6175)" class="st1 st12 st13">8. Démarre</text>
<rect x="496.3" y="101.3" class="st10" width="80" height="14.9"/>
<text transform="matrix(1 0 0 1 510.3711 111.6421)" class="st11 st12 st13">Échange</text>
<rect x="400.3" y="101.3" class="st10" width="80" height="14.9"/>
<text transform="matrix(1 0 0 1 421.3618 111.6421)" class="st11 st12 st13">Agbot</text>
<rect x="55.4" y="87.2" class="st10" width="280.6" height="15.7"/>
<rect x="55.4" y="85.7" class="st10" width="260.7" height="29.5"/>
<text transform="matrix(1 0 0 1 55.3805 97.6139)" class="st14"><tspan x="0" y="0" class="st11 st12 st13">Crée des informations d&apos;identification </tspan><tspan x="0" y="16.8" class="st11 st12 st13">pour les développeurs</tspan></text>
<rect x="73.4" y="29.3" class="st10" width="172.6" height="15.7"/>
<text transform="matrix(1 0 0 1 73.3893 39.6527)" class="st11 st12 st13">Développeur de logiciels</text>
<rect x="55.4" y="159.1" class="st10" width="283.4" height="15.7"/>
<text transform="matrix(1 0 0 1 55.3805 169.5211)" class="st11 st12 st13">Développe l&apos;opérateur de services de périphérie.</text>
<rect x="55.4" y="250.3" class="st10" width="293.1" height="15.7"/>
<text transform="matrix(1 0 0 1 55.3805 260.67)" class="st11 st12 st13">Signe et publie sur le concentrateur de gestion</text>
<g>
	<rect x="197.4" y="370.5" class="st10" width="162.3" height="15.6"/>
	<text transform="matrix(1 0 0 1 197.3862 382.3456)" class="st1 st15 st16">Registre de conteneur</text>
	<g>
		<path class="st1" d="M189.4,370.1h-8c-0.6,0-1,0.4-1,1v11c0,0.6,0.4,1,1,1h8c0.6,0,1-0.4,1-1v-11
			C190.4,370.5,190,370.1,189.4,370.1z M189.4,371.1v3h-8v-3H189.4z M181.4,378.1v-3h8v3H181.4z M181.4,382.1v-3h8v3H181.4z"/>
		<circle class="st1" cx="182.9" cy="372.6" r="0.5"/>
		<circle class="st1" cx="182.9" cy="376.6" r="0.5"/>
		<circle class="st1" cx="182.9" cy="380.6" r="0.5"/>
		<rect id="_x3C_Transparent_Rectangle_x3E__616_" x="177.4" y="368.6" class="st10" width="16" height="16"/>
	</g>
</g>
<g>
	<g>
		<polyline class="st17" points="746.4,207.6 746.4,151.6 604.4,151.6 		"/>
		<g>
			<polygon class="st2" points="606.5,144.6 594.4,151.6 606.5,158.6 			"/>
		</g>
	</g>
</g>
<g>
	<g>
		<polyline class="st17" points="670.4,70.7 670.4,127.6 604.4,127.6 		"/>
		<g>
			<polygon class="st2" points="606.5,120.6 594.4,127.6 606.5,134.6 			"/>
		</g>
	</g>
</g>
<rect x="58.9" y="123.4" class="st10" width="318.5" height="26.2"/>
<text transform="matrix(1 0 0 1 58.8865 132.2737)"><tspan x="0" y="0" class="st11 st12 st18">- Crée un compte utilisateur</tspan><tspan x="0" y="14.4" class="st11 st12 st18">- Crée des paires de clés de signature (utilisées à l&apos;étape C)</tspan></text>
<rect x="57.9" y="187.4" class="st10" width="303.5" height="40.6"/>
<text transform="matrix(1 0 0 1 57.8865 196.2737)"><tspan x="0" y="0" class="st11 st12 st18">- Crée une archive contenant les fichiers de définition </tspan><tspan x="8.7" y="14.4" class="st11 st12 st18">yaml du service</tspan><tspan x="0" y="28.8" class="st11 st12 st18">- Crée des fichiers de métadonnées Open Horizon</tspan></text>
<rect x="61.4" y="278.4" class="st10" width="286" height="26.2"/>
<text transform="matrix(1 0 0 1 61.3865 287.2737)"><tspan x="0" y="0" class="st11 st12 st18">- Pousse, signe et publie les conteneurs</tspan><tspan x="0" y="14.4" class="st11 st12 st18">- Ajoute des contraintes de stratégie de service</tspan></text>
<rect x="46.4" y="356.4" class="st10" width="107.5" height="60"/>
<text transform="matrix(1 0 0 1 46.3865 366.7532)"><tspan x="0" y="0" class="st11 st12 st13">1. Pousse les </tspan><tspan x="0" y="16.8" class="st11 st12 st13">conteneurs</tspan></text>
<rect x="414.9" y="211.4" class="st10" width="115.5" height="81"/>
<text transform="matrix(1 0 0 1 414.8865 221.7537)"><tspan x="0" y="0" class="st11 st12 st13">2. Publie les </tspan><tspan x="0" y="16.8" class="st11 st12 st13">métadonnées du </tspan><tspan x="0" y="33.6" class="st11 st12 st13">service sur le </tspan><tspan x="0" y="50.4" class="st11 st12 st13">concentrateur de </tspan><tspan x="0" y="67.2" class="st11 st12 st13">gestion.</tspan></text>
<rect x="684.4" y="66.4" class="st10" width="226" height="64.2"/>
<text transform="matrix(1 0 0 1 684.3865 76.7537)"><tspan x="0" y="0" class="st11 st12 st13">3. Création d&apos;un modèle ou d&apos;une </tspan><tspan x="0" y="16.8" class="st11 st12 st13">politique pour déployer le service </tspan><tspan x="0" y="33.6" class="st11 st12 st13">vers les nœuds de périphérie </tspan><tspan x="0" y="50.4" class="st11 st12 st13">corrects</tspan></text>
<rect x="589.9" y="237.9" class="st10" width="118" height="30.6"/>
<text transform="matrix(1 0 0 1 589.8865 248.2537)"><tspan x="0" y="0" class="st11 st12 st13">5. Déploie le </tspan><tspan x="0" y="16.8" class="st11 st12 st13">service</tspan></text>
<rect x="757.9" y="286.4" class="st10" width="138.5" height="47.4"/>
<text transform="matrix(1 0 0 1 757.8865 296.7537)"><tspan x="0" y="0" class="st11 st12 st13">4. S&apos;enregistre avec </tspan><tspan x="0" y="16.8" class="st11 st12 st13">un modèle ou une </tspan><tspan x="0" y="33.6" class="st11 st12 st13">règle de noeud</tspan></text>
<rect x="616.9" y="436.9" class="st10" width="68" height="30.6"/>
<text transform="matrix(1 0 0 1 616.8865 447.2532)"><tspan x="0" y="0" class="st11 st12 st13">Agent de </tspan><tspan x="0" y="16.8" class="st11 st12 st13">périphérie</tspan></text>
<rect x="614.9" y="551.9" class="st10" width="67" height="30.6"/>
<text transform="matrix(1 0 0 1 614.8865 562.2532)"><tspan x="0" y="0" class="st11 st12 st13">Service de </tspan><tspan x="0" y="16.8" class="st11 st12 st13">périphérie</tspan></text>
<rect x="821.6" y="441.7" class="st10" width="69.2" height="64.2"/>
<text transform="matrix(1 0 0 1 821.5532 452.0865)"><tspan x="0" y="0" class="st11 st12 st13">Opérateur </tspan><tspan x="0" y="16.8" class="st11 st12 st13">de service </tspan><tspan x="0" y="33.6" class="st11 st12 st13">de </tspan><tspan x="0" y="50.4" class="st11 st12 st13">périphérie</tspan></text>
</svg>
