<?xml version="1.0" encoding="utf-8"?>
<!-- Generator: Adobe Illustrator 21.1.0, SVG Export Plug-In . SVG Version: 6.00 Build 0)  -->
<svg version="1.1" id="Layer_1" xmlns="http://www.w3.org/2000/svg" xmlns:xlink="http://www.w3.org/1999/xlink" x="0px" y="0px"
	 viewBox="0 0 1256 831.4" style="enable-background:new 0 0 1256 831.4;" xml:space="preserve">
<style type="text/css">
	.st0{fill:#E3F6FF;}
	.st1{fill:#0062FF;}
	.st2{fill:#8A3FFC;}
	.st3{fill:#92EEEE;}
	.st4{fill:#408BFC;}
	.st5{fill:#009C98;}
	.st6{fill:#BEBEBE;}
	.st7{fill:none;stroke:#00BAB6;stroke-width:2;stroke-dasharray:7;}
	.st8{fill:none;}
	.st9{fill:#F4F4F4;}
	.st10{font-family:'IBMPlexSans';}
	.st11{font-size:14px;}
	.st12{enable-background:new    ;}
	.st13{fill:#161616;}
	.st14{font-family:'IBMPlexSans-Medium';}
	.st15{font-size:16px;}
</style>
<circle id="Oval-Copy-8" class="st0" cx="72.5" cy="204.2" r="32.5"/>
<path id="Shape" class="st1" d="M81.5,213.7h-17c-4.1,0-7.5-3.4-7.5-7.5c0-3.6,2.6-6.7,6.1-7.4c0,0,0.1,0,0.1-0.1c1-4.7,5.1-8,9.8-8
	c0.6,0,1.3,0.1,1.9,0.2c4,0.8,7.1,3.9,7.9,7.9c0,0,0,0.1,0.1,0.1c4,0.8,6.7,4.7,6,8.7C88.2,211.1,85.1,213.7,81.5,213.7z
	 M64.5,211.7h17c2.7,0,4.9-1.9,5.4-4.5c0.3-1.8-0.2-3.6-1.5-4.9c-0.8-0.8-1.8-1.3-2.8-1.5l-0.3-0.1l-1.1-0.2c0,0-0.1,0-0.1-0.1l0,0
	l-0.2-1c-0.6-3.2-3-5.8-6.1-6.5c-0.9-0.2-1.9-0.3-2.8-0.1c-3.4,0.5-6,3.1-6.8,6.5l-0.1,0.3l-0.2,0.9c0,0,0,0.1-0.1,0.1l0,0l-1,0.2
	c-2.4,0.4-4.4,2.3-4.7,4.7C58.6,208.8,61.2,211.7,64.5,211.7z"/>
<circle id="Oval-Copy-9" class="st0" cx="73.5" cy="597.7" r="32.5"/>
<path id="Fill-1-Copy-2" class="st1" d="M81,591.2h1v-1h-1V591.2z M82.8,588.2h-2.5c-0.7,0-1.2,0.6-1.2,1.2v2.5
	c0,0.7,0.6,1.2,1.2,1.2h2.5c0.7,0,1.2-0.6,1.2-1.2v-2.5C84,588.8,83.4,588.2,82.8,588.2L82.8,588.2z M68,604.2v-8h8v8H68z M76,594.2
	h-1v-2h-2v2h-2v-2h-2v2h-1c-1.1,0-2,0.9-2,2v1h-2v2h2v2h-2v2h2v1c0,1.1,0.9,2,2,2h8c1.1,0,2-0.9,2-2v-8
	C78,595.1,77.1,594.2,76,594.2L76,594.2z M78,603.2h2v-2h-2V603.2z M78,599.2h2v-2h-2V599.2z M73,608.2h2v-2h-2V608.2z M69,608.2h2
	v-2h-2V608.2z M83,598.2c-0.6,0-1,0.4-1,1s0.4,1,1,1s1-0.4,1-1S83.6,598.2,83,598.2L83,598.2z M83,602.2c-0.6,0-1,0.4-1,1s0.4,1,1,1
	s1-0.4,1-1S83.6,602.2,83,602.2L83,602.2z M65,590.2c0.6,0,1-0.4,1-1s-0.4-1-1-1s-1,0.4-1,1S64.4,590.2,65,590.2L65,590.2z
	 M83,606.2c-0.6,0-1,0.4-1,1s0.4,1,1,1s1-0.4,1-1S83.6,606.2,83,606.2L83,606.2z M86,610c0,0.1-0.1,0.2-0.2,0.2H62.2
	c-0.1,0-0.2-0.1-0.2-0.2v-23.6c0-0.1,0.1-0.2,0.2-0.2h23.6c0.1,0,0.2,0.1,0.2,0.2V610z M85.8,584.2H62.2c-1.2,0-2.2,1-2.2,2.2V610
	c0,1.2,1,2.2,2.2,2.2h23.6c1.2,0,2.2-1,2.2-2.2v-23.6C88,585.2,87,584.2,85.8,584.2L85.8,584.2z"/>
<circle id="Oval-Copy-2" class="st0" cx="71.5" cy="51.2" r="32.5"/>
<path id="Fill-1" class="st1" d="M60,56.7h24v-16H60V56.7z M70,62.7h4v-4h-4V62.7z M84,38.7H60c-1.1,0-2,0.9-2,2v16c0,1.1,0.9,2,2,2
	h8v4h-4v2h16v-2h-4v-4h8c1.1,0,2-0.9,2-2v-16C86,39.6,85.1,38.7,84,38.7L84,38.7z"/>
<circle id="Oval-Copy-10" class="st0" cx="701.5" cy="66.2" r="32.5"/>
<path id="Fill-1_1_" class="st1" d="M702,51.7c-3.9,0-7,3.1-7,7s3.1,7,7,7s7-3.1,7-7S705.9,51.7,702,51.7 M702,53.7c2.8,0,5,2.2,5,5
	s-2.2,5-5,5s-5-2.2-5-5S699.2,53.7,702,53.7"/>
<path id="Fill-3" class="st1" d="M712,79.7h-2v-5c0-2.8-2.2-5-5-5h-6c-2.8,0-5,2.2-5,5v5h-2v-5c0-3.9,3.1-7,7-7h6c3.9,0,7,3.1,7,7
	V79.7z"/>
<rect id="Rectangle-Copy-18" x="234" y="560.2" class="st2" width="209" height="48"/>
<rect id="Rectangle-Copy-18_1_" x="234" y="193.7" class="st3" width="209" height="48"/>
<rect id="Rectangle-Copy-18_2_" x="234" y="33.7" class="st4" width="209" height="66"/>
<rect id="Rectangle-Copy-18_3_" x="234" y="295.7" class="st3" width="209" height="48"/>
<rect id="Rectangle-Copy-18_4_" x="234" y="662.2" class="st2" width="209" height="48"/>
<rect id="Rectangle-Copy-14" x="606" y="658.2" class="st4" width="192" height="56"/>
<rect id="Rectangle-Copy-14_1_" x="558" y="188.7" class="st4" width="288" height="117"/>
<rect id="Rectangle-Copy-18_5_" x="234" y="764.2" class="st2" width="209" height="48"/>
<path id="Rectangle-Copy-66" class="st5" d="M612,445.7h180c7.7,0,14,6.3,14,14v28c0,7.7-6.3,14-14,14H612c-7.7,0-14-6.3-14-14v-28
	C598,452,604.3,445.7,612,445.7z"/>
<path id="Rectangle-Copy-72" class="st5" d="M936,188.7h260c7.7,0,14,6.3,14,14v48c0,7.7-6.3,14-14,14H936c-7.7,0-14-6.3-14-14v-48
	C922,195,928.3,188.7,936,188.7z"/>
<path id="Rectangle-Copy-73" class="st5" d="M936,280.7h260c7.7,0,14,6.3,14,14v48c0,7.7-6.3,14-14,14H936c-7.7,0-14-6.3-14-14v-48
	C922,287,928.3,280.7,936,280.7z"/>
<path id="Path-2-Copy-16" class="st6" d="M648.9,59.7l14,7l-14,7v-6H457v6l-14-7l14-7v6h191.9V59.7z"/>
<path id="Path-2-Copy-12" class="st6" d="M339,710.2l7,14h-6v26h6l-7,14l-7-14h6v-26h-6L339,710.2z"/>
<path id="Path-2-Copy-17" class="st6" d="M702,391.7l7,14h-6v40h-2v-40h-6L702,391.7z"/>
<path id="Path-2-Copy-13" class="st6" d="M339,608.2l7,14h-6v26h6l-7,14l-7-14h6v-26h-6L339,608.2z"/>
<path id="Path-2-Copy-22" class="st6" d="M702,501.7l7,14h-6v72H443v-2h258v-70h-6L702,501.7z"/>
<path id="Path-2-Copy-14" class="st6" d="M339,241.7l7,14h-6v40h-2v-40h-6L339,241.7z"/>
<path id="Path-2-Copy-15" class="st6" d="M339,99.7l7,14h-6v66h6l-7,14l-7-14h6v-66h-6L339,99.7z"/>
<line id="Line-12" class="st7" x1="29.8" y1="140.2" x2="1229.2" y2="140.2"/>
<line id="Line-12-Copy" class="st7" x1="29.8" y1="533.2" x2="1229.2" y2="533.2"/>
<rect id="Rectangle-Copy-18_6_" x="574" y="241.7" class="st2" width="256" height="48"/>
<rect id="Rectangle-Copy-18_7_" x="574" y="343.7" class="st2" width="256" height="48"/>
<path id="Path-2-Copy-18" class="st6" d="M702,289.7l7,14h-6v40h-2v-40h-6L702,289.7z"/>
<path id="Path-2-Copy-19" class="st6" d="M574,263.7v2h-35v55h-80.5v6l-14-7l14-7v6H537v-55H574z"/>
<path id="Path-2-Copy-20" class="st6" d="M908,219.7l14,7l-14,7v-6h-39.1v27H844v6l-14-7l14-7v6h22.9v-27H908V219.7z"/>
<path id="Path-2-Copy-21" class="st6" d="M844,283.7l-14-7l14-7v6h25.2v42H908v-6l14,7l-14,7v-6h-40.8v-42H844V283.7z"/>
<rect x="233.9" y="577.3" class="st8" width="209" height="17.2"/>
<text transform="matrix(1 0 0 1 273.5586 587.7209)" class="st9 st10 st11">service sdr2msghub</text>
<rect x="233.9" y="50.3" class="st8" width="209" height="38.4"/>
<rect x="574" y="360.3" class="st8" width="256" height="17.2"/>
<text transform="matrix(1 0 0 1 679.4111 370.7035)" class="st9 st10 st11">Déclencheur</text>
<rect x="573.8" y="258.3" class="st8" width="256" height="17.2"/>
<text transform="matrix(1 0 0 1 606.2769 268.7154)" class="st9 st10 st11">Action radio définie par logiciel</text>
<rect x="233.9" y="679.3" class="st8" width="209" height="17.2"/>
<text transform="matrix(1 0 0 1 303.5463 689.7242)" class="st9 st10 st11">sdr service</text>
<rect x="233.9" y="781.3" class="st8" width="209" height="17.2"/>
<text transform="matrix(1 0 0 1 304.8764 791.7137)" class="st9 st10 st11">capteur sdr</text>
<rect x="941.3" y="164.3" class="st8" width="288" height="15"/>
<text transform="matrix(1 0 0 1 932.0001 165.3878)" class="st12"><tspan x="0" y="0" class="st13 st10 st11">Conversion de texte audio,  </tspan><tspan x="0" y="16.8" class="st13 st10 st11">analyse des sentiments</tspan></text>
<rect x="458.2" y="42.3" class="st8" width="189.3" height="17"/>
<rect x="482.9" y="31.5" class="st8" width="144.1" height="31.8"/>
<text transform="matrix(1 0 0 1 485.6284 43.3859)" class="st12"><tspan x="0" y="0" class="st13 st10 st11">Fournit des affichages </tspan><tspan x="32.8" y="16.8" class="st13 st10 st11">de données</tspan></text>
<rect x="669.4" y="106.3" class="st8" width="65" height="17"/>
<text transform="matrix(1 0 0 1 669.1124 116.7137)" class="st13 st10 st11">Utilisateur</text>
<rect x="234" y="312.9" class="st8" width="209" height="16.5"/>
<rect x="245.2" y="304.4" class="st8" width="188.8" height="32.1"/>
<text transform="matrix(1 0 0 1 256.8504 316.3075)" class="st12"><tspan x="0" y="0" class="st13 st10 st11">Composition de la base de </tspan><tspan x="26.5" y="16.8" class="st13 st10 st11">données Postgres</tspan></text>
<rect x="234" y="210.9" class="st8" width="209" height="16.5"/>
<text transform="matrix(1 0 0 1 255.115 222.2374)" class="st13 st10 st11">Node.js, Express, GraphQL</text>
<rect x="36.5" y="244.4" class="st8" width="70.9" height="16.5"/>
<text transform="matrix(1 0 0 1 53.38 254.7375)" class="st13 st10 st11">Cloud</text>
<rect x="38.1" y="637.7" class="st8" width="70.9" height="16.5"/>
<rect x="22.3" y="636.2" class="st8" width="101.2" height="32.1"/>
<text transform="matrix(1 0 0 1 42.5743 648.0739)" class="st12"><tspan x="0" y="0" class="st13 st10 st11">Noeud de </tspan><tspan x="-2" y="16.8" class="st13 st10 st11">périphérie</tspan></text>
<rect x="27.9" y="91.3" class="st8" width="88.1" height="16.5"/>
<text transform="matrix(1 0 0 1 22.0789 101.72)" class="st13 st10 st11">navigateur Web</text>
<rect x="574" y="208.8" class="st8" width="158.1" height="15.6"/>
<text transform="matrix(1 0 0 1 573.9996 220.7081)" class="st9 st14 st15">Fonctions IBM</text>
<rect x="597.1" y="465.9" class="st8" width="207.9" height="15.6"/>
<text transform="matrix(1 0 0 1 630.6774 477.7165)" class="st9 st14 st15">IBM Event Streams</text>
<rect x="606" y="678.4" class="st8" width="192" height="15.6"/>
<text transform="matrix(1 0 0 1 629.553 690.2736)" class="st9 st14 st15">Agent Open Horizon</text>
<rect x="923" y="300.9" class="st8" width="288" height="41"/>
<rect x="922" y="208.9" class="st8" width="288" height="41"/>
<rect x="53.3" y="361.7" class="st8" width="99.4" height="15.6"/>
<text transform="matrix(1 0 0 1 53.3008 373.5601)" class="st13 st14 st15">Noeud de périphérie</text>
<rect x="248" y="49.3" class="st8" width="181.3" height="34.7"/>
<text transform="matrix(1 0 0 1 259.7775 59.6932)"><tspan x="0" y="0" class="st9 st10 st11">Fournit des affichages de </tspan><tspan x="-3.7" y="16.8" class="st9 st10 st11">données (React, GraphQL)</tspan></text>
<rect x="356" y="144.7" class="st8" width="186" height="47.4"/>
<text transform="matrix(1 0 0 1 355.9998 155.0265)"><tspan x="0" y="0" class="st13 st10 st11">Utilise l&apos;interface utilisateur, </tspan><tspan x="0" y="16.8" class="st13 st10 st11">transporte les données vers </tspan><tspan x="0" y="33.6" class="st13 st10 st11">le navigateur.</tspan></text>
<rect x="355.3" y="245.3" class="st8" width="168.7" height="47.4"/>
<text transform="matrix(1 0 0 1 355.3335 255.6934)"><tspan x="0" y="0" class="st13 st10 st11">Stocke uniquement les </tspan><tspan x="0" y="16.8" class="st13 st10 st11">informations (sentiments) </tspan><tspan x="0" y="33.6" class="st13 st10 st11">dans la base de données.</tspan></text>
<text transform="matrix(0.8396 0 0 1 355.333 623.6934)"><tspan x="0" y="0" class="st13 st10 st11">L&apos;apprentissage automatique permet de  </tspan><tspan x="0" y="16.8" class="st13 st10 st11">sélectionner les meilleures stations de radio  </tspan><tspan x="0" y="33.6" class="st13 st10 st11">et d&apos;envoyer les fichiers audio sur le cloud.</tspan></text>
<rect x="359.3" y="723.3" class="st8" width="174" height="30"/>
<text transform="matrix(1 0 0 1 359.3335 733.6921)"><tspan x="0" y="0" class="st13 st10 st11">Récupérer les clips audio </tspan><tspan x="0" y="16.8" class="st13 st10 st11">des stations de radio</tspan></text>
<rect x="720.7" y="404.7" class="st8" width="203.3" height="30.6"/>
<text transform="matrix(1 0 0 1 720.667 415.0264)"><tspan x="0" y="0" class="st13 st10 st11">Un message déclenche une </tspan><tspan x="0" y="16.8" class="st13 st10 st11">action radio définie par logiciel</tspan></text>
<rect x="945.5" y="213.2" class="st8" width="245.3" height="16"/>
<text transform="matrix(1 0 0 1 961.8166 225.0057)" class="st9 st14 st15">Synthèse vocale IBM Watson</text>
<rect x="937.5" y="301.3" class="st8" width="261.3" height="35.2"/>
<text transform="matrix(1 0 0 1 940.1606 313.1732)"><tspan x="0" y="0" class="st9 st14 st15">Compréhension du langage naturel </tspan><tspan x="69.1" y="19.2" class="st9 st14 st15">par IBM Watson</tspan></text>
</svg>
